%FSLAX25Y25*%
%MOIN*%
G70*
G01*
G75*
G04 Layer_Color=16711935*
%ADD10R,0.02000X0.02000*%
%ADD11R,0.04134X0.05512*%
%ADD12R,0.05512X0.04134*%
%ADD13O,0.09843X0.02756*%
%ADD14O,0.02362X0.08661*%
%ADD15R,0.06300X0.05500*%
%ADD16O,0.06693X0.01378*%
%ADD17R,0.03543X0.02559*%
%ADD18R,0.03543X0.03740*%
%ADD19R,0.03937X0.03937*%
%ADD20R,0.03937X0.03937*%
%ADD21R,0.03740X0.05315*%
%ADD22R,0.05315X0.03740*%
%ADD23C,0.01000*%
%ADD24C,0.00000*%
%ADD25C,0.02000*%
%ADD26C,0.01600*%
%ADD27C,0.03200*%
%ADD28R,0.05906X0.05906*%
%ADD29C,0.05906*%
%ADD30R,0.05906X0.05906*%
%ADD31C,0.04724*%
%ADD32R,0.04724X0.04724*%
%ADD33O,0.09843X0.06693*%
%ADD34C,0.05000*%
%ADD35R,0.02000X0.02000*%
%ADD36C,0.00984*%
%ADD37C,0.01575*%
%ADD38C,0.02362*%
%ADD39C,0.00800*%
%ADD40C,0.00787*%
%ADD41C,0.00591*%
%ADD42R,0.00730X0.02560*%
%ADD43R,0.06700X0.01800*%
%ADD44R,0.00650X0.02300*%
%ADD45R,0.02300X0.00650*%
%ADD46R,0.01800X0.06700*%
%ADD47R,0.02560X0.00730*%
%ADD48R,0.05906X0.78740*%
%ADD49R,0.02800X0.02800*%
%ADD50R,0.04934X0.06312*%
%ADD51R,0.06312X0.04934*%
%ADD52O,0.10642X0.03556*%
%ADD53O,0.03162X0.09461*%
%ADD54R,0.07100X0.06300*%
%ADD55O,0.07493X0.02178*%
%ADD56R,0.04343X0.03359*%
%ADD57R,0.04343X0.04540*%
%ADD58R,0.04540X0.06115*%
%ADD59R,0.06115X0.04540*%
%ADD60R,0.06706X0.06706*%
%ADD61C,0.06706*%
%ADD62R,0.06706X0.06706*%
%ADD63C,0.05524*%
%ADD64R,0.05524X0.05524*%
%ADD65O,0.10642X0.07493*%
%ADD66C,0.05800*%
%ADD67R,0.02800X0.02800*%
D49*
X328639Y325235D02*
D03*
Y322235D02*
D03*
D60*
X312500Y298000D02*
D03*
D61*
Y308000D02*
D03*
Y318000D02*
D03*
X298500Y235500D02*
D03*
X271000D02*
D03*
X326000D02*
D03*
X277500Y367500D02*
D03*
X287500D02*
D03*
X297500D02*
D03*
D62*
X288500Y235500D02*
D03*
X261000D02*
D03*
X316000D02*
D03*
X267500Y367500D02*
D03*
D63*
X347000Y341500D02*
D03*
D64*
Y371500D02*
D03*
D65*
X368500Y249472D02*
D03*
Y269158D02*
D03*
Y288843D02*
D03*
Y308528D02*
D03*
D66*
X308000Y353000D02*
D03*
X352500Y309000D02*
D03*
X332150Y267150D02*
D03*
X259500Y263500D02*
D03*
X236500Y284000D02*
D03*
X338000Y277500D02*
D03*
X294400Y336000D02*
D03*
X271500Y325500D02*
D03*
X334724Y324276D02*
D03*
X270000Y341500D02*
D03*
X251859Y302984D02*
D03*
X263000Y341000D02*
D03*
X246500Y312000D02*
D03*
X278000Y309000D02*
D03*
X284500Y251500D02*
D03*
X277043Y319457D02*
D03*
X286000Y306500D02*
D03*
X260500Y281500D02*
D03*
X251000Y292500D02*
D03*
X288000Y267500D02*
D03*
X248500Y345500D02*
D03*
X243000Y348500D02*
D03*
X294000Y286500D02*
D03*
X285276Y276568D02*
D03*
D67*
X255500Y293000D02*
D03*
X258500D02*
D03*
M02*
