%FSLAX25Y25*%
%MOIN*%
G70*
G01*
G75*
G04 Layer_Color=16711935*
%ADD10R,0.03740X0.05315*%
%ADD11R,0.05315X0.03740*%
%ADD12R,0.03543X0.03740*%
%ADD13R,0.03937X0.03937*%
%ADD14R,0.03937X0.03937*%
%ADD15R,0.03543X0.02559*%
%ADD16O,0.06693X0.01378*%
%ADD17R,0.06300X0.05500*%
%ADD18O,0.02362X0.08661*%
%ADD19O,0.09843X0.02756*%
%ADD20R,0.05512X0.04134*%
%ADD21R,0.04134X0.05512*%
%ADD22R,0.02000X0.02000*%
%ADD23C,0.01600*%
%ADD24C,0.01000*%
%ADD25C,0.02000*%
%ADD26C,0.03200*%
%ADD27C,0.02800*%
%ADD28O,0.09843X0.06693*%
%ADD29C,0.05906*%
%ADD30R,0.05906X0.05906*%
%ADD31R,0.07000X0.07000*%
%ADD32C,0.07000*%
%ADD33R,0.05906X0.05906*%
%ADD34C,0.02400*%
%ADD35C,0.03400*%
%ADD36C,0.05000*%
%ADD37R,0.02000X0.02000*%
%ADD38C,0.00787*%
%ADD39C,0.00800*%
%ADD40C,0.00984*%
%ADD41C,0.02362*%
%ADD42C,0.01575*%
%ADD43C,0.00591*%
%ADD44R,0.05906X0.78740*%
%ADD45R,0.02560X0.00730*%
%ADD46R,0.01800X0.06700*%
%ADD47R,0.02300X0.00650*%
%ADD48R,0.00650X0.02300*%
%ADD49R,0.06700X0.01800*%
%ADD50R,0.00730X0.02560*%
%ADD51R,0.04540X0.06115*%
%ADD52R,0.06115X0.04540*%
%ADD53R,0.04343X0.04540*%
%ADD54R,0.04343X0.03359*%
%ADD55O,0.07493X0.02178*%
%ADD56R,0.07100X0.06300*%
%ADD57O,0.03162X0.09461*%
%ADD58O,0.10642X0.03556*%
%ADD59R,0.06312X0.04934*%
%ADD60R,0.04934X0.06312*%
%ADD61R,0.02800X0.02800*%
%ADD62O,0.10642X0.07493*%
%ADD63C,0.06706*%
%ADD64R,0.06706X0.06706*%
%ADD65R,0.07800X0.07800*%
%ADD66C,0.07800*%
%ADD67R,0.06706X0.06706*%
%ADD68R,0.02800X0.02800*%
D61*
X328639Y322235D02*
D03*
Y325235D02*
D03*
D62*
X368500Y308528D02*
D03*
Y288843D02*
D03*
Y269158D02*
D03*
Y249472D02*
D03*
D63*
X297500Y367500D02*
D03*
X287500D02*
D03*
X277500D02*
D03*
X326000Y235500D02*
D03*
X271000D02*
D03*
X298500D02*
D03*
X312500Y318000D02*
D03*
Y308000D02*
D03*
D64*
X267500Y367500D02*
D03*
X316000Y235500D02*
D03*
X261000D02*
D03*
X288500D02*
D03*
D65*
X347000Y371500D02*
D03*
D66*
Y341500D02*
D03*
D67*
X312500Y298000D02*
D03*
D68*
X258500Y293000D02*
D03*
X255500D02*
D03*
M02*
