%FSLAX25Y25*%
%MOIN*%
G70*
G01*
G75*
G04 Layer_Color=65535*
%ADD10R,0.02000X0.02000*%
%ADD11R,0.04134X0.05512*%
%ADD12R,0.05512X0.04134*%
%ADD13O,0.09843X0.02756*%
%ADD14O,0.02362X0.08661*%
%ADD15R,0.06300X0.05500*%
%ADD16O,0.06693X0.01378*%
%ADD17R,0.03543X0.02559*%
%ADD18R,0.03543X0.03740*%
%ADD19R,0.03937X0.03937*%
%ADD20R,0.03937X0.03937*%
%ADD21R,0.03740X0.05315*%
%ADD22R,0.05315X0.03740*%
%ADD23C,0.01000*%
%ADD24C,0.00000*%
%ADD25C,0.02000*%
%ADD26C,0.01600*%
%ADD27C,0.03200*%
%ADD28R,0.05906X0.05906*%
%ADD29C,0.05906*%
%ADD30R,0.05906X0.05906*%
%ADD31C,0.04724*%
%ADD32R,0.04724X0.04724*%
%ADD33O,0.09843X0.06693*%
%ADD34C,0.05000*%
%ADD35R,0.02000X0.02000*%
%ADD36C,0.00984*%
%ADD37C,0.01575*%
%ADD38C,0.02362*%
%ADD39C,0.00800*%
%ADD40C,0.00787*%
%ADD41C,0.00591*%
%ADD42R,0.00730X0.02560*%
%ADD43R,0.06700X0.01800*%
%ADD44R,0.00650X0.02300*%
%ADD45R,0.02300X0.00650*%
%ADD46R,0.01800X0.06700*%
%ADD47R,0.02560X0.00730*%
%ADD48R,0.05906X0.78740*%
G36*
X343112Y299806D02*
X343252Y299790D01*
X343440Y299774D01*
X343627Y299759D01*
X343862Y299712D01*
X344111Y299665D01*
X344361Y299618D01*
X344642Y299540D01*
X344939Y299462D01*
X345252Y299368D01*
X345580Y299259D01*
X345908Y299134D01*
X346236Y298978D01*
X346251Y298962D01*
X346314Y298931D01*
X346408Y298884D01*
X346548Y298822D01*
X346704Y298728D01*
X346892Y298619D01*
X347095Y298494D01*
X347313Y298353D01*
X347548Y298181D01*
X347798Y298009D01*
X348048Y297822D01*
X348298Y297603D01*
X348797Y297150D01*
X349032Y296885D01*
X349266Y296619D01*
X349282Y296604D01*
X349328Y296541D01*
X349391Y296447D01*
X349469Y296338D01*
X349563Y296182D01*
X349672Y295994D01*
X349797Y295791D01*
X349906Y295557D01*
X350031Y295307D01*
X350156Y295026D01*
X350266Y294729D01*
X350359Y294432D01*
X350437Y294104D01*
X350500Y293776D01*
X350547Y293433D01*
X350563Y293074D01*
Y293058D01*
Y293011D01*
Y292949D01*
X350547Y292839D01*
Y292730D01*
X350531Y292574D01*
X350516Y292417D01*
X350500Y292230D01*
X350469D01*
X350406Y292246D01*
X350297Y292277D01*
X350141Y292308D01*
X349953Y292339D01*
X349735Y292386D01*
X349485Y292433D01*
X349203Y292480D01*
X348891Y292542D01*
X348548Y292620D01*
X348188Y292683D01*
X347813Y292761D01*
X347423Y292839D01*
X347001Y292917D01*
X346142Y293074D01*
X345252Y293245D01*
X344361Y293417D01*
X343471Y293573D01*
X342612Y293729D01*
X342206Y293808D01*
X341800Y293870D01*
X341425Y293933D01*
X341066Y293995D01*
X340722Y294057D01*
X340409Y294104D01*
X340113Y294151D01*
X339863Y294182D01*
Y294214D01*
X339847Y294292D01*
X339816Y294432D01*
X339785Y294589D01*
X339753Y294792D01*
X339707Y295010D01*
X339629Y295495D01*
Y295526D01*
X339613Y295604D01*
X339597Y295744D01*
X339566Y295916D01*
X339550Y296119D01*
X339535Y296369D01*
X339519Y296619D01*
Y296900D01*
Y296916D01*
Y296932D01*
Y297025D01*
X339535Y297166D01*
X339550Y297353D01*
X339582Y297556D01*
X339629Y297791D01*
X339691Y298009D01*
X339785Y298228D01*
X339800Y298259D01*
X339831Y298322D01*
X339894Y298431D01*
X339972Y298556D01*
X340066Y298712D01*
X340191Y298868D01*
X340331Y299009D01*
X340488Y299150D01*
X340503Y299165D01*
X340534Y299181D01*
X340581Y299212D01*
X340644Y299259D01*
X340738Y299306D01*
X340847Y299368D01*
X340972Y299431D01*
X341112Y299493D01*
X341269Y299556D01*
X341440Y299603D01*
X341644Y299665D01*
X341846Y299712D01*
X342315Y299790D01*
X342565Y299821D01*
X342987D01*
X343112Y299806D01*
D02*
G37*
G36*
X249699Y238517D02*
X249758Y238508D01*
X249836Y238498D01*
X250002Y238449D01*
X250187Y238371D01*
X250275Y238322D01*
X250373Y238264D01*
X250461Y238195D01*
X250549Y238107D01*
X250627Y238010D01*
X250695Y237903D01*
Y237893D01*
X250705Y237883D01*
X250724Y237854D01*
X250744Y237805D01*
X250763Y237756D01*
X250783Y237688D01*
X250812Y237610D01*
X250841Y237522D01*
X250861Y237415D01*
X250890Y237307D01*
X250910Y237180D01*
X250939Y237044D01*
X250949Y236897D01*
X250968Y236731D01*
X250978Y236556D01*
Y236370D01*
Y236361D01*
Y236341D01*
Y236312D01*
Y236273D01*
Y236224D01*
X250968Y236156D01*
X250958Y236009D01*
X250939Y235824D01*
X250910Y235609D01*
X250871Y235384D01*
X250812Y235131D01*
Y235121D01*
X250802Y235101D01*
X250793Y235062D01*
X250783Y235014D01*
X250763Y234955D01*
X250744Y234887D01*
X250705Y234721D01*
X250636Y234526D01*
X250568Y234321D01*
X250480Y234096D01*
X250383Y233881D01*
Y233872D01*
X250373Y233852D01*
X250353Y233823D01*
X250334Y233784D01*
X250275Y233677D01*
X250197Y233540D01*
X250109Y233384D01*
X250002Y233218D01*
X249875Y233042D01*
X249748Y232866D01*
X249729Y232847D01*
X249690Y232788D01*
X249611Y232710D01*
X249514Y232603D01*
X249407Y232486D01*
X249280Y232359D01*
X249133Y232232D01*
X248987Y232105D01*
X248977Y232095D01*
X248948Y232076D01*
X248909Y232047D01*
X248850Y232008D01*
X248772Y231959D01*
X248694Y231900D01*
X248597Y231851D01*
X248489Y231793D01*
X248245Y231676D01*
X247982Y231568D01*
X247845Y231529D01*
X247699Y231500D01*
X247562Y231481D01*
X247415Y231471D01*
X247357D01*
X247308Y231481D01*
X247201Y231490D01*
X247054Y231529D01*
X246898Y231578D01*
X246732Y231656D01*
X246566Y231773D01*
X246488Y231842D01*
X246420Y231920D01*
Y231929D01*
X246400Y231939D01*
X246381Y231968D01*
X246361Y232017D01*
X246332Y232066D01*
X246293Y232125D01*
X246254Y232203D01*
X246225Y232291D01*
X246186Y232388D01*
X246147Y232495D01*
X246117Y232613D01*
X246078Y232749D01*
X246059Y232886D01*
X246039Y233042D01*
X246020Y233208D01*
Y233384D01*
Y233393D01*
Y233433D01*
Y233491D01*
X246030Y233569D01*
X246039Y233667D01*
X246049Y233774D01*
X246059Y233911D01*
X246078Y234057D01*
X246108Y234223D01*
X246137Y234399D01*
X246176Y234584D01*
X246225Y234779D01*
X246274Y234984D01*
X246342Y235199D01*
X246410Y235423D01*
X246498Y235648D01*
X246508Y235658D01*
X246518Y235707D01*
X246547Y235765D01*
X246586Y235853D01*
X246635Y235951D01*
X246693Y236077D01*
X246762Y236204D01*
X246840Y236351D01*
X247025Y236673D01*
X247240Y237005D01*
X247494Y237346D01*
X247777Y237659D01*
X247786Y237668D01*
X247816Y237698D01*
X247865Y237737D01*
X247923Y237795D01*
X248001Y237863D01*
X248099Y237932D01*
X248206Y238010D01*
X248323Y238098D01*
X248450Y238176D01*
X248597Y238254D01*
X248743Y238322D01*
X248899Y238391D01*
X249055Y238449D01*
X249231Y238488D01*
X249397Y238517D01*
X249572Y238527D01*
X249651D01*
X249699Y238517D01*
D02*
G37*
G36*
X342253Y284342D02*
X342237D01*
X342206Y284326D01*
X342143Y284311D01*
X342081Y284295D01*
X341893Y284232D01*
X341690Y284139D01*
X341487Y284030D01*
X341300Y283873D01*
X341237Y283795D01*
X341175Y283701D01*
X341144Y283592D01*
X341128Y283483D01*
Y283467D01*
X341144Y283420D01*
X341159Y283342D01*
X341191Y283233D01*
X341269Y283108D01*
X341362Y282967D01*
X341487Y282811D01*
X341675Y282639D01*
X341706Y282624D01*
X341768Y282561D01*
X341893Y282483D01*
X342050Y282374D01*
X342237Y282249D01*
X342471Y282108D01*
X342753Y281952D01*
X343049Y281811D01*
X343065Y281796D01*
X343143Y281780D01*
X343237Y281733D01*
X343377Y281671D01*
X343565Y281593D01*
X343768Y281515D01*
X344002Y281437D01*
X344252Y281359D01*
X344533Y281265D01*
X344846Y281171D01*
X345158Y281093D01*
X345486Y281015D01*
X346173Y280906D01*
X346517Y280859D01*
X346876Y280843D01*
X347032D01*
X347189Y280859D01*
X347392Y280874D01*
X347610Y280906D01*
X347845Y280968D01*
X348048Y281030D01*
X348219Y281124D01*
X348235Y281140D01*
X348282Y281171D01*
X348344Y281234D01*
X348407Y281312D01*
X348485Y281405D01*
X348548Y281515D01*
X348594Y281640D01*
X348610Y281765D01*
Y281780D01*
Y281827D01*
X348594Y281905D01*
Y281999D01*
X348548Y282218D01*
X348454Y282468D01*
Y282483D01*
X348423Y282530D01*
X348391Y282592D01*
X348344Y282670D01*
X348204Y282858D01*
X348032Y283045D01*
X348001Y283077D01*
X347923Y283139D01*
X347798Y283233D01*
X347626Y283342D01*
X347407Y283452D01*
X347157Y283545D01*
X346876Y283623D01*
X346579Y283655D01*
X346814Y282061D01*
X345330Y282327D01*
Y282358D01*
X345314Y282421D01*
X345299Y282530D01*
X345283Y282670D01*
X345267Y282858D01*
X345236Y283077D01*
X345205Y283311D01*
X345174Y283576D01*
X345127Y283858D01*
X345080Y284154D01*
X344986Y284779D01*
X344892Y285420D01*
X344783Y286045D01*
X344846D01*
X344924Y286029D01*
X345033D01*
X345174Y286013D01*
X345330Y285982D01*
X345502Y285966D01*
X345689Y285935D01*
X346111Y285857D01*
X346548Y285748D01*
X347017Y285623D01*
X347454Y285451D01*
X347470D01*
X347501Y285435D01*
X347563Y285404D01*
X347641Y285357D01*
X347735Y285310D01*
X347845Y285263D01*
X348110Y285107D01*
X348407Y284935D01*
X348719Y284732D01*
X349047Y284498D01*
X349344Y284248D01*
X349360D01*
X349375Y284217D01*
X349469Y284123D01*
X349610Y283983D01*
X349766Y283795D01*
X349953Y283576D01*
X350141Y283311D01*
X350328Y283030D01*
X350484Y282733D01*
Y282717D01*
X350500Y282702D01*
X350516Y282655D01*
X350547Y282592D01*
X350609Y282452D01*
X350672Y282249D01*
X350734Y282030D01*
X350797Y281796D01*
X350844Y281546D01*
X350859Y281296D01*
Y281265D01*
Y281187D01*
X350844Y281062D01*
X350828Y280921D01*
X350797Y280734D01*
X350765Y280546D01*
X350703Y280343D01*
X350625Y280156D01*
X350609Y280140D01*
X350578Y280078D01*
X350531Y279984D01*
X350437Y279859D01*
X350344Y279734D01*
X350219Y279578D01*
X350063Y279437D01*
X349891Y279297D01*
X349875Y279281D01*
X349844Y279265D01*
X349781Y279219D01*
X349688Y279172D01*
X349578Y279109D01*
X349453Y279047D01*
X349297Y278969D01*
X349125Y278906D01*
X348922Y278828D01*
X348704Y278750D01*
X348454Y278687D01*
X348188Y278625D01*
X347907Y278578D01*
X347595Y278531D01*
X347267Y278516D01*
X346923Y278500D01*
X346736D01*
X346595Y278516D01*
X346439D01*
X346236Y278531D01*
X346017Y278547D01*
X345783Y278562D01*
X345533Y278594D01*
X345252Y278641D01*
X344689Y278734D01*
X344127Y278859D01*
X343565Y279047D01*
X343549D01*
X343502Y279078D01*
X343424Y279109D01*
X343330Y279156D01*
X343205Y279203D01*
X343065Y279265D01*
X342893Y279344D01*
X342721Y279437D01*
X342346Y279640D01*
X341940Y279875D01*
X341534Y280156D01*
X341159Y280452D01*
X341144Y280468D01*
X341112Y280499D01*
X341066Y280546D01*
X341003Y280609D01*
X340925Y280687D01*
X340831Y280781D01*
X340613Y280999D01*
X340378Y281280D01*
X340144Y281593D01*
X339925Y281921D01*
X339722Y282280D01*
Y282296D01*
X339707Y282327D01*
X339675Y282374D01*
X339644Y282452D01*
X339613Y282530D01*
X339566Y282624D01*
X339488Y282858D01*
X339394Y283123D01*
X339332Y283420D01*
X339269Y283701D01*
X339254Y283983D01*
Y283998D01*
Y284014D01*
Y284108D01*
X339269Y284232D01*
X339285Y284404D01*
X339300Y284576D01*
X339347Y284779D01*
X339394Y284967D01*
X339472Y285139D01*
X339488Y285154D01*
X339504Y285217D01*
X339550Y285295D01*
X339613Y285388D01*
X339691Y285513D01*
X339800Y285623D01*
X339910Y285748D01*
X340035Y285857D01*
X340066Y285888D01*
X340160Y285951D01*
X340300Y286029D01*
X340519Y286138D01*
X340769Y286247D01*
X341081Y286326D01*
X341456Y286388D01*
X341862Y286419D01*
X342253Y284342D01*
D02*
G37*
G36*
X339300Y293729D02*
X339410Y293698D01*
X339550Y293683D01*
X339722Y293636D01*
X339925Y293589D01*
X340160Y293542D01*
X340425Y293495D01*
X340706Y293433D01*
X341019Y293355D01*
X341362Y293292D01*
X341706Y293214D01*
X342081Y293136D01*
X342471Y293058D01*
X343284Y292902D01*
X344127Y292730D01*
X345002Y292558D01*
X345877Y292386D01*
X346736Y292230D01*
X347563Y292089D01*
X347954Y292011D01*
X348344Y291949D01*
X348704Y291902D01*
X349047Y291840D01*
X349375Y291808D01*
X349688Y291761D01*
Y291746D01*
Y291715D01*
X349703Y291652D01*
X349719Y291543D01*
X349750Y291387D01*
X349766Y291277D01*
X349797Y291168D01*
X349828Y291043D01*
X349860Y290887D01*
X349891Y290731D01*
X349938Y290543D01*
Y290527D01*
X349953Y290496D01*
Y290449D01*
X349985Y290387D01*
X350016Y290199D01*
X350078Y289996D01*
X350125Y289793D01*
X350188Y289590D01*
X350235Y289418D01*
X350250Y289356D01*
X350266Y289309D01*
X350172D01*
X350078Y289293D01*
X349938Y289278D01*
X349781Y289262D01*
X349594Y289247D01*
X349391Y289231D01*
X349157Y289215D01*
X348688Y289169D01*
X348219Y289122D01*
X347985Y289090D01*
X347766Y289075D01*
X347563Y289043D01*
X347392Y289028D01*
X347345D01*
X347298Y289012D01*
X347235D01*
X347079Y288997D01*
X346876Y288965D01*
X346657Y288934D01*
X346439Y288903D01*
X346220Y288887D01*
X346033Y288856D01*
X346001D01*
X345923Y288840D01*
X345783D01*
X345595Y288809D01*
X345377Y288794D01*
X345111Y288747D01*
X344830Y288700D01*
X344502Y288653D01*
X344517D01*
X344549Y288637D01*
X344611D01*
X344689Y288622D01*
X344783Y288606D01*
X344908Y288575D01*
X345174Y288528D01*
X345189D01*
X345236Y288512D01*
X345314D01*
X345424Y288481D01*
X345549Y288466D01*
X345689Y288450D01*
X346017Y288387D01*
X346033D01*
X346079Y288372D01*
X346158Y288356D01*
X346283Y288341D01*
X346423Y288325D01*
X346595Y288294D01*
X346814Y288247D01*
X347048Y288216D01*
X347313Y288153D01*
X347626Y288106D01*
X347954Y288044D01*
X348313Y287981D01*
X348704Y287903D01*
X349125Y287825D01*
X349578Y287747D01*
X350063Y287653D01*
X350563Y285451D01*
X350531D01*
X350469Y285467D01*
X350359Y285498D01*
X350203Y285529D01*
X350016Y285560D01*
X349797Y285607D01*
X349532Y285654D01*
X349250Y285716D01*
X348938Y285779D01*
X348594Y285841D01*
X348235Y285904D01*
X347845Y285982D01*
X347439Y286060D01*
X347032Y286138D01*
X346158Y286310D01*
X345252Y286482D01*
X344330Y286638D01*
X343408Y286810D01*
X342518Y286966D01*
X342096Y287029D01*
X341675Y287107D01*
X341284Y287169D01*
X340894Y287216D01*
X340534Y287278D01*
X340206Y287325D01*
X339894Y287356D01*
X339613Y287388D01*
Y287403D01*
Y287466D01*
X339597Y287560D01*
Y287669D01*
X339582Y287809D01*
X339566Y287950D01*
X339550Y288263D01*
Y288278D01*
X339535Y288341D01*
Y288419D01*
X339519Y288528D01*
Y288653D01*
X339504Y288794D01*
X339488Y289090D01*
Y289106D01*
Y289169D01*
X339472Y289247D01*
Y289340D01*
X339441Y289575D01*
X339425Y289809D01*
X339441D01*
X339472Y289825D01*
X339535D01*
X339613Y289840D01*
X339722Y289856D01*
X339831Y289887D01*
X340113Y289918D01*
X340409Y289981D01*
X340738Y290028D01*
X341066Y290074D01*
X341362Y290121D01*
X341393D01*
X341487Y290137D01*
X341628Y290168D01*
X341800Y290199D01*
X341987Y290231D01*
X342206Y290262D01*
X342409Y290293D01*
X342596Y290324D01*
X342612D01*
X342674Y290340D01*
X342768Y290356D01*
X342893Y290371D01*
X343034Y290402D01*
X343190Y290418D01*
X343533Y290480D01*
X343580D01*
X343627Y290496D01*
X343690Y290512D01*
X343846Y290527D01*
X344065Y290574D01*
X344315Y290621D01*
X344580Y290668D01*
X344846Y290731D01*
X345111Y290793D01*
X345095D01*
X345064Y290809D01*
X345002D01*
X344908Y290824D01*
X344814Y290840D01*
X344689Y290871D01*
X344408Y290918D01*
X344393D01*
X344330Y290933D01*
X344252Y290949D01*
X344143Y290965D01*
X344002Y290996D01*
X343862Y291012D01*
X343533Y291074D01*
X343518D01*
X343455Y291090D01*
X343362Y291105D01*
X343237Y291137D01*
X343096Y291168D01*
X342940Y291199D01*
X342596Y291262D01*
X342581D01*
X342503Y291277D01*
X342409Y291308D01*
X342253Y291340D01*
X342081Y291371D01*
X341878Y291418D01*
X341628Y291465D01*
X341362Y291527D01*
X341331D01*
X341284Y291543D01*
X341222Y291558D01*
X341144Y291574D01*
X341066Y291590D01*
X340831Y291636D01*
X340550Y291699D01*
X340222Y291761D01*
X339847Y291840D01*
X339441Y291918D01*
X339222Y293745D01*
X339238D01*
X339300Y293729D01*
D02*
G37*
G36*
X242750Y238420D02*
X242741Y238391D01*
X242731Y238351D01*
X242711Y238293D01*
X242672Y238166D01*
X242633Y238010D01*
Y238000D01*
X242623Y237981D01*
Y237942D01*
X242604Y237893D01*
X242584Y237766D01*
X242545Y237619D01*
Y237610D01*
X242535Y237590D01*
X242526Y237551D01*
X242516Y237512D01*
X242496Y237405D01*
X242477Y237288D01*
X242428D01*
X242360Y237278D01*
X242272D01*
X242165Y237268D01*
X242038D01*
X241882Y237258D01*
X241091D01*
X240759Y235570D01*
X240779D01*
X240847Y235580D01*
X240935D01*
X241052Y235589D01*
X241179D01*
X241325Y235599D01*
X241462Y235609D01*
X241716D01*
X241784Y235619D01*
X241930D01*
X241989Y235629D01*
X242038D01*
Y235619D01*
Y235580D01*
X242028Y235531D01*
X242018Y235463D01*
X242008Y235384D01*
X241999Y235287D01*
X241969Y235101D01*
Y235092D01*
X241960Y235062D01*
Y235014D01*
X241950Y234945D01*
X241940Y234867D01*
X241921Y234779D01*
X241891Y234584D01*
X241813D01*
X241774Y234574D01*
X241306D01*
X241140Y234565D01*
X241052D01*
X240993Y234555D01*
X240827D01*
X240632Y234545D01*
X240310Y232808D01*
X241677Y233032D01*
X241579Y231959D01*
X238544Y231500D01*
X239773Y238166D01*
X242750Y238430D01*
Y238420D01*
D02*
G37*
G36*
X246430Y236848D02*
X243863Y233189D01*
X243980D01*
X244039Y233198D01*
X244117D01*
X244214Y233208D01*
X244322D01*
X244458Y233218D01*
X244605Y233227D01*
X244790Y233237D01*
X244985Y233247D01*
X245210Y233267D01*
X245463Y233286D01*
X245747Y233306D01*
X245717Y231871D01*
X245405D01*
X245298Y231861D01*
X245034D01*
X244888Y231851D01*
X244731Y231842D01*
X244556D01*
X244380Y231832D01*
X244195Y231822D01*
X243785Y231793D01*
X243765D01*
X243717Y231783D01*
X243638D01*
X243541Y231773D01*
X243414Y231764D01*
X243267Y231744D01*
X243111Y231734D01*
X242955Y231715D01*
X242614Y231685D01*
X242272Y231646D01*
X242116Y231627D01*
X241979Y231607D01*
X241852Y231598D01*
X241745Y231578D01*
X241755Y232954D01*
X244429Y236585D01*
X244283D01*
X244214Y236575D01*
X244136D01*
X244048Y236565D01*
X243941Y236556D01*
X243824Y236546D01*
X243697Y236536D01*
X243560Y236517D01*
X243404Y236497D01*
X243248Y236478D01*
X243063Y236448D01*
X242877Y236419D01*
X242653Y236390D01*
X242828Y237863D01*
X246674Y238137D01*
X246430Y236848D01*
D02*
G37*
G36*
X236006Y238420D02*
X236123Y238410D01*
X236250Y238391D01*
X236377Y238371D01*
X236504Y238332D01*
X236621Y238283D01*
X236631Y238273D01*
X236670Y238254D01*
X236728Y238225D01*
X236787Y238186D01*
X236865Y238137D01*
X236943Y238069D01*
X237021Y238000D01*
X237099Y237912D01*
X237109Y237893D01*
X237128Y237863D01*
X237148Y237834D01*
X237177Y237785D01*
X237197Y237737D01*
X237265Y237600D01*
X237324Y237415D01*
X237372Y237200D01*
X237411Y236956D01*
X237421Y236663D01*
Y236653D01*
Y236644D01*
Y236614D01*
Y236575D01*
X237411Y236468D01*
X237402Y236341D01*
X237372Y236185D01*
X237343Y236009D01*
X237294Y235833D01*
X237226Y235648D01*
Y235638D01*
X237216Y235629D01*
X237187Y235570D01*
X237148Y235472D01*
X237089Y235355D01*
X237011Y235219D01*
X236924Y235072D01*
X236826Y234926D01*
X236709Y234779D01*
X236699Y234760D01*
X236650Y234721D01*
X236592Y234643D01*
X236504Y234565D01*
X236387Y234467D01*
X236260Y234360D01*
X236123Y234262D01*
X235967Y234174D01*
X235947Y234165D01*
X235899Y234135D01*
X235811Y234106D01*
X235703Y234067D01*
X235567Y234018D01*
X235420Y233989D01*
X235264Y233960D01*
X235098Y233950D01*
X235001D01*
Y233940D01*
X234991Y233911D01*
X234981Y233872D01*
X234971Y233803D01*
X234952Y233725D01*
X234932Y233637D01*
X234913Y233520D01*
X234884Y233393D01*
X234864Y233247D01*
X234835Y233091D01*
X234796Y232915D01*
X234767Y232720D01*
X234728Y232515D01*
X234698Y232291D01*
X234659Y232056D01*
X234620Y231803D01*
X233010Y231500D01*
Y231510D01*
X233019Y231549D01*
X233029Y231607D01*
X233049Y231685D01*
X233078Y231793D01*
X233098Y231910D01*
X233127Y232047D01*
X233166Y232203D01*
X233205Y232378D01*
X233244Y232564D01*
X233283Y232769D01*
X233332Y232974D01*
X233381Y233198D01*
X233429Y233433D01*
X233527Y233930D01*
X233634Y234457D01*
X233742Y234994D01*
X233957Y236097D01*
X234064Y236644D01*
X234161Y237171D01*
X234240Y237668D01*
X234279Y237903D01*
X234318Y238127D01*
X234327D01*
X234366Y238137D01*
X234415Y238156D01*
X234484Y238176D01*
X234571Y238195D01*
X234669Y238225D01*
X234776Y238254D01*
X234884Y238283D01*
X235137Y238332D01*
X235381Y238381D01*
X235625Y238420D01*
X235733Y238430D01*
X235918D01*
X236006Y238420D01*
D02*
G37*
G36*
X239354Y238283D02*
X239344Y238244D01*
X239324Y238166D01*
X239305Y238069D01*
X239285Y237951D01*
X239256Y237805D01*
X239227Y237639D01*
X239188Y237454D01*
X239149Y237249D01*
X239100Y237034D01*
X239061Y236800D01*
X239012Y236556D01*
X238954Y236292D01*
X238905Y236029D01*
X238797Y235482D01*
X238690Y234916D01*
X238583Y234350D01*
X238475Y233794D01*
X238417Y233520D01*
X238368Y233267D01*
X238319Y233013D01*
X238280Y232769D01*
X238231Y232544D01*
X238192Y232339D01*
X238163Y232144D01*
X238124Y231968D01*
X238095Y231812D01*
X238075Y231676D01*
X237958D01*
X237870Y231666D01*
X237743Y231656D01*
X237597Y231637D01*
X237411Y231617D01*
X237187Y231588D01*
X237158D01*
X237128Y231578D01*
X237089D01*
X236992Y231559D01*
X236875Y231549D01*
X236758Y231529D01*
X236650Y231520D01*
X236611Y231510D01*
X236572D01*
X236553Y231500D01*
X236543D01*
Y231510D01*
X236553Y231549D01*
X236572Y231607D01*
X236592Y231685D01*
X236621Y231783D01*
X236650Y231910D01*
X236680Y232037D01*
X236719Y232193D01*
X236758Y232359D01*
X236797Y232535D01*
X236836Y232730D01*
X236884Y232935D01*
X236982Y233364D01*
X237070Y233823D01*
Y233833D01*
X237080Y233852D01*
X237089Y233891D01*
X237099Y233950D01*
X237109Y234018D01*
X237128Y234096D01*
X237148Y234194D01*
X237168Y234291D01*
X237187Y234408D01*
X237207Y234535D01*
X237265Y234809D01*
X237324Y235111D01*
X237392Y235433D01*
X237451Y235775D01*
X237519Y236126D01*
X237655Y236829D01*
X237714Y237171D01*
X237782Y237502D01*
X237831Y237805D01*
X237880Y238078D01*
X239354Y238303D01*
Y238283D01*
D02*
G37*
G36*
X366618Y327105D02*
X366696Y327086D01*
X366813Y327066D01*
X366950Y327027D01*
X367125Y327008D01*
X367321Y326968D01*
X367516Y326910D01*
X368004Y326832D01*
X368512Y326714D01*
X369059Y326617D01*
X369625Y326519D01*
X369606Y325582D01*
Y325562D01*
Y325543D01*
Y325406D01*
Y325230D01*
X369586Y325035D01*
X369684D01*
X369762Y325015D01*
X369977Y324996D01*
X370250Y324976D01*
X370582Y324937D01*
X370953Y324879D01*
X371344Y324820D01*
X371774Y324742D01*
X371891Y322496D01*
X371852Y322516D01*
X371734Y322535D01*
X371559Y322574D01*
X371305Y322633D01*
X370973Y322711D01*
X370582Y322809D01*
X370133Y322906D01*
X369606Y323004D01*
Y321480D01*
X369528D01*
X369430Y321500D01*
X369313D01*
X369176Y321519D01*
X369000Y321539D01*
X368610Y321578D01*
X368161Y321617D01*
X367692Y321676D01*
X367243Y321734D01*
X366813Y321793D01*
Y322008D01*
Y322027D01*
Y322047D01*
Y322145D01*
Y322301D01*
X366793Y322516D01*
Y322750D01*
X366774Y323004D01*
X366715Y323531D01*
X366696D01*
X366657Y323551D01*
X366579D01*
X366481Y323570D01*
X366247Y323609D01*
X365993Y323648D01*
X365973D01*
X365934Y323668D01*
X365876D01*
X365778Y323687D01*
X365563Y323726D01*
X365290Y323765D01*
X365270D01*
X365231Y323785D01*
X365153Y323804D01*
X365055Y323824D01*
X364801Y323863D01*
X364547Y323922D01*
Y323941D01*
Y324000D01*
X364528Y324078D01*
Y324195D01*
Y324332D01*
X364508Y324488D01*
X364489Y324820D01*
X364450Y325211D01*
X364430Y325582D01*
X364391Y325914D01*
X364372Y326070D01*
X364352Y326187D01*
X364372D01*
X364411Y326168D01*
X364489D01*
X364586Y326129D01*
X364840Y326090D01*
X365133Y326011D01*
X365153D01*
X365212Y325992D01*
X365290Y325972D01*
X365387Y325953D01*
X365641Y325894D01*
X365934Y325816D01*
X365954D01*
X365993Y325797D01*
X366071D01*
X366168Y325758D01*
X366403Y325718D01*
X366696Y325640D01*
Y325660D01*
Y325679D01*
X366676Y325816D01*
X366657Y325972D01*
X366637Y326168D01*
Y326187D01*
Y326207D01*
X366618Y326324D01*
X366598Y326480D01*
Y326676D01*
Y326695D01*
Y326714D01*
X366579Y326832D01*
X366559Y326968D01*
X366540Y327125D01*
X366559D01*
X366618Y327105D01*
D02*
G37*
G36*
X249362Y372844D02*
X249503Y372828D01*
X249691Y372797D01*
X249878Y372765D01*
X250081Y372703D01*
X250268Y372625D01*
X250284Y372609D01*
X250346Y372578D01*
X250440Y372531D01*
X250565Y372438D01*
X250690Y372344D01*
X250846Y372219D01*
X250987Y372063D01*
X251128Y371891D01*
X251143Y371875D01*
X251159Y371844D01*
X251206Y371781D01*
X251253Y371688D01*
X251315Y371578D01*
X251377Y371453D01*
X251455Y371297D01*
X251518Y371125D01*
X251596Y370922D01*
X251674Y370704D01*
X251737Y370454D01*
X251799Y370188D01*
X251846Y369907D01*
X251893Y369595D01*
X251908Y369267D01*
X251924Y368923D01*
Y368907D01*
Y368845D01*
Y368736D01*
X251908Y368595D01*
Y368439D01*
X251893Y368236D01*
X251877Y368017D01*
X251862Y367783D01*
X251830Y367533D01*
X251784Y367252D01*
X251690Y366689D01*
X251565Y366127D01*
X251377Y365565D01*
Y365549D01*
X251346Y365502D01*
X251315Y365424D01*
X251268Y365330D01*
X251221Y365206D01*
X251159Y365065D01*
X251081Y364893D01*
X250987Y364721D01*
X250784Y364346D01*
X250550Y363940D01*
X250268Y363534D01*
X249972Y363159D01*
X249956Y363144D01*
X249925Y363112D01*
X249878Y363066D01*
X249815Y363003D01*
X249737Y362925D01*
X249644Y362831D01*
X249425Y362613D01*
X249144Y362378D01*
X248831Y362144D01*
X248503Y361925D01*
X248144Y361722D01*
X248129D01*
X248097Y361707D01*
X248050Y361675D01*
X247972Y361644D01*
X247894Y361613D01*
X247800Y361566D01*
X247566Y361488D01*
X247301Y361394D01*
X247004Y361332D01*
X246723Y361269D01*
X246442Y361254D01*
X246317D01*
X246192Y361269D01*
X246020Y361285D01*
X245848Y361300D01*
X245645Y361347D01*
X245458Y361394D01*
X245286Y361472D01*
X245270Y361488D01*
X245208Y361504D01*
X245129Y361550D01*
X245036Y361613D01*
X244911Y361691D01*
X244801Y361800D01*
X244676Y361910D01*
X244567Y362035D01*
X244536Y362066D01*
X244473Y362160D01*
X244395Y362300D01*
X244286Y362519D01*
X244177Y362769D01*
X244098Y363081D01*
X244036Y363456D01*
X244005Y363862D01*
X246082Y364253D01*
Y364237D01*
X246098Y364206D01*
X246113Y364143D01*
X246129Y364081D01*
X246192Y363893D01*
X246285Y363690D01*
X246395Y363487D01*
X246551Y363300D01*
X246629Y363237D01*
X246723Y363175D01*
X246832Y363144D01*
X246941Y363128D01*
X246957D01*
X247004Y363144D01*
X247082Y363159D01*
X247191Y363191D01*
X247316Y363269D01*
X247457Y363362D01*
X247613Y363487D01*
X247785Y363675D01*
X247800Y363706D01*
X247863Y363768D01*
X247941Y363893D01*
X248050Y364050D01*
X248175Y364237D01*
X248316Y364471D01*
X248472Y364753D01*
X248613Y365049D01*
X248628Y365065D01*
X248644Y365143D01*
X248691Y365237D01*
X248753Y365377D01*
X248831Y365565D01*
X248909Y365768D01*
X248988Y366002D01*
X249066Y366252D01*
X249159Y366533D01*
X249253Y366846D01*
X249331Y367158D01*
X249409Y367486D01*
X249519Y368173D01*
X249566Y368517D01*
X249581Y368876D01*
Y368892D01*
Y368923D01*
Y368970D01*
Y369032D01*
X249566Y369189D01*
X249550Y369392D01*
X249519Y369610D01*
X249456Y369845D01*
X249394Y370048D01*
X249300Y370219D01*
X249284Y370235D01*
X249253Y370282D01*
X249191Y370344D01*
X249113Y370407D01*
X249019Y370485D01*
X248909Y370548D01*
X248784Y370594D01*
X248660Y370610D01*
X248597D01*
X248519Y370594D01*
X248425D01*
X248207Y370548D01*
X247957Y370454D01*
X247941D01*
X247894Y370423D01*
X247832Y370391D01*
X247754Y370344D01*
X247566Y370204D01*
X247379Y370032D01*
X247347Y370001D01*
X247285Y369923D01*
X247191Y369798D01*
X247082Y369626D01*
X246973Y369407D01*
X246879Y369157D01*
X246801Y368876D01*
X246769Y368579D01*
X248363Y368814D01*
X248097Y367330D01*
X248066D01*
X248004Y367314D01*
X247894Y367299D01*
X247754Y367283D01*
X247566Y367267D01*
X247347Y367236D01*
X247113Y367205D01*
X246848Y367174D01*
X246567Y367127D01*
X246270Y367080D01*
X245645Y366986D01*
X245005Y366892D01*
X244380Y366783D01*
Y366799D01*
Y366846D01*
X244395Y366924D01*
Y367033D01*
X244411Y367174D01*
X244442Y367330D01*
X244458Y367502D01*
X244489Y367689D01*
X244567Y368111D01*
X244676Y368548D01*
X244801Y369017D01*
X244973Y369454D01*
Y369470D01*
X244989Y369501D01*
X245020Y369563D01*
X245067Y369641D01*
X245114Y369735D01*
X245161Y369845D01*
X245317Y370110D01*
X245489Y370407D01*
X245692Y370719D01*
X245926Y371047D01*
X246176Y371344D01*
Y371360D01*
X246207Y371375D01*
X246301Y371469D01*
X246442Y371610D01*
X246629Y371766D01*
X246848Y371953D01*
X247113Y372141D01*
X247394Y372328D01*
X247691Y372484D01*
X247707D01*
X247722Y372500D01*
X247769Y372516D01*
X247832Y372547D01*
X247972Y372609D01*
X248175Y372672D01*
X248394Y372734D01*
X248628Y372797D01*
X248878Y372844D01*
X249128Y372859D01*
X249237D01*
X249362Y372844D01*
D02*
G37*
G36*
X245005Y372484D02*
X244989Y372422D01*
X244973Y372313D01*
X244942Y372172D01*
X244895Y372000D01*
X244864Y371797D01*
X244817Y371563D01*
X244755Y371297D01*
X244708Y371016D01*
X244645Y370688D01*
X244567Y370360D01*
X244505Y370001D01*
X244426Y369626D01*
X244348Y369235D01*
X244192Y368423D01*
X244036Y367580D01*
X243880Y366705D01*
X243724Y365830D01*
X243567Y364971D01*
X243427Y364143D01*
X243364Y363753D01*
X243302Y363378D01*
X243255Y363003D01*
X243208Y362659D01*
X243161Y362331D01*
X243130Y362035D01*
X243114D01*
X243052Y362019D01*
X242958Y361988D01*
X242833Y361957D01*
X242677Y361910D01*
X242474Y361863D01*
X242255Y361816D01*
X242021Y361769D01*
X241740Y361722D01*
X241443Y361675D01*
X241131Y361629D01*
X240803Y361582D01*
X240459Y361550D01*
X240084Y361519D01*
X239319Y361504D01*
X239163D01*
X239069Y361519D01*
X238944Y361535D01*
X238803Y361566D01*
X238491Y361644D01*
X238319Y361707D01*
X238163Y361769D01*
X237991Y361863D01*
X237850Y361972D01*
X237710Y362097D01*
X237601Y362253D01*
X237491Y362409D01*
X237429Y362613D01*
Y362628D01*
X237413Y362675D01*
X237398Y362737D01*
X237382Y362831D01*
Y362956D01*
X237366Y363097D01*
X237351Y363269D01*
Y363440D01*
Y363456D01*
Y363534D01*
X237366Y363628D01*
X237382Y363768D01*
X237398Y363925D01*
X237429Y364112D01*
X237491Y364315D01*
X237554Y364534D01*
X237569Y364565D01*
X237585Y364628D01*
X237632Y364737D01*
X237694Y364893D01*
X237772Y365049D01*
X237882Y365237D01*
X237991Y365424D01*
X238116Y365627D01*
X238132Y365643D01*
X238147Y365674D01*
X238194Y365737D01*
X238241Y365799D01*
X238319Y365893D01*
X238397Y366002D01*
X238616Y366236D01*
X238881Y366502D01*
X239178Y366783D01*
X239538Y367049D01*
X239912Y367283D01*
Y367299D01*
X239881Y367330D01*
X239850Y367408D01*
X239819Y367486D01*
X239772Y367595D01*
X239709Y367736D01*
X239647Y367877D01*
X239569Y368033D01*
X239412Y368392D01*
X239241Y368782D01*
X239069Y369189D01*
X238897Y369610D01*
Y369626D01*
X238881Y369657D01*
X238850Y369720D01*
X238819Y369798D01*
X238788Y369892D01*
X238741Y370001D01*
X238632Y370251D01*
X238522Y370548D01*
X238382Y370844D01*
X238257Y371157D01*
X238147Y371453D01*
X240475Y372266D01*
Y372250D01*
X240490Y372219D01*
X240506Y372172D01*
X240522Y372094D01*
X240553Y372000D01*
X240584Y371891D01*
X240647Y371641D01*
X240740Y371328D01*
X240834Y370969D01*
X240943Y370594D01*
X241037Y370204D01*
X241256Y369407D01*
X241349Y369032D01*
X241443Y368673D01*
X241521Y368361D01*
X241584Y368079D01*
X241599Y367970D01*
X241631Y367877D01*
Y367798D01*
X241646Y367736D01*
X241849Y367798D01*
Y367830D01*
X241865Y367923D01*
X241896Y368064D01*
X241927Y368236D01*
X241974Y368470D01*
X242021Y368720D01*
X242068Y369017D01*
X242115Y369329D01*
X242177Y369641D01*
X242240Y369985D01*
X242349Y370657D01*
X242412Y371001D01*
X242474Y371313D01*
X242521Y371610D01*
X242568Y371891D01*
X245005Y372500D01*
Y372484D01*
D02*
G37*
G36*
X309688Y370282D02*
X309672Y370188D01*
X309641Y370047D01*
X309594Y369844D01*
X309532Y369579D01*
X309454Y369267D01*
X309375Y368907D01*
X309297Y368485D01*
X310516D01*
Y368470D01*
Y368423D01*
X310500Y368345D01*
Y368251D01*
X310484Y368142D01*
X310469Y368001D01*
X310437Y367689D01*
X310406Y367330D01*
X310359Y366955D01*
X310313Y366596D01*
X310266Y366252D01*
X309860D01*
X309688Y366236D01*
X309500D01*
X309297Y366221D01*
X308875Y366174D01*
Y366158D01*
X308860Y366127D01*
Y366064D01*
X308844Y365986D01*
X308813Y365799D01*
X308782Y365596D01*
Y365580D01*
X308766Y365549D01*
Y365502D01*
X308751Y365424D01*
X308719Y365252D01*
X308688Y365034D01*
Y365018D01*
X308672Y364987D01*
X308657Y364924D01*
X308641Y364846D01*
X308610Y364643D01*
X308563Y364440D01*
X308501D01*
X308438Y364424D01*
X308235D01*
X308110Y364409D01*
X307845Y364393D01*
X307532Y364362D01*
X307235Y364346D01*
X306970Y364315D01*
X306845Y364299D01*
X306751Y364284D01*
Y364299D01*
X306767Y364331D01*
Y364393D01*
X306798Y364471D01*
X306829Y364674D01*
X306892Y364909D01*
Y364924D01*
X306907Y364971D01*
X306923Y365034D01*
X306939Y365112D01*
X306985Y365315D01*
X307048Y365549D01*
Y365565D01*
X307064Y365596D01*
Y365658D01*
X307095Y365736D01*
X307126Y365924D01*
X307189Y366158D01*
X307157D01*
X307048Y366143D01*
X306923Y366127D01*
X306767Y366111D01*
X306736D01*
X306642Y366096D01*
X306517Y366080D01*
X306329D01*
X306236Y366064D01*
X306126Y366049D01*
X306001Y366033D01*
Y366049D01*
X306017Y366096D01*
X306033Y366158D01*
X306048Y366252D01*
X306080Y366361D01*
X306095Y366502D01*
X306126Y366658D01*
X306173Y366814D01*
X306236Y367205D01*
X306329Y367611D01*
X306408Y368048D01*
X306486Y368501D01*
X307235Y368485D01*
X307517D01*
X307673Y368470D01*
Y368485D01*
Y368501D01*
Y368548D01*
X307688Y368611D01*
X307704Y368782D01*
X307720Y369001D01*
X307751Y369267D01*
X307798Y369563D01*
X307845Y369876D01*
X307907Y370219D01*
X309703Y370313D01*
X309688Y370282D01*
D02*
G37*
G36*
X258297Y372531D02*
X258453D01*
X258625Y372516D01*
X258984Y372484D01*
X258969Y372453D01*
X258953Y372359D01*
X258922Y372219D01*
X258875Y372031D01*
X258813Y371797D01*
X258734Y371500D01*
X258656Y371188D01*
X258578Y370829D01*
X258485Y370438D01*
X258406Y370032D01*
X258313Y369595D01*
X258219Y369126D01*
X258125Y368657D01*
X258032Y368173D01*
X257860Y367174D01*
Y367158D01*
Y367142D01*
X257844Y367049D01*
X257813Y366908D01*
X257782Y366721D01*
X257750Y366471D01*
X257703Y366190D01*
X257657Y365862D01*
X257594Y365502D01*
X257532Y365112D01*
X257469Y364690D01*
X257407Y364237D01*
X257329Y363784D01*
X257266Y363300D01*
X257188Y362800D01*
X257032Y361800D01*
X257001D01*
X256938Y361785D01*
X256829Y361753D01*
X256688Y361738D01*
X256516Y361707D01*
X256313Y361660D01*
X256095Y361629D01*
X255845Y361582D01*
X255314Y361519D01*
X254751Y361441D01*
X254189Y361394D01*
X253924Y361379D01*
X253533D01*
X253424Y361394D01*
X253299Y361410D01*
X253158Y361441D01*
X252830Y361504D01*
X252471Y361629D01*
X252299Y361722D01*
X252112Y361816D01*
X251955Y361941D01*
X251799Y362082D01*
X251659Y362238D01*
X251534Y362425D01*
X251518Y362441D01*
X251502Y362503D01*
X251455Y362581D01*
X251409Y362706D01*
X251377Y362847D01*
X251331Y363019D01*
X251315Y363206D01*
X251299Y363409D01*
Y363440D01*
Y363503D01*
X251315Y363612D01*
Y363753D01*
X251346Y363925D01*
X251377Y364112D01*
X251424Y364300D01*
X251487Y364487D01*
Y364503D01*
X251518Y364565D01*
X251549Y364659D01*
X251612Y364784D01*
X251674Y364924D01*
X251752Y365080D01*
X251955Y365393D01*
Y365408D01*
X251987Y365424D01*
X252065Y365533D01*
X252190Y365674D01*
X252361Y365846D01*
X252580Y366033D01*
X252815Y366221D01*
X253096Y366393D01*
X253392Y366533D01*
X253377Y366549D01*
X253346Y366564D01*
X253283Y366611D01*
X253205Y366674D01*
X253111Y366752D01*
X253017Y366846D01*
X252908Y366955D01*
X252783Y367095D01*
X252674Y367236D01*
X252565Y367408D01*
X252471Y367595D01*
X252377Y367798D01*
X252299Y368033D01*
X252237Y368267D01*
X252205Y368532D01*
X252190Y368814D01*
Y368829D01*
Y368907D01*
X252205Y369017D01*
X252221Y369142D01*
X252252Y369314D01*
X252299Y369485D01*
X252361Y369673D01*
X252455Y369876D01*
X252471Y369892D01*
X252502Y369970D01*
X252565Y370063D01*
X252627Y370188D01*
X252736Y370344D01*
X252846Y370501D01*
X252986Y370672D01*
X253142Y370844D01*
X253158Y370860D01*
X253221Y370922D01*
X253314Y371001D01*
X253424Y371094D01*
X253580Y371219D01*
X253752Y371344D01*
X253939Y371469D01*
X254158Y371594D01*
X254189Y371610D01*
X254252Y371641D01*
X254377Y371703D01*
X254533Y371781D01*
X254704Y371860D01*
X254908Y371953D01*
X255142Y372031D01*
X255376Y372125D01*
X255392D01*
X255439Y372141D01*
X255501Y372156D01*
X255595Y372188D01*
X255704Y372219D01*
X255845Y372266D01*
X256001Y372297D01*
X256173Y372328D01*
X256563Y372406D01*
X257001Y372484D01*
X257469Y372531D01*
X257969Y372547D01*
X258172D01*
X258297Y372531D01*
D02*
G37*
G36*
X343112Y271560D02*
X343252Y271545D01*
X343440Y271529D01*
X343627Y271513D01*
X343862Y271466D01*
X344111Y271420D01*
X344361Y271373D01*
X344642Y271294D01*
X344939Y271216D01*
X345252Y271123D01*
X345580Y271013D01*
X345908Y270888D01*
X346236Y270732D01*
X346251Y270717D01*
X346314Y270685D01*
X346408Y270638D01*
X346548Y270576D01*
X346704Y270482D01*
X346892Y270373D01*
X347095Y270248D01*
X347313Y270107D01*
X347548Y269936D01*
X347798Y269764D01*
X348048Y269576D01*
X348298Y269358D01*
X348797Y268905D01*
X349032Y268639D01*
X349266Y268374D01*
X349282Y268358D01*
X349328Y268296D01*
X349391Y268202D01*
X349469Y268092D01*
X349563Y267936D01*
X349672Y267749D01*
X349797Y267546D01*
X349906Y267311D01*
X350031Y267061D01*
X350156Y266780D01*
X350266Y266484D01*
X350359Y266187D01*
X350437Y265859D01*
X350500Y265531D01*
X350547Y265187D01*
X350563Y264828D01*
Y264812D01*
Y264765D01*
Y264703D01*
X350547Y264594D01*
Y264484D01*
X350531Y264328D01*
X350516Y264172D01*
X350500Y263984D01*
X350469D01*
X350406Y264000D01*
X350297Y264031D01*
X350141Y264062D01*
X349953Y264094D01*
X349735Y264141D01*
X349485Y264187D01*
X349203Y264234D01*
X348891Y264297D01*
X348548Y264375D01*
X348188Y264437D01*
X347813Y264515D01*
X347423Y264594D01*
X347001Y264672D01*
X346142Y264828D01*
X345252Y265000D01*
X344361Y265172D01*
X343471Y265328D01*
X342612Y265484D01*
X342206Y265562D01*
X341800Y265624D01*
X341425Y265687D01*
X341066Y265749D01*
X340722Y265812D01*
X340409Y265859D01*
X340113Y265906D01*
X339863Y265937D01*
Y265968D01*
X339847Y266046D01*
X339816Y266187D01*
X339785Y266343D01*
X339753Y266546D01*
X339707Y266765D01*
X339629Y267249D01*
Y267280D01*
X339613Y267358D01*
X339597Y267499D01*
X339566Y267671D01*
X339550Y267874D01*
X339535Y268124D01*
X339519Y268374D01*
Y268655D01*
Y268670D01*
Y268686D01*
Y268780D01*
X339535Y268920D01*
X339550Y269108D01*
X339582Y269311D01*
X339629Y269545D01*
X339691Y269764D01*
X339785Y269983D01*
X339800Y270014D01*
X339831Y270076D01*
X339894Y270185D01*
X339972Y270310D01*
X340066Y270467D01*
X340191Y270623D01*
X340331Y270763D01*
X340488Y270904D01*
X340503Y270920D01*
X340534Y270935D01*
X340581Y270967D01*
X340644Y271013D01*
X340738Y271060D01*
X340847Y271123D01*
X340972Y271185D01*
X341112Y271248D01*
X341269Y271310D01*
X341440Y271357D01*
X341644Y271420D01*
X341846Y271466D01*
X342315Y271545D01*
X342565Y271576D01*
X342987D01*
X343112Y271560D01*
D02*
G37*
G36*
X346923Y276059D02*
Y276043D01*
Y275965D01*
Y275856D01*
X346907Y275715D01*
Y275559D01*
Y275371D01*
X346892Y275168D01*
Y274950D01*
X346876Y274497D01*
Y274294D01*
Y274075D01*
X346861Y273887D01*
Y273731D01*
Y273591D01*
Y273481D01*
Y273466D01*
Y273450D01*
Y273403D01*
Y273341D01*
Y273185D01*
Y272997D01*
Y272778D01*
X346876Y272544D01*
Y272325D01*
X346892Y272107D01*
Y272091D01*
Y272013D01*
Y271919D01*
Y271794D01*
X346907Y271654D01*
Y271498D01*
Y271185D01*
X344252Y271904D01*
Y271919D01*
Y271982D01*
Y272060D01*
X344268Y272169D01*
Y272294D01*
Y272450D01*
X344283Y272778D01*
X344299Y273122D01*
Y273466D01*
X344315Y273622D01*
Y273762D01*
Y273872D01*
Y273966D01*
Y273981D01*
Y274028D01*
Y274106D01*
Y274216D01*
Y274340D01*
Y274481D01*
Y274653D01*
X344299Y274825D01*
Y275231D01*
X344283Y275668D01*
X344268Y276121D01*
X344236Y276574D01*
X346923Y276059D01*
D02*
G37*
G36*
X343112Y250060D02*
X343252Y250044D01*
X343440Y250029D01*
X343627Y250013D01*
X343862Y249966D01*
X344111Y249920D01*
X344361Y249873D01*
X344642Y249795D01*
X344939Y249716D01*
X345252Y249623D01*
X345580Y249513D01*
X345908Y249388D01*
X346236Y249232D01*
X346251Y249217D01*
X346314Y249185D01*
X346408Y249138D01*
X346548Y249076D01*
X346704Y248982D01*
X346892Y248873D01*
X347095Y248748D01*
X347313Y248607D01*
X347548Y248436D01*
X347798Y248264D01*
X348048Y248076D01*
X348298Y247858D01*
X348797Y247405D01*
X349032Y247139D01*
X349266Y246874D01*
X349282Y246858D01*
X349328Y246796D01*
X349391Y246702D01*
X349469Y246592D01*
X349563Y246436D01*
X349672Y246249D01*
X349797Y246046D01*
X349906Y245811D01*
X350031Y245562D01*
X350156Y245280D01*
X350266Y244984D01*
X350359Y244687D01*
X350437Y244359D01*
X350500Y244031D01*
X350547Y243687D01*
X350563Y243328D01*
Y243312D01*
Y243265D01*
Y243203D01*
X350547Y243094D01*
Y242984D01*
X350531Y242828D01*
X350516Y242672D01*
X350500Y242484D01*
X350469D01*
X350406Y242500D01*
X350297Y242531D01*
X350141Y242563D01*
X349953Y242594D01*
X349735Y242641D01*
X349485Y242687D01*
X349203Y242734D01*
X348891Y242797D01*
X348548Y242875D01*
X348188Y242937D01*
X347813Y243016D01*
X347423Y243094D01*
X347001Y243172D01*
X346142Y243328D01*
X345252Y243500D01*
X344361Y243671D01*
X343471Y243828D01*
X342612Y243984D01*
X342206Y244062D01*
X341800Y244125D01*
X341425Y244187D01*
X341066Y244249D01*
X340722Y244312D01*
X340409Y244359D01*
X340113Y244406D01*
X339863Y244437D01*
Y244468D01*
X339847Y244546D01*
X339816Y244687D01*
X339785Y244843D01*
X339753Y245046D01*
X339707Y245265D01*
X339629Y245749D01*
Y245780D01*
X339613Y245858D01*
X339597Y245999D01*
X339566Y246171D01*
X339550Y246374D01*
X339535Y246624D01*
X339519Y246874D01*
Y247155D01*
Y247170D01*
Y247186D01*
Y247280D01*
X339535Y247420D01*
X339550Y247608D01*
X339582Y247811D01*
X339629Y248045D01*
X339691Y248264D01*
X339785Y248482D01*
X339800Y248514D01*
X339831Y248576D01*
X339894Y248686D01*
X339972Y248811D01*
X340066Y248967D01*
X340191Y249123D01*
X340331Y249264D01*
X340488Y249404D01*
X340503Y249420D01*
X340534Y249435D01*
X340581Y249466D01*
X340644Y249513D01*
X340738Y249560D01*
X340847Y249623D01*
X340972Y249685D01*
X341112Y249748D01*
X341269Y249810D01*
X341440Y249857D01*
X341644Y249920D01*
X341846Y249966D01*
X342315Y250044D01*
X342565Y250076D01*
X342987D01*
X343112Y250060D01*
D02*
G37*
G36*
X344596Y254309D02*
X344658Y254293D01*
X344752Y254277D01*
X344861Y254246D01*
X345002Y254231D01*
X345158Y254199D01*
X345314Y254152D01*
X345705Y254090D01*
X346111Y253996D01*
X346548Y253918D01*
X347001Y253840D01*
X346986Y253090D01*
Y253075D01*
Y253059D01*
Y252950D01*
Y252809D01*
X346970Y252653D01*
X347048D01*
X347111Y252637D01*
X347282Y252622D01*
X347501Y252606D01*
X347766Y252575D01*
X348063Y252528D01*
X348376Y252481D01*
X348719Y252419D01*
X348813Y250622D01*
X348782Y250638D01*
X348688Y250654D01*
X348548Y250685D01*
X348344Y250732D01*
X348079Y250794D01*
X347766Y250872D01*
X347407Y250950D01*
X346986Y251028D01*
Y249810D01*
X346923D01*
X346845Y249826D01*
X346751D01*
X346642Y249841D01*
X346501Y249857D01*
X346189Y249888D01*
X345830Y249920D01*
X345455Y249966D01*
X345095Y250013D01*
X344752Y250060D01*
Y250232D01*
Y250248D01*
Y250263D01*
Y250341D01*
Y250466D01*
X344736Y250638D01*
Y250826D01*
X344721Y251028D01*
X344674Y251450D01*
X344658D01*
X344627Y251466D01*
X344564D01*
X344486Y251482D01*
X344299Y251513D01*
X344096Y251544D01*
X344080D01*
X344049Y251560D01*
X344002D01*
X343924Y251575D01*
X343752Y251606D01*
X343533Y251638D01*
X343518D01*
X343487Y251653D01*
X343424Y251669D01*
X343346Y251685D01*
X343143Y251716D01*
X342940Y251763D01*
Y251778D01*
Y251825D01*
X342924Y251888D01*
Y251981D01*
Y252091D01*
X342909Y252216D01*
X342893Y252481D01*
X342862Y252794D01*
X342846Y253090D01*
X342815Y253356D01*
X342799Y253481D01*
X342784Y253575D01*
X342799D01*
X342831Y253559D01*
X342893D01*
X342971Y253528D01*
X343174Y253497D01*
X343408Y253434D01*
X343424D01*
X343471Y253418D01*
X343533Y253403D01*
X343612Y253387D01*
X343815Y253340D01*
X344049Y253278D01*
X344065D01*
X344096Y253262D01*
X344158D01*
X344236Y253231D01*
X344424Y253200D01*
X344658Y253137D01*
Y253153D01*
Y253169D01*
X344642Y253278D01*
X344627Y253403D01*
X344611Y253559D01*
Y253575D01*
Y253590D01*
X344596Y253684D01*
X344580Y253809D01*
Y253965D01*
Y253981D01*
Y253996D01*
X344564Y254090D01*
X344549Y254199D01*
X344533Y254324D01*
X344549D01*
X344596Y254309D01*
D02*
G37*
G36*
X329551Y361204D02*
X329609Y361181D01*
X329668Y361145D01*
X329703Y361099D01*
Y361064D01*
Y361028D01*
X329679Y360993D01*
X329644Y360946D01*
X329597Y360900D01*
X329527Y360853D01*
Y358932D01*
Y358921D01*
Y358886D01*
X329539Y358815D01*
X329551Y358733D01*
X329562Y358628D01*
X329586Y358511D01*
X329609Y358359D01*
X329644Y358195D01*
X329691Y358019D01*
X329738Y357832D01*
X329797Y357621D01*
X329867Y357410D01*
X330031Y356942D01*
X330136Y356696D01*
X330253Y356450D01*
X330370Y356181D01*
X330511Y355923D01*
X330663Y355654D01*
X330839Y355384D01*
X331026Y355127D01*
X331225Y354857D01*
X331448Y354588D01*
X331682Y354330D01*
X331939Y354073D01*
X332209Y353827D01*
X332502Y353581D01*
X332818Y353347D01*
X333157Y353112D01*
X333520Y352902D01*
X333895Y352703D01*
X334305Y352515D01*
X333743Y351344D01*
X333731D01*
X333708Y351356D01*
X333661Y351379D01*
X333602Y351414D01*
X333520Y351450D01*
X333438Y351497D01*
X333333Y351555D01*
X333216Y351625D01*
X332946Y351789D01*
X332654Y351988D01*
X332314Y352222D01*
X331963Y352515D01*
X331588Y352831D01*
X331202Y353206D01*
X331014Y353417D01*
X330815Y353628D01*
X330628Y353850D01*
X330440Y354096D01*
X330265Y354342D01*
X330078Y354600D01*
X329902Y354881D01*
X329738Y355173D01*
X329586Y355466D01*
X329433Y355782D01*
X329281Y356110D01*
X329152Y356450D01*
Y356438D01*
X329141Y356415D01*
X329129Y356368D01*
X329106Y356298D01*
X329070Y356216D01*
X329035Y356110D01*
X329000Y356005D01*
X328942Y355876D01*
X328883Y355735D01*
X328824Y355583D01*
X328661Y355255D01*
X328462Y354892D01*
X328227Y354494D01*
X327958Y354084D01*
X327630Y353663D01*
X327454Y353452D01*
X327267Y353230D01*
X327068Y353019D01*
X326857Y352820D01*
X326635Y352609D01*
X326401Y352410D01*
X326155Y352211D01*
X325885Y352023D01*
X325616Y351836D01*
X325323Y351660D01*
X325019Y351497D01*
X324703Y351344D01*
X324000Y352375D01*
X324012D01*
X324047Y352398D01*
X324105Y352422D01*
X324187Y352457D01*
X324293Y352503D01*
X324410Y352562D01*
X324550Y352632D01*
X324691Y352714D01*
X324855Y352808D01*
X325030Y352925D01*
X325218Y353042D01*
X325405Y353171D01*
X325604Y353311D01*
X325815Y353475D01*
X326014Y353639D01*
X326225Y353827D01*
X326436Y354026D01*
X326635Y354237D01*
X326846Y354459D01*
X327045Y354705D01*
X327232Y354963D01*
X327419Y355232D01*
X327595Y355513D01*
X327759Y355818D01*
X327899Y356134D01*
X328040Y356462D01*
X328157Y356813D01*
X328262Y357176D01*
X328344Y357551D01*
X328403Y357949D01*
X328438Y358359D01*
X328450Y358792D01*
Y361227D01*
X329504D01*
X329551Y361204D01*
D02*
G37*
G36*
X373678Y333361D02*
X373746Y333341D01*
X373834Y333312D01*
X373951Y333283D01*
X374088Y333243D01*
X374234Y333195D01*
X374400Y333146D01*
X374585Y333097D01*
X374781Y333039D01*
X375191Y332931D01*
X375620Y332814D01*
X376059Y332697D01*
X376069D01*
X376108Y332687D01*
X376176Y332668D01*
X376254Y332648D01*
X376352Y332619D01*
X376469Y332590D01*
X376606Y332560D01*
X376752Y332521D01*
X376899Y332482D01*
X377064Y332443D01*
X377406Y332355D01*
X377748Y332277D01*
X378089Y332189D01*
X378099D01*
X378128Y332180D01*
X378177Y332170D01*
X378245Y332150D01*
X378324Y332131D01*
X378431Y332102D01*
X378548Y332082D01*
X378675Y332043D01*
X378821Y332014D01*
X378987Y331975D01*
X379163Y331926D01*
X379348Y331887D01*
X379553Y331838D01*
X379758Y331789D01*
X379983Y331740D01*
X380217Y331682D01*
X380578Y329242D01*
X380568D01*
X380529Y329252D01*
X380471D01*
X380383Y329261D01*
X380285Y329271D01*
X380158Y329281D01*
X380022Y329291D01*
X379866Y329310D01*
X379690Y329320D01*
X379495Y329340D01*
X379290Y329359D01*
X379075Y329379D01*
X378851Y329398D01*
X378607Y329418D01*
X378353Y329437D01*
X378099Y329457D01*
X377562Y329505D01*
X376996Y329544D01*
X376420Y329584D01*
X375845Y329623D01*
X375278Y329652D01*
X374712Y329681D01*
X374185Y329701D01*
X373922Y329710D01*
X373678Y329720D01*
Y329730D01*
Y329749D01*
Y329788D01*
Y329837D01*
Y329896D01*
Y329964D01*
X373668Y330140D01*
Y330335D01*
X373649Y330559D01*
X373639Y330794D01*
X373619Y331028D01*
X373600Y331174D01*
X373649D01*
X373707Y331165D01*
X373785Y331155D01*
X373873Y331145D01*
X373980Y331135D01*
X374107Y331126D01*
X374234Y331116D01*
X374517Y331087D01*
X374820Y331057D01*
X375113Y331028D01*
X375395Y330999D01*
X375425D01*
X375464Y330989D01*
X375513D01*
X375571Y330979D01*
X375640D01*
X375805Y330960D01*
X375981Y330940D01*
X376176Y330921D01*
X376362Y330911D01*
X376537Y330891D01*
X376557D01*
X376606Y330882D01*
X376694D01*
X376801Y330872D01*
X376928Y330852D01*
X377074Y330843D01*
X377377Y330813D01*
X377406D01*
X377445Y330803D01*
X377494D01*
X377553Y330794D01*
X377631Y330784D01*
X377797Y330774D01*
X378001Y330755D01*
X378226Y330725D01*
X378470Y330706D01*
X378714Y330677D01*
Y330852D01*
X373727Y331897D01*
Y331906D01*
Y331936D01*
Y331994D01*
X373717Y332053D01*
Y332131D01*
X373707Y332219D01*
X373697Y332394D01*
Y332404D01*
Y332443D01*
X373688Y332492D01*
Y332551D01*
X373678Y332629D01*
Y332716D01*
X373668Y332902D01*
Y332912D01*
Y332941D01*
X373658Y332990D01*
Y333058D01*
X373649Y333126D01*
X373639Y333214D01*
X373619Y333380D01*
X373629D01*
X373678Y333361D01*
D02*
G37*
G36*
X375610Y329359D02*
X375698Y329349D01*
X375815Y329320D01*
X375971Y329271D01*
X376147Y329203D01*
X376352Y329096D01*
X376586Y328969D01*
X376703Y328881D01*
X376830Y328793D01*
X376957Y328695D01*
X377094Y328578D01*
X377230Y328451D01*
X377377Y328315D01*
X377523Y328168D01*
X377670Y328002D01*
X377816Y327827D01*
X377972Y327631D01*
X378128Y327427D01*
X378285Y327202D01*
X378441Y326968D01*
X378607Y326704D01*
X378763Y326431D01*
X378929Y326138D01*
Y326148D01*
Y326158D01*
Y326187D01*
Y326236D01*
Y326285D01*
Y326343D01*
X378919Y326490D01*
Y326665D01*
X378909Y326870D01*
X378899Y327095D01*
X378880Y327339D01*
Y327348D01*
Y327368D01*
X378870Y327407D01*
Y327456D01*
X378860Y327514D01*
Y327583D01*
X378851Y327739D01*
X378831Y327924D01*
X378821Y328119D01*
X378802Y328315D01*
X378792Y328510D01*
X380149Y328354D01*
Y328334D01*
Y328295D01*
X380158Y328217D01*
X380168Y328110D01*
X380178Y327983D01*
X380188Y327827D01*
X380197Y327651D01*
X380207Y327456D01*
Y327446D01*
Y327417D01*
X380217Y327358D01*
Y327290D01*
X380227Y327202D01*
Y327104D01*
X380237Y326997D01*
X380246Y326880D01*
X380256Y326617D01*
X380276Y326333D01*
X380295Y326060D01*
X380315Y325797D01*
Y325787D01*
Y325767D01*
Y325728D01*
X380324Y325679D01*
Y325621D01*
X380334Y325543D01*
X380344Y325465D01*
Y325367D01*
X380363Y325143D01*
X380383Y324899D01*
X380402Y324616D01*
X380422Y324313D01*
X379241Y324469D01*
X379231D01*
X379212Y324479D01*
X379173Y324489D01*
X379114Y324508D01*
X379046Y324538D01*
X378958Y324577D01*
X378860Y324635D01*
X378753Y324713D01*
X378626Y324801D01*
X378480Y324918D01*
X378333Y325055D01*
X378158Y325211D01*
X377982Y325406D01*
X377787Y325621D01*
X377582Y325865D01*
X377367Y326148D01*
X377357Y326158D01*
X377338Y326187D01*
X377299Y326246D01*
X377250Y326304D01*
X377182Y326382D01*
X377113Y326480D01*
X376957Y326675D01*
X376781Y326890D01*
X376616Y327095D01*
X376528Y327192D01*
X376450Y327280D01*
X376381Y327358D01*
X376323Y327417D01*
X376313Y327427D01*
X376274Y327466D01*
X376215Y327514D01*
X376137Y327563D01*
X376059Y327622D01*
X375971Y327661D01*
X375874Y327700D01*
X375786Y327710D01*
X375747D01*
X375708Y327700D01*
X375649D01*
X375522Y327661D01*
X375464Y327641D01*
X375405Y327602D01*
X375395D01*
X375376Y327583D01*
X375327Y327524D01*
X375269Y327446D01*
X375259Y327387D01*
X375249Y327329D01*
Y327319D01*
Y327300D01*
Y327270D01*
X375259Y327241D01*
X375278Y327144D01*
X375317Y327056D01*
X375327Y327036D01*
X375366Y326987D01*
X375425Y326929D01*
X375493Y326880D01*
X375503D01*
X375532Y326860D01*
X375571Y326841D01*
X375630Y326821D01*
X375708Y326802D01*
X375796Y326782D01*
X375893Y326773D01*
X376001Y326763D01*
X376118D01*
X376137Y326773D01*
Y326743D01*
Y326724D01*
X376147Y326685D01*
Y326636D01*
X376157Y326568D01*
X376167Y326480D01*
X376176Y326373D01*
X376186Y326246D01*
X376206Y326089D01*
X376225Y325904D01*
X376245Y325689D01*
X376264Y325435D01*
X376293Y325152D01*
X376264D01*
X376235Y325143D01*
X376196D01*
X376108Y325133D01*
X375942D01*
X375893Y325143D01*
X375815D01*
X375727Y325152D01*
X375620Y325172D01*
X375513Y325201D01*
X375386Y325231D01*
X375249Y325270D01*
X375113Y325318D01*
X374966Y325387D01*
X374820Y325455D01*
X374673Y325543D01*
X374537Y325650D01*
X374390Y325767D01*
X374263Y325904D01*
X374254Y325914D01*
X374234Y325933D01*
X374205Y325972D01*
X374166Y326031D01*
X374127Y326099D01*
X374068Y326177D01*
X374019Y326275D01*
X373961Y326382D01*
X373902Y326490D01*
X373853Y326617D01*
X373756Y326900D01*
X373717Y327056D01*
X373688Y327212D01*
X373668Y327378D01*
X373658Y327553D01*
Y327563D01*
Y327592D01*
Y327631D01*
X373668Y327680D01*
Y327749D01*
X373678Y327827D01*
X373717Y328002D01*
X373766Y328198D01*
X373844Y328412D01*
X373961Y328617D01*
X374029Y328715D01*
X374107Y328813D01*
X374117Y328822D01*
X374127Y328832D01*
X374156Y328861D01*
X374205Y328900D01*
X374254Y328939D01*
X374322Y328988D01*
X374390Y329037D01*
X374478Y329096D01*
X374576Y329144D01*
X374683Y329193D01*
X374800Y329242D01*
X374927Y329281D01*
X375064Y329320D01*
X375210Y329349D01*
X375366Y329359D01*
X375532Y329369D01*
X375552D01*
X375610Y329359D01*
D02*
G37*
G36*
X365524Y361204D02*
X365582Y361181D01*
X365641Y361145D01*
X365676Y361099D01*
Y361064D01*
Y361028D01*
X365652Y360993D01*
X365617Y360946D01*
X365570Y360900D01*
X365500Y360853D01*
Y358932D01*
Y358921D01*
Y358886D01*
X365512Y358815D01*
X365524Y358733D01*
X365535Y358628D01*
X365559Y358511D01*
X365582Y358359D01*
X365617Y358195D01*
X365664Y358019D01*
X365711Y357832D01*
X365770Y357621D01*
X365840Y357410D01*
X366004Y356942D01*
X366109Y356696D01*
X366226Y356450D01*
X366343Y356181D01*
X366484Y355923D01*
X366636Y355654D01*
X366812Y355384D01*
X366999Y355127D01*
X367198Y354857D01*
X367421Y354588D01*
X367655Y354330D01*
X367913Y354073D01*
X368182Y353827D01*
X368475Y353581D01*
X368791Y353347D01*
X369130Y353112D01*
X369493Y352902D01*
X369868Y352703D01*
X370278Y352515D01*
X369716Y351344D01*
X369704D01*
X369681Y351356D01*
X369634Y351379D01*
X369575Y351414D01*
X369493Y351450D01*
X369411Y351497D01*
X369306Y351555D01*
X369189Y351625D01*
X368920Y351789D01*
X368627Y351988D01*
X368287Y352222D01*
X367936Y352515D01*
X367561Y352831D01*
X367175Y353206D01*
X366987Y353417D01*
X366788Y353628D01*
X366601Y353850D01*
X366414Y354096D01*
X366238Y354342D01*
X366051Y354600D01*
X365875Y354881D01*
X365711Y355173D01*
X365559Y355466D01*
X365407Y355782D01*
X365254Y356110D01*
X365125Y356450D01*
Y356438D01*
X365114Y356415D01*
X365102Y356368D01*
X365079Y356298D01*
X365044Y356216D01*
X365008Y356110D01*
X364973Y356005D01*
X364915Y355876D01*
X364856Y355735D01*
X364798Y355583D01*
X364634Y355255D01*
X364435Y354892D01*
X364200Y354494D01*
X363931Y354084D01*
X363603Y353663D01*
X363428Y353452D01*
X363240Y353230D01*
X363041Y353019D01*
X362830Y352820D01*
X362608Y352609D01*
X362374Y352410D01*
X362128Y352211D01*
X361858Y352023D01*
X361589Y351836D01*
X361296Y351660D01*
X360992Y351497D01*
X360676Y351344D01*
X359973Y352375D01*
X359985D01*
X360020Y352398D01*
X360079Y352422D01*
X360160Y352457D01*
X360266Y352503D01*
X360383Y352562D01*
X360524Y352632D01*
X360664Y352714D01*
X360828Y352808D01*
X361004Y352925D01*
X361191Y353042D01*
X361378Y353171D01*
X361577Y353311D01*
X361788Y353475D01*
X361987Y353639D01*
X362198Y353827D01*
X362409Y354026D01*
X362608Y354237D01*
X362819Y354459D01*
X363018Y354705D01*
X363205Y354963D01*
X363392Y355232D01*
X363568Y355513D01*
X363732Y355818D01*
X363873Y356134D01*
X364013Y356462D01*
X364130Y356813D01*
X364236Y357176D01*
X364317Y357551D01*
X364376Y357949D01*
X364411Y358359D01*
X364423Y358792D01*
Y361227D01*
X365477D01*
X365524Y361204D01*
D02*
G37*
G36*
X338275Y358967D02*
X338368Y358956D01*
X338485Y358932D01*
X338602Y358909D01*
X338743Y358886D01*
X339036Y358780D01*
X339188Y358721D01*
X339340Y358640D01*
X339504Y358558D01*
X339668Y358440D01*
X339820Y358323D01*
X339972Y358183D01*
X339984Y358171D01*
X340008Y358148D01*
X340043Y358101D01*
X340101Y358042D01*
X340160Y357960D01*
X340230Y357878D01*
X340300Y357773D01*
X340371Y357656D01*
X340441Y357515D01*
X340523Y357375D01*
X340640Y357059D01*
X340699Y356883D01*
X340734Y356696D01*
X340757Y356508D01*
X340769Y356309D01*
Y356298D01*
Y356262D01*
Y356204D01*
X340757Y356134D01*
X340745Y356040D01*
X340722Y355923D01*
X340699Y355806D01*
X340675Y355677D01*
X340570Y355384D01*
X340511Y355220D01*
X340429Y355068D01*
X340347Y354904D01*
X340230Y354740D01*
X340113Y354588D01*
X339972Y354436D01*
X339961Y354424D01*
X339937Y354401D01*
X339891Y354365D01*
X339832Y354307D01*
X339750Y354248D01*
X339668Y354190D01*
X339563Y354108D01*
X339445Y354037D01*
X339305Y353967D01*
X339164Y353897D01*
X338848Y353768D01*
X338673Y353710D01*
X338485Y353675D01*
X338298Y353651D01*
X338099Y353639D01*
X337993D01*
X337923Y353651D01*
X337829Y353663D01*
X337712Y353686D01*
X337595Y353710D01*
X337467Y353745D01*
X337174Y353838D01*
X337010Y353897D01*
X336858Y353979D01*
X336694Y354073D01*
X336530Y354178D01*
X336378Y354295D01*
X336225Y354436D01*
X336213Y354447D01*
X336190Y354471D01*
X336155Y354518D01*
X336096Y354576D01*
X336038Y354658D01*
X335979Y354740D01*
X335897Y354845D01*
X335827Y354974D01*
X335757Y355103D01*
X335687Y355244D01*
X335558Y355560D01*
X335499Y355735D01*
X335464Y355923D01*
X335441Y356110D01*
X335429Y356309D01*
Y356321D01*
Y356356D01*
Y356415D01*
X335441Y356485D01*
X335452Y356579D01*
X335476Y356696D01*
X335499Y356813D01*
X335534Y356953D01*
X335628Y357246D01*
X335687Y357398D01*
X335769Y357551D01*
X335862Y357715D01*
X335968Y357878D01*
X336085Y358031D01*
X336225Y358183D01*
X336237Y358195D01*
X336260Y358218D01*
X336307Y358253D01*
X336366Y358312D01*
X336448Y358370D01*
X336530Y358440D01*
X336635Y358511D01*
X336764Y358581D01*
X336893Y358651D01*
X337033Y358733D01*
X337349Y358850D01*
X337525Y358909D01*
X337712Y358944D01*
X337900Y358967D01*
X338099Y358979D01*
X338204D01*
X338275Y358967D01*
D02*
G37*
G36*
X352900Y352094D02*
X352889Y352082D01*
X352853Y352035D01*
X352783Y351965D01*
X352701Y351883D01*
X352584Y351778D01*
X352455Y351660D01*
X352303Y351543D01*
X352127Y351414D01*
X351928Y351286D01*
X351718Y351169D01*
X351495Y351051D01*
X351238Y350946D01*
X350980Y350864D01*
X350699Y350794D01*
X350394Y350747D01*
X350090Y350735D01*
X350020D01*
X349926Y350747D01*
X349821Y350759D01*
X349680Y350782D01*
X349504Y350806D01*
X349329Y350852D01*
X349130Y350911D01*
X348907Y350981D01*
X348685Y351063D01*
X348450Y351180D01*
X348216Y351309D01*
X347970Y351461D01*
X347736Y351649D01*
X347502Y351859D01*
X347280Y352094D01*
X347795Y352609D01*
X347806Y352597D01*
X347842Y352562D01*
X347900Y352503D01*
X347970Y352422D01*
X348064Y352340D01*
X348181Y352234D01*
X348310Y352129D01*
X348450Y352023D01*
X348614Y351918D01*
X348790Y351813D01*
X348977Y351707D01*
X349177Y351625D01*
X349387Y351543D01*
X349610Y351485D01*
X349844Y351450D01*
X350090Y351438D01*
X350148D01*
X350219Y351450D01*
X350312Y351461D01*
X350430Y351473D01*
X350570Y351497D01*
X350722Y351532D01*
X350886Y351590D01*
X351062Y351649D01*
X351249Y351719D01*
X351436Y351824D01*
X351636Y351930D01*
X351823Y352070D01*
X352022Y352222D01*
X352209Y352398D01*
X352385Y352609D01*
X352900Y352094D01*
D02*
G37*
G36*
X346905D02*
X346893Y352082D01*
X346858Y352035D01*
X346788Y351965D01*
X346706Y351883D01*
X346589Y351778D01*
X346460Y351660D01*
X346307Y351543D01*
X346132Y351414D01*
X345933Y351286D01*
X345722Y351169D01*
X345500Y351051D01*
X345242Y350946D01*
X344984Y350864D01*
X344703Y350794D01*
X344399Y350747D01*
X344094Y350735D01*
X344024D01*
X343930Y350747D01*
X343825Y350759D01*
X343685Y350782D01*
X343509Y350806D01*
X343333Y350852D01*
X343134Y350911D01*
X342912Y350981D01*
X342689Y351063D01*
X342455Y351180D01*
X342221Y351309D01*
X341975Y351461D01*
X341741Y351649D01*
X341506Y351859D01*
X341284Y352094D01*
X341799Y352609D01*
X341811Y352597D01*
X341846Y352562D01*
X341905Y352503D01*
X341975Y352422D01*
X342069Y352340D01*
X342186Y352234D01*
X342314Y352129D01*
X342455Y352023D01*
X342619Y351918D01*
X342794Y351813D01*
X342982Y351707D01*
X343181Y351625D01*
X343392Y351543D01*
X343614Y351485D01*
X343848Y351450D01*
X344094Y351438D01*
X344153D01*
X344223Y351450D01*
X344317Y351461D01*
X344434Y351473D01*
X344574Y351497D01*
X344727Y351532D01*
X344891Y351590D01*
X345066Y351649D01*
X345254Y351719D01*
X345441Y351824D01*
X345640Y351930D01*
X345827Y352070D01*
X346026Y352222D01*
X346214Y352398D01*
X346390Y352609D01*
X346905Y352094D01*
D02*
G37*
G36*
X373756Y325045D02*
X373785D01*
X373824Y325035D01*
X373873Y325016D01*
X373941Y325006D01*
X374019Y324987D01*
X374097Y324967D01*
X374195Y324948D01*
X374302Y324918D01*
X374546Y324869D01*
X374820Y324811D01*
X375122Y324743D01*
X375464Y324664D01*
X375825Y324596D01*
X376215Y324508D01*
X376635Y324430D01*
X377064Y324342D01*
X377523Y324255D01*
X377992Y324177D01*
X378470Y324089D01*
X378480D01*
X378509Y324079D01*
X378548D01*
X378607Y324069D01*
X378685Y324059D01*
X378763Y324040D01*
X378860Y324030D01*
X378977Y324011D01*
X379221Y323972D01*
X379495Y323923D01*
X379787Y323874D01*
X380100Y323825D01*
Y323815D01*
X380110Y323796D01*
X380119Y323767D01*
X380129Y323718D01*
X380149Y323649D01*
X380168Y323581D01*
X380188Y323493D01*
X380217Y323386D01*
X380246Y323279D01*
X380276Y323152D01*
X380305Y323015D01*
X380334Y322869D01*
X380363Y322703D01*
X380402Y322537D01*
X380432Y322351D01*
X380471Y322156D01*
X380461D01*
X380432Y322166D01*
X380393Y322176D01*
X380324Y322185D01*
X380256Y322205D01*
X380168Y322224D01*
X380071Y322244D01*
X379973Y322273D01*
X379749Y322322D01*
X379504Y322371D01*
X379260Y322420D01*
X379026Y322468D01*
X379016D01*
X378997Y322478D01*
X378968D01*
X378929Y322488D01*
X378812Y322517D01*
X378675Y322547D01*
X378519Y322576D01*
X378343Y322605D01*
X378177Y322644D01*
X378021Y322673D01*
X378001D01*
X377953Y322693D01*
X377875Y322703D01*
X377767Y322732D01*
X377650Y322751D01*
X377513Y322781D01*
X377221Y322849D01*
X377191D01*
X377162Y322859D01*
X377123Y322869D01*
X377064Y322878D01*
X376996Y322888D01*
X376918Y322908D01*
X376830Y322917D01*
X376733Y322937D01*
X376616Y322966D01*
X376489Y322986D01*
X376352Y323005D01*
X376206Y323035D01*
X376040Y323064D01*
X375874Y323103D01*
X375688Y323132D01*
Y323122D01*
Y323083D01*
X375698Y323035D01*
X375708Y322956D01*
X375718Y322869D01*
X375737Y322761D01*
X375757Y322634D01*
X375776Y322498D01*
Y322478D01*
X375786Y322439D01*
X375796Y322371D01*
X375805Y322293D01*
X375835Y322127D01*
X375845Y322049D01*
X375854Y321990D01*
X374205Y322224D01*
Y322234D01*
X374195Y322254D01*
X374185Y322293D01*
X374176Y322351D01*
X374166Y322410D01*
X374146Y322488D01*
X374136Y322576D01*
X374117Y322673D01*
X374078Y322878D01*
X374039Y323113D01*
X374000Y323347D01*
X373961Y323591D01*
Y323601D01*
Y323620D01*
X373951Y323659D01*
X373941Y323708D01*
X373932Y323767D01*
X373922Y323835D01*
X373912Y323923D01*
X373892Y324020D01*
X373863Y324235D01*
X373824Y324479D01*
X373775Y324752D01*
X373727Y325055D01*
X373736D01*
X373756Y325045D01*
D02*
G37*
G36*
X281055Y238764D02*
X281045Y238744D01*
Y238715D01*
X281035Y238676D01*
X281016Y238627D01*
X281006Y238559D01*
X280987Y238481D01*
X280967Y238403D01*
X280947Y238305D01*
X280918Y238198D01*
X280869Y237954D01*
X280811Y237680D01*
X280743Y237378D01*
X280664Y237036D01*
X280596Y236675D01*
X280508Y236285D01*
X280430Y235865D01*
X280342Y235436D01*
X280255Y234977D01*
X280176Y234508D01*
X280089Y234030D01*
Y234020D01*
X280079Y233991D01*
Y233952D01*
X280069Y233893D01*
X280059Y233815D01*
X280040Y233737D01*
X280030Y233640D01*
X280011Y233523D01*
X279972Y233279D01*
X279923Y233005D01*
X279874Y232713D01*
X279825Y232400D01*
X279815D01*
X279796Y232390D01*
X279767Y232381D01*
X279718Y232371D01*
X279649Y232351D01*
X279581Y232332D01*
X279493Y232312D01*
X279386Y232283D01*
X279279Y232254D01*
X279152Y232224D01*
X279015Y232195D01*
X278869Y232166D01*
X278703Y232137D01*
X278537Y232098D01*
X278351Y232068D01*
X278156Y232029D01*
Y232039D01*
X278166Y232068D01*
X278176Y232107D01*
X278185Y232176D01*
X278205Y232244D01*
X278224Y232332D01*
X278244Y232429D01*
X278273Y232527D01*
X278322Y232751D01*
X278371Y232996D01*
X278420Y233240D01*
X278468Y233474D01*
Y233484D01*
X278478Y233503D01*
Y233532D01*
X278488Y233571D01*
X278517Y233688D01*
X278547Y233825D01*
X278576Y233981D01*
X278605Y234157D01*
X278644Y234323D01*
X278673Y234479D01*
Y234499D01*
X278693Y234547D01*
X278703Y234625D01*
X278732Y234733D01*
X278751Y234850D01*
X278781Y234987D01*
X278849Y235279D01*
Y235289D01*
Y235309D01*
X278859Y235338D01*
X278869Y235377D01*
X278878Y235436D01*
X278888Y235504D01*
X278908Y235582D01*
X278917Y235670D01*
X278937Y235767D01*
X278966Y235884D01*
X278986Y236011D01*
X279005Y236148D01*
X279035Y236294D01*
X279064Y236460D01*
X279103Y236626D01*
X279132Y236812D01*
X279083D01*
X279035Y236802D01*
X278957Y236792D01*
X278869Y236782D01*
X278761Y236763D01*
X278634Y236743D01*
X278498Y236724D01*
X278478D01*
X278439Y236714D01*
X278371Y236704D01*
X278293Y236695D01*
X278127Y236665D01*
X278049Y236655D01*
X277990Y236646D01*
X278224Y238295D01*
X278234D01*
X278254Y238305D01*
X278293Y238315D01*
X278351Y238324D01*
X278410Y238334D01*
X278488Y238354D01*
X278576Y238364D01*
X278673Y238383D01*
X278878Y238422D01*
X279113Y238461D01*
X279347Y238500D01*
X279591Y238539D01*
X279620D01*
X279659Y238549D01*
X279708Y238559D01*
X279767Y238568D01*
X279835Y238578D01*
X279923Y238588D01*
X280020Y238608D01*
X280235Y238637D01*
X280479Y238676D01*
X280752Y238725D01*
X281055Y238773D01*
Y238764D01*
D02*
G37*
G36*
X254082Y238351D02*
X254179Y238342D01*
X254277Y238332D01*
X254374Y238313D01*
X254462Y238293D01*
X254472D01*
X254501Y238283D01*
X254540Y238264D01*
X254599Y238244D01*
X254726Y238186D01*
X254853Y238107D01*
X254872Y238098D01*
X254911Y238049D01*
X254970Y237981D01*
X255038Y237893D01*
X255097Y237766D01*
X255155Y237619D01*
X255194Y237444D01*
X255214Y237239D01*
Y237229D01*
Y237219D01*
Y237151D01*
X255204Y237073D01*
X255185Y236975D01*
Y236966D01*
Y236956D01*
X255175Y236897D01*
X255165Y236800D01*
X255145Y236692D01*
X253789Y236292D01*
Y236302D01*
X253799Y236321D01*
X253808Y236361D01*
X253818Y236409D01*
X253828Y236536D01*
X253838Y236683D01*
Y236692D01*
Y236722D01*
X253828Y236751D01*
Y236800D01*
X253789Y236907D01*
X253769Y236956D01*
X253730Y237005D01*
Y237014D01*
X253711Y237024D01*
X253672Y237073D01*
X253603Y237112D01*
X253555Y237122D01*
X253516Y237132D01*
X253496D01*
X253447Y237122D01*
X253379Y237112D01*
X253291Y237073D01*
X253272Y237063D01*
X253223Y237034D01*
X253154Y236995D01*
X253076Y236927D01*
X253067Y236917D01*
X253037Y236888D01*
X252998Y236848D01*
X252949Y236790D01*
X252901Y236731D01*
X252862Y236653D01*
X252832Y236565D01*
X252823Y236478D01*
Y236468D01*
Y236439D01*
X252832Y236390D01*
X252842Y236341D01*
X252881Y236204D01*
X252910Y236136D01*
X252949Y236077D01*
X252959Y236068D01*
X252969Y236048D01*
X252998Y236029D01*
X253037Y235990D01*
X253135Y235892D01*
X253262Y235794D01*
X253272Y235785D01*
X253291Y235775D01*
X253330Y235746D01*
X253379Y235716D01*
X253447Y235677D01*
X253516Y235629D01*
X253672Y235531D01*
X253681Y235521D01*
X253711Y235511D01*
X253750Y235472D01*
X253808Y235433D01*
X253935Y235326D01*
X254082Y235189D01*
X254091Y235179D01*
X254101Y235170D01*
X254121Y235140D01*
X254150Y235092D01*
X254179Y235043D01*
X254218Y234984D01*
X254257Y234906D01*
X254306Y234828D01*
X254345Y234731D01*
X254384Y234623D01*
X254452Y234389D01*
X254501Y234116D01*
X254521Y233969D01*
Y233813D01*
Y233803D01*
Y233764D01*
Y233716D01*
X254511Y233647D01*
X254501Y233559D01*
X254482Y233452D01*
X254462Y233345D01*
X254423Y233218D01*
X254384Y233081D01*
X254335Y232944D01*
X254277Y232808D01*
X254208Y232661D01*
X254121Y232525D01*
X254013Y232378D01*
X253906Y232242D01*
X253769Y232115D01*
X253760Y232105D01*
X253740Y232086D01*
X253701Y232056D01*
X253642Y232017D01*
X253574Y231968D01*
X253486Y231920D01*
X253389Y231861D01*
X253281Y231803D01*
X253154Y231744D01*
X253018Y231685D01*
X252871Y231637D01*
X252705Y231588D01*
X252539Y231549D01*
X252354Y231520D01*
X252169Y231500D01*
X251964Y231490D01*
X251925D01*
X251886Y231500D01*
X251827D01*
X251759Y231520D01*
X251671Y231539D01*
X251583Y231559D01*
X251476Y231598D01*
X251368Y231637D01*
X251251Y231695D01*
X251124Y231764D01*
X250997Y231842D01*
X250871Y231939D01*
X250744Y232047D01*
X250617Y232173D01*
X250490Y232320D01*
X251183Y233686D01*
X251193Y233677D01*
X251212Y233647D01*
X251241Y233598D01*
X251290Y233530D01*
X251359Y233462D01*
X251446Y233384D01*
X251554Y233296D01*
X251681Y233218D01*
X251700Y233208D01*
X251739Y233189D01*
X251807Y233149D01*
X251886Y233110D01*
X251973Y233071D01*
X252071Y233032D01*
X252149Y233013D01*
X252227Y233003D01*
X252335D01*
X252442Y233013D01*
X252539Y233032D01*
X252549D01*
X252559Y233042D01*
X252618Y233062D01*
X252686Y233101D01*
X252764Y233149D01*
X252774Y233159D01*
X252803Y233179D01*
X252832Y233218D01*
X252881Y233267D01*
X252920Y233325D01*
X252949Y233393D01*
X252979Y233462D01*
X252989Y233550D01*
Y233559D01*
Y233589D01*
X252979Y233637D01*
X252969Y233686D01*
X252949Y233755D01*
X252930Y233823D01*
X252891Y233901D01*
X252842Y233969D01*
X252832Y233979D01*
X252813Y233999D01*
X252783Y234038D01*
X252745Y234086D01*
X252686Y234145D01*
X252627Y234213D01*
X252481Y234340D01*
X252471Y234350D01*
X252442Y234369D01*
X252403Y234408D01*
X252344Y234448D01*
X252276Y234506D01*
X252198Y234565D01*
X252012Y234692D01*
X252003Y234701D01*
X251973Y234721D01*
X251925Y234760D01*
X251856Y234809D01*
X251710Y234935D01*
X251554Y235072D01*
X251544Y235082D01*
X251534Y235092D01*
X251476Y235150D01*
X251388Y235248D01*
X251300Y235365D01*
X251202Y235511D01*
X251115Y235677D01*
X251056Y235853D01*
X251046Y235941D01*
X251037Y236038D01*
Y236048D01*
Y236058D01*
Y236087D01*
Y236126D01*
X251056Y236224D01*
X251076Y236341D01*
X251105Y236487D01*
X251154Y236644D01*
X251222Y236809D01*
X251320Y236966D01*
Y236975D01*
X251329Y236985D01*
X251368Y237034D01*
X251437Y237112D01*
X251524Y237210D01*
X251632Y237327D01*
X251749Y237444D01*
X251895Y237571D01*
X252051Y237688D01*
X252061D01*
X252071Y237698D01*
X252130Y237737D01*
X252217Y237795D01*
X252335Y237863D01*
X252481Y237942D01*
X252637Y238029D01*
X252823Y238107D01*
X253008Y238176D01*
X253018D01*
X253028Y238186D01*
X253057Y238195D01*
X253096Y238205D01*
X253193Y238234D01*
X253311Y238273D01*
X253447Y238303D01*
X253594Y238332D01*
X253740Y238351D01*
X253877Y238361D01*
X254004D01*
X254082Y238351D01*
D02*
G37*
G36*
X307857Y238832D02*
X307926D01*
X308004Y238822D01*
X308179Y238783D01*
X308375Y238734D01*
X308589Y238656D01*
X308794Y238539D01*
X308892Y238471D01*
X308990Y238393D01*
X308999Y238383D01*
X309009Y238373D01*
X309038Y238344D01*
X309077Y238295D01*
X309117Y238246D01*
X309165Y238178D01*
X309214Y238110D01*
X309273Y238022D01*
X309321Y237924D01*
X309370Y237817D01*
X309419Y237700D01*
X309458Y237573D01*
X309497Y237436D01*
X309526Y237290D01*
X309536Y237134D01*
X309546Y236968D01*
Y236948D01*
X309536Y236890D01*
X309526Y236802D01*
X309497Y236685D01*
X309448Y236529D01*
X309380Y236353D01*
X309273Y236148D01*
X309146Y235914D01*
X309058Y235797D01*
X308970Y235670D01*
X308873Y235543D01*
X308755Y235406D01*
X308629Y235270D01*
X308492Y235123D01*
X308345Y234977D01*
X308179Y234830D01*
X308004Y234684D01*
X307809Y234528D01*
X307604Y234372D01*
X307379Y234215D01*
X307145Y234059D01*
X306881Y233893D01*
X306608Y233737D01*
X306315Y233571D01*
X306520D01*
X306667Y233581D01*
X306842D01*
X307047Y233591D01*
X307272Y233601D01*
X307516Y233620D01*
X307545D01*
X307584Y233630D01*
X307633D01*
X307692Y233640D01*
X307760D01*
X307916Y233649D01*
X308101Y233669D01*
X308297Y233679D01*
X308492Y233698D01*
X308687Y233708D01*
X308531Y232351D01*
X308472D01*
X308394Y232342D01*
X308287Y232332D01*
X308160Y232322D01*
X308004Y232312D01*
X307828Y232303D01*
X307633Y232293D01*
X307594D01*
X307535Y232283D01*
X307467D01*
X307379Y232273D01*
X307282D01*
X307174Y232263D01*
X307057Y232254D01*
X306794Y232244D01*
X306511Y232224D01*
X306237Y232205D01*
X305974Y232185D01*
X305905D01*
X305857Y232176D01*
X305798D01*
X305720Y232166D01*
X305642Y232156D01*
X305544D01*
X305320Y232137D01*
X305076Y232117D01*
X304793Y232098D01*
X304490Y232078D01*
X304646Y233259D01*
Y233269D01*
X304656Y233288D01*
X304666Y233327D01*
X304685Y233386D01*
X304715Y233454D01*
X304754Y233542D01*
X304812Y233640D01*
X304890Y233747D01*
X304978Y233874D01*
X305095Y234020D01*
X305232Y234167D01*
X305388Y234342D01*
X305583Y234518D01*
X305798Y234713D01*
X306042Y234918D01*
X306325Y235133D01*
X306335Y235143D01*
X306364Y235162D01*
X306423Y235201D01*
X306481Y235250D01*
X306559Y235318D01*
X306657Y235387D01*
X306852Y235543D01*
X307067Y235719D01*
X307272Y235884D01*
X307369Y235972D01*
X307457Y236050D01*
X307535Y236119D01*
X307594Y236177D01*
X307604Y236187D01*
X307643Y236226D01*
X307692Y236285D01*
X307740Y236363D01*
X307799Y236441D01*
X307838Y236529D01*
X307877Y236626D01*
X307887Y236714D01*
Y236724D01*
Y236753D01*
X307877Y236792D01*
Y236851D01*
X307838Y236978D01*
X307818Y237036D01*
X307779Y237095D01*
Y237105D01*
X307760Y237124D01*
X307701Y237173D01*
X307623Y237231D01*
X307565Y237241D01*
X307506Y237251D01*
X307448D01*
X307418Y237241D01*
X307321Y237222D01*
X307233Y237183D01*
X307213Y237173D01*
X307165Y237134D01*
X307106Y237075D01*
X307057Y237007D01*
Y236997D01*
X307038Y236968D01*
X307018Y236929D01*
X306999Y236870D01*
X306979Y236792D01*
X306960Y236704D01*
X306950Y236607D01*
X306940Y236499D01*
Y236402D01*
Y236382D01*
X306950Y236363D01*
X306901D01*
X306862Y236353D01*
X306813D01*
X306745Y236343D01*
X306657Y236333D01*
X306550Y236324D01*
X306423Y236314D01*
X306267Y236294D01*
X306081Y236275D01*
X305866Y236255D01*
X305613Y236236D01*
X305330Y236207D01*
Y236216D01*
Y236236D01*
X305320Y236265D01*
Y236304D01*
X305310Y236392D01*
Y236509D01*
Y236519D01*
Y236558D01*
X305320Y236607D01*
Y236685D01*
X305330Y236773D01*
X305349Y236880D01*
X305378Y236987D01*
X305408Y237114D01*
X305447Y237251D01*
X305496Y237387D01*
X305564Y237534D01*
X305632Y237680D01*
X305720Y237827D01*
X305827Y237963D01*
X305944Y238110D01*
X306081Y238237D01*
X306091Y238246D01*
X306110Y238266D01*
X306149Y238295D01*
X306208Y238334D01*
X306276Y238373D01*
X306354Y238432D01*
X306452Y238481D01*
X306559Y238539D01*
X306667Y238598D01*
X306794Y238647D01*
X307077Y238744D01*
X307233Y238783D01*
X307389Y238812D01*
X307555Y238832D01*
X307731Y238842D01*
X307809D01*
X307857Y238832D01*
D02*
G37*
G36*
X336548Y236919D02*
X334674Y235924D01*
X334694D01*
X334733Y235914D01*
X334801Y235894D01*
X334889Y235875D01*
X334996Y235845D01*
X335113Y235806D01*
X335250Y235758D01*
X335387Y235709D01*
X335523Y235641D01*
X335670Y235572D01*
X335806Y235484D01*
X335943Y235397D01*
X336060Y235289D01*
X336168Y235172D01*
X336265Y235045D01*
X336333Y234899D01*
Y234889D01*
X336343Y234860D01*
X336363Y234801D01*
X336382Y234733D01*
X336392Y234645D01*
X336411Y234547D01*
X336421Y234440D01*
Y234313D01*
Y234294D01*
Y234255D01*
X336411Y234186D01*
X336392Y234089D01*
X336363Y233972D01*
X336314Y233835D01*
X336255Y233688D01*
X336177Y233523D01*
X336168Y233503D01*
X336138Y233444D01*
X336080Y233357D01*
X336011Y233249D01*
X335924Y233122D01*
X335806Y232986D01*
X335689Y232849D01*
X335543Y232703D01*
X335523Y232683D01*
X335475Y232644D01*
X335387Y232576D01*
X335279Y232498D01*
X335143Y232400D01*
X334987Y232303D01*
X334811Y232205D01*
X334625Y232117D01*
X334616D01*
X334606Y232107D01*
X334577Y232098D01*
X334538Y232078D01*
X334440Y232049D01*
X334313Y232010D01*
X334167Y231961D01*
X334001Y231932D01*
X333835Y231902D01*
X333669Y231893D01*
X333513D01*
X333415Y231902D01*
X333298Y231912D01*
X333181Y231922D01*
X333064Y231941D01*
X332947Y231961D01*
X332937D01*
X332898Y231971D01*
X332849Y231990D01*
X332781Y232019D01*
X332713Y232049D01*
X332625Y232088D01*
X332459Y232185D01*
X332439Y232205D01*
X332390Y232254D01*
X332312Y232322D01*
X332234Y232439D01*
X332146Y232576D01*
X332068Y232742D01*
X332019Y232927D01*
X332010Y233035D01*
X332000Y233152D01*
Y233161D01*
Y233191D01*
Y233230D01*
X332010Y233288D01*
X332019Y233366D01*
X332029Y233444D01*
X332078Y233630D01*
X333737Y233718D01*
Y233708D01*
Y233688D01*
X333747Y233659D01*
Y233620D01*
X333776Y233532D01*
X333825Y233454D01*
X333845Y233444D01*
X333884Y233415D01*
X333962Y233386D01*
X334050Y233376D01*
X334069D01*
X334137Y233386D01*
X334225Y233405D01*
X334323Y233435D01*
X334333D01*
X334352Y233444D01*
X334411Y233474D01*
X334499Y233523D01*
X334586Y233591D01*
X334596Y233601D01*
X334635Y233630D01*
X334684Y233679D01*
X334733Y233747D01*
X334791Y233815D01*
X334830Y233903D01*
X334869Y233991D01*
X334879Y234089D01*
Y234098D01*
Y234128D01*
X334869Y234176D01*
X334850Y234235D01*
X334821Y234303D01*
X334782Y234381D01*
X334733Y234459D01*
X334655Y234528D01*
X334645Y234538D01*
X334616Y234557D01*
X334567Y234586D01*
X334499Y234625D01*
X334401Y234665D01*
X334294Y234694D01*
X334167Y234713D01*
X334011Y234723D01*
X333854D01*
X333747Y234713D01*
X333630D01*
X333493Y234703D01*
X333220Y234665D01*
X333201D01*
X333161Y234655D01*
X333093Y234645D01*
X333015Y234635D01*
X332917Y234625D01*
X332820Y234616D01*
X332722D01*
X332625Y234606D01*
X332791Y235992D01*
X332800Y236002D01*
X332839Y236021D01*
X332888Y236050D01*
X332957Y236099D01*
X333044Y236158D01*
X333142Y236216D01*
X333249Y236294D01*
X333376Y236372D01*
X333640Y236558D01*
X333923Y236763D01*
X334206Y236968D01*
X334479Y237183D01*
X332966Y237153D01*
X333074Y238773D01*
X333152D01*
X333210Y238783D01*
X333366D01*
X333562Y238793D01*
X333786Y238803D01*
X334011D01*
X334235Y238812D01*
X334450Y238822D01*
X334499D01*
X334538Y238832D01*
X334635D01*
X334752Y238842D01*
X334889D01*
X335026Y238851D01*
X335162Y238861D01*
X335348D01*
X335406Y238871D01*
X335484D01*
X335582Y238881D01*
X335689Y238891D01*
X335904Y238900D01*
X335982D01*
X336070Y238910D01*
X336324D01*
X336470Y238920D01*
X336773D01*
X336548Y236919D01*
D02*
G37*
G36*
X356261Y358967D02*
X356355Y358956D01*
X356472Y358932D01*
X356589Y358909D01*
X356729Y358886D01*
X357022Y358780D01*
X357174Y358721D01*
X357327Y358640D01*
X357491Y358558D01*
X357655Y358440D01*
X357807Y358323D01*
X357959Y358183D01*
X357971Y358171D01*
X357994Y358148D01*
X358029Y358101D01*
X358088Y358042D01*
X358146Y357960D01*
X358217Y357878D01*
X358287Y357773D01*
X358357Y357656D01*
X358427Y357515D01*
X358509Y357375D01*
X358627Y357059D01*
X358685Y356883D01*
X358720Y356696D01*
X358744Y356508D01*
X358755Y356309D01*
Y356298D01*
Y356262D01*
Y356204D01*
X358744Y356134D01*
X358732Y356040D01*
X358708Y355923D01*
X358685Y355806D01*
X358662Y355677D01*
X358556Y355384D01*
X358498Y355220D01*
X358416Y355068D01*
X358334Y354904D01*
X358217Y354740D01*
X358100Y354588D01*
X357959Y354436D01*
X357947Y354424D01*
X357924Y354401D01*
X357877Y354365D01*
X357819Y354307D01*
X357736Y354248D01*
X357655Y354190D01*
X357549Y354108D01*
X357432Y354037D01*
X357292Y353967D01*
X357151Y353897D01*
X356835Y353768D01*
X356659Y353710D01*
X356472Y353675D01*
X356284Y353651D01*
X356085Y353639D01*
X355980D01*
X355910Y353651D01*
X355816Y353663D01*
X355699Y353686D01*
X355582Y353710D01*
X355453Y353745D01*
X355160Y353838D01*
X354996Y353897D01*
X354844Y353979D01*
X354680Y354073D01*
X354516Y354178D01*
X354364Y354295D01*
X354212Y354436D01*
X354200Y354447D01*
X354177Y354471D01*
X354141Y354518D01*
X354083Y354576D01*
X354024Y354658D01*
X353966Y354740D01*
X353884Y354845D01*
X353814Y354974D01*
X353743Y355103D01*
X353673Y355244D01*
X353544Y355560D01*
X353486Y355735D01*
X353451Y355923D01*
X353427Y356110D01*
X353415Y356309D01*
Y356321D01*
Y356356D01*
Y356415D01*
X353427Y356485D01*
X353439Y356579D01*
X353462Y356696D01*
X353486Y356813D01*
X353521Y356953D01*
X353615Y357246D01*
X353673Y357398D01*
X353755Y357551D01*
X353849Y357715D01*
X353954Y357878D01*
X354071Y358031D01*
X354212Y358183D01*
X354223Y358195D01*
X354247Y358218D01*
X354294Y358253D01*
X354352Y358312D01*
X354434Y358370D01*
X354516Y358440D01*
X354622Y358511D01*
X354750Y358581D01*
X354879Y358651D01*
X355020Y358733D01*
X355336Y358850D01*
X355512Y358909D01*
X355699Y358944D01*
X355886Y358967D01*
X356085Y358979D01*
X356191D01*
X356261Y358967D01*
D02*
G37*
%LPC*%
G36*
X338099Y358651D02*
X338005D01*
X337947Y358640D01*
X337865Y358628D01*
X337771Y358616D01*
X337548Y358569D01*
X337291Y358476D01*
X337150Y358429D01*
X337010Y358359D01*
X336869Y358277D01*
X336729Y358183D01*
X336588Y358078D01*
X336459Y357949D01*
X336448Y357937D01*
X336424Y357913D01*
X336389Y357878D01*
X336354Y357820D01*
X336296Y357761D01*
X336237Y357679D01*
X336178Y357586D01*
X336108Y357480D01*
X335979Y357234D01*
X335862Y356965D01*
X335827Y356813D01*
X335792Y356649D01*
X335769Y356485D01*
X335757Y356309D01*
X338099D01*
Y358651D01*
D02*
G37*
G36*
X356085D02*
X355992D01*
X355933Y358640D01*
X355851Y358628D01*
X355757Y358616D01*
X355535Y358569D01*
X355277Y358476D01*
X355137Y358429D01*
X354996Y358359D01*
X354856Y358277D01*
X354715Y358183D01*
X354575Y358078D01*
X354446Y357949D01*
X354434Y357937D01*
X354411Y357913D01*
X354376Y357878D01*
X354341Y357820D01*
X354282Y357761D01*
X354223Y357679D01*
X354165Y357586D01*
X354095Y357480D01*
X353966Y357234D01*
X353849Y356965D01*
X353814Y356813D01*
X353779Y356649D01*
X353755Y356485D01*
X353743Y356309D01*
X356085D01*
Y358651D01*
D02*
G37*
G36*
X255298Y365315D02*
X255282D01*
X255220Y365299D01*
X255126Y365268D01*
X255017Y365237D01*
X254876Y365206D01*
X254720Y365143D01*
X254377Y365034D01*
X254033Y364877D01*
X253877Y364799D01*
X253736Y364706D01*
X253627Y364612D01*
X253533Y364518D01*
X253470Y364409D01*
X253455Y364300D01*
Y364268D01*
X253470Y364206D01*
X253502Y364112D01*
X253564Y363987D01*
X253689Y363862D01*
X253752Y363815D01*
X253845Y363753D01*
X253955Y363706D01*
X254080Y363659D01*
X254220Y363612D01*
X254392Y363581D01*
X254408D01*
X254423Y363565D01*
X254533Y363550D01*
X254658Y363534D01*
X254970D01*
Y363565D01*
X254986Y363644D01*
X255001Y363768D01*
X255032Y363925D01*
Y363940D01*
Y363956D01*
X255048Y364003D01*
Y364065D01*
X255079Y364221D01*
X255111Y364393D01*
Y364409D01*
Y364440D01*
X255126Y364487D01*
X255142Y364534D01*
X255173Y364690D01*
X255220Y364877D01*
Y364893D01*
Y364924D01*
X255236Y364955D01*
X255251Y365018D01*
X255267Y365159D01*
X255298Y365315D01*
D02*
G37*
G36*
X241459Y366002D02*
X241427D01*
X241349Y365986D01*
X241224Y365940D01*
X241053Y365877D01*
X240834Y365783D01*
X240584Y365658D01*
X240287Y365487D01*
X239975Y365252D01*
X239959Y365237D01*
X239928Y365221D01*
X239897Y365190D01*
X239834Y365127D01*
X239678Y365002D01*
X239506Y364846D01*
X239350Y364659D01*
X239194Y364471D01*
X239131Y364378D01*
X239100Y364268D01*
X239069Y364190D01*
X239053Y364096D01*
Y364081D01*
X239069Y364034D01*
X239100Y363956D01*
X239147Y363878D01*
X239256Y363784D01*
X239397Y363706D01*
X239491Y363675D01*
X239600Y363644D01*
X239725Y363628D01*
X239865Y363612D01*
X239959D01*
X240006Y363597D01*
X240334D01*
X240974Y363612D01*
X241459Y366002D01*
D02*
G37*
G36*
X256048Y369532D02*
X256032D01*
X255985Y369517D01*
X255923D01*
X255829Y369501D01*
X255720Y369470D01*
X255595Y369454D01*
X255314Y369376D01*
X255001Y369282D01*
X254689Y369142D01*
X254408Y368986D01*
X254283Y368892D01*
X254173Y368782D01*
X254158Y368767D01*
X254142Y368736D01*
X254095Y368673D01*
X254048Y368611D01*
X253970Y368423D01*
X253955Y368314D01*
X253939Y368189D01*
Y368173D01*
Y368142D01*
Y368079D01*
X253955Y368001D01*
X254002Y367845D01*
X254080Y367689D01*
Y367673D01*
X254111Y367658D01*
X254173Y367580D01*
X254283Y367470D01*
X254439Y367377D01*
X254455Y367361D01*
X254517Y367345D01*
X254611Y367299D01*
X254720Y367252D01*
X254861Y367220D01*
X255032Y367174D01*
X255204Y367158D01*
X255392Y367142D01*
X255564D01*
X255642Y367158D01*
Y367174D01*
X255657Y367220D01*
Y367299D01*
X255673Y367377D01*
X255720Y367595D01*
X255751Y367814D01*
Y367830D01*
Y367861D01*
X255767Y367908D01*
X255782Y367986D01*
X255814Y368142D01*
X255845Y368345D01*
Y368361D01*
Y368392D01*
X255860Y368439D01*
X255876Y368501D01*
X255907Y368673D01*
X255954Y368876D01*
Y368892D01*
Y368923D01*
X255970Y368986D01*
X255985Y369064D01*
X256001Y369157D01*
X256017Y369267D01*
X256048Y369532D01*
D02*
G37*
G36*
X235625Y237297D02*
Y237278D01*
X235616Y237239D01*
X235606Y237171D01*
X235586Y237073D01*
X235567Y236956D01*
X235538Y236819D01*
X235508Y236673D01*
X235479Y236497D01*
X235450Y236321D01*
X235411Y236136D01*
X235342Y235736D01*
X235264Y235336D01*
X235186Y234935D01*
X235206Y234945D01*
X235245Y234955D01*
X235303Y234984D01*
X235391Y235033D01*
X235479Y235101D01*
X235586Y235199D01*
X235694Y235316D01*
X235801Y235472D01*
Y235482D01*
X235811Y235492D01*
X235830Y235521D01*
X235850Y235560D01*
X235899Y235658D01*
X235957Y235794D01*
X236016Y235960D01*
X236065Y236146D01*
X236104Y236361D01*
X236113Y236585D01*
Y236604D01*
Y236644D01*
X236104Y236702D01*
X236094Y236780D01*
X236074Y236868D01*
X236045Y236956D01*
X236006Y237044D01*
X235957Y237112D01*
X235947Y237122D01*
X235928Y237141D01*
X235899Y237171D01*
X235860Y237210D01*
X235752Y237268D01*
X235694Y237288D01*
X235625Y237297D01*
D02*
G37*
G36*
X249241Y236556D02*
X249182D01*
X249143Y236546D01*
X249036Y236526D01*
X248899Y236487D01*
X248743Y236419D01*
X248665Y236380D01*
X248577Y236321D01*
X248489Y236253D01*
X248401Y236185D01*
X248313Y236097D01*
X248226Y235999D01*
X248206Y235980D01*
X248196Y235951D01*
X248167Y235921D01*
X248099Y235824D01*
X248021Y235687D01*
X247923Y235511D01*
X247816Y235306D01*
X247708Y235072D01*
X247611Y234799D01*
Y234789D01*
X247601Y234770D01*
X247591Y234740D01*
X247581Y234692D01*
X247562Y234633D01*
X247552Y234574D01*
X247513Y234418D01*
X247474Y234243D01*
X247445Y234038D01*
X247425Y233833D01*
X247415Y233628D01*
Y233608D01*
X247425Y233569D01*
X247435Y233501D01*
X247455Y233423D01*
X247494Y233325D01*
X247552Y233237D01*
X247621Y233149D01*
X247728Y233071D01*
X247747Y233062D01*
X247786Y233042D01*
X247855Y233023D01*
X247933Y233013D01*
X248001D01*
X248079Y233032D01*
X248187Y233052D01*
X248294Y233081D01*
X248421Y233130D01*
X248548Y233198D01*
X248675Y233296D01*
X248694Y233306D01*
X248733Y233345D01*
X248792Y233413D01*
X248870Y233491D01*
X248958Y233598D01*
X249045Y233716D01*
X249133Y233862D01*
X249221Y234008D01*
Y234018D01*
X249231Y234028D01*
X249260Y234086D01*
X249299Y234165D01*
X249348Y234282D01*
X249407Y234408D01*
X249465Y234565D01*
X249514Y234731D01*
X249563Y234906D01*
Y234916D01*
X249572Y234926D01*
X249582Y234984D01*
X249602Y235082D01*
X249621Y235199D01*
X249641Y235336D01*
X249660Y235492D01*
X249680Y235638D01*
Y235794D01*
Y235804D01*
Y235824D01*
Y235863D01*
X249670Y235911D01*
X249660Y236038D01*
X249621Y236175D01*
X249572Y236312D01*
X249494Y236439D01*
X249446Y236487D01*
X249387Y236526D01*
X249319Y236546D01*
X249241Y236556D01*
D02*
G37*
G36*
X342924Y297572D02*
X342659D01*
X342581Y297556D01*
X342471Y297541D01*
X342346Y297494D01*
X342221Y297447D01*
X342096Y297369D01*
X341971Y297260D01*
X341956Y297244D01*
X341925Y297197D01*
X341862Y297119D01*
X341800Y297025D01*
X341753Y296885D01*
X341690Y296713D01*
X341659Y296526D01*
X341644Y296291D01*
X341659D01*
X341706Y296276D01*
X341768Y296260D01*
X341862Y296244D01*
X341987Y296229D01*
X342128Y296198D01*
X342284Y296166D01*
X342456Y296119D01*
X342659Y296088D01*
X342862Y296041D01*
X343330Y295948D01*
X343830Y295838D01*
X344361Y295713D01*
X344393D01*
X344471Y295682D01*
X344596Y295666D01*
X344783Y295620D01*
X344986Y295573D01*
X345236Y295526D01*
X345517Y295463D01*
X345830Y295401D01*
X346158Y295338D01*
X346501Y295260D01*
X347220Y295120D01*
X347970Y294995D01*
X348688Y294870D01*
X348673Y294885D01*
X348657Y294917D01*
X348610Y294964D01*
X348548Y295042D01*
X348469Y295135D01*
X348376Y295245D01*
X348251Y295354D01*
X348095Y295495D01*
X347923Y295635D01*
X347735Y295776D01*
X347501Y295932D01*
X347251Y296104D01*
X346970Y296260D01*
X346657Y296432D01*
X346314Y296588D01*
X345939Y296760D01*
X345923D01*
X345892Y296775D01*
X345830Y296807D01*
X345752Y296838D01*
X345642Y296885D01*
X345533Y296916D01*
X345267Y297025D01*
X344955Y297135D01*
X344627Y297228D01*
X344299Y297322D01*
X343987Y297400D01*
X343971D01*
X343955Y297416D01*
X343862Y297431D01*
X343705Y297463D01*
X343533Y297494D01*
X343330Y297525D01*
X343127Y297541D01*
X342924Y297572D01*
D02*
G37*
G36*
Y247826D02*
X342659D01*
X342581Y247811D01*
X342471Y247795D01*
X342346Y247748D01*
X342221Y247702D01*
X342096Y247623D01*
X341971Y247514D01*
X341956Y247498D01*
X341925Y247451D01*
X341862Y247373D01*
X341800Y247280D01*
X341753Y247139D01*
X341690Y246967D01*
X341659Y246780D01*
X341644Y246546D01*
X341659D01*
X341706Y246530D01*
X341768Y246514D01*
X341862Y246499D01*
X341987Y246483D01*
X342128Y246452D01*
X342284Y246421D01*
X342456Y246374D01*
X342659Y246342D01*
X342862Y246296D01*
X343330Y246202D01*
X343830Y246093D01*
X344361Y245968D01*
X344393D01*
X344471Y245936D01*
X344596Y245921D01*
X344783Y245874D01*
X344986Y245827D01*
X345236Y245780D01*
X345517Y245718D01*
X345830Y245655D01*
X346158Y245593D01*
X346501Y245515D01*
X347220Y245374D01*
X347970Y245249D01*
X348688Y245124D01*
X348673Y245140D01*
X348657Y245171D01*
X348610Y245218D01*
X348548Y245296D01*
X348469Y245390D01*
X348376Y245499D01*
X348251Y245608D01*
X348095Y245749D01*
X347923Y245889D01*
X347735Y246030D01*
X347501Y246186D01*
X347251Y246358D01*
X346970Y246514D01*
X346657Y246686D01*
X346314Y246842D01*
X345939Y247014D01*
X345923D01*
X345892Y247030D01*
X345830Y247061D01*
X345752Y247092D01*
X345642Y247139D01*
X345533Y247170D01*
X345267Y247280D01*
X344955Y247389D01*
X344627Y247483D01*
X344299Y247576D01*
X343987Y247655D01*
X343971D01*
X343955Y247670D01*
X343862Y247686D01*
X343705Y247717D01*
X343533Y247748D01*
X343330Y247780D01*
X343127Y247795D01*
X342924Y247826D01*
D02*
G37*
G36*
Y269326D02*
X342659D01*
X342581Y269311D01*
X342471Y269295D01*
X342346Y269248D01*
X342221Y269201D01*
X342096Y269123D01*
X341971Y269014D01*
X341956Y268998D01*
X341925Y268952D01*
X341862Y268873D01*
X341800Y268780D01*
X341753Y268639D01*
X341690Y268467D01*
X341659Y268280D01*
X341644Y268046D01*
X341659D01*
X341706Y268030D01*
X341768Y268014D01*
X341862Y267999D01*
X341987Y267983D01*
X342128Y267952D01*
X342284Y267921D01*
X342456Y267874D01*
X342659Y267843D01*
X342862Y267796D01*
X343330Y267702D01*
X343830Y267593D01*
X344361Y267468D01*
X344393D01*
X344471Y267436D01*
X344596Y267421D01*
X344783Y267374D01*
X344986Y267327D01*
X345236Y267280D01*
X345517Y267218D01*
X345830Y267155D01*
X346158Y267093D01*
X346501Y267015D01*
X347220Y266874D01*
X347970Y266749D01*
X348688Y266624D01*
X348673Y266640D01*
X348657Y266671D01*
X348610Y266718D01*
X348548Y266796D01*
X348469Y266890D01*
X348376Y266999D01*
X348251Y267108D01*
X348095Y267249D01*
X347923Y267389D01*
X347735Y267530D01*
X347501Y267686D01*
X347251Y267858D01*
X346970Y268014D01*
X346657Y268186D01*
X346314Y268342D01*
X345939Y268514D01*
X345923D01*
X345892Y268530D01*
X345830Y268561D01*
X345752Y268592D01*
X345642Y268639D01*
X345533Y268670D01*
X345267Y268780D01*
X344955Y268889D01*
X344627Y268983D01*
X344299Y269076D01*
X343987Y269155D01*
X343971D01*
X343955Y269170D01*
X343862Y269186D01*
X343705Y269217D01*
X343533Y269248D01*
X343330Y269280D01*
X343127Y269295D01*
X342924Y269326D01*
D02*
G37*
%LPD*%
D23*
X369000Y360500D02*
X373415Y352221D01*
X320500Y352500D02*
X324915Y360778D01*
X290450Y326250D02*
X296550D01*
X290450Y340750D02*
X296550D01*
X352752Y239630D02*
X384248D01*
X352752Y318370D02*
X384248D01*
Y239630D02*
Y318370D01*
X352752Y239630D02*
Y318370D01*
X308100Y326400D02*
Y332398D01*
X311099D01*
X312099Y331398D01*
Y329399D01*
X311099Y328399D01*
X308100D01*
X318097Y332398D02*
X316097Y331398D01*
X314098Y329399D01*
Y327400D01*
X315098Y326400D01*
X317097D01*
X318097Y327400D01*
Y328399D01*
X317097Y329399D01*
X314098D01*
X266193Y294256D02*
Y297255D01*
X267692D01*
X268192Y296755D01*
Y295755D01*
X267692Y295256D01*
X266193D01*
X267193D02*
X268192Y294256D01*
X269192D02*
X270192D01*
X269692D01*
Y297255D01*
X269192Y296755D01*
X273691Y297255D02*
X272691Y296755D01*
X271691Y295755D01*
Y294756D01*
X272191Y294256D01*
X273191D01*
X273691Y294756D01*
Y295256D01*
X273191Y295755D01*
X271691D01*
X304000Y262500D02*
Y265499D01*
X305500D01*
X305999Y264999D01*
Y264000D01*
X305500Y263500D01*
X304000D01*
X305000D02*
X305999Y262500D01*
X306999D02*
X307999D01*
X307499D01*
Y265499D01*
X306999Y264999D01*
X310998Y262500D02*
Y265499D01*
X309498Y264000D01*
X311498D01*
X257000Y241000D02*
Y243999D01*
X258500D01*
X258999Y243499D01*
Y242499D01*
X258500Y242000D01*
X257000D01*
X258000D02*
X258999Y241000D01*
X259999D02*
X260999D01*
X260499D01*
Y243999D01*
X259999Y243499D01*
X264498Y241000D02*
X262498D01*
X264498Y242999D01*
Y243499D01*
X263998Y243999D01*
X262998D01*
X262498Y243499D01*
X294000Y291000D02*
Y293999D01*
X295499D01*
X295999Y293499D01*
Y292499D01*
X295499Y292000D01*
X294000D01*
X295000D02*
X295999Y291000D01*
X296999D02*
X297999D01*
X297499D01*
Y293999D01*
X296999Y293499D01*
X301498Y293999D02*
X299498D01*
Y292499D01*
X300498Y292999D01*
X300998D01*
X301498Y292499D01*
Y291500D01*
X300998Y291000D01*
X299998D01*
X299498Y291500D01*
X304500Y243500D02*
Y246499D01*
X305999D01*
X306499Y245999D01*
Y245000D01*
X305999Y244500D01*
X304500D01*
X305500D02*
X306499Y243500D01*
X307499D02*
X308499D01*
X307999D01*
Y246499D01*
X307499Y245999D01*
X309998D02*
X310498Y246499D01*
X311498D01*
X311998Y245999D01*
Y245499D01*
X311498Y245000D01*
X310998D01*
X311498D01*
X311998Y244500D01*
Y244000D01*
X311498Y243500D01*
X310498D01*
X309998Y244000D01*
X263998Y258500D02*
Y261499D01*
X265498D01*
X265998Y260999D01*
Y259999D01*
X265498Y259500D01*
X263998D01*
X264998D02*
X265998Y258500D01*
X266997D02*
X267997D01*
X267497D01*
Y261499D01*
X266997Y260999D01*
X269497Y258500D02*
X270496D01*
X269996D01*
Y261499D01*
X269497Y260999D01*
X326999Y268499D02*
X326500Y268999D01*
X325500D01*
X325000Y268499D01*
Y266500D01*
X325500Y266000D01*
X326500D01*
X326999Y266500D01*
X327999Y266000D02*
X328999D01*
X328499D01*
Y268999D01*
X327999Y268499D01*
X332498Y268999D02*
X330498D01*
Y267499D01*
X331498Y267999D01*
X331998D01*
X332498Y267499D01*
Y266500D01*
X331998Y266000D01*
X330998D01*
X330498Y266500D01*
X315501Y286999D02*
X315001Y286500D01*
Y285500D01*
X315501Y285000D01*
X317500D01*
X318000Y285500D01*
Y286500D01*
X317500Y286999D01*
X318000Y287999D02*
Y288999D01*
Y288499D01*
X315001D01*
X315501Y287999D01*
X315001Y292498D02*
X315501Y291498D01*
X316500Y290498D01*
X317500D01*
X318000Y290998D01*
Y291998D01*
X317500Y292498D01*
X317000D01*
X316500Y291998D01*
Y290498D01*
X318999Y244499D02*
X318499Y244999D01*
X317500D01*
X317000Y244499D01*
Y242500D01*
X317500Y242000D01*
X318499D01*
X318999Y242500D01*
X319999Y242000D02*
X320999D01*
X320499D01*
Y244999D01*
X319999Y244499D01*
X324498Y242000D02*
X322498D01*
X324498Y243999D01*
Y244499D01*
X323998Y244999D01*
X322998D01*
X322498Y244499D01*
X305999Y269499D02*
X305500Y269999D01*
X304500D01*
X304000Y269499D01*
Y267500D01*
X304500Y267000D01*
X305500D01*
X305999Y267500D01*
X306999Y267000D02*
X307999D01*
X307499D01*
Y269999D01*
X306999Y269499D01*
X309498D02*
X309998Y269999D01*
X310998D01*
X311498Y269499D01*
Y268999D01*
X310998Y268499D01*
X310498D01*
X310998D01*
X311498Y268000D01*
Y267500D01*
X310998Y267000D01*
X309998D01*
X309498Y267500D01*
X316999Y374999D02*
X316499Y375499D01*
X315500D01*
X315000Y374999D01*
Y373000D01*
X315500Y372500D01*
X316499D01*
X316999Y373000D01*
X317999Y372500D02*
X318999D01*
X318499D01*
Y375499D01*
X317999Y374999D01*
X333999Y298999D02*
X333500Y299499D01*
X332500D01*
X332000Y298999D01*
Y297000D01*
X332500Y296500D01*
X333500D01*
X333999Y297000D01*
X336998Y299499D02*
X335999Y298999D01*
X334999Y298000D01*
Y297000D01*
X335499Y296500D01*
X336498D01*
X336998Y297000D01*
Y297500D01*
X336498Y298000D01*
X334999D01*
X265499Y341499D02*
X265000Y341999D01*
X264000D01*
X263500Y341499D01*
Y339500D01*
X264000Y339000D01*
X265000D01*
X265499Y339500D01*
X266499Y339000D02*
X267499D01*
X266999D01*
Y341999D01*
X266499Y341499D01*
X268998D02*
X269498Y341999D01*
X270498D01*
X270998Y341499D01*
Y339500D01*
X270498Y339000D01*
X269498D01*
X268998Y339500D01*
Y341499D01*
X318499Y334501D02*
X318999Y335000D01*
Y336000D01*
X318499Y336500D01*
X316500D01*
X316000Y336000D01*
Y335000D01*
X316500Y334501D01*
Y333501D02*
X316000Y333001D01*
Y332001D01*
X316500Y331502D01*
X318499D01*
X318999Y332001D01*
Y333001D01*
X318499Y333501D01*
X317999D01*
X317499Y333001D01*
Y331502D01*
X258799Y280350D02*
X258299Y280849D01*
X257299D01*
X256799Y280350D01*
Y278350D01*
X257299Y277850D01*
X258299D01*
X258799Y278350D01*
X261298Y277850D02*
Y280849D01*
X259798Y279350D01*
X261798D01*
X258501Y330499D02*
X258001Y329999D01*
Y329000D01*
X258501Y328500D01*
X260500D01*
X261000Y329000D01*
Y329999D01*
X260500Y330499D01*
X261000Y331499D02*
Y332499D01*
Y331999D01*
X258001D01*
X258501Y331499D01*
X261000Y333998D02*
Y334998D01*
Y334498D01*
X258001D01*
X258501Y333998D01*
X236501Y353999D02*
X236001Y353500D01*
Y352500D01*
X236501Y352000D01*
X238500D01*
X239000Y352500D01*
Y353500D01*
X238500Y353999D01*
X239000Y354999D02*
Y355999D01*
Y355499D01*
X236001D01*
X236501Y354999D01*
X239000Y358998D02*
X236001D01*
X237501Y357498D01*
Y359498D01*
X340999Y323999D02*
X340499Y324499D01*
X339500D01*
X339000Y323999D01*
Y322000D01*
X339500Y321500D01*
X340499D01*
X340999Y322000D01*
X343998Y321500D02*
X341999D01*
X343998Y323499D01*
Y323999D01*
X343498Y324499D01*
X342499D01*
X341999Y323999D01*
X323999Y298999D02*
X323499Y299499D01*
X322500D01*
X322000Y298999D01*
Y297000D01*
X322500Y296500D01*
X323499D01*
X323999Y297000D01*
X324999Y298999D02*
X325499Y299499D01*
X326499D01*
X326998Y298999D01*
Y298499D01*
X326499Y298000D01*
X325999D01*
X326499D01*
X326998Y297500D01*
Y297000D01*
X326499Y296500D01*
X325499D01*
X324999Y297000D01*
X259999Y261999D02*
X259500Y262499D01*
X258500D01*
X258000Y261999D01*
Y260000D01*
X258500Y259500D01*
X259500D01*
X259999Y260000D01*
X260999Y262499D02*
X262998D01*
Y261999D01*
X260999Y260000D01*
Y259500D01*
X237999Y255499D02*
X237499Y255999D01*
X236500D01*
X236000Y255499D01*
Y253500D01*
X236500Y253000D01*
X237499D01*
X237999Y253500D01*
X238999Y255499D02*
X239499Y255999D01*
X240498D01*
X240998Y255499D01*
Y254999D01*
X240498Y254500D01*
X240998Y254000D01*
Y253500D01*
X240498Y253000D01*
X239499D01*
X238999Y253500D01*
Y254000D01*
X239499Y254500D01*
X238999Y254999D01*
Y255499D01*
X239499Y254500D02*
X240498D01*
X258999Y287999D02*
X258500Y288499D01*
X257500D01*
X257000Y287999D01*
Y286000D01*
X257500Y285500D01*
X258500D01*
X258999Y286000D01*
X259999Y285500D02*
X260999D01*
X260499D01*
Y288499D01*
X259999Y287999D01*
X262498Y288499D02*
X264498D01*
Y287999D01*
X262498Y286000D01*
Y285500D01*
X365000Y238499D02*
Y235500D01*
X366499D01*
X366999Y236000D01*
Y237999D01*
X366499Y238499D01*
X365000D01*
X369998Y237999D02*
X369498Y238499D01*
X368499D01*
X367999Y237999D01*
Y237499D01*
X368499Y237000D01*
X369498D01*
X369998Y236500D01*
Y236000D01*
X369498Y235500D01*
X368499D01*
X367999Y236000D01*
X372997Y235500D02*
X370998D01*
X372997Y237499D01*
Y237999D01*
X372498Y238499D01*
X371498D01*
X370998Y237999D01*
X234000Y310999D02*
Y308000D01*
X235500D01*
X235999Y308500D01*
Y310499D01*
X235500Y310999D01*
X234000D01*
X238998Y310499D02*
X238498Y310999D01*
X237499D01*
X236999Y310499D01*
Y309999D01*
X237499Y309500D01*
X238498D01*
X238998Y309000D01*
Y308500D01*
X238498Y308000D01*
X237499D01*
X236999Y308500D01*
X239998Y308000D02*
X240998D01*
X240498D01*
Y310999D01*
X239998Y310499D01*
X283000Y242500D02*
Y245499D01*
X284500D01*
X284999Y244999D01*
Y244000D01*
X284500Y243500D01*
X283000D01*
X287498Y242500D02*
Y245499D01*
X285999Y244000D01*
X287998D01*
X326500Y241500D02*
Y244499D01*
X327999D01*
X328499Y243999D01*
Y243000D01*
X327999Y242500D01*
X326500D01*
X329499Y243999D02*
X329999Y244499D01*
X330998D01*
X331498Y243999D01*
Y243499D01*
X330998Y243000D01*
X330499D01*
X330998D01*
X331498Y242500D01*
Y242000D01*
X330998Y241500D01*
X329999D01*
X329499Y242000D01*
X304000Y371500D02*
Y374499D01*
X305500D01*
X305999Y373999D01*
Y373000D01*
X305500Y372500D01*
X304000D01*
X306999Y371500D02*
X307999D01*
X307499D01*
Y374499D01*
X306999Y373999D01*
X271000Y241500D02*
Y244499D01*
X272499D01*
X272999Y243999D01*
Y243000D01*
X272499Y242500D01*
X271000D01*
X275998Y241500D02*
X273999D01*
X275998Y243499D01*
Y243999D01*
X275499Y244499D01*
X274499D01*
X273999Y243999D01*
X303999Y358500D02*
Y360499D01*
X303500Y360999D01*
X302500D01*
X302000Y360499D01*
Y358500D01*
X302500Y358000D01*
X303500D01*
X303000Y359000D02*
X303999Y358000D01*
X303500D02*
X303999Y358500D01*
X304999Y360499D02*
X305499Y360999D01*
X306499D01*
X306998Y360499D01*
Y359999D01*
X306499Y359500D01*
X305999D01*
X306499D01*
X306998Y359000D01*
Y358500D01*
X306499Y358000D01*
X305499D01*
X304999Y358500D01*
X288499D02*
Y360499D01*
X288000Y360999D01*
X287000D01*
X286500Y360499D01*
Y358500D01*
X287000Y358000D01*
X288000D01*
X287500Y359000D02*
X288499Y358000D01*
X288000D02*
X288499Y358500D01*
X291498Y358000D02*
X289499D01*
X291498Y359999D01*
Y360499D01*
X290999Y360999D01*
X289999D01*
X289499Y360499D01*
X273499Y358000D02*
Y359999D01*
X273000Y360499D01*
X272000D01*
X271500Y359999D01*
Y358000D01*
X272000Y357500D01*
X273000D01*
X272500Y358500D02*
X273499Y357500D01*
X273000D02*
X273499Y358000D01*
X274499Y357500D02*
X275499D01*
X274999D01*
Y360499D01*
X274499Y359999D01*
X324500Y286000D02*
Y288999D01*
X325999D01*
X326499Y288499D01*
Y287499D01*
X325999Y287000D01*
X324500D01*
X325500D02*
X326499Y286000D01*
X327499Y286500D02*
X327999Y286000D01*
X328998D01*
X329498Y286500D01*
Y288499D01*
X328998Y288999D01*
X327999D01*
X327499Y288499D01*
Y287999D01*
X327999Y287499D01*
X329498D01*
X310000Y286000D02*
X307001D01*
Y287499D01*
X307501Y287999D01*
X308501D01*
X309000Y287499D01*
Y286000D01*
Y287000D02*
X310000Y287999D01*
Y288999D02*
Y289999D01*
Y289499D01*
X307001D01*
X307501Y288999D01*
Y291498D02*
X307001Y291998D01*
Y292998D01*
X307501Y293498D01*
X309500D01*
X310000Y292998D01*
Y291998D01*
X309500Y291498D01*
X307501D01*
X337000Y249000D02*
X334001D01*
Y250500D01*
X334501Y250999D01*
X335501D01*
X336000Y250500D01*
Y249000D01*
Y250000D02*
X337000Y250999D01*
X334001Y251999D02*
Y253998D01*
X334501D01*
X336500Y251999D01*
X337000D01*
X326000Y259000D02*
Y261999D01*
X327500D01*
X327999Y261499D01*
Y260500D01*
X327500Y260000D01*
X326000D01*
X327000D02*
X327999Y259000D01*
X328999Y261499D02*
X329499Y261999D01*
X330499D01*
X330998Y261499D01*
Y260999D01*
X330499Y260500D01*
X330998Y260000D01*
Y259500D01*
X330499Y259000D01*
X329499D01*
X328999Y259500D01*
Y260000D01*
X329499Y260500D01*
X328999Y260999D01*
Y261499D01*
X329499Y260500D02*
X330499D01*
X346000Y229000D02*
X343001D01*
Y230500D01*
X343501Y230999D01*
X344500D01*
X345000Y230500D01*
Y229000D01*
Y230000D02*
X346000Y230999D01*
Y233499D02*
X343001D01*
X344500Y231999D01*
Y233998D01*
X241000Y291000D02*
Y293999D01*
X242499D01*
X242999Y293499D01*
Y292499D01*
X242499Y292000D01*
X241000D01*
X242000D02*
X242999Y291000D01*
X243999Y293499D02*
X244499Y293999D01*
X245498D01*
X245998Y293499D01*
Y292999D01*
X245498Y292499D01*
X244999D01*
X245498D01*
X245998Y292000D01*
Y291500D01*
X245498Y291000D01*
X244499D01*
X243999Y291500D01*
X248000Y241000D02*
Y243999D01*
X249500D01*
X249999Y243499D01*
Y242499D01*
X249500Y242000D01*
X248000D01*
X249000D02*
X249999Y241000D01*
X252998Y243999D02*
X250999D01*
Y242499D01*
X251999Y242999D01*
X252499D01*
X252998Y242499D01*
Y241500D01*
X252499Y241000D01*
X251499D01*
X250999Y241500D01*
X238000Y265000D02*
X235001D01*
Y266499D01*
X235501Y266999D01*
X236501D01*
X237000Y266499D01*
Y265000D01*
Y266000D02*
X238000Y266999D01*
X235001Y269998D02*
X235501Y268999D01*
X236501Y267999D01*
X237500D01*
X238000Y268499D01*
Y269498D01*
X237500Y269998D01*
X237000D01*
X236501Y269498D01*
Y267999D01*
X265000Y278500D02*
Y281499D01*
X266499D01*
X266999Y280999D01*
Y279999D01*
X266499Y279500D01*
X265000D01*
X266000D02*
X266999Y278500D01*
X267999D02*
X268999D01*
X268499D01*
Y281499D01*
X267999Y280999D01*
X238000Y275000D02*
X235001D01*
Y276500D01*
X235501Y276999D01*
X236501D01*
X237000Y276500D01*
Y275000D01*
Y276000D02*
X238000Y276999D01*
Y279998D02*
Y277999D01*
X236001Y279998D01*
X235501D01*
X235001Y279499D01*
Y278499D01*
X235501Y277999D01*
X276000Y247999D02*
Y245500D01*
X276500Y245000D01*
X277500D01*
X277999Y245500D01*
Y247999D01*
X280998Y245000D02*
X278999D01*
X280998Y246999D01*
Y247499D01*
X280499Y247999D01*
X279499D01*
X278999Y247499D01*
X325276Y327999D02*
Y325500D01*
X325775Y325000D01*
X326775D01*
X327275Y325500D01*
Y327999D01*
X328275Y325000D02*
X329274D01*
X328774D01*
Y327999D01*
X328275Y327499D01*
X258001Y320500D02*
X260500D01*
X261000Y321000D01*
Y322000D01*
X260500Y322499D01*
X258001D01*
X261000Y324998D02*
X258001D01*
X259501Y323499D01*
Y325498D01*
X262501Y308500D02*
X265000D01*
X265500Y309000D01*
Y309999D01*
X265000Y310499D01*
X262501D01*
X263001Y311499D02*
X262501Y311999D01*
Y312999D01*
X263001Y313498D01*
X263501D01*
X264001Y312999D01*
Y312499D01*
Y312999D01*
X264500Y313498D01*
X265000D01*
X265500Y312999D01*
Y311999D01*
X265000Y311499D01*
X307500Y344999D02*
Y344499D01*
X308500Y343499D01*
X309499Y344499D01*
Y344999D01*
X308500Y343499D02*
Y342000D01*
X310499D02*
X311499D01*
X310999D01*
Y344999D01*
X310499Y344499D01*
X259349Y304248D02*
X258349Y305248D01*
X256350D01*
X255350Y304248D01*
Y300250D01*
X256350Y299250D01*
X258349D01*
X259349Y300250D01*
X265347Y305248D02*
X261348D01*
Y302249D01*
X263347Y303249D01*
X264347D01*
X265347Y302249D01*
Y300250D01*
X264347Y299250D01*
X262348D01*
X261348Y300250D01*
X383500Y231500D02*
X379501D01*
Y233499D01*
X380168Y234166D01*
X381501D01*
X382167Y233499D01*
Y231500D01*
X379501Y238164D02*
Y235499D01*
X381501D01*
X380834Y236832D01*
Y237498D01*
X381501Y238164D01*
X382834D01*
X383500Y237498D01*
Y236165D01*
X382834Y235499D01*
D36*
X277346Y286043D02*
G03*
X277346Y286043I-492J0D01*
G01*
X235646Y319551D02*
G03*
X235646Y319551I-492J0D01*
G01*
X271272Y324870D02*
G03*
X271272Y324870I-492J0D01*
G01*
X325768Y322185D02*
G03*
X325768Y322185I-492J0D01*
G01*
D37*
X240094Y328606D02*
G03*
X240094Y328606I-787J0D01*
G01*
D38*
X280819Y319555D02*
G03*
X280819Y319555I-1181J0D01*
G01*
D39*
X234900Y306684D02*
G03*
X234050Y305834I0J-850D01*
G01*
X239950D02*
G03*
X239100Y306684I-850J0D01*
G01*
X234050Y294922D02*
G03*
X234900Y294072I850J0D01*
G01*
X239100D02*
G03*
X239950Y294922I0J850D01*
G01*
X377806Y233100D02*
G03*
X376956Y233950I-850J0D01*
G01*
Y228050D02*
G03*
X377806Y228900I0J850D01*
G01*
X366044Y233950D02*
G03*
X365194Y233100I0J-850D01*
G01*
Y228900D02*
G03*
X366044Y228050I850J0D01*
G01*
X234050Y294922D02*
Y305834D01*
X239950Y294922D02*
Y305834D01*
X234900Y306684D02*
X239100D01*
X234900Y294072D02*
X239100D01*
X377806Y228900D02*
Y233100D01*
X365194Y228900D02*
Y233100D01*
X366044Y233950D02*
X376956D01*
X366044Y228050D02*
X376956D01*
D40*
X377000Y356500D02*
G03*
X377000Y356500I-30000J0D01*
G01*
X317500Y293000D02*
Y323000D01*
X307500D02*
X317500D01*
X307500Y293000D02*
Y323000D01*
Y293000D02*
X317500D01*
X272803Y288138D02*
X273197D01*
X272803Y292862D02*
X273197D01*
X286303Y288138D02*
X286697D01*
X286303Y292862D02*
X286697D01*
X310362Y254803D02*
Y255197D01*
X305638Y254803D02*
Y255197D01*
X297303Y247362D02*
X297697D01*
X297303Y242638D02*
X297697D01*
X262362Y251303D02*
Y251697D01*
X257638Y251303D02*
Y251697D01*
X265138Y250957D02*
Y251350D01*
X269862Y250957D02*
Y251350D01*
X305638Y277303D02*
Y277697D01*
X310362Y277303D02*
Y277697D01*
X327803Y278638D02*
X328197D01*
X327803Y283362D02*
X328197D01*
X317803Y259862D02*
X318197D01*
X317803Y255138D02*
X318197D01*
X327138Y251303D02*
Y251697D01*
X331862Y251303D02*
Y251697D01*
X240638Y266803D02*
Y267197D01*
X245362Y266803D02*
Y267197D01*
X248803Y250862D02*
X249197D01*
X248803Y246138D02*
X249197D01*
X353803Y233362D02*
X354197D01*
X353803Y228638D02*
X354197D01*
X242648Y301476D02*
Y301870D01*
X247373Y301476D02*
Y301870D01*
X245362Y279803D02*
Y280197D01*
X240638Y279803D02*
Y280197D01*
X265138Y270803D02*
Y271197D01*
X269862Y270803D02*
Y271197D01*
X283350Y250374D02*
Y284626D01*
X289650Y250374D02*
Y284626D01*
X283350D02*
X289650D01*
X283350Y250374D02*
X289650D01*
X255842Y325457D02*
Y332543D01*
X236157Y325457D02*
Y332543D01*
X255842D01*
X236157Y325457D02*
X255842D01*
X275701Y297508D02*
Y323492D01*
X288299Y297508D02*
Y323492D01*
X275701D02*
X288299D01*
X275701Y297508D02*
X288299D01*
X331378Y308898D02*
Y321102D01*
X328622Y308898D02*
Y321102D01*
Y308898D02*
X331378D01*
X328622Y321102D02*
X331378D01*
X303118Y350524D02*
Y356921D01*
X292882Y350524D02*
Y356921D01*
X294654D01*
X301346D02*
X303118D01*
X283500Y240500D02*
X303500D01*
X283500Y230500D02*
Y240500D01*
Y230500D02*
X303500D01*
Y240500D01*
X328803Y275264D02*
X329197D01*
X328803Y270736D02*
X329197D01*
X254264Y266803D02*
Y267197D01*
X249736Y266803D02*
Y267197D01*
X248803Y254736D02*
X249197D01*
X248803Y259264D02*
X249197D01*
X256000Y240500D02*
X276000D01*
X256000Y230500D02*
Y240500D01*
Y230500D02*
X276000D01*
Y240500D01*
X249736Y279803D02*
Y280197D01*
X254264Y279803D02*
Y280197D01*
X261264Y271303D02*
Y271697D01*
X256736Y271303D02*
Y271697D01*
X311000Y240500D02*
X331000D01*
X311000Y230500D02*
Y240500D01*
Y230500D02*
X331000D01*
Y240500D01*
X317803Y251264D02*
X318197D01*
X317803Y246736D02*
X318197D01*
X317803Y262736D02*
X318197D01*
X317803Y267264D02*
X318197D01*
X268264Y331303D02*
Y331697D01*
X263736Y331303D02*
Y331697D01*
X278264Y333803D02*
Y334197D01*
X273736Y333803D02*
Y334197D01*
X308736Y333803D02*
Y334197D01*
X313264Y333803D02*
Y334197D01*
X246303Y359264D02*
X246697D01*
X246303Y354736D02*
X246697D01*
X324303Y301736D02*
X324697D01*
X324303Y306264D02*
X324697D01*
X338803Y301736D02*
X339197D01*
X338803Y306264D02*
X339197D01*
X339087Y314803D02*
Y315197D01*
X343614Y314803D02*
Y315197D01*
X272618Y350524D02*
Y356921D01*
X262382Y350524D02*
Y356921D01*
X264154D01*
X270847D02*
X272618D01*
X287618Y350524D02*
Y356921D01*
X277382Y350524D02*
Y356921D01*
X279153D01*
X285846D02*
X287618D01*
X319264Y277303D02*
Y277697D01*
X314736Y277303D02*
Y277697D01*
X259803Y290736D02*
X260197D01*
X259803Y295264D02*
X260197D01*
X302500Y362500D02*
Y372500D01*
X262500Y362500D02*
X302500D01*
X262500Y372500D02*
X302500D01*
X262500Y362500D02*
Y372500D01*
D41*
X375548Y371500D02*
Y375436D01*
X373580Y373468D02*
X377516D01*
D42*
X234015Y294641D02*
D03*
D43*
X237000Y293512D02*
D03*
D44*
X240025Y294512D02*
D03*
D45*
X377366Y234025D02*
D03*
D46*
X378366Y231000D02*
D03*
D47*
X377237Y228015D02*
D03*
D48*
X381295Y279000D02*
D03*
M02*
