%FSLAX25Y25*%
%MOIN*%
G70*
G01*
G75*
G04 Layer_Color=32896*
%ADD10R,0.03740X0.05315*%
%ADD11R,0.05315X0.03740*%
%ADD12R,0.03543X0.03740*%
%ADD13R,0.03937X0.03937*%
%ADD14R,0.03937X0.03937*%
%ADD15R,0.03543X0.02559*%
%ADD16O,0.06693X0.01378*%
%ADD17R,0.06300X0.05500*%
%ADD18O,0.02362X0.08661*%
%ADD19O,0.09843X0.02756*%
%ADD20R,0.05512X0.04134*%
%ADD21R,0.04134X0.05512*%
%ADD22R,0.02000X0.02000*%
%ADD23C,0.01600*%
%ADD24C,0.01000*%
%ADD25C,0.02000*%
%ADD26C,0.03200*%
%ADD27C,0.02800*%
%ADD28O,0.09843X0.06693*%
%ADD29C,0.05906*%
%ADD30R,0.05906X0.05906*%
%ADD31R,0.07000X0.07000*%
%ADD32C,0.07000*%
%ADD33R,0.05906X0.05906*%
%ADD34C,0.02400*%
%ADD35C,0.03400*%
%ADD36C,0.05000*%
%ADD37R,0.02000X0.02000*%
%ADD38C,0.00787*%
%ADD39C,0.00800*%
%ADD40C,0.00984*%
%ADD41C,0.02362*%
%ADD42C,0.01575*%
%ADD43C,0.00591*%
%ADD44R,0.05906X0.78740*%
%ADD45R,0.02560X0.00730*%
%ADD46R,0.01800X0.06700*%
%ADD47R,0.02300X0.00650*%
%ADD48R,0.00650X0.02300*%
%ADD49R,0.06700X0.01800*%
%ADD50R,0.00730X0.02560*%
%ADD51R,0.04540X0.06115*%
%ADD52R,0.06115X0.04540*%
%ADD53R,0.04343X0.04540*%
%ADD54R,0.04343X0.03359*%
%ADD55O,0.07493X0.02178*%
%ADD56R,0.07100X0.06300*%
%ADD57O,0.03162X0.09461*%
%ADD58O,0.10642X0.03556*%
%ADD59R,0.06312X0.04934*%
%ADD60R,0.04934X0.06312*%
%ADD61R,0.02800X0.02800*%
%ADD62O,0.10642X0.07493*%
%ADD63C,0.06706*%
%ADD64R,0.06706X0.06706*%
%ADD65R,0.07800X0.07800*%
%ADD66C,0.07800*%
%ADD67R,0.06706X0.06706*%
%ADD68R,0.02800X0.02800*%
G36*
X313302Y251721D02*
X313577Y251677D01*
X313701Y251663D01*
X313824Y251641D01*
X313932Y251626D01*
X314034Y251605D01*
X314128Y251590D01*
X314215Y251576D01*
X314288Y251569D01*
X314346Y251561D01*
X314397Y251547D01*
X314433D01*
X314455Y251539D01*
X314462D01*
X314708Y251503D01*
X314948Y251460D01*
X315179Y251424D01*
X315288Y251402D01*
X315390Y251380D01*
X315484Y251365D01*
X315571Y251344D01*
X315651Y251329D01*
X315716Y251322D01*
X315767Y251308D01*
X315803Y251300D01*
X315832Y251293D01*
X315839D01*
X316071Y249647D01*
X316013Y249655D01*
X315933Y249669D01*
X315854Y249683D01*
X315767Y249698D01*
X315687Y249705D01*
X315622Y249720D01*
X315578Y249727D01*
X315564D01*
X315426Y249749D01*
X315303Y249770D01*
X315194Y249785D01*
X315107Y249792D01*
X315035Y249807D01*
X314977D01*
X314948Y249814D01*
X314933D01*
X314969Y249633D01*
X314998Y249459D01*
X315027Y249299D01*
X315056Y249147D01*
X315078Y249016D01*
X315100Y248886D01*
X315122Y248770D01*
X315143Y248669D01*
X315158Y248582D01*
X315172Y248502D01*
X315187Y248436D01*
X315194Y248378D01*
X315209Y248342D01*
Y248306D01*
X315216Y248291D01*
Y248284D01*
X315245Y248132D01*
X315274Y247987D01*
X315303Y247849D01*
X315332Y247733D01*
X315353Y247624D01*
X315368Y247552D01*
X315375Y247516D01*
Y247501D01*
X315383Y247487D01*
Y247480D01*
X315411Y247320D01*
X315448Y247153D01*
X315484Y246987D01*
X315513Y246827D01*
X315542Y246689D01*
X315557Y246631D01*
X315564Y246581D01*
X315571Y246537D01*
X315578Y246508D01*
X315585Y246486D01*
Y246479D01*
X315636Y246247D01*
X315687Y246001D01*
X315738Y245761D01*
X315789Y245529D01*
X315817Y245428D01*
X315839Y245334D01*
X315854Y245247D01*
X315868Y245174D01*
X315883Y245116D01*
X315897Y245073D01*
X315904Y245043D01*
Y245036D01*
X315709Y245073D01*
X315528Y245101D01*
X315353Y245138D01*
X315194Y245167D01*
X315042Y245203D01*
X314904Y245232D01*
X314781Y245261D01*
X314665Y245283D01*
X314563Y245312D01*
X314476Y245334D01*
X314404Y245348D01*
X314338Y245370D01*
X314295Y245384D01*
X314259Y245392D01*
X314237Y245399D01*
X314230D01*
X314179Y245710D01*
X314128Y246008D01*
X314106Y246146D01*
X314085Y246283D01*
X314063Y246407D01*
X314049Y246530D01*
X314027Y246638D01*
X314012Y246733D01*
X313998Y246820D01*
X313990Y246892D01*
X313983Y246950D01*
X313976Y246994D01*
X313969Y247023D01*
Y247030D01*
X313882Y247516D01*
X313802Y247980D01*
X313715Y248436D01*
X313628Y248871D01*
X313548Y249285D01*
X313469Y249676D01*
X313396Y250039D01*
X313352Y250213D01*
X313323Y250379D01*
X313287Y250532D01*
X313251Y250684D01*
X313222Y250822D01*
X313193Y250959D01*
X313164Y251083D01*
X313142Y251199D01*
X313113Y251300D01*
X313091Y251395D01*
X313070Y251482D01*
X313055Y251554D01*
X313041Y251619D01*
X313026Y251677D01*
X313019Y251713D01*
X313012Y251750D01*
X313004Y251764D01*
Y251771D01*
X313302Y251721D01*
D02*
G37*
G36*
X373387Y326853D02*
X373805Y326783D01*
X374205Y326679D01*
X374588Y326539D01*
X374954Y326383D01*
X375320Y326209D01*
X375650Y326035D01*
X375964Y325843D01*
X376242Y325634D01*
X376503Y325460D01*
X376730Y325286D01*
X376921Y325129D01*
X377060Y324990D01*
X377182Y324886D01*
X377252Y324816D01*
X377269Y324798D01*
X377618Y324433D01*
X377948Y324032D01*
X378262Y323632D01*
X378540Y323232D01*
X378819Y322814D01*
X379080Y322413D01*
X379306Y322030D01*
X379515Y321647D01*
X379707Y321299D01*
X379864Y320986D01*
X380003Y320690D01*
X380125Y320446D01*
X380212Y320237D01*
X380281Y320080D01*
X380316Y319993D01*
X380333Y319958D01*
X380542Y319419D01*
X380717Y318897D01*
X380873Y318374D01*
X381013Y317887D01*
X381117Y317417D01*
X381221Y316964D01*
X381291Y316546D01*
X381361Y316146D01*
X381396Y315797D01*
X381430Y315484D01*
X381465Y315206D01*
X381483Y314962D01*
X381500Y314788D01*
Y314649D01*
Y314561D01*
Y314527D01*
X381483Y314109D01*
X381465Y313708D01*
X381413Y313343D01*
X381343Y312995D01*
X381274Y312681D01*
X381187Y312403D01*
X381100Y312141D01*
X381013Y311898D01*
X380925Y311689D01*
X380838Y311515D01*
X380751Y311358D01*
X380682Y311236D01*
X380612Y311132D01*
X380560Y311062D01*
X380542Y311027D01*
X380525Y311010D01*
X380351Y310818D01*
X380177Y310644D01*
X379985Y310505D01*
X379776Y310383D01*
X379585Y310279D01*
X379376Y310174D01*
X378993Y310052D01*
X378645Y309965D01*
X378505Y309948D01*
X378366Y309930D01*
X378262Y309913D01*
X378122D01*
X377792Y309930D01*
X377444Y309983D01*
X377113Y310052D01*
X376782Y310157D01*
X376451Y310261D01*
X376138Y310400D01*
X375842Y310540D01*
X375563Y310679D01*
X375320Y310818D01*
X375076Y310958D01*
X374867Y311097D01*
X374693Y311201D01*
X374553Y311306D01*
X374449Y311375D01*
X374379Y311428D01*
X374362Y311445D01*
X374014Y311741D01*
X373683Y312054D01*
X373370Y312350D01*
X373108Y312646D01*
X372882Y312890D01*
X372708Y313099D01*
X372638Y313169D01*
X372586Y313221D01*
X372569Y313256D01*
X372551Y313273D01*
X372238Y313691D01*
X371942Y314109D01*
X371681Y314527D01*
X371454Y314892D01*
X371367Y315066D01*
X371280Y315223D01*
X371193Y315362D01*
X371141Y315484D01*
X371089Y315571D01*
X371054Y315658D01*
X371019Y315693D01*
Y315710D01*
X370775Y316233D01*
X370584Y316755D01*
X370392Y317260D01*
X370253Y317730D01*
X370183Y317939D01*
X370131Y318113D01*
X370079Y318287D01*
X370044Y318426D01*
X370009Y318548D01*
X369992Y318635D01*
X369975Y318688D01*
Y318705D01*
X369835Y319297D01*
X369748Y319871D01*
X369679Y320376D01*
X369644Y320603D01*
X369626Y320812D01*
X369609Y321003D01*
X369592Y321177D01*
Y321334D01*
X369574Y321456D01*
Y321560D01*
Y321630D01*
Y321682D01*
Y321700D01*
Y322152D01*
X369609Y322570D01*
X369644Y322953D01*
X369679Y323301D01*
X369731Y323632D01*
X369800Y323945D01*
X369853Y324207D01*
X369922Y324450D01*
X369992Y324677D01*
X370044Y324851D01*
X370114Y325007D01*
X370166Y325147D01*
X370201Y325251D01*
X370236Y325321D01*
X370271Y325356D01*
Y325373D01*
X370445Y325634D01*
X370636Y325861D01*
X370828Y326069D01*
X371054Y326243D01*
X371280Y326383D01*
X371507Y326505D01*
X371716Y326609D01*
X371942Y326679D01*
X372151Y326748D01*
X372342Y326783D01*
X372516Y326818D01*
X372673Y326853D01*
X372795D01*
X372882Y326870D01*
X372969D01*
X373387Y326853D01*
D02*
G37*
G36*
X336513Y326452D02*
X336878Y326400D01*
X337226Y326331D01*
X337557Y326261D01*
X337853Y326174D01*
X337975Y326139D01*
X338080Y326104D01*
X338166Y326069D01*
X338236Y326052D01*
X338271Y326035D01*
X338288D01*
X338741Y325861D01*
X339159Y325669D01*
X339559Y325478D01*
X339890Y325303D01*
X340169Y325129D01*
X340290Y325060D01*
X340378Y324990D01*
X340465Y324938D01*
X340517Y324903D01*
X340552Y324886D01*
X340569Y324868D01*
X340935Y324590D01*
X341283Y324294D01*
X341579Y323998D01*
X341823Y323719D01*
X342032Y323493D01*
X342188Y323301D01*
X342241Y323232D01*
X342275Y323179D01*
X342310Y323145D01*
Y323127D01*
X342536Y322744D01*
X342710Y322361D01*
X342832Y321978D01*
X342919Y321630D01*
X342972Y321334D01*
X342989Y321212D01*
Y321108D01*
X343006Y321021D01*
Y320951D01*
Y320916D01*
Y320899D01*
X342989Y320672D01*
X342954Y320446D01*
X342885Y320237D01*
X342815Y320028D01*
X342623Y319628D01*
X342380Y319280D01*
X342153Y319001D01*
X342049Y318879D01*
X341962Y318775D01*
X341892Y318688D01*
X341823Y318635D01*
X341788Y318601D01*
X341770Y318583D01*
X341387Y318235D01*
X341196Y318078D01*
X341022Y317939D01*
X340882Y317817D01*
X340761Y317730D01*
X340691Y317678D01*
X340656Y317660D01*
X340430Y317504D01*
X340221Y317347D01*
X340029Y317208D01*
X339873Y317086D01*
X339733Y316981D01*
X339629Y316894D01*
X339559Y316842D01*
X339542Y316825D01*
X339350Y316668D01*
X339176Y316511D01*
X339037Y316355D01*
X338915Y316233D01*
X338811Y316111D01*
X338741Y316024D01*
X338689Y315954D01*
X338671Y315937D01*
X338549Y315763D01*
X338462Y315589D01*
X338393Y315415D01*
X338358Y315258D01*
X338323Y315119D01*
X338306Y315014D01*
Y314944D01*
Y314910D01*
X338323Y314701D01*
X338393Y314527D01*
X338480Y314370D01*
X338584Y314231D01*
X338689Y314109D01*
X338776Y314022D01*
X338845Y313969D01*
X338863Y313952D01*
X339054Y313830D01*
X339229Y313761D01*
X339298Y313726D01*
X339350Y313708D01*
X339385Y313691D01*
X339403D01*
X339646Y313639D01*
X339890Y313621D01*
X339995Y313604D01*
X340151D01*
X340325Y313621D01*
X340534Y313691D01*
X340761Y313778D01*
X340969Y313865D01*
X341161Y313969D01*
X341318Y314039D01*
X341422Y314109D01*
X341440Y314126D01*
X341457D01*
X341770Y314318D01*
X342014Y314527D01*
X342223Y314718D01*
X342397Y314892D01*
X342519Y315032D01*
X342589Y315153D01*
X342641Y315223D01*
X342658Y315258D01*
X344330Y311967D01*
X344016Y311619D01*
X343720Y311306D01*
X343407Y311045D01*
X343093Y310818D01*
X342780Y310609D01*
X342502Y310453D01*
X342206Y310313D01*
X341945Y310209D01*
X341701Y310139D01*
X341474Y310070D01*
X341283Y310035D01*
X341109Y310000D01*
X340969Y309983D01*
X340865Y309965D01*
X340778D01*
X340290Y309983D01*
X339838Y310035D01*
X339403Y310104D01*
X338985Y310209D01*
X338602Y310313D01*
X338254Y310453D01*
X337923Y310592D01*
X337627Y310731D01*
X337348Y310871D01*
X337122Y311010D01*
X336913Y311149D01*
X336756Y311253D01*
X336617Y311358D01*
X336513Y311428D01*
X336460Y311480D01*
X336443Y311497D01*
X336129Y311811D01*
X335851Y312141D01*
X335607Y312472D01*
X335398Y312803D01*
X335224Y313151D01*
X335068Y313499D01*
X334946Y313813D01*
X334859Y314144D01*
X334789Y314440D01*
X334719Y314701D01*
X334684Y314944D01*
X334667Y315153D01*
X334650Y315328D01*
X334632Y315467D01*
Y315536D01*
Y315571D01*
X334650Y315937D01*
X334684Y316302D01*
X334737Y316633D01*
X334789Y316947D01*
X334876Y317225D01*
X334963Y317504D01*
X335068Y317747D01*
X335155Y317974D01*
X335259Y318165D01*
X335364Y318339D01*
X335451Y318496D01*
X335520Y318618D01*
X335590Y318722D01*
X335642Y318792D01*
X335677Y318827D01*
X335694Y318844D01*
X335868Y319018D01*
X336042Y319193D01*
X336199Y319332D01*
X336356Y319454D01*
X336495Y319541D01*
X336600Y319628D01*
X336669Y319663D01*
X336687Y319680D01*
X337052Y319924D01*
X337226Y320028D01*
X337366Y320133D01*
X337488Y320202D01*
X337575Y320272D01*
X337644Y320307D01*
X337662Y320324D01*
X337975Y320568D01*
X338097Y320672D01*
X338219Y320777D01*
X338306Y320864D01*
X338375Y320934D01*
X338410Y320986D01*
X338428Y321003D01*
X338532Y321142D01*
X338602Y321299D01*
X338654Y321456D01*
X338689Y321613D01*
X338706Y321734D01*
X338724Y321856D01*
Y321926D01*
Y321943D01*
X338689Y322170D01*
X338619Y322361D01*
X338532Y322553D01*
X338410Y322709D01*
X338306Y322849D01*
X338201Y322953D01*
X338132Y323023D01*
X338114Y323040D01*
X337923Y323179D01*
X337749Y323301D01*
X337696Y323336D01*
X337644Y323371D01*
X337609Y323388D01*
X337592D01*
X337383Y323475D01*
X337209Y323510D01*
X337157Y323528D01*
X337052D01*
X336948Y323510D01*
X336861Y323475D01*
X336687Y323371D01*
X336617Y323319D01*
X336565Y323266D01*
X336547Y323232D01*
X336530Y323214D01*
X336443Y323092D01*
X336391Y322970D01*
X336321Y322709D01*
X336304Y322605D01*
X336286Y322518D01*
Y322448D01*
Y322431D01*
X336304Y322082D01*
X336321Y321926D01*
X336338Y321787D01*
X336356Y321682D01*
X336373Y321595D01*
X336391Y321525D01*
Y321508D01*
X333135Y322466D01*
X333100Y322727D01*
X333065Y322936D01*
X333048Y323023D01*
X333031Y323092D01*
Y323127D01*
Y323145D01*
X332996Y323371D01*
X332978Y323580D01*
Y323667D01*
Y323737D01*
Y323771D01*
Y323789D01*
X332996Y324032D01*
X333013Y324276D01*
X333118Y324694D01*
X333240Y325042D01*
X333396Y325338D01*
X333553Y325565D01*
X333692Y325721D01*
X333797Y325826D01*
X333814Y325861D01*
X333831D01*
X334145Y326052D01*
X334301Y326139D01*
X334458Y326191D01*
X334580Y326243D01*
X334684Y326278D01*
X334754Y326313D01*
X334772D01*
X334981Y326365D01*
X335224Y326400D01*
X335451Y326435D01*
X335677Y326452D01*
X335886Y326470D01*
X336182D01*
X336513Y326452D01*
D02*
G37*
G36*
X341584Y251329D02*
X341569Y251126D01*
X341562Y251076D01*
X341555Y250996D01*
X341548Y250902D01*
X341541Y250793D01*
X341533Y250662D01*
X341526Y250532D01*
X341504Y250256D01*
X341497Y250118D01*
X341490Y249988D01*
X341482Y249865D01*
X341475Y249756D01*
X341468Y249669D01*
X341461Y249597D01*
Y249553D01*
Y249546D01*
Y249538D01*
X341446Y249285D01*
X341432Y249038D01*
X341417Y248792D01*
X341403Y248567D01*
X341395Y248342D01*
X341388Y248139D01*
X341381Y247943D01*
Y247762D01*
X341374Y247603D01*
Y247458D01*
X341367Y247327D01*
Y247226D01*
Y247139D01*
Y247074D01*
Y247037D01*
Y247023D01*
X341802Y245130D01*
X340192Y245334D01*
X340141Y245522D01*
X340090Y245696D01*
X340047Y245870D01*
X340003Y246029D01*
X339967Y246182D01*
X339931Y246320D01*
X339895Y246450D01*
X339866Y246573D01*
X339844Y246675D01*
X339822Y246769D01*
X339808Y246849D01*
X339793Y246921D01*
X339779Y246972D01*
X339772Y247016D01*
X339764Y247037D01*
Y247044D01*
X339655Y247276D01*
X339605Y247385D01*
X339561Y247487D01*
X339518Y247574D01*
X339489Y247639D01*
X339467Y247682D01*
X339460Y247690D01*
Y247697D01*
X339394Y247828D01*
X339329Y247958D01*
X339271Y248074D01*
X339220Y248183D01*
X339177Y248277D01*
X339141Y248342D01*
X339126Y248371D01*
X339119Y248393D01*
X339112Y248400D01*
Y248408D01*
X338525Y249618D01*
X338365Y249937D01*
X338213Y250264D01*
X338053Y250575D01*
X337981Y250728D01*
X337915Y250865D01*
X337850Y250996D01*
X337792Y251112D01*
X337741Y251220D01*
X337698Y251308D01*
X337662Y251380D01*
X337633Y251438D01*
X337618Y251467D01*
X337611Y251482D01*
X339075Y251808D01*
X339141Y251619D01*
X339199Y251438D01*
X339257Y251271D01*
X339315Y251104D01*
X339423Y250793D01*
X339518Y250510D01*
X339612Y250256D01*
X339692Y250031D01*
X339764Y249829D01*
X339829Y249647D01*
X339880Y249495D01*
X339931Y249364D01*
X339974Y249256D01*
X340003Y249169D01*
X340033Y249096D01*
X340047Y249053D01*
X340054Y249024D01*
X340061Y249016D01*
Y249364D01*
X340054Y250285D01*
Y251917D01*
X341584Y251329D01*
D02*
G37*
G36*
X295568Y251670D02*
X296794Y244993D01*
X293756Y245457D01*
X293669Y246530D01*
X295032Y246305D01*
X294713Y248045D01*
X294611D01*
X294517Y248052D01*
X294350D01*
X294292Y248060D01*
X294205D01*
X294039Y248067D01*
X293894D01*
X293843Y248074D01*
X293683D01*
X293618Y248081D01*
X293524D01*
X293488Y248089D01*
X293444D01*
X293429Y248190D01*
X293415Y248284D01*
X293401Y248371D01*
X293393Y248444D01*
X293386Y248509D01*
X293379Y248560D01*
X293372Y248589D01*
Y248603D01*
X293342Y248792D01*
X293335Y248879D01*
X293321Y248958D01*
X293314Y249024D01*
X293306Y249082D01*
X293299Y249111D01*
Y249125D01*
X293350D01*
X293408Y249118D01*
X293480D01*
X293560Y249111D01*
X293625D01*
X293683Y249103D01*
X293872D01*
X294017Y249096D01*
X294155Y249089D01*
X294292Y249082D01*
X294408Y249075D01*
X294495D01*
X294531Y249067D01*
X294582D01*
X294256Y250757D01*
X293451D01*
X293299Y250764D01*
X293176D01*
X293067Y250771D01*
X292980Y250778D01*
X292922D01*
X292886Y250785D01*
X292871D01*
X292849Y250902D01*
X292821Y251010D01*
X292813Y251054D01*
X292806Y251097D01*
X292799Y251119D01*
Y251126D01*
X292762Y251271D01*
X292748Y251337D01*
X292734Y251395D01*
X292719Y251445D01*
X292712Y251482D01*
X292705Y251511D01*
Y251518D01*
X292668Y251663D01*
X292654Y251735D01*
X292632Y251793D01*
X292618Y251844D01*
X292603Y251887D01*
X292596Y251917D01*
Y251924D01*
X295568Y251670D01*
D02*
G37*
G36*
X322516Y251837D02*
X322683Y251815D01*
X322850Y251786D01*
X323002Y251750D01*
X323147Y251706D01*
X323285Y251648D01*
X323408Y251597D01*
X323524Y251539D01*
X323633Y251482D01*
X323720Y251431D01*
X323800Y251380D01*
X323872Y251329D01*
X323923Y251293D01*
X323967Y251264D01*
X323988Y251242D01*
X323995Y251235D01*
X324133Y251104D01*
X324249Y250967D01*
X324358Y250822D01*
X324445Y250677D01*
X324517Y250532D01*
X324583Y250387D01*
X324634Y250249D01*
X324677Y250118D01*
X324706Y249988D01*
X324728Y249879D01*
X324749Y249770D01*
X324757Y249683D01*
X324764Y249611D01*
X324771Y249553D01*
Y249524D01*
Y249510D01*
X324764Y249401D01*
X324757Y249299D01*
Y249263D01*
X324749Y249234D01*
Y249212D01*
Y249205D01*
X324605Y249219D01*
X324467Y249234D01*
X324336Y249249D01*
X324220Y249256D01*
X324112Y249270D01*
X324003Y249277D01*
X323908Y249292D01*
X323821Y249299D01*
X323662Y249314D01*
X323532Y249328D01*
X323423Y249336D01*
X323343Y249343D01*
X323271Y249350D01*
X323220Y249357D01*
X323183D01*
X323162Y249364D01*
X323133D01*
X323140Y249372D01*
X323147Y249386D01*
Y249394D01*
Y249401D01*
Y249502D01*
X323140Y249611D01*
X323126Y249712D01*
X323111Y249799D01*
X323082Y249872D01*
X323060Y249930D01*
X323046Y249974D01*
X323031Y250003D01*
X323024Y250010D01*
X322966Y250082D01*
X322915Y250140D01*
X322865Y250169D01*
X322857Y250184D01*
X322850D01*
X322756Y250227D01*
X322669Y250249D01*
X322633Y250256D01*
X322574D01*
X322516Y250249D01*
X322459Y250235D01*
X322415Y250205D01*
X322372Y250184D01*
X322342Y250155D01*
X322321Y250126D01*
X322306Y250111D01*
X322299Y250104D01*
X322263Y250046D01*
X322234Y249981D01*
X322219Y249916D01*
X322205Y249850D01*
X322198Y249799D01*
X322190Y249756D01*
Y249720D01*
Y249712D01*
X322205Y249625D01*
X322234Y249531D01*
X322285Y249444D01*
X322335Y249357D01*
X322386Y249285D01*
X322437Y249227D01*
X322466Y249190D01*
X322480Y249176D01*
X322546Y249118D01*
X322618Y249045D01*
X322705Y248973D01*
X322799Y248886D01*
X323009Y248712D01*
X323227Y248545D01*
X323328Y248458D01*
X323430Y248386D01*
X323517Y248313D01*
X323597Y248255D01*
X323662Y248204D01*
X323713Y248168D01*
X323742Y248139D01*
X323756Y248132D01*
X323901Y248023D01*
X324039Y247915D01*
X324162Y247813D01*
X324286Y247711D01*
X324394Y247610D01*
X324503Y247516D01*
X324684Y247342D01*
X324851Y247175D01*
X324981Y247016D01*
X325097Y246878D01*
X325192Y246755D01*
X325264Y246638D01*
X325322Y246537D01*
X325366Y246457D01*
X325395Y246385D01*
X325409Y246334D01*
X325424Y246290D01*
X325431Y246269D01*
Y246262D01*
X325583Y245080D01*
X325279Y245101D01*
X325003Y245116D01*
X324873Y245123D01*
X324749Y245138D01*
X324641Y245145D01*
X324532Y245152D01*
X324438Y245160D01*
X324351D01*
X324278Y245167D01*
X324220Y245174D01*
X324169D01*
X324133Y245181D01*
X324104D01*
X323974Y245188D01*
X323843Y245203D01*
X323568Y245217D01*
X323292Y245239D01*
X323154Y245247D01*
X323024Y245254D01*
X322908Y245261D01*
X322792Y245268D01*
X322698Y245275D01*
X322611Y245283D01*
X322538D01*
X322487Y245290D01*
X322444D01*
X322248Y245304D01*
X322074Y245319D01*
X321922Y245326D01*
X321792Y245334D01*
X321690Y245348D01*
X321610D01*
X321581Y245355D01*
X321545D01*
X321393Y246711D01*
X321581Y246696D01*
X321784Y246682D01*
X321980Y246668D01*
X322161Y246653D01*
X322241Y246646D01*
X322321D01*
X322386Y246638D01*
X322444Y246631D01*
X322495D01*
X322531Y246624D01*
X322560D01*
X322807Y246609D01*
X323031Y246595D01*
X323241Y246588D01*
X323336Y246581D01*
X323495D01*
X323568Y246573D01*
X323771D01*
X323474Y246733D01*
X323198Y246900D01*
X322944Y247059D01*
X322705Y247211D01*
X322480Y247371D01*
X322270Y247530D01*
X322081Y247682D01*
X321900Y247835D01*
X321741Y247980D01*
X321588Y248125D01*
X321451Y248270D01*
X321327Y248408D01*
X321212Y248538D01*
X321110Y248669D01*
X321023Y248799D01*
X320943Y248915D01*
X320871Y249031D01*
X320806Y249147D01*
X320755Y249249D01*
X320704Y249350D01*
X320639Y249524D01*
X320610Y249604D01*
X320588Y249676D01*
X320573Y249742D01*
X320559Y249799D01*
X320552Y249850D01*
X320545Y249894D01*
X320537Y249923D01*
Y249944D01*
Y249959D01*
Y249966D01*
X320545Y250133D01*
X320559Y250292D01*
X320588Y250437D01*
X320624Y250575D01*
X320668Y250706D01*
X320711Y250822D01*
X320762Y250923D01*
X320813Y251025D01*
X320864Y251112D01*
X320914Y251184D01*
X320958Y251250D01*
X321001Y251300D01*
X321038Y251344D01*
X321066Y251373D01*
X321081Y251387D01*
X321088Y251395D01*
X321182Y251474D01*
X321284Y251539D01*
X321386Y251605D01*
X321487Y251656D01*
X321596Y251699D01*
X321697Y251735D01*
X321900Y251786D01*
X321987Y251808D01*
X322074Y251822D01*
X322147Y251830D01*
X322212Y251837D01*
X322270Y251844D01*
X322342D01*
X322516Y251837D01*
D02*
G37*
G36*
X312852Y326609D02*
X313131Y326574D01*
X313427Y326539D01*
X314019Y326418D01*
X314611Y326296D01*
X314889Y326226D01*
X315133Y326156D01*
X315377Y326104D01*
X315568Y326035D01*
X315742Y326000D01*
X315864Y325965D01*
X315934Y325930D01*
X315969D01*
X316056Y325390D01*
X316143Y324816D01*
X316247Y324224D01*
X316352Y323615D01*
X316578Y322344D01*
X316822Y321038D01*
X317083Y319715D01*
X317344Y318392D01*
X317605Y317086D01*
X317866Y315832D01*
X317988Y315223D01*
X318110Y314631D01*
X318232Y314074D01*
X318354Y313534D01*
X318458Y313012D01*
X318563Y312542D01*
X318650Y312089D01*
X318754Y311671D01*
X318824Y311306D01*
X318894Y310975D01*
X318963Y310679D01*
X319016Y310435D01*
X319068Y310244D01*
X319085Y310104D01*
X319120Y310017D01*
Y309983D01*
X315237Y310749D01*
X315150Y311341D01*
X315063Y311915D01*
X314976Y312437D01*
X314889Y312925D01*
X314820Y313395D01*
X314733Y313813D01*
X314663Y314196D01*
X314593Y314544D01*
X314541Y314840D01*
X314489Y315119D01*
X314437Y315345D01*
X314402Y315536D01*
X314367Y315676D01*
X314350Y315780D01*
X314332Y315850D01*
Y315867D01*
X314089D01*
X313688Y315885D01*
X313305Y315954D01*
X312957Y316041D01*
X312643Y316146D01*
X312382Y316233D01*
X312260Y316285D01*
X312173Y316320D01*
X312104Y316355D01*
X312052Y316389D01*
X312017Y316407D01*
X311999D01*
X311634Y316616D01*
X311303Y316860D01*
X310989Y317103D01*
X310728Y317330D01*
X310519Y317538D01*
X310363Y317695D01*
X310293Y317765D01*
X310258Y317817D01*
X310224Y317834D01*
Y317852D01*
X309945Y318200D01*
X309701Y318566D01*
X309492Y318931D01*
X309318Y319245D01*
X309179Y319541D01*
X309109Y319663D01*
X309074Y319767D01*
X309040Y319837D01*
X309005Y319906D01*
X308987Y319941D01*
Y319958D01*
X308831Y320411D01*
X308709Y320846D01*
X308639Y321247D01*
X308570Y321630D01*
X308552Y321787D01*
X308535Y321943D01*
Y322065D01*
X308517Y322187D01*
Y322274D01*
Y322344D01*
Y322378D01*
Y322396D01*
Y322762D01*
X308552Y323092D01*
X308587Y323406D01*
X308639Y323702D01*
X308691Y323963D01*
X308761Y324207D01*
X308831Y324433D01*
X308900Y324624D01*
X308987Y324816D01*
X309057Y324955D01*
X309127Y325095D01*
X309179Y325199D01*
X309231Y325286D01*
X309266Y325338D01*
X309283Y325373D01*
X309301Y325390D01*
X309475Y325599D01*
X309666Y325774D01*
X309858Y325930D01*
X310032Y326052D01*
X310189Y326156D01*
X310311Y326243D01*
X310398Y326278D01*
X310432Y326296D01*
X310711Y326418D01*
X311024Y326505D01*
X311338Y326557D01*
X311651Y326609D01*
X311930Y326626D01*
X312052D01*
X312139Y326644D01*
X312591D01*
X312852Y326609D01*
D02*
G37*
G36*
X359407Y326017D02*
X362349Y309983D01*
X355054Y311097D01*
X354845Y313673D01*
X358118Y313134D01*
X357352Y317312D01*
X357109D01*
X356882Y317330D01*
X356482D01*
X356343Y317347D01*
X356134D01*
X355733Y317364D01*
X355385D01*
X355263Y317382D01*
X354880D01*
X354723Y317399D01*
X354497D01*
X354410Y317417D01*
X354306D01*
X354271Y317660D01*
X354236Y317887D01*
X354201Y318096D01*
X354184Y318270D01*
X354166Y318426D01*
X354149Y318548D01*
X354132Y318618D01*
Y318653D01*
X354062Y319105D01*
X354044Y319314D01*
X354010Y319506D01*
X353992Y319663D01*
X353975Y319802D01*
X353957Y319871D01*
Y319906D01*
X354079D01*
X354219Y319889D01*
X354393D01*
X354584Y319871D01*
X354741D01*
X354880Y319854D01*
X355333D01*
X355681Y319837D01*
X356012Y319819D01*
X356343Y319802D01*
X356621Y319784D01*
X356830D01*
X356917Y319767D01*
X357039D01*
X356256Y323823D01*
X354323D01*
X353957Y323841D01*
X353661D01*
X353400Y323858D01*
X353191Y323876D01*
X353052D01*
X352965Y323893D01*
X352930D01*
X352878Y324172D01*
X352808Y324433D01*
X352791Y324537D01*
X352773Y324642D01*
X352756Y324694D01*
Y324711D01*
X352669Y325060D01*
X352634Y325216D01*
X352599Y325356D01*
X352565Y325478D01*
X352547Y325565D01*
X352530Y325634D01*
Y325652D01*
X352443Y326000D01*
X352408Y326174D01*
X352356Y326313D01*
X352321Y326435D01*
X352286Y326539D01*
X352269Y326609D01*
Y326626D01*
X359407Y326017D01*
D02*
G37*
G36*
X234903Y337314D02*
X235110Y336988D01*
X235306Y336672D01*
X235480Y336379D01*
X235567Y336248D01*
X235643Y336128D01*
X235708Y336030D01*
X235763Y335943D01*
X235806Y335867D01*
X235839Y335813D01*
X235861Y335780D01*
X235872Y335769D01*
X236427Y334921D01*
X236981Y334094D01*
X237525Y333289D01*
X238059Y332505D01*
X238570Y331755D01*
X239059Y331036D01*
X239299Y330699D01*
X239527Y330362D01*
X239745Y330046D01*
X239963Y329742D01*
X240169Y329448D01*
X240365Y329176D01*
X240550Y328915D01*
X240724Y328665D01*
X240887Y328436D01*
X241040Y328219D01*
X241181Y328023D01*
X241312Y327838D01*
X241431Y327685D01*
X241529Y327533D01*
X241616Y327413D01*
X241692Y327315D01*
X241747Y327239D01*
X241790Y327174D01*
X241812Y327141D01*
X241823Y327131D01*
X239495Y326597D01*
X239059Y327250D01*
X238635Y327881D01*
X238233Y328491D01*
X237830Y329078D01*
X237449Y329644D01*
X237079Y330199D01*
X236731Y330721D01*
X236394Y331232D01*
X236068Y331711D01*
X235752Y332179D01*
X235458Y332625D01*
X235164Y333049D01*
X234893Y333452D01*
X234642Y333833D01*
X234392Y334203D01*
X234163Y334540D01*
X233946Y334866D01*
X233750Y335160D01*
X233554Y335443D01*
X233380Y335704D01*
X233228Y335943D01*
X233075Y336161D01*
X232945Y336357D01*
X232825Y336531D01*
X232716Y336683D01*
X232629Y336825D01*
X232553Y336933D01*
X232488Y337031D01*
X232445Y337097D01*
X232412Y337151D01*
X232390Y337184D01*
X232379Y337195D01*
X232727Y337238D01*
X233043Y337282D01*
X233326Y337325D01*
X233576Y337369D01*
X233794Y337412D01*
X233979Y337445D01*
X234142Y337477D01*
X234283Y337510D01*
X234392Y337543D01*
X234490Y337575D01*
X234555Y337597D01*
X234610Y337619D01*
X234653Y337630D01*
X234675Y337641D01*
X234697Y337651D01*
X234903Y337314D01*
D02*
G37*
G36*
X270622D02*
X270829Y336988D01*
X271025Y336672D01*
X271199Y336379D01*
X271286Y336248D01*
X271362Y336128D01*
X271427Y336030D01*
X271482Y335943D01*
X271525Y335867D01*
X271558Y335813D01*
X271580Y335780D01*
X271591Y335769D01*
X272146Y334921D01*
X272701Y334094D01*
X273245Y333289D01*
X273778Y332505D01*
X274289Y331755D01*
X274779Y331036D01*
X275018Y330699D01*
X275246Y330362D01*
X275464Y330046D01*
X275682Y329742D01*
X275888Y329448D01*
X276084Y329176D01*
X276269Y328915D01*
X276443Y328665D01*
X276606Y328436D01*
X276759Y328219D01*
X276900Y328023D01*
X277031Y327838D01*
X277150Y327685D01*
X277248Y327533D01*
X277335Y327413D01*
X277412Y327315D01*
X277466Y327239D01*
X277509Y327174D01*
X277531Y327141D01*
X277542Y327131D01*
X275214Y326597D01*
X274779Y327250D01*
X274354Y327881D01*
X273952Y328491D01*
X273549Y329078D01*
X273168Y329644D01*
X272798Y330199D01*
X272450Y330721D01*
X272113Y331232D01*
X271787Y331711D01*
X271471Y332179D01*
X271177Y332625D01*
X270883Y333049D01*
X270612Y333452D01*
X270361Y333833D01*
X270111Y334203D01*
X269883Y334540D01*
X269665Y334866D01*
X269469Y335160D01*
X269273Y335443D01*
X269099Y335704D01*
X268947Y335943D01*
X268795Y336161D01*
X268664Y336357D01*
X268544Y336531D01*
X268436Y336683D01*
X268349Y336825D01*
X268272Y336933D01*
X268207Y337031D01*
X268163Y337097D01*
X268131Y337151D01*
X268109Y337184D01*
X268098Y337195D01*
X268446Y337238D01*
X268762Y337282D01*
X269045Y337325D01*
X269295Y337369D01*
X269513Y337412D01*
X269698Y337445D01*
X269861Y337477D01*
X270002Y337510D01*
X270111Y337543D01*
X270209Y337575D01*
X270274Y337597D01*
X270329Y337619D01*
X270372Y337630D01*
X270394Y337641D01*
X270416Y337651D01*
X270622Y337314D01*
D02*
G37*
G36*
X325283Y326313D02*
X326362Y326209D01*
X326867Y326174D01*
X327372Y326139D01*
X327842Y326122D01*
X328278Y326104D01*
X328696Y326087D01*
X329061Y326069D01*
X329392D01*
X329670Y326052D01*
X330628D01*
X331046Y326069D01*
X331429Y326087D01*
X331795Y326104D01*
X332090D01*
X332212Y326122D01*
X332317D01*
X332386Y326139D01*
X332508D01*
X332630Y323249D01*
X332230Y323179D01*
X332056Y323145D01*
X331899D01*
X331760Y323127D01*
X330994D01*
X330837Y323110D01*
X330698Y323092D01*
X330593D01*
X330523Y323075D01*
X330506D01*
X330576Y322622D01*
X330628Y322152D01*
X330785Y321160D01*
X330959Y320115D01*
X331150Y319036D01*
X331342Y317939D01*
X331533Y316860D01*
X331742Y315780D01*
X331934Y314753D01*
X332038Y314265D01*
X332125Y313778D01*
X332230Y313325D01*
X332317Y312873D01*
X332404Y312455D01*
X332473Y312072D01*
X332560Y311706D01*
X332613Y311358D01*
X332682Y311062D01*
X332735Y310783D01*
X332787Y310557D01*
X332839Y310348D01*
X332856Y310191D01*
X332891Y310070D01*
X332909Y310000D01*
Y309983D01*
X328852Y310609D01*
X328817Y310853D01*
X328783Y311114D01*
X328696Y311689D01*
X328608Y312298D01*
X328504Y312942D01*
X328417Y313604D01*
X328312Y314283D01*
X328208Y314944D01*
X328103Y315589D01*
X327999Y316215D01*
X327912Y316790D01*
X327825Y317330D01*
X327790Y317556D01*
X327755Y317782D01*
X327720Y317974D01*
X327703Y318165D01*
X327668Y318322D01*
X327651Y318444D01*
X327634Y318548D01*
Y318618D01*
X327616Y318670D01*
Y318688D01*
X327546Y319158D01*
X327477Y319593D01*
X327407Y320011D01*
X327338Y320411D01*
X327268Y320777D01*
X327198Y321125D01*
X327146Y321456D01*
X327076Y321734D01*
X327024Y321995D01*
X326972Y322239D01*
X326937Y322431D01*
X326902Y322605D01*
X326867Y322727D01*
X326850Y322831D01*
X326833Y322883D01*
Y322901D01*
X326467Y322953D01*
X326310Y322988D01*
X326154Y323005D01*
X326032Y323023D01*
X325927D01*
X325858Y323040D01*
X325840D01*
X325475Y323092D01*
X325301Y323127D01*
X325144Y323162D01*
X325022Y323197D01*
X324918Y323214D01*
X324848Y323232D01*
X324831D01*
X324761Y323545D01*
X324726Y323702D01*
X324709Y323858D01*
X324674Y323980D01*
X324656Y324085D01*
X324639Y324154D01*
Y324172D01*
X324569Y324555D01*
X324535Y324746D01*
X324500Y324903D01*
X324465Y325025D01*
X324447Y325129D01*
X324430Y325199D01*
Y325216D01*
X324186Y326435D01*
X325283Y326313D01*
D02*
G37*
G36*
X364856Y326609D02*
X365135Y326574D01*
X365431Y326539D01*
X366022Y326418D01*
X366614Y326296D01*
X366893Y326226D01*
X367137Y326156D01*
X367380Y326104D01*
X367572Y326035D01*
X367746Y326000D01*
X367868Y325965D01*
X367938Y325930D01*
X367972D01*
X368059Y325390D01*
X368146Y324816D01*
X368251Y324224D01*
X368355Y323615D01*
X368582Y322344D01*
X368826Y321038D01*
X369087Y319715D01*
X369348Y318392D01*
X369609Y317086D01*
X369870Y315832D01*
X369992Y315223D01*
X370114Y314631D01*
X370236Y314074D01*
X370358Y313534D01*
X370462Y313012D01*
X370567Y312542D01*
X370654Y312089D01*
X370758Y311671D01*
X370828Y311306D01*
X370897Y310975D01*
X370967Y310679D01*
X371019Y310435D01*
X371071Y310244D01*
X371089Y310104D01*
X371124Y310017D01*
Y309983D01*
X367241Y310749D01*
X367154Y311341D01*
X367067Y311915D01*
X366980Y312437D01*
X366893Y312925D01*
X366823Y313395D01*
X366736Y313813D01*
X366667Y314196D01*
X366597Y314544D01*
X366545Y314840D01*
X366493Y315119D01*
X366440Y315345D01*
X366406Y315536D01*
X366371Y315676D01*
X366353Y315780D01*
X366336Y315850D01*
Y315867D01*
X366092D01*
X365692Y315885D01*
X365309Y315954D01*
X364961Y316041D01*
X364647Y316146D01*
X364386Y316233D01*
X364264Y316285D01*
X364177Y316320D01*
X364107Y316355D01*
X364055Y316389D01*
X364020Y316407D01*
X364003D01*
X363637Y316616D01*
X363307Y316860D01*
X362993Y317103D01*
X362732Y317330D01*
X362523Y317538D01*
X362366Y317695D01*
X362297Y317765D01*
X362262Y317817D01*
X362227Y317834D01*
Y317852D01*
X361949Y318200D01*
X361705Y318566D01*
X361496Y318931D01*
X361322Y319245D01*
X361182Y319541D01*
X361113Y319663D01*
X361078Y319767D01*
X361043Y319837D01*
X361008Y319906D01*
X360991Y319941D01*
Y319958D01*
X360834Y320411D01*
X360713Y320846D01*
X360643Y321247D01*
X360573Y321630D01*
X360556Y321787D01*
X360538Y321943D01*
Y322065D01*
X360521Y322187D01*
Y322274D01*
Y322344D01*
Y322378D01*
Y322396D01*
Y322762D01*
X360556Y323092D01*
X360591Y323406D01*
X360643Y323702D01*
X360695Y323963D01*
X360765Y324207D01*
X360834Y324433D01*
X360904Y324624D01*
X360991Y324816D01*
X361061Y324955D01*
X361130Y325095D01*
X361182Y325199D01*
X361235Y325286D01*
X361270Y325338D01*
X361287Y325373D01*
X361304Y325390D01*
X361478Y325599D01*
X361670Y325774D01*
X361861Y325930D01*
X362036Y326052D01*
X362192Y326156D01*
X362314Y326243D01*
X362401Y326278D01*
X362436Y326296D01*
X362715Y326418D01*
X363028Y326505D01*
X363341Y326557D01*
X363655Y326609D01*
X363933Y326626D01*
X364055D01*
X364142Y326644D01*
X364595D01*
X364856Y326609D01*
D02*
G37*
G36*
X323647Y326017D02*
X326589Y309983D01*
X319294Y311097D01*
X319085Y313673D01*
X322358Y313134D01*
X321592Y317312D01*
X321349D01*
X321122Y317330D01*
X320722D01*
X320582Y317347D01*
X320374D01*
X319973Y317364D01*
X319625D01*
X319503Y317382D01*
X319120D01*
X318963Y317399D01*
X318737D01*
X318650Y317417D01*
X318545D01*
X318511Y317660D01*
X318476Y317887D01*
X318441Y318096D01*
X318424Y318270D01*
X318406Y318426D01*
X318389Y318548D01*
X318371Y318618D01*
Y318653D01*
X318302Y319105D01*
X318284Y319314D01*
X318250Y319506D01*
X318232Y319663D01*
X318215Y319802D01*
X318197Y319871D01*
Y319906D01*
X318319D01*
X318458Y319889D01*
X318633D01*
X318824Y319871D01*
X318981D01*
X319120Y319854D01*
X319573D01*
X319921Y319837D01*
X320252Y319819D01*
X320582Y319802D01*
X320861Y319784D01*
X321070D01*
X321157Y319767D01*
X321279D01*
X320495Y323823D01*
X318563D01*
X318197Y323841D01*
X317901D01*
X317640Y323858D01*
X317431Y323876D01*
X317292D01*
X317205Y323893D01*
X317170D01*
X317118Y324172D01*
X317048Y324433D01*
X317031Y324537D01*
X317013Y324642D01*
X316996Y324694D01*
Y324711D01*
X316909Y325060D01*
X316874Y325216D01*
X316839Y325356D01*
X316804Y325478D01*
X316787Y325565D01*
X316770Y325634D01*
Y325652D01*
X316683Y326000D01*
X316648Y326174D01*
X316596Y326313D01*
X316561Y326435D01*
X316526Y326539D01*
X316509Y326609D01*
Y326626D01*
X323647Y326017D01*
D02*
G37*
G36*
X310829Y251750D02*
X311105Y251728D01*
X311359Y251706D01*
X311475D01*
X311591Y251699D01*
X311692Y251692D01*
X311779D01*
X311859Y251684D01*
X312062D01*
X312091Y251605D01*
X312120Y251511D01*
X312156Y251402D01*
X312200Y251286D01*
X312243Y251148D01*
X312294Y251003D01*
X312345Y250844D01*
X312396Y250677D01*
X312454Y250503D01*
X312519Y250322D01*
X312642Y249944D01*
X312765Y249560D01*
X312896Y249176D01*
X313019Y248792D01*
X313135Y248436D01*
X313193Y248263D01*
X313244Y248103D01*
X313295Y247951D01*
X313338Y247806D01*
X313382Y247675D01*
X313418Y247559D01*
X313454Y247458D01*
X313483Y247371D01*
X313505Y247305D01*
X313519Y247255D01*
X313527Y247226D01*
X313534Y247211D01*
X313121Y246356D01*
X311511Y246486D01*
X311700Y244986D01*
X309967Y245283D01*
X309887Y246508D01*
X309408D01*
X309024Y248016D01*
X309554D01*
X309546Y248060D01*
X309539Y248103D01*
X309524Y248212D01*
X309517Y248263D01*
X309510Y248299D01*
X309503Y248328D01*
Y248335D01*
X309467Y248509D01*
X309452Y248596D01*
X309437Y248676D01*
X309423Y248741D01*
X309416Y248792D01*
X309408Y248828D01*
Y248843D01*
X309365Y249053D01*
X309350Y249154D01*
X309329Y249249D01*
X309321Y249321D01*
X309307Y249386D01*
X309300Y249423D01*
Y249437D01*
X309278Y249553D01*
X309256Y249669D01*
X309242Y249770D01*
X309220Y249857D01*
X309213Y249930D01*
X309198Y249988D01*
X309191Y250024D01*
Y250039D01*
X309169Y250148D01*
X309155Y250242D01*
X309140Y250329D01*
X309126Y250409D01*
X309119Y250466D01*
X309111Y250517D01*
X309104Y250546D01*
Y250553D01*
X309089Y250633D01*
X309075Y250698D01*
X309068Y250757D01*
X309061Y250800D01*
X309053Y250829D01*
X309046Y250858D01*
Y250865D01*
Y250872D01*
X309358Y250844D01*
X309655Y250807D01*
X309793Y250793D01*
X309923Y250778D01*
X310047Y250757D01*
X310162Y250742D01*
X310271Y250728D01*
X310366Y250720D01*
X310453Y250706D01*
X310525Y250698D01*
X310576Y250691D01*
X310619Y250684D01*
X310648Y250677D01*
X310655D01*
X310692Y250488D01*
X310728Y250314D01*
X310757Y250140D01*
X310793Y249981D01*
X310822Y249836D01*
X310844Y249698D01*
X310866Y249568D01*
X310888Y249451D01*
X310909Y249350D01*
X310924Y249256D01*
X310938Y249176D01*
X310953Y249111D01*
X310960Y249060D01*
X310967Y249024D01*
X310975Y249002D01*
Y248995D01*
X311003Y248835D01*
X311011Y248763D01*
X311025Y248697D01*
X311033Y248647D01*
X311040Y248603D01*
X311047Y248574D01*
Y248567D01*
X311069Y248429D01*
X311083Y248371D01*
X311090Y248321D01*
X311098Y248284D01*
X311105Y248255D01*
X311112Y248234D01*
Y248226D01*
X311120Y248176D01*
X311127Y248132D01*
X311141Y248067D01*
X311149Y248030D01*
Y248016D01*
X311823D01*
X311801Y248096D01*
X311787Y248161D01*
X311779Y248190D01*
X311772Y248212D01*
Y248226D01*
Y248234D01*
X311642Y248639D01*
X311518Y249024D01*
X311402Y249386D01*
X311294Y249727D01*
X311185Y250046D01*
X311083Y250336D01*
X310989Y250604D01*
X310902Y250844D01*
X310829Y251061D01*
X310757Y251250D01*
X310699Y251409D01*
X310648Y251547D01*
X310627Y251597D01*
X310605Y251648D01*
X310590Y251692D01*
X310576Y251728D01*
X310568Y251750D01*
X310561Y251771D01*
X310554Y251779D01*
Y251786D01*
X310829Y251750D01*
D02*
G37*
G36*
X297526Y251851D02*
X297678Y251830D01*
X297823Y251800D01*
X297961Y251771D01*
X298084Y251735D01*
X298135Y251721D01*
X298178Y251706D01*
X298215Y251692D01*
X298243Y251684D01*
X298258Y251677D01*
X298265D01*
X298454Y251605D01*
X298628Y251525D01*
X298795Y251445D01*
X298932Y251373D01*
X299048Y251300D01*
X299099Y251271D01*
X299135Y251242D01*
X299171Y251220D01*
X299193Y251206D01*
X299208Y251199D01*
X299215Y251191D01*
X299367Y251076D01*
X299512Y250952D01*
X299636Y250829D01*
X299737Y250713D01*
X299824Y250619D01*
X299889Y250539D01*
X299911Y250510D01*
X299925Y250488D01*
X299940Y250474D01*
Y250466D01*
X300034Y250307D01*
X300107Y250148D01*
X300157Y249988D01*
X300194Y249843D01*
X300216Y249720D01*
X300223Y249669D01*
Y249625D01*
X300230Y249589D01*
Y249560D01*
Y249546D01*
Y249538D01*
X300223Y249444D01*
X300208Y249350D01*
X300179Y249263D01*
X300150Y249176D01*
X300071Y249009D01*
X299969Y248864D01*
X299875Y248748D01*
X299831Y248697D01*
X299795Y248654D01*
X299766Y248618D01*
X299737Y248596D01*
X299723Y248582D01*
X299715Y248574D01*
X299556Y248429D01*
X299476Y248364D01*
X299404Y248306D01*
X299345Y248255D01*
X299295Y248219D01*
X299266Y248197D01*
X299251Y248190D01*
X299157Y248125D01*
X299070Y248060D01*
X298990Y248002D01*
X298925Y247951D01*
X298867Y247907D01*
X298823Y247871D01*
X298795Y247849D01*
X298787Y247842D01*
X298708Y247777D01*
X298635Y247711D01*
X298577Y247646D01*
X298526Y247596D01*
X298483Y247545D01*
X298454Y247509D01*
X298432Y247480D01*
X298425Y247472D01*
X298374Y247400D01*
X298338Y247327D01*
X298309Y247255D01*
X298294Y247189D01*
X298280Y247131D01*
X298272Y247088D01*
Y247059D01*
Y247044D01*
X298280Y246957D01*
X298309Y246885D01*
X298345Y246820D01*
X298389Y246762D01*
X298432Y246711D01*
X298468Y246675D01*
X298497Y246653D01*
X298504Y246646D01*
X298584Y246595D01*
X298657Y246566D01*
X298686Y246551D01*
X298708Y246544D01*
X298722Y246537D01*
X298729D01*
X298831Y246515D01*
X298932Y246508D01*
X298976Y246501D01*
X299041D01*
X299113Y246508D01*
X299201Y246537D01*
X299295Y246573D01*
X299382Y246609D01*
X299462Y246653D01*
X299527Y246682D01*
X299570Y246711D01*
X299577Y246718D01*
X299585D01*
X299715Y246798D01*
X299817Y246885D01*
X299904Y246965D01*
X299976Y247037D01*
X300027Y247095D01*
X300056Y247146D01*
X300078Y247175D01*
X300085Y247189D01*
X300781Y245819D01*
X300651Y245674D01*
X300527Y245544D01*
X300397Y245435D01*
X300266Y245341D01*
X300136Y245254D01*
X300020Y245188D01*
X299897Y245130D01*
X299788Y245087D01*
X299686Y245058D01*
X299592Y245029D01*
X299512Y245015D01*
X299440Y245000D01*
X299382Y244993D01*
X299338Y244986D01*
X299302D01*
X299099Y244993D01*
X298910Y245015D01*
X298729Y245043D01*
X298555Y245087D01*
X298396Y245130D01*
X298251Y245188D01*
X298113Y245247D01*
X297990Y245304D01*
X297874Y245362D01*
X297779Y245421D01*
X297692Y245479D01*
X297627Y245522D01*
X297569Y245566D01*
X297526Y245595D01*
X297504Y245616D01*
X297497Y245623D01*
X297366Y245754D01*
X297250Y245892D01*
X297149Y246029D01*
X297062Y246167D01*
X296989Y246312D01*
X296924Y246457D01*
X296873Y246588D01*
X296837Y246726D01*
X296808Y246849D01*
X296779Y246957D01*
X296764Y247059D01*
X296757Y247146D01*
X296750Y247218D01*
X296743Y247276D01*
Y247305D01*
Y247320D01*
X296750Y247472D01*
X296764Y247624D01*
X296786Y247762D01*
X296808Y247893D01*
X296844Y248009D01*
X296881Y248125D01*
X296924Y248226D01*
X296960Y248321D01*
X297004Y248400D01*
X297047Y248473D01*
X297083Y248538D01*
X297112Y248589D01*
X297142Y248632D01*
X297163Y248661D01*
X297178Y248676D01*
X297185Y248683D01*
X297257Y248756D01*
X297330Y248828D01*
X297395Y248886D01*
X297461Y248937D01*
X297518Y248973D01*
X297562Y249009D01*
X297591Y249024D01*
X297598Y249031D01*
X297750Y249132D01*
X297823Y249176D01*
X297881Y249219D01*
X297932Y249249D01*
X297968Y249277D01*
X297997Y249292D01*
X298004Y249299D01*
X298135Y249401D01*
X298185Y249444D01*
X298236Y249488D01*
X298272Y249524D01*
X298302Y249553D01*
X298316Y249575D01*
X298323Y249582D01*
X298367Y249640D01*
X298396Y249705D01*
X298417Y249770D01*
X298432Y249836D01*
X298439Y249886D01*
X298446Y249937D01*
Y249966D01*
Y249974D01*
X298432Y250068D01*
X298403Y250148D01*
X298367Y250227D01*
X298316Y250292D01*
X298272Y250350D01*
X298229Y250394D01*
X298200Y250423D01*
X298193Y250430D01*
X298113Y250488D01*
X298041Y250539D01*
X298019Y250553D01*
X297997Y250568D01*
X297983Y250575D01*
X297975D01*
X297888Y250611D01*
X297816Y250626D01*
X297794Y250633D01*
X297750D01*
X297707Y250626D01*
X297671Y250611D01*
X297598Y250568D01*
X297569Y250546D01*
X297548Y250524D01*
X297540Y250510D01*
X297533Y250503D01*
X297497Y250452D01*
X297475Y250401D01*
X297446Y250292D01*
X297439Y250249D01*
X297431Y250213D01*
Y250184D01*
Y250177D01*
X297439Y250031D01*
X297446Y249966D01*
X297453Y249908D01*
X297461Y249865D01*
X297468Y249829D01*
X297475Y249799D01*
Y249792D01*
X296119Y250191D01*
X296105Y250300D01*
X296090Y250387D01*
X296083Y250423D01*
X296076Y250452D01*
Y250466D01*
Y250474D01*
X296061Y250568D01*
X296054Y250655D01*
Y250691D01*
Y250720D01*
Y250735D01*
Y250742D01*
X296061Y250844D01*
X296069Y250945D01*
X296112Y251119D01*
X296163Y251264D01*
X296228Y251387D01*
X296293Y251482D01*
X296351Y251547D01*
X296395Y251590D01*
X296402Y251605D01*
X296409D01*
X296540Y251684D01*
X296605Y251721D01*
X296670Y251743D01*
X296721Y251764D01*
X296764Y251779D01*
X296794Y251793D01*
X296801D01*
X296888Y251815D01*
X296989Y251830D01*
X297083Y251844D01*
X297178Y251851D01*
X297265Y251858D01*
X297388D01*
X297526Y251851D01*
D02*
G37*
G36*
X332152D02*
X332304Y251830D01*
X332449Y251800D01*
X332587Y251771D01*
X332710Y251735D01*
X332761Y251721D01*
X332804Y251706D01*
X332840Y251692D01*
X332870Y251684D01*
X332884Y251677D01*
X332891D01*
X333080Y251605D01*
X333254Y251525D01*
X333420Y251445D01*
X333558Y251373D01*
X333674Y251300D01*
X333725Y251271D01*
X333761Y251242D01*
X333798Y251220D01*
X333819Y251206D01*
X333834Y251199D01*
X333841Y251191D01*
X333993Y251076D01*
X334138Y250952D01*
X334261Y250829D01*
X334363Y250713D01*
X334450Y250619D01*
X334515Y250539D01*
X334537Y250510D01*
X334552Y250488D01*
X334566Y250474D01*
Y250466D01*
X334660Y250307D01*
X334733Y250148D01*
X334784Y249988D01*
X334820Y249843D01*
X334841Y249720D01*
X334849Y249669D01*
Y249625D01*
X334856Y249589D01*
Y249560D01*
Y249546D01*
Y249538D01*
X334849Y249444D01*
X334834Y249350D01*
X334805Y249263D01*
X334776Y249176D01*
X334697Y249009D01*
X334595Y248864D01*
X334501Y248748D01*
X334457Y248697D01*
X334421Y248654D01*
X334392Y248618D01*
X334363Y248596D01*
X334349Y248582D01*
X334341Y248574D01*
X334182Y248429D01*
X334102Y248364D01*
X334030Y248306D01*
X333972Y248255D01*
X333921Y248219D01*
X333892Y248197D01*
X333877Y248190D01*
X333783Y248125D01*
X333696Y248060D01*
X333616Y248002D01*
X333551Y247951D01*
X333493Y247907D01*
X333450Y247871D01*
X333420Y247849D01*
X333413Y247842D01*
X333333Y247777D01*
X333261Y247711D01*
X333203Y247646D01*
X333152Y247596D01*
X333109Y247545D01*
X333080Y247509D01*
X333058Y247480D01*
X333051Y247472D01*
X333000Y247400D01*
X332964Y247327D01*
X332935Y247255D01*
X332920Y247189D01*
X332906Y247131D01*
X332898Y247088D01*
Y247059D01*
Y247044D01*
X332906Y246957D01*
X332935Y246885D01*
X332971Y246820D01*
X333014Y246762D01*
X333058Y246711D01*
X333094Y246675D01*
X333123Y246653D01*
X333131Y246646D01*
X333210Y246595D01*
X333283Y246566D01*
X333312Y246551D01*
X333333Y246544D01*
X333348Y246537D01*
X333355D01*
X333457Y246515D01*
X333558Y246508D01*
X333602Y246501D01*
X333667D01*
X333739Y246508D01*
X333826Y246537D01*
X333921Y246573D01*
X334008Y246609D01*
X334087Y246653D01*
X334153Y246682D01*
X334196Y246711D01*
X334204Y246718D01*
X334211D01*
X334341Y246798D01*
X334443Y246885D01*
X334530Y246965D01*
X334602Y247037D01*
X334653Y247095D01*
X334682Y247146D01*
X334704Y247175D01*
X334711Y247189D01*
X335407Y245819D01*
X335277Y245674D01*
X335153Y245544D01*
X335023Y245435D01*
X334892Y245341D01*
X334762Y245254D01*
X334646Y245188D01*
X334523Y245130D01*
X334414Y245087D01*
X334312Y245058D01*
X334218Y245029D01*
X334138Y245015D01*
X334066Y245000D01*
X334008Y244993D01*
X333964Y244986D01*
X333928D01*
X333725Y244993D01*
X333537Y245015D01*
X333355Y245043D01*
X333181Y245087D01*
X333022Y245130D01*
X332877Y245188D01*
X332739Y245247D01*
X332616Y245304D01*
X332500Y245362D01*
X332405Y245421D01*
X332318Y245479D01*
X332253Y245522D01*
X332195Y245566D01*
X332152Y245595D01*
X332130Y245616D01*
X332123Y245623D01*
X331992Y245754D01*
X331876Y245892D01*
X331775Y246029D01*
X331688Y246167D01*
X331615Y246312D01*
X331550Y246457D01*
X331499Y246588D01*
X331463Y246726D01*
X331434Y246849D01*
X331405Y246957D01*
X331391Y247059D01*
X331383Y247146D01*
X331376Y247218D01*
X331369Y247276D01*
Y247305D01*
Y247320D01*
X331376Y247472D01*
X331391Y247624D01*
X331412Y247762D01*
X331434Y247893D01*
X331470Y248009D01*
X331506Y248125D01*
X331550Y248226D01*
X331586Y248321D01*
X331630Y248400D01*
X331673Y248473D01*
X331710Y248538D01*
X331738Y248589D01*
X331768Y248632D01*
X331789Y248661D01*
X331804Y248676D01*
X331811Y248683D01*
X331884Y248756D01*
X331956Y248828D01*
X332021Y248886D01*
X332086Y248937D01*
X332144Y248973D01*
X332188Y249009D01*
X332217Y249024D01*
X332224Y249031D01*
X332377Y249132D01*
X332449Y249176D01*
X332507Y249219D01*
X332558Y249249D01*
X332594Y249277D01*
X332623Y249292D01*
X332630Y249299D01*
X332761Y249401D01*
X332811Y249444D01*
X332862Y249488D01*
X332898Y249524D01*
X332927Y249553D01*
X332942Y249575D01*
X332949Y249582D01*
X332993Y249640D01*
X333022Y249705D01*
X333044Y249770D01*
X333058Y249836D01*
X333065Y249886D01*
X333072Y249937D01*
Y249966D01*
Y249974D01*
X333058Y250068D01*
X333029Y250148D01*
X332993Y250227D01*
X332942Y250292D01*
X332898Y250350D01*
X332855Y250394D01*
X332826Y250423D01*
X332819Y250430D01*
X332739Y250488D01*
X332666Y250539D01*
X332645Y250553D01*
X332623Y250568D01*
X332609Y250575D01*
X332601D01*
X332514Y250611D01*
X332442Y250626D01*
X332420Y250633D01*
X332377D01*
X332333Y250626D01*
X332297Y250611D01*
X332224Y250568D01*
X332195Y250546D01*
X332173Y250524D01*
X332166Y250510D01*
X332159Y250503D01*
X332123Y250452D01*
X332101Y250401D01*
X332072Y250292D01*
X332065Y250249D01*
X332057Y250213D01*
Y250184D01*
Y250177D01*
X332065Y250031D01*
X332072Y249966D01*
X332079Y249908D01*
X332086Y249865D01*
X332094Y249829D01*
X332101Y249799D01*
Y249792D01*
X330745Y250191D01*
X330731Y250300D01*
X330716Y250387D01*
X330709Y250423D01*
X330702Y250452D01*
Y250466D01*
Y250474D01*
X330687Y250568D01*
X330680Y250655D01*
Y250691D01*
Y250720D01*
Y250735D01*
Y250742D01*
X330687Y250844D01*
X330695Y250945D01*
X330738Y251119D01*
X330789Y251264D01*
X330854Y251387D01*
X330919Y251482D01*
X330977Y251547D01*
X331021Y251590D01*
X331028Y251605D01*
X331035D01*
X331166Y251684D01*
X331231Y251721D01*
X331296Y251743D01*
X331347Y251764D01*
X331391Y251779D01*
X331419Y251793D01*
X331427D01*
X331514Y251815D01*
X331615Y251830D01*
X331710Y251844D01*
X331804Y251851D01*
X331891Y251858D01*
X332014D01*
X332152Y251851D01*
D02*
G37*
G36*
X304167Y252112D02*
X304471Y252047D01*
X304616Y252018D01*
X304754Y251989D01*
X304877Y251967D01*
X305000Y251953D01*
X305109Y251931D01*
X305204Y251924D01*
X305291Y251909D01*
X305363Y251902D01*
X305421Y251895D01*
X305465Y251887D01*
X305501D01*
X305573Y251547D01*
X305646Y251220D01*
X305682Y251068D01*
X305711Y250916D01*
X305740Y250771D01*
X305762Y250641D01*
X305791Y250517D01*
X305805Y250409D01*
X305827Y250314D01*
X305841Y250235D01*
X305856Y250162D01*
X305863Y250118D01*
X305871Y250082D01*
Y250075D01*
X305900Y249908D01*
X305928Y249756D01*
X305950Y249604D01*
X305979Y249466D01*
X306001Y249336D01*
X306023Y249219D01*
X306045Y249111D01*
X306059Y249016D01*
X306073Y248930D01*
X306088Y248850D01*
X306102Y248784D01*
X306110Y248734D01*
X306124Y248690D01*
Y248654D01*
X306132Y248639D01*
Y248632D01*
X306168Y248444D01*
X306197Y248284D01*
X306219Y248147D01*
X306240Y248030D01*
X306255Y247943D01*
X306262Y247885D01*
X306269Y247849D01*
Y247835D01*
X306298Y247646D01*
X306320Y247559D01*
X306334Y247480D01*
X306349Y247414D01*
X306356Y247363D01*
X306371Y247335D01*
Y247320D01*
X306393Y247233D01*
X306421Y247146D01*
X306451Y247074D01*
X306472Y247008D01*
X306494Y246957D01*
X306508Y246921D01*
X306516Y246892D01*
X306523Y246885D01*
X306559Y246820D01*
X306595Y246776D01*
X306632Y246740D01*
X306668Y246718D01*
X306697Y246704D01*
X306726Y246696D01*
X306748D01*
X306849Y246711D01*
X306936Y246733D01*
X306973Y246747D01*
X307001Y246755D01*
X307016Y246769D01*
X307023D01*
X307067Y246798D01*
X307110Y246827D01*
X307139Y246856D01*
X307168Y246878D01*
X307197Y246921D01*
X307205Y246929D01*
Y246936D01*
X307850Y245486D01*
X307727Y245399D01*
X307603Y245326D01*
X307487Y245261D01*
X307371Y245203D01*
X307262Y245152D01*
X307161Y245116D01*
X307067Y245080D01*
X306980Y245058D01*
X306893Y245036D01*
X306827Y245022D01*
X306762Y245007D01*
X306712Y245000D01*
X306668Y244993D01*
X306610D01*
X306480Y245000D01*
X306356Y245029D01*
X306240Y245073D01*
X306132Y245123D01*
X306030Y245181D01*
X305936Y245254D01*
X305849Y245326D01*
X305762Y245406D01*
X305689Y245486D01*
X305631Y245558D01*
X305573Y245631D01*
X305530Y245689D01*
X305493Y245747D01*
X305465Y245783D01*
X305450Y245812D01*
X305443Y245819D01*
X305370Y245957D01*
X305305Y246102D01*
X305247Y246240D01*
X305204Y246363D01*
X305167Y246472D01*
X305153Y246515D01*
X305138Y246559D01*
X305131Y246588D01*
X305124Y246609D01*
X305117Y246624D01*
Y246631D01*
X305073Y246805D01*
X305030Y246987D01*
X304986Y247161D01*
X304950Y247320D01*
X304935Y247393D01*
X304921Y247458D01*
X304906Y247516D01*
X304899Y247567D01*
X304892Y247610D01*
X304885Y247639D01*
X304877Y247661D01*
Y247668D01*
X304863Y247726D01*
X304855Y247798D01*
X304819Y247951D01*
X304783Y248125D01*
X304747Y248321D01*
X304703Y248531D01*
X304660Y248748D01*
X304566Y249183D01*
X304522Y249394D01*
X304479Y249597D01*
X304442Y249778D01*
X304406Y249937D01*
X304392Y250003D01*
X304377Y250068D01*
X304370Y250126D01*
X304355Y250169D01*
X304348Y250205D01*
Y250235D01*
X304341Y250249D01*
Y250256D01*
X304254Y250633D01*
X304210Y250815D01*
X304167Y250989D01*
X304123Y251155D01*
X304087Y251315D01*
X304044Y251467D01*
X304007Y251605D01*
X303971Y251735D01*
X303942Y251851D01*
X303913Y251953D01*
X303884Y252032D01*
X303870Y252098D01*
X303855Y252149D01*
X303840Y252185D01*
Y252192D01*
X304167Y252112D01*
D02*
G37*
G36*
X350581Y252134D02*
X350487Y252062D01*
X350400Y251982D01*
X350320Y251902D01*
X350255Y251822D01*
X350197Y251757D01*
X350161Y251706D01*
X350132Y251670D01*
X350125Y251656D01*
X350023Y251496D01*
X349936Y251322D01*
X349856Y251148D01*
X349791Y250967D01*
X349733Y250785D01*
X349682Y250611D01*
X349646Y250437D01*
X349617Y250271D01*
X349595Y250111D01*
X349573Y249966D01*
X349559Y249843D01*
X349552Y249727D01*
X349545Y249633D01*
Y249568D01*
Y249524D01*
Y249517D01*
Y249510D01*
X349552Y249249D01*
X349573Y248995D01*
X349603Y248748D01*
X349646Y248509D01*
X349690Y248284D01*
X349747Y248060D01*
X349805Y247856D01*
X349864Y247668D01*
X349921Y247494D01*
X349979Y247342D01*
X350038Y247204D01*
X350081Y247088D01*
X350125Y246994D01*
X350153Y246929D01*
X350175Y246885D01*
X350183Y246878D01*
Y246870D01*
X350313Y246631D01*
X350451Y246407D01*
X350603Y246203D01*
X350755Y246015D01*
X350907Y245848D01*
X351060Y245696D01*
X351205Y245558D01*
X351350Y245442D01*
X351487Y245334D01*
X351611Y245247D01*
X351719Y245174D01*
X351821Y245116D01*
X351901Y245073D01*
X351959Y245036D01*
X351995Y245022D01*
X352010Y245015D01*
X351161Y243717D01*
X351060Y243767D01*
X350958Y243818D01*
X350755Y243934D01*
X350567Y244065D01*
X350393Y244195D01*
X350320Y244253D01*
X350248Y244311D01*
X350183Y244362D01*
X350132Y244406D01*
X350088Y244442D01*
X350059Y244471D01*
X350038Y244485D01*
X350030Y244493D01*
X349813Y244703D01*
X349610Y244928D01*
X349421Y245152D01*
X349262Y245362D01*
X349189Y245457D01*
X349131Y245544D01*
X349073Y245623D01*
X349030Y245689D01*
X348993Y245747D01*
X348965Y245783D01*
X348950Y245812D01*
X348943Y245819D01*
X348769Y246116D01*
X348609Y246428D01*
X348471Y246718D01*
X348406Y246863D01*
X348348Y246994D01*
X348305Y247117D01*
X348254Y247233D01*
X348218Y247327D01*
X348189Y247414D01*
X348160Y247487D01*
X348145Y247537D01*
X348131Y247567D01*
Y247581D01*
X348073Y247769D01*
X348022Y247951D01*
X347942Y248328D01*
X347913Y248502D01*
X347884Y248676D01*
X347863Y248843D01*
X347848Y249002D01*
X347833Y249140D01*
X347819Y249270D01*
X347812Y249386D01*
Y249488D01*
X347804Y249568D01*
Y249625D01*
Y249662D01*
Y249676D01*
Y249872D01*
X347819Y250061D01*
X347863Y250430D01*
X347928Y250785D01*
X348007Y251119D01*
X348109Y251431D01*
X348218Y251721D01*
X348334Y251996D01*
X348457Y252243D01*
X348580Y252467D01*
X348696Y252663D01*
X348805Y252830D01*
X348856Y252910D01*
X348906Y252975D01*
X348950Y253033D01*
X348986Y253084D01*
X349023Y253134D01*
X349051Y253171D01*
X349080Y253200D01*
X349095Y253222D01*
X349102Y253229D01*
X349110Y253236D01*
X350581Y252134D01*
D02*
G37*
G36*
X359361Y253011D02*
X359593Y252786D01*
X359810Y252576D01*
X359905Y252475D01*
X359992Y252380D01*
X360071Y252286D01*
X360144Y252206D01*
X360209Y252141D01*
X360260Y252076D01*
X360296Y252025D01*
X360332Y251989D01*
X360347Y251967D01*
X360354Y251960D01*
X360507Y251764D01*
X360644Y251569D01*
X360775Y251365D01*
X360898Y251170D01*
X361014Y250967D01*
X361123Y250764D01*
X361217Y250568D01*
X361311Y250365D01*
X361391Y250169D01*
X361471Y249974D01*
X361601Y249589D01*
X361710Y249227D01*
X361797Y248879D01*
X361870Y248560D01*
X361898Y248408D01*
X361920Y248270D01*
X361942Y248132D01*
X361957Y248009D01*
X361971Y247893D01*
X361978Y247784D01*
X361993Y247690D01*
Y247603D01*
X362000Y247530D01*
X362007Y247472D01*
Y247422D01*
Y247385D01*
Y247363D01*
Y247356D01*
X362000Y247110D01*
X361985Y246870D01*
X361957Y246638D01*
X361928Y246421D01*
X361891Y246211D01*
X361848Y246015D01*
X361797Y245841D01*
X361746Y245674D01*
X361703Y245522D01*
X361652Y245392D01*
X361609Y245275D01*
X361572Y245181D01*
X361543Y245101D01*
X361514Y245043D01*
X361500Y245015D01*
X361492Y245000D01*
X361405Y244833D01*
X361311Y244688D01*
X361210Y244543D01*
X361108Y244420D01*
X361014Y244304D01*
X360912Y244195D01*
X360811Y244101D01*
X360717Y244021D01*
X360630Y243949D01*
X360550Y243883D01*
X360477Y243833D01*
X360412Y243789D01*
X360362Y243760D01*
X360325Y243739D01*
X360296Y243724D01*
X360289Y243717D01*
X359064Y244841D01*
X359158Y244891D01*
X359245Y244956D01*
X359332Y245022D01*
X359419Y245101D01*
X359571Y245261D01*
X359709Y245421D01*
X359825Y245573D01*
X359869Y245638D01*
X359912Y245696D01*
X359941Y245747D01*
X359963Y245783D01*
X359977Y245805D01*
X359984Y245812D01*
X360071Y245964D01*
X360144Y246109D01*
X360209Y246254D01*
X360260Y246399D01*
X360311Y246537D01*
X360347Y246675D01*
X360376Y246798D01*
X360405Y246921D01*
X360420Y247030D01*
X360434Y247124D01*
X360449Y247211D01*
X360456Y247291D01*
X360463Y247349D01*
Y247393D01*
Y247422D01*
Y247429D01*
X360456Y247668D01*
X360434Y247900D01*
X360398Y248132D01*
X360354Y248357D01*
X360296Y248582D01*
X360224Y248799D01*
X360151Y249016D01*
X360064Y249227D01*
X359970Y249437D01*
X359869Y249640D01*
X359651Y250024D01*
X359419Y250387D01*
X359303Y250561D01*
X359180Y250720D01*
X359064Y250880D01*
X358948Y251032D01*
X358824Y251170D01*
X358716Y251300D01*
X358600Y251424D01*
X358498Y251539D01*
X358397Y251648D01*
X358302Y251743D01*
X358215Y251830D01*
X358143Y251902D01*
X358070Y251967D01*
X358013Y252025D01*
X357969Y252062D01*
X357933Y252098D01*
X357911Y252112D01*
X357904Y252119D01*
X359100Y253236D01*
X359361Y253011D01*
D02*
G37*
G36*
X343542Y251938D02*
X343889Y251909D01*
X344237Y251866D01*
X344411Y251844D01*
X344571Y251822D01*
X344730Y251793D01*
X344868Y251771D01*
X344991Y251750D01*
X345108Y251728D01*
X345195Y251706D01*
X345260Y251699D01*
X345303Y251684D01*
X345318D01*
X345412Y251054D01*
X345456Y250749D01*
X345499Y250445D01*
X345550Y250155D01*
X345586Y249879D01*
X345630Y249618D01*
X345666Y249372D01*
X345702Y249147D01*
X345731Y248944D01*
X345760Y248763D01*
X345775Y248690D01*
X345789Y248618D01*
X345796Y248552D01*
X345803Y248495D01*
X345811Y248444D01*
X345818Y248400D01*
X345825Y248371D01*
X345832Y248349D01*
Y248335D01*
Y248328D01*
X345941Y247704D01*
X345999Y247400D01*
X346057Y247110D01*
X346115Y246820D01*
X346173Y246544D01*
X346231Y246290D01*
X346289Y246044D01*
X346340Y245827D01*
X346391Y245623D01*
X346434Y245449D01*
X346449Y245370D01*
X346470Y245297D01*
X346485Y245232D01*
X346499Y245174D01*
X346514Y245130D01*
X346521Y245087D01*
X346529Y245058D01*
X346536Y245036D01*
X346543Y245022D01*
Y245015D01*
X346318Y244986D01*
X346210Y244978D01*
X346108Y244971D01*
X346021Y244964D01*
X345898D01*
X345593Y244978D01*
X345296Y245007D01*
X345158Y245029D01*
X345021Y245051D01*
X344897Y245073D01*
X344781Y245101D01*
X344672Y245123D01*
X344571Y245145D01*
X344491Y245167D01*
X344419Y245188D01*
X344361Y245210D01*
X344317Y245217D01*
X344288Y245232D01*
X344281D01*
X344129Y245290D01*
X343991Y245341D01*
X343861Y245399D01*
X343744Y245457D01*
X343650Y245500D01*
X343578Y245536D01*
X343549Y245551D01*
X343527Y245566D01*
X343520Y245573D01*
X343513D01*
X343382Y245653D01*
X343259Y245732D01*
X343150Y245812D01*
X343063Y245884D01*
X342983Y245942D01*
X342933Y245993D01*
X342896Y246022D01*
X342882Y246037D01*
X342788Y246138D01*
X342701Y246247D01*
X342628Y246349D01*
X342570Y246435D01*
X342519Y246522D01*
X342483Y246581D01*
X342461Y246624D01*
X342454Y246638D01*
X342403Y246762D01*
X342360Y246885D01*
X342331Y246994D01*
X342316Y247095D01*
X342302Y247182D01*
X342295Y247248D01*
Y247291D01*
Y247305D01*
X342302Y247480D01*
X342323Y247646D01*
X342360Y247798D01*
X342410Y247936D01*
X342469Y248067D01*
X342534Y248183D01*
X342599Y248284D01*
X342664Y248378D01*
X342737Y248465D01*
X342802Y248538D01*
X342867Y248596D01*
X342925Y248647D01*
X342969Y248683D01*
X343012Y248712D01*
X343034Y248727D01*
X343041Y248734D01*
X342947Y248770D01*
X342853Y248821D01*
X342679Y248922D01*
X342527Y249038D01*
X342396Y249154D01*
X342287Y249263D01*
X342244Y249314D01*
X342208Y249357D01*
X342179Y249386D01*
X342157Y249415D01*
X342149Y249430D01*
X342142Y249437D01*
X342077Y249538D01*
X342019Y249640D01*
X341968Y249734D01*
X341925Y249821D01*
X341888Y249901D01*
X341867Y249959D01*
X341852Y249995D01*
X341845Y250010D01*
X341809Y250126D01*
X341780Y250249D01*
X341758Y250358D01*
X341743Y250466D01*
X341736Y250553D01*
X341729Y250626D01*
Y250648D01*
Y250670D01*
Y250677D01*
Y250684D01*
X341736Y250815D01*
X341751Y250931D01*
X341780Y251039D01*
X341802Y251126D01*
X341830Y251199D01*
X341860Y251250D01*
X341874Y251278D01*
X341881Y251293D01*
X341954Y251409D01*
X342048Y251511D01*
X342142Y251597D01*
X342244Y251677D01*
X342353Y251735D01*
X342469Y251793D01*
X342577Y251837D01*
X342686Y251873D01*
X342795Y251895D01*
X342889Y251917D01*
X342983Y251931D01*
X343056Y251945D01*
X343121D01*
X343172Y251953D01*
X343375D01*
X343542Y251938D01*
D02*
G37*
G36*
X317790Y251902D02*
X317942Y251873D01*
X318087Y251837D01*
X318232Y251786D01*
X318370Y251721D01*
X318500Y251656D01*
X318623Y251576D01*
X318739Y251503D01*
X318841Y251431D01*
X318935Y251351D01*
X319022Y251286D01*
X319094Y251228D01*
X319145Y251170D01*
X319189Y251133D01*
X319218Y251104D01*
X319225Y251097D01*
X319356Y250952D01*
X319479Y250807D01*
X319602Y250655D01*
X319711Y250496D01*
X319812Y250336D01*
X319906Y250184D01*
X320001Y250031D01*
X320080Y249886D01*
X320146Y249749D01*
X320211Y249618D01*
X320269Y249510D01*
X320312Y249408D01*
X320349Y249328D01*
X320371Y249270D01*
X320385Y249234D01*
X320392Y249219D01*
X320472Y249009D01*
X320537Y248799D01*
X320595Y248603D01*
X320646Y248408D01*
X320690Y248219D01*
X320726Y248038D01*
X320755Y247871D01*
X320777Y247711D01*
X320798Y247567D01*
X320813Y247443D01*
X320820Y247327D01*
X320827Y247233D01*
X320834Y247153D01*
Y247095D01*
Y247066D01*
Y247052D01*
X320827Y246885D01*
X320820Y246733D01*
X320798Y246581D01*
X320777Y246443D01*
X320747Y246312D01*
X320719Y246196D01*
X320682Y246088D01*
X320646Y245986D01*
X320610Y245899D01*
X320573Y245819D01*
X320545Y245754D01*
X320515Y245703D01*
X320494Y245660D01*
X320472Y245623D01*
X320465Y245609D01*
X320458Y245602D01*
X320378Y245508D01*
X320298Y245421D01*
X320211Y245341D01*
X320131Y245283D01*
X320066Y245232D01*
X320008Y245196D01*
X319972Y245174D01*
X319957Y245167D01*
X319834Y245116D01*
X319704Y245073D01*
X319580Y245043D01*
X319457Y245029D01*
X319356Y245015D01*
X319268Y245007D01*
X319196D01*
X319029Y245015D01*
X318877Y245036D01*
X318732Y245073D01*
X318601Y245109D01*
X318500Y245145D01*
X318457Y245167D01*
X318420Y245181D01*
X318384Y245188D01*
X318362Y245203D01*
X318355Y245210D01*
X318348D01*
X318203Y245290D01*
X318065Y245384D01*
X317934Y245486D01*
X317811Y245587D01*
X317695Y245703D01*
X317586Y245812D01*
X317485Y245928D01*
X317398Y246037D01*
X317318Y246138D01*
X317246Y246240D01*
X317188Y246327D01*
X317137Y246407D01*
X317093Y246472D01*
X317064Y246515D01*
X317050Y246551D01*
X317043Y246559D01*
X316905Y246827D01*
X316789Y247102D01*
X316687Y247371D01*
X316600Y247639D01*
X316521Y247900D01*
X316463Y248154D01*
X316412Y248393D01*
X316369Y248625D01*
X316339Y248835D01*
X316318Y249024D01*
X316296Y249198D01*
X316289Y249343D01*
X316282Y249401D01*
Y249459D01*
X316274Y249510D01*
Y249546D01*
Y249575D01*
Y249597D01*
Y249611D01*
Y249618D01*
Y249799D01*
X316289Y249974D01*
X316303Y250140D01*
X316325Y250292D01*
X316347Y250437D01*
X316376Y250568D01*
X316405Y250691D01*
X316434Y250800D01*
X316470Y250902D01*
X316499Y250989D01*
X316528Y251061D01*
X316550Y251126D01*
X316571Y251170D01*
X316586Y251206D01*
X316593Y251228D01*
X316600Y251235D01*
X316673Y251351D01*
X316753Y251460D01*
X316832Y251547D01*
X316919Y251626D01*
X317006Y251692D01*
X317093Y251743D01*
X317173Y251786D01*
X317260Y251822D01*
X317333Y251851D01*
X317405Y251873D01*
X317471Y251887D01*
X317529Y251902D01*
X317572D01*
X317608Y251909D01*
X317637D01*
X317790Y251902D01*
D02*
G37*
G36*
X355729Y251858D02*
X355859Y251851D01*
X355982Y251830D01*
X356106Y251800D01*
X356330Y251735D01*
X356432Y251692D01*
X356526Y251656D01*
X356613Y251619D01*
X356693Y251576D01*
X356758Y251539D01*
X356816Y251511D01*
X356867Y251482D01*
X356896Y251467D01*
X356918Y251452D01*
X356925Y251445D01*
X357142Y251278D01*
X357346Y251097D01*
X357527Y250909D01*
X357679Y250735D01*
X357744Y250655D01*
X357802Y250575D01*
X357853Y250510D01*
X357896Y250452D01*
X357933Y250401D01*
X357955Y250365D01*
X357969Y250343D01*
X357976Y250336D01*
X358136Y250075D01*
X358274Y249807D01*
X358389Y249546D01*
X358440Y249423D01*
X358484Y249307D01*
X358527Y249198D01*
X358563Y249103D01*
X358593Y249016D01*
X358622Y248937D01*
X358636Y248879D01*
X358650Y248828D01*
X358665Y248799D01*
Y248792D01*
X358745Y248473D01*
X358803Y248154D01*
X358846Y247849D01*
X358861Y247711D01*
X358875Y247581D01*
X358882Y247458D01*
X358890Y247349D01*
X358897Y247248D01*
Y247168D01*
X358904Y247102D01*
Y247052D01*
Y247016D01*
Y247008D01*
X358897Y246842D01*
X358890Y246675D01*
X358868Y246522D01*
X358846Y246385D01*
X358817Y246247D01*
X358781Y246124D01*
X358745Y246015D01*
X358709Y245914D01*
X358680Y245819D01*
X358643Y245740D01*
X358607Y245667D01*
X358578Y245609D01*
X358556Y245566D01*
X358535Y245536D01*
X358527Y245515D01*
X358520Y245508D01*
X358448Y245413D01*
X358375Y245334D01*
X358295Y245268D01*
X358215Y245203D01*
X358136Y245152D01*
X358056Y245116D01*
X357976Y245080D01*
X357904Y245051D01*
X357766Y245015D01*
X357708Y245000D01*
X357657Y244993D01*
X357621D01*
X357592Y244986D01*
X357563D01*
X357447Y244993D01*
X357331Y245007D01*
X357222Y245029D01*
X357106Y245065D01*
X356903Y245145D01*
X356809Y245188D01*
X356722Y245239D01*
X356642Y245283D01*
X356562Y245326D01*
X356505Y245370D01*
X356447Y245406D01*
X356403Y245442D01*
X356374Y245464D01*
X356352Y245479D01*
X356345Y245486D01*
X356222Y245595D01*
X356106Y245710D01*
X355888Y245964D01*
X355794Y246095D01*
X355707Y246218D01*
X355620Y246341D01*
X355547Y246464D01*
X355482Y246573D01*
X355424Y246682D01*
X355374Y246776D01*
X355330Y246856D01*
X355301Y246921D01*
X355279Y246972D01*
X355265Y247008D01*
X355258Y247016D01*
X356330Y247443D01*
X356367Y247327D01*
X356417Y247218D01*
X356468Y247117D01*
X356526Y247023D01*
X356577Y246950D01*
X356621Y246892D01*
X356649Y246856D01*
X356664Y246842D01*
X356758Y246747D01*
X356845Y246675D01*
X356932Y246631D01*
X357005Y246595D01*
X357063Y246573D01*
X357106Y246566D01*
X357142Y246559D01*
X357150D01*
X357201Y246566D01*
X357244Y246581D01*
X357280Y246602D01*
X357316Y246631D01*
X357360Y246711D01*
X357396Y246798D01*
X357418Y246878D01*
X357425Y246957D01*
X357433Y246987D01*
Y247008D01*
Y247023D01*
Y247030D01*
X357418Y247218D01*
X357389Y247422D01*
X357353Y247632D01*
X357302Y247828D01*
X357280Y247915D01*
X357259Y248002D01*
X357237Y248074D01*
X357215Y248139D01*
X357201Y248197D01*
X357186Y248234D01*
X357179Y248263D01*
Y248270D01*
X357135Y248400D01*
X357092Y248523D01*
X357048Y248639D01*
X357012Y248748D01*
X356976Y248835D01*
X356947Y248901D01*
X356932Y248944D01*
X356925Y248951D01*
Y248958D01*
X356867Y249089D01*
X356809Y249205D01*
X356758Y249307D01*
X356715Y249401D01*
X356671Y249473D01*
X356642Y249531D01*
X356621Y249568D01*
X356613Y249582D01*
X356555Y249683D01*
X356497Y249770D01*
X356439Y249843D01*
X356388Y249908D01*
X356345Y249959D01*
X356316Y250003D01*
X356294Y250024D01*
X356287Y250031D01*
X356229Y250090D01*
X356171Y250133D01*
X356113Y250162D01*
X356069Y250184D01*
X356033Y250198D01*
X355997Y250205D01*
X355975D01*
X355917Y250198D01*
X355867Y250169D01*
X355823Y250133D01*
X355787Y250097D01*
X355750Y250053D01*
X355729Y250017D01*
X355714Y249988D01*
X355707Y249981D01*
X354482Y250307D01*
X354474Y250350D01*
Y250394D01*
Y250423D01*
Y250430D01*
Y250546D01*
Y250655D01*
X354489Y250757D01*
X354525Y250945D01*
X354576Y251112D01*
X354634Y251250D01*
X354663Y251308D01*
X354692Y251365D01*
X354721Y251409D01*
X354743Y251445D01*
X354765Y251474D01*
X354779Y251496D01*
X354786Y251503D01*
X354794Y251511D01*
X354859Y251576D01*
X354924Y251626D01*
X354989Y251677D01*
X355054Y251713D01*
X355192Y251779D01*
X355315Y251822D01*
X355424Y251844D01*
X355475Y251858D01*
X355511D01*
X355547Y251866D01*
X355591D01*
X355729Y251858D01*
D02*
G37*
G36*
X335451Y248901D02*
X335733Y248893D01*
X336009Y248879D01*
X336371D01*
X336473Y248871D01*
X337017D01*
X337111Y248879D01*
X337212D01*
X337321Y248886D01*
X337539Y248893D01*
X337741D01*
X337836Y248901D01*
X337915D01*
X337988Y248908D01*
X338082D01*
X338532Y247248D01*
X338242D01*
X338155Y247255D01*
X337959D01*
X337828Y247262D01*
X337684D01*
X337539Y247269D01*
X336842D01*
X336726Y247262D01*
X336596D01*
X336458Y247255D01*
X336183D01*
X336045Y247248D01*
X335922D01*
X335799Y247240D01*
X335697D01*
X335610Y247233D01*
X335487D01*
X335168Y248915D01*
X335451Y248901D01*
D02*
G37*
G36*
X290022Y252011D02*
X290203Y251982D01*
X290377Y251931D01*
X290544Y251880D01*
X290624Y251851D01*
X290689Y251822D01*
X290754Y251800D01*
X290805Y251771D01*
X290848Y251757D01*
X290878Y251743D01*
X290899Y251728D01*
X290907D01*
X291022Y251670D01*
X291131Y251605D01*
X291341Y251467D01*
X291537Y251322D01*
X291704Y251177D01*
X291776Y251104D01*
X291842Y251039D01*
X291900Y250989D01*
X291950Y250938D01*
X291994Y250894D01*
X292023Y250865D01*
X292038Y250844D01*
X292045Y250836D01*
X292233Y250597D01*
X292407Y250350D01*
X292552Y250097D01*
X292683Y249857D01*
X292734Y249749D01*
X292784Y249655D01*
X292828Y249560D01*
X292857Y249488D01*
X292886Y249423D01*
X292908Y249379D01*
X292915Y249343D01*
X292922Y249336D01*
X292980Y249162D01*
X293038Y248988D01*
X293125Y248632D01*
X293183Y248277D01*
X293205Y248110D01*
X293227Y247951D01*
X293241Y247806D01*
X293248Y247668D01*
X293263Y247545D01*
Y247443D01*
X293270Y247356D01*
Y247291D01*
Y247255D01*
Y247240D01*
X293263Y247023D01*
X293248Y246820D01*
X293227Y246624D01*
X293190Y246443D01*
X293154Y246283D01*
X293110Y246131D01*
X293067Y245986D01*
X293023Y245863D01*
X292980Y245754D01*
X292929Y245660D01*
X292893Y245573D01*
X292857Y245508D01*
X292821Y245457D01*
X292799Y245413D01*
X292784Y245392D01*
X292777Y245384D01*
X292690Y245275D01*
X292596Y245181D01*
X292501Y245101D01*
X292414Y245036D01*
X292342Y244993D01*
X292284Y244956D01*
X292248Y244935D01*
X292233Y244928D01*
X292110Y244877D01*
X291994Y244841D01*
X291871Y244812D01*
X291762Y244797D01*
X291668Y244782D01*
X291588Y244775D01*
X291523D01*
X291371Y244782D01*
X291211Y244812D01*
X291066Y244848D01*
X290921Y244891D01*
X290805Y244935D01*
X290754Y244956D01*
X290711Y244971D01*
X290674Y244986D01*
X290646Y245000D01*
X290631Y245007D01*
X290624D01*
X290435Y245109D01*
X290261Y245217D01*
X290102Y245341D01*
X289964Y245449D01*
X289848Y245558D01*
X289797Y245602D01*
X289754Y245638D01*
X289725Y245674D01*
X289703Y245696D01*
X289688Y245710D01*
X289681Y245718D01*
X289522Y245906D01*
X289377Y246109D01*
X289246Y246305D01*
X289138Y246494D01*
X289094Y246581D01*
X289051Y246660D01*
X289014Y246726D01*
X288985Y246791D01*
X288956Y246842D01*
X288942Y246878D01*
X288927Y246900D01*
Y246907D01*
X288819Y247182D01*
X288739Y247465D01*
X288673Y247748D01*
X288645Y247878D01*
X288623Y248009D01*
X288608Y248125D01*
X288594Y248234D01*
X288579Y248328D01*
X288572Y248415D01*
X288565Y248480D01*
X288558Y248531D01*
Y248567D01*
Y248574D01*
X288949Y248509D01*
X289348Y248444D01*
X289551Y248415D01*
X289739Y248386D01*
X289928Y248357D01*
X290102Y248335D01*
X290261Y248306D01*
X290413Y248291D01*
X290544Y248270D01*
X290660Y248255D01*
X290754Y248241D01*
X290820Y248234D01*
X290863Y248226D01*
X290878D01*
X291052Y247298D01*
X290051Y247443D01*
X290058Y247349D01*
X290073Y247255D01*
X290116Y247081D01*
X290181Y246929D01*
X290247Y246798D01*
X290319Y246689D01*
X290348Y246646D01*
X290377Y246602D01*
X290399Y246573D01*
X290421Y246551D01*
X290428Y246544D01*
X290435Y246537D01*
X290493Y246479D01*
X290559Y246428D01*
X290616Y246385D01*
X290674Y246341D01*
X290725Y246312D01*
X290761Y246290D01*
X290791Y246283D01*
X290798Y246276D01*
X290870Y246247D01*
X290950Y246225D01*
X291022Y246203D01*
X291088Y246196D01*
X291139Y246189D01*
X291189Y246182D01*
X291226D01*
X291305Y246189D01*
X291385Y246218D01*
X291450Y246262D01*
X291515Y246305D01*
X291559Y246349D01*
X291602Y246392D01*
X291624Y246421D01*
X291632Y246428D01*
X291660Y246479D01*
X291689Y246537D01*
X291733Y246660D01*
X291762Y246798D01*
X291784Y246936D01*
X291798Y247066D01*
Y247117D01*
X291806Y247168D01*
Y247204D01*
Y247233D01*
Y247255D01*
Y247262D01*
X291791Y247480D01*
X291769Y247704D01*
X291733Y247922D01*
X291697Y248132D01*
X291653Y248335D01*
X291602Y248538D01*
X291545Y248727D01*
X291494Y248901D01*
X291436Y249060D01*
X291385Y249205D01*
X291334Y249336D01*
X291291Y249444D01*
X291254Y249531D01*
X291226Y249597D01*
X291211Y249640D01*
X291204Y249655D01*
X291109Y249843D01*
X291015Y250010D01*
X290928Y250162D01*
X290848Y250285D01*
X290783Y250387D01*
X290725Y250459D01*
X290711Y250481D01*
X290696Y250503D01*
X290682Y250510D01*
Y250517D01*
X290631Y250575D01*
X290580Y250626D01*
X290479Y250713D01*
X290392Y250771D01*
X290312Y250807D01*
X290247Y250836D01*
X290203Y250844D01*
X290167Y250851D01*
X290160D01*
X290087Y250844D01*
X290029Y250822D01*
X289964Y250785D01*
X289913Y250742D01*
X289862Y250691D01*
X289819Y250633D01*
X289746Y250503D01*
X289688Y250372D01*
X289667Y250314D01*
X289645Y250264D01*
X289631Y250220D01*
X289623Y250184D01*
X289616Y250162D01*
Y250155D01*
X288326Y250401D01*
X288333Y250532D01*
X288340Y250655D01*
X288354Y250771D01*
X288376Y250880D01*
X288405Y250981D01*
X288434Y251076D01*
X288463Y251163D01*
X288499Y251242D01*
X288528Y251308D01*
X288565Y251365D01*
X288594Y251424D01*
X288615Y251460D01*
X288645Y251496D01*
X288659Y251518D01*
X288666Y251532D01*
X288673Y251539D01*
X288746Y251619D01*
X288819Y251684D01*
X288891Y251743D01*
X288964Y251793D01*
X289029Y251837D01*
X289079Y251866D01*
X289108Y251880D01*
X289123Y251887D01*
X289232Y251931D01*
X289355Y251967D01*
X289471Y251989D01*
X289587Y252011D01*
X289688Y252018D01*
X289775Y252025D01*
X289848D01*
X290022Y252011D01*
D02*
G37*
G36*
X300788Y251931D02*
X300984Y251895D01*
X301187Y251866D01*
X301397Y251844D01*
X301825Y251793D01*
X302035Y251771D01*
X302245Y251750D01*
X302434Y251735D01*
X302615Y251713D01*
X302782Y251699D01*
X302920Y251692D01*
X303043Y251684D01*
X303086Y251677D01*
X303130D01*
X303159Y251670D01*
X303203D01*
X303246Y251511D01*
X303297Y251344D01*
X303340Y251184D01*
X303384Y251039D01*
X303420Y250916D01*
X303442Y250865D01*
X303449Y250822D01*
X303464Y250785D01*
X303471Y250757D01*
X303478Y250742D01*
Y250735D01*
X303536Y250546D01*
X303587Y250358D01*
X303638Y250177D01*
X303688Y250017D01*
X303710Y249944D01*
X303732Y249879D01*
X303746Y249821D01*
X303761Y249770D01*
X303775Y249734D01*
X303783Y249698D01*
X303790Y249683D01*
Y249676D01*
X303848Y249473D01*
X303906Y249277D01*
X303964Y249089D01*
X304014Y248922D01*
X304036Y248850D01*
X304058Y248777D01*
X304072Y248719D01*
X304087Y248669D01*
X304101Y248632D01*
X304109Y248596D01*
X304116Y248582D01*
Y248574D01*
X304145Y248465D01*
X304181Y248357D01*
X304246Y248125D01*
X304319Y247885D01*
X304384Y247661D01*
X304413Y247559D01*
X304442Y247465D01*
X304471Y247378D01*
X304493Y247305D01*
X304515Y247248D01*
X304522Y247197D01*
X304537Y247168D01*
Y247161D01*
X304587Y246994D01*
X304638Y246820D01*
X304747Y246464D01*
X304848Y246116D01*
X304899Y245942D01*
X304950Y245783D01*
X304993Y245631D01*
X305037Y245493D01*
X305073Y245370D01*
X305102Y245261D01*
X305131Y245174D01*
X305153Y245109D01*
X305160Y245065D01*
X305167Y245058D01*
Y245051D01*
X304957Y245080D01*
X304863Y245087D01*
X304783Y245094D01*
X304711Y245109D01*
X304660D01*
X304624Y245116D01*
X304609D01*
X304406Y245145D01*
X304312Y245152D01*
X304232Y245167D01*
X304159Y245174D01*
X304101Y245181D01*
X304072Y245188D01*
X304058D01*
X303957Y245203D01*
X303862Y245217D01*
X303775Y245225D01*
X303703Y245232D01*
X303645Y245247D01*
X303601D01*
X303572Y245254D01*
X303565D01*
X303188Y246602D01*
X302369D01*
X302398Y246334D01*
X302427Y246059D01*
X302456Y245790D01*
X302470Y245667D01*
X302485Y245544D01*
X302492Y245435D01*
X302506Y245334D01*
X302514Y245239D01*
X302528Y245167D01*
X302536Y245101D01*
Y245051D01*
X302543Y245022D01*
Y245015D01*
X302369Y245043D01*
X302282Y245058D01*
X302202Y245065D01*
X302137Y245080D01*
X302079Y245087D01*
X302050Y245094D01*
X302035D01*
X301934Y245116D01*
X301832Y245130D01*
X301738Y245145D01*
X301658Y245160D01*
X301586Y245167D01*
X301535Y245174D01*
X301506Y245181D01*
X301491D01*
X301296Y245210D01*
X301209Y245225D01*
X301122Y245232D01*
X301057Y245247D01*
X300998Y245254D01*
X300970Y245261D01*
X300955D01*
X300940Y245660D01*
X300926Y246059D01*
X300904Y246457D01*
X300890Y246856D01*
X300875Y247240D01*
X300853Y247617D01*
X300839Y247980D01*
X300824Y248321D01*
X300810Y248639D01*
X300803Y248784D01*
X300796Y248922D01*
X300788Y249053D01*
X300781Y249176D01*
X300774Y249292D01*
Y249394D01*
X300766Y249488D01*
Y249575D01*
X300759Y249647D01*
Y249705D01*
X300752Y249749D01*
Y249785D01*
Y249807D01*
Y249814D01*
X300745Y250046D01*
X300730Y250264D01*
X300723Y250474D01*
X300709Y250670D01*
X300694Y250858D01*
X300687Y251039D01*
X300672Y251199D01*
X300665Y251351D01*
X300651Y251489D01*
X300643Y251605D01*
X300636Y251713D01*
X300629Y251800D01*
X300622Y251866D01*
X300614Y251917D01*
Y251953D01*
Y251960D01*
X300788Y251931D01*
D02*
G37*
G36*
X327309D02*
X327504Y251895D01*
X327708Y251866D01*
X327918Y251844D01*
X328345Y251793D01*
X328556Y251771D01*
X328766Y251750D01*
X328955Y251735D01*
X329136Y251713D01*
X329303Y251699D01*
X329440Y251692D01*
X329563Y251684D01*
X329607Y251677D01*
X329650D01*
X329679Y251670D01*
X329723D01*
X329767Y251511D01*
X329817Y251344D01*
X329861Y251184D01*
X329904Y251039D01*
X329941Y250916D01*
X329962Y250865D01*
X329970Y250822D01*
X329984Y250785D01*
X329991Y250757D01*
X329998Y250742D01*
Y250735D01*
X330057Y250546D01*
X330107Y250358D01*
X330158Y250177D01*
X330209Y250017D01*
X330230Y249944D01*
X330252Y249879D01*
X330267Y249821D01*
X330281Y249770D01*
X330296Y249734D01*
X330303Y249698D01*
X330310Y249683D01*
Y249676D01*
X330368Y249473D01*
X330426Y249277D01*
X330484Y249089D01*
X330535Y248922D01*
X330557Y248850D01*
X330578Y248777D01*
X330593Y248719D01*
X330608Y248669D01*
X330622Y248632D01*
X330629Y248596D01*
X330637Y248582D01*
Y248574D01*
X330665Y248465D01*
X330702Y248357D01*
X330767Y248125D01*
X330839Y247885D01*
X330905Y247661D01*
X330934Y247559D01*
X330963Y247465D01*
X330992Y247378D01*
X331013Y247305D01*
X331035Y247248D01*
X331043Y247197D01*
X331057Y247168D01*
Y247161D01*
X331108Y246994D01*
X331158Y246820D01*
X331267Y246464D01*
X331369Y246116D01*
X331419Y245942D01*
X331470Y245783D01*
X331514Y245631D01*
X331557Y245493D01*
X331593Y245370D01*
X331623Y245261D01*
X331651Y245174D01*
X331673Y245109D01*
X331680Y245065D01*
X331688Y245058D01*
Y245051D01*
X331477Y245080D01*
X331383Y245087D01*
X331304Y245094D01*
X331231Y245109D01*
X331180D01*
X331144Y245116D01*
X331130D01*
X330926Y245145D01*
X330832Y245152D01*
X330752Y245167D01*
X330680Y245174D01*
X330622Y245181D01*
X330593Y245188D01*
X330578D01*
X330477Y245203D01*
X330383Y245217D01*
X330296Y245225D01*
X330223Y245232D01*
X330165Y245247D01*
X330122D01*
X330093Y245254D01*
X330085D01*
X329709Y246602D01*
X328889D01*
X328918Y246334D01*
X328947Y246059D01*
X328976Y245790D01*
X328991Y245667D01*
X329005Y245544D01*
X329012Y245435D01*
X329027Y245334D01*
X329034Y245239D01*
X329049Y245167D01*
X329056Y245101D01*
Y245051D01*
X329063Y245022D01*
Y245015D01*
X328889Y245043D01*
X328802Y245058D01*
X328723Y245065D01*
X328657Y245080D01*
X328599Y245087D01*
X328570Y245094D01*
X328556D01*
X328454Y245116D01*
X328353Y245130D01*
X328258Y245145D01*
X328179Y245160D01*
X328106Y245167D01*
X328056Y245174D01*
X328027Y245181D01*
X328012D01*
X327816Y245210D01*
X327729Y245225D01*
X327642Y245232D01*
X327577Y245247D01*
X327519Y245254D01*
X327490Y245261D01*
X327476D01*
X327461Y245660D01*
X327447Y246059D01*
X327425Y246457D01*
X327410Y246856D01*
X327396Y247240D01*
X327374Y247617D01*
X327360Y247980D01*
X327345Y248321D01*
X327330Y248639D01*
X327323Y248784D01*
X327316Y248922D01*
X327309Y249053D01*
X327302Y249176D01*
X327294Y249292D01*
Y249394D01*
X327287Y249488D01*
Y249575D01*
X327280Y249647D01*
Y249705D01*
X327273Y249749D01*
Y249785D01*
Y249807D01*
Y249814D01*
X327265Y250046D01*
X327251Y250264D01*
X327243Y250474D01*
X327229Y250670D01*
X327215Y250858D01*
X327207Y251039D01*
X327193Y251199D01*
X327186Y251351D01*
X327171Y251489D01*
X327164Y251605D01*
X327156Y251713D01*
X327149Y251800D01*
X327142Y251866D01*
X327135Y251917D01*
Y251953D01*
Y251960D01*
X327309Y251931D01*
D02*
G37*
G36*
X351835Y251858D02*
X351966Y251851D01*
X352089Y251830D01*
X352213Y251800D01*
X352437Y251735D01*
X352539Y251692D01*
X352633Y251656D01*
X352720Y251619D01*
X352800Y251576D01*
X352865Y251539D01*
X352923Y251511D01*
X352974Y251482D01*
X353003Y251467D01*
X353025Y251452D01*
X353032Y251445D01*
X353249Y251278D01*
X353452Y251097D01*
X353633Y250909D01*
X353786Y250735D01*
X353851Y250655D01*
X353909Y250575D01*
X353960Y250510D01*
X354003Y250452D01*
X354040Y250401D01*
X354061Y250365D01*
X354076Y250343D01*
X354083Y250336D01*
X354242Y250075D01*
X354380Y249807D01*
X354496Y249546D01*
X354547Y249423D01*
X354591Y249307D01*
X354634Y249198D01*
X354670Y249103D01*
X354699Y249016D01*
X354728Y248937D01*
X354743Y248879D01*
X354757Y248828D01*
X354772Y248799D01*
Y248792D01*
X354852Y248473D01*
X354909Y248154D01*
X354953Y247849D01*
X354967Y247711D01*
X354982Y247581D01*
X354989Y247458D01*
X354996Y247349D01*
X355004Y247248D01*
Y247168D01*
X355011Y247102D01*
Y247052D01*
Y247016D01*
Y247008D01*
X355004Y246842D01*
X354996Y246675D01*
X354975Y246522D01*
X354953Y246385D01*
X354924Y246247D01*
X354888Y246124D01*
X354852Y246015D01*
X354815Y245914D01*
X354786Y245819D01*
X354750Y245740D01*
X354714Y245667D01*
X354685Y245609D01*
X354663Y245566D01*
X354641Y245536D01*
X354634Y245515D01*
X354627Y245508D01*
X354554Y245413D01*
X354482Y245334D01*
X354402Y245268D01*
X354322Y245203D01*
X354242Y245152D01*
X354163Y245116D01*
X354083Y245080D01*
X354011Y245051D01*
X353873Y245015D01*
X353815Y245000D01*
X353764Y244993D01*
X353728D01*
X353699Y244986D01*
X353670D01*
X353554Y244993D01*
X353438Y245007D01*
X353329Y245029D01*
X353213Y245065D01*
X353010Y245145D01*
X352916Y245188D01*
X352829Y245239D01*
X352749Y245283D01*
X352669Y245326D01*
X352611Y245370D01*
X352553Y245406D01*
X352510Y245442D01*
X352481Y245464D01*
X352459Y245479D01*
X352452Y245486D01*
X352328Y245595D01*
X352213Y245710D01*
X351995Y245964D01*
X351901Y246095D01*
X351814Y246218D01*
X351727Y246341D01*
X351654Y246464D01*
X351589Y246573D01*
X351531Y246682D01*
X351480Y246776D01*
X351437Y246856D01*
X351408Y246921D01*
X351386Y246972D01*
X351372Y247008D01*
X351364Y247016D01*
X352437Y247443D01*
X352473Y247327D01*
X352524Y247218D01*
X352575Y247117D01*
X352633Y247023D01*
X352684Y246950D01*
X352727Y246892D01*
X352756Y246856D01*
X352771Y246842D01*
X352865Y246747D01*
X352952Y246675D01*
X353039Y246631D01*
X353112Y246595D01*
X353169Y246573D01*
X353213Y246566D01*
X353249Y246559D01*
X353257D01*
X353307Y246566D01*
X353351Y246581D01*
X353387Y246602D01*
X353423Y246631D01*
X353467Y246711D01*
X353503Y246798D01*
X353525Y246878D01*
X353532Y246957D01*
X353539Y246987D01*
Y247008D01*
Y247023D01*
Y247030D01*
X353525Y247218D01*
X353496Y247422D01*
X353460Y247632D01*
X353409Y247828D01*
X353387Y247915D01*
X353365Y248002D01*
X353344Y248074D01*
X353322Y248139D01*
X353307Y248197D01*
X353293Y248234D01*
X353286Y248263D01*
Y248270D01*
X353242Y248400D01*
X353199Y248523D01*
X353155Y248639D01*
X353119Y248748D01*
X353082Y248835D01*
X353053Y248901D01*
X353039Y248944D01*
X353032Y248951D01*
Y248958D01*
X352974Y249089D01*
X352916Y249205D01*
X352865Y249307D01*
X352821Y249401D01*
X352778Y249473D01*
X352749Y249531D01*
X352727Y249568D01*
X352720Y249582D01*
X352662Y249683D01*
X352604Y249770D01*
X352546Y249843D01*
X352495Y249908D01*
X352452Y249959D01*
X352423Y250003D01*
X352401Y250024D01*
X352394Y250031D01*
X352336Y250090D01*
X352278Y250133D01*
X352220Y250162D01*
X352176Y250184D01*
X352140Y250198D01*
X352104Y250205D01*
X352082D01*
X352024Y250198D01*
X351973Y250169D01*
X351930Y250133D01*
X351893Y250097D01*
X351857Y250053D01*
X351835Y250017D01*
X351821Y249988D01*
X351814Y249981D01*
X350588Y250307D01*
X350581Y250350D01*
Y250394D01*
Y250423D01*
Y250430D01*
Y250546D01*
Y250655D01*
X350596Y250757D01*
X350632Y250945D01*
X350683Y251112D01*
X350741Y251250D01*
X350770Y251308D01*
X350799Y251365D01*
X350828Y251409D01*
X350850Y251445D01*
X350871Y251474D01*
X350886Y251496D01*
X350893Y251503D01*
X350900Y251511D01*
X350965Y251576D01*
X351031Y251626D01*
X351096Y251677D01*
X351161Y251713D01*
X351299Y251779D01*
X351422Y251822D01*
X351531Y251844D01*
X351582Y251858D01*
X351618D01*
X351654Y251866D01*
X351698D01*
X351835Y251858D01*
D02*
G37*
G36*
X335979Y337314D02*
X336185Y336988D01*
X336381Y336672D01*
X336555Y336379D01*
X336642Y336248D01*
X336718Y336128D01*
X336784Y336030D01*
X336838Y335943D01*
X336882Y335867D01*
X336914Y335813D01*
X336936Y335780D01*
X336947Y335769D01*
X337502Y334921D01*
X338057Y334094D01*
X338601Y333289D01*
X339134Y332505D01*
X339645Y331755D01*
X340135Y331036D01*
X340374Y330699D01*
X340603Y330362D01*
X340820Y330046D01*
X341038Y329742D01*
X341245Y329448D01*
X341440Y329176D01*
X341625Y328915D01*
X341799Y328665D01*
X341963Y328436D01*
X342115Y328219D01*
X342256Y328023D01*
X342387Y327838D01*
X342507Y327685D01*
X342604Y327533D01*
X342691Y327413D01*
X342768Y327315D01*
X342822Y327239D01*
X342866Y327174D01*
X342887Y327141D01*
X342898Y327131D01*
X340570Y326597D01*
X340135Y327250D01*
X339710Y327881D01*
X339308Y328491D01*
X338905Y329078D01*
X338525Y329644D01*
X338155Y330199D01*
X337806Y330721D01*
X337469Y331232D01*
X337143Y331711D01*
X336827Y332179D01*
X336533Y332625D01*
X336240Y333049D01*
X335968Y333452D01*
X335717Y333833D01*
X335467Y334203D01*
X335239Y334540D01*
X335021Y334866D01*
X334825Y335160D01*
X334629Y335443D01*
X334455Y335704D01*
X334303Y335943D01*
X334151Y336161D01*
X334020Y336357D01*
X333900Y336531D01*
X333792Y336683D01*
X333705Y336825D01*
X333629Y336933D01*
X333563Y337031D01*
X333520Y337097D01*
X333487Y337151D01*
X333465Y337184D01*
X333454Y337195D01*
X333803Y337238D01*
X334118Y337282D01*
X334401Y337325D01*
X334651Y337369D01*
X334869Y337412D01*
X335054Y337445D01*
X335217Y337477D01*
X335358Y337510D01*
X335467Y337543D01*
X335565Y337575D01*
X335630Y337597D01*
X335685Y337619D01*
X335728Y337630D01*
X335750Y337641D01*
X335772Y337651D01*
X335979Y337314D01*
D02*
G37*
G36*
X309769Y337227D02*
X309921Y337205D01*
X310062Y337195D01*
X310182Y337184D01*
X310280Y337173D01*
X310367D01*
X310411Y337162D01*
X310432D01*
X310726Y337140D01*
X310857Y337118D01*
X310976Y337107D01*
X311085Y337097D01*
X311161D01*
X311216Y337086D01*
X311237D01*
X311379Y337075D01*
X311520Y337053D01*
X311629Y337042D01*
X311738D01*
X311814Y337031D01*
X311879Y337020D01*
X311934D01*
X311945Y336955D01*
X311966Y336868D01*
X311988Y336759D01*
X312010Y336629D01*
X312043Y336487D01*
X312075Y336335D01*
X312130Y336019D01*
X312162Y335867D01*
X312195Y335715D01*
X312217Y335573D01*
X312249Y335454D01*
X312260Y335345D01*
X312282Y335269D01*
X312293Y335225D01*
Y335204D01*
X312347Y334921D01*
X312402Y334638D01*
X312456Y334366D01*
X312499Y334116D01*
X312521Y333996D01*
X312543Y333898D01*
X312554Y333800D01*
X312565Y333724D01*
X312576Y333659D01*
X312587Y333615D01*
X312597Y333582D01*
Y333572D01*
X312663Y333234D01*
X312717Y332919D01*
X312772Y332614D01*
X312815Y332342D01*
X312837Y332222D01*
X312859Y332114D01*
X312869Y332027D01*
X312891Y331940D01*
X312902Y331874D01*
Y331831D01*
X312913Y331798D01*
Y331787D01*
X312967Y331461D01*
X313011Y331145D01*
X313065Y330862D01*
X313098Y330601D01*
X313120Y330492D01*
X313131Y330384D01*
X313152Y330297D01*
X313163Y330221D01*
X313174Y330166D01*
Y330112D01*
X313185Y330090D01*
Y330079D01*
X313207Y329938D01*
X313229Y329796D01*
X313239Y329677D01*
X313261Y329557D01*
X313283Y329361D01*
X313305Y329209D01*
X313316Y329089D01*
X313326Y329013D01*
X313337Y328958D01*
Y328947D01*
X313348Y328839D01*
X313359Y328752D01*
Y328697D01*
X313370Y328643D01*
Y328610D01*
Y328589D01*
Y328578D01*
Y328501D01*
Y328480D01*
Y328469D01*
X313359Y328316D01*
X313348Y328175D01*
X313272Y327925D01*
X313174Y327696D01*
X313065Y327511D01*
X312957Y327359D01*
X312859Y327250D01*
X312815Y327218D01*
X312782Y327185D01*
X312772Y327174D01*
X312761Y327163D01*
X312554Y327033D01*
X312336Y326935D01*
X312119Y326859D01*
X311923Y326815D01*
X311749Y326782D01*
X311673Y326771D01*
X311607D01*
X311564Y326761D01*
X311488D01*
X311259Y326771D01*
X311042Y326793D01*
X310835Y326826D01*
X310639Y326869D01*
X310454Y326913D01*
X310269Y326978D01*
X310106Y327033D01*
X309954Y327098D01*
X309823Y327163D01*
X309703Y327218D01*
X309595Y327283D01*
X309507Y327326D01*
X309442Y327370D01*
X309388Y327403D01*
X309355Y327424D01*
X309344Y327435D01*
X309170Y327577D01*
X309007Y327740D01*
X308866Y327892D01*
X308746Y328045D01*
X308648Y328175D01*
X308572Y328273D01*
X308539Y328316D01*
X308517Y328349D01*
X308507Y328360D01*
Y328371D01*
X308376Y328599D01*
X308256Y328839D01*
X308158Y329089D01*
X308082Y329317D01*
X308017Y329524D01*
X307984Y329611D01*
X307963Y329687D01*
X307952Y329753D01*
X307941Y329796D01*
X307930Y329829D01*
Y329840D01*
X307886Y330025D01*
X307843Y330231D01*
X307799Y330460D01*
X307745Y330699D01*
X307636Y331200D01*
X307538Y331700D01*
X307484Y331940D01*
X307440Y332157D01*
X307408Y332364D01*
X307364Y332538D01*
X307342Y332679D01*
X307321Y332788D01*
X307310Y332832D01*
X307299Y332864D01*
Y332875D01*
Y332886D01*
X307234Y333212D01*
X307168Y333539D01*
X307114Y333865D01*
X307060Y334181D01*
X307038Y334311D01*
X307005Y334442D01*
X306994Y334562D01*
X306973Y334660D01*
X306962Y334736D01*
X306951Y334790D01*
X306940Y334834D01*
Y334844D01*
X306864Y335258D01*
X306798Y335639D01*
X306766Y335813D01*
X306733Y335987D01*
X306700Y336139D01*
X306679Y336281D01*
X306657Y336411D01*
X306635Y336520D01*
X306613Y336618D01*
X306603Y336705D01*
X306581Y336770D01*
Y336814D01*
X306570Y336846D01*
Y336857D01*
X306494Y337216D01*
X308637Y337075D01*
X308702Y336672D01*
X308779Y336281D01*
X308844Y335911D01*
X308898Y335563D01*
X308963Y335236D01*
X309018Y334942D01*
X309072Y334660D01*
X309116Y334409D01*
X309159Y334181D01*
X309203Y333985D01*
X309236Y333811D01*
X309257Y333669D01*
X309279Y333561D01*
X309301Y333474D01*
X309312Y333430D01*
Y333408D01*
X309355Y333202D01*
X309388Y332995D01*
X309431Y332810D01*
X309464Y332647D01*
X309486Y332505D01*
X309507Y332397D01*
X309518Y332353D01*
X309529Y332320D01*
Y332309D01*
Y332299D01*
X309562Y332103D01*
X309605Y331907D01*
X309638Y331733D01*
X309671Y331570D01*
X309693Y331439D01*
X309714Y331341D01*
X309736Y331276D01*
Y331265D01*
Y331254D01*
X309769Y331080D01*
X309801Y330917D01*
X309834Y330786D01*
X309856Y330677D01*
X309877Y330590D01*
X309888Y330525D01*
X309899Y330482D01*
Y330471D01*
X309943Y330264D01*
X309954Y330166D01*
X309975Y330090D01*
X309986Y330014D01*
X309997Y329959D01*
X310008Y329927D01*
Y329916D01*
X310051Y329720D01*
X310084Y329622D01*
X310106Y329546D01*
X310139Y329470D01*
X310149Y329415D01*
X310171Y329383D01*
Y329372D01*
X310258Y329187D01*
X310302Y329111D01*
X310334Y329045D01*
X310378Y328991D01*
X310400Y328947D01*
X310421Y328926D01*
X310432Y328915D01*
X310487Y328850D01*
X310552Y328806D01*
X310617Y328773D01*
X310672Y328752D01*
X310715Y328741D01*
X310759Y328730D01*
X310791D01*
X310857Y328741D01*
X310922Y328752D01*
X311020Y328806D01*
X311085Y328850D01*
X311096Y328860D01*
X311107Y328871D01*
X311150Y328937D01*
X311172Y329002D01*
X311216Y329143D01*
Y329198D01*
X311227Y329252D01*
Y329285D01*
Y329296D01*
Y329350D01*
X311216Y329426D01*
X311205Y329513D01*
X311194Y329600D01*
X311161Y329807D01*
X311118Y330014D01*
X311085Y330210D01*
X311063Y330297D01*
X311052Y330373D01*
X311042Y330438D01*
X311031Y330482D01*
X311020Y330514D01*
Y330525D01*
X311009Y330590D01*
X310987Y330677D01*
X310965Y330765D01*
X310944Y330873D01*
X310889Y331091D01*
X310846Y331319D01*
X310802Y331537D01*
X310781Y331635D01*
X310759Y331722D01*
X310748Y331787D01*
X310737Y331842D01*
X310726Y331874D01*
Y331885D01*
X310650Y332255D01*
X310617Y332440D01*
X310585Y332603D01*
X310552Y332755D01*
X310530Y332864D01*
X310519Y332908D01*
X310508Y332941D01*
Y332951D01*
Y332962D01*
X310454Y333202D01*
X310400Y333463D01*
X310345Y333724D01*
X310291Y333985D01*
X310269Y334094D01*
X310247Y334203D01*
X310226Y334300D01*
X310204Y334387D01*
X310193Y334453D01*
X310182Y334507D01*
X310171Y334540D01*
Y334551D01*
X310128Y334747D01*
X310084Y334953D01*
X309997Y335388D01*
X309899Y335835D01*
X309856Y336052D01*
X309812Y336270D01*
X309769Y336466D01*
X309725Y336651D01*
X309693Y336814D01*
X309660Y336955D01*
X309638Y337075D01*
X309616Y337162D01*
X309605Y337216D01*
Y337238D01*
X309769Y337227D01*
D02*
G37*
G36*
X293612Y337293D02*
X293808Y337282D01*
X293993Y337249D01*
X294178Y337205D01*
X294515Y337107D01*
X294667Y337042D01*
X294809Y336988D01*
X294939Y336933D01*
X295059Y336868D01*
X295157Y336814D01*
X295244Y336770D01*
X295320Y336727D01*
X295363Y336705D01*
X295396Y336683D01*
X295407Y336672D01*
X295733Y336422D01*
X296038Y336150D01*
X296310Y335867D01*
X296539Y335606D01*
X296637Y335486D01*
X296724Y335367D01*
X296800Y335269D01*
X296865Y335182D01*
X296919Y335106D01*
X296952Y335051D01*
X296974Y335019D01*
X296985Y335008D01*
X297224Y334616D01*
X297431Y334213D01*
X297605Y333822D01*
X297681Y333637D01*
X297746Y333463D01*
X297812Y333299D01*
X297866Y333158D01*
X297909Y333028D01*
X297953Y332908D01*
X297975Y332821D01*
X297996Y332745D01*
X298018Y332701D01*
Y332690D01*
X298138Y332211D01*
X298225Y331733D01*
X298290Y331276D01*
X298312Y331069D01*
X298334Y330873D01*
X298345Y330688D01*
X298356Y330525D01*
X298366Y330373D01*
Y330253D01*
X298377Y330155D01*
Y330079D01*
Y330025D01*
Y330014D01*
X298366Y329764D01*
X298356Y329513D01*
X298323Y329285D01*
X298290Y329078D01*
X298247Y328871D01*
X298192Y328686D01*
X298138Y328523D01*
X298083Y328371D01*
X298040Y328229D01*
X297986Y328110D01*
X297931Y328001D01*
X297888Y327914D01*
X297855Y327849D01*
X297822Y327805D01*
X297812Y327772D01*
X297801Y327762D01*
X297692Y327620D01*
X297583Y327501D01*
X297463Y327403D01*
X297344Y327305D01*
X297224Y327228D01*
X297104Y327174D01*
X296985Y327120D01*
X296876Y327076D01*
X296669Y327022D01*
X296582Y327000D01*
X296506Y326989D01*
X296451D01*
X296408Y326978D01*
X296364D01*
X296190Y326989D01*
X296016Y327011D01*
X295853Y327044D01*
X295679Y327098D01*
X295374Y327218D01*
X295233Y327283D01*
X295102Y327359D01*
X294983Y327424D01*
X294863Y327490D01*
X294776Y327555D01*
X294689Y327609D01*
X294624Y327664D01*
X294580Y327696D01*
X294548Y327718D01*
X294537Y327729D01*
X294352Y327892D01*
X294178Y328066D01*
X293851Y328447D01*
X293710Y328643D01*
X293579Y328828D01*
X293449Y329013D01*
X293340Y329198D01*
X293242Y329361D01*
X293155Y329524D01*
X293079Y329666D01*
X293013Y329785D01*
X292970Y329883D01*
X292937Y329959D01*
X292916Y330014D01*
X292905Y330025D01*
X294515Y330667D01*
X294569Y330492D01*
X294645Y330329D01*
X294722Y330177D01*
X294809Y330035D01*
X294885Y329927D01*
X294950Y329840D01*
X294994Y329785D01*
X295015Y329764D01*
X295157Y329622D01*
X295287Y329513D01*
X295418Y329448D01*
X295527Y329394D01*
X295614Y329361D01*
X295679Y329350D01*
X295733Y329339D01*
X295744D01*
X295820Y329350D01*
X295886Y329372D01*
X295940Y329404D01*
X295995Y329448D01*
X296060Y329568D01*
X296114Y329698D01*
X296147Y329818D01*
X296158Y329938D01*
X296169Y329981D01*
Y330014D01*
Y330035D01*
Y330046D01*
X296147Y330329D01*
X296103Y330634D01*
X296049Y330949D01*
X295973Y331243D01*
X295940Y331374D01*
X295907Y331504D01*
X295875Y331613D01*
X295842Y331711D01*
X295820Y331798D01*
X295799Y331853D01*
X295788Y331896D01*
Y331907D01*
X295723Y332103D01*
X295657Y332288D01*
X295592Y332462D01*
X295538Y332625D01*
X295483Y332755D01*
X295440Y332853D01*
X295418Y332919D01*
X295407Y332930D01*
Y332941D01*
X295320Y333136D01*
X295233Y333310D01*
X295157Y333463D01*
X295092Y333604D01*
X295026Y333713D01*
X294983Y333800D01*
X294950Y333854D01*
X294939Y333876D01*
X294852Y334029D01*
X294765Y334159D01*
X294678Y334268D01*
X294602Y334366D01*
X294537Y334442D01*
X294493Y334507D01*
X294461Y334540D01*
X294450Y334551D01*
X294363Y334638D01*
X294275Y334703D01*
X294188Y334747D01*
X294123Y334779D01*
X294069Y334801D01*
X294014Y334812D01*
X293982D01*
X293895Y334801D01*
X293819Y334757D01*
X293753Y334703D01*
X293699Y334649D01*
X293644Y334583D01*
X293612Y334529D01*
X293590Y334485D01*
X293579Y334475D01*
X291740Y334964D01*
X291730Y335029D01*
Y335095D01*
Y335138D01*
Y335149D01*
Y335323D01*
Y335486D01*
X291751Y335639D01*
X291806Y335922D01*
X291882Y336172D01*
X291969Y336379D01*
X292013Y336466D01*
X292056Y336553D01*
X292099Y336618D01*
X292132Y336672D01*
X292165Y336716D01*
X292187Y336749D01*
X292197Y336759D01*
X292208Y336770D01*
X292306Y336868D01*
X292404Y336944D01*
X292502Y337020D01*
X292600Y337075D01*
X292807Y337173D01*
X292992Y337238D01*
X293155Y337271D01*
X293231Y337293D01*
X293285D01*
X293340Y337303D01*
X293405D01*
X293612Y337293D01*
D02*
G37*
G36*
X243259Y337521D02*
X243531Y337477D01*
X243792Y337401D01*
X244043Y337325D01*
X244162Y337282D01*
X244260Y337238D01*
X244358Y337205D01*
X244434Y337162D01*
X244499Y337140D01*
X244543Y337118D01*
X244576Y337097D01*
X244587D01*
X244761Y337010D01*
X244924Y336912D01*
X245239Y336705D01*
X245533Y336487D01*
X245783Y336270D01*
X245892Y336161D01*
X245990Y336063D01*
X246077Y335987D01*
X246153Y335911D01*
X246219Y335845D01*
X246262Y335802D01*
X246284Y335769D01*
X246295Y335758D01*
X246578Y335399D01*
X246839Y335029D01*
X247056Y334649D01*
X247252Y334290D01*
X247328Y334126D01*
X247405Y333985D01*
X247470Y333843D01*
X247513Y333735D01*
X247557Y333637D01*
X247589Y333572D01*
X247600Y333517D01*
X247611Y333506D01*
X247698Y333245D01*
X247785Y332984D01*
X247916Y332451D01*
X248003Y331918D01*
X248036Y331667D01*
X248068Y331428D01*
X248090Y331211D01*
X248101Y331004D01*
X248123Y330819D01*
Y330667D01*
X248133Y330536D01*
Y330438D01*
Y330384D01*
Y330362D01*
X248123Y330035D01*
X248101Y329731D01*
X248068Y329437D01*
X248014Y329165D01*
X247959Y328926D01*
X247894Y328697D01*
X247829Y328480D01*
X247763Y328295D01*
X247698Y328132D01*
X247622Y327990D01*
X247568Y327859D01*
X247513Y327762D01*
X247459Y327685D01*
X247426Y327620D01*
X247405Y327588D01*
X247394Y327577D01*
X247263Y327413D01*
X247122Y327272D01*
X246980Y327152D01*
X246850Y327054D01*
X246741Y326989D01*
X246654Y326935D01*
X246599Y326902D01*
X246578Y326891D01*
X246393Y326815D01*
X246219Y326761D01*
X246034Y326717D01*
X245870Y326695D01*
X245729Y326674D01*
X245609Y326663D01*
X245511D01*
X245283Y326674D01*
X245043Y326717D01*
X244826Y326771D01*
X244608Y326837D01*
X244434Y326902D01*
X244358Y326935D01*
X244293Y326957D01*
X244238Y326978D01*
X244195Y327000D01*
X244173Y327011D01*
X244162D01*
X243879Y327163D01*
X243618Y327326D01*
X243379Y327511D01*
X243172Y327675D01*
X242998Y327838D01*
X242922Y327903D01*
X242857Y327957D01*
X242813Y328012D01*
X242780Y328045D01*
X242759Y328066D01*
X242748Y328077D01*
X242509Y328360D01*
X242291Y328665D01*
X242095Y328958D01*
X241932Y329241D01*
X241867Y329372D01*
X241801Y329491D01*
X241747Y329589D01*
X241703Y329687D01*
X241660Y329764D01*
X241638Y329818D01*
X241616Y329851D01*
Y329861D01*
X241453Y330275D01*
X241333Y330699D01*
X241235Y331123D01*
X241192Y331319D01*
X241159Y331515D01*
X241138Y331689D01*
X241116Y331853D01*
X241094Y331994D01*
X241083Y332124D01*
X241072Y332222D01*
X241061Y332299D01*
Y332353D01*
Y332364D01*
X241649Y332266D01*
X242247Y332168D01*
X242552Y332124D01*
X242835Y332081D01*
X243118Y332037D01*
X243379Y332005D01*
X243618Y331961D01*
X243847Y331940D01*
X244043Y331907D01*
X244217Y331885D01*
X244358Y331863D01*
X244456Y331853D01*
X244521Y331842D01*
X244543D01*
X244804Y330449D01*
X243303Y330667D01*
X243314Y330525D01*
X243335Y330384D01*
X243401Y330123D01*
X243499Y329894D01*
X243597Y329698D01*
X243705Y329535D01*
X243749Y329470D01*
X243792Y329404D01*
X243825Y329361D01*
X243858Y329328D01*
X243868Y329317D01*
X243879Y329307D01*
X243966Y329220D01*
X244064Y329143D01*
X244151Y329078D01*
X244238Y329013D01*
X244315Y328969D01*
X244369Y328937D01*
X244412Y328926D01*
X244423Y328915D01*
X244532Y328871D01*
X244652Y328839D01*
X244761Y328806D01*
X244859Y328795D01*
X244935Y328784D01*
X245011Y328773D01*
X245065D01*
X245185Y328784D01*
X245305Y328828D01*
X245403Y328893D01*
X245500Y328958D01*
X245566Y329024D01*
X245631Y329089D01*
X245664Y329133D01*
X245675Y329143D01*
X245718Y329220D01*
X245762Y329307D01*
X245827Y329491D01*
X245870Y329698D01*
X245903Y329905D01*
X245925Y330101D01*
Y330177D01*
X245936Y330253D01*
Y330308D01*
Y330351D01*
Y330384D01*
Y330395D01*
X245914Y330721D01*
X245881Y331058D01*
X245827Y331385D01*
X245773Y331700D01*
X245707Y332005D01*
X245631Y332309D01*
X245544Y332592D01*
X245468Y332853D01*
X245381Y333093D01*
X245305Y333310D01*
X245229Y333506D01*
X245163Y333669D01*
X245109Y333800D01*
X245065Y333898D01*
X245043Y333963D01*
X245033Y333985D01*
X244891Y334268D01*
X244750Y334518D01*
X244619Y334747D01*
X244499Y334931D01*
X244402Y335084D01*
X244315Y335193D01*
X244293Y335225D01*
X244271Y335258D01*
X244249Y335269D01*
Y335280D01*
X244173Y335367D01*
X244097Y335443D01*
X243945Y335573D01*
X243814Y335661D01*
X243694Y335715D01*
X243597Y335758D01*
X243531Y335769D01*
X243477Y335780D01*
X243466D01*
X243357Y335769D01*
X243270Y335737D01*
X243172Y335682D01*
X243096Y335617D01*
X243020Y335541D01*
X242955Y335454D01*
X242846Y335258D01*
X242759Y335062D01*
X242726Y334975D01*
X242693Y334899D01*
X242672Y334834D01*
X242661Y334779D01*
X242650Y334747D01*
Y334736D01*
X240713Y335106D01*
X240724Y335301D01*
X240735Y335486D01*
X240757Y335661D01*
X240789Y335824D01*
X240833Y335976D01*
X240877Y336117D01*
X240920Y336248D01*
X240974Y336368D01*
X241018Y336466D01*
X241072Y336553D01*
X241116Y336640D01*
X241148Y336694D01*
X241192Y336749D01*
X241214Y336781D01*
X241225Y336803D01*
X241235Y336814D01*
X241344Y336933D01*
X241453Y337031D01*
X241562Y337118D01*
X241671Y337195D01*
X241769Y337260D01*
X241845Y337303D01*
X241888Y337325D01*
X241910Y337336D01*
X242073Y337401D01*
X242258Y337456D01*
X242432Y337488D01*
X242606Y337521D01*
X242759Y337532D01*
X242889Y337543D01*
X242998D01*
X243259Y337521D01*
D02*
G37*
G36*
X259416Y337401D02*
X259710Y337347D01*
X260014Y337303D01*
X260330Y337271D01*
X260972Y337195D01*
X261287Y337162D01*
X261603Y337129D01*
X261886Y337107D01*
X262158Y337075D01*
X262408Y337053D01*
X262615Y337042D01*
X262800Y337031D01*
X262865Y337020D01*
X262930D01*
X262974Y337010D01*
X263039D01*
X263104Y336770D01*
X263180Y336520D01*
X263246Y336281D01*
X263311Y336063D01*
X263365Y335878D01*
X263398Y335802D01*
X263409Y335737D01*
X263431Y335682D01*
X263442Y335639D01*
X263453Y335617D01*
Y335606D01*
X263540Y335323D01*
X263616Y335040D01*
X263692Y334768D01*
X263768Y334529D01*
X263801Y334420D01*
X263833Y334322D01*
X263855Y334235D01*
X263877Y334159D01*
X263899Y334105D01*
X263909Y334050D01*
X263920Y334029D01*
Y334018D01*
X264007Y333713D01*
X264094Y333419D01*
X264181Y333136D01*
X264258Y332886D01*
X264290Y332777D01*
X264323Y332668D01*
X264345Y332581D01*
X264366Y332505D01*
X264388Y332451D01*
X264399Y332397D01*
X264410Y332375D01*
Y332364D01*
X264453Y332201D01*
X264508Y332037D01*
X264606Y331689D01*
X264715Y331330D01*
X264812Y330993D01*
X264856Y330841D01*
X264899Y330699D01*
X264943Y330569D01*
X264976Y330460D01*
X265008Y330373D01*
X265019Y330297D01*
X265041Y330253D01*
Y330242D01*
X265117Y329992D01*
X265193Y329731D01*
X265356Y329198D01*
X265509Y328676D01*
X265585Y328414D01*
X265661Y328175D01*
X265726Y327947D01*
X265792Y327740D01*
X265846Y327555D01*
X265890Y327392D01*
X265933Y327261D01*
X265966Y327163D01*
X265977Y327098D01*
X265987Y327087D01*
Y327076D01*
X265672Y327120D01*
X265531Y327131D01*
X265411Y327141D01*
X265302Y327163D01*
X265226D01*
X265172Y327174D01*
X265150D01*
X264845Y327218D01*
X264704Y327228D01*
X264584Y327250D01*
X264475Y327261D01*
X264388Y327272D01*
X264345Y327283D01*
X264323D01*
X264171Y327305D01*
X264029Y327326D01*
X263899Y327337D01*
X263790Y327348D01*
X263703Y327370D01*
X263637D01*
X263594Y327381D01*
X263583D01*
X263017Y329404D01*
X261788D01*
X261831Y329002D01*
X261875Y328589D01*
X261918Y328186D01*
X261940Y328001D01*
X261962Y327816D01*
X261973Y327653D01*
X261995Y327501D01*
X262005Y327359D01*
X262027Y327250D01*
X262038Y327152D01*
Y327076D01*
X262049Y327033D01*
Y327022D01*
X261788Y327065D01*
X261657Y327087D01*
X261538Y327098D01*
X261440Y327120D01*
X261353Y327131D01*
X261309Y327141D01*
X261287D01*
X261135Y327174D01*
X260983Y327196D01*
X260841Y327218D01*
X260722Y327239D01*
X260613Y327250D01*
X260537Y327261D01*
X260493Y327272D01*
X260471D01*
X260178Y327315D01*
X260047Y327337D01*
X259916Y327348D01*
X259819Y327370D01*
X259732Y327381D01*
X259688Y327392D01*
X259666D01*
X259645Y327990D01*
X259623Y328589D01*
X259590Y329187D01*
X259568Y329785D01*
X259547Y330362D01*
X259514Y330928D01*
X259492Y331472D01*
X259470Y331983D01*
X259449Y332462D01*
X259438Y332679D01*
X259427Y332886D01*
X259416Y333082D01*
X259405Y333267D01*
X259394Y333441D01*
Y333593D01*
X259383Y333735D01*
Y333865D01*
X259372Y333974D01*
Y334061D01*
X259362Y334126D01*
Y334181D01*
Y334213D01*
Y334224D01*
X259351Y334573D01*
X259329Y334899D01*
X259318Y335214D01*
X259296Y335508D01*
X259275Y335791D01*
X259264Y336063D01*
X259242Y336302D01*
X259231Y336531D01*
X259209Y336738D01*
X259198Y336912D01*
X259188Y337075D01*
X259177Y337205D01*
X259166Y337303D01*
X259155Y337380D01*
Y337434D01*
Y337445D01*
X259416Y337401D01*
D02*
G37*
G36*
X276574Y337619D02*
X276704Y337597D01*
X276824Y337575D01*
X276922Y337554D01*
X277009Y337543D01*
X277074Y337532D01*
X277118Y337521D01*
X277129D01*
X277248Y337499D01*
X277379Y337488D01*
X277509Y337467D01*
X277629Y337445D01*
X277727Y337423D01*
X277814Y337412D01*
X277869Y337401D01*
X277890D01*
X278064Y337380D01*
X278260Y337347D01*
X278456Y337325D01*
X278630Y337303D01*
X278793Y337282D01*
X278869Y337271D01*
X278924Y337260D01*
X278978D01*
X279011Y337249D01*
X279044D01*
X279098Y337140D01*
X279152Y337010D01*
X279218Y336868D01*
X279283Y336716D01*
X279348Y336542D01*
X279424Y336368D01*
X279588Y335965D01*
X279751Y335541D01*
X279925Y335095D01*
X280110Y334638D01*
X280284Y334192D01*
X280447Y333746D01*
X280610Y333332D01*
X280676Y333136D01*
X280752Y332951D01*
X280817Y332777D01*
X280882Y332614D01*
X280937Y332462D01*
X280980Y332331D01*
X281024Y332211D01*
X281067Y332114D01*
X281089Y332037D01*
X281111Y331972D01*
X281133Y331940D01*
Y331929D01*
X281328D01*
X281274Y332309D01*
X281220Y332647D01*
X281198Y332810D01*
X281176Y332951D01*
X281154Y333082D01*
X281133Y333202D01*
X281122Y333310D01*
X281111Y333408D01*
X281100Y333495D01*
X281089Y333561D01*
X281078Y333615D01*
X281067Y333659D01*
Y333680D01*
Y333691D01*
X281024Y333941D01*
X280991Y334170D01*
X280969Y334366D01*
X280937Y334529D01*
X280915Y334670D01*
X280904Y334768D01*
X280893Y334823D01*
Y334844D01*
X280860Y335019D01*
X280839Y335171D01*
X280817Y335323D01*
X280795Y335454D01*
X280784Y335563D01*
X280773Y335650D01*
X280763Y335704D01*
Y335726D01*
X280741Y335878D01*
X280719Y336030D01*
X280697Y336172D01*
X280686Y336292D01*
X280676Y336389D01*
X280665Y336466D01*
X280654Y336509D01*
Y336531D01*
X280632Y336672D01*
X280610Y336803D01*
X280599Y336923D01*
X280589Y337031D01*
X280567Y337107D01*
Y337173D01*
X280556Y337216D01*
Y337227D01*
X280850Y337205D01*
X281122Y337173D01*
X281372Y337151D01*
X281600Y337129D01*
X281698Y337118D01*
X281785Y337107D01*
X281861Y337097D01*
X281927Y337086D01*
X281981D01*
X282014Y337075D01*
X282046D01*
X282308Y337042D01*
X282569Y337020D01*
X282808Y337010D01*
X283036Y336999D01*
X283232Y336988D01*
X283515D01*
X283591Y336683D01*
X283678Y336357D01*
X283776Y336019D01*
X283874Y335661D01*
X283983Y335291D01*
X284092Y334910D01*
X284320Y334116D01*
X284571Y333299D01*
X284821Y332473D01*
X285082Y331657D01*
X285332Y330862D01*
X285452Y330471D01*
X285572Y330101D01*
X285691Y329731D01*
X285800Y329383D01*
X285909Y329056D01*
X286007Y328741D01*
X286105Y328458D01*
X286192Y328186D01*
X286268Y327936D01*
X286333Y327718D01*
X286398Y327533D01*
X286453Y327370D01*
X286496Y327250D01*
X286529Y327152D01*
X286540Y327098D01*
X286551Y327076D01*
X284233Y327228D01*
X284211Y327305D01*
X284190Y327381D01*
X284135Y327566D01*
X284070Y327772D01*
X284016Y327979D01*
X283961Y328164D01*
X283940Y328240D01*
X283918Y328316D01*
X283896Y328371D01*
X283885Y328414D01*
X283874Y328447D01*
Y328458D01*
X283755Y328839D01*
X283700Y329024D01*
X283657Y329198D01*
X283613Y329339D01*
X283580Y329459D01*
X283570Y329502D01*
X283559Y329535D01*
X283548Y329546D01*
Y329557D01*
X283483Y329785D01*
X283428Y329992D01*
X283374Y330188D01*
X283319Y330373D01*
X283287Y330514D01*
X283254Y330623D01*
X283243Y330667D01*
Y330699D01*
X283232Y330710D01*
Y330721D01*
X283178Y330928D01*
X283134Y331113D01*
X283091Y331276D01*
X283047Y331428D01*
X283015Y331548D01*
X282993Y331635D01*
X282971Y331689D01*
Y331711D01*
X282928Y331863D01*
X282895Y331994D01*
X282873Y332092D01*
X282852Y332179D01*
X282841Y332244D01*
X282830Y332288D01*
Y332309D01*
Y332320D01*
X282623D01*
X283080Y327087D01*
X282253Y327131D01*
X282112Y327141D01*
X281970Y327152D01*
X281829Y327163D01*
X281698D01*
X281579Y327174D01*
X281404D01*
X281263Y327620D01*
X281198Y327827D01*
X281133Y328012D01*
X281078Y328175D01*
X281056Y328240D01*
X281035Y328306D01*
X281013Y328349D01*
X281002Y328382D01*
X280991Y328403D01*
Y328414D01*
X280904Y328665D01*
X280817Y328904D01*
X280730Y329133D01*
X280654Y329328D01*
X280589Y329502D01*
X280567Y329579D01*
X280545Y329633D01*
X280523Y329687D01*
X280512Y329720D01*
X280501Y329742D01*
Y329753D01*
X280403Y330003D01*
X280316Y330242D01*
X280240Y330471D01*
X280164Y330667D01*
X280099Y330841D01*
X280077Y330906D01*
X280055Y330971D01*
X280034Y331015D01*
X280023Y331047D01*
X280012Y331069D01*
Y331080D01*
X279925Y331319D01*
X279838Y331548D01*
X279772Y331755D01*
X279707Y331950D01*
X279653Y332103D01*
X279609Y332222D01*
X279598Y332266D01*
X279588Y332299D01*
X279577Y332309D01*
Y332320D01*
X279457D01*
X279479Y332190D01*
X279501Y332037D01*
X279544Y331733D01*
X279588Y331406D01*
X279631Y331091D01*
X279653Y330949D01*
X279664Y330819D01*
X279685Y330699D01*
X279696Y330590D01*
X279707Y330503D01*
Y330438D01*
X279718Y330395D01*
Y330384D01*
X279903Y328730D01*
X279925Y328534D01*
X279947Y328349D01*
X279968Y328175D01*
X279979Y328012D01*
X279990Y327870D01*
X280001Y327740D01*
X280012Y327620D01*
Y327522D01*
X280023Y327424D01*
Y327348D01*
X280034Y327283D01*
Y327228D01*
Y327185D01*
Y327152D01*
Y327141D01*
Y327131D01*
X277564Y327577D01*
X277520Y328142D01*
X277477Y328686D01*
X277433Y329230D01*
X277390Y329753D01*
X277335Y330264D01*
X277292Y330765D01*
X277248Y331243D01*
X277194Y331711D01*
X277150Y332168D01*
X277107Y332603D01*
X277052Y333028D01*
X277009Y333430D01*
X276965Y333822D01*
X276922Y334192D01*
X276878Y334551D01*
X276835Y334888D01*
X276791Y335204D01*
X276748Y335508D01*
X276704Y335791D01*
X276672Y336052D01*
X276639Y336302D01*
X276606Y336531D01*
X276574Y336738D01*
X276541Y336923D01*
X276519Y337086D01*
X276498Y337227D01*
X276476Y337358D01*
X276465Y337456D01*
X276454Y337532D01*
X276443Y337597D01*
X276432Y337630D01*
Y337641D01*
X276574Y337619D01*
D02*
G37*
G36*
X351950Y330732D02*
X352114D01*
X352266Y330721D01*
X352375D01*
X352418Y330710D01*
X352484D01*
X352538Y330362D01*
X352581Y330025D01*
X352636Y329709D01*
X352679Y329415D01*
X352723Y329133D01*
X352766Y328871D01*
X352810Y328643D01*
X352843Y328425D01*
X352886Y328240D01*
X352908Y328066D01*
X352941Y327925D01*
X352962Y327805D01*
X352984Y327707D01*
X352995Y327642D01*
X353006Y327598D01*
Y327588D01*
X352668Y327675D01*
X352320Y327740D01*
X351983Y327794D01*
X351657Y327838D01*
X351504Y327859D01*
X351374Y327870D01*
X351243Y327881D01*
X351145Y327892D01*
X351058D01*
X350993Y327903D01*
X350939D01*
X350851Y328469D01*
X350808Y328730D01*
X350764Y328991D01*
X350732Y329241D01*
X350688Y329470D01*
X350656Y329687D01*
X350623Y329883D01*
X350590Y330068D01*
X350558Y330231D01*
X350536Y330373D01*
X350514Y330492D01*
X350493Y330590D01*
X350482Y330667D01*
X350471Y330710D01*
Y330721D01*
X350612Y330732D01*
X350732Y330743D01*
X351776D01*
X351950Y330732D01*
D02*
G37*
G36*
X360796Y337380D02*
X360970Y337358D01*
X361155Y337336D01*
X361525Y337260D01*
X361895Y337184D01*
X362069Y337140D01*
X362221Y337097D01*
X362373Y337064D01*
X362493Y337020D01*
X362602Y336999D01*
X362678Y336977D01*
X362722Y336955D01*
X362743D01*
X362798Y336618D01*
X362852Y336259D01*
X362917Y335889D01*
X362983Y335508D01*
X363124Y334714D01*
X363277Y333898D01*
X363440Y333071D01*
X363603Y332244D01*
X363766Y331428D01*
X363929Y330645D01*
X364005Y330264D01*
X364082Y329894D01*
X364158Y329546D01*
X364234Y329209D01*
X364299Y328882D01*
X364365Y328589D01*
X364419Y328306D01*
X364484Y328045D01*
X364528Y327816D01*
X364571Y327609D01*
X364615Y327424D01*
X364647Y327272D01*
X364680Y327152D01*
X364691Y327065D01*
X364713Y327011D01*
Y326989D01*
X362286Y327468D01*
X362232Y327838D01*
X362178Y328197D01*
X362123Y328523D01*
X362069Y328828D01*
X362025Y329122D01*
X361971Y329383D01*
X361927Y329622D01*
X361884Y329840D01*
X361851Y330025D01*
X361819Y330199D01*
X361786Y330340D01*
X361764Y330460D01*
X361742Y330547D01*
X361732Y330612D01*
X361721Y330656D01*
Y330667D01*
X361568D01*
X361318Y330677D01*
X361079Y330721D01*
X360861Y330775D01*
X360665Y330841D01*
X360502Y330895D01*
X360426Y330928D01*
X360371Y330949D01*
X360328Y330971D01*
X360295Y330993D01*
X360274Y331004D01*
X360263D01*
X360034Y331134D01*
X359827Y331287D01*
X359632Y331439D01*
X359469Y331580D01*
X359338Y331711D01*
X359240Y331809D01*
X359196Y331853D01*
X359175Y331885D01*
X359153Y331896D01*
Y331907D01*
X358979Y332124D01*
X358827Y332353D01*
X358696Y332581D01*
X358587Y332777D01*
X358500Y332962D01*
X358457Y333038D01*
X358435Y333104D01*
X358413Y333147D01*
X358391Y333191D01*
X358381Y333212D01*
Y333223D01*
X358284Y333501D01*
X358250Y333397D01*
X358206Y333267D01*
X358087Y333017D01*
X357934Y332799D01*
X357793Y332625D01*
X357728Y332549D01*
X357673Y332484D01*
X357630Y332429D01*
X357586Y332397D01*
X357564Y332375D01*
X357554Y332364D01*
X357314Y332146D01*
X357195Y332048D01*
X357086Y331961D01*
X356999Y331885D01*
X356923Y331831D01*
X356879Y331798D01*
X356857Y331787D01*
X356716Y331689D01*
X356585Y331591D01*
X356466Y331504D01*
X356368Y331428D01*
X356281Y331363D01*
X356215Y331309D01*
X356172Y331276D01*
X356161Y331265D01*
X356041Y331167D01*
X355932Y331069D01*
X355845Y330971D01*
X355769Y330895D01*
X355704Y330819D01*
X355661Y330765D01*
X355628Y330721D01*
X355617Y330710D01*
X355541Y330601D01*
X355486Y330492D01*
X355443Y330384D01*
X355421Y330286D01*
X355399Y330199D01*
X355388Y330133D01*
Y330090D01*
Y330068D01*
X355399Y329938D01*
X355443Y329829D01*
X355497Y329731D01*
X355563Y329644D01*
X355628Y329568D01*
X355682Y329513D01*
X355726Y329481D01*
X355737Y329470D01*
X355856Y329394D01*
X355965Y329350D01*
X356009Y329328D01*
X356041Y329317D01*
X356063Y329307D01*
X356074D01*
X356226Y329274D01*
X356379Y329263D01*
X356444Y329252D01*
X356542D01*
X356651Y329263D01*
X356781Y329307D01*
X356923Y329361D01*
X357053Y329415D01*
X357173Y329481D01*
X357271Y329524D01*
X357336Y329568D01*
X357347Y329579D01*
X357358D01*
X357554Y329698D01*
X357706Y329829D01*
X357837Y329948D01*
X357945Y330057D01*
X358021Y330144D01*
X358065Y330221D01*
X358098Y330264D01*
X358108Y330286D01*
X359153Y328229D01*
X358957Y328012D01*
X358772Y327816D01*
X358576Y327653D01*
X358381Y327511D01*
X358185Y327381D01*
X358011Y327283D01*
X357826Y327196D01*
X357662Y327131D01*
X357510Y327087D01*
X357369Y327044D01*
X357249Y327022D01*
X357140Y327000D01*
X357053Y326989D01*
X356988Y326978D01*
X356933D01*
X356629Y326989D01*
X356346Y327022D01*
X356074Y327065D01*
X355813Y327131D01*
X355573Y327196D01*
X355356Y327283D01*
X355149Y327370D01*
X354964Y327457D01*
X354790Y327544D01*
X354649Y327631D01*
X354518Y327718D01*
X354420Y327783D01*
X354333Y327849D01*
X354268Y327892D01*
X354235Y327925D01*
X354224Y327936D01*
X354029Y328132D01*
X353854Y328338D01*
X353702Y328545D01*
X353572Y328752D01*
X353463Y328969D01*
X353365Y329187D01*
X353289Y329383D01*
X353234Y329589D01*
X353191Y329774D01*
X353147Y329938D01*
X353125Y330090D01*
X353115Y330221D01*
X353104Y330329D01*
X353093Y330416D01*
Y330460D01*
Y330482D01*
X353104Y330710D01*
X353125Y330939D01*
X353158Y331145D01*
X353191Y331341D01*
X353245Y331515D01*
X353299Y331689D01*
X353365Y331842D01*
X353419Y331983D01*
X353485Y332103D01*
X353550Y332211D01*
X353604Y332309D01*
X353648Y332386D01*
X353691Y332451D01*
X353724Y332494D01*
X353746Y332516D01*
X353756Y332527D01*
X353865Y332636D01*
X353974Y332745D01*
X354072Y332832D01*
X354170Y332908D01*
X354257Y332962D01*
X354322Y333017D01*
X354366Y333038D01*
X354377Y333049D01*
X354605Y333202D01*
X354714Y333267D01*
X354801Y333332D01*
X354877Y333376D01*
X354931Y333419D01*
X354975Y333441D01*
X354986Y333452D01*
X355182Y333604D01*
X355258Y333669D01*
X355334Y333735D01*
X355388Y333789D01*
X355432Y333833D01*
X355454Y333865D01*
X355465Y333876D01*
X355530Y333963D01*
X355573Y334061D01*
X355606Y334159D01*
X355628Y334257D01*
X355639Y334333D01*
X355650Y334409D01*
Y334453D01*
Y334464D01*
X355628Y334605D01*
X355584Y334725D01*
X355530Y334844D01*
X355454Y334942D01*
X355388Y335029D01*
X355323Y335095D01*
X355280Y335138D01*
X355269Y335149D01*
X355149Y335236D01*
X355040Y335312D01*
X355008Y335334D01*
X354975Y335356D01*
X354953Y335367D01*
X354942D01*
X354812Y335421D01*
X354703Y335443D01*
X354670Y335454D01*
X354605D01*
X354540Y335443D01*
X354485Y335421D01*
X354377Y335356D01*
X354333Y335323D01*
X354300Y335291D01*
X354290Y335269D01*
X354279Y335258D01*
X354224Y335182D01*
X354192Y335106D01*
X354148Y334942D01*
X354137Y334877D01*
X354126Y334823D01*
Y334779D01*
Y334768D01*
X354137Y334551D01*
X354148Y334453D01*
X354159Y334366D01*
X354170Y334300D01*
X354181Y334246D01*
X354192Y334203D01*
Y334192D01*
X352157Y334790D01*
X352135Y334953D01*
X352114Y335084D01*
X352103Y335138D01*
X352092Y335182D01*
Y335204D01*
Y335214D01*
X352070Y335356D01*
X352059Y335486D01*
Y335541D01*
Y335584D01*
Y335606D01*
Y335617D01*
X352070Y335769D01*
X352081Y335922D01*
X352146Y336183D01*
X352222Y336400D01*
X352320Y336585D01*
X352418Y336727D01*
X352505Y336825D01*
X352571Y336890D01*
X352581Y336912D01*
X352592D01*
X352788Y337031D01*
X352886Y337086D01*
X352984Y337118D01*
X353060Y337151D01*
X353125Y337173D01*
X353169Y337195D01*
X353180D01*
X353310Y337227D01*
X353463Y337249D01*
X353604Y337271D01*
X353746Y337282D01*
X353876Y337293D01*
X354061D01*
X354268Y337282D01*
X354496Y337249D01*
X354714Y337205D01*
X354921Y337162D01*
X355106Y337107D01*
X355182Y337086D01*
X355247Y337064D01*
X355301Y337042D01*
X355345Y337031D01*
X355367Y337020D01*
X355378D01*
X355661Y336912D01*
X355922Y336792D01*
X356172Y336672D01*
X356379Y336563D01*
X356553Y336455D01*
X356629Y336411D01*
X356683Y336368D01*
X356738Y336335D01*
X356770Y336313D01*
X356792Y336302D01*
X356803Y336292D01*
X357031Y336117D01*
X357249Y335932D01*
X357434Y335748D01*
X357586Y335573D01*
X357717Y335432D01*
X357815Y335312D01*
X357847Y335269D01*
X357869Y335236D01*
X357891Y335214D01*
Y335204D01*
X358032Y334964D01*
X358087Y334844D01*
Y334975D01*
X358108Y335182D01*
X358130Y335378D01*
X358163Y335563D01*
X358195Y335726D01*
X358239Y335878D01*
X358283Y336019D01*
X358326Y336139D01*
X358381Y336259D01*
X358424Y336346D01*
X358468Y336433D01*
X358500Y336498D01*
X358533Y336553D01*
X358555Y336585D01*
X358565Y336607D01*
X358576Y336618D01*
X358685Y336749D01*
X358805Y336857D01*
X358925Y336955D01*
X359033Y337031D01*
X359131Y337097D01*
X359207Y337151D01*
X359262Y337173D01*
X359283Y337184D01*
X359458Y337260D01*
X359653Y337314D01*
X359849Y337347D01*
X360045Y337380D01*
X360219Y337390D01*
X360295D01*
X360350Y337401D01*
X360633D01*
X360796Y337380D01*
D02*
G37*
G36*
X368858Y337195D02*
X369532Y337129D01*
X369848Y337107D01*
X370163Y337086D01*
X370457Y337075D01*
X370729Y337064D01*
X370990Y337053D01*
X371219Y337042D01*
X371426D01*
X371600Y337031D01*
X372198D01*
X372459Y337042D01*
X372699Y337053D01*
X372927Y337064D01*
X373112D01*
X373188Y337075D01*
X373253D01*
X373297Y337086D01*
X373373D01*
X373449Y335280D01*
X373199Y335236D01*
X373090Y335214D01*
X372992D01*
X372905Y335204D01*
X372427D01*
X372329Y335193D01*
X372242Y335182D01*
X372176D01*
X372133Y335171D01*
X372122D01*
X372165Y334888D01*
X372198Y334594D01*
X372296Y333974D01*
X372405Y333321D01*
X372524Y332647D01*
X372644Y331961D01*
X372764Y331287D01*
X372894Y330612D01*
X373014Y329970D01*
X373079Y329666D01*
X373134Y329361D01*
X373199Y329078D01*
X373253Y328795D01*
X373308Y328534D01*
X373351Y328295D01*
X373406Y328066D01*
X373438Y327849D01*
X373482Y327664D01*
X373515Y327490D01*
X373547Y327348D01*
X373580Y327218D01*
X373591Y327120D01*
X373612Y327044D01*
X373623Y327000D01*
Y326989D01*
X371088Y327381D01*
X371067Y327533D01*
X371045Y327696D01*
X370990Y328055D01*
X370936Y328436D01*
X370871Y328839D01*
X370816Y329252D01*
X370751Y329677D01*
X370686Y330090D01*
X370620Y330492D01*
X370555Y330884D01*
X370501Y331243D01*
X370446Y331580D01*
X370425Y331722D01*
X370403Y331863D01*
X370381Y331983D01*
X370370Y332103D01*
X370349Y332201D01*
X370338Y332277D01*
X370327Y332342D01*
Y332386D01*
X370316Y332418D01*
Y332429D01*
X370272Y332723D01*
X370229Y332995D01*
X370185Y333256D01*
X370142Y333506D01*
X370098Y333735D01*
X370055Y333952D01*
X370022Y334159D01*
X369979Y334333D01*
X369946Y334496D01*
X369913Y334649D01*
X369892Y334768D01*
X369870Y334877D01*
X369848Y334953D01*
X369837Y335019D01*
X369826Y335051D01*
Y335062D01*
X369598Y335095D01*
X369500Y335117D01*
X369402Y335127D01*
X369326Y335138D01*
X369261D01*
X369217Y335149D01*
X369206D01*
X368978Y335182D01*
X368869Y335204D01*
X368771Y335225D01*
X368695Y335247D01*
X368629Y335258D01*
X368586Y335269D01*
X368575D01*
X368531Y335465D01*
X368510Y335563D01*
X368499Y335661D01*
X368477Y335737D01*
X368466Y335802D01*
X368455Y335845D01*
Y335856D01*
X368412Y336096D01*
X368390Y336215D01*
X368368Y336313D01*
X368347Y336389D01*
X368336Y336455D01*
X368325Y336498D01*
Y336509D01*
X368287Y336700D01*
X368347Y335280D01*
X368096Y335236D01*
X367987Y335214D01*
X367890D01*
X367803Y335204D01*
X367324D01*
X367226Y335193D01*
X367139Y335182D01*
X367074D01*
X367030Y335171D01*
X367019D01*
X367063Y334888D01*
X367095Y334594D01*
X367193Y333974D01*
X367302Y333321D01*
X367422Y332647D01*
X367541Y331961D01*
X367661Y331287D01*
X367792Y330612D01*
X367911Y329970D01*
X367977Y329666D01*
X368031Y329361D01*
X368096Y329078D01*
X368151Y328795D01*
X368205Y328534D01*
X368249Y328295D01*
X368303Y328066D01*
X368336Y327849D01*
X368379Y327664D01*
X368412Y327490D01*
X368444Y327348D01*
X368477Y327218D01*
X368488Y327120D01*
X368510Y327044D01*
X368521Y327000D01*
Y326989D01*
X365986Y327381D01*
X365964Y327533D01*
X365942Y327696D01*
X365888Y328055D01*
X365833Y328436D01*
X365768Y328839D01*
X365714Y329252D01*
X365648Y329677D01*
X365583Y330090D01*
X365518Y330492D01*
X365453Y330884D01*
X365398Y331243D01*
X365344Y331580D01*
X365322Y331722D01*
X365300Y331863D01*
X365278Y331983D01*
X365267Y332103D01*
X365246Y332201D01*
X365235Y332277D01*
X365224Y332342D01*
Y332386D01*
X365213Y332418D01*
Y332429D01*
X365170Y332723D01*
X365126Y332995D01*
X365083Y333256D01*
X365039Y333506D01*
X364996Y333735D01*
X364952Y333952D01*
X364919Y334159D01*
X364876Y334333D01*
X364843Y334496D01*
X364811Y334649D01*
X364789Y334768D01*
X364767Y334877D01*
X364745Y334953D01*
X364734Y335019D01*
X364723Y335051D01*
Y335062D01*
X364495Y335095D01*
X364397Y335117D01*
X364299Y335127D01*
X364223Y335138D01*
X364158D01*
X364114Y335149D01*
X364103D01*
X363875Y335182D01*
X363766Y335204D01*
X363668Y335225D01*
X363592Y335247D01*
X363527Y335258D01*
X363483Y335269D01*
X363472D01*
X363429Y335465D01*
X363407Y335563D01*
X363396Y335661D01*
X363374Y335737D01*
X363364Y335802D01*
X363353Y335845D01*
Y335856D01*
X363309Y336096D01*
X363287Y336215D01*
X363266Y336313D01*
X363244Y336389D01*
X363233Y336455D01*
X363222Y336498D01*
Y336509D01*
X363070Y337271D01*
X363755Y337195D01*
X364430Y337129D01*
X364745Y337107D01*
X365061Y337086D01*
X365355Y337075D01*
X365627Y337064D01*
X365888Y337053D01*
X366116Y337042D01*
X366323D01*
X366497Y337031D01*
X367095D01*
X367356Y337042D01*
X367596Y337053D01*
X367824Y337064D01*
X368009D01*
X368085Y337075D01*
X368151D01*
X368194Y337086D01*
X368210D01*
X368173Y337271D01*
X368858Y337195D01*
D02*
G37*
G36*
X343300Y306800D02*
Y306000D01*
Y305200D01*
X344100D01*
Y304400D01*
Y303600D01*
Y302800D01*
Y302000D01*
Y301200D01*
X344900D01*
Y300400D01*
Y299600D01*
Y298800D01*
X346500D01*
Y298000D01*
X348900D01*
Y297200D01*
X352100D01*
Y298000D01*
X353700D01*
Y298800D01*
X354500D01*
Y299600D01*
X356100D01*
Y300400D01*
X356900D01*
Y301200D01*
X357700D01*
Y300400D01*
X358500D01*
Y299600D01*
X359300D01*
Y298800D01*
X360100D01*
Y298000D01*
X360900D01*
Y297200D01*
X361700D01*
Y296400D01*
X362500D01*
Y295600D01*
Y294800D01*
X361700D01*
Y294000D01*
X360900D01*
Y293200D01*
Y292400D01*
X360100D01*
Y291600D01*
X359300D01*
Y290800D01*
Y290000D01*
X358500D01*
Y289200D01*
Y288400D01*
X359300D01*
Y287600D01*
Y286800D01*
Y286000D01*
X360100D01*
Y285200D01*
Y284400D01*
X360900D01*
Y283600D01*
Y282800D01*
X364900D01*
Y282000D01*
X368900D01*
Y281200D01*
Y280400D01*
Y279600D01*
Y278800D01*
Y278000D01*
Y277200D01*
Y276400D01*
Y275600D01*
Y274800D01*
Y274000D01*
X364900D01*
Y273200D01*
X361700D01*
Y272400D01*
X360900D01*
Y271600D01*
Y270800D01*
X360100D01*
Y270000D01*
Y269200D01*
X359300D01*
Y268400D01*
Y267600D01*
Y266800D01*
X358500D01*
Y266000D01*
X359300D01*
Y265200D01*
Y264400D01*
X360100D01*
Y263600D01*
X360900D01*
Y262800D01*
Y262000D01*
X361700D01*
Y261200D01*
X362500D01*
Y260400D01*
Y259600D01*
X361700D01*
Y258800D01*
X360900D01*
Y258000D01*
X360100D01*
Y257200D01*
X359300D01*
Y256400D01*
X358500D01*
Y255600D01*
X357700D01*
Y254800D01*
X356900D01*
Y255600D01*
X356100D01*
Y256400D01*
X354500D01*
Y257200D01*
X353700D01*
Y258000D01*
X352900D01*
Y258800D01*
X350500D01*
Y258000D01*
X348100D01*
Y258800D01*
Y259600D01*
X347300D01*
Y260400D01*
Y261200D01*
X346500D01*
Y262000D01*
Y262800D01*
Y263600D01*
X345700D01*
Y264400D01*
Y265200D01*
X344900D01*
Y266000D01*
Y266800D01*
Y267600D01*
X344100D01*
Y268400D01*
Y269200D01*
X343300D01*
Y270000D01*
X344100D01*
Y270800D01*
X344900D01*
Y271600D01*
X346500D01*
Y272400D01*
Y273200D01*
X347300D01*
Y274000D01*
Y274800D01*
X348100D01*
Y275600D01*
Y276400D01*
Y277200D01*
Y278000D01*
Y278800D01*
Y279600D01*
Y280400D01*
Y281200D01*
X347300D01*
Y282000D01*
Y282800D01*
X346500D01*
Y283600D01*
X345700D01*
Y284400D01*
X344900D01*
Y285200D01*
X344100D01*
Y286000D01*
X340900D01*
Y286800D01*
X338500D01*
Y286000D01*
X335300D01*
Y285200D01*
X334500D01*
Y284400D01*
X333700D01*
Y283600D01*
X332900D01*
Y282800D01*
X332100D01*
Y282000D01*
Y281200D01*
X331300D01*
Y280400D01*
Y279600D01*
Y278800D01*
Y278000D01*
Y277200D01*
Y276400D01*
Y275600D01*
Y274800D01*
X332100D01*
Y274000D01*
Y273200D01*
X332900D01*
Y272400D01*
Y271600D01*
X334500D01*
Y270800D01*
X335300D01*
Y270000D01*
X336100D01*
Y269200D01*
X335300D01*
Y268400D01*
Y267600D01*
X334500D01*
Y266800D01*
Y266000D01*
Y265200D01*
X333700D01*
Y264400D01*
Y263600D01*
X332900D01*
Y262800D01*
Y262000D01*
Y261200D01*
X332100D01*
Y260400D01*
Y259600D01*
X331300D01*
Y258800D01*
Y258000D01*
X328900D01*
Y258800D01*
X326500D01*
Y258000D01*
X325700D01*
Y257200D01*
X324900D01*
Y256400D01*
X323300D01*
Y255600D01*
X322500D01*
Y254800D01*
X321700D01*
Y255600D01*
X320900D01*
Y256400D01*
X320100D01*
Y257200D01*
X319300D01*
Y258000D01*
X318500D01*
Y258800D01*
X317700D01*
Y259600D01*
X316900D01*
Y260400D01*
Y261200D01*
X317700D01*
Y262000D01*
X318500D01*
Y262800D01*
Y263600D01*
X319300D01*
Y264400D01*
X320100D01*
Y265200D01*
Y266000D01*
X320900D01*
Y266800D01*
X320100D01*
Y267600D01*
Y268400D01*
Y269200D01*
X319300D01*
Y270000D01*
Y270800D01*
X318500D01*
Y271600D01*
Y272400D01*
X317700D01*
Y273200D01*
X314500D01*
Y274000D01*
X310500D01*
Y274800D01*
Y275600D01*
Y276400D01*
Y277200D01*
Y278000D01*
Y278800D01*
Y279600D01*
Y280400D01*
Y281200D01*
Y282000D01*
X314500D01*
Y282800D01*
X318500D01*
Y283600D01*
Y284400D01*
X319300D01*
Y285200D01*
Y286000D01*
X320100D01*
Y286800D01*
Y287600D01*
Y288400D01*
X320900D01*
Y289200D01*
Y290000D01*
X320100D01*
Y290800D01*
Y291600D01*
X319300D01*
Y292400D01*
X318500D01*
Y293200D01*
Y294000D01*
X317700D01*
Y294800D01*
X316900D01*
Y295600D01*
Y296400D01*
X317700D01*
Y297200D01*
X318500D01*
Y298000D01*
X319300D01*
Y298800D01*
X320100D01*
Y299600D01*
X320900D01*
Y300400D01*
X321700D01*
Y301200D01*
X322500D01*
Y300400D01*
X323300D01*
Y299600D01*
X324900D01*
Y298800D01*
X325700D01*
Y298000D01*
X327300D01*
Y297200D01*
X330500D01*
Y298000D01*
X332900D01*
Y298800D01*
X334500D01*
Y299600D01*
Y300400D01*
Y301200D01*
X335300D01*
Y302000D01*
Y302800D01*
Y303600D01*
Y304400D01*
Y305200D01*
X336100D01*
Y306000D01*
Y306800D01*
Y307600D01*
X343300D01*
Y306800D01*
D02*
G37*
G36*
X329527Y337521D02*
X329799Y337477D01*
X330060Y337401D01*
X330310Y337325D01*
X330430Y337282D01*
X330528Y337238D01*
X330626Y337205D01*
X330702Y337162D01*
X330767Y337140D01*
X330811Y337118D01*
X330843Y337097D01*
X330854D01*
X331028Y337010D01*
X331191Y336912D01*
X331507Y336705D01*
X331801Y336487D01*
X332051Y336270D01*
X332160Y336161D01*
X332258Y336063D01*
X332345Y335987D01*
X332421Y335911D01*
X332486Y335845D01*
X332530Y335802D01*
X332551Y335769D01*
X332562Y335758D01*
X332845Y335399D01*
X333106Y335029D01*
X333324Y334649D01*
X333520Y334290D01*
X333596Y334126D01*
X333672Y333985D01*
X333737Y333843D01*
X333781Y333735D01*
X333824Y333637D01*
X333857Y333572D01*
X333868Y333517D01*
X333879Y333506D01*
X333966Y333245D01*
X334053Y332984D01*
X334183Y332451D01*
X334270Y331918D01*
X334303Y331667D01*
X334336Y331428D01*
X334357Y331211D01*
X334368Y331004D01*
X334390Y330819D01*
Y330667D01*
X334401Y330536D01*
Y330438D01*
Y330384D01*
Y330362D01*
X334390Y330035D01*
X334368Y329731D01*
X334336Y329437D01*
X334281Y329165D01*
X334227Y328926D01*
X334162Y328697D01*
X334096Y328480D01*
X334031Y328295D01*
X333966Y328132D01*
X333890Y327990D01*
X333835Y327859D01*
X333781Y327762D01*
X333726Y327685D01*
X333694Y327620D01*
X333672Y327588D01*
X333661Y327577D01*
X333531Y327413D01*
X333389Y327272D01*
X333248Y327152D01*
X333117Y327054D01*
X333008Y326989D01*
X332921Y326935D01*
X332867Y326902D01*
X332845Y326891D01*
X332660Y326815D01*
X332486Y326761D01*
X332301Y326717D01*
X332138Y326695D01*
X331996Y326674D01*
X331877Y326663D01*
X331779D01*
X331550Y326674D01*
X331311Y326717D01*
X331093Y326771D01*
X330876Y326837D01*
X330702Y326902D01*
X330626Y326935D01*
X330560Y326957D01*
X330506Y326978D01*
X330462Y327000D01*
X330441Y327011D01*
X330430D01*
X330147Y327163D01*
X329886Y327326D01*
X329646Y327511D01*
X329440Y327675D01*
X329266Y327838D01*
X329189Y327903D01*
X329124Y327957D01*
X329081Y328012D01*
X329048Y328045D01*
X329026Y328066D01*
X329015Y328077D01*
X328776Y328360D01*
X328558Y328665D01*
X328363Y328958D01*
X328199Y329241D01*
X328134Y329372D01*
X328069Y329491D01*
X328014Y329589D01*
X327971Y329687D01*
X327927Y329764D01*
X327906Y329818D01*
X327884Y329851D01*
Y329861D01*
X327721Y330275D01*
X327601Y330699D01*
X327503Y331123D01*
X327460Y331319D01*
X327427Y331515D01*
X327405Y331689D01*
X327383Y331853D01*
X327362Y331994D01*
X327351Y332124D01*
X327340Y332222D01*
X327329Y332299D01*
Y332353D01*
Y332364D01*
X327917Y332266D01*
X328515Y332168D01*
X328819Y332124D01*
X329102Y332081D01*
X329385Y332037D01*
X329646Y332005D01*
X329886Y331961D01*
X330114Y331940D01*
X330310Y331907D01*
X330484Y331885D01*
X330626Y331863D01*
X330724Y331853D01*
X330789Y331842D01*
X330811D01*
X331072Y330449D01*
X329570Y330667D01*
X329581Y330525D01*
X329603Y330384D01*
X329668Y330123D01*
X329766Y329894D01*
X329864Y329698D01*
X329973Y329535D01*
X330016Y329470D01*
X330060Y329404D01*
X330093Y329361D01*
X330125Y329328D01*
X330136Y329317D01*
X330147Y329307D01*
X330234Y329220D01*
X330332Y329143D01*
X330419Y329078D01*
X330506Y329013D01*
X330582Y328969D01*
X330637Y328937D01*
X330680Y328926D01*
X330691Y328915D01*
X330800Y328871D01*
X330919Y328839D01*
X331028Y328806D01*
X331126Y328795D01*
X331202Y328784D01*
X331278Y328773D01*
X331333D01*
X331452Y328784D01*
X331572Y328828D01*
X331670Y328893D01*
X331768Y328958D01*
X331833Y329024D01*
X331899Y329089D01*
X331931Y329133D01*
X331942Y329143D01*
X331986Y329220D01*
X332029Y329307D01*
X332094Y329491D01*
X332138Y329698D01*
X332171Y329905D01*
X332192Y330101D01*
Y330177D01*
X332203Y330253D01*
Y330308D01*
Y330351D01*
Y330384D01*
Y330395D01*
X332181Y330721D01*
X332149Y331058D01*
X332094Y331385D01*
X332040Y331700D01*
X331975Y332005D01*
X331899Y332309D01*
X331811Y332592D01*
X331735Y332853D01*
X331648Y333093D01*
X331572Y333310D01*
X331496Y333506D01*
X331431Y333669D01*
X331376Y333800D01*
X331333Y333898D01*
X331311Y333963D01*
X331300Y333985D01*
X331159Y334268D01*
X331017Y334518D01*
X330887Y334747D01*
X330767Y334931D01*
X330669Y335084D01*
X330582Y335193D01*
X330560Y335225D01*
X330539Y335258D01*
X330517Y335269D01*
Y335280D01*
X330441Y335367D01*
X330364Y335443D01*
X330212Y335573D01*
X330082Y335661D01*
X329962Y335715D01*
X329864Y335758D01*
X329799Y335769D01*
X329744Y335780D01*
X329733D01*
X329625Y335769D01*
X329538Y335737D01*
X329440Y335682D01*
X329363Y335617D01*
X329287Y335541D01*
X329222Y335454D01*
X329113Y335258D01*
X329026Y335062D01*
X328994Y334975D01*
X328961Y334899D01*
X328939Y334834D01*
X328928Y334779D01*
X328917Y334747D01*
Y334736D01*
X326981Y335106D01*
X326992Y335301D01*
X327003Y335486D01*
X327024Y335661D01*
X327057Y335824D01*
X327100Y335976D01*
X327144Y336117D01*
X327187Y336248D01*
X327242Y336368D01*
X327285Y336466D01*
X327340Y336553D01*
X327383Y336640D01*
X327416Y336694D01*
X327460Y336749D01*
X327481Y336781D01*
X327492Y336803D01*
X327503Y336814D01*
X327612Y336933D01*
X327721Y337031D01*
X327829Y337118D01*
X327938Y337195D01*
X328036Y337260D01*
X328112Y337303D01*
X328156Y337325D01*
X328178Y337336D01*
X328341Y337401D01*
X328526Y337456D01*
X328700Y337488D01*
X328874Y337521D01*
X329026Y337532D01*
X329157Y337543D01*
X329266D01*
X329527Y337521D01*
D02*
G37*
G36*
X350101Y335008D02*
X350493Y334931D01*
X350677Y334899D01*
X350851Y334866D01*
X351015Y334844D01*
X351167Y334834D01*
X351298Y334823D01*
X351428Y334812D01*
X351526Y334801D01*
X351624D01*
X351689Y334790D01*
X351787D01*
X351831Y334507D01*
X351874Y334235D01*
X351918Y333974D01*
X351961Y333746D01*
X351972Y333637D01*
X351994Y333550D01*
X352005Y333463D01*
X352016Y333397D01*
X352027Y333343D01*
Y333299D01*
X352037Y333278D01*
Y333267D01*
X352081Y332984D01*
X352125Y332712D01*
X352157Y332451D01*
X352201Y332222D01*
X352211Y332114D01*
X352222Y332016D01*
X352233Y331940D01*
X352244Y331863D01*
X352255Y331809D01*
X352266Y331765D01*
Y331744D01*
Y331733D01*
X351765D01*
X351439Y331744D01*
X351134Y331755D01*
X350862Y331765D01*
X350634D01*
X350536Y331776D01*
X350449D01*
X350384Y331787D01*
X350297D01*
X350242Y332157D01*
X350188Y332505D01*
X350133Y332832D01*
X350079Y333147D01*
X350025Y333441D01*
X349970Y333713D01*
X349927Y333963D01*
X349883Y334203D01*
X349840Y334409D01*
X349807Y334583D01*
X349774Y334747D01*
X349742Y334877D01*
X349720Y334975D01*
X349698Y335051D01*
X349687Y335106D01*
Y335117D01*
X350101Y335008D01*
D02*
G37*
G36*
X251582Y337010D02*
X253421Y326989D01*
X248862Y327685D01*
X248732Y329296D01*
X250777Y328958D01*
X250299Y331570D01*
X250146D01*
X250005Y331580D01*
X249755D01*
X249668Y331591D01*
X249537D01*
X249287Y331602D01*
X249069D01*
X248993Y331613D01*
X248754D01*
X248656Y331624D01*
X248514D01*
X248460Y331635D01*
X248395D01*
X248373Y331787D01*
X248351Y331929D01*
X248329Y332059D01*
X248318Y332168D01*
X248307Y332266D01*
X248297Y332342D01*
X248286Y332386D01*
Y332407D01*
X248242Y332690D01*
X248231Y332821D01*
X248210Y332941D01*
X248199Y333038D01*
X248188Y333125D01*
X248177Y333169D01*
Y333191D01*
X248253D01*
X248340Y333180D01*
X248449D01*
X248569Y333169D01*
X248667D01*
X248754Y333158D01*
X249037D01*
X249254Y333147D01*
X249461Y333136D01*
X249668Y333125D01*
X249842Y333115D01*
X249972D01*
X250027Y333104D01*
X250103D01*
X249613Y335639D01*
X248405D01*
X248177Y335650D01*
X247992D01*
X247829Y335661D01*
X247698Y335671D01*
X247611D01*
X247557Y335682D01*
X247535D01*
X247502Y335856D01*
X247459Y336019D01*
X247448Y336085D01*
X247437Y336150D01*
X247426Y336183D01*
Y336194D01*
X247372Y336411D01*
X247350Y336509D01*
X247328Y336596D01*
X247307Y336672D01*
X247296Y336727D01*
X247285Y336770D01*
Y336781D01*
X247230Y336999D01*
X247209Y337107D01*
X247176Y337195D01*
X247154Y337271D01*
X247132Y337336D01*
X247122Y337380D01*
Y337390D01*
X251582Y337010D01*
D02*
G37*
G36*
X326012Y336868D02*
X326045Y336672D01*
X326089Y336455D01*
X326165Y335998D01*
X326252Y335508D01*
X326350Y334997D01*
X326448Y334475D01*
X326556Y333941D01*
X326654Y333419D01*
X326752Y332908D01*
X326839Y332418D01*
X326937Y331961D01*
X326970Y331755D01*
X327013Y331559D01*
X327046Y331374D01*
X327079Y331200D01*
X327111Y331047D01*
X327144Y330906D01*
X327166Y330786D01*
X327187Y330677D01*
X327198Y330601D01*
X327209Y330547D01*
X327220Y330503D01*
Y330492D01*
X327362Y329807D01*
X327438Y329470D01*
X327503Y329154D01*
X327579Y328850D01*
X327644Y328567D01*
X327710Y328295D01*
X327764Y328045D01*
X327819Y327816D01*
X327873Y327620D01*
X327917Y327435D01*
X327949Y327294D01*
X327982Y327174D01*
X328004Y327087D01*
X328025Y327033D01*
Y327011D01*
X328014D01*
X327982Y327022D01*
X327927Y327033D01*
X327862D01*
X327710Y327054D01*
X327536Y327076D01*
X327362Y327098D01*
X327275Y327109D01*
X327209Y327120D01*
X327144Y327131D01*
X327100Y327141D01*
X327057D01*
X326883Y327163D01*
X326731Y327185D01*
X326578Y327207D01*
X326448Y327218D01*
X326328Y327228D01*
X326219Y327239D01*
X326121Y327250D01*
X326034Y327261D01*
X325893D01*
X325795Y327272D01*
X325719D01*
X325686Y327468D01*
X325643Y327707D01*
X325588Y327968D01*
X325545Y328262D01*
X325479Y328578D01*
X325414Y328915D01*
X325349Y329274D01*
X325284Y329655D01*
X325207Y330046D01*
X325131Y330449D01*
X324968Y331276D01*
X324805Y332135D01*
X324642Y332984D01*
X324478Y333800D01*
X324402Y334203D01*
X324326Y334583D01*
X324261Y334953D01*
X324185Y335301D01*
X324119Y335639D01*
X324065Y335943D01*
X324011Y336215D01*
X323956Y336466D01*
X323923Y336683D01*
X323880Y336868D01*
X323858Y337020D01*
X323836Y337129D01*
X323826Y337162D01*
X323815Y337195D01*
Y337205D01*
Y337216D01*
X326012Y336868D01*
D02*
G37*
G36*
X287573Y337532D02*
X287835Y337488D01*
X288085Y337423D01*
X288324Y337336D01*
X288553Y337238D01*
X288781Y337129D01*
X288988Y337020D01*
X289184Y336901D01*
X289358Y336770D01*
X289521Y336661D01*
X289662Y336553D01*
X289782Y336455D01*
X289869Y336368D01*
X289945Y336302D01*
X289989Y336259D01*
X290000Y336248D01*
X290217Y336019D01*
X290424Y335769D01*
X290620Y335519D01*
X290794Y335269D01*
X290968Y335008D01*
X291131Y334757D01*
X291273Y334518D01*
X291403Y334279D01*
X291523Y334061D01*
X291621Y333865D01*
X291708Y333680D01*
X291784Y333528D01*
X291838Y333397D01*
X291882Y333299D01*
X291904Y333245D01*
X291915Y333223D01*
X292045Y332886D01*
X292154Y332560D01*
X292252Y332233D01*
X292339Y331929D01*
X292404Y331635D01*
X292469Y331352D01*
X292513Y331091D01*
X292557Y330841D01*
X292578Y330623D01*
X292600Y330427D01*
X292622Y330253D01*
X292633Y330101D01*
X292643Y329992D01*
Y329905D01*
Y329851D01*
Y329829D01*
X292633Y329568D01*
X292622Y329317D01*
X292589Y329089D01*
X292546Y328871D01*
X292502Y328676D01*
X292448Y328501D01*
X292393Y328338D01*
X292339Y328186D01*
X292284Y328055D01*
X292230Y327947D01*
X292176Y327849D01*
X292132Y327772D01*
X292089Y327707D01*
X292056Y327664D01*
X292045Y327642D01*
X292034Y327631D01*
X291925Y327511D01*
X291817Y327403D01*
X291697Y327315D01*
X291566Y327239D01*
X291447Y327174D01*
X291316Y327109D01*
X291077Y327033D01*
X290859Y326978D01*
X290772Y326967D01*
X290685Y326957D01*
X290620Y326946D01*
X290533D01*
X290326Y326957D01*
X290108Y326989D01*
X289902Y327033D01*
X289695Y327098D01*
X289488Y327163D01*
X289293Y327250D01*
X289107Y327337D01*
X288933Y327424D01*
X288781Y327511D01*
X288629Y327598D01*
X288498Y327685D01*
X288389Y327751D01*
X288302Y327816D01*
X288237Y327859D01*
X288194Y327892D01*
X288183Y327903D01*
X287965Y328088D01*
X287758Y328284D01*
X287563Y328469D01*
X287399Y328654D01*
X287258Y328806D01*
X287149Y328937D01*
X287106Y328980D01*
X287073Y329013D01*
X287062Y329035D01*
X287051Y329045D01*
X286855Y329307D01*
X286670Y329568D01*
X286507Y329829D01*
X286366Y330057D01*
X286311Y330166D01*
X286257Y330264D01*
X286203Y330351D01*
X286170Y330427D01*
X286137Y330482D01*
X286116Y330536D01*
X286094Y330558D01*
Y330569D01*
X285941Y330895D01*
X285822Y331221D01*
X285702Y331537D01*
X285615Y331831D01*
X285572Y331961D01*
X285539Y332070D01*
X285506Y332179D01*
X285485Y332266D01*
X285463Y332342D01*
X285452Y332397D01*
X285441Y332429D01*
Y332440D01*
X285354Y332810D01*
X285299Y333169D01*
X285256Y333485D01*
X285234Y333626D01*
X285223Y333756D01*
X285212Y333876D01*
X285202Y333985D01*
Y334083D01*
X285191Y334159D01*
Y334224D01*
Y334268D01*
Y334300D01*
Y334311D01*
Y334594D01*
X285212Y334855D01*
X285234Y335095D01*
X285256Y335312D01*
X285289Y335519D01*
X285332Y335715D01*
X285365Y335878D01*
X285408Y336030D01*
X285452Y336172D01*
X285485Y336281D01*
X285528Y336379D01*
X285561Y336466D01*
X285582Y336531D01*
X285604Y336574D01*
X285626Y336596D01*
Y336607D01*
X285735Y336770D01*
X285854Y336912D01*
X285974Y337042D01*
X286116Y337151D01*
X286257Y337238D01*
X286398Y337314D01*
X286529Y337380D01*
X286670Y337423D01*
X286801Y337467D01*
X286921Y337488D01*
X287029Y337510D01*
X287127Y337532D01*
X287204D01*
X287258Y337543D01*
X287312D01*
X287573Y337532D01*
D02*
G37*
G36*
X300825Y329372D02*
X300934Y329350D01*
X301021Y329328D01*
X301097Y329307D01*
X301152Y329285D01*
X301184Y329274D01*
X301195Y329263D01*
X301337Y329187D01*
X301456Y329100D01*
X301554Y329013D01*
X301652Y328915D01*
X301728Y328806D01*
X301783Y328697D01*
X301837Y328599D01*
X301881Y328491D01*
X301935Y328306D01*
X301957Y328219D01*
X301968Y328142D01*
Y328088D01*
X301979Y328045D01*
Y328012D01*
Y328001D01*
X301968Y327816D01*
X301935Y327642D01*
X301881Y327479D01*
X301826Y327348D01*
X301772Y327228D01*
X301717Y327152D01*
X301685Y327098D01*
X301674Y327076D01*
X301554Y326967D01*
X301424Y326869D01*
X301369Y326837D01*
X301326Y326815D01*
X301304Y326804D01*
X301293Y326793D01*
X301195Y326750D01*
X301097Y326728D01*
X300989Y326706D01*
X300891Y326684D01*
X300803D01*
X300738Y326674D01*
X300673D01*
X300401Y326695D01*
X300151Y326739D01*
X299933Y326815D01*
X299748Y326902D01*
X299607Y326978D01*
X299487Y327054D01*
X299454Y327076D01*
X299422Y327098D01*
X299411Y327120D01*
X299400D01*
X299248Y327283D01*
X299139Y327446D01*
X299052Y327620D01*
X298997Y327772D01*
X298965Y327914D01*
X298954Y328023D01*
X298943Y328066D01*
Y328099D01*
Y328110D01*
Y328121D01*
X298965Y328306D01*
X299008Y328469D01*
X299074Y328621D01*
X299150Y328752D01*
X299226Y328860D01*
X299291Y328937D01*
X299335Y328980D01*
X299357Y329002D01*
X299520Y329133D01*
X299715Y329230D01*
X299922Y329296D01*
X300118Y329350D01*
X300303Y329372D01*
X300379Y329383D01*
X300455D01*
X300510Y329394D01*
X300716D01*
X300825Y329372D01*
D02*
G37*
G36*
X303404Y337412D02*
X303926Y337369D01*
X304448Y337303D01*
X304709Y337271D01*
X304949Y337238D01*
X305188Y337195D01*
X305395Y337162D01*
X305580Y337129D01*
X305754Y337097D01*
X305885Y337064D01*
X305982Y337053D01*
X306048Y337031D01*
X306069D01*
X306211Y336085D01*
X306276Y335628D01*
X306341Y335171D01*
X306418Y334736D01*
X306472Y334322D01*
X306537Y333931D01*
X306592Y333561D01*
X306646Y333223D01*
X306690Y332919D01*
X306733Y332647D01*
X306755Y332538D01*
X306777Y332429D01*
X306787Y332331D01*
X306798Y332244D01*
X306809Y332168D01*
X306820Y332103D01*
X306831Y332059D01*
X306842Y332027D01*
Y332005D01*
Y331994D01*
X307005Y331058D01*
X307092Y330601D01*
X307179Y330166D01*
X307266Y329731D01*
X307353Y329317D01*
X307440Y328937D01*
X307527Y328567D01*
X307604Y328240D01*
X307680Y327936D01*
X307745Y327675D01*
X307767Y327555D01*
X307799Y327446D01*
X307821Y327348D01*
X307843Y327261D01*
X307865Y327196D01*
X307875Y327131D01*
X307886Y327087D01*
X307897Y327054D01*
X307908Y327033D01*
Y327022D01*
X307571Y326978D01*
X307408Y326967D01*
X307255Y326957D01*
X307125Y326946D01*
X306940D01*
X306483Y326967D01*
X306037Y327011D01*
X305830Y327044D01*
X305623Y327076D01*
X305438Y327109D01*
X305264Y327152D01*
X305101Y327185D01*
X304949Y327218D01*
X304829Y327250D01*
X304720Y327283D01*
X304633Y327315D01*
X304568Y327326D01*
X304524Y327348D01*
X304514D01*
X304285Y327435D01*
X304078Y327511D01*
X303883Y327598D01*
X303709Y327685D01*
X303567Y327751D01*
X303458Y327805D01*
X303415Y327827D01*
X303382Y327849D01*
X303371Y327859D01*
X303360D01*
X303165Y327979D01*
X302979Y328099D01*
X302816Y328219D01*
X302686Y328327D01*
X302566Y328414D01*
X302490Y328491D01*
X302435Y328534D01*
X302414Y328556D01*
X302272Y328708D01*
X302142Y328871D01*
X302033Y329024D01*
X301946Y329154D01*
X301870Y329285D01*
X301815Y329372D01*
X301783Y329437D01*
X301772Y329459D01*
X301696Y329644D01*
X301630Y329829D01*
X301587Y329992D01*
X301565Y330144D01*
X301543Y330275D01*
X301533Y330373D01*
Y330438D01*
Y330460D01*
X301543Y330721D01*
X301576Y330971D01*
X301630Y331200D01*
X301707Y331406D01*
X301794Y331602D01*
X301891Y331776D01*
X301989Y331929D01*
X302087Y332070D01*
X302196Y332201D01*
X302294Y332309D01*
X302392Y332397D01*
X302479Y332473D01*
X302544Y332527D01*
X302610Y332571D01*
X302642Y332592D01*
X302653Y332603D01*
X302512Y332658D01*
X302370Y332734D01*
X302109Y332886D01*
X301881Y333060D01*
X301685Y333234D01*
X301522Y333397D01*
X301456Y333474D01*
X301402Y333539D01*
X301358Y333582D01*
X301326Y333626D01*
X301315Y333648D01*
X301304Y333659D01*
X301206Y333811D01*
X301119Y333963D01*
X301043Y334105D01*
X300978Y334235D01*
X300923Y334355D01*
X300891Y334442D01*
X300869Y334496D01*
X300858Y334518D01*
X300803Y334692D01*
X300760Y334877D01*
X300727Y335040D01*
X300706Y335204D01*
X300695Y335334D01*
X300684Y335443D01*
Y335475D01*
Y335508D01*
Y335519D01*
Y335530D01*
X300695Y335726D01*
X300716Y335900D01*
X300760Y336063D01*
X300793Y336194D01*
X300836Y336302D01*
X300880Y336379D01*
X300901Y336422D01*
X300912Y336444D01*
X301021Y336618D01*
X301163Y336770D01*
X301304Y336901D01*
X301456Y337020D01*
X301620Y337107D01*
X301794Y337195D01*
X301957Y337260D01*
X302120Y337314D01*
X302283Y337347D01*
X302425Y337380D01*
X302566Y337401D01*
X302675Y337423D01*
X302773D01*
X302849Y337434D01*
X303154D01*
X303404Y337412D01*
D02*
G37*
G36*
X254520Y337282D02*
X254749Y337249D01*
X254966Y337205D01*
X255173Y337162D01*
X255358Y337107D01*
X255434Y337086D01*
X255499Y337064D01*
X255554Y337042D01*
X255597Y337031D01*
X255619Y337020D01*
X255630D01*
X255913Y336912D01*
X256174Y336792D01*
X256424Y336672D01*
X256631Y336563D01*
X256805Y336455D01*
X256881Y336411D01*
X256935Y336368D01*
X256990Y336335D01*
X257022Y336313D01*
X257044Y336302D01*
X257055Y336292D01*
X257283Y336117D01*
X257501Y335932D01*
X257686Y335748D01*
X257838Y335573D01*
X257969Y335432D01*
X258067Y335312D01*
X258100Y335269D01*
X258121Y335236D01*
X258143Y335214D01*
Y335204D01*
X258284Y334964D01*
X258393Y334725D01*
X258469Y334485D01*
X258524Y334268D01*
X258557Y334083D01*
X258567Y334007D01*
Y333941D01*
X258578Y333887D01*
Y333843D01*
Y333822D01*
Y333811D01*
X258567Y333669D01*
X258546Y333528D01*
X258502Y333397D01*
X258459Y333267D01*
X258339Y333017D01*
X258187Y332799D01*
X258045Y332625D01*
X257980Y332549D01*
X257925Y332484D01*
X257882Y332429D01*
X257838Y332397D01*
X257817Y332375D01*
X257806Y332364D01*
X257566Y332146D01*
X257447Y332048D01*
X257338Y331961D01*
X257251Y331885D01*
X257175Y331831D01*
X257131Y331798D01*
X257109Y331787D01*
X256968Y331689D01*
X256837Y331591D01*
X256718Y331504D01*
X256620Y331428D01*
X256533Y331363D01*
X256468Y331309D01*
X256424Y331276D01*
X256413Y331265D01*
X256293Y331167D01*
X256185Y331069D01*
X256098Y330971D01*
X256021Y330895D01*
X255956Y330819D01*
X255913Y330765D01*
X255880Y330721D01*
X255869Y330710D01*
X255793Y330601D01*
X255739Y330492D01*
X255695Y330384D01*
X255673Y330286D01*
X255651Y330199D01*
X255641Y330133D01*
Y330090D01*
Y330068D01*
X255651Y329938D01*
X255695Y329829D01*
X255749Y329731D01*
X255815Y329644D01*
X255880Y329568D01*
X255934Y329513D01*
X255978Y329481D01*
X255989Y329470D01*
X256108Y329394D01*
X256217Y329350D01*
X256261Y329328D01*
X256293Y329317D01*
X256315Y329307D01*
X256326D01*
X256478Y329274D01*
X256631Y329263D01*
X256696Y329252D01*
X256794D01*
X256903Y329263D01*
X257033Y329307D01*
X257175Y329361D01*
X257305Y329415D01*
X257425Y329481D01*
X257523Y329524D01*
X257588Y329568D01*
X257599Y329579D01*
X257610D01*
X257806Y329698D01*
X257958Y329829D01*
X258089Y329948D01*
X258197Y330057D01*
X258274Y330144D01*
X258317Y330221D01*
X258350Y330264D01*
X258361Y330286D01*
X259405Y328229D01*
X259209Y328012D01*
X259024Y327816D01*
X258828Y327653D01*
X258633Y327511D01*
X258437Y327381D01*
X258263Y327283D01*
X258078Y327196D01*
X257915Y327131D01*
X257762Y327087D01*
X257621Y327044D01*
X257501Y327022D01*
X257392Y327000D01*
X257305Y326989D01*
X257240Y326978D01*
X257186D01*
X256881Y326989D01*
X256598Y327022D01*
X256326Y327065D01*
X256065Y327131D01*
X255826Y327196D01*
X255608Y327283D01*
X255401Y327370D01*
X255216Y327457D01*
X255042Y327544D01*
X254901Y327631D01*
X254770Y327718D01*
X254672Y327783D01*
X254585Y327849D01*
X254520Y327892D01*
X254487Y327925D01*
X254476Y327936D01*
X254281Y328132D01*
X254107Y328338D01*
X253954Y328545D01*
X253824Y328752D01*
X253715Y328969D01*
X253617Y329187D01*
X253541Y329383D01*
X253486Y329589D01*
X253443Y329774D01*
X253399Y329938D01*
X253378Y330090D01*
X253367Y330221D01*
X253356Y330329D01*
X253345Y330416D01*
Y330460D01*
Y330482D01*
X253356Y330710D01*
X253378Y330939D01*
X253410Y331145D01*
X253443Y331341D01*
X253497Y331515D01*
X253552Y331689D01*
X253617Y331842D01*
X253671Y331983D01*
X253737Y332103D01*
X253802Y332211D01*
X253856Y332309D01*
X253900Y332386D01*
X253943Y332451D01*
X253976Y332494D01*
X253998Y332516D01*
X254009Y332527D01*
X254117Y332636D01*
X254226Y332745D01*
X254324Y332832D01*
X254422Y332908D01*
X254509Y332962D01*
X254574Y333017D01*
X254618Y333038D01*
X254629Y333049D01*
X254857Y333202D01*
X254966Y333267D01*
X255053Y333332D01*
X255129Y333376D01*
X255184Y333419D01*
X255227Y333441D01*
X255238Y333452D01*
X255434Y333604D01*
X255510Y333669D01*
X255586Y333735D01*
X255641Y333789D01*
X255684Y333833D01*
X255706Y333865D01*
X255717Y333876D01*
X255782Y333963D01*
X255826Y334061D01*
X255858Y334159D01*
X255880Y334257D01*
X255891Y334333D01*
X255902Y334409D01*
Y334453D01*
Y334464D01*
X255880Y334605D01*
X255837Y334725D01*
X255782Y334844D01*
X255706Y334942D01*
X255641Y335029D01*
X255575Y335095D01*
X255532Y335138D01*
X255521Y335149D01*
X255401Y335236D01*
X255293Y335312D01*
X255260Y335334D01*
X255227Y335356D01*
X255205Y335367D01*
X255195D01*
X255064Y335421D01*
X254955Y335443D01*
X254923Y335454D01*
X254857D01*
X254792Y335443D01*
X254738Y335421D01*
X254629Y335356D01*
X254585Y335323D01*
X254553Y335291D01*
X254542Y335269D01*
X254531Y335258D01*
X254476Y335182D01*
X254444Y335106D01*
X254400Y334942D01*
X254389Y334877D01*
X254379Y334823D01*
Y334779D01*
Y334768D01*
X254389Y334551D01*
X254400Y334453D01*
X254411Y334366D01*
X254422Y334300D01*
X254433Y334246D01*
X254444Y334203D01*
Y334192D01*
X252409Y334790D01*
X252387Y334953D01*
X252366Y335084D01*
X252355Y335138D01*
X252344Y335182D01*
Y335204D01*
Y335214D01*
X252322Y335356D01*
X252311Y335486D01*
Y335541D01*
Y335584D01*
Y335606D01*
Y335617D01*
X252322Y335769D01*
X252333Y335922D01*
X252398Y336183D01*
X252475Y336400D01*
X252572Y336585D01*
X252670Y336727D01*
X252757Y336825D01*
X252823Y336890D01*
X252834Y336912D01*
X252845D01*
X253040Y337031D01*
X253138Y337086D01*
X253236Y337118D01*
X253312Y337151D01*
X253378Y337173D01*
X253421Y337195D01*
X253432D01*
X253563Y337227D01*
X253715Y337249D01*
X253856Y337271D01*
X253998Y337282D01*
X254128Y337293D01*
X254313D01*
X254520Y337282D01*
D02*
G37*
G36*
X312576Y337401D02*
X312674Y337390D01*
X312804D01*
X312946Y337380D01*
X313087Y337369D01*
X313218Y337358D01*
X313326Y337347D01*
X313370Y337336D01*
X313424D01*
X313653Y337314D01*
X313870Y337293D01*
X314066Y337271D01*
X314240Y337249D01*
X314393Y337227D01*
X314501Y337216D01*
X314545Y337205D01*
X314578Y337195D01*
X314599D01*
X314686Y336825D01*
X314763Y336476D01*
X314828Y336150D01*
X314861Y335998D01*
X314893Y335856D01*
X314915Y335726D01*
X314937Y335606D01*
X314958Y335508D01*
X314969Y335421D01*
X314980Y335356D01*
X314991Y335301D01*
X315002Y335269D01*
Y335258D01*
X315056Y334910D01*
X315122Y334562D01*
X315176Y334235D01*
X315209Y334083D01*
X315230Y333941D01*
X315252Y333811D01*
X315285Y333691D01*
X315296Y333593D01*
X315317Y333506D01*
X315328Y333430D01*
X315339Y333376D01*
X315350Y333343D01*
Y333332D01*
X316743Y333169D01*
X316699Y333408D01*
X316645Y333669D01*
X316580Y333963D01*
X316514Y334279D01*
X316438Y334616D01*
X316362Y334942D01*
X316286Y335280D01*
X316210Y335606D01*
X316144Y335922D01*
X316079Y336215D01*
X316014Y336487D01*
X315959Y336716D01*
X315938Y336825D01*
X315916Y336912D01*
X315894Y336988D01*
X315883Y337064D01*
X315872Y337107D01*
X315861Y337151D01*
X315851Y337173D01*
Y337184D01*
X316220D01*
X316612Y337205D01*
X316993Y337216D01*
X317178Y337227D01*
X317352Y337238D01*
X317515Y337249D01*
X317668Y337260D01*
X317798Y337271D01*
X317918D01*
X318005Y337282D01*
X318081Y337293D01*
X318135D01*
X318168Y336988D01*
X318212Y336672D01*
X318255Y336324D01*
X318299Y335965D01*
X318353Y335584D01*
X318418Y335193D01*
X318483Y334790D01*
X318549Y334387D01*
X318690Y333539D01*
X318843Y332679D01*
X318995Y331820D01*
X319147Y330982D01*
X319223Y330579D01*
X319300Y330177D01*
X319365Y329796D01*
X319441Y329426D01*
X319506Y329078D01*
X319571Y328752D01*
X319626Y328447D01*
X319680Y328153D01*
X319735Y327903D01*
X319778Y327664D01*
X319822Y327468D01*
X319854Y327294D01*
X319887Y327163D01*
X319898Y327065D01*
X319920Y327000D01*
Y326978D01*
X317744Y327424D01*
X317657Y327859D01*
X317581Y328273D01*
X317493Y328676D01*
X317428Y329056D01*
X317352Y329415D01*
X317287Y329753D01*
X317232Y330068D01*
X317178Y330362D01*
X317124Y330612D01*
X317080Y330852D01*
X317047Y331047D01*
X317015Y331221D01*
X316993Y331352D01*
X316971Y331450D01*
X316960Y331504D01*
Y331526D01*
X315589Y331646D01*
X315622Y331439D01*
X315666Y331232D01*
X315709Y331026D01*
X315742Y330830D01*
X315774Y330656D01*
X315796Y330579D01*
X315807Y330514D01*
X315818Y330471D01*
Y330427D01*
X315829Y330405D01*
Y330395D01*
X315883Y330123D01*
X315938Y329861D01*
X315981Y329611D01*
X316025Y329383D01*
X316068Y329187D01*
X316079Y329111D01*
X316101Y329045D01*
X316112Y328991D01*
Y328947D01*
X316123Y328926D01*
Y328915D01*
X316177Y328632D01*
X316231Y328360D01*
X316286Y328088D01*
X316329Y327849D01*
X316351Y327740D01*
X316373Y327642D01*
X316395Y327555D01*
X316405Y327479D01*
X316416Y327424D01*
X316427Y327370D01*
X316438Y327348D01*
Y327337D01*
X314240Y327588D01*
X314142Y328284D01*
X314088Y328621D01*
X314044Y328947D01*
X313990Y329263D01*
X313947Y329568D01*
X313892Y329861D01*
X313849Y330123D01*
X313816Y330373D01*
X313773Y330590D01*
X313740Y330786D01*
X313718Y330949D01*
X313696Y331080D01*
X313675Y331178D01*
X313664Y331232D01*
Y331254D01*
X313544Y331983D01*
X313413Y332658D01*
X313294Y333299D01*
X313239Y333604D01*
X313185Y333898D01*
X313120Y334181D01*
X313065Y334453D01*
X313011Y334703D01*
X312957Y334953D01*
X312902Y335193D01*
X312848Y335421D01*
X312804Y335628D01*
X312750Y335835D01*
X312706Y336019D01*
X312663Y336205D01*
X312619Y336368D01*
X312587Y336531D01*
X312543Y336672D01*
X312510Y336803D01*
X312478Y336923D01*
X312456Y337031D01*
X312423Y337118D01*
X312402Y337205D01*
X312380Y337271D01*
X312369Y337336D01*
X312358Y337380D01*
X312347Y337412D01*
X312336Y337423D01*
Y337434D01*
X312576Y337401D01*
D02*
G37*
G36*
X319104Y337195D02*
X319778Y337129D01*
X320094Y337107D01*
X320409Y337086D01*
X320703Y337075D01*
X320975Y337064D01*
X321236Y337053D01*
X321465Y337042D01*
X321671D01*
X321845Y337031D01*
X322444D01*
X322705Y337042D01*
X322944Y337053D01*
X323173Y337064D01*
X323358D01*
X323434Y337075D01*
X323499D01*
X323543Y337086D01*
X323619D01*
X323695Y335280D01*
X323445Y335236D01*
X323336Y335214D01*
X323238D01*
X323151Y335204D01*
X322672D01*
X322574Y335193D01*
X322487Y335182D01*
X322422D01*
X322379Y335171D01*
X322368D01*
X322411Y334888D01*
X322444Y334594D01*
X322542Y333974D01*
X322651Y333321D01*
X322770Y332647D01*
X322890Y331961D01*
X323010Y331287D01*
X323140Y330612D01*
X323260Y329970D01*
X323325Y329666D01*
X323379Y329361D01*
X323445Y329078D01*
X323499Y328795D01*
X323554Y328534D01*
X323597Y328295D01*
X323652Y328066D01*
X323684Y327849D01*
X323728Y327664D01*
X323760Y327490D01*
X323793Y327348D01*
X323826Y327218D01*
X323836Y327120D01*
X323858Y327044D01*
X323869Y327000D01*
Y326989D01*
X321334Y327381D01*
X321312Y327533D01*
X321291Y327696D01*
X321236Y328055D01*
X321182Y328436D01*
X321116Y328839D01*
X321062Y329252D01*
X320997Y329677D01*
X320932Y330090D01*
X320866Y330492D01*
X320801Y330884D01*
X320747Y331243D01*
X320692Y331580D01*
X320670Y331722D01*
X320649Y331863D01*
X320627Y331983D01*
X320616Y332103D01*
X320594Y332201D01*
X320583Y332277D01*
X320572Y332342D01*
Y332386D01*
X320562Y332418D01*
Y332429D01*
X320518Y332723D01*
X320475Y332995D01*
X320431Y333256D01*
X320388Y333506D01*
X320344Y333735D01*
X320301Y333952D01*
X320268Y334159D01*
X320224Y334333D01*
X320192Y334496D01*
X320159Y334649D01*
X320137Y334768D01*
X320115Y334877D01*
X320094Y334953D01*
X320083Y335019D01*
X320072Y335051D01*
Y335062D01*
X319844Y335095D01*
X319746Y335117D01*
X319648Y335127D01*
X319571Y335138D01*
X319506D01*
X319463Y335149D01*
X319452D01*
X319223Y335182D01*
X319115Y335204D01*
X319017Y335225D01*
X318940Y335247D01*
X318875Y335258D01*
X318832Y335269D01*
X318821D01*
X318777Y335465D01*
X318756Y335563D01*
X318745Y335661D01*
X318723Y335737D01*
X318712Y335802D01*
X318701Y335845D01*
Y335856D01*
X318658Y336096D01*
X318636Y336215D01*
X318614Y336313D01*
X318592Y336389D01*
X318581Y336455D01*
X318571Y336498D01*
Y336509D01*
X318418Y337271D01*
X319104Y337195D01*
D02*
G37*
G36*
X343747Y337314D02*
X343954Y336988D01*
X344149Y336672D01*
X344323Y336379D01*
X344411Y336248D01*
X344487Y336128D01*
X344552Y336030D01*
X344606Y335943D01*
X344650Y335867D01*
X344683Y335813D01*
X344704Y335780D01*
X344715Y335769D01*
X345270Y334921D01*
X345825Y334094D01*
X346369Y333289D01*
X346902Y332505D01*
X347413Y331755D01*
X347903Y331036D01*
X348142Y330699D01*
X348371Y330362D01*
X348588Y330046D01*
X348806Y329742D01*
X349013Y329448D01*
X349209Y329176D01*
X349394Y328915D01*
X349568Y328665D01*
X349731Y328436D01*
X349883Y328219D01*
X350025Y328023D01*
X350155Y327838D01*
X350275Y327685D01*
X350373Y327533D01*
X350460Y327413D01*
X350536Y327315D01*
X350590Y327239D01*
X350634Y327174D01*
X350656Y327141D01*
X350667Y327131D01*
X348353Y326601D01*
X348543Y326592D01*
X348874Y326574D01*
X349170D01*
X349431Y326557D01*
X349657D01*
X349849Y326539D01*
X350179D01*
X350301Y326522D01*
X351450D01*
X351624Y326539D01*
X351799D01*
X351851Y326087D01*
X351903Y325582D01*
X351973Y325042D01*
X352042Y324468D01*
X352129Y323876D01*
X352216Y323266D01*
X352321Y322622D01*
X352425Y321961D01*
X352669Y320603D01*
X352913Y319210D01*
X353156Y317817D01*
X353418Y316459D01*
X353539Y315797D01*
X353661Y315153D01*
X353783Y314527D01*
X353905Y313917D01*
X354027Y313343D01*
X354132Y312803D01*
X354236Y312298D01*
X354323Y311828D01*
X354410Y311410D01*
X354497Y311027D01*
X354549Y310696D01*
X354619Y310418D01*
X354654Y310191D01*
X354689Y310035D01*
X354723Y309930D01*
Y309913D01*
Y309895D01*
X351415Y310644D01*
X351294Y311271D01*
X351172Y311863D01*
X351067Y312437D01*
X350963Y312977D01*
X350858Y313499D01*
X350771Y313969D01*
X350684Y314405D01*
X350615Y314823D01*
X350545Y315188D01*
X350493Y315502D01*
X350441Y315780D01*
X350388Y316006D01*
X350354Y316198D01*
X350336Y316337D01*
X350319Y316407D01*
Y316442D01*
X350284Y316685D01*
X350249Y316894D01*
X350214Y317103D01*
X350179Y317277D01*
X350145Y317434D01*
X350127Y317538D01*
X350110Y317626D01*
Y317643D01*
X350058Y317852D01*
X350023Y318043D01*
X349988Y318217D01*
X349971Y318357D01*
X349953Y318479D01*
X349936Y318566D01*
X349918Y318618D01*
Y318635D01*
X349866Y318392D01*
X349814Y318130D01*
X349727Y317538D01*
X349640Y316912D01*
X349553Y316233D01*
X349466Y315536D01*
X349378Y314823D01*
X349309Y314109D01*
X349239Y313412D01*
X349187Y312751D01*
X349117Y312124D01*
X349100Y311828D01*
X349083Y311567D01*
X349048Y311306D01*
X349030Y311062D01*
X349013Y310853D01*
X348995Y310662D01*
Y310488D01*
X348978Y310348D01*
Y310244D01*
X348961Y310157D01*
Y310104D01*
Y310087D01*
X348891Y310104D01*
X348787Y310139D01*
X348665Y310174D01*
X348543Y310209D01*
X348230Y310279D01*
X347916Y310366D01*
X347603Y310435D01*
X347463Y310470D01*
X347342Y310505D01*
X347237Y310522D01*
X347167Y310540D01*
X347115Y310557D01*
X347098D01*
X346819Y310627D01*
X346575Y310679D01*
X346349Y310731D01*
X346158Y310783D01*
X345984Y310818D01*
X345827Y310853D01*
X345705Y310871D01*
X345601Y310888D01*
X345514Y310905D01*
X345427Y310923D01*
X345339Y310940D01*
X345270D01*
X345200Y311410D01*
X345130Y311915D01*
X345061Y312455D01*
X344974Y313012D01*
X344869Y313604D01*
X344765Y314213D01*
X344660Y314840D01*
X344556Y315484D01*
X344312Y316790D01*
X344069Y318130D01*
X343807Y319454D01*
X343546Y320742D01*
X343424Y321369D01*
X343302Y321978D01*
X343181Y322570D01*
X343059Y323145D01*
X342954Y323684D01*
X342850Y324189D01*
X342745Y324659D01*
X342658Y325112D01*
X342571Y325512D01*
X342502Y325861D01*
X342432Y326174D01*
X342380Y326435D01*
X342327Y326644D01*
X342310Y326801D01*
X342275Y326888D01*
Y326922D01*
X345026Y326592D01*
X345148Y326000D01*
X345270Y325460D01*
X345374Y324973D01*
X345461Y324537D01*
X345548Y324137D01*
X345618Y323771D01*
X345688Y323458D01*
X345740Y323197D01*
X345792Y322953D01*
X345827Y322762D01*
X345862Y322587D01*
X345879Y322466D01*
X345914Y322361D01*
Y322291D01*
X345931Y322257D01*
Y322239D01*
X346036Y321752D01*
X346088Y321525D01*
X346123Y321317D01*
X346158Y321142D01*
X346193Y321021D01*
X346210Y320934D01*
Y320899D01*
X346262Y320655D01*
X346297Y320429D01*
X346332Y320220D01*
X346384Y320046D01*
X346401Y319889D01*
X346436Y319767D01*
X346454Y319697D01*
Y319663D01*
X346488Y319454D01*
X346523Y319245D01*
X346558Y319071D01*
X346593Y318914D01*
X346610Y318775D01*
X346628Y318688D01*
X346645Y318618D01*
Y318601D01*
X346697Y318844D01*
X346767Y319140D01*
X346837Y319489D01*
X346906Y319871D01*
X346976Y320272D01*
X347063Y320690D01*
X347220Y321543D01*
X347289Y321961D01*
X347376Y322344D01*
X347429Y322709D01*
X347481Y323023D01*
X347533Y323284D01*
X347551Y323388D01*
X347568Y323475D01*
X347585Y323545D01*
X347603Y323597D01*
Y323632D01*
Y323649D01*
X347707Y324172D01*
X347812Y324694D01*
X347899Y325199D01*
X347986Y325652D01*
X348038Y325843D01*
X348073Y326035D01*
X348108Y326209D01*
X348125Y326348D01*
X348142Y326452D01*
X348160Y326539D01*
X348177Y326592D01*
Y326609D01*
X348336Y326602D01*
X347903Y327250D01*
X347479Y327881D01*
X347076Y328491D01*
X346674Y329078D01*
X346293Y329644D01*
X345923Y330199D01*
X345575Y330721D01*
X345237Y331232D01*
X344911Y331711D01*
X344596Y332179D01*
X344302Y332625D01*
X344008Y333049D01*
X343736Y333452D01*
X343486Y333833D01*
X343235Y334203D01*
X343007Y334540D01*
X342789Y334866D01*
X342594Y335160D01*
X342398Y335443D01*
X342224Y335704D01*
X342071Y335943D01*
X341919Y336161D01*
X341789Y336357D01*
X341669Y336531D01*
X341560Y336683D01*
X341473Y336825D01*
X341397Y336933D01*
X341332Y337031D01*
X341288Y337097D01*
X341255Y337151D01*
X341234Y337184D01*
X341223Y337195D01*
X341571Y337238D01*
X341886Y337282D01*
X342169Y337325D01*
X342420Y337369D01*
X342637Y337412D01*
X342822Y337445D01*
X342985Y337477D01*
X343127Y337510D01*
X343235Y337543D01*
X343333Y337575D01*
X343399Y337597D01*
X343453Y337619D01*
X343497Y337630D01*
X343518Y337641D01*
X343540Y337651D01*
X343747Y337314D01*
D02*
G37*
G36*
X373656Y337401D02*
X373754Y337390D01*
X373885D01*
X374026Y337380D01*
X374167Y337369D01*
X374298Y337358D01*
X374407Y337347D01*
X374450Y337336D01*
X374505D01*
X374733Y337314D01*
X374951Y337293D01*
X375147Y337271D01*
X375321Y337249D01*
X375473Y337227D01*
X375582Y337216D01*
X375625Y337205D01*
X375658Y337195D01*
X375680D01*
X375767Y336825D01*
X375843Y336476D01*
X375908Y336150D01*
X375941Y335998D01*
X375973Y335856D01*
X375995Y335726D01*
X376017Y335606D01*
X376039Y335508D01*
X376050Y335421D01*
X376061Y335356D01*
X376071Y335301D01*
X376082Y335269D01*
Y335258D01*
X376137Y334910D01*
X376202Y334562D01*
X376256Y334235D01*
X376289Y334083D01*
X376311Y333941D01*
X376332Y333811D01*
X376365Y333691D01*
X376376Y333593D01*
X376398Y333506D01*
X376409Y333430D01*
X376419Y333376D01*
X376430Y333343D01*
Y333332D01*
X377823Y333169D01*
X377780Y333408D01*
X377725Y333669D01*
X377660Y333963D01*
X377595Y334279D01*
X377518Y334616D01*
X377442Y334942D01*
X377366Y335280D01*
X377290Y335606D01*
X377225Y335922D01*
X377159Y336215D01*
X377094Y336487D01*
X377040Y336716D01*
X377018Y336825D01*
X376996Y336912D01*
X376974Y336988D01*
X376963Y337064D01*
X376953Y337107D01*
X376942Y337151D01*
X376931Y337173D01*
Y337184D01*
X377301D01*
X377693Y337205D01*
X378073Y337216D01*
X378258Y337227D01*
X378432Y337238D01*
X378595Y337249D01*
X378748Y337260D01*
X378878Y337271D01*
X378998D01*
X379085Y337282D01*
X379161Y337293D01*
X379216D01*
X379248Y336988D01*
X379292Y336672D01*
X379335Y336324D01*
X379379Y335965D01*
X379433Y335584D01*
X379499Y335193D01*
X379564Y334790D01*
X379629Y334387D01*
X379771Y333539D01*
X379923Y332679D01*
X380075Y331820D01*
X380227Y330982D01*
X380304Y330579D01*
X380380Y330177D01*
X380445Y329796D01*
X380521Y329426D01*
X380587Y329078D01*
X380652Y328752D01*
X380706Y328447D01*
X380761Y328153D01*
X380815Y327903D01*
X380859Y327664D01*
X380902Y327468D01*
X380935Y327294D01*
X380967Y327163D01*
X380978Y327065D01*
X381000Y327000D01*
Y326978D01*
X378824Y327424D01*
X378737Y327859D01*
X378661Y328273D01*
X378574Y328676D01*
X378508Y329056D01*
X378432Y329415D01*
X378367Y329753D01*
X378313Y330068D01*
X378258Y330362D01*
X378204Y330612D01*
X378160Y330852D01*
X378128Y331047D01*
X378095Y331221D01*
X378073Y331352D01*
X378051Y331450D01*
X378041Y331504D01*
Y331526D01*
X376670Y331646D01*
X376702Y331439D01*
X376746Y331232D01*
X376789Y331026D01*
X376822Y330830D01*
X376855Y330656D01*
X376876Y330579D01*
X376887Y330514D01*
X376898Y330471D01*
Y330427D01*
X376909Y330405D01*
Y330395D01*
X376963Y330123D01*
X377018Y329861D01*
X377061Y329611D01*
X377105Y329383D01*
X377149Y329187D01*
X377159Y329111D01*
X377181Y329045D01*
X377192Y328991D01*
Y328947D01*
X377203Y328926D01*
Y328915D01*
X377257Y328632D01*
X377312Y328360D01*
X377366Y328088D01*
X377410Y327849D01*
X377431Y327740D01*
X377453Y327642D01*
X377475Y327555D01*
X377486Y327479D01*
X377497Y327424D01*
X377507Y327370D01*
X377518Y327348D01*
Y327337D01*
X375321Y327588D01*
X375223Y328284D01*
X375168Y328621D01*
X375125Y328947D01*
X375070Y329263D01*
X375027Y329568D01*
X374973Y329861D01*
X374929Y330123D01*
X374896Y330373D01*
X374853Y330590D01*
X374820Y330786D01*
X374798Y330949D01*
X374777Y331080D01*
X374755Y331178D01*
X374744Y331232D01*
Y331254D01*
X374624Y331983D01*
X374494Y332658D01*
X374374Y333299D01*
X374320Y333604D01*
X374265Y333898D01*
X374200Y334181D01*
X374146Y334453D01*
X374091Y334703D01*
X374037Y334953D01*
X373982Y335193D01*
X373928Y335421D01*
X373885Y335628D01*
X373830Y335835D01*
X373787Y336019D01*
X373743Y336205D01*
X373699Y336368D01*
X373667Y336531D01*
X373623Y336672D01*
X373591Y336803D01*
X373558Y336923D01*
X373536Y337031D01*
X373504Y337118D01*
X373482Y337205D01*
X373460Y337271D01*
X373449Y337336D01*
X373438Y337380D01*
X373428Y337412D01*
X373417Y337423D01*
Y337434D01*
X373656Y337401D01*
D02*
G37*
G36*
X264486Y337673D02*
X264943Y337575D01*
X265161Y337532D01*
X265367Y337488D01*
X265552Y337456D01*
X265737Y337434D01*
X265900Y337401D01*
X266042Y337390D01*
X266173Y337369D01*
X266281Y337358D01*
X266368Y337347D01*
X266434Y337336D01*
X266488D01*
X266597Y336825D01*
X266706Y336335D01*
X266760Y336107D01*
X266804Y335878D01*
X266847Y335661D01*
X266880Y335465D01*
X266923Y335280D01*
X266945Y335117D01*
X266978Y334975D01*
X266999Y334855D01*
X267021Y334747D01*
X267032Y334681D01*
X267043Y334627D01*
Y334616D01*
X267086Y334366D01*
X267130Y334137D01*
X267163Y333909D01*
X267206Y333702D01*
X267239Y333506D01*
X267271Y333332D01*
X267304Y333169D01*
X267326Y333028D01*
X267348Y332897D01*
X267369Y332777D01*
X267391Y332679D01*
X267402Y332603D01*
X267424Y332538D01*
Y332484D01*
X267435Y332462D01*
Y332451D01*
X267489Y332168D01*
X267532Y331929D01*
X267565Y331722D01*
X267598Y331548D01*
X267619Y331417D01*
X267630Y331330D01*
X267641Y331276D01*
Y331254D01*
X267685Y330971D01*
X267717Y330841D01*
X267739Y330721D01*
X267761Y330623D01*
X267772Y330547D01*
X267794Y330503D01*
Y330482D01*
X267826Y330351D01*
X267870Y330221D01*
X267913Y330112D01*
X267946Y330014D01*
X267979Y329938D01*
X268000Y329883D01*
X268011Y329840D01*
X268022Y329829D01*
X268076Y329731D01*
X268131Y329666D01*
X268185Y329611D01*
X268240Y329579D01*
X268283Y329557D01*
X268327Y329546D01*
X268359D01*
X268512Y329568D01*
X268642Y329600D01*
X268697Y329622D01*
X268740Y329633D01*
X268762Y329655D01*
X268773D01*
X268838Y329698D01*
X268903Y329742D01*
X268947Y329785D01*
X268990Y329818D01*
X269034Y329883D01*
X269045Y329894D01*
Y329905D01*
X270013Y327729D01*
X269828Y327598D01*
X269643Y327490D01*
X269469Y327392D01*
X269295Y327305D01*
X269132Y327228D01*
X268980Y327174D01*
X268838Y327120D01*
X268707Y327087D01*
X268577Y327054D01*
X268479Y327033D01*
X268381Y327011D01*
X268305Y327000D01*
X268240Y326989D01*
X268153D01*
X267957Y327000D01*
X267772Y327044D01*
X267598Y327109D01*
X267435Y327185D01*
X267282Y327272D01*
X267141Y327381D01*
X267010Y327490D01*
X266880Y327609D01*
X266771Y327729D01*
X266684Y327838D01*
X266597Y327947D01*
X266531Y328034D01*
X266477Y328121D01*
X266434Y328175D01*
X266412Y328219D01*
X266401Y328229D01*
X266292Y328436D01*
X266194Y328654D01*
X266107Y328860D01*
X266042Y329045D01*
X265987Y329209D01*
X265966Y329274D01*
X265944Y329339D01*
X265933Y329383D01*
X265922Y329415D01*
X265911Y329437D01*
Y329448D01*
X265846Y329709D01*
X265781Y329981D01*
X265716Y330242D01*
X265661Y330482D01*
X265639Y330590D01*
X265618Y330688D01*
X265596Y330775D01*
X265585Y330852D01*
X265574Y330917D01*
X265563Y330960D01*
X265552Y330993D01*
Y331004D01*
X265531Y331091D01*
X265520Y331200D01*
X265465Y331428D01*
X265411Y331689D01*
X265356Y331983D01*
X265291Y332299D01*
X265226Y332625D01*
X265085Y333278D01*
X265019Y333593D01*
X264954Y333898D01*
X264899Y334170D01*
X264845Y334409D01*
X264823Y334507D01*
X264802Y334605D01*
X264791Y334692D01*
X264769Y334757D01*
X264758Y334812D01*
Y334855D01*
X264747Y334877D01*
Y334888D01*
X264617Y335454D01*
X264551Y335726D01*
X264486Y335987D01*
X264421Y336237D01*
X264366Y336476D01*
X264301Y336705D01*
X264247Y336912D01*
X264192Y337107D01*
X264149Y337282D01*
X264105Y337434D01*
X264062Y337554D01*
X264040Y337651D01*
X264018Y337728D01*
X263997Y337782D01*
Y337793D01*
X264486Y337673D01*
D02*
G37*
%LPC*%
G36*
X364839Y323911D02*
X364682Y323893D01*
X364525Y323841D01*
X364386Y323771D01*
X364282Y323702D01*
X364177Y323615D01*
X364107Y323545D01*
X364055Y323493D01*
X364038Y323475D01*
X363916Y323301D01*
X363811Y323110D01*
X363742Y322901D01*
X363707Y322692D01*
X363672Y322500D01*
X363655Y322361D01*
Y322257D01*
Y322239D01*
Y322222D01*
Y321943D01*
X363690Y321682D01*
X363777Y321177D01*
X363898Y320725D01*
X363951Y320516D01*
X364020Y320324D01*
X364090Y320150D01*
X364160Y319993D01*
X364229Y319854D01*
X364282Y319750D01*
X364334Y319663D01*
X364369Y319593D01*
X364386Y319558D01*
X364403Y319541D01*
X364525Y319349D01*
X364665Y319175D01*
X364786Y319018D01*
X364926Y318879D01*
X365169Y318653D01*
X365396Y318496D01*
X365587Y318374D01*
X365744Y318305D01*
X365848Y318270D01*
X365866Y318252D01*
X365883D01*
X365709Y319210D01*
X365518Y320185D01*
X365431Y320655D01*
X365343Y321125D01*
X365257Y321578D01*
X365187Y322013D01*
X365117Y322413D01*
X365048Y322779D01*
X364978Y323092D01*
X364943Y323371D01*
X364891Y323597D01*
X364856Y323771D01*
X364839Y323876D01*
Y323911D01*
D02*
G37*
G36*
X261266Y335584D02*
X261364Y334366D01*
X261407Y333887D01*
X261451Y333397D01*
X261483Y332941D01*
X261505Y332723D01*
X261527Y332516D01*
X261538Y332331D01*
X261548Y332157D01*
X261559Y332005D01*
X261570Y331874D01*
X261581Y331765D01*
X261592Y331689D01*
Y331646D01*
Y331624D01*
X261614Y331439D01*
X261625Y331363D01*
X261635Y331298D01*
Y331232D01*
X261646Y331189D01*
Y331167D01*
Y331156D01*
X261657Y331026D01*
X261668Y330939D01*
Y330895D01*
Y330873D01*
X262680Y330808D01*
X261483Y335573D01*
X261266Y335584D01*
D02*
G37*
G36*
X304133Y335410D02*
X303980D01*
X303850Y335399D01*
X303719Y335388D01*
X303665Y335378D01*
X303621D01*
X303600Y335367D01*
X303589D01*
X303436Y335334D01*
X303295Y335301D01*
X303175Y335247D01*
X303077Y335204D01*
X302990Y335149D01*
X302925Y335095D01*
X302860Y335029D01*
X302816Y334975D01*
X302751Y334866D01*
X302718Y334779D01*
X302708Y334714D01*
Y334703D01*
Y334692D01*
X302729Y334583D01*
X302784Y334485D01*
X302871Y334398D01*
X302979Y334311D01*
X303110Y334224D01*
X303252Y334148D01*
X303567Y334007D01*
X303893Y333898D01*
X304035Y333854D01*
X304165Y333811D01*
X304274Y333789D01*
X304361Y333767D01*
X304416Y333746D01*
X304437D01*
X304416Y333887D01*
X304383Y334018D01*
X304372Y334072D01*
Y334116D01*
X304361Y334137D01*
Y334148D01*
X304329Y334311D01*
X304296Y334464D01*
X304285Y334518D01*
Y334562D01*
X304274Y334594D01*
Y334605D01*
X304242Y334768D01*
X304220Y334910D01*
X304209Y334964D01*
X304198Y335008D01*
Y335029D01*
Y335040D01*
X304165Y335193D01*
X304144Y335312D01*
Y335356D01*
X304133Y335388D01*
Y335399D01*
Y335410D01*
D02*
G37*
G36*
X360785Y335693D02*
X360687Y335682D01*
X360589Y335650D01*
X360502Y335606D01*
X360437Y335563D01*
X360371Y335508D01*
X360328Y335465D01*
X360295Y335432D01*
X360284Y335421D01*
X360208Y335312D01*
X360143Y335193D01*
X360100Y335062D01*
X360078Y334931D01*
X360056Y334812D01*
X360045Y334725D01*
Y334660D01*
Y334649D01*
Y334638D01*
Y334464D01*
X360067Y334300D01*
X360121Y333985D01*
X360197Y333702D01*
X360230Y333572D01*
X360274Y333452D01*
X360317Y333343D01*
X360361Y333245D01*
X360404Y333158D01*
X360437Y333093D01*
X360469Y333038D01*
X360491Y332995D01*
X360502Y332973D01*
X360513Y332962D01*
X360589Y332843D01*
X360676Y332734D01*
X360752Y332636D01*
X360839Y332549D01*
X360992Y332407D01*
X361133Y332309D01*
X361253Y332233D01*
X361351Y332190D01*
X361416Y332168D01*
X361427Y332157D01*
X361438D01*
X361329Y332755D01*
X361209Y333365D01*
X361155Y333659D01*
X361101Y333952D01*
X361046Y334235D01*
X361003Y334507D01*
X360959Y334757D01*
X360915Y334986D01*
X360872Y335182D01*
X360850Y335356D01*
X360818Y335497D01*
X360796Y335606D01*
X360785Y335671D01*
Y335693D01*
D02*
G37*
G36*
X312835Y323911D02*
X312678Y323893D01*
X312522Y323841D01*
X312382Y323771D01*
X312278Y323702D01*
X312173Y323615D01*
X312104Y323545D01*
X312052Y323493D01*
X312034Y323475D01*
X311912Y323301D01*
X311808Y323110D01*
X311738Y322901D01*
X311703Y322692D01*
X311668Y322500D01*
X311651Y322361D01*
Y322257D01*
Y322239D01*
Y322222D01*
Y321943D01*
X311686Y321682D01*
X311773Y321177D01*
X311895Y320725D01*
X311947Y320516D01*
X312017Y320324D01*
X312086Y320150D01*
X312156Y319993D01*
X312226Y319854D01*
X312278Y319750D01*
X312330Y319663D01*
X312365Y319593D01*
X312382Y319558D01*
X312400Y319541D01*
X312522Y319349D01*
X312661Y319175D01*
X312783Y319018D01*
X312922Y318879D01*
X313166Y318653D01*
X313392Y318496D01*
X313584Y318374D01*
X313740Y318305D01*
X313845Y318270D01*
X313862Y318252D01*
X313880D01*
X313705Y319210D01*
X313514Y320185D01*
X313427Y320655D01*
X313340Y321125D01*
X313253Y321578D01*
X313183Y322013D01*
X313113Y322413D01*
X313044Y322779D01*
X312974Y323092D01*
X312939Y323371D01*
X312887Y323597D01*
X312852Y323771D01*
X312835Y323876D01*
Y323911D01*
D02*
G37*
G36*
X302021Y250720D02*
X302086Y249908D01*
X302115Y249589D01*
X302144Y249263D01*
X302166Y248958D01*
X302180Y248814D01*
X302195Y248676D01*
X302202Y248552D01*
X302209Y248436D01*
X302217Y248335D01*
X302224Y248248D01*
X302231Y248176D01*
X302238Y248125D01*
Y248096D01*
Y248081D01*
X302253Y247958D01*
X302260Y247907D01*
X302267Y247864D01*
Y247820D01*
X302274Y247791D01*
Y247777D01*
Y247769D01*
X302282Y247682D01*
X302289Y247624D01*
Y247596D01*
Y247581D01*
X302963Y247537D01*
X302166Y250713D01*
X302021Y250720D01*
D02*
G37*
G36*
X287889Y334583D02*
X287813D01*
X287693Y334573D01*
X287595Y334540D01*
X287508Y334475D01*
X287432Y334409D01*
X287367Y334322D01*
X287312Y334224D01*
X287236Y334018D01*
X287182Y333800D01*
X287171Y333702D01*
X287160Y333615D01*
X287149Y333550D01*
Y333495D01*
Y333452D01*
Y333441D01*
X287160Y333212D01*
X287171Y332984D01*
X287204Y332766D01*
X287236Y332560D01*
X287269Y332386D01*
X287280Y332309D01*
X287291Y332244D01*
X287301Y332190D01*
X287312Y332157D01*
X287323Y332135D01*
Y332124D01*
X287399Y331863D01*
X287475Y331613D01*
X287563Y331374D01*
X287639Y331178D01*
X287715Y331004D01*
X287748Y330939D01*
X287769Y330873D01*
X287791Y330830D01*
X287813Y330797D01*
X287824Y330775D01*
Y330765D01*
X287954Y330536D01*
X288085Y330329D01*
X288226Y330155D01*
X288357Y329992D01*
X288466Y329872D01*
X288553Y329774D01*
X288618Y329720D01*
X288629Y329698D01*
X288640D01*
X288825Y329557D01*
X289020Y329448D01*
X289205Y329372D01*
X289380Y329317D01*
X289532Y329285D01*
X289651Y329274D01*
X289695Y329263D01*
X289760D01*
X289891Y329274D01*
X289989Y329317D01*
X290032Y329328D01*
X290065Y329350D01*
X290076Y329361D01*
X290087D01*
X290174Y329415D01*
X290239Y329481D01*
X290359Y329611D01*
X290435Y329753D01*
X290500Y329883D01*
X290533Y330003D01*
X290544Y330101D01*
X290555Y330166D01*
Y330177D01*
Y330188D01*
X290544Y330503D01*
X290511Y330808D01*
X290457Y331113D01*
X290402Y331385D01*
X290370Y331504D01*
X290348Y331613D01*
X290315Y331711D01*
X290293Y331787D01*
X290283Y331863D01*
X290261Y331907D01*
X290250Y331940D01*
Y331950D01*
X290174Y332157D01*
X290098Y332353D01*
X290021Y332538D01*
X289934Y332712D01*
X289858Y332875D01*
X289782Y333028D01*
X289706Y333158D01*
X289641Y333278D01*
X289575Y333387D01*
X289510Y333485D01*
X289456Y333572D01*
X289412Y333637D01*
X289380Y333691D01*
X289347Y333724D01*
X289336Y333746D01*
X289325Y333756D01*
X289195Y333898D01*
X289064Y334029D01*
X288933Y334137D01*
X288803Y334235D01*
X288672Y334311D01*
X288553Y334377D01*
X288433Y334442D01*
X288313Y334485D01*
X288117Y334540D01*
X288030Y334562D01*
X287954Y334573D01*
X287889Y334583D01*
D02*
G37*
G36*
X344027Y250604D02*
X343926D01*
X343839Y250597D01*
X343752Y250590D01*
X343716Y250583D01*
X343687D01*
X343672Y250575D01*
X343665D01*
X343563Y250553D01*
X343469Y250532D01*
X343389Y250496D01*
X343324Y250466D01*
X343266Y250430D01*
X343222Y250394D01*
X343179Y250350D01*
X343150Y250314D01*
X343107Y250242D01*
X343085Y250184D01*
X343077Y250140D01*
Y250133D01*
Y250126D01*
X343092Y250053D01*
X343128Y249988D01*
X343186Y249930D01*
X343259Y249872D01*
X343346Y249814D01*
X343440Y249763D01*
X343650Y249669D01*
X343868Y249597D01*
X343962Y249568D01*
X344049Y249538D01*
X344122Y249524D01*
X344180Y249510D01*
X344216Y249495D01*
X344230D01*
X344216Y249589D01*
X344194Y249676D01*
X344187Y249712D01*
Y249742D01*
X344180Y249756D01*
Y249763D01*
X344158Y249872D01*
X344136Y249974D01*
X344129Y250010D01*
Y250039D01*
X344122Y250061D01*
Y250068D01*
X344100Y250177D01*
X344085Y250271D01*
X344078Y250307D01*
X344071Y250336D01*
Y250350D01*
Y250358D01*
X344049Y250459D01*
X344035Y250539D01*
Y250568D01*
X344027Y250590D01*
Y250597D01*
Y250604D01*
D02*
G37*
G36*
X328541Y250720D02*
X328607Y249908D01*
X328636Y249589D01*
X328664Y249263D01*
X328686Y248958D01*
X328701Y248814D01*
X328715Y248676D01*
X328723Y248552D01*
X328730Y248436D01*
X328737Y248335D01*
X328744Y248248D01*
X328751Y248176D01*
X328759Y248125D01*
Y248096D01*
Y248081D01*
X328773Y247958D01*
X328781Y247907D01*
X328788Y247864D01*
Y247820D01*
X328795Y247791D01*
Y247777D01*
Y247769D01*
X328802Y247682D01*
X328809Y247624D01*
Y247596D01*
Y247581D01*
X329484Y247537D01*
X328686Y250713D01*
X328541Y250720D01*
D02*
G37*
G36*
X304688Y332016D02*
X304524D01*
X304350Y332005D01*
X304187Y331983D01*
X304035Y331950D01*
X303893Y331907D01*
X303785Y331863D01*
X303709Y331831D01*
X303654Y331809D01*
X303632Y331798D01*
X303491Y331711D01*
X303382Y331613D01*
X303349Y331580D01*
X303317Y331548D01*
X303306Y331526D01*
X303295Y331515D01*
X303252Y331450D01*
X303219Y331363D01*
X303175Y331211D01*
Y331145D01*
X303165Y331091D01*
Y331047D01*
Y331036D01*
X303175Y330928D01*
X303197Y330830D01*
X303230Y330732D01*
X303273Y330656D01*
X303317Y330590D01*
X303349Y330536D01*
X303371Y330503D01*
X303382Y330492D01*
X303491Y330395D01*
X303600Y330297D01*
X303730Y330221D01*
X303872Y330144D01*
X304165Y330025D01*
X304459Y329927D01*
X304590Y329894D01*
X304720Y329861D01*
X304840Y329840D01*
X304938Y329818D01*
X305025Y329807D01*
X305090Y329796D01*
X305134Y329785D01*
X305145D01*
X305123Y329916D01*
X305101Y330025D01*
X305090Y330133D01*
X305079Y330221D01*
X305058Y330297D01*
Y330351D01*
X305047Y330384D01*
Y330395D01*
X305014Y330579D01*
X304992Y330667D01*
X304981Y330743D01*
X304971Y330808D01*
Y330852D01*
X304960Y330884D01*
Y330895D01*
X304927Y331080D01*
X304916Y331156D01*
X304894Y331232D01*
X304884Y331298D01*
Y331352D01*
X304873Y331385D01*
Y331396D01*
X304829Y331602D01*
X304818Y331711D01*
X304797Y331798D01*
X304786Y331885D01*
X304775Y331950D01*
X304764Y331994D01*
Y332005D01*
X304688Y332016D01*
D02*
G37*
G36*
X373892Y322135D02*
X373770D01*
X373579Y322117D01*
X373422Y322065D01*
X373283Y321961D01*
X373161Y321856D01*
X373056Y321717D01*
X372969Y321560D01*
X372847Y321229D01*
X372760Y320881D01*
X372743Y320725D01*
X372725Y320585D01*
X372708Y320481D01*
Y320394D01*
Y320324D01*
Y320307D01*
X372725Y319941D01*
X372743Y319576D01*
X372795Y319227D01*
X372847Y318897D01*
X372900Y318618D01*
X372917Y318496D01*
X372934Y318392D01*
X372952Y318305D01*
X372969Y318252D01*
X372987Y318217D01*
Y318200D01*
X373108Y317782D01*
X373230Y317382D01*
X373370Y316999D01*
X373491Y316685D01*
X373613Y316407D01*
X373665Y316302D01*
X373700Y316198D01*
X373735Y316128D01*
X373770Y316076D01*
X373787Y316041D01*
Y316024D01*
X373996Y315658D01*
X374205Y315328D01*
X374431Y315049D01*
X374640Y314788D01*
X374815Y314596D01*
X374954Y314440D01*
X375058Y314352D01*
X375076Y314318D01*
X375093D01*
X375389Y314091D01*
X375703Y313917D01*
X375998Y313795D01*
X376277Y313708D01*
X376521Y313656D01*
X376712Y313639D01*
X376782Y313621D01*
X376886D01*
X377095Y313639D01*
X377252Y313708D01*
X377322Y313726D01*
X377374Y313761D01*
X377391Y313778D01*
X377409D01*
X377548Y313865D01*
X377652Y313969D01*
X377844Y314178D01*
X377966Y314405D01*
X378070Y314614D01*
X378122Y314805D01*
X378140Y314962D01*
X378157Y315066D01*
Y315084D01*
Y315101D01*
X378140Y315606D01*
X378088Y316093D01*
X378001Y316581D01*
X377913Y317016D01*
X377861Y317208D01*
X377826Y317382D01*
X377774Y317538D01*
X377739Y317660D01*
X377722Y317782D01*
X377687Y317852D01*
X377670Y317904D01*
Y317921D01*
X377548Y318252D01*
X377426Y318566D01*
X377304Y318862D01*
X377165Y319140D01*
X377043Y319401D01*
X376921Y319645D01*
X376799Y319854D01*
X376695Y320046D01*
X376590Y320220D01*
X376486Y320376D01*
X376399Y320516D01*
X376329Y320620D01*
X376277Y320707D01*
X376225Y320759D01*
X376207Y320794D01*
X376190Y320812D01*
X375981Y321038D01*
X375772Y321247D01*
X375563Y321421D01*
X375354Y321578D01*
X375145Y321700D01*
X374954Y321804D01*
X374762Y321908D01*
X374571Y321978D01*
X374257Y322065D01*
X374118Y322100D01*
X373996Y322117D01*
X373892Y322135D01*
D02*
G37*
G36*
X344397Y248342D02*
X344288D01*
X344172Y248335D01*
X344063Y248321D01*
X343962Y248299D01*
X343868Y248270D01*
X343795Y248241D01*
X343744Y248219D01*
X343708Y248204D01*
X343694Y248197D01*
X343600Y248139D01*
X343527Y248074D01*
X343505Y248052D01*
X343483Y248030D01*
X343476Y248016D01*
X343469Y248009D01*
X343440Y247965D01*
X343418Y247907D01*
X343389Y247806D01*
Y247762D01*
X343382Y247726D01*
Y247697D01*
Y247690D01*
X343389Y247617D01*
X343404Y247552D01*
X343425Y247487D01*
X343455Y247436D01*
X343483Y247393D01*
X343505Y247356D01*
X343520Y247335D01*
X343527Y247327D01*
X343600Y247262D01*
X343672Y247197D01*
X343759Y247146D01*
X343853Y247095D01*
X344049Y247016D01*
X344245Y246950D01*
X344332Y246929D01*
X344419Y246907D01*
X344498Y246892D01*
X344564Y246878D01*
X344622Y246870D01*
X344665Y246863D01*
X344694Y246856D01*
X344702D01*
X344687Y246943D01*
X344672Y247016D01*
X344665Y247088D01*
X344658Y247146D01*
X344643Y247197D01*
Y247233D01*
X344636Y247255D01*
Y247262D01*
X344615Y247385D01*
X344600Y247443D01*
X344593Y247494D01*
X344585Y247537D01*
Y247567D01*
X344578Y247588D01*
Y247596D01*
X344556Y247719D01*
X344549Y247769D01*
X344535Y247820D01*
X344528Y247864D01*
Y247900D01*
X344520Y247922D01*
Y247929D01*
X344491Y248067D01*
X344484Y248139D01*
X344469Y248197D01*
X344462Y248255D01*
X344455Y248299D01*
X344448Y248328D01*
Y248335D01*
X344397Y248342D01*
D02*
G37*
G36*
X318000Y249944D02*
X317985D01*
X317877Y249930D01*
X317782Y249901D01*
X317703Y249850D01*
X317637Y249799D01*
X317586Y249749D01*
X317550Y249698D01*
X317529Y249669D01*
X317521Y249655D01*
X317471Y249546D01*
X317427Y249430D01*
X317398Y249314D01*
X317384Y249205D01*
X317369Y249111D01*
X317362Y249038D01*
Y249009D01*
Y248988D01*
Y248980D01*
Y248973D01*
X317369Y248821D01*
X317384Y248669D01*
X317405Y248523D01*
X317427Y248378D01*
X317463Y248248D01*
X317499Y248117D01*
X317536Y247994D01*
X317579Y247878D01*
X317623Y247777D01*
X317659Y247682D01*
X317695Y247603D01*
X317731Y247530D01*
X317753Y247472D01*
X317775Y247436D01*
X317790Y247407D01*
X317797Y247400D01*
X317877Y247276D01*
X317964Y247161D01*
X318051Y247059D01*
X318123Y246979D01*
X318196Y246907D01*
X318246Y246856D01*
X318283Y246827D01*
X318297Y246813D01*
X318406Y246733D01*
X318522Y246682D01*
X318623Y246638D01*
X318725Y246609D01*
X318812Y246595D01*
X318877Y246588D01*
X318920Y246581D01*
X318935D01*
X319022Y246588D01*
X319094Y246617D01*
X319160Y246653D01*
X319218Y246704D01*
X319261Y246762D01*
X319305Y246827D01*
X319363Y246972D01*
X319392Y247117D01*
X319406Y247182D01*
X319413Y247240D01*
X319421Y247291D01*
Y247327D01*
Y247356D01*
Y247363D01*
X319413Y247516D01*
X319399Y247661D01*
X319377Y247813D01*
X319356Y247958D01*
X319283Y248241D01*
X319247Y248371D01*
X319203Y248495D01*
X319160Y248610D01*
X319124Y248712D01*
X319087Y248806D01*
X319051Y248879D01*
X319029Y248944D01*
X319007Y248995D01*
X318993Y249024D01*
X318986Y249031D01*
X318913Y249169D01*
X318833Y249299D01*
X318761Y249408D01*
X318696Y249502D01*
X318631Y249582D01*
X318587Y249640D01*
X318558Y249669D01*
X318544Y249683D01*
X318449Y249770D01*
X318348Y249836D01*
X318253Y249879D01*
X318166Y249916D01*
X318094Y249930D01*
X318036Y249937D01*
X318000Y249944D01*
D02*
G37*
%LPD*%
M02*
