%FSLAX25Y25*%
%MOIN*%
G70*
G01*
G75*
G04 Layer_Color=65535*
%ADD10R,0.03740X0.05315*%
%ADD11R,0.05315X0.03740*%
%ADD12R,0.03543X0.03740*%
%ADD13R,0.03937X0.03937*%
%ADD14R,0.03937X0.03937*%
%ADD15R,0.03543X0.02559*%
%ADD16O,0.06693X0.01378*%
%ADD17R,0.06300X0.05500*%
%ADD18O,0.02362X0.08661*%
%ADD19O,0.09843X0.02756*%
%ADD20R,0.05512X0.04134*%
%ADD21R,0.04134X0.05512*%
%ADD22R,0.02000X0.02000*%
%ADD23C,0.01600*%
%ADD24C,0.01000*%
%ADD25C,0.02000*%
%ADD26C,0.03200*%
%ADD27C,0.02800*%
%ADD28O,0.09843X0.06693*%
%ADD29C,0.05906*%
%ADD30R,0.05906X0.05906*%
%ADD31R,0.07000X0.07000*%
%ADD32C,0.07000*%
%ADD33R,0.05906X0.05906*%
%ADD34C,0.02400*%
%ADD35C,0.03400*%
%ADD36C,0.05000*%
%ADD37R,0.02000X0.02000*%
%ADD38C,0.00787*%
%ADD39C,0.00800*%
%ADD40C,0.00984*%
%ADD41C,0.02362*%
%ADD42C,0.01575*%
%ADD43C,0.00591*%
%ADD44R,0.05906X0.78740*%
%ADD45R,0.02560X0.00730*%
%ADD46R,0.01800X0.06700*%
%ADD47R,0.02300X0.00650*%
%ADD48R,0.00650X0.02300*%
%ADD49R,0.06700X0.01800*%
%ADD50R,0.00730X0.02560*%
G36*
X246420Y236843D02*
X243861Y233196D01*
X243976D01*
X244042Y233204D01*
X244114D01*
X244209Y233211D01*
X244324Y233218D01*
X244455Y233225D01*
X244607Y233233D01*
X244781Y233240D01*
X244984Y233255D01*
X245209Y233269D01*
X245456Y233283D01*
X245593Y233298D01*
X245738Y233305D01*
X245717Y231870D01*
X245492D01*
X245397Y231862D01*
X245165D01*
X245035Y231855D01*
X244883Y231848D01*
X244723Y231841D01*
X244556Y231834D01*
X244375Y231826D01*
X244187Y231819D01*
X243984Y231804D01*
X243781Y231790D01*
X243744D01*
X243716Y231783D01*
X243636Y231775D01*
X243534Y231768D01*
X243411Y231761D01*
X243266Y231747D01*
X243114Y231732D01*
X242947Y231717D01*
X242606Y231681D01*
X242432Y231667D01*
X242273Y231645D01*
X242113Y231630D01*
X241975Y231609D01*
X241845Y231594D01*
X241743Y231580D01*
X241751Y232957D01*
X244419Y236590D01*
X244324D01*
X244274Y236582D01*
X244209D01*
X244129Y236575D01*
X244035Y236568D01*
X243933Y236561D01*
X243817Y236546D01*
X243694Y236531D01*
X243556Y236517D01*
X243404Y236495D01*
X243237Y236473D01*
X243056Y236444D01*
X242867Y236416D01*
X242650Y236386D01*
X242824Y237865D01*
X246666Y238141D01*
X246420Y236843D01*
D02*
G37*
G36*
X239344Y238300D02*
Y238293D01*
X239336Y238271D01*
X239329Y238250D01*
X239315Y238177D01*
X239300Y238076D01*
X239271Y237952D01*
X239249Y237807D01*
X239213Y237641D01*
X239177Y237459D01*
X239141Y237257D01*
X239097Y237032D01*
X239047Y236800D01*
X239003Y236553D01*
X238952Y236299D01*
X238901Y236031D01*
X238793Y235488D01*
X238684Y234922D01*
X238575Y234349D01*
X238467Y233798D01*
X238416Y233530D01*
X238365Y233269D01*
X238321Y233015D01*
X238278Y232776D01*
X238234Y232551D01*
X238191Y232341D01*
X238162Y232145D01*
X238126Y231971D01*
X238097Y231812D01*
X238075Y231681D01*
X238024D01*
X237959Y231674D01*
X237865D01*
X237807Y231667D01*
X237741Y231660D01*
X237669Y231652D01*
X237589Y231645D01*
X237502Y231638D01*
X237401Y231623D01*
X237299Y231609D01*
X237183Y231594D01*
X237154D01*
X237125Y231587D01*
X237082Y231580D01*
X237038Y231573D01*
X236980Y231565D01*
X236864Y231551D01*
X236748Y231536D01*
X236647Y231522D01*
X236603D01*
X236567Y231515D01*
X236545Y231507D01*
X236538D01*
Y231522D01*
X236553Y231558D01*
X236567Y231616D01*
X236589Y231696D01*
X236611Y231790D01*
X236639Y231913D01*
X236676Y232044D01*
X236712Y232196D01*
X236748Y232363D01*
X236792Y232544D01*
X236835Y232733D01*
X236886Y232936D01*
X236929Y233146D01*
X236980Y233370D01*
X237074Y233827D01*
Y233835D01*
X237082Y233863D01*
X237089Y233900D01*
X237096Y233950D01*
X237111Y234023D01*
X237125Y234103D01*
X237147Y234197D01*
X237169Y234298D01*
X237191Y234415D01*
X237212Y234538D01*
X237241Y234668D01*
X237263Y234806D01*
X237328Y235110D01*
X237386Y235437D01*
X237452Y235777D01*
X237517Y236125D01*
X237589Y236481D01*
X237654Y236829D01*
X237720Y237170D01*
X237778Y237496D01*
X237828Y237800D01*
X237858Y237945D01*
X237879Y238076D01*
X239344Y238308D01*
Y238300D01*
D02*
G37*
G36*
X242737Y238417D02*
X242729Y238387D01*
X242715Y238344D01*
X242701Y238293D01*
X242679Y238235D01*
X242664Y238163D01*
X242628Y238018D01*
Y238011D01*
X242621Y237982D01*
X242614Y237945D01*
X242599Y237895D01*
X242584Y237837D01*
X242570Y237771D01*
X242534Y237626D01*
Y237619D01*
X242527Y237597D01*
X242519Y237554D01*
X242512Y237510D01*
X242483Y237402D01*
X242461Y237285D01*
X242447D01*
X242410Y237278D01*
X242353D01*
X242266Y237271D01*
X242157Y237264D01*
X242034D01*
X241881Y237257D01*
X241076D01*
X240750Y235567D01*
X240801D01*
X240837Y235575D01*
X240924D01*
X241040Y235582D01*
X241178Y235589D01*
X241316Y235596D01*
X241461Y235603D01*
X241649D01*
X241707Y235611D01*
X241773D01*
X241852Y235618D01*
X241925D01*
X241983Y235625D01*
X242034D01*
Y235611D01*
X242026Y235582D01*
X242019Y235524D01*
X242012Y235458D01*
X241997Y235379D01*
X241990Y235292D01*
X241961Y235103D01*
Y235089D01*
X241954Y235060D01*
X241947Y235009D01*
X241939Y234944D01*
X241932Y234871D01*
X241917Y234784D01*
X241903Y234690D01*
X241888Y234589D01*
X241845D01*
X241809Y234581D01*
X241715D01*
X241649Y234574D01*
X241490D01*
X241439Y234567D01*
X241294D01*
X241127Y234559D01*
X241040D01*
X240982Y234552D01*
X240815D01*
X240721Y234545D01*
X240620D01*
X240301Y232805D01*
X241664Y233030D01*
X241577Y231957D01*
X238539Y231493D01*
X239764Y238170D01*
X242737Y238424D01*
Y238417D01*
D02*
G37*
G36*
X254076Y238351D02*
X254170Y238344D01*
X254264Y238330D01*
X254366Y238315D01*
X254453Y238293D01*
X254460D01*
X254489Y238279D01*
X254533Y238264D01*
X254583Y238243D01*
X254648Y238221D01*
X254714Y238184D01*
X254844Y238105D01*
X254852D01*
X254859Y238090D01*
X254902Y238047D01*
X254960Y237982D01*
X255026Y237887D01*
X255091Y237764D01*
X255141Y237619D01*
X255185Y237445D01*
X255192Y237344D01*
X255200Y237242D01*
Y237235D01*
Y237220D01*
Y237191D01*
Y237155D01*
X255192Y237068D01*
X255178Y236974D01*
Y236966D01*
Y236952D01*
X255170Y236923D01*
X255163Y236887D01*
X255149Y236800D01*
X255134Y236691D01*
X253779Y236292D01*
Y236299D01*
X253786Y236329D01*
X253793Y236365D01*
X253800Y236408D01*
X253807Y236466D01*
X253815Y236531D01*
X253822Y236677D01*
Y236684D01*
Y236713D01*
X253815Y236749D01*
X253807Y236792D01*
X253779Y236901D01*
X253757Y236952D01*
X253720Y237003D01*
X253713Y237010D01*
X253706Y237024D01*
X253684Y237046D01*
X253655Y237068D01*
X253583Y237111D01*
X253547Y237126D01*
X253503Y237133D01*
X253460D01*
X253438Y237126D01*
X253365Y237111D01*
X253278Y237075D01*
X253271D01*
X253257Y237068D01*
X253235Y237053D01*
X253213Y237039D01*
X253140Y236988D01*
X253061Y236930D01*
X253053Y236923D01*
X253025Y236894D01*
X252981Y236851D01*
X252938Y236792D01*
X252887Y236727D01*
X252851Y236648D01*
X252821Y236568D01*
X252807Y236473D01*
Y236466D01*
Y236437D01*
X252814Y236386D01*
X252821Y236336D01*
X252836Y236270D01*
X252858Y236205D01*
X252887Y236140D01*
X252930Y236082D01*
X252938Y236075D01*
X252952Y236053D01*
X252981Y236024D01*
X253017Y235988D01*
X253068Y235944D01*
X253119Y235901D01*
X253249Y235799D01*
X253257Y235792D01*
X253286Y235777D01*
X253322Y235749D01*
X253373Y235719D01*
X253431Y235676D01*
X253503Y235632D01*
X253655Y235531D01*
X253662Y235524D01*
X253692Y235509D01*
X253735Y235473D01*
X253793Y235437D01*
X253858Y235386D01*
X253924Y235328D01*
X253996Y235256D01*
X254068Y235183D01*
X254076Y235176D01*
X254090Y235161D01*
X254112Y235132D01*
X254141Y235089D01*
X254170Y235038D01*
X254206Y234973D01*
X254250Y234900D01*
X254293Y234821D01*
X254329Y234726D01*
X254373Y234625D01*
X254409Y234509D01*
X254446Y234393D01*
X254467Y234262D01*
X254489Y234124D01*
X254503Y233972D01*
X254511Y233820D01*
Y233805D01*
Y233776D01*
X254503Y233718D01*
X254496Y233646D01*
X254489Y233559D01*
X254474Y233457D01*
X254446Y233349D01*
X254416Y233225D01*
X254380Y233088D01*
X254329Y232957D01*
X254264Y232812D01*
X254192Y232667D01*
X254105Y232529D01*
X254003Y232392D01*
X253887Y232254D01*
X253757Y232123D01*
X253749Y232116D01*
X253728Y232095D01*
X253684Y232066D01*
X253626Y232022D01*
X253561Y231979D01*
X253474Y231921D01*
X253380Y231862D01*
X253264Y231804D01*
X253140Y231747D01*
X253003Y231688D01*
X252858Y231630D01*
X252698Y231587D01*
X252524Y231543D01*
X252343Y231515D01*
X252154Y231493D01*
X251952Y231486D01*
X251915D01*
X251872Y231493D01*
X251814Y231500D01*
X251741Y231515D01*
X251661Y231529D01*
X251567Y231558D01*
X251466Y231587D01*
X251357Y231630D01*
X251234Y231688D01*
X251118Y231754D01*
X250987Y231841D01*
X250857Y231935D01*
X250726Y232044D01*
X250603Y232174D01*
X250472Y232319D01*
X251168Y233689D01*
X251176Y233675D01*
X251198Y233646D01*
X251226Y233595D01*
X251277Y233537D01*
X251350Y233465D01*
X251437Y233385D01*
X251538Y233298D01*
X251669Y233218D01*
X251676D01*
X251683Y233211D01*
X251727Y233182D01*
X251792Y233153D01*
X251872Y233109D01*
X251959Y233073D01*
X252053Y233037D01*
X252140Y233008D01*
X252213Y233001D01*
X252278D01*
X252321Y233008D01*
X252423Y233015D01*
X252524Y233037D01*
X252532D01*
X252546Y233044D01*
X252568Y233051D01*
X252597Y233066D01*
X252669Y233095D01*
X252749Y233146D01*
X252756Y233153D01*
X252785Y233175D01*
X252821Y233211D01*
X252865Y233262D01*
X252908Y233320D01*
X252945Y233385D01*
X252974Y233457D01*
X252981Y233544D01*
Y233559D01*
Y233588D01*
X252974Y233631D01*
X252959Y233689D01*
X252945Y233755D01*
X252916Y233827D01*
X252880Y233900D01*
X252829Y233972D01*
X252821Y233980D01*
X252800Y234009D01*
X252771Y234045D01*
X252727Y234096D01*
X252677Y234146D01*
X252619Y234211D01*
X252546Y234277D01*
X252466Y234342D01*
X252459Y234349D01*
X252430Y234371D01*
X252386Y234407D01*
X252328Y234451D01*
X252263Y234502D01*
X252184Y234559D01*
X252097Y234625D01*
X252002Y234690D01*
X251988Y234697D01*
X251959Y234719D01*
X251908Y234755D01*
X251850Y234806D01*
X251778Y234864D01*
X251698Y234929D01*
X251538Y235074D01*
X251531Y235082D01*
X251517Y235096D01*
X251487Y235118D01*
X251459Y235154D01*
X251422Y235197D01*
X251379Y235248D01*
X251285Y235364D01*
X251183Y235509D01*
X251103Y235676D01*
X251074Y235763D01*
X251045Y235850D01*
X251031Y235944D01*
X251024Y236038D01*
Y236046D01*
Y236060D01*
Y236089D01*
X251031Y236125D01*
Y236169D01*
X251038Y236220D01*
X251060Y236343D01*
X251096Y236488D01*
X251147Y236648D01*
X251219Y236807D01*
X251313Y236966D01*
Y236974D01*
X251328Y236988D01*
X251343Y237010D01*
X251364Y237039D01*
X251430Y237119D01*
X251517Y237213D01*
X251618Y237329D01*
X251741Y237452D01*
X251886Y237576D01*
X252039Y237691D01*
X252046Y237699D01*
X252060Y237706D01*
X252082Y237720D01*
X252118Y237742D01*
X252154Y237771D01*
X252205Y237800D01*
X252321Y237873D01*
X252459Y237945D01*
X252626Y238025D01*
X252800Y238105D01*
X252988Y238177D01*
X252995D01*
X253010Y238184D01*
X253039Y238192D01*
X253075Y238206D01*
X253119Y238221D01*
X253169Y238235D01*
X253293Y238271D01*
X253431Y238300D01*
X253575Y238330D01*
X253728Y238351D01*
X253866Y238358D01*
X253989D01*
X254076Y238351D01*
D02*
G37*
G36*
X343104Y299839D02*
X343255Y299828D01*
X343429Y299804D01*
X343627Y299781D01*
X343859Y299746D01*
X344103Y299700D01*
X344370Y299642D01*
X344649Y299572D01*
X344939Y299491D01*
X345252Y299386D01*
X345566Y299270D01*
X345891Y299143D01*
X346228Y298992D01*
X346251Y298980D01*
X346309Y298945D01*
X346402Y298899D01*
X346541Y298829D01*
X346692Y298736D01*
X346878Y298632D01*
X347087Y298504D01*
X347307Y298365D01*
X347539Y298202D01*
X347795Y298028D01*
X348039Y297831D01*
X348294Y297622D01*
X348550Y297401D01*
X348805Y297169D01*
X349037Y296914D01*
X349269Y296646D01*
X349281Y296623D01*
X349327Y296577D01*
X349385Y296484D01*
X349467Y296356D01*
X349571Y296205D01*
X349676Y296020D01*
X349803Y295811D01*
X349920Y295578D01*
X350036Y295323D01*
X350163Y295044D01*
X350268Y294754D01*
X350361Y294452D01*
X350454Y294127D01*
X350512Y293790D01*
X350558Y293442D01*
X350570Y293094D01*
Y293082D01*
Y293036D01*
Y292966D01*
X350558Y292873D01*
Y292745D01*
X350535Y292606D01*
X350523Y292444D01*
X350500Y292258D01*
X350477D01*
X350407Y292281D01*
X350303Y292293D01*
X350152Y292327D01*
X349966Y292362D01*
X349734Y292409D01*
X349490Y292455D01*
X349200Y292513D01*
X348886Y292571D01*
X348550Y292641D01*
X348190Y292711D01*
X347818Y292780D01*
X347412Y292862D01*
X347005Y292943D01*
X346576Y293024D01*
X346146Y293105D01*
X345264Y293268D01*
X344358Y293442D01*
X343464Y293605D01*
X343035Y293686D01*
X342605Y293756D01*
X342199Y293825D01*
X341792Y293895D01*
X341421Y293965D01*
X341050Y294023D01*
X340713Y294081D01*
X340399Y294127D01*
X340109Y294174D01*
X339854Y294208D01*
Y294220D01*
Y294243D01*
X339842Y294278D01*
X339830Y294324D01*
X339807Y294452D01*
X339784Y294615D01*
X339749Y294812D01*
X339714Y295033D01*
X339668Y295265D01*
X339633Y295509D01*
Y295520D01*
Y295544D01*
X339621Y295578D01*
X339610Y295625D01*
Y295683D01*
X339598Y295753D01*
X339575Y295938D01*
X339552Y296147D01*
X339540Y296391D01*
X339517Y296646D01*
Y296925D01*
Y296937D01*
Y296960D01*
Y296995D01*
Y297053D01*
X339528Y297122D01*
Y297192D01*
X339552Y297378D01*
X339575Y297587D01*
X339621Y297807D01*
X339691Y298028D01*
X339772Y298249D01*
Y298260D01*
X339784Y298272D01*
X339819Y298341D01*
X339877Y298446D01*
X339958Y298574D01*
X340063Y298725D01*
X340179Y298876D01*
X340318Y299038D01*
X340481Y299177D01*
X340492Y299189D01*
X340515Y299212D01*
X340574Y299236D01*
X340643Y299282D01*
X340724Y299328D01*
X340829Y299386D01*
X340957Y299456D01*
X341096Y299514D01*
X341258Y299572D01*
X341433Y299642D01*
X341630Y299700D01*
X341839Y299746D01*
X342059Y299793D01*
X342303Y299828D01*
X342559Y299839D01*
X342826Y299851D01*
X342988D01*
X343104Y299839D01*
D02*
G37*
G36*
X339296Y293744D02*
X339401Y293732D01*
X339540Y293698D01*
X339703Y293663D01*
X339912Y293616D01*
X340144Y293570D01*
X340411Y293512D01*
X340701Y293442D01*
X341015Y293384D01*
X341351Y293314D01*
X341700Y293233D01*
X342071Y293163D01*
X342466Y293082D01*
X342861Y293001D01*
X343279Y292908D01*
X344126Y292745D01*
X344997Y292571D01*
X345868Y292409D01*
X346727Y292246D01*
X347145Y292165D01*
X347551Y292095D01*
X347957Y292026D01*
X348341Y291968D01*
X348700Y291910D01*
X349049Y291851D01*
X349385Y291805D01*
X349687Y291770D01*
Y291759D01*
Y291724D01*
X349699Y291666D01*
X349710Y291608D01*
X349722Y291550D01*
X349734Y291480D01*
X349745Y291399D01*
X349769Y291294D01*
X349792Y291178D01*
X349827Y291050D01*
X349862Y290899D01*
X349896Y290737D01*
X349943Y290551D01*
Y290540D01*
X349954Y290505D01*
X349966Y290458D01*
X349978Y290389D01*
X350001Y290307D01*
X350024Y290214D01*
X350070Y290005D01*
X350129Y289796D01*
X350175Y289599D01*
X350198Y289506D01*
X350221Y289425D01*
X350245Y289367D01*
X350256Y289320D01*
X350233D01*
X350175Y289309D01*
X350070D01*
X349931Y289297D01*
X349769Y289274D01*
X349583Y289263D01*
X349374Y289239D01*
X349153Y289228D01*
X348689Y289181D01*
X348213Y289135D01*
X347981Y289111D01*
X347772Y289088D01*
X347563Y289065D01*
X347389Y289042D01*
X347354D01*
X347307Y289030D01*
X347238D01*
X347168Y289019D01*
X347075Y289007D01*
X346878Y288984D01*
X346657Y288961D01*
X346425Y288926D01*
X346216Y288903D01*
X346019Y288879D01*
X345984D01*
X345949Y288868D01*
X345902D01*
X345844Y288856D01*
X345775D01*
X345589Y288833D01*
X345368Y288798D01*
X345113Y288763D01*
X344823Y288728D01*
X344498Y288670D01*
X344509D01*
X344544Y288659D01*
X344602Y288647D01*
X344683Y288635D01*
X344788Y288624D01*
X344904Y288601D01*
X345032Y288578D01*
X345171Y288554D01*
X345183D01*
X345241Y288543D01*
X345310Y288531D01*
X345415Y288508D01*
X345543Y288485D01*
X345682Y288461D01*
X345844Y288438D01*
X346007Y288403D01*
X346019D01*
X346077Y288392D01*
X346158Y288380D01*
X346274Y288357D01*
X346413Y288334D01*
X346599Y288299D01*
X346808Y288264D01*
X347040Y288229D01*
X347319Y288183D01*
X347621Y288125D01*
X347957Y288067D01*
X348317Y287997D01*
X348712Y287927D01*
X349130Y287846D01*
X349583Y287765D01*
X350070Y287672D01*
X350570Y285466D01*
X350546D01*
X350477Y285489D01*
X350361Y285512D01*
X350210Y285536D01*
X350024Y285571D01*
X349803Y285617D01*
X349548Y285675D01*
X349258Y285721D01*
X348944Y285791D01*
X348596Y285861D01*
X348236Y285930D01*
X347853Y286000D01*
X347447Y286081D01*
X347029Y286163D01*
X346599Y286244D01*
X346158Y286325D01*
X345241Y286488D01*
X344323Y286662D01*
X343406Y286824D01*
X342512Y286975D01*
X342083Y287045D01*
X341676Y287115D01*
X341270Y287173D01*
X340887Y287231D01*
X340527Y287289D01*
X340190Y287335D01*
X339877Y287370D01*
X339598Y287405D01*
Y287428D01*
Y287486D01*
X339587Y287579D01*
Y287695D01*
X339575Y287834D01*
X339563Y287974D01*
X339540Y288287D01*
Y288310D01*
X339528Y288357D01*
Y288438D01*
X339517Y288543D01*
X339505Y288670D01*
Y288810D01*
X339482Y289111D01*
Y289135D01*
Y289181D01*
X339471Y289263D01*
Y289355D01*
X339459Y289472D01*
X339447Y289588D01*
X339424Y289831D01*
X339436D01*
X339471Y289843D01*
X339540Y289855D01*
X339621Y289866D01*
X339714Y289878D01*
X339830Y289901D01*
X339958Y289913D01*
X340097Y289936D01*
X340399Y289982D01*
X340724Y290040D01*
X341050Y290087D01*
X341351Y290133D01*
X341363D01*
X341386Y290145D01*
X341421D01*
X341479Y290156D01*
X341537Y290168D01*
X341618Y290180D01*
X341792Y290203D01*
X341990Y290238D01*
X342199Y290272D01*
X342396Y290307D01*
X342594Y290342D01*
X342617D01*
X342675Y290354D01*
X342768Y290377D01*
X342884Y290389D01*
X343035Y290412D01*
X343186Y290435D01*
X343522Y290493D01*
X343534D01*
X343557Y290505D01*
X343615D01*
X343673Y290516D01*
X343755Y290528D01*
X343847Y290551D01*
X344056Y290586D01*
X344312Y290633D01*
X344579Y290690D01*
X344846Y290749D01*
X345113Y290807D01*
X345101D01*
X345055Y290818D01*
X344997Y290830D01*
X344904Y290841D01*
X344799Y290865D01*
X344672Y290888D01*
X344544Y290911D01*
X344393Y290934D01*
X344370D01*
X344323Y290946D01*
X344242Y290957D01*
X344126Y290981D01*
X343998Y291004D01*
X343859Y291027D01*
X343696Y291050D01*
X343522Y291085D01*
X343499D01*
X343441Y291097D01*
X343348Y291120D01*
X343232Y291143D01*
X343093Y291178D01*
X342930Y291213D01*
X342756Y291248D01*
X342582Y291283D01*
X342559D01*
X342501Y291306D01*
X342396Y291329D01*
X342245Y291352D01*
X342071Y291387D01*
X341862Y291434D01*
X341618Y291480D01*
X341351Y291538D01*
X341340D01*
X341317Y291550D01*
X341270D01*
X341212Y291573D01*
X341142Y291584D01*
X341050Y291608D01*
X340945Y291619D01*
X340829Y291654D01*
X340690Y291677D01*
X340550Y291701D01*
X340388Y291735D01*
X340225Y291770D01*
X339842Y291851D01*
X339436Y291933D01*
X339215Y293767D01*
X339238D01*
X339296Y293744D01*
D02*
G37*
G36*
X342245Y284351D02*
X342234D01*
X342199Y284340D01*
X342141Y284328D01*
X342071Y284305D01*
X341990Y284270D01*
X341897Y284235D01*
X341688Y284142D01*
X341479Y284026D01*
X341386Y283957D01*
X341305Y283875D01*
X341235Y283794D01*
X341177Y283690D01*
X341142Y283597D01*
X341131Y283481D01*
Y283469D01*
X341142Y283411D01*
X341154Y283341D01*
X341200Y283237D01*
X341258Y283109D01*
X341351Y282970D01*
X341491Y282807D01*
X341572Y282726D01*
X341665Y282645D01*
X341676D01*
X341688Y282622D01*
X341723Y282598D01*
X341758Y282575D01*
X341874Y282482D01*
X342036Y282378D01*
X342234Y282250D01*
X342477Y282111D01*
X342744Y281960D01*
X343046Y281809D01*
X343070Y281797D01*
X343139Y281774D01*
X343244Y281728D01*
X343383Y281669D01*
X343557Y281600D01*
X343766Y281519D01*
X343998Y281437D01*
X344254Y281345D01*
X344532Y281263D01*
X344834Y281170D01*
X345159Y281089D01*
X345484Y281019D01*
X345821Y280961D01*
X346169Y280903D01*
X346529Y280868D01*
X346878Y280845D01*
X347029D01*
X347110Y280857D01*
X347191D01*
X347400Y280880D01*
X347621Y280915D01*
X347841Y280961D01*
X348039Y281031D01*
X348132Y281077D01*
X348213Y281124D01*
X348224Y281136D01*
X348271Y281170D01*
X348341Y281240D01*
X348410Y281310D01*
X348480Y281414D01*
X348550Y281519D01*
X348596Y281646D01*
X348608Y281774D01*
Y281786D01*
Y281832D01*
X348596Y281913D01*
X348584Y281995D01*
X348573Y282099D01*
X348538Y282215D01*
X348503Y282343D01*
X348457Y282459D01*
X348445Y282471D01*
X348433Y282517D01*
X348399Y282575D01*
X348352Y282656D01*
X348283Y282749D01*
X348213Y282842D01*
X348132Y282947D01*
X348039Y283039D01*
X348027Y283051D01*
X348015Y283063D01*
X347981Y283098D01*
X347934Y283132D01*
X347865Y283179D01*
X347795Y283225D01*
X347621Y283341D01*
X347412Y283446D01*
X347168Y283550D01*
X346889Y283620D01*
X346738Y283643D01*
X346587Y283655D01*
X346820Y282053D01*
X345334Y282331D01*
Y282343D01*
Y282354D01*
X345322Y282424D01*
X345310Y282529D01*
X345287Y282680D01*
X345264Y282865D01*
X345229Y283074D01*
X345206Y283318D01*
X345159Y283574D01*
X345125Y283852D01*
X345078Y284154D01*
X345032Y284456D01*
X344985Y284781D01*
X344881Y285420D01*
X344776Y286047D01*
X344846D01*
X344927Y286035D01*
X345032Y286023D01*
X345171Y286012D01*
X345322Y285988D01*
X345496Y285965D01*
X345682Y285942D01*
X345891Y285907D01*
X346100Y285861D01*
X346553Y285756D01*
X347005Y285629D01*
X347447Y285454D01*
X347458D01*
X347493Y285431D01*
X347551Y285408D01*
X347632Y285362D01*
X347737Y285315D01*
X347841Y285257D01*
X347969Y285187D01*
X348108Y285118D01*
X348410Y284944D01*
X348724Y284735D01*
X349049Y284502D01*
X349351Y284247D01*
X349362Y284235D01*
X349385Y284212D01*
X349420Y284177D01*
X349478Y284131D01*
X349536Y284061D01*
X349606Y283980D01*
X349780Y283794D01*
X349954Y283574D01*
X350152Y283318D01*
X350326Y283039D01*
X350488Y282738D01*
Y282726D01*
X350500Y282703D01*
X350523Y282656D01*
X350546Y282598D01*
X350570Y282529D01*
X350605Y282447D01*
X350674Y282262D01*
X350744Y282029D01*
X350802Y281797D01*
X350848Y281542D01*
X350860Y281298D01*
Y281286D01*
Y281275D01*
Y281240D01*
Y281193D01*
X350848Y281066D01*
X350825Y280915D01*
X350802Y280741D01*
X350755Y280543D01*
X350697Y280358D01*
X350616Y280160D01*
X350605Y280137D01*
X350570Y280079D01*
X350512Y279986D01*
X350442Y279870D01*
X350338Y279731D01*
X350210Y279580D01*
X350059Y279429D01*
X349885Y279290D01*
X349873Y279278D01*
X349838Y279255D01*
X349769Y279220D01*
X349687Y279162D01*
X349583Y279104D01*
X349444Y279046D01*
X349293Y278964D01*
X349118Y278895D01*
X348921Y278825D01*
X348689Y278755D01*
X348445Y278686D01*
X348190Y278628D01*
X347899Y278570D01*
X347586Y278535D01*
X347261Y278512D01*
X346913Y278500D01*
X346727D01*
X346587Y278512D01*
X346425D01*
X346228Y278535D01*
X346007Y278546D01*
X345775Y278570D01*
X345519Y278605D01*
X345252Y278639D01*
X344683Y278732D01*
X344114Y278871D01*
X343836Y278964D01*
X343557Y279057D01*
X343546Y279069D01*
X343488Y279081D01*
X343418Y279115D01*
X343313Y279162D01*
X343197Y279208D01*
X343046Y279278D01*
X342895Y279359D01*
X342721Y279440D01*
X342338Y279649D01*
X341932Y279882D01*
X341537Y280160D01*
X341154Y280462D01*
X341142Y280474D01*
X341108Y280497D01*
X341061Y280543D01*
X340991Y280613D01*
X340910Y280694D01*
X340829Y280787D01*
X340724Y280892D01*
X340608Y281008D01*
X340376Y281275D01*
X340144Y281588D01*
X339923Y281925D01*
X339819Y282099D01*
X339726Y282285D01*
Y282296D01*
X339703Y282331D01*
X339680Y282378D01*
X339656Y282447D01*
X339610Y282529D01*
X339575Y282633D01*
X339528Y282738D01*
X339482Y282865D01*
X339401Y283132D01*
X339320Y283411D01*
X339273Y283701D01*
X339250Y283980D01*
Y283992D01*
Y284015D01*
Y284050D01*
Y284096D01*
X339262Y284235D01*
X339273Y284398D01*
X339308Y284584D01*
X339343Y284769D01*
X339401Y284967D01*
X339471Y285141D01*
X339482Y285164D01*
X339505Y285211D01*
X339552Y285292D01*
X339621Y285396D01*
X339703Y285512D01*
X339796Y285629D01*
X339900Y285745D01*
X340028Y285861D01*
X340039Y285872D01*
X340063Y285884D01*
X340097Y285907D01*
X340156Y285954D01*
X340213Y285988D01*
X340306Y286035D01*
X340399Y286093D01*
X340504Y286139D01*
X340632Y286197D01*
X340771Y286244D01*
X340922Y286290D01*
X341084Y286337D01*
X341258Y286372D01*
X341444Y286395D01*
X341642Y286406D01*
X341851Y286418D01*
X342245Y284351D01*
D02*
G37*
G36*
X235951Y238424D02*
X236001D01*
X236118Y238417D01*
X236248Y238395D01*
X236379Y238373D01*
X236509Y238337D01*
X236625Y238286D01*
X236639Y238279D01*
X236676Y238264D01*
X236726Y238228D01*
X236792Y238184D01*
X236864Y238134D01*
X236944Y238069D01*
X237024Y237996D01*
X237096Y237909D01*
X237104Y237902D01*
X237111Y237887D01*
X237125Y237865D01*
X237147Y237829D01*
X237169Y237786D01*
X237198Y237728D01*
X237227Y237670D01*
X237263Y237590D01*
X237292Y237510D01*
X237321Y237416D01*
X237350Y237315D01*
X237372Y237206D01*
X237393Y237083D01*
X237408Y236952D01*
X237422Y236814D01*
Y236662D01*
Y236655D01*
Y236640D01*
Y236611D01*
Y236575D01*
X237415Y236524D01*
Y236473D01*
X237408Y236408D01*
X237401Y236343D01*
X237372Y236184D01*
X237343Y236017D01*
X237292Y235836D01*
X237227Y235647D01*
Y235640D01*
X237220Y235625D01*
X237205Y235596D01*
X237191Y235567D01*
X237176Y235524D01*
X237147Y235473D01*
X237089Y235350D01*
X237017Y235219D01*
X236929Y235067D01*
X236828Y234915D01*
X236712Y234770D01*
Y234763D01*
X236698Y234755D01*
X236683Y234734D01*
X236654Y234704D01*
X236589Y234639D01*
X236502Y234552D01*
X236393Y234458D01*
X236262Y234356D01*
X236125Y234255D01*
X235972Y234168D01*
X235965D01*
X235951Y234161D01*
X235929Y234146D01*
X235900Y234132D01*
X235864Y234117D01*
X235813Y234096D01*
X235704Y234059D01*
X235574Y234016D01*
X235429Y233980D01*
X235269Y233950D01*
X235103Y233943D01*
X235001D01*
Y233936D01*
X234994Y233907D01*
X234986Y233863D01*
X234972Y233805D01*
X234958Y233726D01*
X234936Y233631D01*
X234914Y233516D01*
X234892Y233392D01*
X234863Y233247D01*
X234834Y233088D01*
X234798Y232914D01*
X234769Y232718D01*
X234733Y232515D01*
X234697Y232297D01*
X234660Y232058D01*
X234624Y231812D01*
X233007Y231493D01*
Y231507D01*
X233022Y231543D01*
X233029Y231602D01*
X233051Y231681D01*
X233072Y231783D01*
X233102Y231906D01*
X233131Y232044D01*
X233159Y232196D01*
X233203Y232370D01*
X233239Y232558D01*
X233283Y232754D01*
X233326Y232972D01*
X233377Y233196D01*
X233428Y233429D01*
X233478Y233675D01*
X233529Y233929D01*
X233638Y234451D01*
X233747Y234995D01*
X233856Y235545D01*
X233964Y236097D01*
X234066Y236640D01*
X234160Y237170D01*
X234204Y237423D01*
X234247Y237670D01*
X234283Y237909D01*
X234319Y238134D01*
X234334D01*
X234363Y238148D01*
X234414Y238163D01*
X234486Y238177D01*
X234566Y238206D01*
X234667Y238228D01*
X234769Y238257D01*
X234885Y238286D01*
X235132Y238337D01*
X235378Y238387D01*
X235501Y238402D01*
X235617Y238417D01*
X235726Y238431D01*
X235914D01*
X235951Y238424D01*
D02*
G37*
G36*
X373634Y333383D02*
X373678Y333375D01*
X373743Y333353D01*
X373837Y333325D01*
X373953Y333288D01*
X374084Y333252D01*
X374236Y333208D01*
X374403Y333158D01*
X374584Y333107D01*
X374773Y333049D01*
X374975Y332998D01*
X375186Y332940D01*
X375621Y332824D01*
X376056Y332708D01*
X376070D01*
X376107Y332694D01*
X376172Y332679D01*
X376252Y332658D01*
X376353Y332636D01*
X376469Y332607D01*
X376600Y332571D01*
X376745Y332534D01*
X376897Y332498D01*
X377056Y332454D01*
X377397Y332375D01*
X377745Y332288D01*
X378079Y332201D01*
X378086D01*
X378115Y332193D01*
X378166Y332179D01*
X378231Y332165D01*
X378318Y332143D01*
X378419Y332121D01*
X378535Y332092D01*
X378666Y332056D01*
X378818Y332027D01*
X378977Y331983D01*
X379159Y331940D01*
X379347Y331896D01*
X379543Y331853D01*
X379761Y331802D01*
X379985Y331751D01*
X380217Y331693D01*
X380580Y329250D01*
X380565D01*
X380529Y329257D01*
X380471D01*
X380391Y329272D01*
X380290Y329279D01*
X380167Y329293D01*
X380022Y329301D01*
X379862Y329315D01*
X379688Y329337D01*
X379500Y329351D01*
X379296Y329366D01*
X379079Y329388D01*
X378847Y329410D01*
X378608Y329431D01*
X378361Y329446D01*
X378100Y329468D01*
X377832Y329489D01*
X377556Y329511D01*
X376998Y329555D01*
X376426Y329598D01*
X375846Y329634D01*
X375273Y329663D01*
X374714Y329692D01*
X374446Y329707D01*
X374178Y329714D01*
X373924Y329721D01*
X373678Y329729D01*
Y329736D01*
Y329757D01*
Y329794D01*
Y329844D01*
Y329903D01*
Y329975D01*
X373671Y330062D01*
Y330149D01*
Y330243D01*
X373663Y330352D01*
X373656Y330570D01*
X373641Y330802D01*
X373620Y331041D01*
X373605Y331186D01*
X373620D01*
X373656Y331178D01*
X373707D01*
X373786Y331171D01*
X373881Y331164D01*
X373990Y331150D01*
X374106Y331142D01*
X374236Y331128D01*
X374374Y331113D01*
X374519Y331099D01*
X374816Y331070D01*
X375120Y331041D01*
X375258Y331026D01*
X375396Y331012D01*
X375425D01*
X375461Y331005D01*
X375512Y330997D01*
X375570D01*
X375642Y330990D01*
X375715Y330976D01*
X375802Y330968D01*
X375983Y330954D01*
X376172Y330932D01*
X376360Y330910D01*
X376534Y330896D01*
X376578D01*
X376607Y330889D01*
X376650D01*
X376694Y330881D01*
X376802Y330874D01*
X376933Y330859D01*
X377071Y330852D01*
X377223Y330838D01*
X377375Y330823D01*
X377404D01*
X377441Y330816D01*
X377491Y330809D01*
X377556D01*
X377629Y330802D01*
X377709Y330794D01*
X377803Y330780D01*
X377897Y330772D01*
X378006Y330758D01*
X378231Y330736D01*
X378470Y330715D01*
X378716Y330685D01*
Y330859D01*
X373721Y331904D01*
Y331918D01*
Y331947D01*
Y331998D01*
X373714Y332063D01*
Y332143D01*
X373707Y332230D01*
X373699Y332411D01*
Y332425D01*
X373692Y332454D01*
Y332505D01*
X373685Y332563D01*
X373678Y332643D01*
Y332723D01*
X373663Y332911D01*
Y332926D01*
Y332955D01*
X373656Y333005D01*
X373649Y333071D01*
Y333143D01*
X373641Y333223D01*
X373620Y333390D01*
X373634Y333383D01*
D02*
G37*
G36*
X375606Y329366D02*
X375650Y329359D01*
X375700Y329351D01*
X375759Y329337D01*
X375824Y329323D01*
X375896Y329301D01*
X375976Y329272D01*
X376150Y329206D01*
X376252Y329156D01*
X376353Y329105D01*
X376469Y329040D01*
X376585Y328967D01*
X376701Y328888D01*
X376832Y328801D01*
X376962Y328699D01*
X377093Y328583D01*
X377230Y328460D01*
X377375Y328322D01*
X377520Y328170D01*
X377665Y328010D01*
X377818Y327829D01*
X377970Y327641D01*
X378129Y327430D01*
X378289Y327205D01*
X378441Y326966D01*
X378601Y326712D01*
X378767Y326437D01*
X378927Y326140D01*
Y326147D01*
Y326162D01*
Y326190D01*
Y326234D01*
Y326285D01*
Y326343D01*
X378920Y326415D01*
Y326495D01*
Y326575D01*
X378912Y326669D01*
X378905Y326879D01*
X378890Y327104D01*
X378876Y327350D01*
Y327358D01*
Y327379D01*
X378869Y327416D01*
Y327467D01*
X378861Y327524D01*
X378854Y327590D01*
Y327670D01*
X378847Y327749D01*
X378833Y327930D01*
X378818Y328126D01*
X378803Y328329D01*
X378789Y328518D01*
X380145Y328365D01*
Y328358D01*
Y328351D01*
Y328329D01*
X380152Y328300D01*
Y328264D01*
Y328221D01*
X380167Y328119D01*
X380174Y327989D01*
X380181Y327836D01*
X380195Y327662D01*
X380210Y327467D01*
Y327452D01*
Y327423D01*
X380217Y327372D01*
Y327300D01*
X380224Y327213D01*
X380232Y327118D01*
X380239Y327003D01*
X380246Y326887D01*
X380254Y326756D01*
X380261Y326618D01*
X380282Y326343D01*
X380297Y326067D01*
X380311Y325937D01*
X380319Y325806D01*
Y325799D01*
Y325777D01*
X380326Y325741D01*
Y325690D01*
X380333Y325632D01*
X380341Y325560D01*
Y325473D01*
X380348Y325378D01*
X380355Y325270D01*
X380362Y325161D01*
X380377Y325038D01*
X380384Y324907D01*
X380399Y324632D01*
X380420Y324327D01*
X379239Y324480D01*
X379231D01*
X379209Y324487D01*
X379166Y324501D01*
X379115Y324516D01*
X379043Y324545D01*
X378963Y324588D01*
X378861Y324646D01*
X378746Y324719D01*
X378622Y324813D01*
X378485Y324929D01*
X378325Y325060D01*
X378158Y325226D01*
X377984Y325408D01*
X377890Y325516D01*
X377788Y325625D01*
X377687Y325748D01*
X377586Y325871D01*
X377477Y326009D01*
X377368Y326154D01*
X377361Y326169D01*
X377332Y326198D01*
X377295Y326249D01*
X377245Y326314D01*
X377187Y326394D01*
X377114Y326481D01*
X377042Y326582D01*
X376955Y326683D01*
X376788Y326901D01*
X376614Y327111D01*
X376527Y327205D01*
X376454Y327292D01*
X376382Y327365D01*
X376324Y327430D01*
X376309Y327445D01*
X376273Y327474D01*
X376215Y327524D01*
X376143Y327575D01*
X376056Y327626D01*
X375969Y327677D01*
X375874Y327706D01*
X375787Y327720D01*
X375744D01*
X375700Y327713D01*
X375650Y327706D01*
X375585Y327691D01*
X375519Y327677D01*
X375454Y327648D01*
X375396Y327611D01*
X375389Y327604D01*
X375374Y327590D01*
X375345Y327568D01*
X375316Y327539D01*
X375294Y327496D01*
X375266Y327452D01*
X375251Y327394D01*
X375244Y327336D01*
Y327329D01*
Y327307D01*
Y327278D01*
X375251Y327242D01*
X375273Y327155D01*
X375316Y327061D01*
Y327053D01*
X375331Y327046D01*
X375360Y326995D01*
X375418Y326944D01*
X375490Y326887D01*
X375498Y326879D01*
X375526Y326865D01*
X375570Y326850D01*
X375628Y326829D01*
X375700Y326800D01*
X375787Y326785D01*
X375889Y326770D01*
X375998Y326763D01*
X376114D01*
X376128Y326770D01*
X376135Y326778D01*
Y326763D01*
Y326749D01*
X376143Y326727D01*
Y326691D01*
X376150Y326640D01*
X376157Y326568D01*
X376165Y326488D01*
X376172Y326379D01*
X376186Y326249D01*
X376201Y326089D01*
X376208Y326002D01*
X376222Y325908D01*
X376230Y325799D01*
X376244Y325690D01*
X376252Y325574D01*
X376266Y325444D01*
X376280Y325306D01*
X376295Y325161D01*
X376266D01*
X376237Y325154D01*
X376201D01*
X376099Y325147D01*
X375991Y325139D01*
X375947D01*
X375889Y325147D01*
X375816Y325154D01*
X375729Y325161D01*
X375621Y325183D01*
X375512Y325204D01*
X375381Y325234D01*
X375251Y325277D01*
X375113Y325328D01*
X374968Y325393D01*
X374823Y325465D01*
X374678Y325553D01*
X374533Y325661D01*
X374395Y325777D01*
X374265Y325915D01*
X374258Y325922D01*
X374236Y325944D01*
X374207Y325988D01*
X374171Y326038D01*
X374120Y326111D01*
X374069Y326190D01*
X374019Y326277D01*
X373960Y326386D01*
X373903Y326502D01*
X373852Y326625D01*
X373794Y326763D01*
X373750Y326908D01*
X373714Y327061D01*
X373685Y327227D01*
X373663Y327394D01*
X373656Y327568D01*
Y327575D01*
Y327604D01*
Y327641D01*
X373663Y327698D01*
X373671Y327764D01*
X373678Y327836D01*
X373692Y327923D01*
X373714Y328010D01*
X373765Y328213D01*
X373801Y328315D01*
X373845Y328424D01*
X373895Y328525D01*
X373960Y328626D01*
X374026Y328728D01*
X374106Y328822D01*
X374113Y328830D01*
X374127Y328844D01*
X374156Y328873D01*
X374200Y328909D01*
X374251Y328953D01*
X374316Y328996D01*
X374388Y329047D01*
X374475Y329098D01*
X374577Y329149D01*
X374678Y329199D01*
X374794Y329243D01*
X374925Y329286D01*
X375062Y329323D01*
X375207Y329351D01*
X375367Y329366D01*
X375534Y329373D01*
X375577D01*
X375606Y329366D01*
D02*
G37*
G36*
X373750Y325052D02*
X373786Y325045D01*
X373823Y325038D01*
X373881Y325023D01*
X373946Y325009D01*
X374019Y324994D01*
X374106Y324973D01*
X374200Y324951D01*
X374301Y324922D01*
X374417Y324900D01*
X374540Y324871D01*
X374678Y324842D01*
X374816Y324813D01*
X374968Y324777D01*
X375120Y324741D01*
X375287Y324711D01*
X375461Y324668D01*
X375824Y324595D01*
X376215Y324516D01*
X376628Y324436D01*
X377063Y324349D01*
X377520Y324262D01*
X377984Y324182D01*
X378470Y324095D01*
X378477D01*
X378506Y324088D01*
X378550Y324081D01*
X378608Y324074D01*
X378680Y324066D01*
X378767Y324052D01*
X378861Y324037D01*
X378970Y324015D01*
X379094Y324001D01*
X379217Y323979D01*
X379355Y323957D01*
X379492Y323936D01*
X379789Y323885D01*
X380101Y323834D01*
Y323827D01*
X380108Y323805D01*
X380116Y323769D01*
X380130Y323726D01*
X380152Y323660D01*
X380167Y323588D01*
X380188Y323501D01*
X380217Y323399D01*
X380239Y323283D01*
X380268Y323160D01*
X380297Y323022D01*
X380333Y322870D01*
X380362Y322710D01*
X380399Y322536D01*
X380428Y322355D01*
X380464Y322160D01*
X380456D01*
X380428Y322167D01*
X380384Y322181D01*
X380326Y322196D01*
X380254Y322210D01*
X380167Y322225D01*
X380072Y322247D01*
X379971Y322275D01*
X379739Y322326D01*
X379500Y322377D01*
X379253Y322428D01*
X379021Y322479D01*
X379014D01*
X378992Y322486D01*
X378963Y322493D01*
X378920Y322500D01*
X378869Y322508D01*
X378811Y322522D01*
X378673Y322551D01*
X378514Y322580D01*
X378347Y322616D01*
X378180Y322653D01*
X378021Y322681D01*
X378013D01*
X377999Y322689D01*
X377984D01*
X377948Y322696D01*
X377875Y322710D01*
X377767Y322732D01*
X377651Y322761D01*
X377513Y322790D01*
X377368Y322819D01*
X377216Y322848D01*
X377208D01*
X377194Y322855D01*
X377158D01*
X377121Y322870D01*
X377063Y322877D01*
X376998Y322892D01*
X376919Y322906D01*
X376832Y322921D01*
X376730Y322942D01*
X376614Y322964D01*
X376483Y322986D01*
X376353Y323008D01*
X376201Y323037D01*
X376041Y323066D01*
X375867Y323095D01*
X375686Y323131D01*
Y323116D01*
X375693Y323088D01*
Y323029D01*
X375708Y322957D01*
X375715Y322870D01*
X375729Y322761D01*
X375751Y322638D01*
X375773Y322500D01*
Y322493D01*
Y322486D01*
X375780Y322442D01*
X375795Y322377D01*
X375802Y322297D01*
X375816Y322210D01*
X375831Y322130D01*
X375846Y322051D01*
X375853Y321993D01*
X374207Y322225D01*
Y322232D01*
X374200Y322261D01*
X374193Y322297D01*
X374178Y322348D01*
X374171Y322413D01*
X374156Y322493D01*
X374134Y322580D01*
X374120Y322674D01*
X374098Y322776D01*
X374077Y322884D01*
X374040Y323116D01*
X373997Y323356D01*
X373960Y323602D01*
Y323609D01*
X373953Y323631D01*
Y323668D01*
X373939Y323718D01*
X373932Y323776D01*
X373924Y323849D01*
X373910Y323936D01*
X373895Y324030D01*
X373873Y324131D01*
X373859Y324240D01*
X373837Y324363D01*
X373823Y324487D01*
X373779Y324762D01*
X373728Y325060D01*
X373736D01*
X373750Y325052D01*
D02*
G37*
G36*
X336546Y236915D02*
X334661Y235922D01*
X334675D01*
X334719Y235908D01*
X334784Y235893D01*
X334878Y235872D01*
X334980Y235842D01*
X335103Y235806D01*
X335233Y235755D01*
X335371Y235705D01*
X335516Y235640D01*
X335654Y235567D01*
X335799Y235480D01*
X335929Y235386D01*
X336053Y235284D01*
X336161Y235161D01*
X336256Y235038D01*
X336328Y234893D01*
X336335Y234886D01*
X336343Y234849D01*
X336357Y234799D01*
X336372Y234733D01*
X336386Y234646D01*
X336401Y234552D01*
X336415Y234436D01*
Y234313D01*
Y234306D01*
Y234298D01*
Y234277D01*
Y234255D01*
X336401Y234182D01*
X336386Y234088D01*
X336357Y233972D01*
X336314Y233834D01*
X336256Y233689D01*
X336176Y233523D01*
Y233515D01*
X336169Y233501D01*
X336154Y233479D01*
X336133Y233450D01*
X336111Y233406D01*
X336082Y233363D01*
X336009Y233254D01*
X335915Y233124D01*
X335806Y232993D01*
X335683Y232848D01*
X335538Y232711D01*
X335531Y232703D01*
X335524Y232696D01*
X335494Y232674D01*
X335466Y232652D01*
X335429Y232616D01*
X335386Y232587D01*
X335277Y232500D01*
X335139Y232406D01*
X334980Y232305D01*
X334806Y232210D01*
X334617Y232116D01*
X334610D01*
X334595Y232109D01*
X334566Y232094D01*
X334530Y232080D01*
X334487Y232065D01*
X334429Y232044D01*
X334306Y232007D01*
X334160Y231964D01*
X333994Y231927D01*
X333827Y231898D01*
X333660Y231891D01*
X333588D01*
X333508Y231898D01*
X333406D01*
X333291Y231906D01*
X333174Y231920D01*
X333051Y231942D01*
X332943Y231964D01*
X332928Y231971D01*
X332899Y231978D01*
X332841Y231993D01*
X332776Y232022D01*
X332703Y232051D01*
X332616Y232087D01*
X332537Y232138D01*
X332450Y232189D01*
X332442Y232196D01*
X332428Y232203D01*
X332406Y232225D01*
X332377Y232254D01*
X332341Y232290D01*
X332305Y232326D01*
X332261Y232377D01*
X332225Y232435D01*
X332181Y232500D01*
X332138Y232573D01*
X332065Y232739D01*
X332036Y232834D01*
X332014Y232935D01*
X332000Y233037D01*
X331993Y233153D01*
Y233160D01*
Y233189D01*
X332000Y233232D01*
X332007Y233291D01*
X332014Y233363D01*
X332029Y233443D01*
X332051Y233537D01*
X332080Y233631D01*
X333726Y233718D01*
Y233711D01*
Y233689D01*
X333733Y233653D01*
X333740Y233617D01*
X333769Y233530D01*
X333791Y233486D01*
X333820Y233450D01*
X333827D01*
X333834Y233436D01*
X333856Y233428D01*
X333885Y233414D01*
X333958Y233385D01*
X334001Y233378D01*
X334045Y233370D01*
X334095D01*
X334132Y233378D01*
X334219Y233392D01*
X334320Y233428D01*
X334327D01*
X334342Y233443D01*
X334371Y233457D01*
X334407Y233472D01*
X334494Y233530D01*
X334581Y233595D01*
X334595Y233610D01*
X334625Y233639D01*
X334675Y233682D01*
X334733Y233747D01*
X334784Y233820D01*
X334835Y233907D01*
X334864Y233994D01*
X334878Y234088D01*
Y234103D01*
Y234132D01*
X334864Y234182D01*
X334849Y234240D01*
X334820Y234313D01*
X334784Y234385D01*
X334726Y234458D01*
X334653Y234530D01*
X334646Y234538D01*
X334610Y234559D01*
X334559Y234588D01*
X334494Y234625D01*
X334400Y234661D01*
X334284Y234690D01*
X334153Y234712D01*
X334001Y234719D01*
X333849D01*
X333740Y234712D01*
X333617Y234704D01*
X333486Y234697D01*
X333211Y234668D01*
X333196D01*
X333153Y234661D01*
X333087Y234653D01*
X333000Y234639D01*
X332906Y234632D01*
X332812Y234617D01*
X332711Y234610D01*
X332616Y234603D01*
X332783Y235987D01*
X332798Y235995D01*
X332826Y236017D01*
X332877Y236053D01*
X332950Y236096D01*
X333037Y236154D01*
X333131Y236220D01*
X333247Y236292D01*
X333370Y236372D01*
X333493Y236466D01*
X333631Y236560D01*
X333914Y236756D01*
X334197Y236974D01*
X334472Y237184D01*
X332957Y237155D01*
X333066Y238772D01*
X333102D01*
X333145Y238779D01*
X333283D01*
X333363Y238786D01*
X333457D01*
X333559Y238793D01*
X333776Y238801D01*
X334008Y238815D01*
X334233Y238822D01*
X334342D01*
X334443Y238829D01*
X334494D01*
X334530Y238837D01*
X334625D01*
X334748Y238844D01*
X334878Y238851D01*
X335016D01*
X335154Y238859D01*
X335284Y238866D01*
X335342D01*
X335400Y238873D01*
X335480D01*
X335574Y238880D01*
X335676Y238888D01*
X335893Y238895D01*
X335937D01*
X335973Y238902D01*
X336067D01*
X336183Y238909D01*
X336314D01*
X336466Y238916D01*
X336763D01*
X336546Y236915D01*
D02*
G37*
G36*
X249632Y238518D02*
X249682D01*
X249747Y238504D01*
X249820Y238489D01*
X249900Y238474D01*
X249987Y238445D01*
X250081Y238417D01*
X250168Y238373D01*
X250262Y238322D01*
X250357Y238264D01*
X250451Y238192D01*
X250531Y238105D01*
X250610Y238011D01*
X250683Y237902D01*
Y237895D01*
X250697Y237880D01*
X250712Y237851D01*
X250726Y237807D01*
X250748Y237750D01*
X250777Y237684D01*
X250799Y237612D01*
X250828Y237517D01*
X250857Y237416D01*
X250879Y237307D01*
X250907Y237177D01*
X250929Y237039D01*
X250944Y236894D01*
X250958Y236735D01*
X250973Y236561D01*
Y236372D01*
Y236365D01*
Y236343D01*
Y236314D01*
Y236270D01*
X250965Y236220D01*
Y236155D01*
X250958Y236082D01*
X250951Y236002D01*
X250944Y235915D01*
X250929Y235821D01*
X250900Y235611D01*
X250864Y235371D01*
X250806Y235125D01*
Y235118D01*
X250799Y235096D01*
X250792Y235060D01*
X250777Y235009D01*
X250763Y234951D01*
X250741Y234878D01*
X250719Y234806D01*
X250690Y234719D01*
X250632Y234523D01*
X250552Y234313D01*
X250472Y234096D01*
X250371Y233878D01*
Y233871D01*
X250357Y233856D01*
X250342Y233820D01*
X250320Y233784D01*
X250299Y233733D01*
X250262Y233675D01*
X250226Y233610D01*
X250190Y233537D01*
X250096Y233385D01*
X249987Y233211D01*
X249864Y233037D01*
X249733Y232863D01*
X249726Y232856D01*
X249718Y232841D01*
X249697Y232820D01*
X249668Y232790D01*
X249595Y232703D01*
X249501Y232602D01*
X249392Y232479D01*
X249262Y232355D01*
X249124Y232225D01*
X248979Y232102D01*
X248972Y232095D01*
X248943Y232073D01*
X248899Y232044D01*
X248841Y232000D01*
X248769Y231957D01*
X248682Y231899D01*
X248580Y231841D01*
X248479Y231783D01*
X248363Y231725D01*
X248239Y231667D01*
X248109Y231609D01*
X247971Y231565D01*
X247833Y231522D01*
X247696Y231493D01*
X247551Y231471D01*
X247413Y231464D01*
X247355D01*
X247311Y231471D01*
X247253Y231478D01*
X247196Y231486D01*
X247050Y231522D01*
X246891Y231573D01*
X246804Y231616D01*
X246724Y231660D01*
X246637Y231710D01*
X246557Y231768D01*
X246485Y231841D01*
X246412Y231921D01*
X246405Y231928D01*
X246398Y231942D01*
X246376Y231971D01*
X246347Y232015D01*
X246318Y232066D01*
X246282Y232131D01*
X246246Y232203D01*
X246210Y232290D01*
X246173Y232392D01*
X246137Y232501D01*
X246101Y232616D01*
X246072Y232747D01*
X246043Y232892D01*
X246021Y233044D01*
X246014Y233211D01*
X246006Y233385D01*
Y233400D01*
Y233436D01*
Y233494D01*
X246014Y233566D01*
X246021Y233668D01*
X246036Y233784D01*
X246050Y233914D01*
X246064Y234059D01*
X246094Y234226D01*
X246123Y234400D01*
X246166Y234589D01*
X246210Y234784D01*
X246268Y234987D01*
X246333Y235205D01*
X246405Y235422D01*
X246492Y235647D01*
X246499Y235662D01*
X246514Y235698D01*
X246543Y235763D01*
X246579Y235850D01*
X246630Y235951D01*
X246688Y236075D01*
X246753Y236205D01*
X246833Y236350D01*
X246920Y236510D01*
X247014Y236669D01*
X247123Y236836D01*
X247239Y237010D01*
X247355Y237177D01*
X247485Y237344D01*
X247623Y237510D01*
X247768Y237663D01*
X247776Y237670D01*
X247804Y237699D01*
X247855Y237742D01*
X247913Y237800D01*
X247993Y237865D01*
X248087Y237938D01*
X248196Y238011D01*
X248312Y238098D01*
X248443Y238177D01*
X248580Y238250D01*
X248732Y238322D01*
X248885Y238387D01*
X249044Y238445D01*
X249211Y238489D01*
X249385Y238518D01*
X249559Y238525D01*
X249595D01*
X249632Y238518D01*
D02*
G37*
G36*
X281060Y238764D02*
X281052Y238750D01*
X281045Y238714D01*
X281038Y238677D01*
X281023Y238619D01*
X281009Y238554D01*
X280994Y238481D01*
X280973Y238394D01*
X280951Y238300D01*
X280922Y238199D01*
X280900Y238083D01*
X280871Y237960D01*
X280842Y237822D01*
X280813Y237684D01*
X280777Y237532D01*
X280740Y237380D01*
X280712Y237213D01*
X280668Y237039D01*
X280595Y236676D01*
X280516Y236285D01*
X280436Y235872D01*
X280349Y235437D01*
X280262Y234980D01*
X280182Y234516D01*
X280095Y234030D01*
Y234023D01*
X280088Y233994D01*
X280081Y233950D01*
X280073Y233892D01*
X280066Y233820D01*
X280052Y233733D01*
X280037Y233639D01*
X280015Y233530D01*
X280001Y233406D01*
X279979Y233283D01*
X279958Y233145D01*
X279936Y233008D01*
X279885Y232711D01*
X279834Y232399D01*
X279827D01*
X279805Y232392D01*
X279769Y232384D01*
X279726Y232370D01*
X279660Y232348D01*
X279588Y232333D01*
X279501Y232312D01*
X279399Y232283D01*
X279283Y232261D01*
X279160Y232232D01*
X279022Y232203D01*
X278870Y232167D01*
X278711Y232138D01*
X278537Y232101D01*
X278355Y232072D01*
X278159Y232036D01*
Y232044D01*
X278167Y232072D01*
X278181Y232116D01*
X278196Y232174D01*
X278210Y232246D01*
X278225Y232333D01*
X278246Y232428D01*
X278275Y232529D01*
X278326Y232761D01*
X278377Y233000D01*
X278428Y233247D01*
X278479Y233479D01*
Y233486D01*
X278486Y233508D01*
X278493Y233537D01*
X278500Y233580D01*
X278507Y233631D01*
X278522Y233689D01*
X278551Y233827D01*
X278580Y233986D01*
X278616Y234153D01*
X278653Y234320D01*
X278681Y234479D01*
Y234487D01*
X278689Y234501D01*
Y234516D01*
X278696Y234552D01*
X278711Y234625D01*
X278732Y234733D01*
X278761Y234849D01*
X278790Y234987D01*
X278819Y235132D01*
X278848Y235284D01*
Y235292D01*
X278855Y235306D01*
Y235342D01*
X278870Y235379D01*
X278877Y235437D01*
X278892Y235502D01*
X278906Y235581D01*
X278921Y235668D01*
X278942Y235770D01*
X278964Y235886D01*
X278986Y236017D01*
X279008Y236147D01*
X279037Y236299D01*
X279066Y236459D01*
X279095Y236633D01*
X279131Y236814D01*
X279117D01*
X279087Y236807D01*
X279029D01*
X278957Y236792D01*
X278870Y236785D01*
X278761Y236771D01*
X278638Y236749D01*
X278500Y236727D01*
X278486D01*
X278442Y236720D01*
X278377Y236705D01*
X278297Y236698D01*
X278210Y236684D01*
X278131Y236669D01*
X278051Y236654D01*
X277993Y236647D01*
X278225Y238293D01*
X278232D01*
X278261Y238300D01*
X278297Y238307D01*
X278348Y238322D01*
X278413Y238329D01*
X278493Y238344D01*
X278580Y238366D01*
X278674Y238380D01*
X278776Y238402D01*
X278885Y238423D01*
X279117Y238460D01*
X279356Y238503D01*
X279602Y238540D01*
X279609D01*
X279631Y238547D01*
X279667D01*
X279718Y238561D01*
X279776Y238568D01*
X279849Y238576D01*
X279936Y238590D01*
X280030Y238605D01*
X280132Y238627D01*
X280240Y238641D01*
X280363Y238663D01*
X280487Y238677D01*
X280762Y238721D01*
X281060Y238772D01*
Y238764D01*
D02*
G37*
G36*
X307871Y238837D02*
X307937Y238829D01*
X308009Y238822D01*
X308096Y238808D01*
X308183Y238786D01*
X308386Y238735D01*
X308488Y238699D01*
X308596Y238655D01*
X308698Y238605D01*
X308799Y238540D01*
X308901Y238474D01*
X308995Y238394D01*
X309002Y238387D01*
X309017Y238373D01*
X309046Y238344D01*
X309082Y238300D01*
X309125Y238249D01*
X309169Y238184D01*
X309220Y238112D01*
X309271Y238025D01*
X309321Y237923D01*
X309372Y237822D01*
X309416Y237706D01*
X309459Y237575D01*
X309495Y237438D01*
X309524Y237293D01*
X309539Y237133D01*
X309546Y236966D01*
Y236959D01*
Y236945D01*
Y236923D01*
X309539Y236894D01*
X309531Y236850D01*
X309524Y236800D01*
X309510Y236741D01*
X309495Y236676D01*
X309473Y236604D01*
X309444Y236524D01*
X309379Y236350D01*
X309329Y236248D01*
X309278Y236147D01*
X309212Y236031D01*
X309140Y235915D01*
X309060Y235799D01*
X308973Y235668D01*
X308872Y235538D01*
X308756Y235407D01*
X308632Y235270D01*
X308495Y235125D01*
X308343Y234980D01*
X308183Y234835D01*
X308002Y234682D01*
X307813Y234530D01*
X307603Y234371D01*
X307378Y234211D01*
X307139Y234059D01*
X306885Y233899D01*
X306610Y233733D01*
X306312Y233573D01*
X306516D01*
X306588Y233580D01*
X306748D01*
X306842Y233588D01*
X307052Y233595D01*
X307277Y233610D01*
X307523Y233624D01*
X307552D01*
X307589Y233631D01*
X307639D01*
X307697Y233639D01*
X307763Y233646D01*
X307842D01*
X307922Y233653D01*
X308103Y233667D01*
X308299Y233682D01*
X308502Y233697D01*
X308691Y233711D01*
X308538Y232355D01*
X308502D01*
X308473Y232348D01*
X308393D01*
X308292Y232333D01*
X308161Y232326D01*
X308009Y232319D01*
X307835Y232305D01*
X307639Y232290D01*
X307596D01*
X307545Y232283D01*
X307472D01*
X307385Y232276D01*
X307291Y232268D01*
X307175Y232261D01*
X307059Y232254D01*
X306929Y232246D01*
X306791Y232239D01*
X306516Y232218D01*
X306240Y232203D01*
X306109Y232189D01*
X305979Y232181D01*
X305950D01*
X305914Y232174D01*
X305863D01*
X305805Y232167D01*
X305732Y232159D01*
X305645D01*
X305551Y232152D01*
X305443Y232145D01*
X305334Y232138D01*
X305210Y232123D01*
X305080Y232116D01*
X304804Y232101D01*
X304500Y232080D01*
X304652Y233261D01*
Y233269D01*
X304660Y233291D01*
X304674Y233334D01*
X304689Y233385D01*
X304717Y233457D01*
X304761Y233537D01*
X304819Y233639D01*
X304891Y233754D01*
X304986Y233878D01*
X305102Y234015D01*
X305232Y234175D01*
X305399Y234342D01*
X305580Y234516D01*
X305689Y234610D01*
X305798Y234712D01*
X305921Y234813D01*
X306044Y234914D01*
X306182Y235023D01*
X306327Y235132D01*
X306342Y235139D01*
X306370Y235168D01*
X306421Y235205D01*
X306487Y235255D01*
X306566Y235313D01*
X306653Y235386D01*
X306755Y235458D01*
X306856Y235545D01*
X307074Y235712D01*
X307284Y235886D01*
X307378Y235973D01*
X307465Y236046D01*
X307538Y236118D01*
X307603Y236176D01*
X307617Y236191D01*
X307646Y236227D01*
X307697Y236285D01*
X307748Y236357D01*
X307799Y236444D01*
X307850Y236531D01*
X307878Y236626D01*
X307893Y236713D01*
Y236720D01*
Y236756D01*
X307886Y236800D01*
X307878Y236850D01*
X307864Y236915D01*
X307850Y236981D01*
X307821Y237046D01*
X307784Y237104D01*
X307777Y237111D01*
X307763Y237126D01*
X307741Y237155D01*
X307712Y237184D01*
X307668Y237206D01*
X307625Y237234D01*
X307567Y237249D01*
X307509Y237256D01*
X307451D01*
X307415Y237249D01*
X307328Y237227D01*
X307233Y237184D01*
X307226D01*
X307219Y237169D01*
X307168Y237140D01*
X307117Y237082D01*
X307059Y237010D01*
X307052Y237002D01*
X307037Y236974D01*
X307023Y236930D01*
X307001Y236872D01*
X306972Y236800D01*
X306958Y236713D01*
X306943Y236611D01*
X306936Y236502D01*
Y236401D01*
Y236393D01*
Y236386D01*
X306943Y236372D01*
X306950Y236365D01*
X306922D01*
X306900Y236357D01*
X306863D01*
X306813Y236350D01*
X306740Y236343D01*
X306661Y236335D01*
X306552Y236328D01*
X306421Y236314D01*
X306262Y236299D01*
X306175Y236292D01*
X306081Y236278D01*
X305972Y236270D01*
X305863Y236256D01*
X305747Y236248D01*
X305616Y236234D01*
X305479Y236220D01*
X305334Y236205D01*
Y236212D01*
Y236234D01*
X305327Y236263D01*
Y236299D01*
X305319Y236401D01*
X305312Y236509D01*
Y236524D01*
Y236553D01*
X305319Y236611D01*
X305327Y236684D01*
X305334Y236771D01*
X305356Y236879D01*
X305377Y236988D01*
X305406Y237119D01*
X305450Y237249D01*
X305501Y237387D01*
X305566Y237532D01*
X305638Y237677D01*
X305725Y237822D01*
X305834Y237967D01*
X305950Y238105D01*
X306088Y238235D01*
X306095Y238242D01*
X306117Y238264D01*
X306160Y238293D01*
X306211Y238329D01*
X306283Y238380D01*
X306363Y238431D01*
X306450Y238481D01*
X306559Y238540D01*
X306675Y238597D01*
X306798Y238648D01*
X306936Y238706D01*
X307081Y238750D01*
X307233Y238786D01*
X307400Y238815D01*
X307567Y238837D01*
X307741Y238844D01*
X307813D01*
X307871Y238837D01*
D02*
G37*
G36*
X249364Y372848D02*
X249515Y372825D01*
X249689Y372802D01*
X249886Y372755D01*
X250072Y372697D01*
X250269Y372616D01*
X250292Y372604D01*
X250351Y372570D01*
X250443Y372512D01*
X250559Y372442D01*
X250699Y372338D01*
X250850Y372210D01*
X251001Y372059D01*
X251140Y371885D01*
X251152Y371873D01*
X251175Y371838D01*
X251210Y371769D01*
X251268Y371687D01*
X251326Y371583D01*
X251384Y371444D01*
X251465Y371293D01*
X251535Y371118D01*
X251604Y370921D01*
X251674Y370689D01*
X251744Y370445D01*
X251802Y370190D01*
X251860Y369899D01*
X251895Y369586D01*
X251918Y369261D01*
X251929Y368913D01*
Y368889D01*
Y368831D01*
Y368727D01*
X251918Y368587D01*
Y368425D01*
X251895Y368228D01*
X251883Y368007D01*
X251860Y367775D01*
X251825Y367519D01*
X251790Y367252D01*
X251697Y366683D01*
X251558Y366114D01*
X251465Y365836D01*
X251372Y365557D01*
X251361Y365546D01*
X251349Y365488D01*
X251314Y365418D01*
X251268Y365313D01*
X251221Y365197D01*
X251152Y365046D01*
X251070Y364895D01*
X250989Y364721D01*
X250780Y364338D01*
X250548Y363932D01*
X250269Y363537D01*
X249967Y363154D01*
X249956Y363142D01*
X249933Y363107D01*
X249886Y363061D01*
X249816Y362991D01*
X249735Y362910D01*
X249642Y362829D01*
X249538Y362724D01*
X249422Y362608D01*
X249155Y362376D01*
X248841Y362144D01*
X248505Y361923D01*
X248330Y361819D01*
X248145Y361726D01*
X248133D01*
X248098Y361703D01*
X248052Y361680D01*
X247982Y361656D01*
X247901Y361610D01*
X247796Y361575D01*
X247692Y361528D01*
X247564Y361482D01*
X247297Y361401D01*
X247019Y361320D01*
X246728Y361273D01*
X246450Y361250D01*
X246334D01*
X246194Y361262D01*
X246032Y361273D01*
X245846Y361308D01*
X245660Y361343D01*
X245463Y361401D01*
X245289Y361471D01*
X245265Y361482D01*
X245219Y361505D01*
X245138Y361552D01*
X245033Y361621D01*
X244917Y361703D01*
X244801Y361796D01*
X244685Y361900D01*
X244569Y362028D01*
X244557Y362039D01*
X244546Y362063D01*
X244522Y362097D01*
X244476Y362156D01*
X244441Y362213D01*
X244395Y362306D01*
X244337Y362399D01*
X244290Y362504D01*
X244232Y362632D01*
X244186Y362771D01*
X244139Y362922D01*
X244093Y363084D01*
X244058Y363258D01*
X244035Y363444D01*
X244023Y363642D01*
X244011Y363851D01*
X246078Y364245D01*
Y364234D01*
X246090Y364199D01*
X246101Y364141D01*
X246125Y364071D01*
X246159Y363990D01*
X246194Y363897D01*
X246287Y363688D01*
X246403Y363479D01*
X246473Y363386D01*
X246554Y363305D01*
X246635Y363235D01*
X246740Y363177D01*
X246833Y363142D01*
X246949Y363131D01*
X246960D01*
X247019Y363142D01*
X247088Y363154D01*
X247193Y363200D01*
X247320Y363258D01*
X247460Y363351D01*
X247622Y363491D01*
X247704Y363572D01*
X247785Y363665D01*
Y363676D01*
X247808Y363688D01*
X247831Y363723D01*
X247854Y363758D01*
X247947Y363874D01*
X248052Y364036D01*
X248180Y364234D01*
X248319Y364477D01*
X248470Y364744D01*
X248621Y365046D01*
X248632Y365070D01*
X248656Y365139D01*
X248702Y365244D01*
X248760Y365383D01*
X248830Y365557D01*
X248911Y365766D01*
X248992Y365998D01*
X249085Y366254D01*
X249166Y366532D01*
X249259Y366834D01*
X249341Y367159D01*
X249410Y367484D01*
X249468Y367821D01*
X249526Y368169D01*
X249561Y368529D01*
X249584Y368878D01*
Y368889D01*
Y368924D01*
Y368971D01*
Y369029D01*
X249573Y369110D01*
Y369191D01*
X249550Y369400D01*
X249515Y369621D01*
X249468Y369841D01*
X249398Y370039D01*
X249352Y370132D01*
X249306Y370213D01*
X249294Y370224D01*
X249259Y370271D01*
X249190Y370340D01*
X249120Y370410D01*
X249015Y370480D01*
X248911Y370550D01*
X248783Y370596D01*
X248656Y370608D01*
X248597D01*
X248516Y370596D01*
X248435Y370584D01*
X248330Y370573D01*
X248214Y370538D01*
X248087Y370503D01*
X247971Y370457D01*
X247959Y370445D01*
X247912Y370433D01*
X247854Y370399D01*
X247773Y370352D01*
X247680Y370283D01*
X247587Y370213D01*
X247483Y370132D01*
X247390Y370039D01*
X247378Y370027D01*
X247367Y370016D01*
X247332Y369981D01*
X247297Y369934D01*
X247251Y369865D01*
X247204Y369795D01*
X247088Y369621D01*
X246984Y369412D01*
X246879Y369168D01*
X246810Y368889D01*
X246786Y368738D01*
X246775Y368587D01*
X248377Y368820D01*
X248098Y367334D01*
X248075D01*
X248005Y367322D01*
X247901Y367310D01*
X247750Y367287D01*
X247564Y367264D01*
X247355Y367229D01*
X247111Y367206D01*
X246856Y367159D01*
X246577Y367125D01*
X246275Y367078D01*
X245974Y367032D01*
X245649Y366985D01*
X245010Y366881D01*
X244383Y366776D01*
Y366788D01*
Y366846D01*
X244395Y366927D01*
X244406Y367032D01*
X244418Y367171D01*
X244441Y367322D01*
X244464Y367496D01*
X244488Y367682D01*
X244522Y367891D01*
X244569Y368100D01*
X244673Y368553D01*
X244801Y369005D01*
X244975Y369447D01*
Y369458D01*
X244998Y369493D01*
X245022Y369551D01*
X245068Y369632D01*
X245114Y369737D01*
X245173Y369841D01*
X245242Y369969D01*
X245312Y370108D01*
X245486Y370410D01*
X245695Y370724D01*
X245927Y371049D01*
X246183Y371351D01*
X246194Y371362D01*
X246217Y371385D01*
X246252Y371420D01*
X246299Y371478D01*
X246368Y371536D01*
X246450Y371606D01*
X246635Y371780D01*
X246856Y371954D01*
X247111Y372152D01*
X247390Y372326D01*
X247692Y372488D01*
X247704D01*
X247727Y372500D01*
X247773Y372523D01*
X247831Y372546D01*
X247901Y372570D01*
X247982Y372604D01*
X248168Y372674D01*
X248400Y372744D01*
X248632Y372802D01*
X248888Y372848D01*
X249131Y372860D01*
X249236D01*
X249364Y372848D01*
D02*
G37*
G36*
X346898Y352087D02*
X346890Y352070D01*
X346846Y352026D01*
X346785Y351965D01*
X346698Y351878D01*
X346585Y351774D01*
X346455Y351661D01*
X346298Y351539D01*
X346124Y351417D01*
X345933Y351287D01*
X345715Y351165D01*
X345489Y351052D01*
X345237Y350947D01*
X344976Y350860D01*
X344697Y350799D01*
X344402Y350756D01*
X344088Y350739D01*
X344019D01*
X343932Y350747D01*
X343819Y350756D01*
X343671Y350782D01*
X343505Y350808D01*
X343323Y350852D01*
X343123Y350904D01*
X342905Y350982D01*
X342688Y351069D01*
X342453Y351173D01*
X342209Y351304D01*
X341974Y351461D01*
X341739Y351643D01*
X341504Y351852D01*
X341278Y352087D01*
X341792Y352600D01*
X341800Y352592D01*
X341835Y352548D01*
X341887Y352496D01*
X341966Y352418D01*
X342061Y352331D01*
X342174Y352235D01*
X342305Y352131D01*
X342444Y352026D01*
X342609Y351913D01*
X342783Y351809D01*
X342975Y351713D01*
X343175Y351626D01*
X343392Y351548D01*
X343610Y351495D01*
X343845Y351461D01*
X344088Y351443D01*
X344149D01*
X344219Y351452D01*
X344315Y351461D01*
X344436Y351478D01*
X344567Y351504D01*
X344723Y351539D01*
X344889Y351591D01*
X345063Y351652D01*
X345245Y351730D01*
X345437Y351817D01*
X345628Y351930D01*
X345828Y352061D01*
X346020Y352218D01*
X346202Y352400D01*
X346385Y352600D01*
X346898Y352087D01*
D02*
G37*
G36*
X344579Y254331D02*
X344649Y254319D01*
X344741Y254296D01*
X344858Y254273D01*
X344985Y254238D01*
X345136Y254215D01*
X345310Y254180D01*
X345496Y254145D01*
X345682Y254098D01*
X346100Y254017D01*
X346541Y253936D01*
X346994Y253855D01*
X346982Y253100D01*
Y253088D01*
Y253065D01*
Y253019D01*
Y252961D01*
X346971Y252821D01*
X346959Y252659D01*
X347040D01*
X347098Y252647D01*
X347180D01*
X347272Y252636D01*
X347377Y252624D01*
X347481Y252612D01*
X347748Y252589D01*
X348050Y252543D01*
X348375Y252496D01*
X348712Y252427D01*
X348817Y250639D01*
X348805D01*
X348782Y250650D01*
X348747Y250662D01*
X348700Y250673D01*
X348631Y250685D01*
X348550Y250708D01*
X348457Y250731D01*
X348341Y250755D01*
X348224Y250778D01*
X348085Y250813D01*
X347934Y250848D01*
X347772Y250882D01*
X347586Y250917D01*
X347400Y250952D01*
X347203Y250998D01*
X346982Y251033D01*
Y249826D01*
X346924D01*
X346843Y249837D01*
X346750Y249849D01*
X346634Y249861D01*
X346495Y249872D01*
X346344Y249884D01*
X346181Y249896D01*
X345833Y249930D01*
X345450Y249977D01*
X345090Y250023D01*
X344904Y250058D01*
X344741Y250081D01*
Y250232D01*
Y250244D01*
Y250267D01*
Y250302D01*
Y250348D01*
Y250476D01*
X344730Y250639D01*
Y250836D01*
X344707Y251045D01*
X344695Y251254D01*
X344672Y251463D01*
X344660D01*
X344614Y251474D01*
X344556D01*
X344486Y251486D01*
X344393Y251498D01*
X344289Y251509D01*
X344091Y251544D01*
X344080D01*
X344045Y251556D01*
X343987Y251567D01*
X343917Y251579D01*
X343836Y251591D01*
X343743Y251614D01*
X343522Y251649D01*
X343511D01*
X343476Y251660D01*
X343406Y251672D01*
X343337Y251683D01*
X343244Y251707D01*
X343151Y251718D01*
X342942Y251765D01*
Y251776D01*
Y251823D01*
X342930Y251892D01*
Y251985D01*
X342919Y252090D01*
X342907Y252218D01*
X342895Y252345D01*
X342884Y252496D01*
X342861Y252798D01*
X342837Y253100D01*
X342814Y253239D01*
X342803Y253367D01*
X342791Y253483D01*
X342779Y253588D01*
X342791D01*
X342826Y253576D01*
X342884Y253564D01*
X342965Y253541D01*
X343058Y253518D01*
X343162Y253495D01*
X343406Y253437D01*
X343418D01*
X343464Y253425D01*
X343522Y253413D01*
X343604Y253390D01*
X343708Y253367D01*
X343813Y253344D01*
X344045Y253286D01*
X344056D01*
X344091Y253274D01*
X344161Y253262D01*
X344231Y253239D01*
X344323Y253216D01*
X344428Y253193D01*
X344660Y253146D01*
Y253158D01*
Y253181D01*
X344649Y253228D01*
Y253286D01*
X344637Y253425D01*
X344614Y253576D01*
Y253588D01*
X344602Y253611D01*
Y253657D01*
X344590Y253704D01*
X344579Y253831D01*
X344567Y253982D01*
Y253994D01*
Y254017D01*
X344556Y254052D01*
Y254098D01*
X344544Y254215D01*
X344521Y254342D01*
X344532D01*
X344579Y254331D01*
D02*
G37*
G36*
X258303Y372546D02*
X258466Y372535D01*
X258640Y372523D01*
X259000Y372477D01*
Y372465D01*
X258988Y372442D01*
X258977Y372407D01*
X258965Y372361D01*
X258954Y372291D01*
X258930Y372221D01*
X258907Y372129D01*
X258884Y372024D01*
X258849Y371908D01*
X258826Y371780D01*
X258756Y371501D01*
X258675Y371177D01*
X258594Y370828D01*
X258501Y370433D01*
X258408Y370027D01*
X258315Y369586D01*
X258222Y369122D01*
X258129Y368657D01*
X258036Y368169D01*
X257862Y367171D01*
Y367159D01*
Y367136D01*
X257851Y367101D01*
X257839Y367055D01*
X257827Y366985D01*
X257816Y366904D01*
X257804Y366811D01*
X257793Y366707D01*
X257769Y366590D01*
X257746Y366474D01*
X257700Y366184D01*
X257653Y365859D01*
X257595Y365499D01*
X257537Y365104D01*
X257468Y364686D01*
X257409Y364245D01*
X257328Y363781D01*
X257259Y363293D01*
X257189Y362806D01*
X257038Y361796D01*
X257015D01*
X256945Y361772D01*
X256840Y361761D01*
X256701Y361726D01*
X256516Y361691D01*
X256318Y361656D01*
X256098Y361621D01*
X255842Y361575D01*
X255587Y361540D01*
X255308Y361505D01*
X254751Y361436D01*
X254193Y361389D01*
X253926Y361366D01*
X253601D01*
X253520Y361378D01*
X253416D01*
X253299Y361401D01*
X253149Y361424D01*
X252998Y361459D01*
X252823Y361494D01*
X252649Y361552D01*
X252475Y361621D01*
X252289Y361714D01*
X252115Y361807D01*
X251953Y361935D01*
X251802Y362074D01*
X251651Y362237D01*
X251535Y362422D01*
X251523Y362446D01*
X251500Y362492D01*
X251453Y362574D01*
X251407Y362690D01*
X251372Y362829D01*
X251326Y363003D01*
X251303Y363189D01*
X251291Y363398D01*
Y363409D01*
Y363421D01*
Y363456D01*
Y363491D01*
X251303Y363607D01*
X251314Y363746D01*
X251337Y363920D01*
X251372Y364094D01*
X251419Y364292D01*
X251477Y364477D01*
X251488Y364501D01*
X251512Y364559D01*
X251546Y364652D01*
X251604Y364779D01*
X251674Y364919D01*
X251755Y365070D01*
X251848Y365232D01*
X251953Y365395D01*
X251964Y365406D01*
X251976Y365429D01*
X252011Y365476D01*
X252057Y365522D01*
X252115Y365592D01*
X252185Y365673D01*
X252359Y365847D01*
X252568Y366033D01*
X252812Y366219D01*
X253091Y366382D01*
X253241Y366463D01*
X253392Y366521D01*
X253381Y366532D01*
X253346Y366556D01*
X253276Y366602D01*
X253207Y366660D01*
X253114Y366741D01*
X253009Y366834D01*
X252905Y366950D01*
X252789Y367090D01*
X252684Y367241D01*
X252580Y367403D01*
X252475Y367589D01*
X252382Y367798D01*
X252301Y368019D01*
X252243Y368262D01*
X252208Y368529D01*
X252197Y368808D01*
Y368831D01*
Y368901D01*
X252208Y369005D01*
X252231Y369145D01*
X252255Y369307D01*
X252301Y369481D01*
X252371Y369679D01*
X252452Y369876D01*
X252464Y369899D01*
X252498Y369969D01*
X252556Y370062D01*
X252638Y370201D01*
X252731Y370340D01*
X252847Y370503D01*
X252986Y370677D01*
X253137Y370840D01*
X253160Y370863D01*
X253218Y370909D01*
X253299Y370991D01*
X253427Y371084D01*
X253567Y371200D01*
X253741Y371327D01*
X253938Y371455D01*
X254147Y371583D01*
X254159D01*
X254170Y371594D01*
X254205Y371618D01*
X254252Y371641D01*
X254368Y371699D01*
X254519Y371769D01*
X254704Y371862D01*
X254913Y371954D01*
X255134Y372036D01*
X255378Y372129D01*
X255389D01*
X255436Y372152D01*
X255505Y372163D01*
X255598Y372198D01*
X255714Y372233D01*
X255842Y372268D01*
X256005Y372303D01*
X256179Y372338D01*
X256364Y372384D01*
X256562Y372419D01*
X256783Y372454D01*
X257003Y372488D01*
X257479Y372535D01*
X257967Y372558D01*
X258164D01*
X258303Y372546D01*
D02*
G37*
G36*
X244987Y372488D02*
X244964Y372430D01*
X244952Y372326D01*
X244917Y372186D01*
X244882Y372012D01*
X244847Y371815D01*
X244801Y371571D01*
X244743Y371304D01*
X244685Y371014D01*
X244627Y370701D01*
X244557Y370364D01*
X244488Y370016D01*
X244418Y369632D01*
X244337Y369249D01*
X244267Y368843D01*
X244186Y368437D01*
X244023Y367577D01*
X243861Y366707D01*
X243710Y365836D01*
X243559Y364977D01*
X243489Y364559D01*
X243431Y364141D01*
X243361Y363746D01*
X243303Y363363D01*
X243257Y363003D01*
X243210Y362655D01*
X243164Y362330D01*
X243129Y362028D01*
X243106Y362016D01*
X243048Y362005D01*
X242955Y361981D01*
X242827Y361947D01*
X242665Y361912D01*
X242479Y361865D01*
X242258Y361819D01*
X242015Y361761D01*
X241736Y361714D01*
X241446Y361668D01*
X241132Y361621D01*
X240795Y361587D01*
X240447Y361552D01*
X240076Y361528D01*
X239704Y361505D01*
X239240D01*
X239159Y361517D01*
X239054D01*
X238926Y361540D01*
X238787Y361563D01*
X238636Y361598D01*
X238474Y361645D01*
X238311Y361703D01*
X238148Y361772D01*
X237998Y361865D01*
X237847Y361970D01*
X237707Y362086D01*
X237591Y362237D01*
X237498Y362399D01*
X237429Y362597D01*
Y362608D01*
X237417Y362655D01*
X237394Y362736D01*
X237382Y362829D01*
X237359Y362957D01*
X237347Y363096D01*
X237336Y363258D01*
Y363444D01*
Y363467D01*
Y363526D01*
X237347Y363630D01*
X237359Y363769D01*
X237382Y363932D01*
X237429Y364106D01*
X237475Y364315D01*
X237545Y364524D01*
Y364535D01*
X237556Y364547D01*
X237568Y364582D01*
X237580Y364617D01*
X237626Y364733D01*
X237684Y364884D01*
X237765Y365046D01*
X237858Y365232D01*
X237974Y365429D01*
X238102Y365627D01*
X238114Y365638D01*
X238137Y365673D01*
X238172Y365731D01*
X238230Y365801D01*
X238299Y365894D01*
X238392Y365998D01*
X238485Y366114D01*
X238601Y366242D01*
X238729Y366370D01*
X238868Y366509D01*
X239170Y366776D01*
X239530Y367043D01*
X239716Y367159D01*
X239913Y367276D01*
X239901Y367287D01*
X239890Y367334D01*
X239855Y367392D01*
X239820Y367484D01*
X239762Y367589D01*
X239704Y367728D01*
X239634Y367868D01*
X239565Y368030D01*
X239495Y368204D01*
X239414Y368390D01*
X239240Y368773D01*
X239066Y369191D01*
X238892Y369609D01*
Y369621D01*
X238868Y369655D01*
X238845Y369714D01*
X238810Y369795D01*
X238775Y369888D01*
X238729Y369992D01*
X238683Y370120D01*
X238624Y370248D01*
X238508Y370538D01*
X238381Y370840D01*
X238253Y371153D01*
X238125Y371444D01*
X240470Y372268D01*
Y372256D01*
X240482Y372221D01*
X240494Y372163D01*
X240517Y372094D01*
X240540Y372001D01*
X240575Y371896D01*
X240610Y371769D01*
X240645Y371629D01*
X240691Y371490D01*
X240738Y371327D01*
X240830Y370979D01*
X240935Y370596D01*
X241039Y370201D01*
X241144Y369807D01*
X241248Y369400D01*
X241353Y369017D01*
X241434Y368669D01*
X241480Y368506D01*
X241515Y368355D01*
X241550Y368204D01*
X241573Y368077D01*
X241608Y367961D01*
X241620Y367868D01*
X241631Y367786D01*
X241643Y367728D01*
X241829Y367786D01*
Y367798D01*
Y367821D01*
X241840Y367856D01*
X241852Y367902D01*
X241864Y367972D01*
X241875Y368042D01*
X241910Y368228D01*
X241945Y368460D01*
X241991Y368715D01*
X242049Y369005D01*
X242096Y369307D01*
X242154Y369644D01*
X242224Y369981D01*
X242340Y370654D01*
X242398Y370991D01*
X242456Y371304D01*
X242502Y371606D01*
X242549Y371885D01*
X244987Y372512D01*
Y372488D01*
D02*
G37*
G36*
X309699Y370305D02*
X309687Y370282D01*
X309676Y370247D01*
X309664Y370200D01*
X309652Y370131D01*
X309629Y370050D01*
X309606Y369957D01*
X309583Y369841D01*
X309560Y369724D01*
X309525Y369585D01*
X309490Y369434D01*
X309455Y369272D01*
X309420Y369086D01*
X309385Y368900D01*
X309339Y368703D01*
X309304Y368482D01*
X310512D01*
Y368471D01*
Y368424D01*
X310500Y368343D01*
X310488Y368250D01*
X310477Y368134D01*
X310465Y367994D01*
X310454Y367844D01*
X310442Y367681D01*
X310407Y367333D01*
X310361Y366950D01*
X310314Y366590D01*
X310279Y366404D01*
X310256Y366241D01*
X309861D01*
X309699Y366230D01*
X309502D01*
X309293Y366207D01*
X309084Y366195D01*
X308875Y366172D01*
Y366160D01*
X308863Y366114D01*
Y366056D01*
X308851Y365986D01*
X308840Y365893D01*
X308828Y365789D01*
X308793Y365591D01*
Y365580D01*
X308782Y365545D01*
X308770Y365487D01*
X308758Y365417D01*
X308747Y365336D01*
X308724Y365243D01*
X308689Y365022D01*
Y365011D01*
X308677Y364976D01*
X308666Y364906D01*
X308654Y364837D01*
X308631Y364744D01*
X308619Y364651D01*
X308573Y364442D01*
X308515D01*
X308445Y364430D01*
X308352D01*
X308248Y364419D01*
X308120Y364407D01*
X307992Y364395D01*
X307841Y364384D01*
X307539Y364361D01*
X307238Y364337D01*
X307098Y364314D01*
X306971Y364303D01*
X306855Y364291D01*
X306750Y364279D01*
Y364291D01*
X306762Y364326D01*
X306773Y364384D01*
X306796Y364465D01*
X306820Y364558D01*
X306843Y364663D01*
X306901Y364906D01*
Y364918D01*
X306912Y364964D01*
X306924Y365022D01*
X306947Y365104D01*
X306971Y365208D01*
X306994Y365313D01*
X307052Y365545D01*
Y365556D01*
X307063Y365591D01*
X307075Y365661D01*
X307098Y365731D01*
X307121Y365824D01*
X307145Y365928D01*
X307191Y366160D01*
X307156D01*
X307110Y366149D01*
X307052D01*
X306912Y366137D01*
X306762Y366114D01*
X306750D01*
X306727Y366102D01*
X306680D01*
X306634Y366090D01*
X306506Y366079D01*
X306355Y366067D01*
X306320D01*
X306286Y366056D01*
X306239D01*
X306123Y366044D01*
X305995Y366021D01*
Y366033D01*
X306007Y366079D01*
X306018Y366149D01*
X306042Y366241D01*
X306065Y366357D01*
X306100Y366485D01*
X306123Y366636D01*
X306158Y366810D01*
X306193Y366996D01*
X306239Y367182D01*
X306320Y367600D01*
X306402Y368041D01*
X306483Y368494D01*
X307238Y368482D01*
X307377D01*
X307516Y368471D01*
X307679Y368459D01*
Y368471D01*
Y368494D01*
Y368540D01*
X307690Y368598D01*
Y368679D01*
X307702Y368772D01*
X307714Y368877D01*
X307725Y368981D01*
X307748Y369248D01*
X307795Y369550D01*
X307841Y369875D01*
X307911Y370212D01*
X309699Y370317D01*
Y370305D01*
D02*
G37*
G36*
X365464Y361213D02*
X365516Y361205D01*
X365569Y361178D01*
X365630Y361144D01*
X365647Y361118D01*
X365664Y361091D01*
Y361057D01*
Y361022D01*
X365638Y360987D01*
X365612Y360944D01*
X365560Y360900D01*
X365490Y360848D01*
Y358925D01*
Y358916D01*
X365499Y358873D01*
Y358812D01*
X365516Y358725D01*
X365525Y358621D01*
X365551Y358499D01*
X365577Y358351D01*
X365612Y358194D01*
X365656Y358012D01*
X365699Y357820D01*
X365760Y357620D01*
X365830Y357403D01*
X365908Y357176D01*
X365995Y356933D01*
X366099Y356689D01*
X366212Y356437D01*
X366334Y356176D01*
X366482Y355915D01*
X366630Y355654D01*
X366804Y355384D01*
X366987Y355115D01*
X367187Y354845D01*
X367404Y354584D01*
X367648Y354323D01*
X367900Y354071D01*
X368179Y353818D01*
X368466Y353575D01*
X368788Y353340D01*
X369118Y353114D01*
X369484Y352905D01*
X369858Y352705D01*
X370267Y352513D01*
X369701Y351347D01*
X369692Y351356D01*
X369666Y351365D01*
X369623Y351382D01*
X369562Y351417D01*
X369484Y351452D01*
X369397Y351504D01*
X369292Y351556D01*
X369179Y351626D01*
X369049Y351704D01*
X368909Y351782D01*
X368761Y351878D01*
X368605Y351983D01*
X368448Y352104D01*
X368274Y352226D01*
X368100Y352365D01*
X367918Y352513D01*
X367735Y352670D01*
X367544Y352835D01*
X367352Y353018D01*
X367161Y353209D01*
X366969Y353409D01*
X366778Y353627D01*
X366595Y353853D01*
X366404Y354088D01*
X366221Y354340D01*
X366047Y354601D01*
X365873Y354880D01*
X365699Y355167D01*
X365543Y355463D01*
X365395Y355776D01*
X365247Y356106D01*
X365116Y356446D01*
Y356437D01*
X365107Y356402D01*
X365090Y356359D01*
X365064Y356289D01*
X365038Y356211D01*
X365003Y356115D01*
X364960Y356002D01*
X364907Y355872D01*
X364846Y355732D01*
X364786Y355584D01*
X364707Y355419D01*
X364620Y355254D01*
X364533Y355071D01*
X364429Y354880D01*
X364316Y354688D01*
X364194Y354488D01*
X364064Y354288D01*
X363916Y354079D01*
X363768Y353871D01*
X363602Y353653D01*
X363420Y353444D01*
X363237Y353235D01*
X363037Y353018D01*
X362828Y352809D01*
X362602Y352609D01*
X362367Y352409D01*
X362115Y352209D01*
X361854Y352017D01*
X361584Y351843D01*
X361288Y351669D01*
X360992Y351504D01*
X360670Y351347D01*
X359966Y352374D01*
X359975Y352383D01*
X360018Y352392D01*
X360079Y352418D01*
X360157Y352461D01*
X360262Y352505D01*
X360375Y352566D01*
X360514Y352635D01*
X360662Y352722D01*
X360827Y352809D01*
X361001Y352922D01*
X361184Y353035D01*
X361375Y353166D01*
X361575Y353314D01*
X361775Y353470D01*
X361984Y353644D01*
X362193Y353827D01*
X362393Y354027D01*
X362602Y354236D01*
X362811Y354462D01*
X363002Y354697D01*
X363193Y354958D01*
X363385Y355228D01*
X363559Y355506D01*
X363716Y355811D01*
X363863Y356124D01*
X364003Y356454D01*
X364124Y356802D01*
X364220Y357168D01*
X364298Y357551D01*
X364359Y357942D01*
X364403Y358360D01*
X364411Y358786D01*
Y361222D01*
X365456D01*
X365464Y361213D01*
D02*
G37*
G36*
X329498D02*
X329551Y361205D01*
X329603Y361178D01*
X329664Y361144D01*
X329681Y361118D01*
X329698Y361091D01*
Y361057D01*
Y361022D01*
X329672Y360987D01*
X329646Y360944D01*
X329594Y360900D01*
X329524Y360848D01*
Y358925D01*
Y358916D01*
X329533Y358873D01*
Y358812D01*
X329551Y358725D01*
X329559Y358621D01*
X329585Y358499D01*
X329611Y358351D01*
X329646Y358194D01*
X329690Y358012D01*
X329733Y357820D01*
X329794Y357620D01*
X329864Y357403D01*
X329942Y357176D01*
X330029Y356933D01*
X330134Y356689D01*
X330247Y356437D01*
X330368Y356176D01*
X330516Y355915D01*
X330664Y355654D01*
X330838Y355384D01*
X331021Y355115D01*
X331221Y354845D01*
X331438Y354584D01*
X331682Y354323D01*
X331934Y354071D01*
X332213Y353818D01*
X332500Y353575D01*
X332822Y353340D01*
X333152Y353114D01*
X333518Y352905D01*
X333892Y352705D01*
X334301Y352513D01*
X333735Y351347D01*
X333727Y351356D01*
X333700Y351365D01*
X333657Y351382D01*
X333596Y351417D01*
X333518Y351452D01*
X333431Y351504D01*
X333326Y351556D01*
X333213Y351626D01*
X333083Y351704D01*
X332944Y351782D01*
X332796Y351878D01*
X332639Y351983D01*
X332483Y352104D01*
X332309Y352226D01*
X332135Y352365D01*
X331952Y352513D01*
X331769Y352670D01*
X331578Y352835D01*
X331386Y353018D01*
X331195Y353209D01*
X331003Y353409D01*
X330812Y353627D01*
X330629Y353853D01*
X330438Y354088D01*
X330255Y354340D01*
X330081Y354601D01*
X329907Y354880D01*
X329733Y355167D01*
X329577Y355463D01*
X329429Y355776D01*
X329281Y356106D01*
X329150Y356446D01*
Y356437D01*
X329142Y356402D01*
X329124Y356359D01*
X329098Y356289D01*
X329072Y356211D01*
X329037Y356115D01*
X328994Y356002D01*
X328942Y355872D01*
X328881Y355732D01*
X328820Y355584D01*
X328742Y355419D01*
X328655Y355254D01*
X328568Y355071D01*
X328463Y354880D01*
X328350Y354688D01*
X328228Y354488D01*
X328098Y354288D01*
X327950Y354079D01*
X327802Y353871D01*
X327637Y353653D01*
X327454Y353444D01*
X327271Y353235D01*
X327071Y353018D01*
X326862Y352809D01*
X326636Y352609D01*
X326401Y352409D01*
X326149Y352209D01*
X325888Y352017D01*
X325618Y351843D01*
X325322Y351669D01*
X325027Y351504D01*
X324705Y351347D01*
X324000Y352374D01*
X324009Y352383D01*
X324052Y352392D01*
X324113Y352418D01*
X324191Y352461D01*
X324296Y352505D01*
X324409Y352566D01*
X324548Y352635D01*
X324696Y352722D01*
X324861Y352809D01*
X325035Y352922D01*
X325218Y353035D01*
X325409Y353166D01*
X325609Y353314D01*
X325810Y353470D01*
X326018Y353644D01*
X326227Y353827D01*
X326427Y354027D01*
X326636Y354236D01*
X326845Y354462D01*
X327036Y354697D01*
X327228Y354958D01*
X327419Y355228D01*
X327593Y355506D01*
X327750Y355811D01*
X327898Y356124D01*
X328037Y356454D01*
X328159Y356802D01*
X328254Y357168D01*
X328333Y357551D01*
X328394Y357942D01*
X328437Y358360D01*
X328446Y358786D01*
Y361222D01*
X329490D01*
X329498Y361213D01*
D02*
G37*
G36*
X352893Y352087D02*
X352884Y352070D01*
X352840Y352026D01*
X352780Y351965D01*
X352693Y351878D01*
X352579Y351774D01*
X352449Y351661D01*
X352292Y351539D01*
X352118Y351417D01*
X351927Y351287D01*
X351710Y351165D01*
X351483Y351052D01*
X351231Y350947D01*
X350970Y350860D01*
X350692Y350799D01*
X350396Y350756D01*
X350083Y350739D01*
X350013D01*
X349926Y350747D01*
X349813Y350756D01*
X349665Y350782D01*
X349500Y350808D01*
X349317Y350852D01*
X349117Y350904D01*
X348899Y350982D01*
X348682Y351069D01*
X348447Y351173D01*
X348203Y351304D01*
X347969Y351461D01*
X347734Y351643D01*
X347499Y351852D01*
X347272Y352087D01*
X347786Y352600D01*
X347795Y352592D01*
X347829Y352548D01*
X347882Y352496D01*
X347960Y352418D01*
X348056Y352331D01*
X348169Y352235D01*
X348299Y352131D01*
X348438Y352026D01*
X348604Y351913D01*
X348778Y351809D01*
X348969Y351713D01*
X349169Y351626D01*
X349387Y351548D01*
X349604Y351495D01*
X349839Y351461D01*
X350083Y351443D01*
X350144D01*
X350213Y351452D01*
X350309Y351461D01*
X350431Y351478D01*
X350561Y351504D01*
X350718Y351539D01*
X350883Y351591D01*
X351057Y351652D01*
X351240Y351730D01*
X351431Y351817D01*
X351623Y351930D01*
X351823Y352061D01*
X352014Y352218D01*
X352197Y352400D01*
X352379Y352600D01*
X352893Y352087D01*
D02*
G37*
G36*
X366600Y327115D02*
X366687Y327101D01*
X366803Y327072D01*
X366948Y327043D01*
X367108Y326999D01*
X367296Y326970D01*
X367514Y326927D01*
X367746Y326883D01*
X367978Y326825D01*
X368501Y326724D01*
X369052Y326622D01*
X369618Y326520D01*
X369603Y325577D01*
Y325563D01*
Y325534D01*
Y325476D01*
Y325403D01*
X369589Y325229D01*
X369574Y325026D01*
X369676D01*
X369749Y325011D01*
X369850D01*
X369966Y324997D01*
X370097Y324982D01*
X370227Y324968D01*
X370561Y324939D01*
X370938Y324881D01*
X371345Y324823D01*
X371765Y324736D01*
X371896Y322501D01*
X371882D01*
X371852Y322516D01*
X371809Y322530D01*
X371751Y322545D01*
X371664Y322559D01*
X371562Y322588D01*
X371446Y322617D01*
X371301Y322646D01*
X371156Y322675D01*
X370982Y322719D01*
X370793Y322762D01*
X370590Y322806D01*
X370358Y322849D01*
X370126Y322893D01*
X369879Y322951D01*
X369603Y322994D01*
Y321485D01*
X369531D01*
X369429Y321500D01*
X369313Y321515D01*
X369168Y321529D01*
X368994Y321544D01*
X368805Y321558D01*
X368602Y321573D01*
X368167Y321616D01*
X367688Y321674D01*
X367238Y321732D01*
X367006Y321776D01*
X366803Y321805D01*
Y321993D01*
Y322008D01*
Y322037D01*
Y322080D01*
Y322138D01*
Y322298D01*
X366789Y322501D01*
Y322748D01*
X366759Y323009D01*
X366745Y323270D01*
X366716Y323531D01*
X366702D01*
X366643Y323546D01*
X366571D01*
X366484Y323560D01*
X366368Y323575D01*
X366237Y323589D01*
X365990Y323633D01*
X365976D01*
X365932Y323647D01*
X365860Y323662D01*
X365773Y323676D01*
X365671Y323691D01*
X365555Y323720D01*
X365280Y323764D01*
X365265D01*
X365222Y323778D01*
X365134Y323793D01*
X365047Y323807D01*
X364931Y323836D01*
X364815Y323851D01*
X364554Y323909D01*
Y323923D01*
Y323981D01*
X364540Y324068D01*
Y324184D01*
X364525Y324315D01*
X364510Y324475D01*
X364496Y324634D01*
X364481Y324823D01*
X364452Y325200D01*
X364423Y325577D01*
X364394Y325751D01*
X364380Y325911D01*
X364365Y326056D01*
X364351Y326187D01*
X364365D01*
X364409Y326172D01*
X364481Y326158D01*
X364583Y326129D01*
X364699Y326100D01*
X364830Y326071D01*
X365134Y325998D01*
X365149D01*
X365207Y325984D01*
X365280Y325969D01*
X365381Y325940D01*
X365512Y325911D01*
X365642Y325882D01*
X365932Y325810D01*
X365947D01*
X365990Y325795D01*
X366077Y325781D01*
X366165Y325751D01*
X366281Y325722D01*
X366411Y325693D01*
X366702Y325635D01*
Y325650D01*
Y325679D01*
X366687Y325737D01*
Y325810D01*
X366672Y325984D01*
X366643Y326172D01*
Y326187D01*
X366629Y326216D01*
Y326274D01*
X366614Y326332D01*
X366600Y326491D01*
X366585Y326680D01*
Y326695D01*
Y326724D01*
X366571Y326767D01*
Y326825D01*
X366556Y326970D01*
X366527Y327130D01*
X366542D01*
X366600Y327115D01*
D02*
G37*
G36*
X338198Y358969D02*
X338277D01*
X338372Y358951D01*
X338477Y358934D01*
X338599Y358908D01*
X338729Y358882D01*
X338877Y358838D01*
X339025Y358786D01*
X339181Y358716D01*
X339338Y358638D01*
X339495Y358551D01*
X339660Y358438D01*
X339817Y358316D01*
X339965Y358177D01*
X339973Y358168D01*
X339999Y358142D01*
X340043Y358099D01*
X340086Y358038D01*
X340147Y357960D01*
X340217Y357873D01*
X340286Y357768D01*
X340365Y357646D01*
X340443Y357516D01*
X340513Y357377D01*
X340582Y357220D01*
X340643Y357055D01*
X340695Y356881D01*
X340730Y356698D01*
X340756Y356507D01*
X340765Y356307D01*
Y356298D01*
Y356263D01*
X340756Y356202D01*
Y356124D01*
X340739Y356028D01*
X340721Y355924D01*
X340695Y355802D01*
X340669Y355671D01*
X340626Y355523D01*
X340574Y355376D01*
X340504Y355219D01*
X340426Y355062D01*
X340339Y354897D01*
X340226Y354741D01*
X340104Y354584D01*
X339965Y354427D01*
X339956Y354419D01*
X339930Y354393D01*
X339886Y354358D01*
X339825Y354306D01*
X339747Y354245D01*
X339660Y354175D01*
X339556Y354105D01*
X339434Y354036D01*
X339303Y353958D01*
X339164Y353888D01*
X339007Y353818D01*
X338842Y353757D01*
X338668Y353705D01*
X338486Y353670D01*
X338294Y353644D01*
X338094Y353636D01*
X338051D01*
X337990Y353644D01*
X337911D01*
X337816Y353662D01*
X337711Y353679D01*
X337589Y353705D01*
X337459Y353731D01*
X337311Y353775D01*
X337163Y353827D01*
X337006Y353897D01*
X336850Y353966D01*
X336693Y354062D01*
X336528Y354166D01*
X336371Y354288D01*
X336224Y354427D01*
X336215Y354436D01*
X336189Y354462D01*
X336154Y354506D01*
X336102Y354567D01*
X336041Y354645D01*
X335971Y354741D01*
X335902Y354845D01*
X335823Y354967D01*
X335745Y355097D01*
X335675Y355236D01*
X335606Y355393D01*
X335545Y355558D01*
X335501Y355732D01*
X335458Y355915D01*
X335432Y356106D01*
X335423Y356307D01*
Y356315D01*
Y356359D01*
X335432Y356411D01*
Y356489D01*
X335449Y356585D01*
X335467Y356689D01*
X335493Y356811D01*
X335527Y356942D01*
X335562Y357089D01*
X335614Y357237D01*
X335684Y357394D01*
X335762Y357551D01*
X335849Y357707D01*
X335963Y357873D01*
X336084Y358029D01*
X336224Y358177D01*
X336232Y358186D01*
X336258Y358212D01*
X336302Y358255D01*
X336363Y358299D01*
X336441Y358360D01*
X336528Y358429D01*
X336632Y358499D01*
X336754Y358577D01*
X336885Y358656D01*
X337033Y358725D01*
X337180Y358795D01*
X337346Y358856D01*
X337520Y358908D01*
X337702Y358943D01*
X337894Y358969D01*
X338094Y358977D01*
X338146D01*
X338198Y358969D01*
D02*
G37*
G36*
X343104Y271581D02*
X343255Y271570D01*
X343429Y271547D01*
X343627Y271523D01*
X343859Y271488D01*
X344103Y271442D01*
X344370Y271384D01*
X344649Y271314D01*
X344939Y271233D01*
X345252Y271129D01*
X345566Y271012D01*
X345891Y270885D01*
X346228Y270734D01*
X346251Y270722D01*
X346309Y270687D01*
X346402Y270641D01*
X346541Y270571D01*
X346692Y270478D01*
X346878Y270374D01*
X347087Y270246D01*
X347307Y270107D01*
X347539Y269944D01*
X347795Y269770D01*
X348039Y269573D01*
X348294Y269364D01*
X348550Y269143D01*
X348805Y268911D01*
X349037Y268656D01*
X349269Y268389D01*
X349281Y268365D01*
X349327Y268319D01*
X349385Y268226D01*
X349467Y268098D01*
X349571Y267947D01*
X349676Y267762D01*
X349803Y267553D01*
X349920Y267320D01*
X350036Y267065D01*
X350163Y266786D01*
X350268Y266496D01*
X350361Y266194D01*
X350454Y265869D01*
X350512Y265532D01*
X350558Y265184D01*
X350570Y264836D01*
Y264824D01*
Y264778D01*
Y264708D01*
X350558Y264615D01*
Y264488D01*
X350535Y264348D01*
X350523Y264186D01*
X350500Y264000D01*
X350477D01*
X350407Y264023D01*
X350303Y264035D01*
X350152Y264070D01*
X349966Y264105D01*
X349734Y264151D01*
X349490Y264197D01*
X349200Y264255D01*
X348886Y264314D01*
X348550Y264383D01*
X348190Y264453D01*
X347818Y264522D01*
X347412Y264604D01*
X347005Y264685D01*
X346576Y264766D01*
X346146Y264847D01*
X345264Y265010D01*
X344358Y265184D01*
X343464Y265347D01*
X343035Y265428D01*
X342605Y265498D01*
X342199Y265567D01*
X341792Y265637D01*
X341421Y265707D01*
X341050Y265765D01*
X340713Y265823D01*
X340399Y265869D01*
X340109Y265916D01*
X339854Y265950D01*
Y265962D01*
Y265985D01*
X339842Y266020D01*
X339830Y266067D01*
X339807Y266194D01*
X339784Y266357D01*
X339749Y266554D01*
X339714Y266775D01*
X339668Y267007D01*
X339633Y267251D01*
Y267262D01*
Y267286D01*
X339621Y267320D01*
X339610Y267367D01*
Y267425D01*
X339598Y267495D01*
X339575Y267680D01*
X339552Y267889D01*
X339540Y268133D01*
X339517Y268389D01*
Y268667D01*
Y268679D01*
Y268702D01*
Y268737D01*
Y268795D01*
X339528Y268865D01*
Y268934D01*
X339552Y269120D01*
X339575Y269329D01*
X339621Y269550D01*
X339691Y269770D01*
X339772Y269991D01*
Y270002D01*
X339784Y270014D01*
X339819Y270084D01*
X339877Y270188D01*
X339958Y270316D01*
X340063Y270467D01*
X340179Y270618D01*
X340318Y270780D01*
X340481Y270920D01*
X340492Y270931D01*
X340515Y270954D01*
X340574Y270978D01*
X340643Y271024D01*
X340724Y271071D01*
X340829Y271129D01*
X340957Y271198D01*
X341096Y271256D01*
X341258Y271314D01*
X341433Y271384D01*
X341630Y271442D01*
X341839Y271488D01*
X342059Y271535D01*
X342303Y271570D01*
X342559Y271581D01*
X342826Y271593D01*
X342988D01*
X343104Y271581D01*
D02*
G37*
G36*
Y250081D02*
X343255Y250070D01*
X343429Y250046D01*
X343627Y250023D01*
X343859Y249989D01*
X344103Y249942D01*
X344370Y249884D01*
X344649Y249814D01*
X344939Y249733D01*
X345252Y249628D01*
X345566Y249512D01*
X345891Y249385D01*
X346228Y249234D01*
X346251Y249222D01*
X346309Y249187D01*
X346402Y249141D01*
X346541Y249071D01*
X346692Y248978D01*
X346878Y248874D01*
X347087Y248746D01*
X347307Y248607D01*
X347539Y248444D01*
X347795Y248270D01*
X348039Y248073D01*
X348294Y247864D01*
X348550Y247643D01*
X348805Y247411D01*
X349037Y247156D01*
X349269Y246889D01*
X349281Y246865D01*
X349327Y246819D01*
X349385Y246726D01*
X349467Y246598D01*
X349571Y246447D01*
X349676Y246262D01*
X349803Y246053D01*
X349920Y245820D01*
X350036Y245565D01*
X350163Y245286D01*
X350268Y244996D01*
X350361Y244694D01*
X350454Y244369D01*
X350512Y244033D01*
X350558Y243684D01*
X350570Y243336D01*
Y243324D01*
Y243278D01*
Y243208D01*
X350558Y243115D01*
Y242988D01*
X350535Y242848D01*
X350523Y242686D01*
X350500Y242500D01*
X350477D01*
X350407Y242523D01*
X350303Y242535D01*
X350152Y242570D01*
X349966Y242604D01*
X349734Y242651D01*
X349490Y242697D01*
X349200Y242755D01*
X348886Y242813D01*
X348550Y242883D01*
X348190Y242953D01*
X347818Y243022D01*
X347412Y243104D01*
X347005Y243185D01*
X346576Y243266D01*
X346146Y243348D01*
X345264Y243510D01*
X344358Y243684D01*
X343464Y243847D01*
X343035Y243928D01*
X342605Y243998D01*
X342199Y244067D01*
X341792Y244137D01*
X341421Y244207D01*
X341050Y244265D01*
X340713Y244323D01*
X340399Y244369D01*
X340109Y244416D01*
X339854Y244450D01*
Y244462D01*
Y244485D01*
X339842Y244520D01*
X339830Y244567D01*
X339807Y244694D01*
X339784Y244857D01*
X339749Y245054D01*
X339714Y245275D01*
X339668Y245507D01*
X339633Y245751D01*
Y245762D01*
Y245786D01*
X339621Y245820D01*
X339610Y245867D01*
Y245925D01*
X339598Y245995D01*
X339575Y246180D01*
X339552Y246389D01*
X339540Y246633D01*
X339517Y246889D01*
Y247167D01*
Y247179D01*
Y247202D01*
Y247237D01*
Y247295D01*
X339528Y247365D01*
Y247434D01*
X339552Y247620D01*
X339575Y247829D01*
X339621Y248050D01*
X339691Y248270D01*
X339772Y248491D01*
Y248502D01*
X339784Y248514D01*
X339819Y248584D01*
X339877Y248688D01*
X339958Y248816D01*
X340063Y248967D01*
X340179Y249118D01*
X340318Y249280D01*
X340481Y249420D01*
X340492Y249431D01*
X340515Y249454D01*
X340574Y249478D01*
X340643Y249524D01*
X340724Y249570D01*
X340829Y249628D01*
X340957Y249698D01*
X341096Y249756D01*
X341258Y249814D01*
X341433Y249884D01*
X341630Y249942D01*
X341839Y249989D01*
X342059Y250035D01*
X342303Y250070D01*
X342559Y250081D01*
X342826Y250093D01*
X342988D01*
X343104Y250081D01*
D02*
G37*
G36*
X346924Y276074D02*
Y276051D01*
Y275981D01*
Y275877D01*
X346913Y275738D01*
Y275575D01*
X346901Y275378D01*
Y275180D01*
X346889Y274960D01*
Y274519D01*
X346878Y274298D01*
Y274089D01*
X346866Y273903D01*
Y273729D01*
Y273590D01*
Y273485D01*
Y273474D01*
Y273450D01*
Y273404D01*
Y273346D01*
Y273276D01*
Y273195D01*
Y272998D01*
Y272789D01*
X346878Y272557D01*
Y272324D01*
X346889Y272115D01*
Y272092D01*
Y272023D01*
Y271930D01*
Y271802D01*
X346901Y271663D01*
Y271512D01*
Y271349D01*
Y271198D01*
X344242Y271918D01*
Y271941D01*
Y271988D01*
Y272069D01*
X344254Y272185D01*
Y272313D01*
X344265Y272464D01*
Y272615D01*
Y272789D01*
X344277Y273137D01*
X344289Y273311D01*
Y273474D01*
X344300Y273625D01*
Y273764D01*
Y273880D01*
Y273973D01*
Y273985D01*
Y274043D01*
Y274112D01*
Y274217D01*
Y274344D01*
Y274495D01*
X344289Y274658D01*
Y274844D01*
Y275041D01*
Y275238D01*
X344265Y275680D01*
X344254Y276132D01*
X344231Y276585D01*
X346924Y276074D01*
D02*
G37*
G36*
X356181Y358969D02*
X356260D01*
X356355Y358951D01*
X356460Y358934D01*
X356581Y358908D01*
X356712Y358882D01*
X356860Y358838D01*
X357008Y358786D01*
X357164Y358716D01*
X357321Y358638D01*
X357478Y358551D01*
X357643Y358438D01*
X357800Y358316D01*
X357947Y358177D01*
X357956Y358168D01*
X357982Y358142D01*
X358026Y358099D01*
X358069Y358038D01*
X358130Y357960D01*
X358200Y357873D01*
X358269Y357768D01*
X358348Y357646D01*
X358426Y357516D01*
X358495Y357377D01*
X358565Y357220D01*
X358626Y357055D01*
X358678Y356881D01*
X358713Y356698D01*
X358739Y356507D01*
X358748Y356307D01*
Y356298D01*
Y356263D01*
X358739Y356202D01*
Y356124D01*
X358722Y356028D01*
X358704Y355924D01*
X358678Y355802D01*
X358652Y355671D01*
X358609Y355523D01*
X358556Y355376D01*
X358487Y355219D01*
X358408Y355062D01*
X358321Y354897D01*
X358208Y354741D01*
X358087Y354584D01*
X357947Y354427D01*
X357939Y354419D01*
X357913Y354393D01*
X357869Y354358D01*
X357808Y354306D01*
X357730Y354245D01*
X357643Y354175D01*
X357539Y354105D01*
X357417Y354036D01*
X357286Y353958D01*
X357147Y353888D01*
X356990Y353818D01*
X356825Y353757D01*
X356651Y353705D01*
X356468Y353670D01*
X356277Y353644D01*
X356077Y353636D01*
X356033D01*
X355973Y353644D01*
X355894D01*
X355799Y353662D01*
X355694Y353679D01*
X355572Y353705D01*
X355442Y353731D01*
X355294Y353775D01*
X355146Y353827D01*
X354989Y353897D01*
X354833Y353966D01*
X354676Y354062D01*
X354511Y354166D01*
X354354Y354288D01*
X354206Y354427D01*
X354198Y354436D01*
X354172Y354462D01*
X354137Y354506D01*
X354085Y354567D01*
X354024Y354645D01*
X353954Y354741D01*
X353885Y354845D01*
X353806Y354967D01*
X353728Y355097D01*
X353658Y355236D01*
X353589Y355393D01*
X353528Y355558D01*
X353484Y355732D01*
X353441Y355915D01*
X353415Y356106D01*
X353406Y356307D01*
Y356315D01*
Y356359D01*
X353415Y356411D01*
Y356489D01*
X353432Y356585D01*
X353450Y356689D01*
X353476Y356811D01*
X353510Y356942D01*
X353545Y357089D01*
X353597Y357237D01*
X353667Y357394D01*
X353745Y357551D01*
X353832Y357707D01*
X353945Y357873D01*
X354067Y358029D01*
X354206Y358177D01*
X354215Y358186D01*
X354241Y358212D01*
X354285Y358255D01*
X354346Y358299D01*
X354424Y358360D01*
X354511Y358429D01*
X354615Y358499D01*
X354737Y358577D01*
X354868Y358656D01*
X355015Y358725D01*
X355163Y358795D01*
X355329Y358856D01*
X355503Y358908D01*
X355685Y358943D01*
X355877Y358969D01*
X356077Y358977D01*
X356129D01*
X356181Y358969D01*
D02*
G37*
%LPC*%
G36*
X356077Y358647D02*
X356033D01*
X355990Y358638D01*
X355920D01*
X355842Y358629D01*
X355746Y358612D01*
X355633Y358586D01*
X355520Y358560D01*
X355398Y358525D01*
X355268Y358473D01*
X355129Y358421D01*
X354989Y358351D01*
X354850Y358273D01*
X354711Y358177D01*
X354572Y358064D01*
X354441Y357942D01*
X354433Y357933D01*
X354415Y357907D01*
X354380Y357873D01*
X354328Y357820D01*
X354276Y357751D01*
X354215Y357672D01*
X354154Y357577D01*
X354093Y357472D01*
X354024Y357359D01*
X353963Y357237D01*
X353902Y357098D01*
X353850Y356959D01*
X353806Y356802D01*
X353771Y356646D01*
X353745Y356481D01*
X353737Y356307D01*
X356077D01*
Y358647D01*
D02*
G37*
G36*
X338094D02*
X338051D01*
X338007Y358638D01*
X337937D01*
X337859Y358629D01*
X337763Y358612D01*
X337650Y358586D01*
X337537Y358560D01*
X337415Y358525D01*
X337285Y358473D01*
X337146Y358421D01*
X337006Y358351D01*
X336867Y358273D01*
X336728Y358177D01*
X336589Y358064D01*
X336458Y357942D01*
X336450Y357933D01*
X336432Y357907D01*
X336398Y357873D01*
X336345Y357820D01*
X336293Y357751D01*
X336232Y357672D01*
X336171Y357577D01*
X336110Y357472D01*
X336041Y357359D01*
X335980Y357237D01*
X335919Y357098D01*
X335867Y356959D01*
X335823Y356802D01*
X335788Y356646D01*
X335762Y356481D01*
X335754Y356307D01*
X338094D01*
Y358647D01*
D02*
G37*
G36*
X255296Y365302D02*
X255273D01*
X255215Y365279D01*
X255122Y365255D01*
X255006Y365232D01*
X254867Y365186D01*
X254716Y365139D01*
X254368Y365023D01*
X254031Y364872D01*
X253880Y364791D01*
X253741Y364698D01*
X253625Y364605D01*
X253532Y364512D01*
X253474Y364408D01*
X253450Y364292D01*
Y364280D01*
Y364268D01*
X253462Y364199D01*
X253497Y364106D01*
X253567Y363990D01*
X253613Y363932D01*
X253683Y363862D01*
X253752Y363804D01*
X253845Y363746D01*
X253950Y363700D01*
X254077Y363642D01*
X254228Y363607D01*
X254391Y363572D01*
X254402D01*
X254426Y363560D01*
X254472D01*
X254530Y363549D01*
X254669Y363537D01*
X254809Y363526D01*
X254971D01*
Y363537D01*
Y363549D01*
X254983Y363583D01*
Y363630D01*
X255006Y363758D01*
X255041Y363920D01*
Y363932D01*
Y363955D01*
X255053Y364001D01*
X255064Y364059D01*
X255087Y364211D01*
X255122Y364385D01*
Y364396D01*
X255134Y364431D01*
Y364477D01*
X255146Y364535D01*
X255180Y364698D01*
X255215Y364872D01*
Y364884D01*
X255227Y364907D01*
Y364953D01*
X255238Y365012D01*
X255273Y365151D01*
X255296Y365302D01*
D02*
G37*
G36*
X342733Y247829D02*
X342652D01*
X342570Y247817D01*
X342466Y247794D01*
X342350Y247748D01*
X342222Y247701D01*
X342094Y247620D01*
X341967Y247516D01*
X341955Y247504D01*
X341920Y247458D01*
X341862Y247388D01*
X341804Y247283D01*
X341746Y247144D01*
X341688Y246982D01*
X341653Y246784D01*
X341642Y246552D01*
X341653D01*
X341700Y246540D01*
X341769Y246529D01*
X341862Y246505D01*
X341978Y246482D01*
X342118Y246459D01*
X342280Y246424D01*
X342454Y246389D01*
X342652Y246343D01*
X342861Y246297D01*
X343081Y246250D01*
X343325Y246204D01*
X343824Y246099D01*
X344358Y245983D01*
X344370D01*
X344381Y245971D01*
X344416D01*
X344463Y245960D01*
X344532Y245948D01*
X344602Y245937D01*
X344776Y245890D01*
X344985Y245844D01*
X345241Y245797D01*
X345519Y245739D01*
X345821Y245670D01*
X346158Y245600D01*
X346506Y245530D01*
X346866Y245461D01*
X347226Y245391D01*
X347969Y245252D01*
X348329Y245182D01*
X348689Y245124D01*
X348677Y245135D01*
X348654Y245170D01*
X348619Y245228D01*
X348550Y245298D01*
X348468Y245391D01*
X348364Y245495D01*
X348248Y245612D01*
X348097Y245751D01*
X347923Y245890D01*
X347725Y246041D01*
X347505Y246192D01*
X347249Y246355D01*
X346971Y246529D01*
X346657Y246691D01*
X346309Y246854D01*
X345937Y247016D01*
X345926Y247028D01*
X345891Y247040D01*
X345821Y247063D01*
X345740Y247098D01*
X345647Y247132D01*
X345531Y247179D01*
X345403Y247225D01*
X345252Y247283D01*
X344950Y247388D01*
X344625Y247492D01*
X344300Y247597D01*
X343987Y247666D01*
X343975D01*
X343952Y247678D01*
X343905D01*
X343859Y247690D01*
X343789Y247701D01*
X343708Y247713D01*
X343534Y247748D01*
X343325Y247782D01*
X343116Y247806D01*
X342919Y247817D01*
X342733Y247829D01*
D02*
G37*
G36*
X256051Y369528D02*
X256039D01*
X255993Y369516D01*
X255923Y369505D01*
X255831Y369493D01*
X255726Y369470D01*
X255598Y369447D01*
X255459Y369412D01*
X255320Y369377D01*
X255006Y369272D01*
X254693Y369145D01*
X254542Y369063D01*
X254402Y368982D01*
X254286Y368878D01*
X254170Y368773D01*
X254159Y368762D01*
X254135Y368727D01*
X254101Y368669D01*
X254054Y368599D01*
X254008Y368518D01*
X253973Y368413D01*
X253950Y368309D01*
X253938Y368193D01*
Y368181D01*
Y368135D01*
X253950Y368077D01*
Y368007D01*
X253996Y367844D01*
X254031Y367752D01*
X254077Y367682D01*
X254089Y367670D01*
X254101Y367647D01*
X254135Y367612D01*
X254170Y367577D01*
X254286Y367473D01*
X254437Y367380D01*
X254461Y367368D01*
X254519Y367345D01*
X254600Y367310D01*
X254716Y367264D01*
X254867Y367217D01*
X255029Y367183D01*
X255204Y367159D01*
X255389Y367148D01*
X255563D01*
X255645Y367159D01*
Y367171D01*
X255656Y367217D01*
X255668Y367287D01*
X255679Y367380D01*
X255703Y367473D01*
X255714Y367589D01*
X255761Y367810D01*
Y367821D01*
X255772Y367856D01*
Y367914D01*
X255784Y367984D01*
X255807Y368065D01*
X255819Y368146D01*
X255854Y368344D01*
Y368355D01*
X255865Y368390D01*
Y368437D01*
X255877Y368506D01*
X255889Y368587D01*
X255912Y368680D01*
X255947Y368878D01*
Y368889D01*
X255958Y368924D01*
Y368982D01*
X255981Y369063D01*
X255993Y369156D01*
X256005Y369272D01*
X256028Y369389D01*
X256051Y369528D01*
D02*
G37*
G36*
X241446Y365998D02*
X241423D01*
X241388Y365987D01*
X241341Y365975D01*
X241283Y365964D01*
X241213Y365940D01*
X241039Y365882D01*
X240830Y365789D01*
X240575Y365650D01*
X240436Y365569D01*
X240296Y365476D01*
X240134Y365371D01*
X239971Y365244D01*
X239960Y365232D01*
X239936Y365209D01*
X239890Y365174D01*
X239820Y365128D01*
X239681Y365000D01*
X239507Y364837D01*
X239333Y364652D01*
X239182Y364454D01*
X239124Y364361D01*
X239077Y364268D01*
X239054Y364176D01*
X239042Y364083D01*
Y364059D01*
X239054Y364013D01*
X239089Y363943D01*
X239147Y363862D01*
X239182Y363827D01*
X239240Y363781D01*
X239298Y363746D01*
X239379Y363700D01*
X239472Y363676D01*
X239577Y363642D01*
X239704Y363618D01*
X239844Y363607D01*
X239890D01*
X239936Y363595D01*
X239994D01*
X240145Y363583D01*
X240319D01*
X240970Y363607D01*
X241446Y365998D01*
D02*
G37*
G36*
X235625Y237293D02*
Y237278D01*
X235617Y237235D01*
X235603Y237162D01*
X235581Y237068D01*
X235566Y236952D01*
X235538Y236822D01*
X235508Y236669D01*
X235479Y236503D01*
X235451Y236321D01*
X235414Y236133D01*
X235378Y235937D01*
X235342Y235741D01*
X235262Y235335D01*
X235190Y234936D01*
X235197D01*
X235204Y234944D01*
X235247Y234958D01*
X235313Y234987D01*
X235392Y235038D01*
X235487Y235103D01*
X235588Y235197D01*
X235646Y235256D01*
X235697Y235321D01*
X235755Y235393D01*
X235806Y235473D01*
X235813Y235480D01*
X235820Y235495D01*
X235835Y235524D01*
X235857Y235560D01*
X235878Y235603D01*
X235907Y235662D01*
X235936Y235727D01*
X235965Y235799D01*
X235994Y235879D01*
X236016Y235966D01*
X236067Y236155D01*
X236103Y236365D01*
X236118Y236473D01*
Y236590D01*
Y236597D01*
Y236604D01*
Y236648D01*
X236110Y236705D01*
X236096Y236785D01*
X236081Y236872D01*
X236052Y236959D01*
X236009Y237039D01*
X235958Y237111D01*
X235951Y237119D01*
X235929Y237140D01*
X235900Y237170D01*
X235857Y237206D01*
X235813Y237235D01*
X235755Y237264D01*
X235690Y237285D01*
X235625Y237293D01*
D02*
G37*
G36*
X249225Y236553D02*
X249175D01*
X249131Y236546D01*
X249080Y236539D01*
X249023Y236524D01*
X248892Y236488D01*
X248812Y236459D01*
X248732Y236416D01*
X248653Y236372D01*
X248566Y236321D01*
X248479Y236256D01*
X248392Y236184D01*
X248305Y236097D01*
X248218Y236002D01*
X248211Y235995D01*
X248203Y235981D01*
X248182Y235959D01*
X248160Y235923D01*
X248131Y235879D01*
X248095Y235821D01*
X248051Y235756D01*
X248007Y235683D01*
X247964Y235603D01*
X247913Y235517D01*
X247863Y235415D01*
X247812Y235306D01*
X247754Y235190D01*
X247703Y235067D01*
X247652Y234936D01*
X247602Y234799D01*
Y234791D01*
X247594Y234770D01*
X247580Y234741D01*
X247572Y234690D01*
X247558Y234639D01*
X247536Y234574D01*
X247522Y234502D01*
X247500Y234422D01*
X247464Y234241D01*
X247428Y234037D01*
X247406Y233835D01*
X247398Y233624D01*
Y233617D01*
Y233610D01*
X247406Y233566D01*
X247413Y233501D01*
X247435Y233421D01*
X247478Y233334D01*
X247529Y233240D01*
X247609Y233153D01*
X247652Y233109D01*
X247710Y233073D01*
X247717D01*
X247725Y233066D01*
X247746Y233051D01*
X247776Y233044D01*
X247841Y233015D01*
X247928Y233008D01*
X247971D01*
X248000Y233015D01*
X248080Y233022D01*
X248182Y233044D01*
X248298Y233081D01*
X248421Y233131D01*
X248551Y233204D01*
X248675Y233298D01*
X248682D01*
X248689Y233313D01*
X248732Y233349D01*
X248791Y233414D01*
X248863Y233494D01*
X248950Y233602D01*
X249044Y233718D01*
X249131Y233856D01*
X249218Y234009D01*
Y234016D01*
X249225Y234030D01*
X249240Y234052D01*
X249254Y234081D01*
X249269Y234124D01*
X249291Y234168D01*
X249342Y234284D01*
X249392Y234415D01*
X249450Y234574D01*
X249501Y234741D01*
X249552Y234915D01*
Y234922D01*
X249559Y234936D01*
X249566Y234958D01*
X249573Y234995D01*
X249581Y235038D01*
X249588Y235089D01*
X249610Y235205D01*
X249632Y235343D01*
X249653Y235488D01*
X249660Y235640D01*
X249668Y235792D01*
Y235799D01*
Y235828D01*
Y235864D01*
X249660Y235908D01*
X249653Y235966D01*
X249646Y236031D01*
X249610Y236176D01*
X249559Y236314D01*
X249523Y236379D01*
X249479Y236437D01*
X249429Y236481D01*
X249371Y236524D01*
X249305Y236546D01*
X249225Y236553D01*
D02*
G37*
G36*
X342733Y269329D02*
X342652D01*
X342570Y269317D01*
X342466Y269294D01*
X342350Y269248D01*
X342222Y269201D01*
X342094Y269120D01*
X341967Y269016D01*
X341955Y269004D01*
X341920Y268957D01*
X341862Y268888D01*
X341804Y268783D01*
X341746Y268644D01*
X341688Y268481D01*
X341653Y268284D01*
X341642Y268052D01*
X341653D01*
X341700Y268040D01*
X341769Y268029D01*
X341862Y268005D01*
X341978Y267982D01*
X342118Y267959D01*
X342280Y267924D01*
X342454Y267889D01*
X342652Y267843D01*
X342861Y267796D01*
X343081Y267750D01*
X343325Y267704D01*
X343824Y267599D01*
X344358Y267483D01*
X344370D01*
X344381Y267471D01*
X344416D01*
X344463Y267460D01*
X344532Y267448D01*
X344602Y267437D01*
X344776Y267390D01*
X344985Y267344D01*
X345241Y267297D01*
X345519Y267239D01*
X345821Y267169D01*
X346158Y267100D01*
X346506Y267030D01*
X346866Y266961D01*
X347226Y266891D01*
X347969Y266752D01*
X348329Y266682D01*
X348689Y266624D01*
X348677Y266635D01*
X348654Y266670D01*
X348619Y266728D01*
X348550Y266798D01*
X348468Y266891D01*
X348364Y266995D01*
X348248Y267111D01*
X348097Y267251D01*
X347923Y267390D01*
X347725Y267541D01*
X347505Y267692D01*
X347249Y267854D01*
X346971Y268029D01*
X346657Y268191D01*
X346309Y268354D01*
X345937Y268516D01*
X345926Y268528D01*
X345891Y268540D01*
X345821Y268563D01*
X345740Y268598D01*
X345647Y268632D01*
X345531Y268679D01*
X345403Y268725D01*
X345252Y268783D01*
X344950Y268888D01*
X344625Y268992D01*
X344300Y269097D01*
X343987Y269166D01*
X343975D01*
X343952Y269178D01*
X343905D01*
X343859Y269190D01*
X343789Y269201D01*
X343708Y269213D01*
X343534Y269248D01*
X343325Y269283D01*
X343116Y269306D01*
X342919Y269317D01*
X342733Y269329D01*
D02*
G37*
G36*
Y297587D02*
X342652D01*
X342570Y297575D01*
X342466Y297552D01*
X342350Y297506D01*
X342222Y297459D01*
X342094Y297378D01*
X341967Y297273D01*
X341955Y297262D01*
X341920Y297215D01*
X341862Y297146D01*
X341804Y297041D01*
X341746Y296902D01*
X341688Y296739D01*
X341653Y296542D01*
X341642Y296310D01*
X341653D01*
X341700Y296298D01*
X341769Y296287D01*
X341862Y296263D01*
X341978Y296240D01*
X342118Y296217D01*
X342280Y296182D01*
X342454Y296147D01*
X342652Y296101D01*
X342861Y296054D01*
X343081Y296008D01*
X343325Y295961D01*
X343824Y295857D01*
X344358Y295741D01*
X344370D01*
X344381Y295729D01*
X344416D01*
X344463Y295718D01*
X344532Y295706D01*
X344602Y295694D01*
X344776Y295648D01*
X344985Y295602D01*
X345241Y295555D01*
X345519Y295497D01*
X345821Y295427D01*
X346158Y295358D01*
X346506Y295288D01*
X346866Y295218D01*
X347226Y295149D01*
X347969Y295009D01*
X348329Y294940D01*
X348689Y294882D01*
X348677Y294893D01*
X348654Y294928D01*
X348619Y294986D01*
X348550Y295056D01*
X348468Y295149D01*
X348364Y295253D01*
X348248Y295369D01*
X348097Y295509D01*
X347923Y295648D01*
X347725Y295799D01*
X347505Y295950D01*
X347249Y296112D01*
X346971Y296287D01*
X346657Y296449D01*
X346309Y296612D01*
X345937Y296774D01*
X345926Y296786D01*
X345891Y296797D01*
X345821Y296821D01*
X345740Y296855D01*
X345647Y296890D01*
X345531Y296937D01*
X345403Y296983D01*
X345252Y297041D01*
X344950Y297146D01*
X344625Y297250D01*
X344300Y297355D01*
X343987Y297424D01*
X343975D01*
X343952Y297436D01*
X343905D01*
X343859Y297447D01*
X343789Y297459D01*
X343708Y297471D01*
X343534Y297506D01*
X343325Y297540D01*
X343116Y297564D01*
X342919Y297575D01*
X342733Y297587D01*
D02*
G37*
%LPD*%
D24*
X352752Y239630D02*
Y318370D01*
X384248Y239630D02*
Y318370D01*
X352752D02*
X384248D01*
X352752Y239630D02*
X384248D01*
X290450Y340750D02*
X296550D01*
X290450Y326250D02*
X296550D01*
X320500Y352500D02*
X324915Y360778D01*
X369000Y360500D02*
X373415Y352221D01*
X383500Y231500D02*
X379501D01*
Y233499D01*
X380168Y234166D01*
X381501D01*
X382167Y233499D01*
Y231500D01*
X379501Y238164D02*
Y235499D01*
X381501D01*
X380834Y236832D01*
Y237498D01*
X381501Y238164D01*
X382834D01*
X383500Y237498D01*
Y236165D01*
X382834Y235499D01*
X259349Y304248D02*
X258349Y305248D01*
X256350D01*
X255350Y304248D01*
Y300250D01*
X256350Y299250D01*
X258349D01*
X259349Y300250D01*
X265347Y305248D02*
X261348D01*
Y302249D01*
X263347Y303249D01*
X264347D01*
X265347Y302249D01*
Y300250D01*
X264347Y299250D01*
X262348D01*
X261348Y300250D01*
X307500Y344999D02*
Y344499D01*
X308500Y343499D01*
X309499Y344499D01*
Y344999D01*
X308500Y343499D02*
Y342000D01*
X310499D02*
X311499D01*
X310999D01*
Y344999D01*
X310499Y344499D01*
X262501Y308500D02*
X265000D01*
X265500Y309000D01*
Y309999D01*
X265000Y310499D01*
X262501D01*
X263001Y311499D02*
X262501Y311999D01*
Y312999D01*
X263001Y313498D01*
X263501D01*
X264001Y312999D01*
Y312499D01*
Y312999D01*
X264500Y313498D01*
X265000D01*
X265500Y312999D01*
Y311999D01*
X265000Y311499D01*
X258001Y320500D02*
X260500D01*
X261000Y321000D01*
Y322000D01*
X260500Y322499D01*
X258001D01*
X261000Y324998D02*
X258001D01*
X259501Y323499D01*
Y325498D01*
X325276Y327999D02*
Y325500D01*
X325775Y325000D01*
X326775D01*
X327275Y325500D01*
Y327999D01*
X328275Y325000D02*
X329274D01*
X328774D01*
Y327999D01*
X328275Y327499D01*
X276000Y247999D02*
Y245500D01*
X276500Y245000D01*
X277500D01*
X277999Y245500D01*
Y247999D01*
X280998Y245000D02*
X278999D01*
X280998Y246999D01*
Y247499D01*
X280499Y247999D01*
X279499D01*
X278999Y247499D01*
X238000Y275000D02*
X235001D01*
Y276500D01*
X235501Y276999D01*
X236501D01*
X237000Y276500D01*
Y275000D01*
Y276000D02*
X238000Y276999D01*
Y279998D02*
Y277999D01*
X236001Y279998D01*
X235501D01*
X235001Y279499D01*
Y278499D01*
X235501Y277999D01*
X265000Y278500D02*
Y281499D01*
X266499D01*
X266999Y280999D01*
Y279999D01*
X266499Y279500D01*
X265000D01*
X266000D02*
X266999Y278500D01*
X267999D02*
X268999D01*
X268499D01*
Y281499D01*
X267999Y280999D01*
X238000Y265000D02*
X235001D01*
Y266499D01*
X235501Y266999D01*
X236501D01*
X237000Y266499D01*
Y265000D01*
Y266000D02*
X238000Y266999D01*
X235001Y269998D02*
X235501Y268999D01*
X236501Y267999D01*
X237500D01*
X238000Y268499D01*
Y269498D01*
X237500Y269998D01*
X237000D01*
X236501Y269498D01*
Y267999D01*
X248000Y241000D02*
Y243999D01*
X249500D01*
X249999Y243499D01*
Y242499D01*
X249500Y242000D01*
X248000D01*
X249000D02*
X249999Y241000D01*
X252998Y243999D02*
X250999D01*
Y242499D01*
X251999Y242999D01*
X252499D01*
X252998Y242499D01*
Y241500D01*
X252499Y241000D01*
X251499D01*
X250999Y241500D01*
X241000Y291000D02*
Y293999D01*
X242499D01*
X242999Y293499D01*
Y292499D01*
X242499Y292000D01*
X241000D01*
X242000D02*
X242999Y291000D01*
X243999Y293499D02*
X244499Y293999D01*
X245498D01*
X245998Y293499D01*
Y292999D01*
X245498Y292499D01*
X244999D01*
X245498D01*
X245998Y292000D01*
Y291500D01*
X245498Y291000D01*
X244499D01*
X243999Y291500D01*
X346000Y229000D02*
X343001D01*
Y230500D01*
X343501Y230999D01*
X344500D01*
X345000Y230500D01*
Y229000D01*
Y230000D02*
X346000Y230999D01*
Y233499D02*
X343001D01*
X344500Y231999D01*
Y233998D01*
X326000Y259000D02*
Y261999D01*
X327500D01*
X327999Y261499D01*
Y260500D01*
X327500Y260000D01*
X326000D01*
X327000D02*
X327999Y259000D01*
X328999Y261499D02*
X329499Y261999D01*
X330499D01*
X330998Y261499D01*
Y260999D01*
X330499Y260500D01*
X330998Y260000D01*
Y259500D01*
X330499Y259000D01*
X329499D01*
X328999Y259500D01*
Y260000D01*
X329499Y260500D01*
X328999Y260999D01*
Y261499D01*
X329499Y260500D02*
X330499D01*
X337000Y249000D02*
X334001D01*
Y250500D01*
X334501Y250999D01*
X335501D01*
X336000Y250500D01*
Y249000D01*
Y250000D02*
X337000Y250999D01*
X334001Y251999D02*
Y253998D01*
X334501D01*
X336500Y251999D01*
X337000D01*
X310000Y286000D02*
X307001D01*
Y287499D01*
X307501Y287999D01*
X308501D01*
X309000Y287499D01*
Y286000D01*
Y287000D02*
X310000Y287999D01*
Y288999D02*
Y289999D01*
Y289499D01*
X307001D01*
X307501Y288999D01*
Y291498D02*
X307001Y291998D01*
Y292998D01*
X307501Y293498D01*
X309500D01*
X310000Y292998D01*
Y291998D01*
X309500Y291498D01*
X307501D01*
X324500Y286000D02*
Y288999D01*
X325999D01*
X326499Y288499D01*
Y287499D01*
X325999Y287000D01*
X324500D01*
X325500D02*
X326499Y286000D01*
X327499Y286500D02*
X327999Y286000D01*
X328998D01*
X329498Y286500D01*
Y288499D01*
X328998Y288999D01*
X327999D01*
X327499Y288499D01*
Y287999D01*
X327999Y287499D01*
X329498D01*
X273499Y358000D02*
Y359999D01*
X273000Y360499D01*
X272000D01*
X271500Y359999D01*
Y358000D01*
X272000Y357500D01*
X273000D01*
X272500Y358500D02*
X273499Y357500D01*
X273000D02*
X273499Y358000D01*
X274499Y357500D02*
X275499D01*
X274999D01*
Y360499D01*
X274499Y359999D01*
X288499Y358500D02*
Y360499D01*
X288000Y360999D01*
X287000D01*
X286500Y360499D01*
Y358500D01*
X287000Y358000D01*
X288000D01*
X287500Y359000D02*
X288499Y358000D01*
X288000D02*
X288499Y358500D01*
X291498Y358000D02*
X289499D01*
X291498Y359999D01*
Y360499D01*
X290999Y360999D01*
X289999D01*
X289499Y360499D01*
X303999Y358500D02*
Y360499D01*
X303500Y360999D01*
X302500D01*
X302000Y360499D01*
Y358500D01*
X302500Y358000D01*
X303500D01*
X303000Y359000D02*
X303999Y358000D01*
X303500D02*
X303999Y358500D01*
X304999Y360499D02*
X305499Y360999D01*
X306499D01*
X306998Y360499D01*
Y359999D01*
X306499Y359500D01*
X305999D01*
X306499D01*
X306998Y359000D01*
Y358500D01*
X306499Y358000D01*
X305499D01*
X304999Y358500D01*
X271000Y241500D02*
Y244499D01*
X272499D01*
X272999Y243999D01*
Y243000D01*
X272499Y242500D01*
X271000D01*
X275998Y241500D02*
X273999D01*
X275998Y243499D01*
Y243999D01*
X275499Y244499D01*
X274499D01*
X273999Y243999D01*
X304000Y371500D02*
Y374499D01*
X305500D01*
X305999Y373999D01*
Y373000D01*
X305500Y372500D01*
X304000D01*
X306999Y371500D02*
X307999D01*
X307499D01*
Y374499D01*
X306999Y373999D01*
X326500Y241500D02*
Y244499D01*
X327999D01*
X328499Y243999D01*
Y243000D01*
X327999Y242500D01*
X326500D01*
X329499Y243999D02*
X329999Y244499D01*
X330998D01*
X331498Y243999D01*
Y243499D01*
X330998Y243000D01*
X330499D01*
X330998D01*
X331498Y242500D01*
Y242000D01*
X330998Y241500D01*
X329999D01*
X329499Y242000D01*
X283000Y242500D02*
Y245499D01*
X284500D01*
X284999Y244999D01*
Y244000D01*
X284500Y243500D01*
X283000D01*
X287498Y242500D02*
Y245499D01*
X285999Y244000D01*
X287998D01*
X234000Y310999D02*
Y308000D01*
X235500D01*
X235999Y308500D01*
Y310499D01*
X235500Y310999D01*
X234000D01*
X238998Y310499D02*
X238498Y310999D01*
X237499D01*
X236999Y310499D01*
Y309999D01*
X237499Y309500D01*
X238498D01*
X238998Y309000D01*
Y308500D01*
X238498Y308000D01*
X237499D01*
X236999Y308500D01*
X239998Y308000D02*
X240998D01*
X240498D01*
Y310999D01*
X239998Y310499D01*
X365000Y238499D02*
Y235500D01*
X366499D01*
X366999Y236000D01*
Y237999D01*
X366499Y238499D01*
X365000D01*
X369998Y237999D02*
X369498Y238499D01*
X368499D01*
X367999Y237999D01*
Y237499D01*
X368499Y237000D01*
X369498D01*
X369998Y236500D01*
Y236000D01*
X369498Y235500D01*
X368499D01*
X367999Y236000D01*
X372997Y235500D02*
X370998D01*
X372997Y237499D01*
Y237999D01*
X372498Y238499D01*
X371498D01*
X370998Y237999D01*
X258999Y287999D02*
X258500Y288499D01*
X257500D01*
X257000Y287999D01*
Y286000D01*
X257500Y285500D01*
X258500D01*
X258999Y286000D01*
X259999Y285500D02*
X260999D01*
X260499D01*
Y288499D01*
X259999Y287999D01*
X262498Y288499D02*
X264498D01*
Y287999D01*
X262498Y286000D01*
Y285500D01*
X237999Y255499D02*
X237499Y255999D01*
X236500D01*
X236000Y255499D01*
Y253500D01*
X236500Y253000D01*
X237499D01*
X237999Y253500D01*
X238999Y255499D02*
X239499Y255999D01*
X240498D01*
X240998Y255499D01*
Y254999D01*
X240498Y254500D01*
X240998Y254000D01*
Y253500D01*
X240498Y253000D01*
X239499D01*
X238999Y253500D01*
Y254000D01*
X239499Y254500D01*
X238999Y254999D01*
Y255499D01*
X239499Y254500D02*
X240498D01*
X259999Y261999D02*
X259500Y262499D01*
X258500D01*
X258000Y261999D01*
Y260000D01*
X258500Y259500D01*
X259500D01*
X259999Y260000D01*
X260999Y262499D02*
X262998D01*
Y261999D01*
X260999Y260000D01*
Y259500D01*
X323999Y298999D02*
X323499Y299499D01*
X322500D01*
X322000Y298999D01*
Y297000D01*
X322500Y296500D01*
X323499D01*
X323999Y297000D01*
X324999Y298999D02*
X325499Y299499D01*
X326499D01*
X326998Y298999D01*
Y298499D01*
X326499Y298000D01*
X325999D01*
X326499D01*
X326998Y297500D01*
Y297000D01*
X326499Y296500D01*
X325499D01*
X324999Y297000D01*
X340999Y323999D02*
X340499Y324499D01*
X339500D01*
X339000Y323999D01*
Y322000D01*
X339500Y321500D01*
X340499D01*
X340999Y322000D01*
X343998Y321500D02*
X341999D01*
X343998Y323499D01*
Y323999D01*
X343498Y324499D01*
X342499D01*
X341999Y323999D01*
X236501Y353999D02*
X236001Y353500D01*
Y352500D01*
X236501Y352000D01*
X238500D01*
X239000Y352500D01*
Y353500D01*
X238500Y353999D01*
X239000Y354999D02*
Y355999D01*
Y355499D01*
X236001D01*
X236501Y354999D01*
X239000Y358998D02*
X236001D01*
X237501Y357498D01*
Y359498D01*
X258501Y330499D02*
X258001Y329999D01*
Y329000D01*
X258501Y328500D01*
X260500D01*
X261000Y329000D01*
Y329999D01*
X260500Y330499D01*
X261000Y331499D02*
Y332499D01*
Y331999D01*
X258001D01*
X258501Y331499D01*
X261000Y333998D02*
Y334998D01*
Y334498D01*
X258001D01*
X258501Y333998D01*
X258799Y280350D02*
X258299Y280849D01*
X257299D01*
X256799Y280350D01*
Y278350D01*
X257299Y277850D01*
X258299D01*
X258799Y278350D01*
X261298Y277850D02*
Y280849D01*
X259798Y279350D01*
X261798D01*
X318499Y334501D02*
X318999Y335000D01*
Y336000D01*
X318499Y336500D01*
X316500D01*
X316000Y336000D01*
Y335000D01*
X316500Y334501D01*
Y333501D02*
X316000Y333001D01*
Y332001D01*
X316500Y331502D01*
X318499D01*
X318999Y332001D01*
Y333001D01*
X318499Y333501D01*
X317999D01*
X317499Y333001D01*
Y331502D01*
X265499Y341499D02*
X265000Y341999D01*
X264000D01*
X263500Y341499D01*
Y339500D01*
X264000Y339000D01*
X265000D01*
X265499Y339500D01*
X266499Y339000D02*
X267499D01*
X266999D01*
Y341999D01*
X266499Y341499D01*
X268998D02*
X269498Y341999D01*
X270498D01*
X270998Y341499D01*
Y339500D01*
X270498Y339000D01*
X269498D01*
X268998Y339500D01*
Y341499D01*
X333999Y298999D02*
X333500Y299499D01*
X332500D01*
X332000Y298999D01*
Y297000D01*
X332500Y296500D01*
X333500D01*
X333999Y297000D01*
X336998Y299499D02*
X335999Y298999D01*
X334999Y298000D01*
Y297000D01*
X335499Y296500D01*
X336498D01*
X336998Y297000D01*
Y297500D01*
X336498Y298000D01*
X334999D01*
X316999Y374999D02*
X316499Y375499D01*
X315500D01*
X315000Y374999D01*
Y373000D01*
X315500Y372500D01*
X316499D01*
X316999Y373000D01*
X317999Y372500D02*
X318999D01*
X318499D01*
Y375499D01*
X317999Y374999D01*
X305999Y269499D02*
X305500Y269999D01*
X304500D01*
X304000Y269499D01*
Y267500D01*
X304500Y267000D01*
X305500D01*
X305999Y267500D01*
X306999Y267000D02*
X307999D01*
X307499D01*
Y269999D01*
X306999Y269499D01*
X309498D02*
X309998Y269999D01*
X310998D01*
X311498Y269499D01*
Y268999D01*
X310998Y268499D01*
X310498D01*
X310998D01*
X311498Y268000D01*
Y267500D01*
X310998Y267000D01*
X309998D01*
X309498Y267500D01*
X318999Y244499D02*
X318499Y244999D01*
X317500D01*
X317000Y244499D01*
Y242500D01*
X317500Y242000D01*
X318499D01*
X318999Y242500D01*
X319999Y242000D02*
X320999D01*
X320499D01*
Y244999D01*
X319999Y244499D01*
X324498Y242000D02*
X322498D01*
X324498Y243999D01*
Y244499D01*
X323998Y244999D01*
X322998D01*
X322498Y244499D01*
X315501Y286999D02*
X315001Y286500D01*
Y285500D01*
X315501Y285000D01*
X317500D01*
X318000Y285500D01*
Y286500D01*
X317500Y286999D01*
X318000Y287999D02*
Y288999D01*
Y288499D01*
X315001D01*
X315501Y287999D01*
X315001Y292498D02*
X315501Y291498D01*
X316500Y290498D01*
X317500D01*
X318000Y290998D01*
Y291998D01*
X317500Y292498D01*
X317000D01*
X316500Y291998D01*
Y290498D01*
X326999Y268499D02*
X326500Y268999D01*
X325500D01*
X325000Y268499D01*
Y266500D01*
X325500Y266000D01*
X326500D01*
X326999Y266500D01*
X327999Y266000D02*
X328999D01*
X328499D01*
Y268999D01*
X327999Y268499D01*
X332498Y268999D02*
X330498D01*
Y267499D01*
X331498Y267999D01*
X331998D01*
X332498Y267499D01*
Y266500D01*
X331998Y266000D01*
X330998D01*
X330498Y266500D01*
X263998Y258500D02*
Y261499D01*
X265498D01*
X265998Y260999D01*
Y259999D01*
X265498Y259500D01*
X263998D01*
X264998D02*
X265998Y258500D01*
X266997D02*
X267997D01*
X267497D01*
Y261499D01*
X266997Y260999D01*
X269497Y258500D02*
X270496D01*
X269996D01*
Y261499D01*
X269497Y260999D01*
X304500Y243500D02*
Y246499D01*
X305999D01*
X306499Y245999D01*
Y245000D01*
X305999Y244500D01*
X304500D01*
X305500D02*
X306499Y243500D01*
X307499D02*
X308499D01*
X307999D01*
Y246499D01*
X307499Y245999D01*
X309998D02*
X310498Y246499D01*
X311498D01*
X311998Y245999D01*
Y245499D01*
X311498Y245000D01*
X310998D01*
X311498D01*
X311998Y244500D01*
Y244000D01*
X311498Y243500D01*
X310498D01*
X309998Y244000D01*
X294000Y291000D02*
Y293999D01*
X295499D01*
X295999Y293499D01*
Y292499D01*
X295499Y292000D01*
X294000D01*
X295000D02*
X295999Y291000D01*
X296999D02*
X297999D01*
X297499D01*
Y293999D01*
X296999Y293499D01*
X301498Y293999D02*
X299498D01*
Y292499D01*
X300498Y292999D01*
X300998D01*
X301498Y292499D01*
Y291500D01*
X300998Y291000D01*
X299998D01*
X299498Y291500D01*
X257000Y241000D02*
Y243999D01*
X258500D01*
X258999Y243499D01*
Y242499D01*
X258500Y242000D01*
X257000D01*
X258000D02*
X258999Y241000D01*
X259999D02*
X260999D01*
X260499D01*
Y243999D01*
X259999Y243499D01*
X264498Y241000D02*
X262498D01*
X264498Y242999D01*
Y243499D01*
X263998Y243999D01*
X262998D01*
X262498Y243499D01*
X304000Y262500D02*
Y265499D01*
X305500D01*
X305999Y264999D01*
Y264000D01*
X305500Y263500D01*
X304000D01*
X305000D02*
X305999Y262500D01*
X306999D02*
X307999D01*
X307499D01*
Y265499D01*
X306999Y264999D01*
X310998Y262500D02*
Y265499D01*
X309498Y264000D01*
X311498D01*
X266193Y294256D02*
Y297255D01*
X267692D01*
X268192Y296755D01*
Y295755D01*
X267692Y295256D01*
X266193D01*
X267193D02*
X268192Y294256D01*
X269192D02*
X270192D01*
X269692D01*
Y297255D01*
X269192Y296755D01*
X273691Y297255D02*
X272691Y296755D01*
X271691Y295755D01*
Y294756D01*
X272191Y294256D01*
X273191D01*
X273691Y294756D01*
Y295256D01*
X273191Y295755D01*
X271691D01*
X308100Y326400D02*
Y332398D01*
X311099D01*
X312099Y331398D01*
Y329399D01*
X311099Y328399D01*
X308100D01*
X318097Y332398D02*
X316097Y331398D01*
X314098Y329399D01*
Y327400D01*
X315098Y326400D01*
X317097D01*
X318097Y327400D01*
Y328399D01*
X317097Y329399D01*
X314098D01*
D38*
X377000Y356500D02*
G03*
X377000Y356500I-30000J0D01*
G01*
X262500Y362500D02*
Y372500D01*
X302500D01*
X262500Y362500D02*
X302500D01*
Y372500D01*
X259803Y295264D02*
X260197D01*
X259803Y290736D02*
X260197D01*
X314736Y277303D02*
Y277697D01*
X319264Y277303D02*
Y277697D01*
X285846Y356921D02*
X287618D01*
X277382D02*
X279153D01*
X277382Y350524D02*
Y356921D01*
X287618Y350524D02*
Y356921D01*
X270847D02*
X272618D01*
X262382D02*
X264154D01*
X262382Y350524D02*
Y356921D01*
X272618Y350524D02*
Y356921D01*
X343614Y314803D02*
Y315197D01*
X339087Y314803D02*
Y315197D01*
X338803Y306264D02*
X339197D01*
X338803Y301736D02*
X339197D01*
X324303Y306264D02*
X324697D01*
X324303Y301736D02*
X324697D01*
X246303Y354736D02*
X246697D01*
X246303Y359264D02*
X246697D01*
X313264Y333803D02*
Y334197D01*
X308736Y333803D02*
Y334197D01*
X273736Y333803D02*
Y334197D01*
X278264Y333803D02*
Y334197D01*
X263736Y331303D02*
Y331697D01*
X268264Y331303D02*
Y331697D01*
X317803Y267264D02*
X318197D01*
X317803Y262736D02*
X318197D01*
X317803Y246736D02*
X318197D01*
X317803Y251264D02*
X318197D01*
X331000Y230500D02*
Y240500D01*
X311000Y230500D02*
X331000D01*
X311000D02*
Y240500D01*
X331000D01*
X256736Y271303D02*
Y271697D01*
X261264Y271303D02*
Y271697D01*
X254264Y279803D02*
Y280197D01*
X249736Y279803D02*
Y280197D01*
X276000Y230500D02*
Y240500D01*
X256000Y230500D02*
X276000D01*
X256000D02*
Y240500D01*
X276000D01*
X248803Y259264D02*
X249197D01*
X248803Y254736D02*
X249197D01*
X249736Y266803D02*
Y267197D01*
X254264Y266803D02*
Y267197D01*
X328803Y270736D02*
X329197D01*
X328803Y275264D02*
X329197D01*
X303500Y230500D02*
Y240500D01*
X283500Y230500D02*
X303500D01*
X283500D02*
Y240500D01*
X303500D01*
X301346Y356921D02*
X303118D01*
X292882D02*
X294654D01*
X292882Y350524D02*
Y356921D01*
X303118Y350524D02*
Y356921D01*
X328622Y321102D02*
X331378D01*
X328622Y308898D02*
X331378D01*
X328622D02*
Y321102D01*
X331378Y308898D02*
Y321102D01*
X275701Y297508D02*
X288299D01*
X275701Y323492D02*
X288299D01*
Y297508D02*
Y323492D01*
X275701Y297508D02*
Y323492D01*
X236157Y325457D02*
X255842D01*
X236157Y332543D02*
X255842D01*
X236157Y325457D02*
Y332543D01*
X255842Y325457D02*
Y332543D01*
X283350Y250374D02*
X289650D01*
X283350Y284626D02*
X289650D01*
Y250374D02*
Y284626D01*
X283350Y250374D02*
Y284626D01*
X269862Y270803D02*
Y271197D01*
X265138Y270803D02*
Y271197D01*
X240638Y279803D02*
Y280197D01*
X245362Y279803D02*
Y280197D01*
X247373Y301476D02*
Y301870D01*
X242648Y301476D02*
Y301870D01*
X353803Y228638D02*
X354197D01*
X353803Y233362D02*
X354197D01*
X248803Y246138D02*
X249197D01*
X248803Y250862D02*
X249197D01*
X245362Y266803D02*
Y267197D01*
X240638Y266803D02*
Y267197D01*
X331862Y251303D02*
Y251697D01*
X327138Y251303D02*
Y251697D01*
X317803Y255138D02*
X318197D01*
X317803Y259862D02*
X318197D01*
X327803Y283362D02*
X328197D01*
X327803Y278638D02*
X328197D01*
X310362Y277303D02*
Y277697D01*
X305638Y277303D02*
Y277697D01*
X269862Y250957D02*
Y251350D01*
X265138Y250957D02*
Y251350D01*
X257638Y251303D02*
Y251697D01*
X262362Y251303D02*
Y251697D01*
X297303Y242638D02*
X297697D01*
X297303Y247362D02*
X297697D01*
X305638Y254803D02*
Y255197D01*
X310362Y254803D02*
Y255197D01*
X286303Y292862D02*
X286697D01*
X286303Y288138D02*
X286697D01*
X272803Y292862D02*
X273197D01*
X272803Y288138D02*
X273197D01*
X307500Y293000D02*
X317500D01*
X307500D02*
Y323000D01*
X317500D01*
Y293000D02*
Y323000D01*
D39*
X365194Y228900D02*
G03*
X366044Y228050I850J0D01*
G01*
Y233950D02*
G03*
X365194Y233100I0J-850D01*
G01*
X376956Y228050D02*
G03*
X377806Y228900I0J850D01*
G01*
Y233100D02*
G03*
X376956Y233950I-850J0D01*
G01*
X239100Y294072D02*
G03*
X239950Y294922I0J850D01*
G01*
X234050D02*
G03*
X234900Y294072I850J0D01*
G01*
X239950Y305834D02*
G03*
X239100Y306684I-850J0D01*
G01*
X234900D02*
G03*
X234050Y305834I0J-850D01*
G01*
X366044Y228050D02*
X376956D01*
X366044Y233950D02*
X376956D01*
X365194Y228900D02*
Y233100D01*
X377806Y228900D02*
Y233100D01*
X234900Y294072D02*
X239100D01*
X234900Y306684D02*
X239100D01*
X239950Y294922D02*
Y305834D01*
X234050Y294922D02*
Y305834D01*
D40*
X325768Y322185D02*
G03*
X325768Y322185I-492J0D01*
G01*
X271272Y324870D02*
G03*
X271272Y324870I-492J0D01*
G01*
X235646Y319551D02*
G03*
X235646Y319551I-492J0D01*
G01*
X277346Y286043D02*
G03*
X277346Y286043I-492J0D01*
G01*
D41*
X280819Y319555D02*
G03*
X280819Y319555I-1181J0D01*
G01*
D42*
X240094Y328606D02*
G03*
X240094Y328606I-787J0D01*
G01*
D43*
X375548Y371500D02*
Y375436D01*
X373580Y373468D02*
X377516D01*
D44*
X381295Y279000D02*
D03*
D45*
X377237Y228015D02*
D03*
D46*
X378366Y231000D02*
D03*
D47*
X377366Y234025D02*
D03*
D48*
X240025Y294512D02*
D03*
D49*
X237000Y293512D02*
D03*
D50*
X234015Y294641D02*
D03*
M02*
