%FSLAX25Y25*%
%MOIN*%
G70*
G01*
G75*
G04 Layer_Color=32896*
%ADD10R,0.02000X0.02000*%
%ADD11R,0.04134X0.05512*%
%ADD12R,0.05512X0.04134*%
%ADD13O,0.09843X0.02756*%
%ADD14O,0.02362X0.08661*%
%ADD15R,0.06300X0.05500*%
%ADD16O,0.06693X0.01378*%
%ADD17R,0.03543X0.02559*%
%ADD18R,0.03543X0.03740*%
%ADD19R,0.03937X0.03937*%
%ADD20R,0.03937X0.03937*%
%ADD21R,0.03740X0.05315*%
%ADD22R,0.05315X0.03740*%
%ADD23C,0.03200*%
%ADD24C,0.02800*%
%ADD25C,0.01000*%
%ADD26C,0.00000*%
%ADD27C,0.02000*%
%ADD28C,0.01600*%
%ADD29R,0.05906X0.05906*%
%ADD30C,0.05906*%
%ADD31R,0.05906X0.05906*%
%ADD32C,0.04724*%
%ADD33R,0.04724X0.04724*%
%ADD34O,0.09843X0.06693*%
%ADD35C,0.02400*%
%ADD36C,0.05000*%
%ADD37R,0.02000X0.02000*%
%ADD38C,0.00984*%
%ADD39C,0.01575*%
%ADD40C,0.02362*%
%ADD41C,0.00800*%
%ADD42C,0.00787*%
%ADD43C,0.00591*%
%ADD44R,0.00730X0.02560*%
%ADD45R,0.06700X0.01800*%
%ADD46R,0.00650X0.02300*%
%ADD47R,0.02300X0.00650*%
%ADD48R,0.01800X0.06700*%
%ADD49R,0.02560X0.00730*%
%ADD50R,0.05906X0.78740*%
%ADD51R,0.02800X0.02800*%
%ADD52R,0.04934X0.06312*%
%ADD53R,0.06312X0.04934*%
%ADD54O,0.10642X0.03556*%
%ADD55O,0.03162X0.09461*%
%ADD56R,0.07100X0.06300*%
%ADD57O,0.07493X0.02178*%
%ADD58R,0.04343X0.03359*%
%ADD59R,0.04343X0.04540*%
%ADD60R,0.04540X0.06115*%
%ADD61R,0.06115X0.04540*%
%ADD62R,0.06706X0.06706*%
%ADD63C,0.06706*%
%ADD64R,0.06706X0.06706*%
%ADD65C,0.05524*%
%ADD66R,0.05524X0.05524*%
%ADD67O,0.10642X0.07493*%
%ADD68C,0.03200*%
%ADD69C,0.05800*%
%ADD70R,0.02800X0.02800*%
G36*
X331040Y359026D02*
X331304Y358968D01*
X331582Y358909D01*
X331831Y358821D01*
X332051Y358748D01*
X332138Y358704D01*
X332212Y358675D01*
X332285Y358646D01*
X332329Y358616D01*
X332358Y358602D01*
X332373D01*
X332709Y358411D01*
X333017Y358206D01*
X333310Y357987D01*
X333573Y357767D01*
X333778Y357562D01*
X333866Y357474D01*
X333939Y357401D01*
X333998Y357343D01*
X334042Y357299D01*
X334071Y357269D01*
X334085Y357255D01*
X334364Y356903D01*
X334627Y356523D01*
X334847Y356142D01*
X335037Y355791D01*
X335125Y355630D01*
X335198Y355469D01*
X335257Y355337D01*
X335301Y355220D01*
X335345Y355132D01*
X335374Y355059D01*
X335403Y355015D01*
Y355000D01*
X335579Y354473D01*
X335696Y353946D01*
X335784Y353419D01*
X335828Y353155D01*
X335857Y352921D01*
X335872Y352702D01*
X335886Y352497D01*
X335901Y352306D01*
Y352160D01*
X335915Y352028D01*
Y351926D01*
Y351867D01*
Y351853D01*
X335901Y351531D01*
X335886Y351223D01*
X335842Y350930D01*
X335798Y350667D01*
X335740Y350418D01*
X335681Y350184D01*
X335608Y349979D01*
X335535Y349788D01*
X335476Y349627D01*
X335403Y349481D01*
X335345Y349364D01*
X335286Y349261D01*
X335242Y349173D01*
X335198Y349115D01*
X335184Y349086D01*
X335169Y349071D01*
X335037Y348910D01*
X334905Y348763D01*
X334759Y348646D01*
X334642Y348559D01*
X334525Y348471D01*
X334437Y348427D01*
X334378Y348397D01*
X334364Y348383D01*
X334188Y348310D01*
X333998Y348251D01*
X333822Y348222D01*
X333646Y348193D01*
X333515Y348178D01*
X333397Y348163D01*
X333295D01*
X333061Y348178D01*
X332826Y348222D01*
X332607Y348280D01*
X332402Y348339D01*
X332212Y348397D01*
X332080Y348456D01*
X332021Y348485D01*
X331977Y348500D01*
X331963Y348515D01*
X331948D01*
X331670Y348661D01*
X331406Y348837D01*
X331157Y349012D01*
X330953Y349188D01*
X330777Y349335D01*
X330645Y349466D01*
X330557Y349554D01*
X330528Y349569D01*
Y349583D01*
X330294Y349862D01*
X330074Y350169D01*
X329884Y350462D01*
X329723Y350740D01*
X329576Y350989D01*
X329533Y351091D01*
X329489Y351179D01*
X329445Y351252D01*
X329415Y351311D01*
X329401Y351340D01*
Y351355D01*
X329240Y351765D01*
X329123Y352204D01*
X329020Y352614D01*
X328947Y353009D01*
X328918Y353185D01*
X328903Y353346D01*
X328874Y353492D01*
X328859Y353624D01*
Y353727D01*
X328844Y353800D01*
Y353844D01*
Y353858D01*
X329430Y353756D01*
X330030Y353668D01*
X330616Y353580D01*
X330894Y353536D01*
X331157Y353492D01*
X331406Y353463D01*
X331626Y353434D01*
X331831Y353404D01*
X332007Y353390D01*
X332138Y353375D01*
X332241Y353361D01*
X332299Y353346D01*
X332329D01*
X332578Y351955D01*
X331084Y352175D01*
X331114Y351897D01*
X331187Y351633D01*
X331275Y351399D01*
X331377Y351194D01*
X331480Y351033D01*
X331567Y350916D01*
X331626Y350842D01*
X331655Y350813D01*
X331831Y350652D01*
X332007Y350520D01*
X332080Y350476D01*
X332138Y350447D01*
X332182Y350418D01*
X332197D01*
X332431Y350330D01*
X332636Y350286D01*
X332724D01*
X332797Y350271D01*
X332856D01*
X332973Y350286D01*
X333090Y350330D01*
X333192Y350389D01*
X333280Y350462D01*
X333353Y350520D01*
X333412Y350579D01*
X333441Y350623D01*
X333456Y350637D01*
X333544Y350799D01*
X333602Y350989D01*
X333661Y351208D01*
X333690Y351413D01*
X333705Y351604D01*
X333719Y351750D01*
Y351809D01*
Y351853D01*
Y351882D01*
Y351897D01*
X333705Y352233D01*
X333661Y352555D01*
X333559Y353199D01*
X333485Y353507D01*
X333412Y353800D01*
X333324Y354093D01*
X333236Y354356D01*
X333163Y354590D01*
X333090Y354810D01*
X333017Y355000D01*
X332944Y355176D01*
X332885Y355308D01*
X332841Y355395D01*
X332826Y355469D01*
X332812Y355483D01*
X332680Y355761D01*
X332534Y356025D01*
X332402Y356245D01*
X332285Y356420D01*
X332182Y356567D01*
X332109Y356684D01*
X332051Y356742D01*
X332036Y356772D01*
X331875Y356947D01*
X331729Y357064D01*
X331597Y357152D01*
X331480Y357225D01*
X331377Y357255D01*
X331304Y357269D01*
X331260Y357284D01*
X331245D01*
X331143Y357269D01*
X331040Y357240D01*
X330953Y357182D01*
X330879Y357123D01*
X330733Y356947D01*
X330630Y356757D01*
X330543Y356567D01*
X330484Y356391D01*
X330469Y356332D01*
X330455Y356274D01*
X330440Y356245D01*
Y356230D01*
X328493Y356596D01*
X328522Y356977D01*
X328581Y357328D01*
X328654Y357621D01*
X328757Y357855D01*
X328859Y358060D01*
X328932Y358192D01*
X328991Y358279D01*
X329020Y358309D01*
X329123Y358426D01*
X329240Y358528D01*
X329342Y358631D01*
X329459Y358704D01*
X329547Y358763D01*
X329620Y358807D01*
X329679Y358821D01*
X329694Y358836D01*
X329855Y358909D01*
X330030Y358953D01*
X330221Y358997D01*
X330382Y359012D01*
X330543Y359026D01*
X330660Y359041D01*
X330777D01*
X331040Y359026D01*
D02*
G37*
G36*
X351610Y356508D02*
X351990Y356420D01*
X352342Y356362D01*
X352664Y356332D01*
X352795Y356318D01*
X352913Y356303D01*
X353030D01*
X353117Y356289D01*
X353279D01*
X353323Y356010D01*
X353366Y355732D01*
X353410Y355469D01*
X353440Y355249D01*
X353484Y355044D01*
X353498Y354898D01*
X353513Y354839D01*
X353527Y354795D01*
Y354781D01*
Y354766D01*
X353571Y354488D01*
X353615Y354210D01*
X353659Y353946D01*
X353689Y353712D01*
X353718Y353521D01*
X353747Y353361D01*
Y353302D01*
X353762Y353258D01*
Y353243D01*
Y353229D01*
X353264D01*
X352927Y353243D01*
X352620D01*
X352356Y353258D01*
X352122Y353273D01*
X351946D01*
X351873Y353287D01*
X351785D01*
X351727Y353653D01*
X351683Y354005D01*
X351624Y354327D01*
X351580Y354649D01*
X351522Y354942D01*
X351478Y355220D01*
X351419Y355469D01*
X351375Y355703D01*
X351346Y355908D01*
X351302Y356083D01*
X351273Y356245D01*
X351244Y356376D01*
X351214Y356479D01*
X351200Y356552D01*
X351185Y356596D01*
Y356611D01*
X351610Y356508D01*
D02*
G37*
G36*
X253112Y358499D02*
X254956Y348500D01*
X250403Y349188D01*
X250257Y350799D01*
X252307Y350462D01*
X251823Y353068D01*
X251531Y353082D01*
X251282D01*
X251194Y353097D01*
X251062D01*
X250813Y353112D01*
X250111D01*
X250052Y353126D01*
X249935D01*
X249891Y353419D01*
X249862Y353551D01*
X249847Y353668D01*
X249832Y353770D01*
Y353844D01*
X249818Y353888D01*
Y353902D01*
X249774Y354180D01*
X249759Y354327D01*
X249745Y354444D01*
X249730Y354546D01*
X249715Y354620D01*
Y354678D01*
Y354693D01*
X249788D01*
X249876Y354678D01*
X250096D01*
X250198Y354663D01*
X250579D01*
X250784Y354649D01*
X251004Y354634D01*
X251194D01*
X251370Y354620D01*
X251501D01*
X251604Y354605D01*
X251633D01*
X251135Y357138D01*
X249949D01*
X249715Y357152D01*
X249525D01*
X249364Y357167D01*
X249232D01*
X249130Y357182D01*
X249056D01*
X249027Y357357D01*
X248998Y357518D01*
X248983Y357577D01*
X248969Y357635D01*
X248954Y357665D01*
Y357679D01*
X248895Y357899D01*
X248866Y358089D01*
X248837Y358162D01*
Y358221D01*
X248822Y358250D01*
Y358265D01*
X248764Y358499D01*
X248705Y358689D01*
X248676Y358777D01*
X248661Y358836D01*
X248646Y358880D01*
Y358894D01*
X253112Y358499D01*
D02*
G37*
G36*
X244796Y359026D02*
X245060Y358968D01*
X245338Y358909D01*
X245587Y358821D01*
X245806Y358748D01*
X245894Y358704D01*
X245967Y358675D01*
X246041Y358646D01*
X246084Y358616D01*
X246114Y358602D01*
X246128D01*
X246465Y358411D01*
X246773Y358206D01*
X247065Y357987D01*
X247329Y357767D01*
X247534Y357562D01*
X247622Y357474D01*
X247695Y357401D01*
X247753Y357343D01*
X247797Y357299D01*
X247827Y357269D01*
X247841Y357255D01*
X248119Y356903D01*
X248383Y356523D01*
X248603Y356142D01*
X248793Y355791D01*
X248881Y355630D01*
X248954Y355469D01*
X249012Y355337D01*
X249056Y355220D01*
X249100Y355132D01*
X249130Y355059D01*
X249159Y355015D01*
Y355000D01*
X249335Y354473D01*
X249452Y353946D01*
X249539Y353419D01*
X249583Y353155D01*
X249613Y352921D01*
X249627Y352702D01*
X249642Y352497D01*
X249657Y352306D01*
Y352160D01*
X249671Y352028D01*
Y351926D01*
Y351867D01*
Y351853D01*
X249657Y351531D01*
X249642Y351223D01*
X249598Y350930D01*
X249554Y350667D01*
X249496Y350418D01*
X249437Y350184D01*
X249364Y349979D01*
X249291Y349788D01*
X249232Y349627D01*
X249159Y349481D01*
X249100Y349364D01*
X249042Y349261D01*
X248998Y349173D01*
X248954Y349115D01*
X248939Y349086D01*
X248925Y349071D01*
X248793Y348910D01*
X248661Y348763D01*
X248515Y348646D01*
X248398Y348559D01*
X248281Y348471D01*
X248193Y348427D01*
X248134Y348397D01*
X248119Y348383D01*
X247944Y348310D01*
X247753Y348251D01*
X247578Y348222D01*
X247402Y348193D01*
X247270Y348178D01*
X247153Y348163D01*
X247051D01*
X246816Y348178D01*
X246582Y348222D01*
X246363Y348280D01*
X246158Y348339D01*
X245967Y348397D01*
X245836Y348456D01*
X245777Y348485D01*
X245733Y348500D01*
X245719Y348515D01*
X245704D01*
X245426Y348661D01*
X245162Y348837D01*
X244913Y349012D01*
X244708Y349188D01*
X244533Y349335D01*
X244401Y349466D01*
X244313Y349554D01*
X244284Y349569D01*
Y349583D01*
X244050Y349862D01*
X243830Y350169D01*
X243640Y350462D01*
X243479Y350740D01*
X243332Y350989D01*
X243288Y351091D01*
X243244Y351179D01*
X243200Y351252D01*
X243171Y351311D01*
X243157Y351340D01*
Y351355D01*
X242995Y351765D01*
X242878Y352204D01*
X242776Y352614D01*
X242703Y353009D01*
X242673Y353185D01*
X242659Y353346D01*
X242629Y353492D01*
X242615Y353624D01*
Y353727D01*
X242600Y353800D01*
Y353844D01*
Y353858D01*
X243186Y353756D01*
X243786Y353668D01*
X244372Y353580D01*
X244650Y353536D01*
X244913Y353492D01*
X245162Y353463D01*
X245382Y353434D01*
X245587Y353404D01*
X245762Y353390D01*
X245894Y353375D01*
X245997Y353361D01*
X246055Y353346D01*
X246084D01*
X246333Y351955D01*
X244840Y352175D01*
X244869Y351897D01*
X244943Y351633D01*
X245030Y351399D01*
X245133Y351194D01*
X245235Y351033D01*
X245323Y350916D01*
X245382Y350842D01*
X245411Y350813D01*
X245587Y350652D01*
X245762Y350520D01*
X245836Y350476D01*
X245894Y350447D01*
X245938Y350418D01*
X245953D01*
X246187Y350330D01*
X246392Y350286D01*
X246480D01*
X246553Y350271D01*
X246611D01*
X246729Y350286D01*
X246846Y350330D01*
X246948Y350389D01*
X247036Y350462D01*
X247109Y350520D01*
X247168Y350579D01*
X247197Y350623D01*
X247212Y350637D01*
X247300Y350799D01*
X247358Y350989D01*
X247417Y351208D01*
X247446Y351413D01*
X247461Y351604D01*
X247475Y351750D01*
Y351809D01*
Y351853D01*
Y351882D01*
Y351897D01*
X247461Y352233D01*
X247417Y352555D01*
X247314Y353199D01*
X247241Y353507D01*
X247168Y353800D01*
X247080Y354093D01*
X246992Y354356D01*
X246919Y354590D01*
X246846Y354810D01*
X246773Y355000D01*
X246699Y355176D01*
X246641Y355308D01*
X246597Y355395D01*
X246582Y355469D01*
X246568Y355483D01*
X246436Y355761D01*
X246289Y356025D01*
X246158Y356245D01*
X246041Y356420D01*
X245938Y356567D01*
X245865Y356684D01*
X245806Y356742D01*
X245792Y356772D01*
X245631Y356947D01*
X245484Y357064D01*
X245353Y357152D01*
X245235Y357225D01*
X245133Y357255D01*
X245060Y357269D01*
X245016Y357284D01*
X245001D01*
X244899Y357269D01*
X244796Y357240D01*
X244708Y357182D01*
X244635Y357123D01*
X244489Y356947D01*
X244386Y356757D01*
X244298Y356567D01*
X244240Y356391D01*
X244225Y356332D01*
X244211Y356274D01*
X244196Y356245D01*
Y356230D01*
X242249Y356596D01*
X242278Y356977D01*
X242337Y357328D01*
X242410Y357621D01*
X242512Y357855D01*
X242615Y358060D01*
X242688Y358192D01*
X242747Y358279D01*
X242776Y358309D01*
X242878Y358426D01*
X242995Y358528D01*
X243098Y358631D01*
X243215Y358704D01*
X243303Y358763D01*
X243376Y358807D01*
X243435Y358821D01*
X243449Y358836D01*
X243610Y358909D01*
X243786Y358953D01*
X243976Y358997D01*
X244137Y359012D01*
X244298Y359026D01*
X244415Y359041D01*
X244533D01*
X244796Y359026D01*
D02*
G37*
G36*
X353440Y352219D02*
X353762D01*
X353879Y352204D01*
X353981D01*
X354040Y351853D01*
X354084Y351516D01*
X354128Y351208D01*
X354186Y350901D01*
X354230Y350637D01*
X354274Y350374D01*
X354318Y350140D01*
X354347Y349920D01*
X354377Y349730D01*
X354420Y349569D01*
X354435Y349422D01*
X354464Y349305D01*
X354479Y349203D01*
X354494Y349144D01*
X354508Y349100D01*
Y349086D01*
X354172Y349173D01*
X353820Y349247D01*
X353469Y349291D01*
X353147Y349335D01*
X352869Y349378D01*
X352751D01*
X352649Y349393D01*
X352561D01*
X352503Y349408D01*
X352444D01*
X352356Y349964D01*
X352268Y350491D01*
X352224Y350740D01*
X352195Y350959D01*
X352151Y351179D01*
X352122Y351384D01*
X352093Y351574D01*
X352063Y351735D01*
X352034Y351867D01*
X352020Y351999D01*
X352005Y352087D01*
X351990Y352160D01*
X351976Y352204D01*
Y352219D01*
X352107Y352233D01*
X353264D01*
X353440Y352219D01*
D02*
G37*
G36*
X311437Y358704D02*
X311569Y358689D01*
X311701Y358675D01*
X311803D01*
X311877Y358660D01*
X311950D01*
X312228Y358631D01*
X312360D01*
X312491Y358616D01*
X312594Y358602D01*
X312667D01*
X312726Y358587D01*
X312740D01*
X313019Y358558D01*
X313150Y358543D01*
X313253Y358528D01*
X313341D01*
X313399Y358514D01*
X313458D01*
X313472Y358455D01*
X313487Y358367D01*
X313502Y358250D01*
X313531Y358119D01*
X313590Y357826D01*
X313648Y357518D01*
X313707Y357211D01*
X313736Y357064D01*
X313765Y356947D01*
X313780Y356845D01*
X313794Y356772D01*
X313809Y356713D01*
Y356698D01*
X313853Y356420D01*
X313912Y356142D01*
X313970Y355864D01*
X314014Y355615D01*
X314058Y355395D01*
X314073Y355308D01*
X314087Y355220D01*
X314102Y355161D01*
Y355117D01*
X314117Y355088D01*
Y355073D01*
X314175Y354737D01*
X314234Y354415D01*
X314278Y354122D01*
X314336Y353844D01*
X314365Y353624D01*
X314380Y353521D01*
X314395Y353448D01*
X314409Y353375D01*
X314424Y353331D01*
Y353302D01*
Y353287D01*
X314483Y352965D01*
X314527Y352658D01*
X314570Y352365D01*
X314614Y352116D01*
X314658Y351897D01*
X314673Y351809D01*
Y351735D01*
X314687Y351677D01*
X314702Y351633D01*
Y351604D01*
Y351589D01*
X314746Y351311D01*
X314775Y351062D01*
X314805Y350872D01*
X314819Y350711D01*
X314834Y350593D01*
X314849Y350506D01*
Y350462D01*
Y350447D01*
X314863Y350345D01*
Y350257D01*
Y350184D01*
X314878Y350140D01*
Y350096D01*
Y350081D01*
Y350066D01*
Y349993D01*
Y349979D01*
Y349964D01*
X314849Y349671D01*
X314790Y349422D01*
X314687Y349203D01*
X314570Y349012D01*
X314468Y348866D01*
X314365Y348749D01*
X314307Y348690D01*
X314278Y348661D01*
X314073Y348529D01*
X313853Y348427D01*
X313633Y348368D01*
X313443Y348310D01*
X313267Y348280D01*
X313121Y348266D01*
X313004D01*
X312784Y348280D01*
X312565Y348295D01*
X312155Y348368D01*
X311789Y348485D01*
X311481Y348603D01*
X311350Y348661D01*
X311218Y348720D01*
X311115Y348778D01*
X311028Y348837D01*
X310954Y348881D01*
X310910Y348910D01*
X310881Y348939D01*
X310866D01*
X310691Y349086D01*
X310530Y349232D01*
X310383Y349393D01*
X310266Y349539D01*
X310164Y349671D01*
X310076Y349774D01*
X310032Y349832D01*
X310017Y349862D01*
X309886Y350096D01*
X309769Y350330D01*
X309681Y350579D01*
X309593Y350813D01*
X309534Y351018D01*
X309490Y351179D01*
X309461Y351238D01*
Y351282D01*
X309446Y351311D01*
Y351325D01*
X309402Y351516D01*
X309359Y351721D01*
X309315Y351940D01*
X309256Y352189D01*
X309154Y352687D01*
X309051Y353199D01*
X309007Y353434D01*
X308963Y353653D01*
X308919Y353858D01*
X308890Y354034D01*
X308861Y354180D01*
X308832Y354297D01*
X308817Y354356D01*
Y354385D01*
X308744Y354707D01*
X308685Y355044D01*
X308627Y355366D01*
X308568Y355674D01*
X308524Y355937D01*
X308495Y356054D01*
X308480Y356157D01*
X308466Y356230D01*
Y356303D01*
X308451Y356332D01*
Y356347D01*
X308378Y356757D01*
X308305Y357138D01*
X308246Y357489D01*
X308187Y357782D01*
X308173Y357913D01*
X308143Y358016D01*
X308129Y358119D01*
X308114Y358206D01*
X308100Y358265D01*
X308085Y358309D01*
Y358338D01*
Y358353D01*
X308012Y358704D01*
X310149Y358572D01*
X310222Y358162D01*
X310281Y357782D01*
X310354Y357416D01*
X310413Y357064D01*
X310471Y356742D01*
X310530Y356435D01*
X310574Y356157D01*
X310632Y355908D01*
X310676Y355688D01*
X310705Y355483D01*
X310749Y355308D01*
X310764Y355176D01*
X310793Y355059D01*
X310808Y354985D01*
X310823Y354927D01*
Y354912D01*
X310866Y354707D01*
X310896Y354502D01*
X310940Y354312D01*
X310969Y354136D01*
X310998Y354005D01*
X311028Y353888D01*
X311042Y353829D01*
Y353800D01*
X311115Y353404D01*
X311145Y353229D01*
X311189Y353068D01*
X311203Y352936D01*
X311232Y352833D01*
X311247Y352775D01*
Y352746D01*
X311276Y352570D01*
X311320Y352409D01*
X311350Y352277D01*
X311364Y352175D01*
X311379Y352087D01*
X311393Y352028D01*
X311408Y351984D01*
Y351970D01*
X311452Y351765D01*
X311481Y351589D01*
X311496Y351516D01*
X311511Y351457D01*
X311525Y351428D01*
Y351413D01*
X311569Y351208D01*
X311628Y351033D01*
X311657Y350974D01*
X311672Y350916D01*
X311686Y350886D01*
Y350872D01*
X311774Y350696D01*
X311862Y350550D01*
X311891Y350491D01*
X311921Y350447D01*
X311935Y350432D01*
X311950Y350418D01*
X312008Y350359D01*
X312067Y350315D01*
X312184Y350257D01*
X312272Y350227D01*
X312301D01*
X312433Y350257D01*
X312535Y350301D01*
X312594Y350345D01*
X312623Y350374D01*
X312697Y350506D01*
X312726Y350637D01*
X312740Y350696D01*
Y350740D01*
Y350769D01*
Y350784D01*
Y350842D01*
X312726Y350916D01*
X312711Y351091D01*
X312682Y351296D01*
X312638Y351501D01*
X312594Y351692D01*
X312565Y351867D01*
X312550Y351926D01*
Y351970D01*
X312535Y351999D01*
Y352014D01*
X312521Y352087D01*
X312506Y352160D01*
X312462Y352365D01*
X312404Y352585D01*
X312360Y352819D01*
X312316Y353024D01*
X312272Y353214D01*
X312257Y353273D01*
Y353331D01*
X312243Y353361D01*
Y353375D01*
X312169Y353756D01*
X312125Y353931D01*
X312096Y354107D01*
X312067Y354254D01*
X312038Y354356D01*
X312023Y354429D01*
Y354458D01*
X311965Y354693D01*
X311921Y354956D01*
X311862Y355234D01*
X311803Y355483D01*
X311759Y355703D01*
X311730Y355805D01*
X311716Y355893D01*
X311701Y355952D01*
Y356010D01*
X311686Y356040D01*
Y356054D01*
X311642Y356245D01*
X311598Y356450D01*
X311511Y356889D01*
X311423Y357343D01*
X311335Y357767D01*
X311291Y357972D01*
X311247Y358148D01*
X311218Y358309D01*
X311189Y358455D01*
X311159Y358572D01*
X311145Y358660D01*
X311130Y358719D01*
Y358733D01*
X311437Y358704D01*
D02*
G37*
G36*
X295319Y358777D02*
X295699Y358704D01*
X296051Y358602D01*
X296344Y358485D01*
X296475Y358426D01*
X296592Y358367D01*
X296695Y358309D01*
X296783Y358265D01*
X296856Y358221D01*
X296900Y358192D01*
X296929Y358177D01*
X296944Y358162D01*
X297266Y357913D01*
X297573Y357635D01*
X297837Y357357D01*
X298071Y357094D01*
X298247Y356859D01*
X298335Y356772D01*
X298393Y356684D01*
X298437Y356611D01*
X298481Y356552D01*
X298496Y356523D01*
X298510Y356508D01*
X298745Y356113D01*
X298950Y355717D01*
X299125Y355322D01*
X299272Y354956D01*
X299330Y354795D01*
X299389Y354649D01*
X299433Y354517D01*
X299462Y354400D01*
X299491Y354312D01*
X299520Y354239D01*
X299535Y354195D01*
Y354180D01*
X299652Y353697D01*
X299740Y353214D01*
X299813Y352760D01*
X299843Y352555D01*
X299857Y352365D01*
X299872Y352175D01*
X299886Y352014D01*
Y351867D01*
X299901Y351735D01*
Y351633D01*
Y351560D01*
Y351516D01*
Y351501D01*
X299872Y351003D01*
X299813Y350564D01*
X299769Y350359D01*
X299711Y350184D01*
X299667Y350008D01*
X299608Y349862D01*
X299550Y349730D01*
X299506Y349598D01*
X299447Y349496D01*
X299403Y349422D01*
X299374Y349349D01*
X299345Y349305D01*
X299316Y349276D01*
Y349261D01*
X299213Y349130D01*
X299096Y349012D01*
X298979Y348895D01*
X298862Y348807D01*
X298627Y348676D01*
X298408Y348588D01*
X298203Y348529D01*
X298042Y348500D01*
X297983Y348485D01*
X297895D01*
X297720Y348500D01*
X297544Y348515D01*
X297207Y348603D01*
X296900Y348720D01*
X296622Y348851D01*
X296388Y348983D01*
X296285Y349042D01*
X296212Y349100D01*
X296139Y349144D01*
X296095Y349188D01*
X296065Y349203D01*
X296051Y349217D01*
X295699Y349569D01*
X295377Y349935D01*
X295099Y350330D01*
X294865Y350696D01*
X294777Y350857D01*
X294689Y351018D01*
X294616Y351165D01*
X294557Y351282D01*
X294499Y351384D01*
X294470Y351457D01*
X294440Y351501D01*
Y351516D01*
X296051Y352175D01*
X296095Y351999D01*
X296168Y351838D01*
X296241Y351677D01*
X296329Y351545D01*
X296402Y351428D01*
X296475Y351340D01*
X296519Y351282D01*
X296534Y351267D01*
X296680Y351121D01*
X296812Y351018D01*
X296944Y350930D01*
X297046Y350886D01*
X297134Y350857D01*
X297207Y350842D01*
X297251Y350828D01*
X297266D01*
X297339Y350842D01*
X297412Y350857D01*
X297515Y350945D01*
X297588Y351047D01*
X297632Y351179D01*
X297661Y351311D01*
X297691Y351428D01*
Y351501D01*
Y351516D01*
Y351531D01*
X297676Y351823D01*
X297632Y352131D01*
X297573Y352438D01*
X297500Y352731D01*
X297427Y352994D01*
X297398Y353112D01*
X297368Y353214D01*
X297339Y353287D01*
X297324Y353361D01*
X297310Y353390D01*
Y353404D01*
X297178Y353785D01*
X297119Y353961D01*
X297061Y354122D01*
X297002Y354254D01*
X296958Y354356D01*
X296944Y354415D01*
X296929Y354444D01*
X296841Y354634D01*
X296768Y354810D01*
X296695Y354971D01*
X296622Y355117D01*
X296563Y355220D01*
X296519Y355308D01*
X296490Y355366D01*
X296475Y355381D01*
X296388Y355527D01*
X296285Y355659D01*
X296212Y355776D01*
X296139Y355879D01*
X296065Y355952D01*
X296022Y356010D01*
X295992Y356040D01*
X295978Y356054D01*
X295890Y356142D01*
X295802Y356201D01*
X295714Y356259D01*
X295655Y356289D01*
X295597Y356303D01*
X295553Y356318D01*
X295509D01*
X295421Y356303D01*
X295348Y356259D01*
X295275Y356201D01*
X295216Y356142D01*
X295172Y356083D01*
X295143Y356025D01*
X295114Y355981D01*
Y355966D01*
X293269Y356464D01*
X293255Y356537D01*
Y356596D01*
Y356625D01*
Y356640D01*
Y356816D01*
X293269Y357138D01*
X293328Y357430D01*
X293401Y357679D01*
X293489Y357884D01*
X293591Y358045D01*
X293665Y358162D01*
X293723Y358236D01*
X293738Y358265D01*
X293928Y358441D01*
X294133Y358572D01*
X294323Y358675D01*
X294514Y358733D01*
X294675Y358777D01*
X294806Y358792D01*
X294894Y358807D01*
X295128D01*
X295319Y358777D01*
D02*
G37*
G36*
X365024Y319939D02*
X365376Y319910D01*
X365727Y319861D01*
X366059Y319822D01*
X366215Y319793D01*
X366352Y319773D01*
X366479Y319744D01*
X366586Y319725D01*
X366674Y319715D01*
X366742Y319695D01*
X366781Y319686D01*
X366801D01*
X366898Y319061D01*
X366947Y318749D01*
X366986Y318446D01*
X367035Y318163D01*
X367074Y317880D01*
X367113Y317617D01*
X367152Y317372D01*
X367191Y317148D01*
X367220Y316943D01*
X367250Y316767D01*
X367269Y316611D01*
X367289Y316494D01*
X367308Y316406D01*
X367318Y316348D01*
Y316338D01*
Y316328D01*
X367425Y315704D01*
X367484Y315401D01*
X367542Y315108D01*
X367601Y314815D01*
X367659Y314542D01*
X367708Y314288D01*
X367767Y314044D01*
X367816Y313820D01*
X367864Y313625D01*
X367913Y313439D01*
X367952Y313293D01*
X367982Y313176D01*
X368001Y313088D01*
X368011Y313029D01*
X368021Y313010D01*
X367796Y312990D01*
X367689Y312981D01*
X367591D01*
X367513Y312971D01*
X367386D01*
X367074Y312981D01*
X366781Y313010D01*
X366508Y313059D01*
X366264Y313107D01*
X366157Y313127D01*
X366059Y313146D01*
X365971Y313176D01*
X365903Y313195D01*
X365844Y313215D01*
X365805Y313225D01*
X365776Y313234D01*
X365766D01*
X365620Y313293D01*
X365473Y313342D01*
X365346Y313400D01*
X365239Y313449D01*
X365141Y313498D01*
X365063Y313537D01*
X365024Y313556D01*
X365005Y313566D01*
X364868Y313644D01*
X364751Y313722D01*
X364644Y313800D01*
X364546Y313878D01*
X364478Y313937D01*
X364419Y313986D01*
X364380Y314025D01*
X364370Y314035D01*
X364273Y314142D01*
X364185Y314249D01*
X364117Y314347D01*
X364048Y314444D01*
X364009Y314523D01*
X363970Y314581D01*
X363951Y314630D01*
X363941Y314640D01*
X363882Y314767D01*
X363843Y314884D01*
X363814Y314991D01*
X363795Y315098D01*
X363785Y315177D01*
X363775Y315245D01*
Y315294D01*
Y315303D01*
X363785Y315479D01*
X363804Y315645D01*
X363843Y315791D01*
X363892Y315938D01*
X363951Y316065D01*
X364009Y316182D01*
X364078Y316289D01*
X364146Y316377D01*
X364224Y316465D01*
X364292Y316533D01*
X364351Y316592D01*
X364409Y316640D01*
X364458Y316680D01*
X364497Y316709D01*
X364517Y316719D01*
X364527Y316728D01*
X364341Y316816D01*
X364165Y316923D01*
X364019Y317041D01*
X363882Y317158D01*
X363775Y317265D01*
X363697Y317353D01*
X363648Y317421D01*
X363629Y317431D01*
Y317441D01*
X363502Y317636D01*
X363453Y317734D01*
X363414Y317821D01*
X363375Y317899D01*
X363355Y317958D01*
X363336Y317997D01*
Y318007D01*
X363297Y318124D01*
X363267Y318241D01*
X363248Y318358D01*
X363229Y318466D01*
Y318553D01*
X363219Y318622D01*
Y318661D01*
Y318680D01*
X363229Y318807D01*
X363238Y318924D01*
X363267Y319032D01*
X363287Y319120D01*
X363316Y319198D01*
X363346Y319246D01*
X363355Y319285D01*
X363365Y319295D01*
X363443Y319412D01*
X363531Y319510D01*
X363629Y319598D01*
X363726Y319676D01*
X363843Y319734D01*
X363951Y319793D01*
X364175Y319871D01*
X364380Y319910D01*
X364468Y319930D01*
X364546Y319939D01*
X364614Y319949D01*
X364858D01*
X365024Y319939D01*
D02*
G37*
G36*
X318996Y319851D02*
X319143Y319832D01*
X319289Y319803D01*
X319426Y319773D01*
X319543Y319734D01*
X319640Y319705D01*
X319679Y319695D01*
X319709Y319686D01*
X319718Y319676D01*
X319728D01*
X319914Y319607D01*
X320099Y319529D01*
X320255Y319442D01*
X320402Y319363D01*
X320519Y319295D01*
X320607Y319237D01*
X320665Y319198D01*
X320675Y319188D01*
X320685D01*
X320841Y319071D01*
X320987Y318944D01*
X321104Y318827D01*
X321212Y318710D01*
X321300Y318612D01*
X321368Y318534D01*
X321407Y318485D01*
X321417Y318475D01*
Y318466D01*
X321514Y318309D01*
X321583Y318144D01*
X321631Y317987D01*
X321661Y317841D01*
X321680Y317724D01*
X321700Y317626D01*
Y317587D01*
Y317558D01*
Y317548D01*
Y317538D01*
X321690Y317441D01*
X321680Y317353D01*
X321622Y317177D01*
X321534Y317011D01*
X321436Y316865D01*
X321348Y316748D01*
X321260Y316650D01*
X321202Y316592D01*
X321192Y316582D01*
X321182Y316572D01*
X321026Y316436D01*
X320880Y316309D01*
X320812Y316260D01*
X320763Y316221D01*
X320733Y316201D01*
X320724Y316192D01*
X320538Y316065D01*
X320460Y316006D01*
X320392Y315948D01*
X320333Y315909D01*
X320294Y315869D01*
X320265Y315850D01*
X320255Y315840D01*
X320109Y315713D01*
X320050Y315645D01*
X319992Y315586D01*
X319953Y315538D01*
X319923Y315499D01*
X319904Y315479D01*
X319894Y315469D01*
X319845Y315401D01*
X319806Y315323D01*
X319787Y315255D01*
X319767Y315186D01*
X319757Y315137D01*
X319748Y315089D01*
Y315059D01*
Y315050D01*
X319757Y314962D01*
X319787Y314893D01*
X319816Y314825D01*
X319855Y314767D01*
X319904Y314718D01*
X319933Y314679D01*
X319962Y314659D01*
X319972Y314649D01*
X320050Y314601D01*
X320119Y314562D01*
X320177Y314542D01*
X320187Y314532D01*
X320197D01*
X320294Y314513D01*
X320402Y314503D01*
X320509D01*
X320587Y314513D01*
X320665Y314532D01*
X320763Y314571D01*
X320851Y314610D01*
X320929Y314649D01*
X320997Y314688D01*
X321036Y314708D01*
X321056Y314718D01*
X321182Y314796D01*
X321290Y314884D01*
X321378Y314962D01*
X321446Y315030D01*
X321495Y315098D01*
X321524Y315147D01*
X321544Y315177D01*
X321553Y315186D01*
X322246Y313820D01*
X322119Y313673D01*
X321992Y313547D01*
X321866Y313439D01*
X321739Y313342D01*
X321612Y313264D01*
X321485Y313195D01*
X321368Y313137D01*
X321260Y313098D01*
X321153Y313059D01*
X321065Y313039D01*
X320977Y313019D01*
X320909Y313000D01*
X320851D01*
X320812Y312990D01*
X320773D01*
X320567Y313000D01*
X320382Y313019D01*
X320197Y313049D01*
X320031Y313088D01*
X319865Y313137D01*
X319718Y313185D01*
X319582Y313244D01*
X319455Y313303D01*
X319348Y313361D01*
X319250Y313420D01*
X319162Y313469D01*
X319094Y313517D01*
X319035Y313556D01*
X318996Y313586D01*
X318977Y313605D01*
X318967Y313615D01*
X318830Y313742D01*
X318723Y313878D01*
X318616Y314025D01*
X318528Y314161D01*
X318459Y314308D01*
X318401Y314444D01*
X318352Y314581D01*
X318313Y314718D01*
X318274Y314845D01*
X318254Y314952D01*
X318235Y315059D01*
X318225Y315147D01*
X318215Y315215D01*
Y315264D01*
Y315303D01*
Y315313D01*
Y315469D01*
X318235Y315616D01*
X318284Y315889D01*
X318352Y316123D01*
X318391Y316231D01*
X318430Y316328D01*
X318479Y316406D01*
X318518Y316484D01*
X318557Y316543D01*
X318586Y316592D01*
X318616Y316640D01*
X318635Y316670D01*
X318645Y316680D01*
X318655Y316689D01*
X318801Y316826D01*
X318928Y316933D01*
X318986Y316972D01*
X319025Y317011D01*
X319055Y317021D01*
X319064Y317031D01*
X319221Y317128D01*
X319289Y317177D01*
X319357Y317216D01*
X319406Y317246D01*
X319445Y317275D01*
X319465Y317285D01*
X319474Y317294D01*
X319601Y317392D01*
X319699Y317490D01*
X319738Y317529D01*
X319767Y317548D01*
X319777Y317568D01*
X319787Y317577D01*
X319826Y317636D01*
X319855Y317704D01*
X319894Y317841D01*
X319904Y317890D01*
X319914Y317939D01*
Y317968D01*
Y317978D01*
X319904Y318065D01*
X319875Y318153D01*
X319835Y318231D01*
X319787Y318290D01*
X319738Y318349D01*
X319699Y318388D01*
X319670Y318417D01*
X319660Y318427D01*
X319582Y318495D01*
X319513Y318534D01*
X319465Y318563D01*
X319445Y318573D01*
X319357Y318612D01*
X319289Y318622D01*
X319240Y318632D01*
X319221D01*
X319182Y318622D01*
X319133Y318612D01*
X319064Y318573D01*
X319025Y318524D01*
X319006Y318514D01*
Y318505D01*
X318967Y318456D01*
X318947Y318407D01*
X318908Y318300D01*
Y318251D01*
X318899Y318222D01*
Y318192D01*
Y318183D01*
X318908Y318036D01*
X318918Y317909D01*
X318928Y317861D01*
X318938Y317821D01*
X318947Y317802D01*
Y317792D01*
X317591Y318192D01*
X317571Y318300D01*
X317561Y318397D01*
X317552Y318456D01*
Y318466D01*
Y318475D01*
X317532Y318573D01*
X317522Y318651D01*
Y318719D01*
Y318729D01*
Y318739D01*
X317542Y318944D01*
X317581Y319120D01*
X317639Y319266D01*
X317698Y319393D01*
X317766Y319481D01*
X317825Y319549D01*
X317864Y319598D01*
X317883Y319607D01*
X318010Y319686D01*
X318137Y319744D01*
X318196Y319764D01*
X318235Y319783D01*
X318264Y319793D01*
X318274D01*
X318362Y319812D01*
X318459Y319832D01*
X318557Y319842D01*
X318655Y319851D01*
X318733Y319861D01*
X318860D01*
X318996Y319851D01*
D02*
G37*
G36*
X353625D02*
X353771Y319832D01*
X353917Y319803D01*
X354054Y319773D01*
X354171Y319734D01*
X354269Y319705D01*
X354308Y319695D01*
X354337Y319686D01*
X354347Y319676D01*
X354357D01*
X354542Y319607D01*
X354728Y319529D01*
X354884Y319442D01*
X355030Y319363D01*
X355147Y319295D01*
X355235Y319237D01*
X355294Y319198D01*
X355303Y319188D01*
X355313D01*
X355469Y319071D01*
X355616Y318944D01*
X355733Y318827D01*
X355840Y318710D01*
X355928Y318612D01*
X355996Y318534D01*
X356035Y318485D01*
X356045Y318475D01*
Y318466D01*
X356143Y318309D01*
X356211Y318144D01*
X356260Y317987D01*
X356289Y317841D01*
X356309Y317724D01*
X356328Y317626D01*
Y317587D01*
Y317558D01*
Y317548D01*
Y317538D01*
X356318Y317441D01*
X356309Y317353D01*
X356250Y317177D01*
X356162Y317011D01*
X356065Y316865D01*
X355977Y316748D01*
X355889Y316650D01*
X355830Y316592D01*
X355821Y316582D01*
X355811Y316572D01*
X355655Y316436D01*
X355508Y316309D01*
X355440Y316260D01*
X355391Y316221D01*
X355362Y316201D01*
X355352Y316192D01*
X355167Y316065D01*
X355089Y316006D01*
X355020Y315948D01*
X354962Y315909D01*
X354923Y315869D01*
X354893Y315850D01*
X354884Y315840D01*
X354737Y315713D01*
X354679Y315645D01*
X354620Y315586D01*
X354581Y315538D01*
X354552Y315499D01*
X354532Y315479D01*
X354523Y315469D01*
X354474Y315401D01*
X354435Y315323D01*
X354415Y315255D01*
X354396Y315186D01*
X354386Y315137D01*
X354376Y315089D01*
Y315059D01*
Y315050D01*
X354386Y314962D01*
X354415Y314893D01*
X354445Y314825D01*
X354484Y314767D01*
X354532Y314718D01*
X354562Y314679D01*
X354591Y314659D01*
X354601Y314649D01*
X354679Y314601D01*
X354747Y314562D01*
X354806Y314542D01*
X354815Y314532D01*
X354825D01*
X354923Y314513D01*
X355030Y314503D01*
X355137D01*
X355216Y314513D01*
X355294Y314532D01*
X355391Y314571D01*
X355479Y314610D01*
X355557Y314649D01*
X355625Y314688D01*
X355664Y314708D01*
X355684Y314718D01*
X355811Y314796D01*
X355918Y314884D01*
X356006Y314962D01*
X356074Y315030D01*
X356123Y315098D01*
X356153Y315147D01*
X356172Y315177D01*
X356182Y315186D01*
X356875Y313820D01*
X356748Y313673D01*
X356621Y313547D01*
X356494Y313439D01*
X356367Y313342D01*
X356240Y313264D01*
X356113Y313195D01*
X355996Y313137D01*
X355889Y313098D01*
X355782Y313059D01*
X355694Y313039D01*
X355606Y313019D01*
X355538Y313000D01*
X355479D01*
X355440Y312990D01*
X355401D01*
X355196Y313000D01*
X355011Y313019D01*
X354825Y313049D01*
X354659Y313088D01*
X354493Y313137D01*
X354347Y313185D01*
X354210Y313244D01*
X354083Y313303D01*
X353976Y313361D01*
X353878Y313420D01*
X353791Y313469D01*
X353722Y313517D01*
X353664Y313556D01*
X353625Y313586D01*
X353605Y313605D01*
X353595Y313615D01*
X353459Y313742D01*
X353351Y313878D01*
X353244Y314025D01*
X353156Y314161D01*
X353088Y314308D01*
X353029Y314444D01*
X352980Y314581D01*
X352941Y314718D01*
X352902Y314845D01*
X352883Y314952D01*
X352863Y315059D01*
X352854Y315147D01*
X352844Y315215D01*
Y315264D01*
Y315303D01*
Y315313D01*
Y315469D01*
X352863Y315616D01*
X352912Y315889D01*
X352980Y316123D01*
X353019Y316231D01*
X353059Y316328D01*
X353107Y316406D01*
X353146Y316484D01*
X353185Y316543D01*
X353215Y316592D01*
X353244Y316640D01*
X353263Y316670D01*
X353273Y316680D01*
X353283Y316689D01*
X353429Y316826D01*
X353556Y316933D01*
X353615Y316972D01*
X353654Y317011D01*
X353683Y317021D01*
X353693Y317031D01*
X353849Y317128D01*
X353917Y317177D01*
X353986Y317216D01*
X354035Y317246D01*
X354074Y317275D01*
X354093Y317285D01*
X354103Y317294D01*
X354230Y317392D01*
X354327Y317490D01*
X354366Y317529D01*
X354396Y317548D01*
X354405Y317568D01*
X354415Y317577D01*
X354454Y317636D01*
X354484Y317704D01*
X354523Y317841D01*
X354532Y317890D01*
X354542Y317939D01*
Y317968D01*
Y317978D01*
X354532Y318065D01*
X354503Y318153D01*
X354464Y318231D01*
X354415Y318290D01*
X354366Y318349D01*
X354327Y318388D01*
X354298Y318417D01*
X354288Y318427D01*
X354210Y318495D01*
X354142Y318534D01*
X354093Y318563D01*
X354074Y318573D01*
X353986Y318612D01*
X353917Y318622D01*
X353869Y318632D01*
X353849D01*
X353810Y318622D01*
X353761Y318612D01*
X353693Y318573D01*
X353654Y318524D01*
X353634Y318514D01*
Y318505D01*
X353595Y318456D01*
X353576Y318407D01*
X353537Y318300D01*
Y318251D01*
X353527Y318222D01*
Y318192D01*
Y318183D01*
X353537Y318036D01*
X353547Y317909D01*
X353556Y317861D01*
X353566Y317821D01*
X353576Y317802D01*
Y317792D01*
X352219Y318192D01*
X352200Y318300D01*
X352190Y318397D01*
X352180Y318456D01*
Y318466D01*
Y318475D01*
X352161Y318573D01*
X352151Y318651D01*
Y318719D01*
Y318729D01*
Y318739D01*
X352170Y318944D01*
X352209Y319120D01*
X352268Y319266D01*
X352327Y319393D01*
X352395Y319481D01*
X352453Y319549D01*
X352492Y319598D01*
X352512Y319607D01*
X352639Y319686D01*
X352766Y319744D01*
X352824Y319764D01*
X352863Y319783D01*
X352893Y319793D01*
X352902D01*
X352990Y319812D01*
X353088Y319832D01*
X353185Y319842D01*
X353283Y319851D01*
X353361Y319861D01*
X353488D01*
X353625Y319851D01*
D02*
G37*
G36*
X380845Y321013D02*
X381089Y320789D01*
X381304Y320574D01*
X381489Y320379D01*
X381636Y320213D01*
X381704Y320135D01*
X381753Y320076D01*
X381792Y320027D01*
X381821Y319988D01*
X381841Y319969D01*
X381851Y319959D01*
X382143Y319568D01*
X382397Y319168D01*
X382612Y318768D01*
X382807Y318368D01*
X382963Y317978D01*
X383100Y317597D01*
X383207Y317226D01*
X383295Y316884D01*
X383363Y316562D01*
X383412Y316260D01*
X383451Y316006D01*
X383461Y315889D01*
X383471Y315782D01*
X383481Y315684D01*
X383490Y315596D01*
Y315528D01*
X383500Y315469D01*
Y315421D01*
Y315381D01*
Y315362D01*
Y315352D01*
X383490Y315108D01*
X383481Y314864D01*
X383451Y314640D01*
X383422Y314415D01*
X383383Y314210D01*
X383334Y314015D01*
X383285Y313839D01*
X383237Y313673D01*
X383197Y313517D01*
X383149Y313390D01*
X383100Y313273D01*
X383061Y313176D01*
X383032Y313098D01*
X383002Y313049D01*
X382993Y313010D01*
X382983Y313000D01*
X382895Y312834D01*
X382797Y312688D01*
X382700Y312541D01*
X382602Y312414D01*
X382505Y312297D01*
X382397Y312200D01*
X382299Y312102D01*
X382212Y312024D01*
X382124Y311946D01*
X382036Y311887D01*
X381968Y311839D01*
X381909Y311790D01*
X381851Y311760D01*
X381811Y311741D01*
X381792Y311721D01*
X381782D01*
X380553Y312844D01*
X380650Y312893D01*
X380738Y312961D01*
X380914Y313098D01*
X381070Y313264D01*
X381206Y313420D01*
X381324Y313576D01*
X381363Y313634D01*
X381402Y313693D01*
X381441Y313742D01*
X381460Y313781D01*
X381470Y313800D01*
X381480Y313810D01*
X381568Y313956D01*
X381636Y314113D01*
X381704Y314259D01*
X381753Y314405D01*
X381841Y314679D01*
X381899Y314923D01*
X381919Y315030D01*
X381929Y315128D01*
X381938Y315215D01*
X381948Y315294D01*
X381958Y315352D01*
Y315391D01*
Y315421D01*
Y315430D01*
X381948Y315665D01*
X381929Y315899D01*
X381890Y316133D01*
X381851Y316357D01*
X381792Y316582D01*
X381724Y316806D01*
X381558Y317226D01*
X381363Y317636D01*
X381148Y318026D01*
X380914Y318388D01*
X380679Y318719D01*
X380445Y319022D01*
X380211Y319295D01*
X379996Y319539D01*
X379889Y319647D01*
X379801Y319734D01*
X379713Y319822D01*
X379635Y319900D01*
X379567Y319969D01*
X379508Y320017D01*
X379459Y320057D01*
X379430Y320086D01*
X379411Y320105D01*
X379401Y320115D01*
X380592Y321237D01*
X380845Y321013D01*
D02*
G37*
G36*
X362282Y358880D02*
X362648Y358821D01*
X363014Y358748D01*
X363395Y358675D01*
X363556Y358631D01*
X363717Y358587D01*
X363863Y358543D01*
X363995Y358514D01*
X364097Y358485D01*
X364171Y358455D01*
X364229Y358441D01*
X364244D01*
X364302Y358104D01*
X364361Y357752D01*
X364478Y357006D01*
X364625Y356215D01*
X364786Y355395D01*
X365108Y353741D01*
X365269Y352936D01*
X365430Y352145D01*
X365576Y351399D01*
X365649Y351047D01*
X365723Y350711D01*
X365796Y350403D01*
X365854Y350096D01*
X365913Y349818D01*
X365971Y349554D01*
X366030Y349320D01*
X366074Y349115D01*
X366103Y348939D01*
X366147Y348778D01*
X366176Y348661D01*
X366191Y348573D01*
X366206Y348515D01*
Y348500D01*
X363790Y348954D01*
X363732Y349335D01*
X363673Y349686D01*
X363629Y350023D01*
X363570Y350330D01*
X363527Y350623D01*
X363468Y350886D01*
X363424Y351121D01*
X363395Y351340D01*
X363351Y351531D01*
X363322Y351706D01*
X363292Y351838D01*
X363263Y351955D01*
X363248Y352058D01*
X363234Y352116D01*
X363219Y352160D01*
Y352175D01*
X363073D01*
X362824Y352189D01*
X362590Y352233D01*
X362370Y352277D01*
X362165Y352350D01*
X362004Y352409D01*
X361872Y352453D01*
X361799Y352497D01*
X361770Y352511D01*
X361536Y352643D01*
X361331Y352789D01*
X361140Y352951D01*
X360965Y353097D01*
X360833Y353214D01*
X360745Y353331D01*
X360672Y353390D01*
X360657Y353419D01*
X360481Y353639D01*
X360335Y353858D01*
X360203Y354078D01*
X360086Y354283D01*
X359998Y354458D01*
X359940Y354605D01*
X359896Y354693D01*
X359881Y354707D01*
Y354722D01*
X359781Y354993D01*
X359705Y354766D01*
X359574Y354517D01*
X359427Y354297D01*
X359296Y354122D01*
X359164Y353975D01*
X359076Y353888D01*
X359061Y353873D01*
X359047Y353858D01*
X358812Y353653D01*
X358593Y353463D01*
X358490Y353390D01*
X358417Y353331D01*
X358373Y353302D01*
X358359Y353287D01*
X358081Y353097D01*
X357963Y353009D01*
X357861Y352921D01*
X357773Y352863D01*
X357715Y352804D01*
X357671Y352775D01*
X357656Y352760D01*
X357436Y352570D01*
X357348Y352467D01*
X357261Y352380D01*
X357202Y352306D01*
X357158Y352248D01*
X357129Y352219D01*
X357114Y352204D01*
X357041Y352101D01*
X356982Y351984D01*
X356953Y351882D01*
X356924Y351779D01*
X356909Y351706D01*
X356895Y351633D01*
Y351589D01*
Y351574D01*
X356909Y351443D01*
X356953Y351340D01*
X356997Y351238D01*
X357056Y351150D01*
X357129Y351077D01*
X357173Y351018D01*
X357217Y350989D01*
X357231Y350974D01*
X357348Y350901D01*
X357451Y350842D01*
X357539Y350813D01*
X357553Y350799D01*
X357568D01*
X357715Y350769D01*
X357875Y350755D01*
X358037D01*
X358154Y350769D01*
X358271Y350799D01*
X358417Y350857D01*
X358549Y350916D01*
X358666Y350974D01*
X358769Y351033D01*
X358827Y351062D01*
X358856Y351077D01*
X359047Y351194D01*
X359208Y351325D01*
X359339Y351443D01*
X359442Y351545D01*
X359515Y351648D01*
X359559Y351721D01*
X359588Y351765D01*
X359603Y351779D01*
X360643Y349730D01*
X360452Y349510D01*
X360262Y349320D01*
X360071Y349159D01*
X359881Y349012D01*
X359691Y348895D01*
X359501Y348793D01*
X359325Y348705D01*
X359164Y348646D01*
X359003Y348588D01*
X358871Y348559D01*
X358739Y348529D01*
X358637Y348500D01*
X358549D01*
X358490Y348485D01*
X358432D01*
X358124Y348500D01*
X357846Y348529D01*
X357568Y348573D01*
X357319Y348632D01*
X357070Y348705D01*
X356851Y348778D01*
X356646Y348866D01*
X356455Y348954D01*
X356294Y349042D01*
X356148Y349130D01*
X356016Y349203D01*
X355914Y349276D01*
X355826Y349335D01*
X355767Y349378D01*
X355738Y349408D01*
X355723Y349422D01*
X355519Y349613D01*
X355357Y349818D01*
X355196Y350037D01*
X355065Y350242D01*
X354962Y350462D01*
X354874Y350667D01*
X354801Y350872D01*
X354743Y351077D01*
X354684Y351267D01*
X354655Y351428D01*
X354625Y351589D01*
X354611Y351721D01*
X354596Y351823D01*
Y351897D01*
Y351955D01*
Y351970D01*
Y352204D01*
X354625Y352424D01*
X354699Y352833D01*
X354801Y353185D01*
X354860Y353346D01*
X354918Y353492D01*
X354991Y353609D01*
X355050Y353727D01*
X355109Y353814D01*
X355153Y353888D01*
X355196Y353961D01*
X355226Y354005D01*
X355240Y354019D01*
X355255Y354034D01*
X355475Y354239D01*
X355665Y354400D01*
X355753Y354458D01*
X355811Y354517D01*
X355855Y354532D01*
X355870Y354546D01*
X356104Y354693D01*
X356207Y354766D01*
X356309Y354824D01*
X356382Y354868D01*
X356441Y354912D01*
X356470Y354927D01*
X356485Y354942D01*
X356675Y355088D01*
X356821Y355234D01*
X356880Y355293D01*
X356924Y355322D01*
X356939Y355351D01*
X356953Y355366D01*
X357012Y355454D01*
X357056Y355557D01*
X357114Y355761D01*
X357129Y355835D01*
X357143Y355908D01*
Y355952D01*
Y355966D01*
X357129Y356098D01*
X357085Y356230D01*
X357026Y356347D01*
X356953Y356435D01*
X356880Y356523D01*
X356821Y356581D01*
X356778Y356625D01*
X356763Y356640D01*
X356646Y356742D01*
X356543Y356801D01*
X356470Y356845D01*
X356441Y356859D01*
X356309Y356918D01*
X356207Y356933D01*
X356133Y356947D01*
X356104D01*
X356046Y356933D01*
X355972Y356918D01*
X355870Y356859D01*
X355811Y356786D01*
X355782Y356772D01*
Y356757D01*
X355723Y356684D01*
X355694Y356611D01*
X355636Y356450D01*
Y356376D01*
X355621Y356332D01*
Y356289D01*
Y356274D01*
X355636Y356054D01*
X355650Y355864D01*
X355665Y355791D01*
X355679Y355732D01*
X355694Y355703D01*
Y355688D01*
X353659Y356289D01*
X353630Y356450D01*
X353615Y356596D01*
X353601Y356684D01*
Y356698D01*
Y356713D01*
X353571Y356859D01*
X353557Y356977D01*
Y357079D01*
Y357094D01*
Y357108D01*
X353586Y357416D01*
X353645Y357679D01*
X353732Y357899D01*
X353820Y358089D01*
X353923Y358221D01*
X354011Y358323D01*
X354069Y358397D01*
X354098Y358411D01*
X354289Y358528D01*
X354479Y358616D01*
X354567Y358646D01*
X354625Y358675D01*
X354669Y358689D01*
X354684D01*
X354816Y358719D01*
X354962Y358748D01*
X355109Y358763D01*
X355255Y358777D01*
X355372Y358792D01*
X355562D01*
X355767Y358777D01*
X355987Y358748D01*
X356207Y358704D01*
X356412Y358660D01*
X356587Y358602D01*
X356734Y358558D01*
X356792Y358543D01*
X356836Y358528D01*
X356851Y358514D01*
X356865D01*
X357143Y358411D01*
X357422Y358294D01*
X357656Y358162D01*
X357875Y358045D01*
X358051Y357943D01*
X358183Y357855D01*
X358271Y357796D01*
X358285Y357782D01*
X358300D01*
X358534Y357606D01*
X358754Y357416D01*
X358930Y357240D01*
X359091Y357064D01*
X359222Y356918D01*
X359325Y356801D01*
X359383Y356728D01*
X359398Y356713D01*
Y356698D01*
X359544Y356464D01*
X359592Y356349D01*
X359603Y356684D01*
X359662Y357050D01*
X359735Y357372D01*
X359823Y357650D01*
X359925Y357855D01*
X359954Y357928D01*
X359998Y358001D01*
X360028Y358045D01*
X360057Y358089D01*
X360071Y358119D01*
X360189Y358250D01*
X360306Y358353D01*
X360423Y358455D01*
X360540Y358528D01*
X360628Y358587D01*
X360716Y358631D01*
X360774Y358660D01*
X360789Y358675D01*
X360965Y358748D01*
X361155Y358807D01*
X361345Y358836D01*
X361536Y358865D01*
X361711Y358880D01*
X361843Y358894D01*
X362121D01*
X362282Y358880D01*
D02*
G37*
G36*
X370378Y358689D02*
X371052Y358631D01*
X371374Y358602D01*
X371681Y358587D01*
X371974Y358572D01*
X372252Y358558D01*
X372501Y358543D01*
X372940D01*
X373116Y358528D01*
X373716D01*
X373979Y358543D01*
X374214D01*
X374433Y358558D01*
X374624Y358572D01*
X374770D01*
X374814Y358587D01*
X374887D01*
X374960Y356786D01*
X374711Y356728D01*
X374609Y356713D01*
X374507Y356698D01*
X373936D01*
X373833Y356684D01*
X373745D01*
X373687Y356669D01*
X373628D01*
X373716Y356083D01*
X373804Y355469D01*
X373921Y354824D01*
X374023Y354151D01*
X374272Y352789D01*
X374404Y352116D01*
X374536Y351472D01*
X374653Y350872D01*
X374755Y350301D01*
X374814Y350052D01*
X374873Y349803D01*
X374917Y349569D01*
X374960Y349364D01*
X374990Y349173D01*
X375034Y348998D01*
X375063Y348851D01*
X375092Y348734D01*
X375107Y348632D01*
X375121Y348559D01*
X375136Y348515D01*
Y348500D01*
X372603Y348881D01*
X372559Y349203D01*
X372501Y349554D01*
X372457Y349935D01*
X372384Y350345D01*
X372267Y351179D01*
X372193Y351589D01*
X372135Y351999D01*
X372076Y352394D01*
X372018Y352746D01*
X371959Y353082D01*
X371915Y353361D01*
X371886Y353595D01*
X371871Y353697D01*
X371857Y353785D01*
X371842Y353844D01*
X371827Y353888D01*
Y353917D01*
Y353931D01*
X371740Y354488D01*
X371696Y354751D01*
X371637Y355000D01*
X371608Y355234D01*
X371564Y355454D01*
X371520Y355659D01*
X371491Y355835D01*
X371447Y355996D01*
X371417Y356142D01*
X371388Y356274D01*
X371374Y356376D01*
X371359Y356464D01*
X371344Y356523D01*
X371330Y356552D01*
Y356567D01*
X371110Y356596D01*
X370905Y356625D01*
X370832D01*
X370773Y356640D01*
X370715D01*
X370481Y356684D01*
X370378Y356698D01*
X370276Y356728D01*
X370202Y356742D01*
X370144Y356757D01*
X370100Y356772D01*
X370085D01*
X370041Y356962D01*
X369997Y357152D01*
X369983Y357240D01*
Y357299D01*
X369968Y357343D01*
Y357357D01*
X369924Y357606D01*
X369895Y357709D01*
X369880Y357811D01*
X369866Y357884D01*
X369851Y357943D01*
X369836Y357987D01*
Y358001D01*
X369792Y358230D01*
X369851Y356786D01*
X369602Y356728D01*
X369500Y356713D01*
X369397Y356698D01*
X368826D01*
X368724Y356684D01*
X368636D01*
X368577Y356669D01*
X368519D01*
X368607Y356083D01*
X368694Y355469D01*
X368812Y354824D01*
X368914Y354151D01*
X369163Y352789D01*
X369295Y352116D01*
X369426Y351472D01*
X369544Y350872D01*
X369646Y350301D01*
X369705Y350052D01*
X369763Y349803D01*
X369807Y349569D01*
X369851Y349364D01*
X369880Y349173D01*
X369924Y348998D01*
X369953Y348851D01*
X369983Y348734D01*
X369997Y348632D01*
X370012Y348559D01*
X370027Y348515D01*
Y348500D01*
X367494Y348881D01*
X367450Y349203D01*
X367391Y349554D01*
X367348Y349935D01*
X367274Y350345D01*
X367157Y351179D01*
X367084Y351589D01*
X367025Y351999D01*
X366967Y352394D01*
X366908Y352746D01*
X366850Y353082D01*
X366806Y353361D01*
X366777Y353595D01*
X366762Y353697D01*
X366747Y353785D01*
X366733Y353844D01*
X366718Y353888D01*
Y353917D01*
Y353931D01*
X366630Y354488D01*
X366586Y354751D01*
X366528Y355000D01*
X366498Y355234D01*
X366455Y355454D01*
X366411Y355659D01*
X366381Y355835D01*
X366337Y355996D01*
X366308Y356142D01*
X366279Y356274D01*
X366264Y356376D01*
X366250Y356464D01*
X366235Y356523D01*
X366220Y356552D01*
Y356567D01*
X366001Y356596D01*
X365796Y356625D01*
X365723D01*
X365664Y356640D01*
X365605D01*
X365371Y356684D01*
X365269Y356698D01*
X365166Y356728D01*
X365093Y356742D01*
X365035Y356757D01*
X364991Y356772D01*
X364976D01*
X364932Y356962D01*
X364888Y357152D01*
X364873Y357240D01*
Y357299D01*
X364859Y357343D01*
Y357357D01*
X364815Y357606D01*
X364786Y357709D01*
X364771Y357811D01*
X364756Y357884D01*
X364742Y357943D01*
X364727Y357987D01*
Y358001D01*
X364581Y358763D01*
X365269Y358689D01*
X365942Y358631D01*
X366264Y358602D01*
X366572Y358587D01*
X366864Y358572D01*
X367143Y358558D01*
X367391Y358543D01*
X367831D01*
X368006Y358528D01*
X368607D01*
X368870Y358543D01*
X369104D01*
X369324Y358558D01*
X369514Y358572D01*
X369661D01*
X369705Y358587D01*
X369724D01*
X369690Y358763D01*
X370378Y358689D01*
D02*
G37*
G36*
X372071Y320135D02*
X371886Y319978D01*
X371808Y319900D01*
X371739Y319822D01*
X371690Y319754D01*
X371651Y319705D01*
X371622Y319666D01*
X371612Y319656D01*
X371515Y319500D01*
X371417Y319324D01*
X371349Y319149D01*
X371281Y318973D01*
X371222Y318788D01*
X371173Y318612D01*
X371105Y318270D01*
X371085Y318114D01*
X371066Y317968D01*
X371056Y317841D01*
X371046Y317724D01*
X371037Y317636D01*
Y317568D01*
Y317529D01*
Y317509D01*
X371046Y317246D01*
X371066Y316992D01*
X371095Y316748D01*
X371134Y316504D01*
X371183Y316279D01*
X371241Y316055D01*
X371290Y315850D01*
X371349Y315665D01*
X371417Y315489D01*
X371466Y315333D01*
X371525Y315196D01*
X371573Y315079D01*
X371612Y314991D01*
X371642Y314923D01*
X371661Y314884D01*
X371671Y314864D01*
X371808Y314620D01*
X371944Y314405D01*
X372091Y314200D01*
X372247Y314015D01*
X372393Y313839D01*
X372549Y313693D01*
X372696Y313556D01*
X372842Y313439D01*
X372979Y313332D01*
X373096Y313244D01*
X373213Y313176D01*
X373311Y313107D01*
X373389Y313068D01*
X373447Y313039D01*
X373486Y313019D01*
X373496Y313010D01*
X372657Y311721D01*
X372452Y311819D01*
X372247Y311936D01*
X372061Y312063D01*
X371886Y312190D01*
X371739Y312307D01*
X371681Y312356D01*
X371622Y312405D01*
X371583Y312444D01*
X371554Y312473D01*
X371534Y312483D01*
X371525Y312492D01*
X371310Y312707D01*
X371105Y312922D01*
X370919Y313146D01*
X370753Y313351D01*
X370617Y313537D01*
X370568Y313615D01*
X370519Y313683D01*
X370480Y313732D01*
X370451Y313771D01*
X370441Y313800D01*
X370431Y313810D01*
X370256Y314113D01*
X370090Y314415D01*
X369953Y314718D01*
X369836Y314991D01*
X369787Y315118D01*
X369738Y315225D01*
X369699Y315323D01*
X369670Y315411D01*
X369641Y315479D01*
X369621Y315538D01*
X369612Y315567D01*
Y315577D01*
X369504Y315948D01*
X369426Y316318D01*
X369368Y316670D01*
X369348Y316836D01*
X369328Y316992D01*
X369319Y317138D01*
X369309Y317275D01*
X369299Y317392D01*
X369289Y317490D01*
Y317568D01*
Y317626D01*
Y317665D01*
Y317675D01*
X369299Y318065D01*
X369348Y318427D01*
X369407Y318788D01*
X369494Y319120D01*
X369592Y319432D01*
X369699Y319725D01*
X369816Y319998D01*
X369943Y320242D01*
X370060Y320466D01*
X370187Y320662D01*
X370295Y320837D01*
X370392Y320974D01*
X370480Y321091D01*
X370539Y321169D01*
X370578Y321218D01*
X370597Y321237D01*
X372071Y320135D01*
D02*
G37*
G36*
X278219Y359085D02*
X278351Y359070D01*
X278453Y359055D01*
X278541Y359041D01*
X278600Y359026D01*
X278644Y359012D01*
X278659D01*
X278907Y358982D01*
X279156Y358938D01*
X279259Y358924D01*
X279347Y358909D01*
X279405Y358894D01*
X279420D01*
X279595Y358865D01*
X279786Y358851D01*
X279976Y358821D01*
X280152Y358807D01*
X280313Y358777D01*
X280445Y358763D01*
X280532Y358748D01*
X280562D01*
X280606Y358646D01*
X280664Y358514D01*
X280737Y358367D01*
X280796Y358206D01*
X280942Y357855D01*
X281103Y357460D01*
X281279Y357035D01*
X281455Y356596D01*
X281806Y355688D01*
X281967Y355249D01*
X282128Y354824D01*
X282275Y354444D01*
X282406Y354107D01*
X282450Y353946D01*
X282509Y353814D01*
X282553Y353697D01*
X282582Y353609D01*
X282611Y353521D01*
X282641Y353463D01*
X282655Y353434D01*
Y353419D01*
X282845D01*
X282787Y353800D01*
X282743Y354151D01*
X282684Y354444D01*
X282655Y354707D01*
X282626Y354912D01*
X282597Y355059D01*
Y355117D01*
X282582Y355161D01*
Y355176D01*
Y355190D01*
X282538Y355439D01*
X282509Y355674D01*
X282480Y355864D01*
X282450Y356040D01*
X282436Y356171D01*
X282421Y356259D01*
X282406Y356332D01*
Y356347D01*
X282348Y356669D01*
X282333Y356830D01*
X282318Y356962D01*
X282289Y357064D01*
Y357152D01*
X282275Y357211D01*
Y357225D01*
X282231Y357533D01*
X282216Y357665D01*
X282201Y357782D01*
X282187Y357884D01*
X282172Y357972D01*
Y358016D01*
Y358031D01*
X282128Y358309D01*
X282114Y358426D01*
X282099Y358528D01*
Y358602D01*
X282084Y358660D01*
Y358704D01*
Y358719D01*
X282377Y358689D01*
X282655Y358675D01*
X282904Y358646D01*
X283124Y358631D01*
X283299Y358602D01*
X283446Y358587D01*
X283534Y358572D01*
X283563D01*
X284090Y358528D01*
X284339Y358499D01*
X284558D01*
X284749Y358485D01*
X285041D01*
X285115Y358177D01*
X285203Y357855D01*
X285305Y357518D01*
X285393Y357167D01*
X285613Y356406D01*
X285847Y355615D01*
X286096Y354795D01*
X286345Y353975D01*
X286608Y353155D01*
X286857Y352350D01*
X287091Y351589D01*
X287208Y351238D01*
X287325Y350886D01*
X287428Y350550D01*
X287530Y350242D01*
X287618Y349949D01*
X287706Y349686D01*
X287794Y349437D01*
X287852Y349217D01*
X287926Y349027D01*
X287969Y348866D01*
X288013Y348749D01*
X288043Y348646D01*
X288072Y348588D01*
Y348573D01*
X285759Y348720D01*
X285715Y348881D01*
X285656Y349056D01*
X285598Y349261D01*
X285525Y349466D01*
X285481Y349657D01*
X285437Y349803D01*
X285422Y349862D01*
X285407Y349905D01*
X285393Y349935D01*
Y349949D01*
X285276Y350345D01*
X285232Y350520D01*
X285173Y350696D01*
X285129Y350842D01*
X285100Y350959D01*
X285085Y351033D01*
X285071Y351062D01*
X285012Y351282D01*
X284954Y351501D01*
X284895Y351692D01*
X284851Y351867D01*
X284807Y352014D01*
X284793Y352116D01*
X284763Y352189D01*
Y352219D01*
X284705Y352424D01*
X284661Y352614D01*
X284617Y352775D01*
X284573Y352921D01*
X284544Y353038D01*
X284514Y353126D01*
X284500Y353185D01*
Y353199D01*
X284456Y353346D01*
X284427Y353478D01*
X284397Y353595D01*
X284383Y353668D01*
X284368Y353741D01*
X284353Y353785D01*
Y353800D01*
Y353814D01*
X284149D01*
X284602Y348588D01*
X283768Y348632D01*
X283636Y348646D01*
X283490D01*
X283358Y348661D01*
X283226D01*
X283109Y348676D01*
X282933D01*
X282802Y349115D01*
X282728Y349335D01*
X282655Y349525D01*
X282611Y349686D01*
X282567Y349803D01*
X282538Y349891D01*
X282523Y349920D01*
X282436Y350169D01*
X282333Y350403D01*
X282260Y350637D01*
X282187Y350828D01*
X282114Y351003D01*
X282070Y351135D01*
X282040Y351223D01*
X282026Y351252D01*
X281938Y351501D01*
X281850Y351750D01*
X281762Y351970D01*
X281689Y352160D01*
X281630Y352336D01*
X281587Y352453D01*
X281557Y352541D01*
X281543Y352570D01*
X281455Y352819D01*
X281367Y353038D01*
X281294Y353258D01*
X281235Y353434D01*
X281177Y353595D01*
X281133Y353712D01*
X281118Y353785D01*
X281103Y353814D01*
X280972D01*
X281015Y353536D01*
X281074Y353229D01*
X281118Y352907D01*
X281147Y352585D01*
X281191Y352306D01*
X281206Y352189D01*
Y352087D01*
X281221Y351999D01*
X281235Y351940D01*
Y351897D01*
Y351882D01*
X281425Y350227D01*
X281469Y349847D01*
X281499Y349510D01*
X281528Y349247D01*
X281543Y349012D01*
Y348851D01*
X281557Y348734D01*
Y348661D01*
Y348632D01*
X279098Y349071D01*
X279010Y350184D01*
X278922Y351252D01*
X278819Y352262D01*
X278776Y352731D01*
X278732Y353199D01*
X278673Y353653D01*
X278629Y354093D01*
X278585Y354517D01*
X278541Y354927D01*
X278483Y355308D01*
X278439Y355688D01*
X278395Y356040D01*
X278351Y356376D01*
X278307Y356698D01*
X278278Y357006D01*
X278234Y357284D01*
X278190Y357547D01*
X278161Y357796D01*
X278131Y358016D01*
X278102Y358221D01*
X278073Y358411D01*
X278044Y358572D01*
X278029Y358719D01*
X278000Y358851D01*
X277985Y358953D01*
X277970Y359026D01*
Y359085D01*
X277956Y359114D01*
Y359129D01*
X278219Y359085D01*
D02*
G37*
G36*
X302346Y350872D02*
X302449Y350857D01*
X302536Y350828D01*
X302609Y350813D01*
X302668Y350784D01*
X302697Y350769D01*
X302712D01*
X302844Y350696D01*
X302961Y350608D01*
X303078Y350506D01*
X303166Y350403D01*
X303298Y350198D01*
X303385Y349993D01*
X303444Y349803D01*
X303473Y349642D01*
X303488Y349583D01*
Y349539D01*
Y349510D01*
Y349496D01*
X303473Y349305D01*
X303444Y349130D01*
X303385Y348969D01*
X303327Y348837D01*
X303283Y348720D01*
X303224Y348646D01*
X303195Y348588D01*
X303181Y348573D01*
X303063Y348456D01*
X302932Y348368D01*
X302844Y348310D01*
X302815Y348295D01*
X302800D01*
X302609Y348222D01*
X302405Y348193D01*
X302331Y348178D01*
X302200D01*
X301921Y348193D01*
X301673Y348251D01*
X301453Y348324D01*
X301263Y348397D01*
X301116Y348485D01*
X300999Y348544D01*
X300941Y348603D01*
X300911Y348617D01*
X300765Y348778D01*
X300648Y348954D01*
X300575Y349115D01*
X300516Y349276D01*
X300487Y349422D01*
X300457Y349525D01*
Y349598D01*
Y349627D01*
X300472Y349803D01*
X300516Y349964D01*
X300589Y350110D01*
X300662Y350242D01*
X300736Y350345D01*
X300809Y350418D01*
X300853Y350476D01*
X300867Y350491D01*
X301043Y350623D01*
X301233Y350725D01*
X301438Y350784D01*
X301629Y350842D01*
X301819Y350872D01*
X301965Y350886D01*
X302097D01*
X302346Y350872D01*
D02*
G37*
G36*
X289097Y359026D02*
X289346Y358982D01*
X289609Y358924D01*
X289843Y358836D01*
X290078Y358733D01*
X290297Y358631D01*
X290517Y358514D01*
X290707Y358397D01*
X290883Y358265D01*
X291044Y358148D01*
X291190Y358045D01*
X291307Y357943D01*
X291395Y357855D01*
X291469Y357796D01*
X291512Y357752D01*
X291527Y357738D01*
X291952Y357269D01*
X292332Y356757D01*
X292654Y356259D01*
X292933Y355776D01*
X293050Y355557D01*
X293152Y355366D01*
X293240Y355176D01*
X293313Y355029D01*
X293372Y354898D01*
X293416Y354810D01*
X293430Y354737D01*
X293445Y354722D01*
X293577Y354385D01*
X293679Y354049D01*
X293782Y353727D01*
X293855Y353419D01*
X293928Y353126D01*
X293987Y352848D01*
X294030Y352585D01*
X294074Y352336D01*
X294104Y352116D01*
X294118Y351911D01*
X294133Y351750D01*
X294148Y351604D01*
X294162Y351487D01*
Y351399D01*
Y351340D01*
Y351325D01*
Y351062D01*
X294133Y350813D01*
X294104Y350579D01*
X294074Y350374D01*
X294016Y350169D01*
X293972Y349993D01*
X293913Y349832D01*
X293855Y349686D01*
X293811Y349554D01*
X293752Y349437D01*
X293694Y349349D01*
X293650Y349276D01*
X293621Y349203D01*
X293591Y349159D01*
X293562Y349144D01*
Y349130D01*
X293460Y349012D01*
X293342Y348910D01*
X293093Y348734D01*
X292845Y348617D01*
X292610Y348544D01*
X292391Y348485D01*
X292230Y348471D01*
X292157Y348456D01*
X292069D01*
X291849Y348471D01*
X291644Y348500D01*
X291425Y348544D01*
X291220Y348603D01*
X290824Y348763D01*
X290458Y348939D01*
X290297Y349027D01*
X290151Y349100D01*
X290034Y349188D01*
X289917Y349261D01*
X289829Y349320D01*
X289770Y349364D01*
X289726Y349393D01*
X289712Y349408D01*
X289492Y349598D01*
X289272Y349788D01*
X289082Y349979D01*
X288921Y350154D01*
X288775Y350315D01*
X288658Y350432D01*
X288599Y350520D01*
X288570Y350550D01*
X288379Y350813D01*
X288189Y351077D01*
X288028Y351325D01*
X287896Y351560D01*
X287779Y351765D01*
X287691Y351926D01*
X287662Y351984D01*
X287633Y352028D01*
X287618Y352058D01*
Y352072D01*
X287472Y352394D01*
X287340Y352731D01*
X287238Y353038D01*
X287135Y353331D01*
X287076Y353580D01*
X287047Y353683D01*
X287018Y353770D01*
X287003Y353844D01*
X286989Y353902D01*
X286974Y353931D01*
Y353946D01*
X286886Y354327D01*
X286828Y354663D01*
X286784Y354985D01*
X286754Y355264D01*
X286740Y355483D01*
X286725Y355586D01*
Y355659D01*
Y355717D01*
Y355761D01*
Y355791D01*
Y355805D01*
Y356083D01*
X286740Y356347D01*
X286769Y356596D01*
X286784Y356816D01*
X286828Y357020D01*
X286857Y357211D01*
X286901Y357372D01*
X286930Y357533D01*
X286974Y357665D01*
X287018Y357782D01*
X287047Y357884D01*
X287076Y357957D01*
X287106Y358031D01*
X287135Y358075D01*
X287150Y358089D01*
Y358104D01*
X287252Y358265D01*
X287369Y358411D01*
X287501Y358543D01*
X287633Y358646D01*
X287779Y358733D01*
X287911Y358807D01*
X288189Y358924D01*
X288438Y358997D01*
X288555Y359012D01*
X288643Y359026D01*
X288716Y359041D01*
X288833D01*
X289097Y359026D01*
D02*
G37*
G36*
X304923Y358909D02*
X305450Y358865D01*
X305977Y358792D01*
X306474Y358733D01*
X306709Y358689D01*
X306914Y358660D01*
X307104Y358616D01*
X307265Y358587D01*
X307397Y358572D01*
X307499Y358543D01*
X307558Y358528D01*
X307587D01*
X307733Y357591D01*
X307807Y357123D01*
X307865Y356669D01*
X307939Y356245D01*
X307997Y355820D01*
X308056Y355425D01*
X308114Y355059D01*
X308173Y354722D01*
X308217Y354415D01*
X308261Y354151D01*
X308290Y353917D01*
X308319Y353741D01*
X308348Y353609D01*
X308363Y353521D01*
Y353507D01*
Y353492D01*
X308524Y352555D01*
X308612Y352101D01*
X308700Y351662D01*
X308788Y351223D01*
X308875Y350813D01*
X308949Y350432D01*
X309036Y350066D01*
X309110Y349730D01*
X309183Y349437D01*
X309256Y349159D01*
X309315Y348939D01*
X309359Y348763D01*
X309388Y348632D01*
X309402Y348544D01*
X309417Y348515D01*
X309080Y348485D01*
X308919Y348471D01*
X308773D01*
X308656Y348456D01*
X308466D01*
X307997Y348471D01*
X307558Y348515D01*
X307148Y348588D01*
X306782Y348661D01*
X306621Y348690D01*
X306474Y348720D01*
X306343Y348763D01*
X306240Y348793D01*
X306152Y348822D01*
X306094Y348837D01*
X306050Y348851D01*
X306035D01*
X305816Y348939D01*
X305596Y349012D01*
X305406Y349100D01*
X305245Y349173D01*
X305098Y349247D01*
X304981Y349305D01*
X304923Y349335D01*
X304893Y349349D01*
X304688Y349466D01*
X304513Y349583D01*
X304352Y349700D01*
X304205Y349818D01*
X304103Y349905D01*
X304015Y349979D01*
X303956Y350037D01*
X303942Y350052D01*
X303795Y350213D01*
X303664Y350374D01*
X303561Y350520D01*
X303459Y350667D01*
X303400Y350784D01*
X303342Y350872D01*
X303312Y350945D01*
X303298Y350959D01*
X303210Y351150D01*
X303151Y351325D01*
X303107Y351487D01*
X303078Y351648D01*
X303063Y351765D01*
X303049Y351867D01*
Y351940D01*
Y351955D01*
X303063Y352219D01*
X303093Y352467D01*
X303151Y352687D01*
X303224Y352907D01*
X303312Y353097D01*
X303400Y353273D01*
X303503Y353434D01*
X303605Y353565D01*
X303722Y353697D01*
X303825Y353800D01*
X303912Y353888D01*
X304000Y353961D01*
X304074Y354019D01*
X304132Y354063D01*
X304161Y354078D01*
X304176Y354093D01*
X303898Y354224D01*
X303634Y354385D01*
X303415Y354561D01*
X303210Y354737D01*
X303049Y354898D01*
X302932Y355029D01*
X302858Y355132D01*
X302829Y355147D01*
Y355161D01*
X302639Y355454D01*
X302566Y355600D01*
X302507Y355732D01*
X302449Y355849D01*
X302419Y355937D01*
X302390Y355996D01*
Y356010D01*
X302331Y356186D01*
X302287Y356362D01*
X302258Y356537D01*
X302229Y356698D01*
Y356830D01*
X302214Y356933D01*
Y356991D01*
Y357020D01*
X302229Y357211D01*
X302243Y357386D01*
X302287Y357547D01*
X302317Y357679D01*
X302361Y357796D01*
X302405Y357870D01*
X302419Y357928D01*
X302434Y357943D01*
X302551Y358119D01*
X302683Y358265D01*
X302829Y358397D01*
X302976Y358514D01*
X303151Y358602D01*
X303312Y358689D01*
X303649Y358807D01*
X303956Y358865D01*
X304088Y358894D01*
X304205Y358909D01*
X304308Y358924D01*
X304674D01*
X304923Y358909D01*
D02*
G37*
G36*
X345241Y358807D02*
X345446Y358485D01*
X345637Y358162D01*
X345827Y357884D01*
X345988Y357635D01*
X346046Y357533D01*
X346105Y357445D01*
X346164Y357372D01*
X346193Y357313D01*
X346207Y357284D01*
X346222Y357269D01*
X346778Y356420D01*
X347320Y355586D01*
X347862Y354781D01*
X348403Y354005D01*
X348916Y353243D01*
X349399Y352541D01*
X349867Y351867D01*
X350307Y351238D01*
X350512Y350959D01*
X350702Y350681D01*
X350892Y350418D01*
X351068Y350169D01*
X351229Y349935D01*
X351375Y349715D01*
X351522Y349525D01*
X351654Y349335D01*
X351771Y349173D01*
X351873Y349042D01*
X351961Y348925D01*
X352034Y348822D01*
X352093Y348734D01*
X352137Y348676D01*
X352151Y348646D01*
X352166Y348632D01*
X349838Y348090D01*
X349399Y348749D01*
X348974Y349378D01*
X348565Y349979D01*
X348169Y350579D01*
X347789Y351135D01*
X347423Y351692D01*
X347071Y352219D01*
X346734Y352731D01*
X346398Y353214D01*
X346090Y353683D01*
X345797Y354122D01*
X345505Y354546D01*
X345241Y354956D01*
X344978Y355337D01*
X344743Y355688D01*
X344509Y356040D01*
X344290Y356362D01*
X344085Y356655D01*
X343894Y356933D01*
X343733Y357196D01*
X343572Y357430D01*
X343426Y357650D01*
X343294Y357855D01*
X343162Y358031D01*
X343060Y358177D01*
X342972Y358323D01*
X342899Y358426D01*
X342840Y358528D01*
X342782Y358602D01*
X342752Y358646D01*
X342723Y358675D01*
Y358689D01*
X343074Y358733D01*
X343397Y358777D01*
X343675Y358821D01*
X343924Y358865D01*
X344129Y358894D01*
X344319Y358938D01*
X344480Y358968D01*
X344626Y359012D01*
X344729Y359041D01*
X344831Y359055D01*
X344904Y359085D01*
X344948Y359099D01*
X344992Y359129D01*
X345022D01*
X345036Y359143D01*
X345241Y358807D01*
D02*
G37*
G36*
X236451D02*
X236656Y358485D01*
X236847Y358162D01*
X237037Y357884D01*
X237198Y357635D01*
X237257Y357533D01*
X237315Y357445D01*
X237374Y357372D01*
X237403Y357313D01*
X237418Y357284D01*
X237432Y357269D01*
X237989Y356420D01*
X238530Y355586D01*
X239072Y354781D01*
X239614Y354005D01*
X240126Y353243D01*
X240609Y352541D01*
X241078Y351867D01*
X241517Y351238D01*
X241722Y350959D01*
X241912Y350681D01*
X242102Y350418D01*
X242278Y350169D01*
X242439Y349935D01*
X242585Y349715D01*
X242732Y349525D01*
X242864Y349335D01*
X242981Y349173D01*
X243083Y349042D01*
X243171Y348925D01*
X243244Y348822D01*
X243303Y348734D01*
X243347Y348676D01*
X243361Y348646D01*
X243376Y348632D01*
X241048Y348090D01*
X240609Y348749D01*
X240185Y349378D01*
X239775Y349979D01*
X239379Y350579D01*
X238999Y351135D01*
X238633Y351692D01*
X238281Y352219D01*
X237945Y352731D01*
X237608Y353214D01*
X237300Y353683D01*
X237008Y354122D01*
X236715Y354546D01*
X236451Y354956D01*
X236188Y355337D01*
X235954Y355688D01*
X235719Y356040D01*
X235500Y356362D01*
X235295Y356655D01*
X235104Y356933D01*
X234943Y357196D01*
X234782Y357430D01*
X234636Y357650D01*
X234504Y357855D01*
X234372Y358031D01*
X234270Y358177D01*
X234182Y358323D01*
X234109Y358426D01*
X234050Y358528D01*
X233992Y358602D01*
X233963Y358646D01*
X233933Y358675D01*
Y358689D01*
X234285Y358733D01*
X234607Y358777D01*
X234885Y358821D01*
X235134Y358865D01*
X235339Y358894D01*
X235529Y358938D01*
X235690Y358968D01*
X235837Y359012D01*
X235939Y359041D01*
X236041Y359055D01*
X236115Y359085D01*
X236159Y359099D01*
X236203Y359129D01*
X236232D01*
X236246Y359143D01*
X236451Y358807D01*
D02*
G37*
G36*
X272144D02*
X272349Y358485D01*
X272539Y358162D01*
X272729Y357884D01*
X272890Y357635D01*
X272949Y357533D01*
X273007Y357445D01*
X273066Y357372D01*
X273095Y357313D01*
X273110Y357284D01*
X273125Y357269D01*
X273681Y356420D01*
X274223Y355586D01*
X274764Y354781D01*
X275306Y354005D01*
X275818Y353243D01*
X276301Y352541D01*
X276770Y351867D01*
X277209Y351238D01*
X277414Y350959D01*
X277604Y350681D01*
X277795Y350418D01*
X277970Y350169D01*
X278131Y349935D01*
X278278Y349715D01*
X278424Y349525D01*
X278556Y349335D01*
X278673Y349173D01*
X278776Y349042D01*
X278863Y348925D01*
X278937Y348822D01*
X278995Y348734D01*
X279039Y348676D01*
X279054Y348646D01*
X279068Y348632D01*
X276741Y348090D01*
X276301Y348749D01*
X275877Y349378D01*
X275467Y349979D01*
X275072Y350579D01*
X274691Y351135D01*
X274325Y351692D01*
X273974Y352219D01*
X273637Y352731D01*
X273300Y353214D01*
X272993Y353683D01*
X272700Y354122D01*
X272407Y354546D01*
X272144Y354956D01*
X271880Y355337D01*
X271646Y355688D01*
X271412Y356040D01*
X271192Y356362D01*
X270987Y356655D01*
X270797Y356933D01*
X270636Y357196D01*
X270475Y357430D01*
X270328Y357650D01*
X270197Y357855D01*
X270065Y358031D01*
X269962Y358177D01*
X269875Y358323D01*
X269801Y358426D01*
X269743Y358528D01*
X269684Y358602D01*
X269655Y358646D01*
X269626Y358675D01*
Y358689D01*
X269977Y358733D01*
X270299Y358777D01*
X270577Y358821D01*
X270826Y358865D01*
X271031Y358894D01*
X271221Y358938D01*
X271382Y358968D01*
X271529Y359012D01*
X271631Y359041D01*
X271734Y359055D01*
X271807Y359085D01*
X271851Y359099D01*
X271895Y359129D01*
X271924D01*
X271939Y359143D01*
X272144Y358807D01*
D02*
G37*
G36*
X337482D02*
X337687Y358485D01*
X337877Y358162D01*
X338068Y357884D01*
X338229Y357635D01*
X338287Y357533D01*
X338346Y357445D01*
X338404Y357372D01*
X338434Y357313D01*
X338448Y357284D01*
X338463Y357269D01*
X339019Y356420D01*
X339561Y355586D01*
X340103Y354781D01*
X340644Y354005D01*
X341157Y353243D01*
X341640Y352541D01*
X342108Y351867D01*
X342547Y351238D01*
X342752Y350959D01*
X342943Y350681D01*
X343133Y350418D01*
X343309Y350169D01*
X343470Y349935D01*
X343616Y349715D01*
X343763Y349525D01*
X343894Y349335D01*
X344011Y349173D01*
X344114Y349042D01*
X344202Y348925D01*
X344275Y348822D01*
X344334Y348734D01*
X344377Y348676D01*
X344392Y348646D01*
X344407Y348632D01*
X342079Y348090D01*
X341640Y348749D01*
X341215Y349378D01*
X340805Y349979D01*
X340410Y350579D01*
X340029Y351135D01*
X339663Y351692D01*
X339312Y352219D01*
X338975Y352731D01*
X338639Y353214D01*
X338331Y353683D01*
X338038Y354122D01*
X337745Y354546D01*
X337482Y354956D01*
X337218Y355337D01*
X336984Y355688D01*
X336750Y356040D01*
X336530Y356362D01*
X336325Y356655D01*
X336135Y356933D01*
X335974Y357196D01*
X335813Y357430D01*
X335667Y357650D01*
X335535Y357855D01*
X335403Y358031D01*
X335301Y358177D01*
X335213Y358323D01*
X335140Y358426D01*
X335081Y358528D01*
X335022Y358602D01*
X334993Y358646D01*
X334964Y358675D01*
Y358689D01*
X335315Y358733D01*
X335637Y358777D01*
X335915Y358821D01*
X336164Y358865D01*
X336369Y358894D01*
X336560Y358938D01*
X336721Y358968D01*
X336867Y359012D01*
X336970Y359041D01*
X337072Y359055D01*
X337145Y359085D01*
X337189Y359099D01*
X337233Y359129D01*
X337262D01*
X337277Y359143D01*
X337482Y358807D01*
D02*
G37*
G36*
X320631Y358689D02*
X321305Y358631D01*
X321627Y358602D01*
X321934Y358587D01*
X322227Y358572D01*
X322505Y358558D01*
X322754Y358543D01*
X323193D01*
X323369Y358528D01*
X323969D01*
X324233Y358543D01*
X324467D01*
X324687Y358558D01*
X324877Y358572D01*
X325023D01*
X325067Y358587D01*
X325141D01*
X325214Y356786D01*
X324965Y356728D01*
X324862Y356713D01*
X324760Y356698D01*
X324189D01*
X324086Y356684D01*
X323999D01*
X323940Y356669D01*
X323881D01*
X323969Y356083D01*
X324057Y355469D01*
X324174Y354824D01*
X324277Y354151D01*
X324526Y352789D01*
X324657Y352116D01*
X324789Y351472D01*
X324906Y350872D01*
X325009Y350301D01*
X325067Y350052D01*
X325126Y349803D01*
X325170Y349569D01*
X325214Y349364D01*
X325243Y349173D01*
X325287Y348998D01*
X325316Y348851D01*
X325345Y348734D01*
X325360Y348632D01*
X325375Y348559D01*
X325389Y348515D01*
Y348500D01*
X322857Y348881D01*
X322813Y349203D01*
X322754Y349554D01*
X322710Y349935D01*
X322637Y350345D01*
X322520Y351179D01*
X322447Y351589D01*
X322388Y351999D01*
X322330Y352394D01*
X322271Y352746D01*
X322213Y353082D01*
X322169Y353361D01*
X322139Y353595D01*
X322125Y353697D01*
X322110Y353785D01*
X322095Y353844D01*
X322081Y353888D01*
Y353917D01*
Y353931D01*
X321993Y354488D01*
X321949Y354751D01*
X321890Y355000D01*
X321861Y355234D01*
X321817Y355454D01*
X321773Y355659D01*
X321744Y355835D01*
X321700Y355996D01*
X321671Y356142D01*
X321641Y356274D01*
X321627Y356376D01*
X321612Y356464D01*
X321598Y356523D01*
X321583Y356552D01*
Y356567D01*
X321363Y356596D01*
X321158Y356625D01*
X321085D01*
X321027Y356640D01*
X320968D01*
X320734Y356684D01*
X320631Y356698D01*
X320529Y356728D01*
X320456Y356742D01*
X320397Y356757D01*
X320353Y356772D01*
X320339D01*
X320295Y356962D01*
X320251Y357152D01*
X320236Y357240D01*
Y357299D01*
X320221Y357343D01*
Y357357D01*
X320178Y357606D01*
X320148Y357709D01*
X320134Y357811D01*
X320119Y357884D01*
X320104Y357943D01*
X320090Y357987D01*
Y358001D01*
X319943Y358763D01*
X320631Y358689D01*
D02*
G37*
G36*
X327541Y358367D02*
X327615Y357957D01*
X327688Y357504D01*
X327790Y357006D01*
X327878Y356493D01*
X328083Y355439D01*
X328186Y354912D01*
X328273Y354400D01*
X328376Y353917D01*
X328464Y353463D01*
X328552Y353053D01*
X328581Y352863D01*
X328610Y352687D01*
X328639Y352541D01*
X328669Y352394D01*
X328698Y352277D01*
X328713Y352175D01*
X328727Y352087D01*
X328742Y352028D01*
X328757Y351999D01*
Y351984D01*
X328888Y351296D01*
X329035Y350652D01*
X329108Y350345D01*
X329167Y350052D01*
X329225Y349788D01*
X329284Y349539D01*
X329342Y349305D01*
X329386Y349115D01*
X329430Y348925D01*
X329474Y348778D01*
X329503Y348661D01*
X329533Y348573D01*
X329547Y348515D01*
Y348500D01*
X329533D01*
X329503Y348515D01*
X329445D01*
X329386Y348529D01*
X329225Y348544D01*
X329049Y348573D01*
X328874Y348588D01*
X328727Y348617D01*
X328669D01*
X328625Y348632D01*
X328581D01*
X328244Y348676D01*
X327966Y348705D01*
X327746Y348734D01*
X327556Y348749D01*
X327424Y348763D01*
X327249D01*
X327219Y348969D01*
X327175Y349203D01*
X327117Y349466D01*
X327073Y349759D01*
X327014Y350066D01*
X326941Y350403D01*
X326883Y350769D01*
X326809Y351150D01*
X326736Y351531D01*
X326648Y351940D01*
X326487Y352775D01*
X326326Y353624D01*
X326165Y354473D01*
X326004Y355293D01*
X325931Y355688D01*
X325843Y356083D01*
X325770Y356450D01*
X325711Y356801D01*
X325638Y357123D01*
X325580Y357430D01*
X325521Y357709D01*
X325477Y357957D01*
X325433Y358177D01*
X325404Y358353D01*
X325375Y358499D01*
X325345Y358616D01*
X325331Y358675D01*
Y358704D01*
X327541Y358367D01*
D02*
G37*
G36*
X260959Y358894D02*
X261237Y358851D01*
X261544Y358807D01*
X261866Y358763D01*
X262511Y358689D01*
X262833Y358646D01*
X263140Y358616D01*
X263433Y358587D01*
X263696Y358572D01*
X263945Y358543D01*
X264150Y358528D01*
X264326Y358514D01*
X264458D01*
X264545Y358499D01*
X264575D01*
X264707Y358016D01*
X264780Y357782D01*
X264838Y357562D01*
X264897Y357386D01*
X264941Y357240D01*
X264955Y357182D01*
X264970Y357138D01*
X264985Y357123D01*
Y357108D01*
X265073Y356816D01*
X265146Y356537D01*
X265234Y356274D01*
X265307Y356040D01*
X265365Y355820D01*
X265409Y355674D01*
X265424Y355615D01*
X265439Y355571D01*
X265453Y355542D01*
Y355527D01*
X265541Y355220D01*
X265629Y354927D01*
X265702Y354649D01*
X265775Y354400D01*
X265848Y354180D01*
X265892Y354019D01*
X265907Y353961D01*
X265922Y353917D01*
X265936Y353888D01*
Y353873D01*
X266039Y353536D01*
X266141Y353185D01*
X266244Y352833D01*
X266346Y352497D01*
X266405Y352336D01*
X266449Y352189D01*
X266478Y352058D01*
X266507Y351955D01*
X266537Y351867D01*
X266566Y351794D01*
X266581Y351750D01*
Y351735D01*
X266727Y351223D01*
X266888Y350696D01*
X267049Y350169D01*
X267122Y349920D01*
X267195Y349671D01*
X267269Y349437D01*
X267327Y349232D01*
X267386Y349042D01*
X267430Y348881D01*
X267459Y348749D01*
X267488Y348661D01*
X267517Y348588D01*
Y348573D01*
X267210Y348617D01*
X267064Y348632D01*
X266947Y348646D01*
X266829Y348661D01*
X266756Y348676D01*
X266683D01*
X266375Y348705D01*
X266244Y348734D01*
X266112Y348749D01*
X266009Y348763D01*
X265922D01*
X265863Y348778D01*
X265848D01*
X265687Y348793D01*
X265556Y348822D01*
X265424Y348837D01*
X265321Y348851D01*
X265234Y348866D01*
X265175Y348881D01*
X265117D01*
X264545Y350901D01*
X263316D01*
X263360Y350491D01*
X263404Y350081D01*
X263447Y349686D01*
X263491Y349320D01*
X263506Y349144D01*
X263521Y348998D01*
X263535Y348851D01*
X263550Y348734D01*
X263565Y348646D01*
X263579Y348573D01*
Y348529D01*
Y348515D01*
X263316Y348559D01*
X263184Y348588D01*
X263067Y348603D01*
X262964Y348617D01*
X262891Y348632D01*
X262833Y348646D01*
X262818D01*
X262511Y348690D01*
X262379Y348720D01*
X262262Y348734D01*
X262159Y348749D01*
X262071D01*
X262027Y348763D01*
X262013D01*
X261720Y348807D01*
X261588Y348837D01*
X261456Y348851D01*
X261354Y348866D01*
X261281Y348881D01*
X261222Y348895D01*
X261208D01*
X261149Y350081D01*
X261105Y351282D01*
X261076Y351853D01*
X261047Y352424D01*
X261032Y352965D01*
X261003Y353478D01*
X260988Y353946D01*
X260959Y354385D01*
X260944Y354766D01*
X260929Y354942D01*
Y355088D01*
Y355234D01*
X260915Y355351D01*
Y355469D01*
Y355557D01*
X260900Y355630D01*
Y355674D01*
Y355703D01*
Y355717D01*
X260871Y356391D01*
X260842Y356698D01*
X260827Y357006D01*
X260812Y357284D01*
X260798Y357547D01*
X260783Y357796D01*
X260768Y358031D01*
X260754Y358236D01*
X260739Y358411D01*
X260724Y358572D01*
X260710Y358704D01*
Y358807D01*
X260695Y358880D01*
Y358924D01*
Y358938D01*
X260959Y358894D01*
D02*
G37*
G36*
X266009Y359173D02*
X266463Y359070D01*
X266888Y358982D01*
X267078Y358953D01*
X267269Y358924D01*
X267430Y358909D01*
X267576Y358880D01*
X267708Y358865D01*
X267810Y358851D01*
X267898D01*
X267957Y358836D01*
X268015D01*
X268132Y358323D01*
X268235Y357840D01*
X268337Y357372D01*
X268381Y357167D01*
X268425Y356962D01*
X268454Y356786D01*
X268484Y356611D01*
X268513Y356464D01*
X268542Y356347D01*
X268557Y356245D01*
X268571Y356171D01*
X268586Y356127D01*
Y356113D01*
X268674Y355630D01*
X268747Y355205D01*
X268776Y355000D01*
X268806Y354824D01*
X268835Y354663D01*
X268864Y354517D01*
X268894Y354385D01*
X268908Y354268D01*
X268923Y354180D01*
X268937Y354093D01*
X268952Y354034D01*
X268967Y353990D01*
Y353961D01*
Y353946D01*
X269011Y353668D01*
X269055Y353419D01*
X269099Y353214D01*
X269128Y353038D01*
X269143Y352907D01*
X269157Y352819D01*
X269172Y352760D01*
Y352746D01*
X269216Y352467D01*
X269245Y352336D01*
X269274Y352219D01*
X269303Y352131D01*
X269318Y352058D01*
X269333Y351999D01*
Y351984D01*
X269406Y351721D01*
X269435Y351604D01*
X269479Y351501D01*
X269509Y351428D01*
X269523Y351369D01*
X269552Y351325D01*
Y351311D01*
X269611Y351223D01*
X269655Y351150D01*
X269713Y351106D01*
X269772Y351062D01*
X269860Y351033D01*
X269889D01*
X270036Y351047D01*
X270167Y351091D01*
X270270Y351135D01*
X270284Y351150D01*
X270299D01*
X270431Y351238D01*
X270519Y351325D01*
X270563Y351384D01*
X270577Y351399D01*
X271543Y349217D01*
X271353Y349086D01*
X271177Y348983D01*
X271002Y348881D01*
X270826Y348807D01*
X270504Y348676D01*
X270240Y348588D01*
X270006Y348544D01*
X269918Y348529D01*
X269831Y348515D01*
X269772Y348500D01*
X269684D01*
X269494Y348515D01*
X269303Y348559D01*
X269128Y348617D01*
X268967Y348690D01*
X268659Y348895D01*
X268410Y349115D01*
X268205Y349335D01*
X268059Y349539D01*
X268001Y349613D01*
X267957Y349671D01*
X267942Y349715D01*
X267927Y349730D01*
X267722Y350154D01*
X267649Y350359D01*
X267576Y350550D01*
X267517Y350711D01*
X267474Y350828D01*
X267459Y350916D01*
X267444Y350945D01*
X267371Y351208D01*
X267313Y351472D01*
X267254Y351735D01*
X267195Y351970D01*
X267151Y352189D01*
X267122Y352350D01*
X267108Y352409D01*
X267093Y352453D01*
Y352482D01*
Y352497D01*
X267049Y352687D01*
X267005Y352921D01*
X266947Y353185D01*
X266888Y353478D01*
X266829Y353800D01*
X266756Y354122D01*
X266624Y354766D01*
X266551Y355088D01*
X266493Y355381D01*
X266434Y355659D01*
X266390Y355893D01*
X266346Y356098D01*
X266317Y356245D01*
X266302Y356303D01*
X266288Y356347D01*
Y356362D01*
Y356376D01*
X266156Y356947D01*
X266024Y357489D01*
X265951Y357738D01*
X265892Y357987D01*
X265834Y358206D01*
X265775Y358411D01*
X265717Y358602D01*
X265673Y358777D01*
X265629Y358924D01*
X265600Y359055D01*
X265570Y359158D01*
X265541Y359231D01*
X265526Y359275D01*
Y359290D01*
X266009Y359173D01*
D02*
G37*
G36*
X256054Y358777D02*
X256274Y358748D01*
X256493Y358704D01*
X256698Y358660D01*
X256874Y358602D01*
X257021Y358558D01*
X257079Y358543D01*
X257123Y358528D01*
X257138Y358514D01*
X257152D01*
X257431Y358411D01*
X257709Y358294D01*
X257943Y358162D01*
X258162Y358045D01*
X258338Y357943D01*
X258470Y357855D01*
X258558Y357796D01*
X258572Y357782D01*
X258587D01*
X258821Y357606D01*
X259041Y357416D01*
X259217Y357240D01*
X259378Y357064D01*
X259509Y356918D01*
X259612Y356801D01*
X259670Y356728D01*
X259685Y356713D01*
Y356698D01*
X259831Y356464D01*
X259934Y356215D01*
X260007Y355981D01*
X260051Y355761D01*
X260080Y355586D01*
X260110Y355439D01*
Y355381D01*
Y355337D01*
Y355322D01*
Y355308D01*
X260095Y355161D01*
X260080Y355029D01*
X259993Y354766D01*
X259861Y354517D01*
X259714Y354297D01*
X259583Y354122D01*
X259451Y353975D01*
X259363Y353888D01*
X259348Y353873D01*
X259334Y353858D01*
X259099Y353653D01*
X258880Y353463D01*
X258777Y353390D01*
X258704Y353331D01*
X258660Y353302D01*
X258646Y353287D01*
X258367Y353097D01*
X258250Y353009D01*
X258148Y352921D01*
X258060Y352863D01*
X258001Y352804D01*
X257958Y352775D01*
X257943Y352760D01*
X257723Y352570D01*
X257635Y352467D01*
X257548Y352380D01*
X257489Y352306D01*
X257445Y352248D01*
X257416Y352219D01*
X257401Y352204D01*
X257328Y352101D01*
X257269Y351984D01*
X257240Y351882D01*
X257211Y351779D01*
X257196Y351706D01*
X257182Y351633D01*
Y351589D01*
Y351574D01*
X257196Y351443D01*
X257240Y351340D01*
X257284Y351238D01*
X257343Y351150D01*
X257416Y351077D01*
X257460Y351018D01*
X257504Y350989D01*
X257518Y350974D01*
X257635Y350901D01*
X257738Y350842D01*
X257826Y350813D01*
X257840Y350799D01*
X257855D01*
X258001Y350769D01*
X258162Y350755D01*
X258324D01*
X258441Y350769D01*
X258558Y350799D01*
X258704Y350857D01*
X258836Y350916D01*
X258953Y350974D01*
X259055Y351033D01*
X259114Y351062D01*
X259143Y351077D01*
X259334Y351194D01*
X259495Y351325D01*
X259627Y351443D01*
X259729Y351545D01*
X259802Y351648D01*
X259846Y351721D01*
X259875Y351765D01*
X259890Y351779D01*
X260929Y349730D01*
X260739Y349510D01*
X260549Y349320D01*
X260359Y349159D01*
X260168Y349012D01*
X259978Y348895D01*
X259788Y348793D01*
X259612Y348705D01*
X259451Y348646D01*
X259290Y348588D01*
X259158Y348559D01*
X259026Y348529D01*
X258924Y348500D01*
X258836D01*
X258777Y348485D01*
X258719D01*
X258411Y348500D01*
X258133Y348529D01*
X257855Y348573D01*
X257606Y348632D01*
X257357Y348705D01*
X257138Y348778D01*
X256933Y348866D01*
X256742Y348954D01*
X256581Y349042D01*
X256435Y349130D01*
X256303Y349203D01*
X256201Y349276D01*
X256113Y349335D01*
X256054Y349378D01*
X256025Y349408D01*
X256010Y349422D01*
X255805Y349613D01*
X255644Y349818D01*
X255483Y350037D01*
X255352Y350242D01*
X255249Y350462D01*
X255161Y350667D01*
X255088Y350872D01*
X255030Y351077D01*
X254971Y351267D01*
X254942Y351428D01*
X254912Y351589D01*
X254898Y351721D01*
X254883Y351823D01*
Y351897D01*
Y351955D01*
Y351970D01*
Y352204D01*
X254912Y352424D01*
X254986Y352833D01*
X255088Y353185D01*
X255147Y353346D01*
X255205Y353492D01*
X255278Y353609D01*
X255337Y353727D01*
X255396Y353814D01*
X255439Y353888D01*
X255483Y353961D01*
X255513Y354005D01*
X255527Y354019D01*
X255542Y354034D01*
X255762Y354239D01*
X255952Y354400D01*
X256040Y354458D01*
X256098Y354517D01*
X256142Y354532D01*
X256157Y354546D01*
X256391Y354693D01*
X256493Y354766D01*
X256596Y354824D01*
X256669Y354868D01*
X256728Y354912D01*
X256757Y354927D01*
X256772Y354942D01*
X256962Y355088D01*
X257108Y355234D01*
X257167Y355293D01*
X257211Y355322D01*
X257225Y355351D01*
X257240Y355366D01*
X257299Y355454D01*
X257343Y355557D01*
X257401Y355761D01*
X257416Y355835D01*
X257431Y355908D01*
Y355952D01*
Y355966D01*
X257416Y356098D01*
X257372Y356230D01*
X257313Y356347D01*
X257240Y356435D01*
X257167Y356523D01*
X257108Y356581D01*
X257065Y356625D01*
X257050Y356640D01*
X256933Y356742D01*
X256830Y356801D01*
X256757Y356845D01*
X256728Y356859D01*
X256596Y356918D01*
X256493Y356933D01*
X256420Y356947D01*
X256391D01*
X256332Y356933D01*
X256259Y356918D01*
X256157Y356859D01*
X256098Y356786D01*
X256069Y356772D01*
Y356757D01*
X256010Y356684D01*
X255981Y356611D01*
X255923Y356450D01*
Y356376D01*
X255908Y356332D01*
Y356289D01*
Y356274D01*
X255923Y356054D01*
X255937Y355864D01*
X255952Y355791D01*
X255966Y355732D01*
X255981Y355703D01*
Y355688D01*
X253946Y356289D01*
X253917Y356450D01*
X253902Y356596D01*
X253888Y356684D01*
Y356698D01*
Y356713D01*
X253858Y356859D01*
X253844Y356977D01*
Y357079D01*
Y357094D01*
Y357108D01*
X253873Y357416D01*
X253931Y357679D01*
X254019Y357899D01*
X254107Y358089D01*
X254210Y358221D01*
X254297Y358323D01*
X254356Y358397D01*
X254385Y358411D01*
X254576Y358528D01*
X254766Y358616D01*
X254854Y358646D01*
X254912Y358675D01*
X254956Y358689D01*
X254971D01*
X255103Y358719D01*
X255249Y358748D01*
X255396Y358763D01*
X255542Y358777D01*
X255659Y358792D01*
X255849D01*
X256054Y358777D01*
D02*
G37*
G36*
X314087Y358894D02*
X314190D01*
X314321Y358880D01*
X314600Y358865D01*
X314731Y358851D01*
X314834D01*
X314907Y358836D01*
X314936D01*
X315156Y358821D01*
X315376Y358792D01*
X315581Y358777D01*
X315756Y358748D01*
X315903Y358719D01*
X316005Y358704D01*
X316078Y358689D01*
X316108D01*
X316195Y358323D01*
X316283Y357972D01*
X316342Y357650D01*
X316400Y357357D01*
X316459Y357108D01*
X316474Y357006D01*
X316488Y356918D01*
X316503Y356845D01*
Y356801D01*
X316517Y356772D01*
Y356757D01*
X316576Y356406D01*
X316635Y356054D01*
X316693Y355732D01*
X316752Y355439D01*
X316796Y355190D01*
X316825Y355088D01*
X316840Y355000D01*
X316854Y354927D01*
Y354868D01*
X316869Y354839D01*
Y354824D01*
X318260Y354663D01*
X318216Y354898D01*
X318157Y355161D01*
X318099Y355469D01*
X318025Y355776D01*
X317879Y356435D01*
X317733Y357108D01*
X317659Y357416D01*
X317586Y357709D01*
X317528Y357972D01*
X317469Y358206D01*
X317425Y358411D01*
X317396Y358543D01*
X317381Y358602D01*
X317367Y358646D01*
Y358660D01*
Y358675D01*
X317733D01*
X318128Y358689D01*
X318509Y358719D01*
X318860Y358733D01*
X319036Y358748D01*
X319182Y358763D01*
X319314D01*
X319431Y358777D01*
X319519D01*
X319592Y358792D01*
X319651D01*
X319680Y358485D01*
X319724Y358162D01*
X319768Y357826D01*
X319812Y357460D01*
X319870Y357079D01*
X319929Y356698D01*
X320060Y355879D01*
X320207Y355029D01*
X320353Y354180D01*
X320500Y353317D01*
X320661Y352482D01*
X320807Y351677D01*
X320880Y351296D01*
X320953Y350930D01*
X321027Y350579D01*
X321085Y350257D01*
X321144Y349949D01*
X321202Y349657D01*
X321246Y349408D01*
X321305Y349173D01*
X321334Y348969D01*
X321378Y348807D01*
X321393Y348661D01*
X321422Y348573D01*
X321437Y348500D01*
Y348485D01*
X319255Y348925D01*
X319167Y349364D01*
X319094Y349774D01*
X319006Y350169D01*
X318933Y350550D01*
X318860Y350916D01*
X318801Y351252D01*
X318743Y351560D01*
X318684Y351853D01*
X318640Y352116D01*
X318596Y352350D01*
X318567Y352541D01*
X318538Y352716D01*
X318509Y352848D01*
X318494Y352951D01*
X318479Y353009D01*
Y353024D01*
X317103Y353141D01*
X317132Y352936D01*
X317176Y352731D01*
X317220Y352526D01*
X317249Y352321D01*
X317279Y352160D01*
X317308Y352014D01*
X317337Y351926D01*
Y351911D01*
Y351897D01*
X317396Y351618D01*
X317440Y351355D01*
X317498Y351106D01*
X317542Y350886D01*
X317572Y350696D01*
X317601Y350550D01*
X317616Y350491D01*
X317630Y350447D01*
Y350432D01*
Y350418D01*
X317747Y349862D01*
X317791Y349583D01*
X317850Y349349D01*
X317894Y349144D01*
X317923Y348983D01*
X317938Y348925D01*
Y348881D01*
X317952Y348851D01*
Y348837D01*
X315756Y349086D01*
X315654Y349788D01*
X315551Y350447D01*
X315507Y350769D01*
X315449Y351062D01*
X315405Y351355D01*
X315361Y351618D01*
X315317Y351867D01*
X315288Y352087D01*
X315259Y352277D01*
X315229Y352438D01*
X315200Y352570D01*
X315185Y352672D01*
X315171Y352731D01*
Y352746D01*
X315054Y353478D01*
X314922Y354151D01*
X314805Y354795D01*
X314687Y355395D01*
X314585Y355937D01*
X314468Y356450D01*
X314365Y356918D01*
X314263Y357328D01*
X314175Y357694D01*
X314102Y358016D01*
X314029Y358294D01*
X313970Y358514D01*
X313926Y358689D01*
X313882Y358821D01*
X313853Y358894D01*
Y358924D01*
X314087Y358894D01*
D02*
G37*
G36*
X375165D02*
X375268D01*
X375400Y358880D01*
X375678Y358865D01*
X375810Y358851D01*
X375912D01*
X375985Y358836D01*
X376014D01*
X376234Y358821D01*
X376454Y358792D01*
X376659Y358777D01*
X376834Y358748D01*
X376981Y358719D01*
X377083Y358704D01*
X377156Y358689D01*
X377186D01*
X377274Y358323D01*
X377361Y357972D01*
X377420Y357650D01*
X377479Y357357D01*
X377537Y357108D01*
X377552Y357006D01*
X377566Y356918D01*
X377581Y356845D01*
Y356801D01*
X377596Y356772D01*
Y356757D01*
X377654Y356406D01*
X377713Y356054D01*
X377771Y355732D01*
X377830Y355439D01*
X377874Y355190D01*
X377903Y355088D01*
X377918Y355000D01*
X377932Y354927D01*
Y354868D01*
X377947Y354839D01*
Y354824D01*
X379338Y354663D01*
X379294Y354898D01*
X379235Y355161D01*
X379177Y355469D01*
X379103Y355776D01*
X378957Y356435D01*
X378811Y357108D01*
X378737Y357416D01*
X378664Y357709D01*
X378606Y357972D01*
X378547Y358206D01*
X378503Y358411D01*
X378474Y358543D01*
X378459Y358602D01*
X378445Y358646D01*
Y358660D01*
Y358675D01*
X378811D01*
X379206Y358689D01*
X379587Y358719D01*
X379938Y358733D01*
X380114Y358748D01*
X380260Y358763D01*
X380392D01*
X380509Y358777D01*
X380597D01*
X380670Y358792D01*
X380729D01*
X380758Y358485D01*
X380802Y358162D01*
X380846Y357826D01*
X380890Y357460D01*
X380948Y357079D01*
X381007Y356698D01*
X381138Y355879D01*
X381285Y355029D01*
X381431Y354180D01*
X381578Y353317D01*
X381739Y352482D01*
X381885Y351677D01*
X381958Y351296D01*
X382031Y350930D01*
X382105Y350579D01*
X382163Y350257D01*
X382222Y349949D01*
X382280Y349657D01*
X382324Y349408D01*
X382383Y349173D01*
X382412Y348969D01*
X382456Y348807D01*
X382471Y348661D01*
X382500Y348573D01*
X382515Y348500D01*
Y348485D01*
X380333Y348925D01*
X380245Y349364D01*
X380172Y349774D01*
X380084Y350169D01*
X380011Y350550D01*
X379938Y350916D01*
X379879Y351252D01*
X379821Y351560D01*
X379762Y351853D01*
X379718Y352116D01*
X379675Y352350D01*
X379645Y352541D01*
X379616Y352716D01*
X379587Y352848D01*
X379572Y352951D01*
X379557Y353009D01*
Y353024D01*
X378181Y353141D01*
X378210Y352936D01*
X378254Y352731D01*
X378298Y352526D01*
X378328Y352321D01*
X378357Y352160D01*
X378386Y352014D01*
X378415Y351926D01*
Y351911D01*
Y351897D01*
X378474Y351618D01*
X378518Y351355D01*
X378576Y351106D01*
X378620Y350886D01*
X378650Y350696D01*
X378679Y350550D01*
X378694Y350491D01*
X378708Y350447D01*
Y350432D01*
Y350418D01*
X378825Y349862D01*
X378869Y349583D01*
X378928Y349349D01*
X378972Y349144D01*
X379001Y348983D01*
X379016Y348925D01*
Y348881D01*
X379030Y348851D01*
Y348837D01*
X376834Y349086D01*
X376732Y349788D01*
X376629Y350447D01*
X376585Y350769D01*
X376527Y351062D01*
X376483Y351355D01*
X376439Y351618D01*
X376395Y351867D01*
X376366Y352087D01*
X376337Y352277D01*
X376307Y352438D01*
X376278Y352570D01*
X376263Y352672D01*
X376249Y352731D01*
Y352746D01*
X376132Y353478D01*
X376000Y354151D01*
X375883Y354795D01*
X375766Y355395D01*
X375663Y355937D01*
X375546Y356450D01*
X375444Y356918D01*
X375341Y357328D01*
X375253Y357694D01*
X375180Y358016D01*
X375107Y358294D01*
X375048Y358514D01*
X375004Y358689D01*
X374960Y358821D01*
X374931Y358894D01*
Y358924D01*
X375165Y358894D01*
D02*
G37*
G36*
X325633Y320115D02*
X325936Y320047D01*
X326219Y319988D01*
X326345Y319969D01*
X326472Y319949D01*
X326580Y319939D01*
X326677Y319920D01*
X326765Y319910D01*
X326833Y319900D01*
X326892D01*
X326931Y319891D01*
X326970D01*
X327048Y319549D01*
X327116Y319227D01*
X327185Y318915D01*
X327214Y318778D01*
X327243Y318641D01*
X327263Y318524D01*
X327282Y318407D01*
X327302Y318309D01*
X327321Y318231D01*
X327331Y318163D01*
X327341Y318114D01*
X327351Y318085D01*
Y318075D01*
X327409Y317753D01*
X327458Y317470D01*
X327478Y317333D01*
X327497Y317216D01*
X327517Y317109D01*
X327536Y317011D01*
X327556Y316923D01*
X327565Y316845D01*
X327575Y316787D01*
X327585Y316728D01*
X327595Y316689D01*
X327605Y316660D01*
Y316640D01*
Y316631D01*
X327634Y316445D01*
X327663Y316279D01*
X327692Y316143D01*
X327712Y316026D01*
X327722Y315938D01*
X327731Y315879D01*
X327741Y315840D01*
Y315830D01*
X327770Y315645D01*
X327790Y315557D01*
X327809Y315479D01*
X327829Y315421D01*
X327839Y315372D01*
X327849Y315333D01*
Y315323D01*
X327897Y315147D01*
X327917Y315069D01*
X327946Y315001D01*
X327966Y314952D01*
X327975Y314913D01*
X327995Y314884D01*
Y314874D01*
X328034Y314815D01*
X328063Y314767D01*
X328102Y314737D01*
X328141Y314708D01*
X328200Y314688D01*
X328219D01*
X328317Y314698D01*
X328405Y314727D01*
X328473Y314757D01*
X328483Y314767D01*
X328493D01*
X328580Y314825D01*
X328639Y314884D01*
X328668Y314923D01*
X328678Y314932D01*
X329322Y313478D01*
X329195Y313390D01*
X329078Y313322D01*
X328961Y313254D01*
X328844Y313205D01*
X328629Y313117D01*
X328454Y313059D01*
X328297Y313029D01*
X328239Y313019D01*
X328180Y313010D01*
X328141Y313000D01*
X328083D01*
X327956Y313010D01*
X327829Y313039D01*
X327712Y313078D01*
X327605Y313127D01*
X327399Y313264D01*
X327234Y313410D01*
X327097Y313556D01*
X326999Y313693D01*
X326960Y313742D01*
X326931Y313781D01*
X326921Y313810D01*
X326911Y313820D01*
X326775Y314103D01*
X326726Y314240D01*
X326677Y314366D01*
X326638Y314474D01*
X326609Y314552D01*
X326599Y314610D01*
X326589Y314630D01*
X326541Y314806D01*
X326502Y314981D01*
X326463Y315157D01*
X326424Y315313D01*
X326394Y315459D01*
X326375Y315567D01*
X326365Y315606D01*
X326355Y315635D01*
Y315655D01*
Y315665D01*
X326326Y315791D01*
X326297Y315948D01*
X326258Y316123D01*
X326219Y316318D01*
X326180Y316533D01*
X326131Y316748D01*
X326043Y317177D01*
X325994Y317392D01*
X325955Y317587D01*
X325916Y317773D01*
X325887Y317929D01*
X325857Y318065D01*
X325838Y318163D01*
X325828Y318202D01*
X325818Y318231D01*
Y318241D01*
Y318251D01*
X325731Y318632D01*
X325643Y318993D01*
X325594Y319159D01*
X325555Y319324D01*
X325516Y319471D01*
X325477Y319607D01*
X325438Y319734D01*
X325409Y319851D01*
X325379Y319949D01*
X325360Y320037D01*
X325340Y320105D01*
X325321Y320154D01*
X325311Y320183D01*
Y320193D01*
X325633Y320115D01*
D02*
G37*
G36*
X326815Y345807D02*
X327893Y345714D01*
X328408Y345667D01*
X328900Y345643D01*
X329369Y345620D01*
X329814Y345596D01*
X330212Y345573D01*
X330915D01*
X331196Y345550D01*
X332157D01*
X332579Y345573D01*
X332954D01*
X333305Y345596D01*
X333610Y345620D01*
X333844D01*
X333914Y345643D01*
X334031D01*
X334149Y342761D01*
X333750Y342668D01*
X333586Y342644D01*
X333422Y342621D01*
X332508D01*
X332344Y342597D01*
X332204D01*
X332110Y342574D01*
X332016D01*
X332157Y341637D01*
X332297Y340653D01*
X332485Y339622D01*
X332649Y338544D01*
X333047Y336365D01*
X333258Y335287D01*
X333469Y334256D01*
X333656Y333296D01*
X333820Y332382D01*
X333914Y331984D01*
X334008Y331585D01*
X334078Y331210D01*
X334149Y330882D01*
X334195Y330578D01*
X334266Y330297D01*
X334313Y330062D01*
X334359Y329875D01*
X334383Y329711D01*
X334406Y329594D01*
X334430Y329523D01*
Y329500D01*
X330376Y330109D01*
X330306Y330625D01*
X330212Y331187D01*
X330142Y331796D01*
X330025Y332452D01*
X329837Y333788D01*
X329720Y334444D01*
X329626Y335100D01*
X329533Y335732D01*
X329439Y336295D01*
X329345Y336834D01*
X329275Y337279D01*
X329228Y337654D01*
X329205Y337818D01*
X329181Y337958D01*
X329158Y338052D01*
X329134Y338122D01*
Y338169D01*
Y338193D01*
X328994Y339083D01*
X328924Y339505D01*
X328830Y339903D01*
X328783Y340278D01*
X328713Y340629D01*
X328642Y340957D01*
X328595Y341238D01*
X328525Y341496D01*
X328478Y341730D01*
X328432Y341941D01*
X328408Y342105D01*
X328385Y342246D01*
X328361Y342340D01*
X328338Y342387D01*
Y342410D01*
X327986Y342457D01*
X327658Y342504D01*
X327541D01*
X327448Y342527D01*
X327354D01*
X326979Y342597D01*
X326815Y342621D01*
X326651Y342668D01*
X326534Y342691D01*
X326440Y342715D01*
X326370Y342738D01*
X326346D01*
X326276Y343042D01*
X326206Y343347D01*
X326182Y343488D01*
Y343581D01*
X326159Y343652D01*
Y343675D01*
X326089Y344074D01*
X326042Y344237D01*
X326018Y344402D01*
X325995Y344519D01*
X325971Y344612D01*
X325948Y344683D01*
Y344706D01*
X325714Y345924D01*
X326815Y345807D01*
D02*
G37*
G36*
X332299Y319754D02*
X332572Y319725D01*
X332826Y319705D01*
X333051Y319695D01*
X333246D01*
X333334Y319686D01*
X333529D01*
X333558Y319607D01*
X333587Y319520D01*
X333626Y319403D01*
X333665Y319285D01*
X333714Y319149D01*
X333763Y319002D01*
X333812Y318846D01*
X333870Y318680D01*
X333987Y318319D01*
X334114Y317948D01*
X334241Y317558D01*
X334368Y317167D01*
X334495Y316787D01*
X334612Y316426D01*
X334719Y316094D01*
X334768Y315948D01*
X334817Y315801D01*
X334856Y315674D01*
X334895Y315557D01*
X334934Y315459D01*
X334963Y315372D01*
X334983Y315303D01*
X335003Y315245D01*
X335012Y315215D01*
Y315206D01*
X334602Y314357D01*
X332982Y314483D01*
X333177Y312990D01*
X331440Y313283D01*
X331362Y314513D01*
X330884D01*
X330493Y316016D01*
X331030D01*
X331020Y316055D01*
X331011Y316104D01*
X330991Y316201D01*
X330981Y316250D01*
Y316289D01*
X330972Y316318D01*
Y316328D01*
X330942Y316504D01*
X330923Y316592D01*
X330913Y316670D01*
X330903Y316738D01*
X330894Y316787D01*
X330884Y316826D01*
Y316836D01*
X330845Y317050D01*
X330825Y317158D01*
X330806Y317246D01*
X330796Y317324D01*
X330786Y317392D01*
X330777Y317431D01*
Y317441D01*
X330737Y317675D01*
X330718Y317773D01*
X330698Y317861D01*
X330689Y317939D01*
X330679Y317997D01*
X330669Y318036D01*
Y318046D01*
X330630Y318241D01*
X330611Y318329D01*
X330601Y318407D01*
X330591Y318466D01*
X330581Y318514D01*
X330572Y318544D01*
Y318553D01*
X330562Y318632D01*
X330542Y318700D01*
Y318749D01*
X330533Y318797D01*
X330523Y318827D01*
Y318846D01*
Y318866D01*
X330835Y318836D01*
X331128Y318807D01*
X331401Y318778D01*
X331528Y318758D01*
X331645Y318749D01*
X331752Y318729D01*
X331840Y318719D01*
X331928Y318710D01*
X331996Y318700D01*
X332055Y318690D01*
X332094D01*
X332123Y318680D01*
X332133D01*
X332201Y318309D01*
X332231Y318144D01*
X332260Y317987D01*
X332289Y317841D01*
X332319Y317695D01*
X332338Y317568D01*
X332358Y317460D01*
X332377Y317353D01*
X332397Y317265D01*
X332416Y317187D01*
X332426Y317119D01*
X332436Y317070D01*
Y317031D01*
X332445Y317011D01*
Y317002D01*
X332475Y316836D01*
X332485Y316767D01*
X332494Y316699D01*
X332504Y316650D01*
X332514Y316611D01*
X332523Y316582D01*
Y316572D01*
X332553Y316436D01*
X332572Y316328D01*
X332582Y316279D01*
Y316250D01*
X332592Y316231D01*
Y316221D01*
X332602Y316123D01*
X332611Y316065D01*
X332621Y316026D01*
Y316016D01*
X333295D01*
X333275Y316094D01*
X333256Y316162D01*
X333246Y316211D01*
Y316221D01*
Y316231D01*
X333119Y316640D01*
X332992Y317021D01*
X332875Y317382D01*
X332768Y317724D01*
X332660Y318036D01*
X332563Y318329D01*
X332465Y318602D01*
X332377Y318846D01*
X332299Y319061D01*
X332231Y319246D01*
X332172Y319412D01*
X332123Y319539D01*
X332084Y319647D01*
X332045Y319725D01*
X332035Y319764D01*
X332026Y319783D01*
X332299Y319754D01*
D02*
G37*
G36*
X366341Y346112D02*
X366927Y346018D01*
X367513Y345901D01*
X368122Y345784D01*
X368380Y345714D01*
X368637Y345643D01*
X368872Y345573D01*
X369083Y345526D01*
X369247Y345479D01*
X369364Y345432D01*
X369458Y345409D01*
X369481D01*
X369575Y344870D01*
X369668Y344308D01*
X369856Y343113D01*
X370090Y341848D01*
X370348Y340535D01*
X370863Y337888D01*
X371121Y336599D01*
X371379Y335334D01*
X371613Y334139D01*
X371730Y333577D01*
X371847Y333038D01*
X371965Y332546D01*
X372058Y332054D01*
X372152Y331609D01*
X372246Y331187D01*
X372339Y330812D01*
X372410Y330484D01*
X372457Y330203D01*
X372527Y329945D01*
X372574Y329758D01*
X372597Y329617D01*
X372621Y329523D01*
Y329500D01*
X368755Y330226D01*
X368661Y330836D01*
X368567Y331398D01*
X368497Y331937D01*
X368403Y332429D01*
X368333Y332897D01*
X368239Y333319D01*
X368169Y333694D01*
X368122Y334045D01*
X368052Y334350D01*
X368005Y334631D01*
X367958Y334842D01*
X367911Y335030D01*
X367888Y335193D01*
X367864Y335287D01*
X367841Y335357D01*
Y335381D01*
X367606D01*
X367208Y335404D01*
X366833Y335475D01*
X366482Y335545D01*
X366154Y335662D01*
X365896Y335756D01*
X365685Y335826D01*
X365568Y335896D01*
X365521Y335920D01*
X365146Y336131D01*
X364818Y336365D01*
X364514Y336623D01*
X364233Y336857D01*
X364022Y337045D01*
X363881Y337232D01*
X363764Y337326D01*
X363740Y337372D01*
X363459Y337724D01*
X363225Y338075D01*
X363014Y338427D01*
X362827Y338755D01*
X362686Y339036D01*
X362593Y339270D01*
X362522Y339411D01*
X362499Y339434D01*
Y339458D01*
X362335Y339903D01*
X362218Y340325D01*
X362147Y340746D01*
X362077Y341121D01*
X362054Y341426D01*
X362030Y341684D01*
Y341777D01*
Y341848D01*
Y341871D01*
Y341895D01*
X362054Y342597D01*
X362147Y343183D01*
X362264Y343699D01*
X362405Y344144D01*
X362569Y344472D01*
X362616Y344589D01*
X362686Y344706D01*
X362733Y344776D01*
X362780Y344847D01*
X362803Y344894D01*
X362991Y345104D01*
X363178Y345268D01*
X363366Y345432D01*
X363553Y345550D01*
X363694Y345643D01*
X363834Y345714D01*
X363928Y345760D01*
X363951Y345784D01*
X364233Y345901D01*
X364537Y345995D01*
X364842Y346042D01*
X365146Y346088D01*
X365427Y346112D01*
X365638Y346135D01*
X366084D01*
X366341Y346112D01*
D02*
G37*
G36*
X346543Y346088D02*
X346660Y345503D01*
X346777Y344964D01*
X346871Y344472D01*
X346965Y344027D01*
X347058Y343628D01*
X347129Y343277D01*
X347199Y342949D01*
X347246Y342691D01*
X347293Y342433D01*
X347340Y342246D01*
X347386Y342082D01*
X347410Y341941D01*
X347433Y341848D01*
Y341777D01*
X347457Y341754D01*
Y341730D01*
X347550Y341238D01*
X347597Y341004D01*
X347621Y340817D01*
X347668Y340629D01*
X347691Y340512D01*
X347714Y340418D01*
Y340395D01*
X347808Y339926D01*
X347832Y339716D01*
X347878Y339528D01*
X347902Y339387D01*
X347925Y339270D01*
X347949Y339177D01*
Y339153D01*
X348019Y338731D01*
X348066Y338567D01*
X348089Y338403D01*
X348113Y338286D01*
X348136Y338193D01*
X348160Y338122D01*
Y338099D01*
X348206Y338333D01*
X348277Y338638D01*
X348347Y338989D01*
X348417Y339364D01*
X348488Y339762D01*
X348581Y340184D01*
X348745Y341051D01*
X348816Y341473D01*
X348886Y341848D01*
X348956Y342222D01*
X349003Y342527D01*
X349050Y342785D01*
X349097Y342996D01*
X349120Y343113D01*
Y343160D01*
X349308Y344191D01*
X349401Y344683D01*
X349495Y345151D01*
X349565Y345526D01*
X349612Y345690D01*
X349636Y345854D01*
X349659Y345948D01*
Y346042D01*
X349682Y346088D01*
Y346112D01*
X350034Y346088D01*
X350385D01*
X350667Y346065D01*
X350924D01*
X351159Y346042D01*
X351697D01*
X351815Y346018D01*
X352963D01*
X353127Y346042D01*
X353314D01*
X353361Y345573D01*
X353408Y345081D01*
X353478Y344542D01*
X353572Y343980D01*
X353642Y343371D01*
X353736Y342761D01*
X353947Y341449D01*
X354181Y340090D01*
X354415Y338708D01*
X354673Y337326D01*
X354931Y335967D01*
X355189Y334655D01*
X355306Y334022D01*
X355423Y333436D01*
X355540Y332851D01*
X355657Y332312D01*
X355751Y331820D01*
X355845Y331351D01*
X355938Y330929D01*
X356009Y330531D01*
X356079Y330203D01*
X356126Y329922D01*
X356173Y329711D01*
X356220Y329547D01*
X356243Y329430D01*
Y329406D01*
X352939Y330156D01*
X352822Y330789D01*
X352705Y331374D01*
X352588Y331960D01*
X352471Y332499D01*
X352377Y333014D01*
X352283Y333483D01*
X352213Y333928D01*
X352143Y334327D01*
X352072Y334678D01*
X352002Y335006D01*
X351955Y335287D01*
X351908Y335522D01*
X351885Y335709D01*
X351862Y335826D01*
X351838Y335920D01*
Y335943D01*
X351744Y336388D01*
X351721Y336599D01*
X351697Y336787D01*
X351651Y336927D01*
Y337045D01*
X351627Y337115D01*
Y337138D01*
X351557Y337537D01*
X351510Y337701D01*
X351487Y337841D01*
X351463Y337958D01*
Y338052D01*
X351440Y338099D01*
Y338122D01*
X351346Y337607D01*
X351252Y337045D01*
X351159Y336412D01*
X351065Y335732D01*
X350971Y335030D01*
X350901Y334327D01*
X350807Y333600D01*
X350737Y332897D01*
X350690Y332241D01*
X350620Y331609D01*
X350573Y331046D01*
X350526Y330554D01*
Y330344D01*
X350503Y330156D01*
X350479Y329969D01*
Y329828D01*
X350456Y329711D01*
Y329641D01*
Y329594D01*
Y329570D01*
X350385Y329594D01*
X350292Y329617D01*
X350034Y329687D01*
X349729Y329781D01*
X349425Y329852D01*
X349120Y329945D01*
X348839Y329992D01*
X348745Y330039D01*
X348675D01*
X348628Y330062D01*
X348605D01*
X348324Y330133D01*
X348089Y330180D01*
X347855Y330226D01*
X347668Y330273D01*
X347503Y330320D01*
X347340Y330344D01*
X347105Y330390D01*
X346941Y330414D01*
X346848Y330437D01*
X346777D01*
X346707Y330906D01*
X346637Y331421D01*
X346566Y331960D01*
X346473Y332523D01*
X346379Y333108D01*
X346285Y333717D01*
X346051Y334983D01*
X345817Y336295D01*
X345559Y337630D01*
X345325Y338942D01*
X345067Y340254D01*
X344809Y341473D01*
X344692Y342082D01*
X344575Y342644D01*
X344458Y343183D01*
X344364Y343699D01*
X344247Y344167D01*
X344153Y344612D01*
X344083Y345011D01*
X344012Y345362D01*
X343942Y345667D01*
X343872Y345924D01*
X343848Y346135D01*
X343802Y346299D01*
X343778Y346393D01*
Y346416D01*
X346543Y346088D01*
D02*
G37*
G36*
X334778Y319725D02*
X335051Y319676D01*
X335295Y319637D01*
X335510Y319607D01*
X335608Y319588D01*
X335696Y319578D01*
X335764Y319568D01*
X335822Y319559D01*
X335871Y319549D01*
X335910Y319539D01*
X335940D01*
X336184Y319500D01*
X336418Y319461D01*
X336652Y319422D01*
X336857Y319383D01*
X336955Y319363D01*
X337042Y319354D01*
X337121Y319334D01*
X337179Y319324D01*
X337238Y319315D01*
X337277Y319305D01*
X337296Y319295D01*
X337306D01*
X337540Y317646D01*
X337482Y317655D01*
X337403Y317665D01*
X337238Y317695D01*
X337159Y317704D01*
X337091Y317714D01*
X337052Y317724D01*
X337033D01*
X336896Y317743D01*
X336769Y317763D01*
X336662Y317782D01*
X336574Y317792D01*
X336496Y317802D01*
X336447Y317812D01*
X336398D01*
X336427Y317626D01*
X336467Y317460D01*
X336496Y317294D01*
X336525Y317148D01*
X336545Y317011D01*
X336564Y316884D01*
X336593Y316767D01*
X336613Y316670D01*
X336623Y316582D01*
X336642Y316504D01*
X336652Y316436D01*
X336662Y316377D01*
X336671Y316338D01*
X336681Y316309D01*
Y316289D01*
Y316279D01*
X336750Y315987D01*
X336779Y315850D01*
X336798Y315733D01*
X336828Y315625D01*
X336837Y315547D01*
X336857Y315499D01*
Y315479D01*
X336886Y315323D01*
X336925Y315157D01*
X336955Y314981D01*
X336984Y314825D01*
X337013Y314688D01*
X337042Y314571D01*
X337052Y314532D01*
Y314503D01*
X337062Y314483D01*
Y314474D01*
X337111Y314240D01*
X337159Y313996D01*
X337208Y313752D01*
X337257Y313527D01*
X337286Y313429D01*
X337306Y313332D01*
X337325Y313244D01*
X337345Y313176D01*
X337355Y313107D01*
X337365Y313068D01*
X337374Y313039D01*
Y313029D01*
X337179Y313068D01*
X336994Y313098D01*
X336828Y313137D01*
X336662Y313166D01*
X336515Y313195D01*
X336379Y313225D01*
X336252Y313254D01*
X336144Y313283D01*
X336037Y313312D01*
X335949Y313332D01*
X335881Y313351D01*
X335813Y313371D01*
X335764Y313381D01*
X335735Y313390D01*
X335715Y313400D01*
X335705D01*
X335656Y313713D01*
X335608Y314005D01*
X335559Y314279D01*
X335520Y314523D01*
X335500Y314640D01*
X335491Y314737D01*
X335471Y314815D01*
X335461Y314893D01*
X335452Y314952D01*
Y314991D01*
X335442Y315020D01*
Y315030D01*
X335354Y315508D01*
X335276Y315977D01*
X335188Y316436D01*
X335100Y316865D01*
X335022Y317285D01*
X334934Y317675D01*
X334866Y318036D01*
X334788Y318378D01*
X334719Y318680D01*
X334661Y318954D01*
X334612Y319198D01*
X334583Y319305D01*
X334563Y319403D01*
X334544Y319481D01*
X334524Y319559D01*
X334515Y319627D01*
X334495Y319676D01*
X334485Y319715D01*
Y319744D01*
X334475Y319764D01*
Y319773D01*
X334778Y319725D01*
D02*
G37*
G36*
X343991Y319832D02*
X344157Y319812D01*
X344314Y319783D01*
X344470Y319744D01*
X344753Y319647D01*
X344880Y319598D01*
X344987Y319539D01*
X345094Y319481D01*
X345192Y319432D01*
X345270Y319373D01*
X345338Y319334D01*
X345397Y319295D01*
X345436Y319266D01*
X345456Y319246D01*
X345465Y319237D01*
X345602Y319110D01*
X345719Y318963D01*
X345826Y318827D01*
X345914Y318680D01*
X345983Y318534D01*
X346051Y318388D01*
X346100Y318251D01*
X346139Y318114D01*
X346168Y317987D01*
X346197Y317880D01*
X346217Y317773D01*
X346227Y317685D01*
Y317607D01*
X346236Y317558D01*
Y317519D01*
Y317509D01*
Y317392D01*
X346227Y317304D01*
Y317265D01*
X346217Y317236D01*
Y317216D01*
Y317207D01*
X345934Y317236D01*
X345680Y317255D01*
X345465Y317275D01*
X345280Y317294D01*
X345124Y317314D01*
X344997Y317324D01*
X344889Y317333D01*
X344802Y317343D01*
X344733Y317353D01*
X344685D01*
X344645Y317363D01*
X344597D01*
X344606Y317382D01*
Y317402D01*
Y317499D01*
X344597Y317607D01*
X344587Y317704D01*
X344567Y317792D01*
X344548Y317870D01*
X344528Y317929D01*
X344509Y317968D01*
X344489Y317997D01*
Y318007D01*
X344441Y318075D01*
X344382Y318134D01*
X344333Y318173D01*
X344314Y318183D01*
X344226Y318222D01*
X344128Y318241D01*
X344099Y318251D01*
X344040D01*
X343982Y318241D01*
X343923Y318231D01*
X343845Y318173D01*
X343787Y318124D01*
X343767Y318105D01*
Y318095D01*
X343728Y318036D01*
X343708Y317978D01*
X343669Y317851D01*
Y317792D01*
X343660Y317753D01*
Y317724D01*
Y317714D01*
X343669Y317626D01*
X343708Y317529D01*
X343747Y317441D01*
X343806Y317363D01*
X343855Y317285D01*
X343904Y317226D01*
X343943Y317187D01*
X343952Y317177D01*
X344011Y317119D01*
X344089Y317050D01*
X344177Y316972D01*
X344275Y316884D01*
X344479Y316719D01*
X344694Y316543D01*
X344889Y316387D01*
X344987Y316318D01*
X345065Y316250D01*
X345124Y316201D01*
X345182Y316162D01*
X345212Y316143D01*
X345221Y316133D01*
X345504Y315918D01*
X345748Y315713D01*
X345963Y315518D01*
X346158Y315342D01*
X346314Y315167D01*
X346451Y315020D01*
X346568Y314874D01*
X346656Y314747D01*
X346734Y314640D01*
X346793Y314542D01*
X346832Y314454D01*
X346861Y314386D01*
X346881Y314327D01*
X346890Y314288D01*
X346900Y314269D01*
Y314259D01*
X347056Y313078D01*
X346754Y313098D01*
X346471Y313117D01*
X346227Y313137D01*
X346002Y313156D01*
X345904D01*
X345826Y313166D01*
X345748Y313176D01*
X345690D01*
X345641Y313185D01*
X345573D01*
X345309Y313205D01*
X345036Y313225D01*
X344753Y313244D01*
X344489Y313254D01*
X344372Y313264D01*
X344265Y313273D01*
X344167D01*
X344079Y313283D01*
X344011D01*
X343952Y313293D01*
X343913D01*
X343718Y313303D01*
X343543Y313312D01*
X343386Y313322D01*
X343260Y313332D01*
X343152Y313342D01*
X343074Y313351D01*
X343016D01*
X342859Y314708D01*
X343055Y314698D01*
X343250Y314679D01*
X343445Y314669D01*
X343630Y314649D01*
X343787Y314640D01*
X343855D01*
X343913Y314630D01*
X343962D01*
X344001Y314620D01*
X344031D01*
X344275Y314601D01*
X344499Y314591D01*
X344704Y314581D01*
X344880D01*
X345026Y314571D01*
X345231D01*
X344938Y314737D01*
X344665Y314893D01*
X344401Y315059D01*
X344167Y315215D01*
X343943Y315372D01*
X343738Y315528D01*
X343543Y315684D01*
X343367Y315830D01*
X343201Y315977D01*
X343055Y316123D01*
X342918Y316270D01*
X342791Y316406D01*
X342674Y316543D01*
X342576Y316670D01*
X342489Y316797D01*
X342401Y316914D01*
X342274Y317148D01*
X342166Y317353D01*
X342098Y317529D01*
X342049Y317685D01*
X342020Y317802D01*
X342010Y317890D01*
X342001Y317948D01*
Y317968D01*
X342010Y318134D01*
X342020Y318290D01*
X342049Y318436D01*
X342088Y318573D01*
X342127Y318700D01*
X342176Y318817D01*
X342225Y318924D01*
X342274Y319022D01*
X342332Y319110D01*
X342381Y319178D01*
X342430Y319246D01*
X342469Y319295D01*
X342508Y319344D01*
X342537Y319373D01*
X342547Y319383D01*
X342557Y319393D01*
X342654Y319471D01*
X342752Y319539D01*
X342957Y319656D01*
X343172Y319734D01*
X343367Y319783D01*
X343543Y319822D01*
X343621Y319832D01*
X343689D01*
X343738Y319842D01*
X343816D01*
X343991Y319832D01*
D02*
G37*
G36*
X338038Y345948D02*
X338389Y345901D01*
X338741Y345831D01*
X339069Y345760D01*
X339350Y345667D01*
X339584Y345596D01*
X339678Y345573D01*
X339748Y345550D01*
X339772Y345526D01*
X339795D01*
X340240Y345362D01*
X340685Y345175D01*
X341060Y344964D01*
X341412Y344776D01*
X341693Y344612D01*
X341904Y344472D01*
X342044Y344378D01*
X342068Y344355D01*
X342091D01*
X342466Y344074D01*
X342817Y343769D01*
X343099Y343488D01*
X343356Y343207D01*
X343567Y342972D01*
X343731Y342785D01*
X343825Y342668D01*
X343848Y342644D01*
Y342621D01*
X344083Y342246D01*
X344247Y341848D01*
X344364Y341473D01*
X344434Y341121D01*
X344481Y340840D01*
X344528Y340606D01*
Y340512D01*
Y340442D01*
Y340418D01*
Y340395D01*
X344504Y340161D01*
X344481Y339950D01*
X344340Y339528D01*
X344130Y339130D01*
X343895Y338778D01*
X343685Y338497D01*
X343474Y338263D01*
X343333Y338122D01*
X343310Y338099D01*
X343286Y338075D01*
X342911Y337747D01*
X342560Y337443D01*
X342396Y337326D01*
X342279Y337232D01*
X342208Y337185D01*
X342185Y337162D01*
X341740Y336857D01*
X341552Y336716D01*
X341388Y336576D01*
X341248Y336482D01*
X341154Y336388D01*
X341084Y336342D01*
X341060Y336318D01*
X340709Y336014D01*
X340568Y335849D01*
X340428Y335709D01*
X340334Y335592D01*
X340264Y335498D01*
X340217Y335451D01*
X340193Y335428D01*
X340076Y335264D01*
X339983Y335076D01*
X339936Y334912D01*
X339889Y334748D01*
X339865Y334631D01*
X339842Y334514D01*
Y334444D01*
Y334420D01*
X339865Y334209D01*
X339936Y334045D01*
X340006Y333881D01*
X340100Y333741D01*
X340217Y333624D01*
X340287Y333530D01*
X340357Y333483D01*
X340381Y333460D01*
X340568Y333343D01*
X340732Y333249D01*
X340873Y333202D01*
X340896Y333178D01*
X340920D01*
X341154Y333132D01*
X341412Y333108D01*
X341670D01*
X341857Y333132D01*
X342044Y333178D01*
X342279Y333272D01*
X342490Y333366D01*
X342677Y333460D01*
X342841Y333553D01*
X342935Y333600D01*
X342982Y333624D01*
X343286Y333811D01*
X343544Y334022D01*
X343755Y334209D01*
X343919Y334373D01*
X344036Y334537D01*
X344106Y334655D01*
X344153Y334725D01*
X344177Y334748D01*
X345840Y331468D01*
X345535Y331117D01*
X345231Y330812D01*
X344926Y330554D01*
X344622Y330320D01*
X344317Y330133D01*
X344012Y329969D01*
X343731Y329828D01*
X343474Y329734D01*
X343216Y329641D01*
X343005Y329594D01*
X342794Y329547D01*
X342630Y329500D01*
X342490D01*
X342396Y329477D01*
X342302D01*
X341810Y329500D01*
X341365Y329547D01*
X340920Y329617D01*
X340521Y329711D01*
X340123Y329828D01*
X339772Y329945D01*
X339444Y330086D01*
X339139Y330226D01*
X338881Y330367D01*
X338647Y330507D01*
X338436Y330625D01*
X338272Y330742D01*
X338132Y330836D01*
X338038Y330906D01*
X337991Y330953D01*
X337967Y330976D01*
X337639Y331281D01*
X337382Y331609D01*
X337124Y331960D01*
X336913Y332288D01*
X336749Y332640D01*
X336609Y332968D01*
X336491Y333296D01*
X336398Y333624D01*
X336304Y333928D01*
X336257Y334186D01*
X336210Y334444D01*
X336187Y334655D01*
X336163Y334819D01*
Y334936D01*
Y335030D01*
Y335053D01*
Y335428D01*
X336210Y335779D01*
X336327Y336435D01*
X336491Y336998D01*
X336585Y337255D01*
X336679Y337490D01*
X336796Y337677D01*
X336890Y337864D01*
X336983Y338005D01*
X337054Y338122D01*
X337124Y338239D01*
X337171Y338310D01*
X337194Y338333D01*
X337218Y338356D01*
X337569Y338685D01*
X337874Y338942D01*
X338014Y339036D01*
X338108Y339130D01*
X338178Y339153D01*
X338202Y339177D01*
X338577Y339411D01*
X338741Y339528D01*
X338905Y339622D01*
X339022Y339692D01*
X339116Y339762D01*
X339162Y339786D01*
X339186Y339809D01*
X339491Y340043D01*
X339725Y340278D01*
X339819Y340371D01*
X339889Y340418D01*
X339912Y340465D01*
X339936Y340489D01*
X340029Y340629D01*
X340100Y340793D01*
X340193Y341121D01*
X340217Y341238D01*
X340240Y341356D01*
Y341426D01*
Y341449D01*
X340217Y341660D01*
X340146Y341871D01*
X340053Y342058D01*
X339936Y342199D01*
X339819Y342340D01*
X339725Y342433D01*
X339654Y342504D01*
X339631Y342527D01*
X339444Y342691D01*
X339280Y342785D01*
X339162Y342855D01*
X339116Y342879D01*
X338905Y342972D01*
X338741Y342996D01*
X338624Y343019D01*
X338577D01*
X338483Y342996D01*
X338366Y342972D01*
X338202Y342879D01*
X338108Y342761D01*
X338061Y342738D01*
Y342715D01*
X337967Y342597D01*
X337921Y342480D01*
X337827Y342222D01*
Y342105D01*
X337804Y342035D01*
Y341965D01*
Y341941D01*
X337827Y341590D01*
X337850Y341285D01*
X337874Y341168D01*
X337897Y341074D01*
X337921Y341028D01*
Y341004D01*
X334664Y341965D01*
X334617Y342222D01*
X334594Y342457D01*
X334570Y342597D01*
Y342621D01*
Y342644D01*
X334523Y342879D01*
X334500Y343066D01*
Y343230D01*
Y343253D01*
Y343277D01*
X334547Y343769D01*
X334641Y344191D01*
X334781Y344542D01*
X334922Y344847D01*
X335086Y345058D01*
X335226Y345221D01*
X335320Y345339D01*
X335367Y345362D01*
X335671Y345550D01*
X335976Y345690D01*
X336117Y345737D01*
X336210Y345784D01*
X336281Y345807D01*
X336304D01*
X336515Y345854D01*
X336749Y345901D01*
X336983Y345924D01*
X337218Y345948D01*
X337405Y345971D01*
X337710D01*
X338038Y345948D01*
D02*
G37*
G36*
X317034Y319666D02*
X318264Y313000D01*
X315229Y313459D01*
X315131Y314532D01*
X316498Y314308D01*
X316176Y316045D01*
X315980Y316055D01*
X315814D01*
X315756Y316065D01*
X315668D01*
X315502Y316074D01*
X315034D01*
X314995Y316084D01*
X314916D01*
X314887Y316279D01*
X314868Y316367D01*
X314858Y316445D01*
X314848Y316514D01*
Y316562D01*
X314838Y316592D01*
Y316601D01*
X314809Y316787D01*
X314799Y316884D01*
X314790Y316963D01*
X314780Y317031D01*
X314770Y317080D01*
Y317119D01*
Y317128D01*
X314819D01*
X314877Y317119D01*
X315024D01*
X315092Y317109D01*
X315346D01*
X315483Y317099D01*
X315629Y317089D01*
X315756D01*
X315873Y317080D01*
X315961D01*
X316029Y317070D01*
X316049D01*
X315717Y318758D01*
X314926D01*
X314770Y318768D01*
X314643D01*
X314536Y318778D01*
X314448D01*
X314380Y318788D01*
X314331D01*
X314311Y318905D01*
X314292Y319012D01*
X314282Y319051D01*
X314272Y319090D01*
X314263Y319110D01*
Y319120D01*
X314224Y319266D01*
X314204Y319393D01*
X314184Y319442D01*
Y319481D01*
X314175Y319500D01*
Y319510D01*
X314136Y319666D01*
X314097Y319793D01*
X314077Y319851D01*
X314067Y319891D01*
X314058Y319920D01*
Y319930D01*
X317034Y319666D01*
D02*
G37*
G36*
X314350Y346112D02*
X314936Y346018D01*
X315522Y345901D01*
X316131Y345784D01*
X316389Y345714D01*
X316646Y345643D01*
X316880Y345573D01*
X317091Y345526D01*
X317255Y345479D01*
X317373Y345432D01*
X317466Y345409D01*
X317490D01*
X317583Y344870D01*
X317677Y344308D01*
X317865Y343113D01*
X318099Y341848D01*
X318357Y340535D01*
X318872Y337888D01*
X319130Y336599D01*
X319388Y335334D01*
X319622Y334139D01*
X319739Y333577D01*
X319856Y333038D01*
X319973Y332546D01*
X320067Y332054D01*
X320161Y331609D01*
X320254Y331187D01*
X320348Y330812D01*
X320419Y330484D01*
X320465Y330203D01*
X320536Y329945D01*
X320583Y329758D01*
X320606Y329617D01*
X320629Y329523D01*
Y329500D01*
X316763Y330226D01*
X316670Y330836D01*
X316576Y331398D01*
X316506Y331937D01*
X316412Y332429D01*
X316342Y332897D01*
X316248Y333319D01*
X316178Y333694D01*
X316131Y334045D01*
X316060Y334350D01*
X316014Y334631D01*
X315967Y334842D01*
X315920Y335030D01*
X315897Y335193D01*
X315873Y335287D01*
X315850Y335357D01*
Y335381D01*
X315615D01*
X315217Y335404D01*
X314842Y335475D01*
X314491Y335545D01*
X314163Y335662D01*
X313905Y335756D01*
X313694Y335826D01*
X313577Y335896D01*
X313530Y335920D01*
X313155Y336131D01*
X312827Y336365D01*
X312523Y336623D01*
X312241Y336857D01*
X312031Y337045D01*
X311890Y337232D01*
X311773Y337326D01*
X311749Y337372D01*
X311468Y337724D01*
X311234Y338075D01*
X311023Y338427D01*
X310836Y338755D01*
X310695Y339036D01*
X310601Y339270D01*
X310531Y339411D01*
X310508Y339434D01*
Y339458D01*
X310344Y339903D01*
X310226Y340325D01*
X310156Y340746D01*
X310086Y341121D01*
X310062Y341426D01*
X310039Y341684D01*
Y341777D01*
Y341848D01*
Y341871D01*
Y341895D01*
X310062Y342597D01*
X310156Y343183D01*
X310273Y343699D01*
X310414Y344144D01*
X310578Y344472D01*
X310625Y344589D01*
X310695Y344706D01*
X310742Y344776D01*
X310789Y344847D01*
X310812Y344894D01*
X311000Y345104D01*
X311187Y345268D01*
X311374Y345432D01*
X311562Y345550D01*
X311702Y345643D01*
X311843Y345714D01*
X311937Y345760D01*
X311960Y345784D01*
X312241Y345901D01*
X312546Y345995D01*
X312851Y346042D01*
X313155Y346088D01*
X313436Y346112D01*
X313647Y346135D01*
X314092D01*
X314350Y346112D01*
D02*
G37*
G36*
X363072Y319324D02*
X363053Y319129D01*
Y319080D01*
X363043Y319002D01*
X363033Y318905D01*
X363023Y318788D01*
Y318661D01*
X363014Y318534D01*
X362994Y318251D01*
X362984Y318114D01*
X362975Y317987D01*
X362965Y317861D01*
X362955Y317753D01*
Y317665D01*
X362945Y317597D01*
Y317558D01*
Y317538D01*
X362916Y317031D01*
X362897Y316797D01*
X362887Y316562D01*
X362877Y316348D01*
X362867Y316133D01*
Y315948D01*
X362858Y315762D01*
Y315596D01*
X362848Y315450D01*
Y315323D01*
Y315225D01*
Y315137D01*
Y315069D01*
Y315030D01*
Y315020D01*
X363277Y313137D01*
X361677Y313332D01*
X361569Y313693D01*
X361481Y314025D01*
X361442Y314181D01*
X361413Y314318D01*
X361374Y314444D01*
X361345Y314571D01*
X361325Y314669D01*
X361296Y314767D01*
X361277Y314845D01*
X361267Y314913D01*
X361257Y314971D01*
X361247Y315011D01*
X361237Y315030D01*
Y315040D01*
X361130Y315274D01*
X361081Y315381D01*
X361033Y315479D01*
X360993Y315567D01*
X360964Y315635D01*
X360945Y315674D01*
X360935Y315694D01*
X360808Y315957D01*
X360749Y316074D01*
X360701Y316182D01*
X360662Y316270D01*
X360623Y316348D01*
X360603Y316387D01*
X360593Y316406D01*
X359998Y317617D01*
X359842Y317939D01*
X359686Y318261D01*
X359539Y318573D01*
X359461Y318719D01*
X359393Y318866D01*
X359334Y318993D01*
X359276Y319110D01*
X359217Y319217D01*
X359178Y319305D01*
X359139Y319383D01*
X359110Y319432D01*
X359100Y319471D01*
X359090Y319481D01*
X360554Y319803D01*
X360681Y319442D01*
X360788Y319100D01*
X360896Y318788D01*
X360993Y318514D01*
X361081Y318261D01*
X361169Y318026D01*
X361237Y317821D01*
X361306Y317646D01*
X361355Y317490D01*
X361403Y317363D01*
X361452Y317246D01*
X361481Y317158D01*
X361511Y317099D01*
X361521Y317050D01*
X361540Y317021D01*
Y317363D01*
Y318280D01*
Y319920D01*
X363072Y319324D01*
D02*
G37*
G36*
X311491Y320017D02*
X311666Y319978D01*
X311852Y319939D01*
X312018Y319881D01*
X312164Y319832D01*
X312223Y319803D01*
X312271Y319783D01*
X312320Y319764D01*
X312350Y319744D01*
X312369Y319734D01*
X312379D01*
X312603Y319607D01*
X312808Y319471D01*
X313003Y319324D01*
X313179Y319178D01*
X313316Y319041D01*
X313374Y318983D01*
X313423Y318934D01*
X313462Y318895D01*
X313492Y318866D01*
X313511Y318846D01*
X313521Y318836D01*
X313706Y318602D01*
X313882Y318349D01*
X314028Y318095D01*
X314155Y317861D01*
X314214Y317753D01*
X314263Y317646D01*
X314302Y317558D01*
X314331Y317480D01*
X314360Y317421D01*
X314380Y317372D01*
X314399Y317343D01*
Y317333D01*
X314516Y316982D01*
X314594Y316631D01*
X314653Y316279D01*
X314682Y316104D01*
X314702Y315948D01*
X314711Y315801D01*
X314721Y315665D01*
X314731Y315538D01*
Y315440D01*
X314741Y315352D01*
Y315284D01*
Y315245D01*
Y315235D01*
X314731Y315020D01*
X314721Y314815D01*
X314692Y314620D01*
X314663Y314444D01*
X314624Y314279D01*
X314585Y314122D01*
X314536Y313986D01*
X314487Y313859D01*
X314448Y313752D01*
X314399Y313654D01*
X314360Y313576D01*
X314321Y313508D01*
X314292Y313449D01*
X314263Y313410D01*
X314253Y313390D01*
X314243Y313381D01*
X314155Y313273D01*
X314067Y313176D01*
X313970Y313098D01*
X313892Y313039D01*
X313814Y312981D01*
X313755Y312951D01*
X313716Y312932D01*
X313706Y312922D01*
X313589Y312873D01*
X313462Y312834D01*
X313345Y312815D01*
X313228Y312795D01*
X313140Y312785D01*
X313062Y312775D01*
X312994D01*
X312838Y312785D01*
X312681Y312815D01*
X312535Y312854D01*
X312398Y312893D01*
X312271Y312932D01*
X312184Y312971D01*
X312145Y312990D01*
X312115Y313000D01*
X312106Y313010D01*
X312096D01*
X311910Y313107D01*
X311735Y313225D01*
X311569Y313342D01*
X311432Y313459D01*
X311315Y313556D01*
X311227Y313644D01*
X311169Y313703D01*
X311149Y313713D01*
Y313722D01*
X310993Y313908D01*
X310847Y314113D01*
X310720Y314308D01*
X310612Y314493D01*
X310515Y314659D01*
X310485Y314727D01*
X310456Y314786D01*
X310427Y314835D01*
X310407Y314874D01*
X310398Y314893D01*
Y314903D01*
X310290Y315177D01*
X310212Y315469D01*
X310144Y315743D01*
X310095Y316006D01*
X310075Y316123D01*
X310066Y316231D01*
X310046Y316328D01*
X310036Y316416D01*
Y316484D01*
X310027Y316533D01*
Y316562D01*
Y316572D01*
X310417Y316504D01*
X310817Y316445D01*
X311208Y316387D01*
X311393Y316357D01*
X311569Y316328D01*
X311735Y316309D01*
X311881Y316289D01*
X312018Y316270D01*
X312135Y316260D01*
X312223Y316250D01*
X312291Y316240D01*
X312330Y316231D01*
X312350D01*
X312515Y315303D01*
X311520Y315450D01*
X311540Y315264D01*
X311588Y315089D01*
X311647Y314932D01*
X311715Y314796D01*
X311784Y314688D01*
X311842Y314610D01*
X311881Y314562D01*
X311901Y314542D01*
X312018Y314435D01*
X312135Y314347D01*
X312184Y314318D01*
X312223Y314298D01*
X312252Y314279D01*
X312262D01*
X312418Y314220D01*
X312555Y314191D01*
X312613D01*
X312662Y314181D01*
X312701D01*
X312779Y314191D01*
X312857Y314220D01*
X312925Y314259D01*
X312984Y314308D01*
X313033Y314347D01*
X313072Y314386D01*
X313091Y314415D01*
X313101Y314425D01*
X313160Y314532D01*
X313199Y314659D01*
X313238Y314806D01*
X313257Y314942D01*
X313267Y315069D01*
X313277Y315167D01*
Y315206D01*
Y315235D01*
Y315255D01*
Y315264D01*
X313267Y315489D01*
X313238Y315704D01*
X313169Y316133D01*
X313121Y316338D01*
X313072Y316533D01*
X313013Y316728D01*
X312955Y316904D01*
X312906Y317060D01*
X312857Y317207D01*
X312808Y317333D01*
X312759Y317451D01*
X312720Y317538D01*
X312691Y317597D01*
X312681Y317646D01*
X312672Y317655D01*
X312584Y317841D01*
X312486Y318017D01*
X312398Y318163D01*
X312320Y318280D01*
X312252Y318378D01*
X312203Y318456D01*
X312164Y318495D01*
X312154Y318514D01*
X312047Y318632D01*
X311949Y318710D01*
X311862Y318768D01*
X311784Y318817D01*
X311715Y318836D01*
X311666Y318846D01*
X311637Y318856D01*
X311627D01*
X311559Y318846D01*
X311491Y318827D01*
X311432Y318788D01*
X311383Y318749D01*
X311286Y318632D01*
X311217Y318505D01*
X311159Y318378D01*
X311120Y318261D01*
X311110Y318222D01*
X311100Y318183D01*
X311091Y318163D01*
Y318153D01*
X309792Y318397D01*
X309812Y318651D01*
X309851Y318885D01*
X309900Y319080D01*
X309968Y319237D01*
X310036Y319373D01*
X310085Y319461D01*
X310124Y319520D01*
X310144Y319539D01*
X310212Y319617D01*
X310290Y319686D01*
X310359Y319754D01*
X310437Y319803D01*
X310495Y319842D01*
X310544Y319871D01*
X310583Y319881D01*
X310593Y319891D01*
X310700Y319939D01*
X310817Y319969D01*
X310944Y319998D01*
X311052Y320008D01*
X311159Y320017D01*
X311237Y320027D01*
X311315D01*
X311491Y320017D01*
D02*
G37*
G36*
X373447Y319851D02*
X373701Y319803D01*
X373935Y319734D01*
X374130Y319656D01*
X374218Y319617D01*
X374296Y319578D01*
X374365Y319539D01*
X374423Y319510D01*
X374472Y319481D01*
X374501Y319461D01*
X374521Y319451D01*
X374531Y319442D01*
X374745Y319276D01*
X374950Y319090D01*
X375126Y318905D01*
X375282Y318729D01*
X375399Y318573D01*
X375458Y318514D01*
X375497Y318456D01*
X375526Y318407D01*
X375555Y318368D01*
X375565Y318349D01*
X375575Y318339D01*
X375731Y318075D01*
X375868Y317812D01*
X375985Y317548D01*
X376082Y317304D01*
X376121Y317197D01*
X376161Y317099D01*
X376190Y317011D01*
X376209Y316933D01*
X376229Y316875D01*
X376248Y316826D01*
X376258Y316797D01*
Y316787D01*
X376336Y316465D01*
X376395Y316143D01*
X376444Y315840D01*
X376463Y315704D01*
X376473Y315577D01*
X376483Y315450D01*
X376492Y315342D01*
Y315245D01*
X376502Y315157D01*
Y315089D01*
Y315040D01*
Y315011D01*
Y315001D01*
X376483Y314669D01*
X376444Y314376D01*
X376414Y314240D01*
X376375Y314122D01*
X376346Y314005D01*
X376307Y313908D01*
X376268Y313820D01*
X376239Y313732D01*
X376200Y313664D01*
X376170Y313615D01*
X376151Y313566D01*
X376131Y313537D01*
X376112Y313517D01*
Y313508D01*
X376043Y313420D01*
X375965Y313342D01*
X375887Y313264D01*
X375809Y313205D01*
X375653Y313117D01*
X375507Y313059D01*
X375370Y313019D01*
X375263Y313000D01*
X375223Y312990D01*
X375165D01*
X375048Y313000D01*
X374931Y313010D01*
X374706Y313068D01*
X374501Y313146D01*
X374316Y313234D01*
X374160Y313322D01*
X374091Y313361D01*
X374043Y313400D01*
X373994Y313429D01*
X373965Y313459D01*
X373945Y313469D01*
X373935Y313478D01*
X373701Y313713D01*
X373486Y313956D01*
X373301Y314220D01*
X373145Y314464D01*
X373086Y314571D01*
X373027Y314679D01*
X372979Y314776D01*
X372940Y314854D01*
X372901Y314923D01*
X372881Y314971D01*
X372862Y315001D01*
Y315011D01*
X373935Y315450D01*
X373965Y315333D01*
X374013Y315225D01*
X374062Y315118D01*
X374121Y315030D01*
X374169Y314952D01*
X374218Y314893D01*
X374248Y314854D01*
X374257Y314845D01*
X374355Y314747D01*
X374443Y314679D01*
X374531Y314620D01*
X374599Y314591D01*
X374657Y314571D01*
X374706Y314562D01*
X374735Y314552D01*
X374745D01*
X374794Y314562D01*
X374843Y314571D01*
X374911Y314630D01*
X374960Y314698D01*
X374989Y314786D01*
X375009Y314874D01*
X375028Y314952D01*
Y315001D01*
Y315011D01*
Y315020D01*
X375019Y315215D01*
X374989Y315421D01*
X374950Y315625D01*
X374901Y315821D01*
X374853Y315996D01*
X374833Y316074D01*
X374814Y316143D01*
X374794Y316192D01*
X374784Y316240D01*
X374775Y316260D01*
Y316270D01*
X374687Y316523D01*
X374648Y316640D01*
X374609Y316748D01*
X374570Y316836D01*
X374540Y316904D01*
X374531Y316943D01*
X374521Y316963D01*
X374462Y317089D01*
X374413Y317207D01*
X374365Y317314D01*
X374316Y317411D01*
X374277Y317480D01*
X374248Y317538D01*
X374228Y317577D01*
X374218Y317587D01*
X374160Y317685D01*
X374091Y317773D01*
X374043Y317851D01*
X373994Y317919D01*
X373945Y317968D01*
X373916Y318007D01*
X373896Y318026D01*
X373886Y318036D01*
X373828Y318095D01*
X373769Y318134D01*
X373711Y318173D01*
X373672Y318192D01*
X373633Y318202D01*
X373603Y318212D01*
X373574D01*
X373516Y318202D01*
X373467Y318173D01*
X373418Y318134D01*
X373379Y318095D01*
X373350Y318056D01*
X373330Y318017D01*
X373311Y317987D01*
Y317978D01*
X372081Y318309D01*
X372071Y318358D01*
Y318397D01*
Y318417D01*
Y318427D01*
Y318544D01*
X372081Y318758D01*
X372120Y318954D01*
X372169Y319120D01*
X372227Y319256D01*
X372295Y319363D01*
X372344Y319442D01*
X372383Y319490D01*
X372393Y319510D01*
X372520Y319627D01*
X372657Y319715D01*
X372783Y319783D01*
X372910Y319822D01*
X373018Y319851D01*
X373106Y319861D01*
X373164Y319871D01*
X373320D01*
X373447Y319851D01*
D02*
G37*
G36*
X377341D02*
X377595Y319803D01*
X377829Y319734D01*
X378025Y319656D01*
X378113Y319617D01*
X378191Y319578D01*
X378259Y319539D01*
X378317Y319510D01*
X378366Y319481D01*
X378396Y319461D01*
X378415Y319451D01*
X378425Y319442D01*
X378640Y319276D01*
X378844Y319090D01*
X379020Y318905D01*
X379176Y318729D01*
X379293Y318573D01*
X379352Y318514D01*
X379391Y318456D01*
X379420Y318407D01*
X379450Y318368D01*
X379459Y318349D01*
X379469Y318339D01*
X379625Y318075D01*
X379762Y317812D01*
X379879Y317548D01*
X379977Y317304D01*
X380016Y317197D01*
X380055Y317099D01*
X380084Y317011D01*
X380103Y316933D01*
X380123Y316875D01*
X380143Y316826D01*
X380152Y316797D01*
Y316787D01*
X380230Y316465D01*
X380289Y316143D01*
X380338Y315840D01*
X380357Y315704D01*
X380367Y315577D01*
X380377Y315450D01*
X380387Y315342D01*
Y315245D01*
X380396Y315157D01*
Y315089D01*
Y315040D01*
Y315011D01*
Y315001D01*
X380377Y314669D01*
X380338Y314376D01*
X380309Y314240D01*
X380269Y314122D01*
X380240Y314005D01*
X380201Y313908D01*
X380162Y313820D01*
X380133Y313732D01*
X380094Y313664D01*
X380065Y313615D01*
X380045Y313566D01*
X380025Y313537D01*
X380006Y313517D01*
Y313508D01*
X379938Y313420D01*
X379859Y313342D01*
X379781Y313264D01*
X379703Y313205D01*
X379547Y313117D01*
X379401Y313059D01*
X379264Y313019D01*
X379157Y313000D01*
X379118Y312990D01*
X379059D01*
X378942Y313000D01*
X378825Y313010D01*
X378601Y313068D01*
X378396Y313146D01*
X378210Y313234D01*
X378054Y313322D01*
X377986Y313361D01*
X377937Y313400D01*
X377888Y313429D01*
X377859Y313459D01*
X377839Y313469D01*
X377829Y313478D01*
X377595Y313713D01*
X377380Y313956D01*
X377195Y314220D01*
X377039Y314464D01*
X376980Y314571D01*
X376922Y314679D01*
X376873Y314776D01*
X376834Y314854D01*
X376795Y314923D01*
X376775Y314971D01*
X376756Y315001D01*
Y315011D01*
X377829Y315450D01*
X377859Y315333D01*
X377907Y315225D01*
X377956Y315118D01*
X378015Y315030D01*
X378064Y314952D01*
X378113Y314893D01*
X378142Y314854D01*
X378151Y314845D01*
X378249Y314747D01*
X378337Y314679D01*
X378425Y314620D01*
X378493Y314591D01*
X378552Y314571D01*
X378601Y314562D01*
X378630Y314552D01*
X378640D01*
X378688Y314562D01*
X378737Y314571D01*
X378805Y314630D01*
X378854Y314698D01*
X378884Y314786D01*
X378903Y314874D01*
X378923Y314952D01*
Y315001D01*
Y315011D01*
Y315020D01*
X378913Y315215D01*
X378884Y315421D01*
X378844Y315625D01*
X378796Y315821D01*
X378747Y315996D01*
X378727Y316074D01*
X378708Y316143D01*
X378688Y316192D01*
X378679Y316240D01*
X378669Y316260D01*
Y316270D01*
X378581Y316523D01*
X378542Y316640D01*
X378503Y316748D01*
X378464Y316836D01*
X378435Y316904D01*
X378425Y316943D01*
X378415Y316963D01*
X378357Y317089D01*
X378308Y317207D01*
X378259Y317314D01*
X378210Y317411D01*
X378171Y317480D01*
X378142Y317538D01*
X378122Y317577D01*
X378113Y317587D01*
X378054Y317685D01*
X377986Y317773D01*
X377937Y317851D01*
X377888Y317919D01*
X377839Y317968D01*
X377810Y318007D01*
X377790Y318026D01*
X377781Y318036D01*
X377722Y318095D01*
X377663Y318134D01*
X377605Y318173D01*
X377566Y318192D01*
X377527Y318202D01*
X377498Y318212D01*
X377468D01*
X377410Y318202D01*
X377361Y318173D01*
X377312Y318134D01*
X377273Y318095D01*
X377244Y318056D01*
X377224Y318017D01*
X377205Y317987D01*
Y317978D01*
X375975Y318309D01*
X375965Y318358D01*
Y318397D01*
Y318417D01*
Y318427D01*
Y318544D01*
X375975Y318758D01*
X376014Y318954D01*
X376063Y319120D01*
X376121Y319256D01*
X376190Y319363D01*
X376239Y319442D01*
X376278Y319490D01*
X376287Y319510D01*
X376414Y319627D01*
X376551Y319715D01*
X376678Y319783D01*
X376805Y319822D01*
X376912Y319851D01*
X377000Y319861D01*
X377058Y319871D01*
X377215D01*
X377341Y319851D01*
D02*
G37*
G36*
X348784Y319930D02*
X348969Y319900D01*
X349174Y319871D01*
X349389Y319842D01*
X349818Y319793D01*
X350033Y319764D01*
X350238Y319744D01*
X350433Y319725D01*
X350609Y319715D01*
X350775Y319695D01*
X350911Y319686D01*
X351028Y319676D01*
X351116D01*
X351175Y319666D01*
X351194D01*
X351282Y319344D01*
X351331Y319188D01*
X351370Y319041D01*
X351409Y318924D01*
X351438Y318827D01*
X351448Y318788D01*
X351458Y318758D01*
X351468Y318749D01*
Y318739D01*
X351526Y318544D01*
X351575Y318358D01*
X351634Y318183D01*
X351682Y318026D01*
X351721Y317880D01*
X351751Y317782D01*
X351761Y317743D01*
X351770Y317714D01*
X351780Y317695D01*
Y317685D01*
X351839Y317480D01*
X351897Y317285D01*
X351946Y317099D01*
X351995Y316933D01*
X352044Y316787D01*
X352073Y316680D01*
X352083Y316640D01*
X352092Y316611D01*
X352102Y316592D01*
Y316582D01*
X352170Y316357D01*
X352239Y316123D01*
X352307Y315889D01*
X352375Y315665D01*
X352414Y315557D01*
X352444Y315459D01*
X352463Y315372D01*
X352483Y315303D01*
X352502Y315245D01*
X352522Y315196D01*
X352532Y315167D01*
Y315157D01*
X352629Y314815D01*
X352736Y314464D01*
X352844Y314113D01*
X352893Y313947D01*
X352941Y313781D01*
X352990Y313625D01*
X353029Y313488D01*
X353068Y313361D01*
X353098Y313254D01*
X353117Y313166D01*
X353137Y313107D01*
X353156Y313059D01*
Y313049D01*
X352951Y313078D01*
X352854Y313088D01*
X352776Y313098D01*
X352697Y313107D01*
X352649Y313117D01*
X352600D01*
X352395Y313137D01*
X352307Y313156D01*
X352219Y313166D01*
X352151Y313176D01*
X352092D01*
X352053Y313185D01*
X352044D01*
X351936Y313195D01*
X351848Y313215D01*
X351761Y313225D01*
X351692Y313234D01*
X351634Y313244D01*
X351595Y313254D01*
X351555D01*
X351175Y314601D01*
X350355D01*
X350384Y314327D01*
X350414Y314054D01*
X350443Y313791D01*
X350472Y313547D01*
X350482Y313429D01*
X350492Y313332D01*
X350501Y313234D01*
X350511Y313156D01*
X350521Y313098D01*
X350531Y313049D01*
Y313019D01*
Y313010D01*
X350355Y313039D01*
X350267Y313059D01*
X350189Y313068D01*
X350121Y313078D01*
X350072Y313088D01*
X350033Y313098D01*
X350023D01*
X349818Y313127D01*
X349730Y313146D01*
X349652Y313156D01*
X349584Y313166D01*
X349525D01*
X349496Y313176D01*
X349486D01*
X349291Y313205D01*
X349203Y313225D01*
X349115Y313234D01*
X349047Y313244D01*
X348998Y313254D01*
X348959Y313264D01*
X348950D01*
X348911Y314054D01*
X348881Y314854D01*
X348862Y315235D01*
X348842Y315616D01*
X348833Y315977D01*
X348813Y316318D01*
X348803Y316631D01*
X348784Y316923D01*
X348774Y317177D01*
X348764Y317294D01*
Y317392D01*
Y317490D01*
X348754Y317568D01*
Y317646D01*
Y317704D01*
X348745Y317753D01*
Y317782D01*
Y317802D01*
Y317812D01*
X348725Y318261D01*
X348706Y318466D01*
X348696Y318671D01*
X348686Y318856D01*
X348676Y319032D01*
X348667Y319198D01*
X348657Y319354D01*
X348647Y319490D01*
X348637Y319607D01*
X348627Y319715D01*
X348618Y319803D01*
Y319871D01*
X348608Y319920D01*
Y319949D01*
Y319959D01*
X348784Y319930D01*
D02*
G37*
G36*
X339258Y319900D02*
X339414Y319871D01*
X339561Y319832D01*
X339697Y319783D01*
X339970Y319656D01*
X340205Y319510D01*
X340312Y319432D01*
X340410Y319354D01*
X340488Y319285D01*
X340556Y319227D01*
X340615Y319178D01*
X340654Y319139D01*
X340683Y319110D01*
X340693Y319100D01*
X340829Y318963D01*
X340946Y318807D01*
X341181Y318495D01*
X341376Y318183D01*
X341551Y317880D01*
X341620Y317743D01*
X341688Y317617D01*
X341737Y317509D01*
X341786Y317411D01*
X341815Y317324D01*
X341844Y317265D01*
X341854Y317226D01*
X341864Y317216D01*
X341942Y317002D01*
X342010Y316797D01*
X342118Y316396D01*
X342157Y316211D01*
X342196Y316035D01*
X342225Y315869D01*
X342245Y315713D01*
X342264Y315567D01*
X342284Y315440D01*
X342293Y315323D01*
Y315225D01*
X342303Y315157D01*
Y315098D01*
Y315059D01*
Y315050D01*
X342284Y314727D01*
X342245Y314444D01*
X342215Y314308D01*
X342186Y314191D01*
X342147Y314083D01*
X342108Y313986D01*
X342079Y313898D01*
X342039Y313820D01*
X342010Y313761D01*
X341981Y313703D01*
X341961Y313664D01*
X341942Y313634D01*
X341922Y313615D01*
Y313605D01*
X341844Y313508D01*
X341766Y313420D01*
X341688Y313342D01*
X341610Y313273D01*
X341542Y313225D01*
X341483Y313185D01*
X341444Y313166D01*
X341434Y313156D01*
X341307Y313107D01*
X341181Y313068D01*
X341054Y313039D01*
X340937Y313019D01*
X340829Y313010D01*
X340751Y313000D01*
X340673D01*
X340507Y313010D01*
X340341Y313029D01*
X340195Y313068D01*
X340068Y313107D01*
X339961Y313137D01*
X339883Y313176D01*
X339834Y313195D01*
X339814Y313205D01*
X339668Y313293D01*
X339531Y313381D01*
X339277Y313586D01*
X339053Y313810D01*
X338867Y314035D01*
X338789Y314132D01*
X338721Y314230D01*
X338663Y314318D01*
X338604Y314396D01*
X338565Y314464D01*
X338536Y314513D01*
X338526Y314542D01*
X338516Y314552D01*
X338380Y314825D01*
X338262Y315098D01*
X338155Y315372D01*
X338067Y315635D01*
X337999Y315899D01*
X337931Y316153D01*
X337882Y316396D01*
X337843Y316621D01*
X337813Y316836D01*
X337784Y317021D01*
X337765Y317197D01*
X337755Y317343D01*
X337745Y317460D01*
Y317548D01*
Y317597D01*
Y317617D01*
Y317802D01*
X337755Y317978D01*
X337774Y318144D01*
X337794Y318290D01*
X337823Y318436D01*
X337843Y318573D01*
X337872Y318690D01*
X337901Y318807D01*
X337940Y318905D01*
X337970Y318993D01*
X337989Y319061D01*
X338018Y319129D01*
X338038Y319178D01*
X338057Y319207D01*
X338067Y319227D01*
Y319237D01*
X338136Y319354D01*
X338214Y319461D01*
X338301Y319549D01*
X338389Y319627D01*
X338477Y319695D01*
X338565Y319744D01*
X338643Y319793D01*
X338731Y319822D01*
X338877Y319871D01*
X338946Y319891D01*
X339004Y319900D01*
X339043Y319910D01*
X339111D01*
X339258Y319900D01*
D02*
G37*
G36*
X322266Y319930D02*
X322451Y319900D01*
X322656Y319871D01*
X322871Y319842D01*
X323300Y319793D01*
X323515Y319764D01*
X323720Y319744D01*
X323915Y319725D01*
X324091Y319715D01*
X324257Y319695D01*
X324393Y319686D01*
X324511Y319676D01*
X324598D01*
X324657Y319666D01*
X324676D01*
X324764Y319344D01*
X324813Y319188D01*
X324852Y319041D01*
X324891Y318924D01*
X324921Y318827D01*
X324930Y318788D01*
X324940Y318758D01*
X324950Y318749D01*
Y318739D01*
X325008Y318544D01*
X325057Y318358D01*
X325116Y318183D01*
X325165Y318026D01*
X325203Y317880D01*
X325233Y317782D01*
X325243Y317743D01*
X325252Y317714D01*
X325262Y317695D01*
Y317685D01*
X325321Y317480D01*
X325379Y317285D01*
X325428Y317099D01*
X325477Y316933D01*
X325526Y316787D01*
X325555Y316680D01*
X325565Y316640D01*
X325574Y316611D01*
X325584Y316592D01*
Y316582D01*
X325653Y316357D01*
X325721Y316123D01*
X325789Y315889D01*
X325857Y315665D01*
X325897Y315557D01*
X325926Y315459D01*
X325945Y315372D01*
X325965Y315303D01*
X325984Y315245D01*
X326004Y315196D01*
X326014Y315167D01*
Y315157D01*
X326111Y314815D01*
X326219Y314464D01*
X326326Y314113D01*
X326375Y313947D01*
X326424Y313781D01*
X326472Y313625D01*
X326511Y313488D01*
X326550Y313361D01*
X326580Y313254D01*
X326599Y313166D01*
X326619Y313107D01*
X326638Y313059D01*
Y313049D01*
X326433Y313078D01*
X326336Y313088D01*
X326258Y313098D01*
X326180Y313107D01*
X326131Y313117D01*
X326082D01*
X325877Y313137D01*
X325789Y313156D01*
X325701Y313166D01*
X325633Y313176D01*
X325574D01*
X325535Y313185D01*
X325526D01*
X325418Y313195D01*
X325330Y313215D01*
X325243Y313225D01*
X325174Y313234D01*
X325116Y313244D01*
X325077Y313254D01*
X325038D01*
X324657Y314601D01*
X323837D01*
X323866Y314327D01*
X323896Y314054D01*
X323925Y313791D01*
X323954Y313547D01*
X323964Y313429D01*
X323974Y313332D01*
X323984Y313234D01*
X323993Y313156D01*
X324003Y313098D01*
X324013Y313049D01*
Y313019D01*
Y313010D01*
X323837Y313039D01*
X323749Y313059D01*
X323671Y313068D01*
X323603Y313078D01*
X323554Y313088D01*
X323515Y313098D01*
X323505D01*
X323300Y313127D01*
X323213Y313146D01*
X323134Y313156D01*
X323066Y313166D01*
X323007D01*
X322978Y313176D01*
X322969D01*
X322773Y313205D01*
X322685Y313225D01*
X322598Y313234D01*
X322529Y313244D01*
X322481Y313254D01*
X322441Y313264D01*
X322432D01*
X322393Y314054D01*
X322363Y314854D01*
X322344Y315235D01*
X322324Y315616D01*
X322315Y315977D01*
X322295Y316318D01*
X322285Y316631D01*
X322266Y316923D01*
X322256Y317177D01*
X322246Y317294D01*
Y317392D01*
Y317490D01*
X322236Y317568D01*
Y317646D01*
Y317704D01*
X322227Y317753D01*
Y317782D01*
Y317802D01*
Y317812D01*
X322207Y318261D01*
X322188Y318466D01*
X322178Y318671D01*
X322168Y318856D01*
X322158Y319032D01*
X322149Y319198D01*
X322139Y319354D01*
X322129Y319490D01*
X322119Y319607D01*
X322110Y319715D01*
X322100Y319803D01*
Y319871D01*
X322090Y319920D01*
Y319949D01*
Y319959D01*
X322266Y319930D01*
D02*
G37*
G36*
X356924Y316894D02*
X357207Y316884D01*
X357480Y316875D01*
X357734D01*
X357841Y316865D01*
X358485D01*
X358583Y316875D01*
X358797D01*
X359012Y316884D01*
X359217Y316894D01*
X359393D01*
X359461Y316904D01*
X359559D01*
X360008Y315245D01*
X359715D01*
X359627Y315255D01*
X359432D01*
X359295Y315264D01*
X359159D01*
X359012Y315274D01*
X358319D01*
X358202Y315264D01*
X357939D01*
X357656Y315255D01*
X357519D01*
X357392Y315245D01*
X357177D01*
X357089Y315235D01*
X356963D01*
X356641Y316914D01*
X356924Y316894D01*
D02*
G37*
G36*
X374893Y346346D02*
X375291Y346276D01*
X375713Y346182D01*
X376088Y346042D01*
X376463Y345878D01*
X376815Y345714D01*
X377166Y345526D01*
X377470Y345339D01*
X377752Y345128D01*
X378009Y344940D01*
X378244Y344776D01*
X378431Y344612D01*
X378572Y344472D01*
X378689Y344378D01*
X378759Y344308D01*
X378783Y344284D01*
X379462Y343535D01*
X380071Y342715D01*
X380587Y341918D01*
X381032Y341145D01*
X381219Y340793D01*
X381383Y340489D01*
X381524Y340184D01*
X381641Y339950D01*
X381735Y339739D01*
X381805Y339598D01*
X381828Y339481D01*
X381852Y339458D01*
X382063Y338919D01*
X382227Y338380D01*
X382391Y337864D01*
X382508Y337372D01*
X382625Y336904D01*
X382719Y336459D01*
X382789Y336037D01*
X382859Y335639D01*
X382906Y335287D01*
X382930Y334959D01*
X382953Y334701D01*
X382977Y334467D01*
X383000Y334280D01*
Y334139D01*
Y334045D01*
Y334022D01*
Y333600D01*
X382953Y333202D01*
X382906Y332827D01*
X382859Y332499D01*
X382766Y332171D01*
X382695Y331890D01*
X382602Y331632D01*
X382508Y331398D01*
X382438Y331187D01*
X382344Y330999D01*
X382250Y330859D01*
X382180Y330742D01*
X382133Y330625D01*
X382086Y330554D01*
X382039Y330531D01*
Y330507D01*
X381875Y330320D01*
X381688Y330156D01*
X381290Y329875D01*
X380891Y329687D01*
X380516Y329570D01*
X380165Y329477D01*
X379907Y329453D01*
X379790Y329430D01*
X379649D01*
X379298Y329453D01*
X378970Y329500D01*
X378619Y329570D01*
X378291Y329664D01*
X377658Y329922D01*
X377072Y330203D01*
X376815Y330344D01*
X376580Y330461D01*
X376393Y330601D01*
X376205Y330718D01*
X376065Y330812D01*
X375971Y330882D01*
X375901Y330929D01*
X375877Y330953D01*
X375526Y331257D01*
X375174Y331562D01*
X374870Y331866D01*
X374612Y332148D01*
X374378Y332405D01*
X374190Y332593D01*
X374097Y332733D01*
X374050Y332780D01*
X373745Y333202D01*
X373441Y333624D01*
X373183Y334022D01*
X372972Y334397D01*
X372784Y334725D01*
X372644Y334983D01*
X372597Y335076D01*
X372550Y335147D01*
X372527Y335193D01*
Y335217D01*
X372292Y335732D01*
X372082Y336271D01*
X371918Y336763D01*
X371754Y337232D01*
X371660Y337630D01*
X371613Y337794D01*
X371566Y337935D01*
X371543Y338052D01*
X371519Y338146D01*
X371496Y338193D01*
Y338216D01*
X371355Y338825D01*
X371262Y339364D01*
X371191Y339879D01*
X371144Y340325D01*
X371121Y340676D01*
X371098Y340840D01*
Y340957D01*
Y341051D01*
Y341121D01*
Y341168D01*
Y341192D01*
Y341637D01*
X371121Y342058D01*
X371168Y342457D01*
X371191Y342808D01*
X371262Y343136D01*
X371308Y343441D01*
X371379Y343699D01*
X371426Y343956D01*
X371496Y344167D01*
X371566Y344355D01*
X371613Y344519D01*
X371660Y344636D01*
X371707Y344753D01*
X371754Y344823D01*
X371777Y344847D01*
Y344870D01*
X371941Y345128D01*
X372129Y345362D01*
X372339Y345573D01*
X372550Y345737D01*
X372784Y345878D01*
X372995Y345995D01*
X373441Y346182D01*
X373839Y346299D01*
X374026Y346323D01*
X374167Y346346D01*
X374284Y346370D01*
X374471D01*
X374893Y346346D01*
D02*
G37*
G36*
X325151Y345503D02*
X328103Y329500D01*
X320817Y330601D01*
X320583Y333178D01*
X323863Y332640D01*
X323090Y336810D01*
X322621Y336834D01*
X322223D01*
X322082Y336857D01*
X321871D01*
X321473Y336880D01*
X320348D01*
X320254Y336904D01*
X320067D01*
X319997Y337372D01*
X319950Y337583D01*
X319926Y337771D01*
X319903Y337935D01*
Y338052D01*
X319880Y338122D01*
Y338146D01*
X319809Y338591D01*
X319786Y338825D01*
X319762Y339013D01*
X319739Y339177D01*
X319716Y339294D01*
Y339387D01*
Y339411D01*
X319833D01*
X319973Y339387D01*
X320325D01*
X320489Y339364D01*
X321098D01*
X321426Y339341D01*
X321777Y339317D01*
X322082D01*
X322363Y339294D01*
X322574D01*
X322738Y339270D01*
X322785D01*
X321988Y343324D01*
X320091D01*
X319716Y343347D01*
X319411D01*
X319153Y343371D01*
X318942D01*
X318778Y343394D01*
X318661D01*
X318614Y343675D01*
X318567Y343933D01*
X318544Y344027D01*
X318521Y344120D01*
X318497Y344167D01*
Y344191D01*
X318404Y344542D01*
X318357Y344847D01*
X318310Y344964D01*
Y345058D01*
X318286Y345104D01*
Y345128D01*
X318193Y345503D01*
X318099Y345807D01*
X318052Y345948D01*
X318029Y346042D01*
X318005Y346112D01*
Y346135D01*
X325151Y345503D01*
D02*
G37*
G36*
X279000Y341500D02*
Y340700D01*
Y339900D01*
X279800D01*
Y339100D01*
Y338300D01*
Y337500D01*
Y336700D01*
Y335900D01*
X280600D01*
Y335100D01*
Y334300D01*
Y333500D01*
X282200D01*
Y332700D01*
X284600D01*
Y331900D01*
X287800D01*
Y332700D01*
X289400D01*
Y333500D01*
X290200D01*
Y334300D01*
X291800D01*
Y335100D01*
X292600D01*
Y335900D01*
X293400D01*
Y335100D01*
X294200D01*
Y334300D01*
X295000D01*
Y333500D01*
X295800D01*
Y332700D01*
X296600D01*
Y331900D01*
X297400D01*
Y331100D01*
X298200D01*
Y330300D01*
Y329500D01*
X297400D01*
Y328700D01*
X296600D01*
Y327900D01*
Y327100D01*
X295800D01*
Y326300D01*
X295000D01*
Y325500D01*
Y324700D01*
X294200D01*
Y323900D01*
Y323100D01*
X295000D01*
Y322300D01*
Y321500D01*
Y320700D01*
X295800D01*
Y319900D01*
Y319100D01*
X296600D01*
Y318300D01*
Y317500D01*
X300600D01*
Y316700D01*
X304600D01*
Y315900D01*
Y315100D01*
Y314300D01*
Y313500D01*
Y312700D01*
Y311900D01*
Y311100D01*
Y310300D01*
Y309500D01*
Y308700D01*
X300600D01*
Y307900D01*
X297400D01*
Y307100D01*
X296600D01*
Y306300D01*
Y305500D01*
X295800D01*
Y304700D01*
Y303900D01*
X295000D01*
Y303100D01*
Y302300D01*
Y301500D01*
X294200D01*
Y300700D01*
X295000D01*
Y299900D01*
Y299100D01*
X295800D01*
Y298300D01*
X296600D01*
Y297500D01*
Y296700D01*
X297400D01*
Y295900D01*
X298200D01*
Y295100D01*
Y294300D01*
X297400D01*
Y293500D01*
X296600D01*
Y292700D01*
X295800D01*
Y291900D01*
X295000D01*
Y291100D01*
X294200D01*
Y290300D01*
X293400D01*
Y289500D01*
X292600D01*
Y290300D01*
X291800D01*
Y291100D01*
X290200D01*
Y291900D01*
X289400D01*
Y292700D01*
X288600D01*
Y293500D01*
X286200D01*
Y292700D01*
X283800D01*
Y293500D01*
Y294300D01*
X283000D01*
Y295100D01*
Y295900D01*
X282200D01*
Y296700D01*
Y297500D01*
Y298300D01*
X281400D01*
Y299100D01*
Y299900D01*
X280600D01*
Y300700D01*
Y301500D01*
Y302300D01*
X279800D01*
Y303100D01*
Y303900D01*
X279000D01*
Y304700D01*
X279800D01*
Y305500D01*
X280600D01*
Y306300D01*
X282200D01*
Y307100D01*
Y307900D01*
X283000D01*
Y308700D01*
Y309500D01*
X283800D01*
Y310300D01*
Y311100D01*
Y311900D01*
Y312700D01*
Y313500D01*
Y314300D01*
Y315100D01*
Y315900D01*
X283000D01*
Y316700D01*
Y317500D01*
X282200D01*
Y318300D01*
X281400D01*
Y319100D01*
X280600D01*
Y319900D01*
X279800D01*
Y320700D01*
X276600D01*
Y321500D01*
X274200D01*
Y320700D01*
X271000D01*
Y319900D01*
X270200D01*
Y319100D01*
X269400D01*
Y318300D01*
X268600D01*
Y317500D01*
X267800D01*
Y316700D01*
Y315900D01*
X267000D01*
Y315100D01*
Y314300D01*
Y313500D01*
Y312700D01*
Y311900D01*
Y311100D01*
Y310300D01*
Y309500D01*
X267800D01*
Y308700D01*
Y307900D01*
X268600D01*
Y307100D01*
Y306300D01*
X270200D01*
Y305500D01*
X271000D01*
Y304700D01*
X271800D01*
Y303900D01*
X271000D01*
Y303100D01*
Y302300D01*
X270200D01*
Y301500D01*
Y300700D01*
Y299900D01*
X269400D01*
Y299100D01*
Y298300D01*
X268600D01*
Y297500D01*
Y296700D01*
Y295900D01*
X267800D01*
Y295100D01*
Y294300D01*
X267000D01*
Y293500D01*
Y292700D01*
X264600D01*
Y293500D01*
X262200D01*
Y292700D01*
X261400D01*
Y291900D01*
X260600D01*
Y291100D01*
X259000D01*
Y290300D01*
X258200D01*
Y289500D01*
X257400D01*
Y290300D01*
X256600D01*
Y291100D01*
X255800D01*
Y291900D01*
X255000D01*
Y292700D01*
X254200D01*
Y293500D01*
X253400D01*
Y294300D01*
X252600D01*
Y295100D01*
Y295900D01*
X253400D01*
Y296700D01*
X254200D01*
Y297500D01*
Y298300D01*
X255000D01*
Y299100D01*
X255800D01*
Y299900D01*
Y300700D01*
X256600D01*
Y301500D01*
X255800D01*
Y302300D01*
Y303100D01*
Y303900D01*
X255000D01*
Y304700D01*
Y305500D01*
X254200D01*
Y306300D01*
Y307100D01*
X253400D01*
Y307900D01*
X250200D01*
Y308700D01*
X246200D01*
Y309500D01*
Y310300D01*
Y311100D01*
Y311900D01*
Y312700D01*
Y313500D01*
Y314300D01*
Y315100D01*
Y315900D01*
Y316700D01*
X250200D01*
Y317500D01*
X254200D01*
Y318300D01*
Y319100D01*
X255000D01*
Y319900D01*
Y320700D01*
X255800D01*
Y321500D01*
Y322300D01*
Y323100D01*
X256600D01*
Y323900D01*
Y324700D01*
X255800D01*
Y325500D01*
Y326300D01*
X255000D01*
Y327100D01*
X254200D01*
Y327900D01*
Y328700D01*
X253400D01*
Y329500D01*
X252600D01*
Y330300D01*
Y331100D01*
X253400D01*
Y331900D01*
X254200D01*
Y332700D01*
X255000D01*
Y333500D01*
X255800D01*
Y334300D01*
X256600D01*
Y335100D01*
X257400D01*
Y335900D01*
X258200D01*
Y335100D01*
X259000D01*
Y334300D01*
X260600D01*
Y333500D01*
X261400D01*
Y332700D01*
X263000D01*
Y331900D01*
X266200D01*
Y332700D01*
X268600D01*
Y333500D01*
X270200D01*
Y334300D01*
Y335100D01*
Y335900D01*
X271000D01*
Y336700D01*
Y337500D01*
Y338300D01*
Y339100D01*
Y339900D01*
X271800D01*
Y340700D01*
Y341500D01*
Y342300D01*
X279000D01*
Y341500D01*
D02*
G37*
G36*
X360906Y345503D02*
X363858Y329500D01*
X356571Y330601D01*
X356337Y333178D01*
X359617Y332640D01*
X358844Y336810D01*
X358375Y336834D01*
X357977D01*
X357836Y336857D01*
X357625D01*
X357227Y336880D01*
X356102D01*
X356009Y336904D01*
X355821D01*
X355751Y337372D01*
X355704Y337583D01*
X355681Y337771D01*
X355657Y337935D01*
Y338052D01*
X355634Y338122D01*
Y338146D01*
X355563Y338591D01*
X355540Y338825D01*
X355517Y339013D01*
X355493Y339177D01*
X355470Y339294D01*
Y339387D01*
Y339411D01*
X355587D01*
X355728Y339387D01*
X356079D01*
X356243Y339364D01*
X356852D01*
X357180Y339341D01*
X357532Y339317D01*
X357836D01*
X358117Y339294D01*
X358328D01*
X358492Y339270D01*
X358539D01*
X357743Y343324D01*
X355845D01*
X355470Y343347D01*
X355165D01*
X354907Y343371D01*
X354697D01*
X354533Y343394D01*
X354415D01*
X354368Y343675D01*
X354322Y343933D01*
X354298Y344027D01*
X354275Y344120D01*
X354251Y344167D01*
Y344191D01*
X354158Y344542D01*
X354111Y344847D01*
X354064Y344964D01*
Y345058D01*
X354041Y345104D01*
Y345128D01*
X353947Y345503D01*
X353853Y345807D01*
X353806Y345948D01*
X353783Y346042D01*
X353759Y346112D01*
Y346135D01*
X360906Y345503D01*
D02*
G37*
%LPC*%
G36*
X366341Y343417D02*
X366177Y343394D01*
X366037Y343347D01*
X365779Y343207D01*
X365685Y343113D01*
X365615Y343042D01*
X365568Y342996D01*
X365545Y342972D01*
X365427Y342808D01*
X365334Y342597D01*
X365264Y342387D01*
X365217Y342176D01*
X365193Y341988D01*
X365170Y341848D01*
Y341754D01*
Y341707D01*
X365193Y341168D01*
X365287Y340653D01*
X365404Y340208D01*
X365545Y339809D01*
X365685Y339481D01*
X365802Y339247D01*
X365849Y339153D01*
X365896Y339083D01*
X365919Y339059D01*
Y339036D01*
X366177Y338661D01*
X366435Y338380D01*
X366693Y338146D01*
X366904Y337982D01*
X367114Y337864D01*
X367255Y337794D01*
X367349Y337771D01*
X367396Y337747D01*
X367208Y338708D01*
X367021Y339669D01*
X366857Y340629D01*
X366763Y341074D01*
X366693Y341496D01*
X366622Y341918D01*
X366552Y342269D01*
X366482Y342597D01*
X366435Y342879D01*
X366388Y343113D01*
X366365Y343277D01*
X366341Y343371D01*
Y343417D01*
D02*
G37*
G36*
X314350D02*
X314186Y343394D01*
X314046Y343347D01*
X313788Y343207D01*
X313694Y343113D01*
X313624Y343042D01*
X313577Y342996D01*
X313554Y342972D01*
X313436Y342808D01*
X313343Y342597D01*
X313272Y342387D01*
X313226Y342176D01*
X313202Y341988D01*
X313179Y341848D01*
Y341754D01*
Y341707D01*
X313202Y341168D01*
X313296Y340653D01*
X313413Y340208D01*
X313554Y339809D01*
X313694Y339481D01*
X313811Y339247D01*
X313858Y339153D01*
X313905Y339083D01*
X313928Y339059D01*
Y339036D01*
X314186Y338661D01*
X314444Y338380D01*
X314702Y338146D01*
X314912Y337982D01*
X315123Y337864D01*
X315264Y337794D01*
X315358Y337771D01*
X315404Y337747D01*
X315217Y338708D01*
X315030Y339669D01*
X314866Y340629D01*
X314772Y341074D01*
X314702Y341496D01*
X314631Y341918D01*
X314561Y342269D01*
X314491Y342597D01*
X314444Y342879D01*
X314397Y343113D01*
X314373Y343277D01*
X314350Y343371D01*
Y343417D01*
D02*
G37*
G36*
X375409Y341637D02*
X375268D01*
X375081Y341613D01*
X374917Y341566D01*
X374776Y341473D01*
X374659Y341356D01*
X374471Y341051D01*
X374354Y340723D01*
X374261Y340395D01*
X374237Y340090D01*
X374214Y339973D01*
Y339879D01*
Y339833D01*
Y339809D01*
Y339434D01*
X374261Y339083D01*
X374307Y338708D01*
X374354Y338380D01*
X374401Y338099D01*
X374448Y337864D01*
X374471Y337724D01*
X374495Y337701D01*
Y337677D01*
X374612Y337255D01*
X374729Y336857D01*
X374870Y336482D01*
X375010Y336178D01*
X375128Y335896D01*
X375221Y335709D01*
X375291Y335568D01*
X375315Y335545D01*
Y335522D01*
X375526Y335170D01*
X375737Y334819D01*
X375948Y334537D01*
X376158Y334280D01*
X376346Y334092D01*
X376486Y333928D01*
X376580Y333835D01*
X376627Y333811D01*
X376932Y333577D01*
X377236Y333413D01*
X377541Y333296D01*
X377799Y333225D01*
X378056Y333178D01*
X378244Y333132D01*
X378408D01*
X378595Y333155D01*
X378759Y333202D01*
X378853Y333249D01*
X378900Y333272D01*
X379157Y333460D01*
X379322Y333670D01*
X379462Y333881D01*
X379556Y334116D01*
X379603Y334303D01*
X379626Y334467D01*
X379649Y334561D01*
Y334608D01*
X379626Y335100D01*
X379579Y335592D01*
X379509Y336084D01*
X379415Y336506D01*
X379322Y336880D01*
X379298Y337021D01*
X379251Y337162D01*
X379228Y337279D01*
X379204Y337349D01*
X379181Y337396D01*
Y337419D01*
X378947Y338075D01*
X378689Y338638D01*
X378431Y339130D01*
X378197Y339551D01*
X378009Y339879D01*
X377845Y340114D01*
X377775Y340184D01*
X377752Y340254D01*
X377705Y340301D01*
X377494Y340535D01*
X377283Y340746D01*
X377072Y340910D01*
X376861Y341074D01*
X376651Y341215D01*
X376463Y341309D01*
X376088Y341473D01*
X375760Y341566D01*
X375502Y341613D01*
X375409Y341637D01*
D02*
G37*
G36*
X362282Y357196D02*
X362180Y357182D01*
X362092Y357152D01*
X361931Y357064D01*
X361872Y357006D01*
X361828Y356962D01*
X361799Y356933D01*
X361784Y356918D01*
X361711Y356816D01*
X361653Y356684D01*
X361609Y356552D01*
X361579Y356420D01*
X361565Y356303D01*
X361550Y356215D01*
Y356157D01*
Y356127D01*
X361565Y355791D01*
X361623Y355469D01*
X361697Y355190D01*
X361784Y354942D01*
X361872Y354737D01*
X361945Y354590D01*
X361975Y354532D01*
X362004Y354488D01*
X362019Y354473D01*
Y354458D01*
X362180Y354224D01*
X362341Y354049D01*
X362502Y353902D01*
X362633Y353800D01*
X362765Y353727D01*
X362853Y353683D01*
X362912Y353668D01*
X362941Y353653D01*
X362824Y354254D01*
X362707Y354854D01*
X362604Y355454D01*
X362546Y355732D01*
X362502Y355996D01*
X362458Y356259D01*
X362414Y356479D01*
X362370Y356684D01*
X362341Y356859D01*
X362311Y357006D01*
X362297Y357108D01*
X362282Y357167D01*
Y357196D01*
D02*
G37*
G36*
X262803Y357079D02*
X262891Y355864D01*
X262935Y355381D01*
X262979Y354898D01*
X263023Y354429D01*
X263038Y354210D01*
X263052Y354005D01*
X263067Y353814D01*
X263082Y353653D01*
X263096Y353492D01*
X263111Y353361D01*
Y353258D01*
X263125Y353185D01*
Y353126D01*
Y353112D01*
X263140Y352936D01*
X263169Y352789D01*
Y352731D01*
X263184Y352687D01*
Y352672D01*
Y352658D01*
X263199Y352526D01*
Y352438D01*
Y352394D01*
Y352380D01*
X264223Y352306D01*
X263023Y357064D01*
X262803Y357079D01*
D02*
G37*
G36*
X305655Y356903D02*
X305362D01*
X305245Y356889D01*
X305142Y356874D01*
X305128Y356859D01*
X305113D01*
X304952Y356830D01*
X304820Y356786D01*
X304703Y356742D01*
X304601Y356698D01*
X304513Y356640D01*
X304454Y356596D01*
X304337Y356479D01*
X304278Y356362D01*
X304249Y356274D01*
X304235Y356215D01*
Y356186D01*
X304249Y356083D01*
X304308Y355981D01*
X304396Y355893D01*
X304498Y355805D01*
X304630Y355717D01*
X304776Y355644D01*
X305098Y355498D01*
X305420Y355395D01*
X305567Y355337D01*
X305699Y355308D01*
X305801Y355278D01*
X305889Y355249D01*
X305947Y355234D01*
X305962D01*
X305933Y355381D01*
X305918Y355513D01*
X305904Y355571D01*
X305889Y355600D01*
Y355630D01*
Y355644D01*
X305845Y355820D01*
X305816Y355966D01*
X305801Y356010D01*
X305786Y356054D01*
Y356083D01*
Y356098D01*
X305757Y356259D01*
X305728Y356406D01*
Y356464D01*
X305713Y356508D01*
Y356523D01*
Y356537D01*
X305684Y356684D01*
X305669Y356801D01*
X305655Y356874D01*
Y356903D01*
D02*
G37*
G36*
X339502Y317939D02*
X339453D01*
X339346Y317929D01*
X339248Y317899D01*
X339170Y317851D01*
X339102Y317802D01*
X339053Y317743D01*
X339014Y317704D01*
X338994Y317665D01*
X338985Y317655D01*
X338936Y317548D01*
X338897Y317431D01*
X338867Y317314D01*
X338848Y317207D01*
X338838Y317119D01*
X338828Y317041D01*
Y316992D01*
Y316972D01*
Y316816D01*
X338848Y316670D01*
X338897Y316377D01*
X338965Y316113D01*
X339043Y315879D01*
X339092Y315772D01*
X339131Y315684D01*
X339170Y315596D01*
X339199Y315528D01*
X339229Y315479D01*
X339248Y315440D01*
X339258Y315411D01*
X339268Y315401D01*
X339346Y315274D01*
X339434Y315157D01*
X339512Y315059D01*
X339590Y314981D01*
X339658Y314913D01*
X339717Y314854D01*
X339756Y314825D01*
X339765Y314815D01*
X339873Y314737D01*
X339990Y314679D01*
X340097Y314640D01*
X340195Y314610D01*
X340273Y314591D01*
X340341Y314581D01*
X340400D01*
X340488Y314591D01*
X340556Y314610D01*
X340624Y314649D01*
X340683Y314708D01*
X340771Y314825D01*
X340829Y314971D01*
X340859Y315118D01*
X340878Y315245D01*
X340888Y315294D01*
Y315333D01*
Y315352D01*
Y315362D01*
X340878Y315508D01*
X340868Y315665D01*
X340820Y315957D01*
X340751Y316240D01*
X340673Y316494D01*
X340634Y316611D01*
X340595Y316709D01*
X340556Y316806D01*
X340527Y316884D01*
X340497Y316943D01*
X340478Y316992D01*
X340458Y317021D01*
Y317031D01*
X340380Y317167D01*
X340302Y317294D01*
X340234Y317402D01*
X340156Y317499D01*
X340097Y317577D01*
X340049Y317626D01*
X340019Y317665D01*
X340009Y317675D01*
X339912Y317763D01*
X339814Y317831D01*
X339726Y317870D01*
X339639Y317909D01*
X339561Y317929D01*
X339502Y317939D01*
D02*
G37*
G36*
X365883Y316348D02*
X365776D01*
X365659Y316338D01*
X365551Y316328D01*
X365444Y316299D01*
X365356Y316279D01*
X365288Y316250D01*
X365229Y316221D01*
X365190Y316211D01*
X365180Y316201D01*
X365083Y316143D01*
X365015Y316074D01*
X364976Y316026D01*
X364956Y316016D01*
Y316006D01*
X364907Y315909D01*
X364878Y315811D01*
X364868Y315762D01*
Y315723D01*
Y315704D01*
Y315694D01*
X364878Y315616D01*
X364888Y315547D01*
X364936Y315430D01*
X364966Y315391D01*
X364995Y315352D01*
X365005Y315333D01*
X365015Y315323D01*
X365083Y315255D01*
X365161Y315196D01*
X365337Y315098D01*
X365532Y315011D01*
X365727Y314952D01*
X365903Y314903D01*
X365981Y314893D01*
X366049Y314874D01*
X366108Y314864D01*
X366147D01*
X366176Y314854D01*
X366186D01*
X366166Y315020D01*
X366157Y315089D01*
X366147Y315147D01*
X366137Y315196D01*
X366127Y315235D01*
Y315255D01*
Y315264D01*
X366098Y315391D01*
X366078Y315499D01*
X366069Y315538D01*
X366059Y315567D01*
Y315586D01*
Y315596D01*
X366039Y315723D01*
X366020Y315821D01*
X366010Y315869D01*
X366000Y315899D01*
Y315918D01*
Y315928D01*
X365981Y316065D01*
X365951Y316201D01*
X365942Y316250D01*
Y316299D01*
X365932Y316328D01*
Y316338D01*
X365883Y316348D01*
D02*
G37*
G36*
X289419Y356083D02*
X289331D01*
X289214Y356069D01*
X289111Y356040D01*
X289024Y355981D01*
X288950Y355908D01*
X288833Y355717D01*
X288760Y355513D01*
X288702Y355308D01*
X288687Y355117D01*
X288672Y355044D01*
Y354985D01*
Y354956D01*
Y354942D01*
Y354707D01*
X288702Y354488D01*
X288731Y354254D01*
X288760Y354049D01*
X288789Y353873D01*
X288819Y353727D01*
X288833Y353639D01*
X288848Y353624D01*
Y353609D01*
X288921Y353346D01*
X288994Y353097D01*
X289082Y352863D01*
X289170Y352672D01*
X289243Y352497D01*
X289302Y352380D01*
X289346Y352292D01*
X289360Y352277D01*
Y352262D01*
X289492Y352043D01*
X289624Y351823D01*
X289756Y351648D01*
X289887Y351487D01*
X290004Y351369D01*
X290092Y351267D01*
X290151Y351208D01*
X290180Y351194D01*
X290370Y351047D01*
X290561Y350945D01*
X290751Y350872D01*
X290912Y350828D01*
X291073Y350799D01*
X291190Y350769D01*
X291293D01*
X291410Y350784D01*
X291512Y350813D01*
X291571Y350842D01*
X291600Y350857D01*
X291761Y350974D01*
X291864Y351106D01*
X291952Y351238D01*
X292010Y351384D01*
X292039Y351501D01*
X292054Y351604D01*
X292069Y351662D01*
Y351692D01*
X292054Y351999D01*
X292025Y352306D01*
X291981Y352614D01*
X291922Y352877D01*
X291864Y353112D01*
X291849Y353199D01*
X291820Y353287D01*
X291805Y353361D01*
X291791Y353404D01*
X291776Y353434D01*
Y353448D01*
X291630Y353858D01*
X291469Y354210D01*
X291307Y354517D01*
X291161Y354781D01*
X291044Y354985D01*
X290941Y355132D01*
X290897Y355176D01*
X290883Y355220D01*
X290854Y355249D01*
X290722Y355395D01*
X290590Y355527D01*
X290458Y355630D01*
X290327Y355732D01*
X290195Y355820D01*
X290078Y355879D01*
X289843Y355981D01*
X289638Y356040D01*
X289477Y356069D01*
X289419Y356083D01*
D02*
G37*
G36*
X365512Y318602D02*
X365317D01*
X365239Y318593D01*
X365171Y318583D01*
X365161Y318573D01*
X365151D01*
X365044Y318553D01*
X364956Y318524D01*
X364878Y318495D01*
X364810Y318466D01*
X364751Y318427D01*
X364712Y318397D01*
X364634Y318319D01*
X364595Y318241D01*
X364575Y318183D01*
X364566Y318144D01*
Y318124D01*
X364575Y318056D01*
X364614Y317987D01*
X364673Y317929D01*
X364741Y317870D01*
X364829Y317812D01*
X364927Y317763D01*
X365141Y317665D01*
X365356Y317597D01*
X365454Y317558D01*
X365542Y317538D01*
X365610Y317519D01*
X365669Y317499D01*
X365707Y317490D01*
X365717D01*
X365698Y317587D01*
X365688Y317675D01*
X365678Y317714D01*
X365669Y317734D01*
Y317753D01*
Y317763D01*
X365639Y317880D01*
X365620Y317978D01*
X365610Y318007D01*
X365600Y318036D01*
Y318056D01*
Y318065D01*
X365581Y318173D01*
X365561Y318270D01*
Y318309D01*
X365551Y318339D01*
Y318349D01*
Y318358D01*
X365532Y318456D01*
X365522Y318534D01*
X365512Y318583D01*
Y318602D01*
D02*
G37*
G36*
X306211Y353521D02*
X306050D01*
X305874Y353507D01*
X305713Y353492D01*
X305552Y353448D01*
X305420Y353419D01*
X305318Y353375D01*
X305230Y353331D01*
X305171Y353317D01*
X305157Y353302D01*
X305011Y353214D01*
X304908Y353112D01*
X304849Y353038D01*
X304820Y353024D01*
Y353009D01*
X304747Y352863D01*
X304703Y352716D01*
X304688Y352643D01*
Y352585D01*
Y352555D01*
Y352541D01*
X304703Y352424D01*
X304718Y352321D01*
X304791Y352145D01*
X304835Y352087D01*
X304879Y352028D01*
X304893Y351999D01*
X304908Y351984D01*
X305011Y351882D01*
X305128Y351794D01*
X305391Y351648D01*
X305684Y351516D01*
X305977Y351428D01*
X306240Y351355D01*
X306357Y351340D01*
X306460Y351311D01*
X306548Y351296D01*
X306606D01*
X306650Y351282D01*
X306665D01*
X306635Y351531D01*
X306621Y351633D01*
X306606Y351721D01*
X306592Y351794D01*
X306577Y351853D01*
Y351882D01*
Y351897D01*
X306533Y352087D01*
X306504Y352248D01*
X306489Y352306D01*
X306474Y352350D01*
Y352380D01*
Y352394D01*
X306445Y352585D01*
X306416Y352731D01*
X306401Y352804D01*
X306387Y352848D01*
Y352877D01*
Y352892D01*
X306357Y353097D01*
X306313Y353302D01*
X306299Y353375D01*
Y353448D01*
X306284Y353492D01*
Y353507D01*
X306211Y353521D01*
D02*
G37*
G36*
X323496Y318719D02*
X323554Y317909D01*
X323583Y317587D01*
X323613Y317265D01*
X323642Y316953D01*
X323652Y316806D01*
X323661Y316670D01*
X323671Y316543D01*
X323681Y316436D01*
X323691Y316328D01*
X323700Y316240D01*
Y316172D01*
X323710Y316123D01*
Y316084D01*
Y316074D01*
X323720Y315957D01*
X323740Y315860D01*
Y315821D01*
X323749Y315791D01*
Y315782D01*
Y315772D01*
X323759Y315684D01*
Y315625D01*
Y315596D01*
Y315586D01*
X324442Y315538D01*
X323642Y318710D01*
X323496Y318719D01*
D02*
G37*
G36*
X350013D02*
X350072Y317909D01*
X350101Y317587D01*
X350131Y317265D01*
X350160Y316953D01*
X350170Y316806D01*
X350179Y316670D01*
X350189Y316543D01*
X350199Y316436D01*
X350209Y316328D01*
X350218Y316240D01*
Y316172D01*
X350228Y316123D01*
Y316084D01*
Y316074D01*
X350238Y315957D01*
X350257Y315860D01*
Y315821D01*
X350267Y315791D01*
Y315782D01*
Y315772D01*
X350277Y315684D01*
Y315625D01*
Y315596D01*
Y315586D01*
X350960Y315538D01*
X350160Y318710D01*
X350013Y318719D01*
D02*
G37*
%LPD*%
M02*
