%FSLAX25Y25*%
%MOIN*%
G70*
G01*
G75*
G04 Layer_Physical_Order=1*
G04 Layer_Color=255*
%ADD10R,0.02000X0.02000*%
%ADD11R,0.04134X0.05512*%
%ADD12R,0.05512X0.04134*%
%ADD13O,0.09843X0.02756*%
%ADD14O,0.02362X0.08661*%
%ADD15R,0.06300X0.05500*%
%ADD16O,0.06693X0.01378*%
%ADD17R,0.03543X0.02559*%
%ADD18R,0.03543X0.03740*%
%ADD19R,0.03937X0.03937*%
%ADD20R,0.03937X0.03937*%
%ADD21R,0.03740X0.05315*%
%ADD22R,0.05315X0.03740*%
%ADD23C,0.01600*%
%ADD24C,0.02000*%
%ADD25C,0.03200*%
%ADD26C,0.01000*%
%ADD27C,0.00000*%
%ADD28C,0.00600*%
%ADD29C,0.05906*%
%ADD30R,0.05906X0.05906*%
%ADD31C,0.04724*%
%ADD32R,0.04724X0.04724*%
%ADD33O,0.09843X0.06693*%
%ADD34C,0.05000*%
G36*
X348878Y323761D02*
X345558Y320442D01*
X345486Y320335D01*
X345008Y320480D01*
Y321020D01*
X337693D01*
Y321020D01*
X337550Y321020D01*
X337496Y321020D01*
Y321020D01*
X337496D01*
X337496D01*
X337008D01*
X336848Y321493D01*
X337221Y321779D01*
X337782Y322511D01*
X338134Y323362D01*
X338255Y324276D01*
X338134Y325189D01*
X337782Y326041D01*
X337221Y326772D01*
X336490Y327333D01*
X335638Y327685D01*
X334724Y327806D01*
X333811Y327685D01*
X332959Y327333D01*
X332228Y326772D01*
X331667Y326041D01*
X331314Y325189D01*
X331194Y324276D01*
X331314Y323362D01*
X331667Y322511D01*
X332228Y321779D01*
X332601Y321493D01*
X332440Y321020D01*
X331953D01*
Y317039D01*
X328047D01*
Y317280D01*
Y321020D01*
X327315D01*
Y335000D01*
X348878D01*
Y323761D01*
D02*
G37*
G36*
X262343Y325480D02*
X265986D01*
X267422Y324044D01*
X267373Y323547D01*
X266904Y323233D01*
X266531Y322675D01*
X266400Y322016D01*
X266531Y321357D01*
X266904Y320798D01*
Y320674D01*
X266531Y320116D01*
X266400Y319457D01*
X266528Y318813D01*
X266211Y318427D01*
X263736D01*
X256314Y325849D01*
X256505Y326311D01*
X262343D01*
Y325480D01*
D02*
G37*
G36*
X281200Y325000D02*
X286845D01*
Y318550D01*
X286961Y317965D01*
X287293Y317469D01*
X288575Y316186D01*
X289071Y315855D01*
X289071Y315855D01*
X289071D01*
X289345Y315556D01*
X289345D01*
Y315556D01*
X288972Y314998D01*
X288841Y314339D01*
X288972Y313680D01*
X289345Y313121D01*
Y312997D01*
X288972Y312439D01*
X288841Y311779D01*
X288972Y311121D01*
X289345Y310562D01*
Y310438D01*
X288972Y309879D01*
X288849Y309261D01*
X288631Y309179D01*
X288335Y309120D01*
X287765Y309557D01*
X286914Y309910D01*
X286000Y310030D01*
X285086Y309910D01*
X284235Y309557D01*
X283504Y308996D01*
X282943Y308265D01*
X282590Y307414D01*
X282470Y306500D01*
X282590Y305586D01*
X282943Y304735D01*
X283504Y304004D01*
X284235Y303443D01*
X285086Y303090D01*
X286000Y302970D01*
X286914Y303090D01*
X287765Y303443D01*
X288437Y303958D01*
X288670Y303870D01*
X288926Y303674D01*
X288972Y303443D01*
X289345Y302885D01*
Y302761D01*
X288972Y302202D01*
X288841Y301543D01*
X288972Y300884D01*
X289345Y300326D01*
Y300202D01*
X288972Y299643D01*
X288841Y298984D01*
X288972Y298325D01*
X289160Y298043D01*
X288774Y297726D01*
X288500Y298000D01*
X276000D01*
X275379Y297379D01*
X274881Y297428D01*
X274713Y297680D01*
X274661Y297776D01*
X275028Y298325D01*
X275159Y298984D01*
X275028Y299643D01*
X274655Y300202D01*
Y300326D01*
X275028Y300884D01*
X275159Y301543D01*
X275028Y302202D01*
X274655Y302761D01*
Y302885D01*
X275028Y303443D01*
X275159Y304102D01*
X275028Y304761D01*
X274655Y305320D01*
Y305444D01*
X275028Y306002D01*
X275060Y306163D01*
X275360Y306393D01*
X275553Y306466D01*
X276235Y305943D01*
X277086Y305590D01*
X278000Y305470D01*
X278914Y305590D01*
X279765Y305943D01*
X280496Y306504D01*
X281057Y307235D01*
X281410Y308086D01*
X281530Y309000D01*
X281410Y309914D01*
X281057Y310765D01*
X280496Y311496D01*
X279765Y312057D01*
X278914Y312410D01*
X278000Y312530D01*
X277086Y312410D01*
X276235Y312057D01*
X275726Y311667D01*
X275159Y311779D01*
X275028Y312439D01*
X274655Y312997D01*
Y313121D01*
X275028Y313680D01*
X275159Y314339D01*
X275028Y314998D01*
X274655Y315556D01*
Y315680D01*
X275028Y316239D01*
X275278Y316399D01*
D01*
X275278Y316399D01*
X276130Y316047D01*
X277043Y315927D01*
X277957Y316047D01*
X278808Y316399D01*
X279539Y316961D01*
X280101Y317692D01*
X280453Y318543D01*
X280574Y319457D01*
X280453Y320370D01*
X280101Y321222D01*
X279539Y321953D01*
X278808Y322514D01*
X277957Y322867D01*
X277043Y322987D01*
X276130Y322867D01*
X275278Y322514D01*
X275278D01*
X275278D01*
X275028Y322675D01*
X274655Y323233D01*
X274638Y323244D01*
X274557Y323735D01*
X274910Y324586D01*
X275030Y325500D01*
X274910Y326414D01*
X274557Y327265D01*
X274353Y327532D01*
X274574Y327980D01*
X279658D01*
Y329321D01*
X281200D01*
Y325000D01*
D02*
G37*
G36*
X307343Y334279D02*
X311744D01*
X312022Y333864D01*
X311963Y333720D01*
X311500D01*
Y330850D01*
Y327980D01*
X311963D01*
X312154Y327518D01*
X305622Y320986D01*
X297789D01*
X297472Y321373D01*
X297501Y321516D01*
X293220D01*
Y322516D01*
X297501D01*
X297469Y322675D01*
X297096Y323233D01*
X296537Y323607D01*
X295878Y323738D01*
X295056D01*
Y325647D01*
X295104Y325720D01*
X295260Y326500D01*
Y326711D01*
X297500D01*
Y325000D01*
X301150D01*
Y328750D01*
Y332500D01*
X297500D01*
Y330789D01*
X295178D01*
X295104Y331160D01*
X294662Y331821D01*
X294459Y332025D01*
X294619Y332499D01*
X295314Y332590D01*
X296165Y332943D01*
X296896Y333504D01*
X297457Y334235D01*
X297567Y334500D01*
X305800D01*
Y336721D01*
X307343D01*
Y334279D01*
D02*
G37*
G36*
X291488Y344209D02*
X294967D01*
X297500Y341676D01*
Y338487D01*
X297026Y338326D01*
X296896Y338496D01*
X296165Y339057D01*
X295314Y339410D01*
X294900Y339464D01*
Y336000D01*
X293900D01*
Y339464D01*
X293486Y339410D01*
X292635Y339057D01*
X291904Y338496D01*
X291343Y337765D01*
X290990Y336914D01*
X290899Y336219D01*
X290425Y336059D01*
X289500Y336984D01*
Y337750D01*
X285350D01*
Y338250D01*
X284850D01*
Y342000D01*
X281200D01*
Y339189D01*
X279658D01*
Y340020D01*
X276500D01*
Y337150D01*
X275500D01*
Y340020D01*
X273625D01*
X273347Y340435D01*
X273410Y340586D01*
X273461Y340971D01*
X274181D01*
X274766Y341087D01*
X275262Y341419D01*
X278053Y344209D01*
X281532D01*
Y345000D01*
X283469D01*
Y344209D01*
X289012D01*
Y345000D01*
X291488D01*
Y344209D01*
D02*
G37*
G36*
X258000Y345000D02*
X260988D01*
Y344209D01*
X260988D01*
X260988Y343868D01*
X260504Y343496D01*
X259943Y342765D01*
X259590Y341914D01*
X259470Y341000D01*
X259590Y340086D01*
X259943Y339235D01*
X260504Y338504D01*
X261235Y337943D01*
X262086Y337590D01*
X262345Y337556D01*
X262343Y337520D01*
X262343Y337520D01*
X262343Y337520D01*
Y336689D01*
X257947D01*
X255724Y338912D01*
Y341598D01*
X255555Y342449D01*
X255539Y342472D01*
Y353150D01*
X255384Y353930D01*
X254942Y354591D01*
X252520Y357014D01*
Y360658D01*
X250150D01*
Y357000D01*
Y353343D01*
X250423D01*
X251461Y352305D01*
Y348154D01*
X250996Y347996D01*
X250265Y348557D01*
X249414Y348910D01*
X248500Y349030D01*
X247586Y348910D01*
X246913Y348631D01*
X246492Y348874D01*
X246479Y348891D01*
X246410Y349414D01*
X246057Y350265D01*
X245496Y350996D01*
X244765Y351557D01*
X243914Y351910D01*
X243000Y352030D01*
X242086Y351910D01*
X241235Y351557D01*
X240504Y350996D01*
X240013Y350356D01*
X239539Y350517D01*
Y351155D01*
X241726Y353343D01*
X246220D01*
Y360658D01*
X240480D01*
Y357864D01*
X236058Y353442D01*
X235616Y352780D01*
X235461Y352000D01*
Y333000D01*
X235616Y332220D01*
X236058Y331558D01*
X240197Y327419D01*
X240052Y326940D01*
X239915Y326913D01*
X239419Y326581D01*
X237479Y324641D01*
X236928Y324273D01*
X236445Y323552D01*
X236276Y322701D01*
Y316402D01*
X236445Y315551D01*
X236928Y314829D01*
X237649Y314347D01*
X238500Y314178D01*
X239351Y314347D01*
X240072Y314829D01*
X240555Y315551D01*
X240724Y316402D01*
Y322701D01*
X240581Y323418D01*
X240894Y323731D01*
X241389Y323658D01*
X241445Y323552D01*
X241276Y322701D01*
Y316402D01*
X241445Y315551D01*
X241928Y314829D01*
X242649Y314347D01*
X242697Y314337D01*
X243443Y313765D01*
X243090Y312914D01*
X242970Y312000D01*
X243090Y311086D01*
X243443Y310235D01*
X244004Y309504D01*
X244721Y308954D01*
X244635Y308701D01*
X244543Y308480D01*
X241254D01*
Y306943D01*
X238689D01*
X238104Y306826D01*
X237904Y306693D01*
X234032D01*
Y300756D01*
X239968D01*
Y303884D01*
X241254D01*
Y302346D01*
X248413D01*
X248449Y302071D01*
X248720Y301416D01*
X248443Y301000D01*
X241254D01*
Y294866D01*
X247839D01*
X248060Y294418D01*
X247943Y294265D01*
X247590Y293414D01*
X247470Y292500D01*
X247590Y291586D01*
X247943Y290735D01*
X248286Y290287D01*
X248065Y289839D01*
X239895D01*
X239309Y289722D01*
X239193Y289699D01*
X238597Y289301D01*
X238296Y289000D01*
X232500D01*
Y377500D01*
X258000D01*
Y345000D01*
D02*
G37*
G36*
X240504Y346004D02*
X241235Y345443D01*
X241471Y345345D01*
Y342487D01*
X241445Y342449D01*
X241276Y341598D01*
Y335299D01*
X241445Y334448D01*
X241928Y333727D01*
X242649Y333245D01*
X243500Y333075D01*
X244351Y333245D01*
X245073Y333727D01*
X245555Y334448D01*
X245724Y335299D01*
Y341598D01*
X245555Y342449D01*
X245073Y343171D01*
X244529Y343534D01*
Y345023D01*
X245028Y345056D01*
X245090Y344586D01*
X245443Y343735D01*
X246004Y343004D01*
X246541Y342592D01*
X246445Y342449D01*
X246276Y341598D01*
Y335299D01*
X246445Y334448D01*
X246927Y333727D01*
X247649Y333245D01*
X248500Y333075D01*
X249351Y333245D01*
X250073Y333727D01*
X250555Y334448D01*
X250724Y335299D01*
Y341598D01*
X250555Y342449D01*
X250459Y342592D01*
X250996Y343004D01*
X251461Y342846D01*
X251445Y342449D01*
D01*
X251276Y341598D01*
Y338949D01*
X253500D01*
Y338449D01*
X254000D01*
Y333175D01*
X254351Y333245D01*
X255072Y333727D01*
X255135Y333733D01*
X255660Y333208D01*
X256322Y332766D01*
X257102Y332610D01*
X257102Y332610D01*
X262343D01*
Y331780D01*
X265500D01*
Y334650D01*
X266500D01*
Y331780D01*
X269657D01*
Y333581D01*
X272342D01*
Y329298D01*
X271967Y328969D01*
X271500Y329030D01*
X270586Y328910D01*
X270073Y328697D01*
X269657Y328975D01*
Y331221D01*
X262343D01*
Y330390D01*
X242994D01*
X240035Y333349D01*
X240072Y333727D01*
X240555Y334448D01*
X240724Y335299D01*
Y341598D01*
X240555Y342449D01*
X240072Y343171D01*
X239539Y343527D01*
Y346483D01*
X240013Y346644D01*
X240504Y346004D01*
D02*
G37*
G36*
X331953Y308980D02*
X333195D01*
Y307658D01*
X332980D01*
Y303037D01*
X332518Y302846D01*
X330520Y304845D01*
Y307658D01*
X324780D01*
Y300514D01*
X324220D01*
Y307658D01*
X323390D01*
Y308961D01*
X325016D01*
X325114Y308980D01*
X328047D01*
Y312720D01*
Y312961D01*
X331953D01*
Y308980D01*
D02*
G37*
G36*
X323236Y336764D02*
Y321020D01*
X322504D01*
Y320319D01*
X322280D01*
X321499Y320163D01*
X320838Y319722D01*
X319558Y318442D01*
X319116Y317780D01*
X318961Y317000D01*
Y312000D01*
X319116Y311220D01*
X319400Y310795D01*
X319311Y310350D01*
Y307658D01*
X318480D01*
Y300514D01*
X298201D01*
X298010Y300976D01*
X318239Y321205D01*
X318570Y321701D01*
X318687Y322286D01*
Y337641D01*
X318570Y338226D01*
X318239Y338722D01*
X313380Y343581D01*
X312884Y343913D01*
X312298Y344029D01*
X304512D01*
Y344209D01*
X304512D01*
Y345000D01*
X315000D01*
X323236Y336764D01*
D02*
G37*
G36*
X267463Y297393D02*
X268122Y297262D01*
X271892D01*
X272202Y296798D01*
X269660Y294256D01*
X266193D01*
D01*
X266193D01*
X266020Y294429D01*
Y296657D01*
X260279D01*
Y289839D01*
X259720D01*
Y296657D01*
X253980D01*
Y295143D01*
X253507Y294982D01*
X253496Y294996D01*
X252765Y295557D01*
X251914Y295910D01*
X251000Y296030D01*
X250086Y295910D01*
X249235Y295557D01*
X249215Y295542D01*
X248766Y295763D01*
Y297455D01*
X267371D01*
X267463Y297393D01*
D02*
G37*
G36*
X385000Y225000D02*
X357520D01*
Y227244D01*
X360807D01*
Y229471D01*
X365185D01*
Y228031D01*
X371122D01*
Y233968D01*
X365185D01*
Y232529D01*
X360807D01*
Y234756D01*
X357520D01*
Y308746D01*
X357500Y308844D01*
Y309156D01*
X357520Y309254D01*
Y335000D01*
X357442Y335390D01*
X357221Y335721D01*
X356890Y335942D01*
X356500Y336020D01*
X354122D01*
X353732Y335942D01*
X353401Y335721D01*
X353181Y335390D01*
X353103Y335000D01*
X349897D01*
X349819Y335390D01*
X349599Y335721D01*
X349268Y335942D01*
X348878Y336020D01*
X327315D01*
Y348931D01*
X346522Y368138D01*
X346654D01*
X365878Y348914D01*
Y312774D01*
X365791Y312762D01*
X364733Y312324D01*
X363825Y311628D01*
X363129Y310719D01*
X362691Y309662D01*
X362541Y308528D01*
X362691Y307393D01*
X363129Y306336D01*
X363825Y305428D01*
X364733Y304731D01*
X365791Y304293D01*
X366925Y304144D01*
X370075D01*
X371210Y304293D01*
X372267Y304731D01*
X373175Y305428D01*
X373871Y306336D01*
X374309Y307393D01*
X374459Y308528D01*
X374309Y309662D01*
X373871Y310719D01*
X373175Y311628D01*
X372267Y312324D01*
X371210Y312762D01*
X371122Y312774D01*
Y350000D01*
X371122Y350000D01*
X371033Y350679D01*
X370771Y351311D01*
X370354Y351854D01*
X370354Y351854D01*
X350362Y371847D01*
Y374862D01*
X343638D01*
Y374122D01*
X301500D01*
X300821Y374033D01*
X300189Y373771D01*
X299646Y373354D01*
X299646Y373354D01*
X297746Y371455D01*
X297500Y371487D01*
X296468Y371351D01*
X295507Y370953D01*
X294681Y370319D01*
X294047Y369493D01*
X293649Y368532D01*
X293513Y367500D01*
X293649Y366468D01*
X294047Y365507D01*
X294681Y364681D01*
X295507Y364047D01*
X296468Y363649D01*
X297500Y363513D01*
X298532Y363649D01*
X299493Y364047D01*
X300319Y364681D01*
X300953Y365507D01*
X301351Y366468D01*
X301487Y367500D01*
X301454Y367746D01*
X302586Y368878D01*
X340840D01*
X341032Y368416D01*
X323834Y351218D01*
X323392Y350556D01*
X323236Y349776D01*
Y338859D01*
X322775Y338667D01*
X315721Y345721D01*
X315390Y345942D01*
X315000Y346020D01*
X304512D01*
Y346579D01*
X298969D01*
Y345000D01*
X298501D01*
X297031Y346470D01*
Y349949D01*
X291488D01*
Y346020D01*
X289012D01*
Y346579D01*
X283469D01*
Y346020D01*
X281532D01*
Y349949D01*
X275988D01*
Y346470D01*
X274518Y345000D01*
X274012D01*
Y346579D01*
X268468D01*
Y345000D01*
X266531D01*
Y349949D01*
X260988D01*
Y346020D01*
X259020D01*
Y377500D01*
X385000D01*
Y225000D01*
D02*
G37*
G36*
X257828Y313257D02*
X258324Y312926D01*
X258910Y312809D01*
X266211D01*
X266528Y312423D01*
X266400Y311779D01*
X266531Y311121D01*
X266904Y310562D01*
Y310438D01*
X266531Y309879D01*
X266400Y309221D01*
X266528Y308577D01*
X266211Y308191D01*
X258472D01*
X252842Y313821D01*
X253078Y314262D01*
X253500Y314178D01*
X254351Y314347D01*
X255072Y314829D01*
X255328Y315211D01*
X255825Y315260D01*
X257828Y313257D01*
D02*
G37*
G36*
X356500Y309254D02*
X356469Y309252D01*
Y308748D01*
X356500Y308746D01*
Y234756D01*
X354673D01*
Y227244D01*
X356500D01*
Y225000D01*
X345000D01*
Y280000D01*
X332500Y292500D01*
X298942D01*
X294644Y296798D01*
X294954Y297262D01*
X295878D01*
X296537Y297393D01*
X296629Y297455D01*
X329382D01*
X330919Y295919D01*
X331415Y295587D01*
X332000Y295471D01*
X337367D01*
X348730Y284107D01*
Y234756D01*
X347193D01*
Y227244D01*
X353327D01*
Y234756D01*
X351789D01*
Y284740D01*
X351673Y285325D01*
X351341Y285822D01*
X339090Y298073D01*
X339139Y298571D01*
X339423Y298761D01*
X341005Y300342D01*
X345020D01*
Y307000D01*
X346803D01*
X347000Y306961D01*
X347197Y307000D01*
X349000D01*
Y307165D01*
X349497D01*
X350004Y306504D01*
X350735Y305943D01*
X351586Y305590D01*
X352000Y305536D01*
Y309000D01*
Y312464D01*
X351586Y312410D01*
X350735Y312057D01*
X350004Y311496D01*
X349513Y310856D01*
X349039Y311017D01*
Y312000D01*
X349000Y312197D01*
Y313303D01*
X349039Y313500D01*
Y318155D01*
X351801Y320917D01*
X352179Y320967D01*
X352811Y321229D01*
X353354Y321646D01*
X353771Y322189D01*
X354033Y322821D01*
X354122Y323500D01*
Y335000D01*
X356500D01*
Y309254D01*
D02*
G37*
G36*
X315628Y326013D02*
Y322920D01*
X297748Y305040D01*
X297367Y305078D01*
X297153Y305529D01*
X297469Y306002D01*
X297600Y306661D01*
X297469Y307320D01*
X297096Y307879D01*
Y308003D01*
X297469Y308561D01*
X297600Y309221D01*
X297469Y309879D01*
X297096Y310438D01*
Y310562D01*
X297469Y311121D01*
X297600Y311779D01*
X297469Y312439D01*
X297096Y312997D01*
Y313121D01*
X297469Y313680D01*
X297600Y314339D01*
X297469Y314998D01*
X297096Y315556D01*
Y315680D01*
X297469Y316239D01*
X297600Y316898D01*
X297472Y317541D01*
X297789Y317927D01*
X306255D01*
X306840Y318044D01*
X307337Y318375D01*
X315166Y326205D01*
X315628Y326013D01*
D02*
G37*
%LPC*%
G36*
X249150Y360658D02*
X246779D01*
Y357500D01*
X249150D01*
Y360658D01*
D02*
G37*
G36*
X236500Y300000D02*
X234032D01*
Y297532D01*
X236500D01*
Y300000D01*
D02*
G37*
G36*
Y296532D02*
X234032D01*
Y294063D01*
X236500D01*
Y296532D01*
D02*
G37*
G36*
X239968D02*
X237500D01*
Y294063D01*
X239968D01*
Y296532D01*
D02*
G37*
G36*
Y300000D02*
X237500D01*
Y297532D01*
X239968D01*
Y300000D01*
D02*
G37*
G36*
X271453Y371453D02*
X263547D01*
Y363547D01*
X264878D01*
Y359791D01*
X264728D01*
Y354051D01*
X270272D01*
Y359791D01*
X270122D01*
Y363547D01*
X271453D01*
Y371453D01*
D02*
G37*
G36*
X249150Y356500D02*
X246779D01*
Y353343D01*
X249150D01*
Y356500D01*
D02*
G37*
G36*
X287500Y371487D02*
X286468Y371351D01*
X285507Y370953D01*
X284681Y370319D01*
X284047Y369493D01*
X283649Y368532D01*
X283513Y367500D01*
X283649Y366468D01*
X284047Y365507D01*
X284681Y364681D01*
X284878Y364530D01*
Y362500D01*
X284878Y362500D01*
X284967Y361821D01*
X285229Y361189D01*
X285646Y360646D01*
X291224Y355067D01*
X291224Y355067D01*
X291768Y354650D01*
X292400Y354388D01*
X293079Y354299D01*
X293079Y354299D01*
X295228D01*
Y354051D01*
X300772D01*
Y359791D01*
X295228D01*
Y359544D01*
X294165D01*
X290122Y363586D01*
Y364530D01*
X290319Y364681D01*
X290953Y365507D01*
X291351Y366468D01*
X291487Y367500D01*
X291351Y368532D01*
X290953Y369493D01*
X290319Y370319D01*
X289493Y370953D01*
X288532Y371351D01*
X287500Y371487D01*
D02*
G37*
G36*
X277500D02*
X276468Y371351D01*
X275507Y370953D01*
X274681Y370319D01*
X274047Y369493D01*
X273649Y368532D01*
X273513Y367500D01*
X273649Y366468D01*
X274047Y365507D01*
X274681Y364681D01*
X274878Y364530D01*
Y361921D01*
X274878Y361921D01*
X274967Y361243D01*
X275229Y360610D01*
X275646Y360067D01*
X279728Y355984D01*
Y354051D01*
X285272D01*
Y359791D01*
X283339D01*
X280122Y363007D01*
Y364530D01*
X280319Y364681D01*
X280953Y365507D01*
X281351Y366468D01*
X281487Y367500D01*
X281351Y368532D01*
X280953Y369493D01*
X280319Y370319D01*
X279493Y370953D01*
X278532Y371351D01*
X277500Y371487D01*
D02*
G37*
G36*
X370075Y293227D02*
X369000D01*
Y289342D01*
X374393D01*
X374309Y289977D01*
X373871Y291035D01*
X373175Y291943D01*
X372267Y292639D01*
X371210Y293077D01*
X370075Y293227D01*
D02*
G37*
G36*
X374346Y233968D02*
X371878D01*
Y231500D01*
X374346D01*
Y233968D01*
D02*
G37*
G36*
X377815D02*
X375346D01*
Y231500D01*
X377815D01*
Y233968D01*
D02*
G37*
G36*
X374346Y230500D02*
X371878D01*
Y228031D01*
X374346D01*
Y230500D01*
D02*
G37*
G36*
X377815D02*
X375346D01*
Y228031D01*
X377815D01*
Y230500D01*
D02*
G37*
G36*
X370075Y253856D02*
X366925D01*
X365791Y253707D01*
X364733Y253269D01*
X363825Y252572D01*
X363129Y251664D01*
X362691Y250607D01*
X362541Y249472D01*
X362691Y248338D01*
X363129Y247281D01*
X363825Y246373D01*
X364733Y245676D01*
X365791Y245238D01*
X366925Y245089D01*
X370075D01*
X371210Y245238D01*
X372267Y245676D01*
X373175Y246373D01*
X373871Y247281D01*
X374309Y248338D01*
X374459Y249472D01*
X374309Y250607D01*
X373871Y251664D01*
X373175Y252572D01*
X372267Y253269D01*
X371210Y253707D01*
X370075Y253856D01*
D02*
G37*
G36*
X374393Y288342D02*
X369000D01*
Y284459D01*
X370075D01*
X371210Y284608D01*
X372267Y285046D01*
X373175Y285743D01*
X373871Y286650D01*
X374309Y287708D01*
X374393Y288342D01*
D02*
G37*
G36*
X368000Y293227D02*
X366925D01*
X365791Y293077D01*
X364733Y292639D01*
X363825Y291943D01*
X363129Y291035D01*
X362691Y289977D01*
X362607Y289342D01*
X368000D01*
Y293227D01*
D02*
G37*
G36*
X370075Y273541D02*
X366925D01*
X365791Y273392D01*
X364733Y272954D01*
X363825Y272257D01*
X363129Y271350D01*
X362691Y270292D01*
X362541Y269158D01*
X362691Y268023D01*
X363129Y266966D01*
X363825Y266057D01*
X364733Y265361D01*
X365791Y264923D01*
X366925Y264774D01*
X370075D01*
X371210Y264923D01*
X372267Y265361D01*
X373175Y266057D01*
X373871Y266966D01*
X374309Y268023D01*
X374459Y269158D01*
X374309Y270292D01*
X373871Y271350D01*
X373175Y272257D01*
X372267Y272954D01*
X371210Y273392D01*
X370075Y273541D01*
D02*
G37*
G36*
X368000Y288342D02*
X362607D01*
X362691Y287708D01*
X363129Y286650D01*
X363825Y285743D01*
X364733Y285046D01*
X365791Y284608D01*
X366925Y284459D01*
X368000D01*
Y288342D01*
D02*
G37*
G36*
X346500Y341000D02*
X343675D01*
X343724Y340622D01*
X344063Y339804D01*
X344602Y339102D01*
X345304Y338563D01*
X346122Y338224D01*
X346500Y338175D01*
Y341000D01*
D02*
G37*
G36*
X350325D02*
X347500D01*
Y338175D01*
X347878Y338224D01*
X348696Y338563D01*
X349398Y339102D01*
X349937Y339804D01*
X350276Y340622D01*
X350325Y341000D01*
D02*
G37*
G36*
X253000Y337949D02*
X251276D01*
Y335299D01*
X251445Y334448D01*
X251927Y333727D01*
X252649Y333245D01*
X253000Y333175D01*
Y337949D01*
D02*
G37*
G36*
X285740Y349949D02*
X283469D01*
Y347579D01*
X285740D01*
Y349949D01*
D02*
G37*
G36*
X289500Y342000D02*
X285850D01*
Y338750D01*
X289500D01*
Y342000D01*
D02*
G37*
G36*
X274012Y349949D02*
X271740D01*
Y347579D01*
X274012D01*
Y349949D01*
D02*
G37*
G36*
X270740D02*
X268468D01*
Y347579D01*
X270740D01*
Y349949D01*
D02*
G37*
G36*
X346500Y344825D02*
X346122Y344776D01*
X345304Y344437D01*
X344602Y343898D01*
X344063Y343196D01*
X343724Y342378D01*
X343675Y342000D01*
X346500D01*
Y344825D01*
D02*
G37*
G36*
X347500D02*
Y342000D01*
X350325D01*
X350276Y342378D01*
X349937Y343196D01*
X349398Y343898D01*
X348696Y344437D01*
X347878Y344776D01*
X347500Y344825D01*
D02*
G37*
G36*
X289012Y349949D02*
X286740D01*
Y347579D01*
X289012D01*
Y349949D01*
D02*
G37*
G36*
X353000Y312464D02*
Y309500D01*
X355964D01*
X355910Y309914D01*
X355557Y310765D01*
X354996Y311496D01*
X354265Y312057D01*
X353414Y312410D01*
X353000Y312464D01*
D02*
G37*
G36*
X318500Y355464D02*
X318086Y355410D01*
X317235Y355057D01*
X316504Y354496D01*
X315943Y353765D01*
X315590Y352914D01*
X315536Y352500D01*
X318500D01*
Y355464D01*
D02*
G37*
G36*
X319500D02*
Y352500D01*
X322464D01*
X322410Y352914D01*
X322057Y353765D01*
X321496Y354496D01*
X320765Y355057D01*
X319914Y355410D01*
X319500Y355464D01*
D02*
G37*
G36*
X355964Y308500D02*
X353000D01*
Y305536D01*
X353414Y305590D01*
X354265Y305943D01*
X354996Y306504D01*
X355557Y307235D01*
X355910Y308086D01*
X355964Y308500D01*
D02*
G37*
G36*
X322464Y351500D02*
X319500D01*
Y348536D01*
X319914Y348590D01*
X320765Y348943D01*
X321496Y349504D01*
X322057Y350235D01*
X322410Y351086D01*
X322464Y351500D01*
D02*
G37*
G36*
X301240Y349949D02*
X298969D01*
Y347579D01*
X301240D01*
Y349949D01*
D02*
G37*
G36*
X310500Y333720D02*
X307343D01*
Y332890D01*
X303750D01*
X302970Y332734D01*
X302619Y332500D01*
X302150D01*
Y328750D01*
Y325000D01*
X305800D01*
Y328811D01*
X307343D01*
Y327980D01*
X310500D01*
Y330850D01*
Y333720D01*
D02*
G37*
G36*
X318500Y351500D02*
X315536D01*
X315590Y351086D01*
X315943Y350235D01*
X316504Y349504D01*
X317235Y348943D01*
X318086Y348590D01*
X318500Y348536D01*
Y351500D01*
D02*
G37*
G36*
X304512Y349949D02*
X302240D01*
Y347579D01*
X304512D01*
Y349949D01*
D02*
G37*
%LPD*%
D10*
X347000Y312000D02*
D03*
Y309000D02*
D03*
D11*
X276740Y290500D02*
D03*
X269260D02*
D03*
X290240D02*
D03*
X282760D02*
D03*
X293760Y245000D02*
D03*
X301240D02*
D03*
X331740Y281000D02*
D03*
X324260D02*
D03*
X314260Y257500D02*
D03*
X321740D02*
D03*
X245260Y248500D02*
D03*
X252740D02*
D03*
X350260Y231000D02*
D03*
X357740D02*
D03*
D12*
X308000Y258740D02*
D03*
Y251260D02*
D03*
X260000Y255240D02*
D03*
Y247760D02*
D03*
X267500Y247413D02*
D03*
Y254894D02*
D03*
X308000Y273760D02*
D03*
Y281240D02*
D03*
X329500Y247760D02*
D03*
Y255240D02*
D03*
X243000Y263260D02*
D03*
Y270740D02*
D03*
X245010Y297933D02*
D03*
Y305413D02*
D03*
X243000Y283740D02*
D03*
Y276260D02*
D03*
X267500Y267260D02*
D03*
Y274740D02*
D03*
D13*
X276854Y282500D02*
D03*
Y277500D02*
D03*
Y272500D02*
D03*
Y267500D02*
D03*
Y262500D02*
D03*
Y257500D02*
D03*
Y252500D02*
D03*
X296146Y282500D02*
D03*
Y277500D02*
D03*
Y272500D02*
D03*
Y267500D02*
D03*
Y262500D02*
D03*
Y257500D02*
D03*
Y252500D02*
D03*
D14*
X253500Y338449D02*
D03*
X248500D02*
D03*
X243500D02*
D03*
X238500D02*
D03*
X253500Y319551D02*
D03*
X248500D02*
D03*
X243500D02*
D03*
X238500D02*
D03*
D15*
X301650Y328750D02*
D03*
X285350D02*
D03*
Y338250D02*
D03*
X301650D02*
D03*
D16*
X270779Y322016D02*
D03*
Y319457D02*
D03*
Y316898D02*
D03*
Y314339D02*
D03*
Y311779D02*
D03*
Y309221D02*
D03*
Y306661D02*
D03*
Y304102D02*
D03*
Y301543D02*
D03*
Y298984D02*
D03*
X293220Y322016D02*
D03*
Y319457D02*
D03*
Y316898D02*
D03*
Y314339D02*
D03*
Y311779D02*
D03*
Y309221D02*
D03*
Y306661D02*
D03*
Y304102D02*
D03*
Y301543D02*
D03*
Y298984D02*
D03*
D17*
X334724Y318740D02*
D03*
Y311260D02*
D03*
X325276D02*
D03*
Y315000D02*
D03*
Y318740D02*
D03*
D18*
X294260Y347079D02*
D03*
X298000Y356921D02*
D03*
X301740Y347079D02*
D03*
X263760D02*
D03*
X267500Y356921D02*
D03*
X271240Y347079D02*
D03*
X278760D02*
D03*
X282500Y356921D02*
D03*
X286240Y347079D02*
D03*
D19*
X237000Y297031D02*
D03*
Y303725D02*
D03*
D20*
X368154Y231000D02*
D03*
X374847D02*
D03*
D21*
X325850Y273000D02*
D03*
X332150D02*
D03*
X252150Y257000D02*
D03*
X245850D02*
D03*
X314850Y249000D02*
D03*
X321150D02*
D03*
X321150Y265000D02*
D03*
X314850D02*
D03*
X243350Y357000D02*
D03*
X249650D02*
D03*
X327650Y304000D02*
D03*
X321350D02*
D03*
X342150D02*
D03*
X335850D02*
D03*
X263150Y293000D02*
D03*
X256850D02*
D03*
D22*
X252000Y270150D02*
D03*
Y263850D02*
D03*
Y276850D02*
D03*
Y283150D02*
D03*
X259000Y274650D02*
D03*
Y268350D02*
D03*
X266000Y334650D02*
D03*
Y328350D02*
D03*
X276000Y337150D02*
D03*
Y330850D02*
D03*
X311000Y330850D02*
D03*
Y337150D02*
D03*
X341350Y311850D02*
D03*
Y318150D02*
D03*
X317000Y280650D02*
D03*
Y274350D02*
D03*
D23*
X347000Y309000D02*
X352500D01*
X271000Y235500D02*
Y237000D01*
X266000Y242000D02*
X271000Y237000D01*
X263000Y242000D02*
X266000D01*
X261000Y244000D02*
X263000Y242000D01*
X261000Y244000D02*
Y246760D01*
X259260Y248500D02*
X261000Y246760D01*
X252740Y248500D02*
X259260D01*
X293347Y295500D02*
X308000Y280847D01*
X317000Y280650D02*
X323909D01*
X308591D02*
X317000D01*
X308000Y281240D02*
X308591Y280650D01*
X323909D02*
X324260Y281000D01*
Y285260D01*
X326000Y287000D01*
X335000D01*
X338000Y284000D01*
Y277500D02*
Y284000D01*
X337500Y243500D02*
Y261500D01*
X329500Y235500D02*
X337500Y243500D01*
X326000Y235500D02*
X329500D01*
X282000Y228500D02*
X307000D01*
X272500Y282500D02*
X276854D01*
X277248Y277500D02*
Y282500D01*
X276000Y235500D02*
X289000Y248500D01*
X271000Y235500D02*
X276000D01*
X329500Y261500D02*
X337500D01*
X321000D02*
X329500D01*
Y254847D02*
Y261500D01*
X337500D02*
Y277000D01*
X321000Y257500D02*
Y261500D01*
Y264850D01*
X321150Y265000D01*
X236500Y245500D02*
Y270500D01*
Y245500D02*
X253500Y228500D01*
X236500Y270597D02*
Y283000D01*
Y270597D02*
X240404D01*
X322500Y228500D02*
X326000Y232000D01*
X307000Y228500D02*
Y251000D01*
X306846Y251153D02*
X307000Y251000D01*
X326000Y232000D02*
Y235500D01*
X271000Y228500D02*
Y235500D01*
X243000Y270346D02*
X251803D01*
X242347Y271000D02*
X243000Y270346D01*
X269746Y291746D02*
X273500Y295500D01*
X269746Y290254D02*
Y291746D01*
X263150Y291850D02*
Y293000D01*
X266996Y288004D02*
X267496D01*
X267500Y287500D02*
X272500Y282500D01*
X337000Y277500D02*
X337500D01*
Y277000D02*
X338000Y277500D01*
X236500Y284000D02*
Y284609D01*
X239895Y288004D01*
X266996D01*
X236500Y283000D02*
X237500Y284000D01*
X267500Y287500D02*
X267652Y287652D01*
X267493Y288000D02*
X267496Y288004D01*
X269746Y290254D01*
X263150Y291850D02*
X266996Y288004D01*
X293220Y322016D02*
Y326500D01*
X273500Y295500D02*
X293347D01*
X253500Y228500D02*
X271000D01*
X307000D02*
X322500D01*
D24*
X347000Y313500D02*
Y319000D01*
X345850Y312350D02*
X347000Y313500D01*
X339650Y312350D02*
X345850D01*
X347000Y319000D02*
X351500Y323500D01*
X347000Y309000D02*
Y312000D01*
X325016Y311000D02*
X325276Y311260D01*
X324815Y318280D02*
X325276Y318740D01*
X285350Y338250D02*
X291000Y332600D01*
X294400Y336000D01*
X266000Y328350D02*
X270175Y324175D01*
X276000Y337150D02*
X284250D01*
X293220Y328750D02*
X301650D01*
X303750Y330850D02*
X311000D01*
X242150Y328350D02*
X266000D01*
X257102Y334650D02*
X266000D01*
X253500Y338252D02*
X257102Y334650D01*
X249650Y357000D02*
X253500Y353150D01*
Y338252D02*
Y353150D01*
X325276Y349776D02*
X347000Y371500D01*
X325276Y318740D02*
Y349776D01*
Y315000D02*
X337000D01*
X339650Y312350D01*
X237500Y333000D02*
X242150Y328350D01*
X237500Y333000D02*
Y352000D01*
X242175Y356675D01*
X266000Y334650D02*
X266971Y335620D01*
X274471D01*
X276000Y337150D01*
X291000Y332600D02*
X293220Y330380D01*
Y326500D02*
Y328750D01*
Y330380D01*
X321000Y312000D02*
X322000Y311000D01*
X325016D01*
X321350Y304000D02*
Y310350D01*
X322260Y311260D01*
X325276D01*
X321000Y312000D02*
Y317000D01*
X322280Y318280D01*
X324815D01*
D25*
X351500Y323500D02*
Y341500D01*
X267500Y356921D02*
Y367500D01*
X277500Y361921D02*
X282500Y356921D01*
X277500Y361921D02*
Y367500D01*
X287500Y362500D02*
Y367500D01*
Y362500D02*
X293079Y356921D01*
X298000D01*
X297500Y367500D02*
X301500Y371500D01*
X347000D01*
X368500Y308528D02*
Y350000D01*
X347000Y371500D02*
X368500Y350000D01*
D26*
X251000Y292000D02*
X252000Y293000D01*
X312000Y270000D02*
X319000D01*
X309000Y267000D02*
X312000Y270000D01*
X303000Y267000D02*
X309000D01*
X270106Y257500D02*
X276854D01*
X267453Y254847D02*
X270106Y257500D01*
X260000Y254847D02*
X267453D01*
X271768Y247413D02*
X276854Y252500D01*
X267500Y247413D02*
X271768D01*
X276854Y257500D02*
X277248D01*
X267500Y254894D02*
X267500Y254894D01*
X319000Y270000D02*
X321000Y268000D01*
Y265150D02*
Y268000D01*
Y265150D02*
X321150Y265000D01*
X324500Y274350D02*
X325850Y273000D01*
X317000Y274350D02*
X324500D01*
X332150Y267150D02*
Y273000D01*
X331740Y281000D02*
X332150Y280591D01*
Y273000D02*
Y280591D01*
X270779Y324780D02*
X271500Y325500D01*
X259000Y264000D02*
X259500Y263500D01*
X259000Y264000D02*
Y268350D01*
X288000Y267500D02*
X295752D01*
X286500D02*
X288000D01*
Y260000D02*
Y267500D01*
X284000Y265843D02*
X286000Y263843D01*
Y259000D02*
Y263843D01*
Y259000D02*
X292500Y252500D01*
X294153D01*
Y245000D02*
Y252500D01*
X284000Y255500D02*
X286157D01*
X283000D02*
X284000D01*
Y256500D01*
Y263000D01*
X289276Y272000D02*
Y278224D01*
X285000Y282500D02*
X289276Y278224D01*
X277248Y282500D02*
X285000D01*
X293500Y277500D02*
X295752D01*
X288500Y282500D02*
X293500Y277500D01*
X288500Y282500D02*
Y285157D01*
X276854Y282500D02*
X277248D01*
X283157Y290500D02*
X288500Y285157D01*
X284000Y275292D02*
X284500Y275792D01*
X284000Y265843D02*
Y275292D01*
X261816Y259500D02*
X264816Y262500D01*
X277248D01*
X387000Y381000D02*
Y400000D01*
X230000Y381000D02*
Y400000D01*
X327994Y399000D02*
X387000D01*
X230000D02*
X285806D01*
X381000Y401000D02*
X387000Y399000D01*
X381000Y397000D02*
X387000Y399000D01*
X230000D02*
X236000Y397000D01*
X230000Y399000D02*
X236000Y401000D01*
X388000Y380000D02*
X410000D01*
X388000Y223000D02*
X410000D01*
X409000Y320994D02*
Y380000D01*
Y223000D02*
Y278806D01*
X407000Y374000D02*
X409000Y380000D01*
X411000Y374000D01*
X409000Y223000D02*
X411000Y229000D01*
X407000D02*
X409000Y223000D01*
X347000Y387000D02*
X431000D01*
X388000Y223000D02*
X431000D01*
X430000Y323994D02*
Y387000D01*
Y223000D02*
Y282806D01*
X428000Y381000D02*
X430000Y387000D01*
X432000Y381000D01*
X430000Y223000D02*
X432000Y229000D01*
X428000D02*
X430000Y223000D01*
X243000Y276654D02*
X252346D01*
X251150Y277850D02*
X252346Y276654D01*
X251150Y277850D02*
X256799D01*
X259000Y280000D02*
X260949D01*
X256825Y277825D02*
X259000Y280000D01*
X256825Y277825D02*
X260500Y274150D01*
X268500Y274346D02*
Y281500D01*
X264500Y285500D02*
X268500Y281500D01*
X254350Y285500D02*
X264500D01*
X252000Y283150D02*
X254350Y285500D01*
X256350Y259500D02*
X261816D01*
X252000Y263850D02*
X256350Y259500D01*
X267500Y267500D02*
X276854D01*
X261000Y268350D02*
X264650D01*
X289000Y248500D02*
Y252657D01*
X286157Y255500D02*
X289000Y252657D01*
X270779Y322016D02*
Y324780D01*
X334724Y318740D02*
Y324276D01*
X294260Y347079D02*
X298839Y342500D01*
X317158Y322286D02*
Y337641D01*
X296785Y301913D02*
X317158Y322286D01*
X298839Y342500D02*
X312298D01*
X317158Y337641D01*
X293590Y301913D02*
X296785D01*
X293220Y301543D02*
X293590Y301913D01*
X274181Y342500D02*
X278760Y347079D01*
X271000Y342500D02*
X274181D01*
X270000Y341500D02*
X271000Y342500D01*
X253300Y301543D02*
X270779D01*
X251859Y302984D02*
X253300Y301543D01*
X263000Y346319D02*
X263760Y347079D01*
X263000Y341000D02*
Y346319D01*
X246500Y312000D02*
X248500D01*
X256398Y304102D01*
X270779D01*
X257839Y306661D02*
X270779D01*
X248500Y316000D02*
X257839Y306661D01*
X248500Y316000D02*
Y319748D01*
X302000Y352000D02*
X319000D01*
X286500D02*
X302000D01*
X301740Y351740D02*
X302000Y352000D01*
X301740Y347079D02*
Y351740D01*
X274000Y352000D02*
X286500D01*
X286240Y351740D02*
X286500Y352000D01*
X286240Y347079D02*
Y351740D01*
X271240Y349240D02*
X274000Y352000D01*
X271240Y347079D02*
Y349240D01*
X277279Y309221D02*
X278000Y308500D01*
X270779Y309221D02*
X277279D01*
X283500Y252500D02*
X284500Y251500D01*
X286000Y306500D02*
X293382D01*
X293220Y306661D02*
X293382Y306500D01*
X289846Y290500D02*
X293847Y286500D01*
X270779Y319457D02*
X277043D01*
X293847Y286500D02*
X294000D01*
X295752Y257500D02*
X303000D01*
X321500Y248500D02*
X326654D01*
X321500Y241000D02*
Y248500D01*
X316000Y235500D02*
X321500Y241000D01*
X314000Y255654D02*
X314500Y255153D01*
Y250150D02*
Y255153D01*
Y248500D02*
X316150Y250150D01*
X295752Y282500D02*
Y284594D01*
Y272500D02*
X306347D01*
X308197Y274350D01*
X317000D01*
X326654Y248500D02*
X327500Y247654D01*
X306760Y257500D02*
X308000Y258740D01*
X276000Y330850D02*
X283250D01*
X288374Y318550D02*
Y325726D01*
Y318550D02*
X289656Y317268D01*
X292850D01*
X293220Y316898D01*
X283250Y330850D02*
X285350Y328750D01*
X288374Y325726D01*
X301650Y328750D02*
X303750Y330850D01*
X309900Y338250D02*
X311000Y337150D01*
X301650Y338250D02*
X309900D01*
X311000Y337150D02*
X311350D01*
X315158Y333342D01*
Y328359D02*
Y333342D01*
X306255Y319457D02*
X315158Y328359D01*
X253500Y319748D02*
X258910Y314339D01*
X270779D01*
X243500Y319748D02*
X248500D01*
X238500D02*
Y323500D01*
X240500Y325500D01*
X254500D01*
X263102Y316898D01*
X270779D01*
X334815Y318650D02*
X341350D01*
X334724Y318740D02*
X334815Y318650D01*
X342150Y304000D02*
Y310500D01*
X334724Y305126D02*
Y311260D01*
Y305126D02*
X335850Y304000D01*
X327650D02*
X329202D01*
X338342Y299843D02*
X342150Y303650D01*
Y304000D01*
X246061Y298984D02*
X270779D01*
X251650Y256500D02*
Y263500D01*
X252000Y263850D01*
X243197D02*
X252000D01*
X243000Y263653D02*
X243197Y263850D01*
X270346Y272500D02*
X277248D01*
X268500Y274346D02*
X270346Y272500D01*
X243000Y283347D02*
X252153D01*
X252000Y293000D02*
X256850D01*
X245350Y245150D02*
Y256500D01*
Y245150D02*
X255000Y235500D01*
X261000D01*
X360000Y297342D02*
X368500Y288843D01*
X347000Y341500D02*
X355500D01*
X360000Y337000D01*
Y297342D02*
Y337000D01*
X357740Y231000D02*
X368154D01*
X368154Y231000D01*
X242175Y356675D02*
X243675D01*
X248500Y338449D02*
Y345500D01*
X243000Y338949D02*
Y348500D01*
Y338949D02*
X243500Y338449D01*
X293220Y319457D02*
X306255D01*
X314000Y264150D02*
X314850Y265000D01*
X314000Y258000D02*
Y264150D01*
Y255654D02*
Y258000D01*
Y261375D01*
X295752Y262500D02*
X312875D01*
X314000Y261375D01*
X300847Y245000D02*
X303000Y247153D01*
Y257500D01*
X306760D01*
X276346Y290500D02*
X283157D01*
X350260Y231000D02*
Y284740D01*
X338000Y297000D02*
X350260Y284740D01*
X329202Y304000D02*
X333359Y299843D01*
X338342D01*
X293220Y298984D02*
X330016D01*
X332000Y297000D01*
X338000D01*
X245010Y297933D02*
X246061Y298984D01*
X238689Y305413D02*
X245010D01*
X237000Y303725D02*
X238689Y305413D01*
D27*
X283000Y255500D02*
X284000Y256500D01*
D28*
X287406Y400399D02*
X288406Y401399D01*
X290405D01*
X291405Y400399D01*
Y399400D01*
X290405Y398400D01*
X289406D01*
X290405D01*
X291405Y397400D01*
Y396401D01*
X290405Y395401D01*
X288406D01*
X287406Y396401D01*
X293404D02*
X294404Y395401D01*
X296403D01*
X297403Y396401D01*
Y400399D01*
X296403Y401399D01*
X294404D01*
X293404Y400399D01*
Y399400D01*
X294404Y398400D01*
X297403D01*
X299402Y395401D02*
Y396401D01*
X300402D01*
Y395401D01*
X299402D01*
X304401Y400399D02*
X305400Y401399D01*
X307400D01*
X308400Y400399D01*
Y399400D01*
X307400Y398400D01*
X308400Y397400D01*
Y396401D01*
X307400Y395401D01*
X305400D01*
X304401Y396401D01*
Y397400D01*
X305400Y398400D01*
X304401Y399400D01*
Y400399D01*
X305400Y398400D02*
X307400D01*
X310399Y400399D02*
X311399Y401399D01*
X313398D01*
X314398Y400399D01*
Y399400D01*
X313398Y398400D01*
X314398Y397400D01*
Y396401D01*
X313398Y395401D01*
X311399D01*
X310399Y396401D01*
Y397400D01*
X311399Y398400D01*
X310399Y399400D01*
Y400399D01*
X311399Y398400D02*
X313398D01*
X316397Y395401D02*
Y399400D01*
X317397D01*
X318396Y398400D01*
Y395401D01*
Y398400D01*
X319396Y399400D01*
X320396Y398400D01*
Y395401D01*
X322395D02*
Y399400D01*
X323395D01*
X324394Y398400D01*
Y395401D01*
Y398400D01*
X325394Y399400D01*
X326394Y398400D01*
Y395401D01*
X407601Y280406D02*
X406601Y281406D01*
Y283405D01*
X407601Y284405D01*
X408600D01*
X409600Y283405D01*
Y282406D01*
Y283405D01*
X410600Y284405D01*
X411599D01*
X412599Y283405D01*
Y281406D01*
X411599Y280406D01*
Y286404D02*
X412599Y287404D01*
Y289403D01*
X411599Y290403D01*
X407601D01*
X406601Y289403D01*
Y287404D01*
X407601Y286404D01*
X408600D01*
X409600Y287404D01*
Y290403D01*
X412599Y292402D02*
X411599D01*
Y293402D01*
X412599D01*
Y292402D01*
X407601Y297401D02*
X406601Y298400D01*
Y300400D01*
X407601Y301399D01*
X408600D01*
X409600Y300400D01*
X410600Y301399D01*
X411599D01*
X412599Y300400D01*
Y298400D01*
X411599Y297401D01*
X410600D01*
X409600Y298400D01*
X408600Y297401D01*
X407601D01*
X409600Y298400D02*
Y300400D01*
X407601Y303399D02*
X406601Y304398D01*
Y306398D01*
X407601Y307398D01*
X408600D01*
X409600Y306398D01*
X410600Y307398D01*
X411599D01*
X412599Y306398D01*
Y304398D01*
X411599Y303399D01*
X410600D01*
X409600Y304398D01*
X408600Y303399D01*
X407601D01*
X409600Y304398D02*
Y306398D01*
X412599Y309397D02*
X408600D01*
Y310397D01*
X409600Y311396D01*
X412599D01*
X409600D01*
X408600Y312396D01*
X409600Y313396D01*
X412599D01*
Y315395D02*
X408600D01*
Y316395D01*
X409600Y317394D01*
X412599D01*
X409600D01*
X408600Y318394D01*
X409600Y319394D01*
X412599D01*
X433599Y287405D02*
X427601D01*
X430600Y284406D01*
Y288405D01*
X433599Y290404D02*
Y292404D01*
Y291404D01*
X427601D01*
X428601Y290404D01*
X433599Y295403D02*
X432599D01*
Y296402D01*
X433599D01*
Y295403D01*
X427601Y304400D02*
X428601Y302400D01*
X430600Y300401D01*
X432599D01*
X433599Y301401D01*
Y303400D01*
X432599Y304400D01*
X431600D01*
X430600Y303400D01*
Y300401D01*
X427601Y310398D02*
X428601Y308398D01*
X430600Y306399D01*
X432599D01*
X433599Y307399D01*
Y309398D01*
X432599Y310398D01*
X431600D01*
X430600Y309398D01*
Y306399D01*
X433599Y312397D02*
X429600D01*
Y313397D01*
X430600Y314396D01*
X433599D01*
X430600D01*
X429600Y315396D01*
X430600Y316396D01*
X433599D01*
Y318395D02*
X429600D01*
Y319395D01*
X430600Y320394D01*
X433599D01*
X430600D01*
X429600Y321394D01*
X430600Y322394D01*
X433599D01*
D29*
X298500Y235500D02*
D03*
X271000D02*
D03*
X326000D02*
D03*
X277500Y367500D02*
D03*
X287500D02*
D03*
X297500D02*
D03*
D30*
X288500Y235500D02*
D03*
X261000D02*
D03*
X316000D02*
D03*
X267500Y367500D02*
D03*
D31*
X347000Y341500D02*
D03*
D32*
Y371500D02*
D03*
D33*
X368500Y249472D02*
D03*
Y269158D02*
D03*
Y288843D02*
D03*
Y308528D02*
D03*
D34*
X352500Y309000D02*
D03*
X332150Y267150D02*
D03*
X259500Y263500D02*
D03*
X236500Y284000D02*
D03*
X338000Y277500D02*
D03*
X294400Y336000D02*
D03*
X271500Y325500D02*
D03*
X334724Y324276D02*
D03*
X270000Y341500D02*
D03*
X251859Y302984D02*
D03*
X263000Y341000D02*
D03*
X246500Y312000D02*
D03*
X319000Y352000D02*
D03*
X278000Y309000D02*
D03*
X284500Y251500D02*
D03*
X277043Y319457D02*
D03*
X286000Y306500D02*
D03*
X260500Y281500D02*
D03*
X251000Y292500D02*
D03*
X288000Y267500D02*
D03*
X248500Y345500D02*
D03*
X243000Y348500D02*
D03*
X294000Y286500D02*
D03*
X285276Y276568D02*
D03*
M02*
