%FSLAX25Y25*%
%MOIN*%
G70*
G01*
G75*
G04 Layer_Color=8388736*
%ADD10R,0.02000X0.02000*%
%ADD11R,0.04134X0.05512*%
%ADD12R,0.05512X0.04134*%
%ADD13O,0.09843X0.02756*%
%ADD14O,0.02362X0.08661*%
%ADD15R,0.06300X0.05500*%
%ADD16O,0.06693X0.01378*%
%ADD17R,0.03543X0.02559*%
%ADD18R,0.03543X0.03740*%
%ADD19R,0.03937X0.03937*%
%ADD20R,0.03937X0.03937*%
%ADD21R,0.03740X0.05315*%
%ADD22R,0.05315X0.03740*%
%ADD23C,0.01000*%
%ADD24C,0.01600*%
%ADD25C,0.02000*%
%ADD26C,0.03200*%
%ADD27C,0.00000*%
%ADD28R,0.04724X0.04724*%
%ADD29C,0.04724*%
%ADD30R,0.05906X0.05906*%
%ADD31C,0.05906*%
%ADD32R,0.05906X0.05906*%
%ADD33R,0.04724X0.04724*%
%ADD34O,0.09843X0.06693*%
%ADD35C,0.05000*%
%ADD36R,0.02000X0.02000*%
%ADD37C,0.00787*%
%ADD38C,0.00984*%
%ADD39C,0.01575*%
%ADD40C,0.02362*%
%ADD41C,0.00800*%
%ADD42C,0.00591*%
%ADD43R,0.00730X0.02560*%
%ADD44R,0.06700X0.01800*%
%ADD45R,0.00650X0.02300*%
%ADD46R,0.02300X0.00650*%
%ADD47R,0.01800X0.06700*%
%ADD48R,0.02560X0.00730*%
%ADD49R,0.05906X0.78740*%
%ADD50R,0.02800X0.02800*%
%ADD51R,0.04934X0.06312*%
%ADD52R,0.06312X0.04934*%
%ADD53O,0.10642X0.03556*%
%ADD54O,0.03162X0.09461*%
%ADD55R,0.07100X0.06300*%
%ADD56O,0.07493X0.02178*%
%ADD57R,0.04343X0.03359*%
%ADD58R,0.04343X0.04540*%
%ADD59R,0.04540X0.06115*%
%ADD60R,0.06115X0.04540*%
%ADD61R,0.05524X0.05524*%
%ADD62C,0.05524*%
%ADD63R,0.06706X0.06706*%
%ADD64C,0.06706*%
%ADD65R,0.06706X0.06706*%
%ADD66R,0.05524X0.05524*%
%ADD67O,0.10642X0.07493*%
%ADD68C,0.05800*%
D19*
X237000Y297031D02*
D03*
Y303725D02*
D03*
D20*
X368154Y231000D02*
D03*
X374847D02*
D03*
D50*
X347000Y312000D02*
D03*
Y309000D02*
D03*
D51*
X276740Y290500D02*
D03*
X269260D02*
D03*
X290240D02*
D03*
X282760D02*
D03*
X293760Y245000D02*
D03*
X301240D02*
D03*
X331740Y281000D02*
D03*
X324260D02*
D03*
X314260Y257500D02*
D03*
X321740D02*
D03*
X245260Y248500D02*
D03*
X252740D02*
D03*
X350260Y231000D02*
D03*
X357740D02*
D03*
D52*
X308000Y258740D02*
D03*
Y251260D02*
D03*
X260000Y255240D02*
D03*
Y247760D02*
D03*
X267500Y247413D02*
D03*
Y254894D02*
D03*
X308000Y273760D02*
D03*
Y281240D02*
D03*
X329500Y247760D02*
D03*
Y255240D02*
D03*
X243000Y263260D02*
D03*
Y270740D02*
D03*
X245010Y297933D02*
D03*
Y305413D02*
D03*
X243000Y283740D02*
D03*
Y276260D02*
D03*
X267500Y267260D02*
D03*
Y274740D02*
D03*
D53*
X276854Y282500D02*
D03*
Y277500D02*
D03*
Y272500D02*
D03*
Y267500D02*
D03*
Y262500D02*
D03*
Y257500D02*
D03*
Y252500D02*
D03*
X296146Y282500D02*
D03*
Y277500D02*
D03*
Y272500D02*
D03*
Y267500D02*
D03*
Y262500D02*
D03*
Y257500D02*
D03*
Y252500D02*
D03*
D54*
X253500Y338449D02*
D03*
X248500D02*
D03*
X243500D02*
D03*
X238500D02*
D03*
X253500Y319551D02*
D03*
X248500D02*
D03*
X243500D02*
D03*
X238500D02*
D03*
D55*
X301650Y328750D02*
D03*
X285350D02*
D03*
Y338250D02*
D03*
X301650D02*
D03*
D56*
X270779Y322016D02*
D03*
Y319457D02*
D03*
Y316898D02*
D03*
Y314339D02*
D03*
Y311779D02*
D03*
Y309221D02*
D03*
Y306661D02*
D03*
Y304102D02*
D03*
Y301543D02*
D03*
Y298984D02*
D03*
X293220Y322016D02*
D03*
Y319457D02*
D03*
Y316898D02*
D03*
Y314339D02*
D03*
Y311779D02*
D03*
Y309221D02*
D03*
Y306661D02*
D03*
Y304102D02*
D03*
Y301543D02*
D03*
Y298984D02*
D03*
D57*
X334724Y318740D02*
D03*
Y311260D02*
D03*
X325276D02*
D03*
Y315000D02*
D03*
Y318740D02*
D03*
D58*
X294260Y347079D02*
D03*
X298000Y356921D02*
D03*
X301740Y347079D02*
D03*
X263760D02*
D03*
X267500Y356921D02*
D03*
X271240Y347079D02*
D03*
X278760D02*
D03*
X282500Y356921D02*
D03*
X286240Y347079D02*
D03*
D59*
X325850Y273000D02*
D03*
X332150D02*
D03*
X252150Y257000D02*
D03*
X245850D02*
D03*
X314850Y249000D02*
D03*
X321150D02*
D03*
X321150Y265000D02*
D03*
X314850D02*
D03*
X243350Y357000D02*
D03*
X249650D02*
D03*
X327650Y304000D02*
D03*
X321350D02*
D03*
X342150D02*
D03*
X335850D02*
D03*
X263150Y293000D02*
D03*
X256850D02*
D03*
D60*
X252000Y270150D02*
D03*
Y263850D02*
D03*
Y276850D02*
D03*
Y283150D02*
D03*
X259000Y274650D02*
D03*
Y268350D02*
D03*
X266000Y334650D02*
D03*
Y328350D02*
D03*
X276000Y337150D02*
D03*
Y330850D02*
D03*
X311000Y330850D02*
D03*
Y337150D02*
D03*
X341350Y311850D02*
D03*
Y318150D02*
D03*
X317000Y280650D02*
D03*
Y274350D02*
D03*
D61*
X279394Y355606D02*
D03*
D62*
X249394D02*
D03*
X347000Y341500D02*
D03*
D63*
X312500Y298000D02*
D03*
D64*
Y308000D02*
D03*
Y318000D02*
D03*
X298500Y235500D02*
D03*
X271000D02*
D03*
X326000D02*
D03*
X277500Y367500D02*
D03*
X287500D02*
D03*
X297500D02*
D03*
D65*
X288500Y235500D02*
D03*
X261000D02*
D03*
X316000D02*
D03*
X267500Y367500D02*
D03*
D66*
X347000Y371500D02*
D03*
D67*
X368500Y249472D02*
D03*
Y269158D02*
D03*
Y288843D02*
D03*
Y308528D02*
D03*
D68*
X308000Y353000D02*
D03*
X352500Y309000D02*
D03*
X332150Y267150D02*
D03*
X259500Y263500D02*
D03*
X236500Y284000D02*
D03*
X338000Y277500D02*
D03*
X294400Y336000D02*
D03*
X271500Y325500D02*
D03*
X334724Y324276D02*
D03*
X270000Y341500D02*
D03*
X251859Y302984D02*
D03*
X263000Y341000D02*
D03*
X246500Y312000D02*
D03*
X278000Y309000D02*
D03*
X284500Y251500D02*
D03*
X277043Y319457D02*
D03*
X286000Y306500D02*
D03*
X260500Y281500D02*
D03*
X251000Y292500D02*
D03*
X288000Y267500D02*
D03*
X248500Y345500D02*
D03*
X243000Y348500D02*
D03*
X294000Y286500D02*
D03*
X285276Y276568D02*
D03*
M02*
