%FSLAX25Y25*%
%MOIN*%
G70*
G01*
G75*
G04 Layer_Color=65535*
%ADD10R,0.03937X0.03937*%
%ADD11R,0.06102X0.09449*%
%ADD12R,0.05315X0.03740*%
%ADD13R,0.03543X0.03740*%
%ADD14R,0.03740X0.05315*%
%ADD15R,0.03937X0.03937*%
%ADD16R,0.03543X0.02559*%
%ADD17O,0.06693X0.01378*%
%ADD18R,0.06300X0.05500*%
%ADD19R,0.05512X0.04134*%
%ADD20R,0.04134X0.05512*%
%ADD21R,0.02000X0.02000*%
%ADD22O,0.02362X0.08661*%
%ADD23O,0.09843X0.02756*%
%ADD24C,0.01000*%
%ADD25C,0.01600*%
%ADD26C,0.02000*%
%ADD27C,0.03200*%
%ADD28C,0.02800*%
%ADD29C,0.04724*%
%ADD30R,0.04724X0.04724*%
%ADD31O,0.09843X0.06693*%
%ADD32C,0.05906*%
%ADD33R,0.05906X0.05906*%
%ADD34R,0.05906X0.05906*%
%ADD35C,0.10000*%
%ADD36C,0.05000*%
%ADD37C,0.03150*%
%ADD38C,0.02400*%
%ADD39C,0.03400*%
%ADD40R,0.02000X0.02000*%
%ADD41C,0.00800*%
%ADD42C,0.00984*%
%ADD43C,0.00787*%
%ADD44C,0.02362*%
%ADD45C,0.01575*%
%ADD46C,0.00591*%
%ADD47R,0.02560X0.00730*%
%ADD48R,0.01800X0.06700*%
%ADD49R,0.02300X0.00650*%
%ADD50R,0.05906X0.78740*%
%ADD51R,0.00650X0.02300*%
%ADD52R,0.06700X0.01800*%
%ADD53R,0.00730X0.02560*%
G36*
X252060Y231764D02*
X252052Y231750D01*
X252045Y231714D01*
X252038Y231677D01*
X252023Y231619D01*
X252009Y231554D01*
X251994Y231482D01*
X251973Y231395D01*
X251951Y231300D01*
X251922Y231199D01*
X251900Y231083D01*
X251871Y230960D01*
X251842Y230822D01*
X251813Y230684D01*
X251777Y230532D01*
X251741Y230380D01*
X251712Y230213D01*
X251668Y230039D01*
X251595Y229676D01*
X251516Y229285D01*
X251436Y228871D01*
X251349Y228436D01*
X251262Y227980D01*
X251182Y227516D01*
X251095Y227030D01*
Y227023D01*
X251088Y226994D01*
X251081Y226950D01*
X251074Y226892D01*
X251066Y226820D01*
X251052Y226733D01*
X251037Y226639D01*
X251015Y226530D01*
X251001Y226407D01*
X250979Y226283D01*
X250957Y226146D01*
X250936Y226008D01*
X250885Y225711D01*
X250834Y225399D01*
X250827D01*
X250805Y225392D01*
X250769Y225384D01*
X250726Y225370D01*
X250660Y225348D01*
X250588Y225333D01*
X250501Y225312D01*
X250399Y225283D01*
X250283Y225261D01*
X250160Y225232D01*
X250022Y225203D01*
X249870Y225167D01*
X249710Y225138D01*
X249536Y225101D01*
X249355Y225073D01*
X249160Y225036D01*
Y225044D01*
X249167Y225073D01*
X249181Y225116D01*
X249196Y225174D01*
X249210Y225247D01*
X249225Y225333D01*
X249247Y225428D01*
X249275Y225529D01*
X249326Y225761D01*
X249377Y226000D01*
X249428Y226247D01*
X249479Y226479D01*
Y226486D01*
X249486Y226508D01*
X249493Y226537D01*
X249500Y226581D01*
X249507Y226631D01*
X249522Y226689D01*
X249551Y226827D01*
X249580Y226987D01*
X249616Y227153D01*
X249653Y227320D01*
X249681Y227480D01*
Y227487D01*
X249689Y227501D01*
Y227516D01*
X249696Y227552D01*
X249710Y227625D01*
X249732Y227733D01*
X249761Y227849D01*
X249790Y227987D01*
X249819Y228132D01*
X249848Y228284D01*
Y228292D01*
X249855Y228306D01*
Y228342D01*
X249870Y228379D01*
X249877Y228436D01*
X249892Y228502D01*
X249906Y228582D01*
X249921Y228668D01*
X249942Y228770D01*
X249964Y228886D01*
X249986Y229016D01*
X250008Y229147D01*
X250037Y229299D01*
X250066Y229459D01*
X250095Y229633D01*
X250131Y229814D01*
X250116D01*
X250087Y229807D01*
X250029D01*
X249957Y229792D01*
X249870Y229785D01*
X249761Y229770D01*
X249638Y229749D01*
X249500Y229727D01*
X249486D01*
X249442Y229720D01*
X249377Y229705D01*
X249297Y229698D01*
X249210Y229683D01*
X249131Y229669D01*
X249051Y229655D01*
X248993Y229647D01*
X249225Y231293D01*
X249232D01*
X249261Y231300D01*
X249297Y231308D01*
X249348Y231322D01*
X249413Y231329D01*
X249493Y231344D01*
X249580Y231365D01*
X249674Y231380D01*
X249776Y231402D01*
X249885Y231423D01*
X250116Y231460D01*
X250356Y231503D01*
X250602Y231540D01*
X250609D01*
X250631Y231547D01*
X250668D01*
X250718Y231561D01*
X250776Y231569D01*
X250849Y231576D01*
X250936Y231590D01*
X251030Y231605D01*
X251132Y231627D01*
X251240Y231641D01*
X251363Y231663D01*
X251487Y231677D01*
X251762Y231721D01*
X252060Y231771D01*
Y231764D01*
D02*
G37*
G36*
X248632Y239018D02*
X248682D01*
X248747Y239003D01*
X248820Y238989D01*
X248900Y238974D01*
X248987Y238946D01*
X249081Y238916D01*
X249168Y238873D01*
X249262Y238822D01*
X249357Y238764D01*
X249451Y238692D01*
X249531Y238605D01*
X249610Y238510D01*
X249683Y238402D01*
Y238394D01*
X249697Y238380D01*
X249712Y238351D01*
X249726Y238307D01*
X249748Y238249D01*
X249777Y238184D01*
X249799Y238112D01*
X249828Y238018D01*
X249857Y237916D01*
X249879Y237807D01*
X249907Y237677D01*
X249929Y237539D01*
X249944Y237394D01*
X249958Y237234D01*
X249973Y237060D01*
Y236872D01*
Y236865D01*
Y236843D01*
Y236814D01*
Y236771D01*
X249966Y236720D01*
Y236654D01*
X249958Y236582D01*
X249951Y236502D01*
X249944Y236415D01*
X249929Y236321D01*
X249900Y236111D01*
X249864Y235872D01*
X249806Y235625D01*
Y235618D01*
X249799Y235596D01*
X249792Y235560D01*
X249777Y235509D01*
X249763Y235451D01*
X249741Y235379D01*
X249719Y235306D01*
X249690Y235219D01*
X249632Y235023D01*
X249552Y234813D01*
X249472Y234595D01*
X249371Y234378D01*
Y234371D01*
X249357Y234356D01*
X249342Y234320D01*
X249320Y234284D01*
X249299Y234233D01*
X249262Y234175D01*
X249226Y234110D01*
X249190Y234037D01*
X249096Y233885D01*
X248987Y233711D01*
X248864Y233537D01*
X248733Y233363D01*
X248726Y233356D01*
X248719Y233341D01*
X248697Y233319D01*
X248668Y233291D01*
X248595Y233204D01*
X248501Y233102D01*
X248392Y232979D01*
X248262Y232856D01*
X248124Y232725D01*
X247979Y232602D01*
X247972Y232594D01*
X247943Y232573D01*
X247899Y232544D01*
X247841Y232500D01*
X247769Y232457D01*
X247682Y232399D01*
X247580Y232341D01*
X247479Y232283D01*
X247363Y232225D01*
X247239Y232167D01*
X247109Y232109D01*
X246971Y232065D01*
X246833Y232022D01*
X246696Y231993D01*
X246551Y231971D01*
X246413Y231964D01*
X246355D01*
X246311Y231971D01*
X246253Y231978D01*
X246196Y231985D01*
X246051Y232022D01*
X245891Y232072D01*
X245804Y232116D01*
X245724Y232159D01*
X245637Y232210D01*
X245557Y232268D01*
X245485Y232341D01*
X245412Y232420D01*
X245405Y232428D01*
X245398Y232442D01*
X245376Y232471D01*
X245347Y232515D01*
X245318Y232565D01*
X245282Y232631D01*
X245246Y232703D01*
X245210Y232790D01*
X245173Y232892D01*
X245137Y233000D01*
X245101Y233117D01*
X245072Y233247D01*
X245043Y233392D01*
X245021Y233544D01*
X245014Y233711D01*
X245006Y233885D01*
Y233899D01*
Y233936D01*
Y233994D01*
X245014Y234066D01*
X245021Y234168D01*
X245036Y234284D01*
X245050Y234414D01*
X245064Y234559D01*
X245093Y234726D01*
X245123Y234900D01*
X245166Y235088D01*
X245210Y235284D01*
X245268Y235487D01*
X245333Y235705D01*
X245405Y235922D01*
X245492Y236147D01*
X245499Y236161D01*
X245514Y236198D01*
X245543Y236263D01*
X245579Y236350D01*
X245630Y236452D01*
X245688Y236575D01*
X245753Y236705D01*
X245833Y236850D01*
X245920Y237010D01*
X246014Y237169D01*
X246123Y237336D01*
X246239Y237510D01*
X246355Y237677D01*
X246485Y237843D01*
X246623Y238010D01*
X246768Y238162D01*
X246776Y238170D01*
X246804Y238199D01*
X246855Y238242D01*
X246913Y238300D01*
X246993Y238366D01*
X247087Y238438D01*
X247196Y238510D01*
X247312Y238597D01*
X247443Y238677D01*
X247580Y238750D01*
X247732Y238822D01*
X247885Y238888D01*
X248044Y238946D01*
X248211Y238989D01*
X248385Y239018D01*
X248559Y239025D01*
X248595D01*
X248632Y239018D01*
D02*
G37*
G36*
X376634Y339383D02*
X376678Y339375D01*
X376743Y339353D01*
X376837Y339324D01*
X376953Y339288D01*
X377084Y339252D01*
X377236Y339209D01*
X377403Y339158D01*
X377584Y339107D01*
X377772Y339049D01*
X377976Y338998D01*
X378186Y338940D01*
X378621Y338824D01*
X379056Y338708D01*
X379070D01*
X379106Y338694D01*
X379172Y338679D01*
X379252Y338657D01*
X379353Y338636D01*
X379469Y338607D01*
X379599Y338570D01*
X379745Y338534D01*
X379897Y338498D01*
X380056Y338455D01*
X380397Y338375D01*
X380745Y338288D01*
X381079Y338201D01*
X381086D01*
X381115Y338193D01*
X381166Y338179D01*
X381231Y338164D01*
X381318Y338143D01*
X381419Y338121D01*
X381535Y338092D01*
X381666Y338056D01*
X381818Y338027D01*
X381978Y337983D01*
X382159Y337940D01*
X382347Y337896D01*
X382543Y337853D01*
X382761Y337802D01*
X382985Y337751D01*
X383217Y337693D01*
X383580Y335250D01*
X383565D01*
X383529Y335257D01*
X383471D01*
X383391Y335272D01*
X383290Y335279D01*
X383167Y335294D01*
X383021Y335301D01*
X382862Y335315D01*
X382688Y335337D01*
X382500Y335351D01*
X382296Y335366D01*
X382079Y335388D01*
X381847Y335409D01*
X381608Y335431D01*
X381361Y335446D01*
X381100Y335468D01*
X380832Y335489D01*
X380557Y335511D01*
X379998Y335555D01*
X379426Y335598D01*
X378846Y335634D01*
X378273Y335663D01*
X377714Y335692D01*
X377446Y335707D01*
X377178Y335714D01*
X376924Y335721D01*
X376678Y335729D01*
Y335736D01*
Y335757D01*
Y335794D01*
Y335844D01*
Y335903D01*
Y335975D01*
X376671Y336062D01*
Y336149D01*
Y336243D01*
X376663Y336352D01*
X376656Y336569D01*
X376642Y336802D01*
X376620Y337041D01*
X376605Y337186D01*
X376620D01*
X376656Y337178D01*
X376707D01*
X376786Y337171D01*
X376881Y337164D01*
X376990Y337150D01*
X377105Y337142D01*
X377236Y337128D01*
X377374Y337113D01*
X377519Y337099D01*
X377816Y337070D01*
X378120Y337041D01*
X378258Y337026D01*
X378396Y337012D01*
X378425D01*
X378461Y337004D01*
X378512Y336997D01*
X378570D01*
X378643Y336990D01*
X378715Y336976D01*
X378802Y336968D01*
X378983Y336954D01*
X379172Y336932D01*
X379360Y336910D01*
X379534Y336896D01*
X379578D01*
X379607Y336889D01*
X379650D01*
X379694Y336881D01*
X379802Y336874D01*
X379933Y336859D01*
X380071Y336852D01*
X380223Y336838D01*
X380375Y336823D01*
X380404D01*
X380440Y336816D01*
X380491Y336809D01*
X380557D01*
X380629Y336802D01*
X380709Y336794D01*
X380803Y336780D01*
X380897Y336772D01*
X381006Y336758D01*
X381231Y336736D01*
X381470Y336715D01*
X381716Y336685D01*
Y336859D01*
X376721Y337903D01*
Y337918D01*
Y337947D01*
Y337998D01*
X376714Y338063D01*
Y338143D01*
X376707Y338230D01*
X376699Y338411D01*
Y338425D01*
X376692Y338455D01*
Y338505D01*
X376685Y338563D01*
X376678Y338643D01*
Y338723D01*
X376663Y338911D01*
Y338926D01*
Y338955D01*
X376656Y339005D01*
X376649Y339071D01*
Y339143D01*
X376642Y339223D01*
X376620Y339390D01*
X376634Y339383D01*
D02*
G37*
G36*
X364546Y229915D02*
X362661Y228922D01*
X362675D01*
X362719Y228908D01*
X362784Y228893D01*
X362878Y228871D01*
X362980Y228842D01*
X363103Y228806D01*
X363233Y228755D01*
X363371Y228705D01*
X363516Y228640D01*
X363654Y228567D01*
X363799Y228480D01*
X363930Y228386D01*
X364053Y228284D01*
X364161Y228161D01*
X364256Y228038D01*
X364328Y227893D01*
X364335Y227886D01*
X364343Y227849D01*
X364357Y227799D01*
X364372Y227733D01*
X364386Y227646D01*
X364401Y227552D01*
X364415Y227436D01*
Y227313D01*
Y227306D01*
Y227298D01*
Y227276D01*
Y227255D01*
X364401Y227182D01*
X364386Y227088D01*
X364357Y226972D01*
X364314Y226834D01*
X364256Y226689D01*
X364176Y226522D01*
Y226515D01*
X364169Y226501D01*
X364154Y226479D01*
X364132Y226450D01*
X364111Y226407D01*
X364082Y226363D01*
X364009Y226254D01*
X363915Y226124D01*
X363806Y225993D01*
X363683Y225848D01*
X363538Y225711D01*
X363531Y225703D01*
X363524Y225696D01*
X363494Y225674D01*
X363465Y225653D01*
X363429Y225616D01*
X363386Y225587D01*
X363277Y225500D01*
X363139Y225406D01*
X362980Y225305D01*
X362806Y225210D01*
X362617Y225116D01*
X362610D01*
X362596Y225109D01*
X362566Y225094D01*
X362530Y225080D01*
X362487Y225065D01*
X362429Y225044D01*
X362305Y225007D01*
X362160Y224964D01*
X361994Y224927D01*
X361827Y224899D01*
X361660Y224891D01*
X361588D01*
X361508Y224899D01*
X361406D01*
X361291Y224906D01*
X361175Y224920D01*
X361051Y224942D01*
X360943Y224964D01*
X360928Y224971D01*
X360899Y224978D01*
X360841Y224993D01*
X360776Y225022D01*
X360703Y225051D01*
X360616Y225087D01*
X360537Y225138D01*
X360450Y225188D01*
X360442Y225196D01*
X360428Y225203D01*
X360406Y225225D01*
X360377Y225254D01*
X360341Y225290D01*
X360304Y225326D01*
X360261Y225377D01*
X360225Y225435D01*
X360181Y225500D01*
X360138Y225573D01*
X360065Y225740D01*
X360036Y225834D01*
X360015Y225935D01*
X360000Y226037D01*
X359993Y226153D01*
Y226160D01*
Y226189D01*
X360000Y226233D01*
X360007Y226290D01*
X360015Y226363D01*
X360029Y226443D01*
X360051Y226537D01*
X360080Y226631D01*
X361725Y226718D01*
Y226711D01*
Y226689D01*
X361733Y226653D01*
X361740Y226617D01*
X361769Y226530D01*
X361791Y226486D01*
X361820Y226450D01*
X361827D01*
X361834Y226435D01*
X361856Y226428D01*
X361885Y226414D01*
X361958Y226385D01*
X362001Y226378D01*
X362045Y226370D01*
X362095D01*
X362132Y226378D01*
X362218Y226392D01*
X362320Y226428D01*
X362327D01*
X362342Y226443D01*
X362371Y226457D01*
X362407Y226472D01*
X362494Y226530D01*
X362581Y226595D01*
X362596Y226609D01*
X362625Y226639D01*
X362675Y226682D01*
X362733Y226747D01*
X362784Y226820D01*
X362835Y226907D01*
X362864Y226994D01*
X362878Y227088D01*
Y227102D01*
Y227132D01*
X362864Y227182D01*
X362849Y227240D01*
X362820Y227313D01*
X362784Y227385D01*
X362726Y227458D01*
X362653Y227530D01*
X362646Y227537D01*
X362610Y227559D01*
X362559Y227588D01*
X362494Y227625D01*
X362400Y227661D01*
X362284Y227690D01*
X362153Y227712D01*
X362001Y227719D01*
X361849D01*
X361740Y227712D01*
X361617Y227704D01*
X361486Y227697D01*
X361211Y227668D01*
X361196D01*
X361153Y227661D01*
X361087Y227654D01*
X361000Y227639D01*
X360906Y227632D01*
X360812Y227617D01*
X360711Y227610D01*
X360616Y227603D01*
X360783Y228988D01*
X360798Y228995D01*
X360826Y229016D01*
X360877Y229053D01*
X360950Y229096D01*
X361037Y229154D01*
X361131Y229220D01*
X361247Y229292D01*
X361370Y229372D01*
X361493Y229466D01*
X361631Y229560D01*
X361914Y229756D01*
X362197Y229974D01*
X362472Y230184D01*
X360957Y230155D01*
X361066Y231771D01*
X361102D01*
X361145Y231779D01*
X361283D01*
X361363Y231786D01*
X361457D01*
X361559Y231793D01*
X361776Y231801D01*
X362008Y231815D01*
X362233Y231822D01*
X362342D01*
X362443Y231830D01*
X362494D01*
X362530Y231837D01*
X362625D01*
X362748Y231844D01*
X362878Y231851D01*
X363016D01*
X363154Y231858D01*
X363284Y231866D01*
X363342D01*
X363400Y231873D01*
X363480D01*
X363574Y231880D01*
X363676Y231888D01*
X363893Y231895D01*
X363937D01*
X363973Y231902D01*
X364067D01*
X364183Y231909D01*
X364314D01*
X364466Y231916D01*
X364763D01*
X364546Y229915D01*
D02*
G37*
G36*
X238344Y238801D02*
Y238793D01*
X238336Y238772D01*
X238329Y238750D01*
X238315Y238677D01*
X238300Y238576D01*
X238271Y238453D01*
X238249Y238307D01*
X238213Y238141D01*
X238177Y237960D01*
X238141Y237756D01*
X238097Y237532D01*
X238047Y237300D01*
X238003Y237053D01*
X237952Y236800D01*
X237901Y236531D01*
X237793Y235987D01*
X237684Y235422D01*
X237575Y234849D01*
X237467Y234298D01*
X237416Y234030D01*
X237365Y233769D01*
X237321Y233515D01*
X237278Y233276D01*
X237234Y233051D01*
X237191Y232841D01*
X237162Y232645D01*
X237126Y232471D01*
X237097Y232312D01*
X237075Y232181D01*
X237024D01*
X236959Y232174D01*
X236865D01*
X236807Y232167D01*
X236741Y232159D01*
X236669Y232152D01*
X236589Y232145D01*
X236502Y232138D01*
X236401Y232123D01*
X236299Y232109D01*
X236183Y232094D01*
X236154D01*
X236125Y232087D01*
X236082Y232080D01*
X236038Y232072D01*
X235980Y232065D01*
X235864Y232051D01*
X235748Y232036D01*
X235647Y232022D01*
X235603D01*
X235567Y232014D01*
X235545Y232007D01*
X235538D01*
Y232022D01*
X235553Y232058D01*
X235567Y232116D01*
X235589Y232196D01*
X235611Y232290D01*
X235640Y232413D01*
X235676Y232544D01*
X235712Y232696D01*
X235748Y232863D01*
X235792Y233044D01*
X235835Y233232D01*
X235886Y233436D01*
X235929Y233646D01*
X235980Y233871D01*
X236074Y234327D01*
Y234334D01*
X236082Y234364D01*
X236089Y234400D01*
X236096Y234451D01*
X236111Y234523D01*
X236125Y234603D01*
X236147Y234697D01*
X236169Y234799D01*
X236191Y234914D01*
X236212Y235038D01*
X236241Y235168D01*
X236263Y235306D01*
X236328Y235611D01*
X236386Y235937D01*
X236452Y236278D01*
X236517Y236626D01*
X236589Y236981D01*
X236654Y237329D01*
X236720Y237669D01*
X236778Y237996D01*
X236828Y238300D01*
X236858Y238445D01*
X236879Y238576D01*
X238344Y238808D01*
Y238801D01*
D02*
G37*
G36*
X245420Y237343D02*
X242861Y233697D01*
X242976D01*
X243042Y233704D01*
X243114D01*
X243209Y233711D01*
X243324Y233718D01*
X243455Y233726D01*
X243607Y233733D01*
X243781Y233740D01*
X243984Y233754D01*
X244209Y233769D01*
X244456Y233784D01*
X244593Y233798D01*
X244738Y233805D01*
X244717Y232370D01*
X244492D01*
X244397Y232363D01*
X244165D01*
X244035Y232355D01*
X243883Y232348D01*
X243723Y232341D01*
X243556Y232333D01*
X243375Y232326D01*
X243187Y232319D01*
X242984Y232305D01*
X242781Y232290D01*
X242744D01*
X242716Y232283D01*
X242636Y232276D01*
X242534Y232268D01*
X242411Y232261D01*
X242266Y232246D01*
X242114Y232232D01*
X241947Y232218D01*
X241606Y232181D01*
X241432Y232167D01*
X241273Y232145D01*
X241113Y232131D01*
X240975Y232109D01*
X240845Y232094D01*
X240743Y232080D01*
X240751Y233457D01*
X243419Y237089D01*
X243324D01*
X243274Y237082D01*
X243209D01*
X243129Y237075D01*
X243035Y237068D01*
X242933Y237060D01*
X242817Y237046D01*
X242694Y237032D01*
X242556Y237017D01*
X242404Y236995D01*
X242237Y236974D01*
X242056Y236945D01*
X241867Y236915D01*
X241650Y236887D01*
X241824Y238366D01*
X245666Y238641D01*
X245420Y237343D01*
D02*
G37*
G36*
X234951Y238924D02*
X235001D01*
X235118Y238916D01*
X235248Y238895D01*
X235379Y238873D01*
X235509Y238837D01*
X235625Y238786D01*
X235640Y238779D01*
X235676Y238764D01*
X235726Y238728D01*
X235792Y238685D01*
X235864Y238634D01*
X235944Y238568D01*
X236024Y238496D01*
X236096Y238409D01*
X236104Y238402D01*
X236111Y238387D01*
X236125Y238366D01*
X236147Y238329D01*
X236169Y238286D01*
X236198Y238228D01*
X236227Y238170D01*
X236263Y238090D01*
X236292Y238010D01*
X236321Y237916D01*
X236350Y237814D01*
X236372Y237706D01*
X236393Y237582D01*
X236408Y237452D01*
X236422Y237314D01*
Y237162D01*
Y237155D01*
Y237140D01*
Y237111D01*
Y237075D01*
X236415Y237024D01*
Y236974D01*
X236408Y236908D01*
X236401Y236843D01*
X236372Y236684D01*
X236343Y236517D01*
X236292Y236335D01*
X236227Y236147D01*
Y236140D01*
X236220Y236125D01*
X236205Y236096D01*
X236191Y236067D01*
X236176Y236024D01*
X236147Y235973D01*
X236089Y235850D01*
X236017Y235719D01*
X235929Y235567D01*
X235828Y235415D01*
X235712Y235270D01*
Y235262D01*
X235698Y235255D01*
X235683Y235233D01*
X235654Y235205D01*
X235589Y235139D01*
X235502Y235052D01*
X235393Y234958D01*
X235262Y234857D01*
X235125Y234755D01*
X234973Y234668D01*
X234965D01*
X234951Y234661D01*
X234929Y234646D01*
X234900Y234632D01*
X234864Y234617D01*
X234813Y234595D01*
X234704Y234559D01*
X234574Y234516D01*
X234429Y234479D01*
X234269Y234451D01*
X234103Y234443D01*
X234001D01*
Y234436D01*
X233994Y234407D01*
X233986Y234364D01*
X233972Y234306D01*
X233958Y234226D01*
X233936Y234132D01*
X233914Y234015D01*
X233892Y233892D01*
X233863Y233747D01*
X233834Y233588D01*
X233798Y233414D01*
X233769Y233218D01*
X233733Y233015D01*
X233697Y232798D01*
X233660Y232558D01*
X233624Y232312D01*
X232007Y231993D01*
Y232007D01*
X232022Y232044D01*
X232029Y232101D01*
X232051Y232181D01*
X232072Y232283D01*
X232101Y232406D01*
X232131Y232544D01*
X232159Y232696D01*
X232203Y232870D01*
X232239Y233059D01*
X232283Y233254D01*
X232326Y233472D01*
X232377Y233697D01*
X232428Y233928D01*
X232478Y234175D01*
X232529Y234429D01*
X232638Y234951D01*
X232747Y235494D01*
X232856Y236046D01*
X232964Y236596D01*
X233066Y237140D01*
X233160Y237669D01*
X233204Y237923D01*
X233247Y238170D01*
X233283Y238409D01*
X233319Y238634D01*
X233334D01*
X233363Y238648D01*
X233414Y238663D01*
X233486Y238677D01*
X233566Y238706D01*
X233667Y238728D01*
X233769Y238757D01*
X233885Y238786D01*
X234132Y238837D01*
X234378Y238888D01*
X234501Y238902D01*
X234617Y238916D01*
X234726Y238931D01*
X234914D01*
X234951Y238924D01*
D02*
G37*
G36*
X241737Y238916D02*
X241729Y238888D01*
X241715Y238844D01*
X241701Y238793D01*
X241679Y238735D01*
X241664Y238663D01*
X241628Y238518D01*
Y238510D01*
X241621Y238481D01*
X241614Y238445D01*
X241599Y238394D01*
X241584Y238336D01*
X241570Y238271D01*
X241534Y238126D01*
Y238119D01*
X241527Y238097D01*
X241519Y238054D01*
X241512Y238010D01*
X241483Y237901D01*
X241461Y237786D01*
X241447D01*
X241410Y237778D01*
X241353D01*
X241266Y237771D01*
X241157Y237764D01*
X241034D01*
X240881Y237756D01*
X240076D01*
X239750Y236067D01*
X239801D01*
X239837Y236074D01*
X239924D01*
X240040Y236082D01*
X240178Y236089D01*
X240316Y236096D01*
X240461Y236104D01*
X240649D01*
X240707Y236111D01*
X240773D01*
X240852Y236118D01*
X240925D01*
X240983Y236125D01*
X241034D01*
Y236111D01*
X241026Y236082D01*
X241019Y236024D01*
X241012Y235959D01*
X240997Y235879D01*
X240990Y235792D01*
X240961Y235603D01*
Y235589D01*
X240954Y235560D01*
X240947Y235509D01*
X240939Y235444D01*
X240932Y235371D01*
X240917Y235284D01*
X240903Y235190D01*
X240889Y235088D01*
X240845D01*
X240809Y235081D01*
X240715D01*
X240649Y235074D01*
X240490D01*
X240439Y235067D01*
X240294D01*
X240127Y235059D01*
X240040D01*
X239982Y235052D01*
X239815D01*
X239721Y235045D01*
X239620D01*
X239301Y233305D01*
X240664Y233530D01*
X240577Y232457D01*
X237539Y231993D01*
X238764Y238670D01*
X241737Y238924D01*
Y238916D01*
D02*
G37*
G36*
X346898Y352087D02*
X346890Y352070D01*
X346846Y352026D01*
X346785Y351965D01*
X346698Y351878D01*
X346585Y351774D01*
X346455Y351661D01*
X346298Y351539D01*
X346124Y351417D01*
X345933Y351287D01*
X345715Y351165D01*
X345489Y351052D01*
X345237Y350947D01*
X344976Y350860D01*
X344697Y350799D01*
X344402Y350756D01*
X344088Y350739D01*
X344019D01*
X343932Y350747D01*
X343819Y350756D01*
X343671Y350782D01*
X343505Y350808D01*
X343323Y350852D01*
X343123Y350904D01*
X342905Y350982D01*
X342688Y351069D01*
X342453Y351173D01*
X342209Y351304D01*
X341974Y351461D01*
X341739Y351643D01*
X341504Y351852D01*
X341278Y352087D01*
X341792Y352600D01*
X341800Y352592D01*
X341835Y352548D01*
X341887Y352496D01*
X341966Y352418D01*
X342061Y352331D01*
X342174Y352235D01*
X342305Y352131D01*
X342444Y352026D01*
X342609Y351913D01*
X342783Y351809D01*
X342975Y351713D01*
X343175Y351626D01*
X343392Y351548D01*
X343610Y351495D01*
X343845Y351461D01*
X344088Y351443D01*
X344149D01*
X344219Y351452D01*
X344315Y351461D01*
X344436Y351478D01*
X344567Y351504D01*
X344723Y351539D01*
X344889Y351591D01*
X345063Y351652D01*
X345245Y351730D01*
X345437Y351817D01*
X345628Y351930D01*
X345828Y352061D01*
X346020Y352218D01*
X346202Y352400D01*
X346385Y352600D01*
X346898Y352087D01*
D02*
G37*
G36*
X352893D02*
X352884Y352070D01*
X352840Y352026D01*
X352780Y351965D01*
X352693Y351878D01*
X352579Y351774D01*
X352449Y351661D01*
X352292Y351539D01*
X352118Y351417D01*
X351927Y351287D01*
X351710Y351165D01*
X351483Y351052D01*
X351231Y350947D01*
X350970Y350860D01*
X350692Y350799D01*
X350396Y350756D01*
X350083Y350739D01*
X350013D01*
X349926Y350747D01*
X349813Y350756D01*
X349665Y350782D01*
X349500Y350808D01*
X349317Y350852D01*
X349117Y350904D01*
X348899Y350982D01*
X348682Y351069D01*
X348447Y351173D01*
X348203Y351304D01*
X347969Y351461D01*
X347734Y351643D01*
X347499Y351852D01*
X347272Y352087D01*
X347786Y352600D01*
X347795Y352592D01*
X347829Y352548D01*
X347882Y352496D01*
X347960Y352418D01*
X348056Y352331D01*
X348169Y352235D01*
X348299Y352131D01*
X348438Y352026D01*
X348604Y351913D01*
X348778Y351809D01*
X348969Y351713D01*
X349169Y351626D01*
X349387Y351548D01*
X349604Y351495D01*
X349839Y351461D01*
X350083Y351443D01*
X350144D01*
X350213Y351452D01*
X350309Y351461D01*
X350431Y351478D01*
X350561Y351504D01*
X350718Y351539D01*
X350883Y351591D01*
X351057Y351652D01*
X351240Y351730D01*
X351431Y351817D01*
X351623Y351930D01*
X351823Y352061D01*
X352014Y352218D01*
X352197Y352400D01*
X352379Y352600D01*
X352893Y352087D01*
D02*
G37*
G36*
X329498Y361213D02*
X329551Y361205D01*
X329603Y361178D01*
X329664Y361144D01*
X329681Y361118D01*
X329698Y361091D01*
Y361057D01*
Y361022D01*
X329672Y360987D01*
X329646Y360944D01*
X329594Y360900D01*
X329524Y360848D01*
Y358925D01*
Y358916D01*
X329533Y358873D01*
Y358812D01*
X329551Y358725D01*
X329559Y358621D01*
X329585Y358499D01*
X329611Y358351D01*
X329646Y358194D01*
X329690Y358012D01*
X329733Y357820D01*
X329794Y357620D01*
X329864Y357403D01*
X329942Y357176D01*
X330029Y356933D01*
X330134Y356689D01*
X330247Y356437D01*
X330368Y356176D01*
X330516Y355915D01*
X330664Y355654D01*
X330838Y355384D01*
X331021Y355115D01*
X331221Y354845D01*
X331438Y354584D01*
X331682Y354323D01*
X331934Y354071D01*
X332213Y353818D01*
X332500Y353575D01*
X332822Y353340D01*
X333152Y353114D01*
X333518Y352905D01*
X333892Y352705D01*
X334301Y352513D01*
X333735Y351347D01*
X333727Y351356D01*
X333700Y351365D01*
X333657Y351382D01*
X333596Y351417D01*
X333518Y351452D01*
X333431Y351504D01*
X333326Y351556D01*
X333213Y351626D01*
X333083Y351704D01*
X332944Y351782D01*
X332796Y351878D01*
X332639Y351983D01*
X332483Y352104D01*
X332309Y352226D01*
X332135Y352365D01*
X331952Y352513D01*
X331769Y352670D01*
X331578Y352835D01*
X331386Y353018D01*
X331195Y353209D01*
X331003Y353409D01*
X330812Y353627D01*
X330629Y353853D01*
X330438Y354088D01*
X330255Y354340D01*
X330081Y354601D01*
X329907Y354880D01*
X329733Y355167D01*
X329577Y355463D01*
X329429Y355776D01*
X329281Y356106D01*
X329150Y356446D01*
Y356437D01*
X329142Y356402D01*
X329124Y356359D01*
X329098Y356289D01*
X329072Y356211D01*
X329037Y356115D01*
X328994Y356002D01*
X328942Y355872D01*
X328881Y355732D01*
X328820Y355584D01*
X328742Y355419D01*
X328655Y355254D01*
X328568Y355071D01*
X328463Y354880D01*
X328350Y354688D01*
X328228Y354488D01*
X328098Y354288D01*
X327950Y354079D01*
X327802Y353871D01*
X327637Y353653D01*
X327454Y353444D01*
X327271Y353235D01*
X327071Y353018D01*
X326862Y352809D01*
X326636Y352609D01*
X326401Y352409D01*
X326149Y352209D01*
X325888Y352017D01*
X325618Y351843D01*
X325322Y351669D01*
X325027Y351504D01*
X324705Y351347D01*
X324000Y352374D01*
X324009Y352383D01*
X324052Y352392D01*
X324113Y352418D01*
X324191Y352461D01*
X324296Y352505D01*
X324409Y352566D01*
X324548Y352635D01*
X324696Y352722D01*
X324861Y352809D01*
X325035Y352922D01*
X325218Y353035D01*
X325409Y353166D01*
X325609Y353314D01*
X325810Y353470D01*
X326018Y353644D01*
X326227Y353827D01*
X326427Y354027D01*
X326636Y354236D01*
X326845Y354462D01*
X327036Y354697D01*
X327228Y354958D01*
X327419Y355228D01*
X327593Y355506D01*
X327750Y355811D01*
X327898Y356124D01*
X328037Y356454D01*
X328159Y356802D01*
X328254Y357168D01*
X328333Y357551D01*
X328394Y357942D01*
X328437Y358360D01*
X328446Y358786D01*
Y361222D01*
X329490D01*
X329498Y361213D01*
D02*
G37*
G36*
X365464D02*
X365516Y361205D01*
X365569Y361178D01*
X365630Y361144D01*
X365647Y361118D01*
X365664Y361091D01*
Y361057D01*
Y361022D01*
X365638Y360987D01*
X365612Y360944D01*
X365560Y360900D01*
X365490Y360848D01*
Y358925D01*
Y358916D01*
X365499Y358873D01*
Y358812D01*
X365516Y358725D01*
X365525Y358621D01*
X365551Y358499D01*
X365577Y358351D01*
X365612Y358194D01*
X365656Y358012D01*
X365699Y357820D01*
X365760Y357620D01*
X365830Y357403D01*
X365908Y357176D01*
X365995Y356933D01*
X366099Y356689D01*
X366212Y356437D01*
X366334Y356176D01*
X366482Y355915D01*
X366630Y355654D01*
X366804Y355384D01*
X366987Y355115D01*
X367187Y354845D01*
X367404Y354584D01*
X367648Y354323D01*
X367900Y354071D01*
X368179Y353818D01*
X368466Y353575D01*
X368788Y353340D01*
X369118Y353114D01*
X369484Y352905D01*
X369858Y352705D01*
X370267Y352513D01*
X369701Y351347D01*
X369692Y351356D01*
X369666Y351365D01*
X369623Y351382D01*
X369562Y351417D01*
X369484Y351452D01*
X369397Y351504D01*
X369292Y351556D01*
X369179Y351626D01*
X369049Y351704D01*
X368909Y351782D01*
X368761Y351878D01*
X368605Y351983D01*
X368448Y352104D01*
X368274Y352226D01*
X368100Y352365D01*
X367918Y352513D01*
X367735Y352670D01*
X367544Y352835D01*
X367352Y353018D01*
X367161Y353209D01*
X366969Y353409D01*
X366778Y353627D01*
X366595Y353853D01*
X366404Y354088D01*
X366221Y354340D01*
X366047Y354601D01*
X365873Y354880D01*
X365699Y355167D01*
X365543Y355463D01*
X365395Y355776D01*
X365247Y356106D01*
X365116Y356446D01*
Y356437D01*
X365107Y356402D01*
X365090Y356359D01*
X365064Y356289D01*
X365038Y356211D01*
X365003Y356115D01*
X364960Y356002D01*
X364907Y355872D01*
X364846Y355732D01*
X364786Y355584D01*
X364707Y355419D01*
X364620Y355254D01*
X364533Y355071D01*
X364429Y354880D01*
X364316Y354688D01*
X364194Y354488D01*
X364064Y354288D01*
X363916Y354079D01*
X363768Y353871D01*
X363602Y353653D01*
X363420Y353444D01*
X363237Y353235D01*
X363037Y353018D01*
X362828Y352809D01*
X362602Y352609D01*
X362367Y352409D01*
X362115Y352209D01*
X361854Y352017D01*
X361584Y351843D01*
X361288Y351669D01*
X360992Y351504D01*
X360670Y351347D01*
X359966Y352374D01*
X359975Y352383D01*
X360018Y352392D01*
X360079Y352418D01*
X360157Y352461D01*
X360262Y352505D01*
X360375Y352566D01*
X360514Y352635D01*
X360662Y352722D01*
X360827Y352809D01*
X361001Y352922D01*
X361184Y353035D01*
X361375Y353166D01*
X361575Y353314D01*
X361775Y353470D01*
X361984Y353644D01*
X362193Y353827D01*
X362393Y354027D01*
X362602Y354236D01*
X362811Y354462D01*
X363002Y354697D01*
X363193Y354958D01*
X363385Y355228D01*
X363559Y355506D01*
X363716Y355811D01*
X363863Y356124D01*
X364003Y356454D01*
X364124Y356802D01*
X364220Y357168D01*
X364298Y357551D01*
X364359Y357942D01*
X364403Y358360D01*
X364411Y358786D01*
Y361222D01*
X365456D01*
X365464Y361213D01*
D02*
G37*
G36*
X376750Y331052D02*
X376786Y331045D01*
X376823Y331038D01*
X376881Y331023D01*
X376946Y331009D01*
X377018Y330994D01*
X377105Y330973D01*
X377200Y330951D01*
X377301Y330922D01*
X377417Y330900D01*
X377540Y330871D01*
X377678Y330842D01*
X377816Y330813D01*
X377968Y330777D01*
X378120Y330740D01*
X378287Y330712D01*
X378461Y330668D01*
X378824Y330595D01*
X379215Y330516D01*
X379628Y330436D01*
X380064Y330349D01*
X380520Y330262D01*
X380984Y330182D01*
X381470Y330095D01*
X381477D01*
X381506Y330088D01*
X381550Y330081D01*
X381608Y330073D01*
X381680Y330066D01*
X381767Y330052D01*
X381861Y330037D01*
X381970Y330015D01*
X382094Y330001D01*
X382217Y329979D01*
X382354Y329958D01*
X382492Y329936D01*
X382789Y329885D01*
X383101Y329834D01*
Y329827D01*
X383108Y329805D01*
X383116Y329769D01*
X383130Y329726D01*
X383152Y329660D01*
X383167Y329588D01*
X383188Y329501D01*
X383217Y329399D01*
X383239Y329283D01*
X383268Y329160D01*
X383297Y329022D01*
X383333Y328870D01*
X383362Y328711D01*
X383399Y328537D01*
X383428Y328355D01*
X383464Y328159D01*
X383456D01*
X383428Y328167D01*
X383384Y328181D01*
X383326Y328196D01*
X383254Y328210D01*
X383167Y328225D01*
X383072Y328246D01*
X382971Y328275D01*
X382739Y328326D01*
X382500Y328377D01*
X382253Y328428D01*
X382021Y328479D01*
X382014D01*
X381992Y328486D01*
X381963Y328493D01*
X381920Y328500D01*
X381869Y328507D01*
X381811Y328522D01*
X381673Y328551D01*
X381514Y328580D01*
X381347Y328616D01*
X381180Y328653D01*
X381020Y328681D01*
X381013D01*
X380999Y328689D01*
X380984D01*
X380948Y328696D01*
X380875Y328711D01*
X380767Y328732D01*
X380651Y328761D01*
X380513Y328790D01*
X380368Y328819D01*
X380216Y328848D01*
X380208D01*
X380194Y328855D01*
X380158D01*
X380121Y328870D01*
X380064Y328877D01*
X379998Y328892D01*
X379919Y328906D01*
X379832Y328921D01*
X379730Y328942D01*
X379614Y328964D01*
X379484Y328986D01*
X379353Y329008D01*
X379201Y329037D01*
X379041Y329066D01*
X378867Y329095D01*
X378686Y329131D01*
Y329117D01*
X378693Y329087D01*
Y329029D01*
X378708Y328957D01*
X378715Y328870D01*
X378730Y328761D01*
X378751Y328638D01*
X378773Y328500D01*
Y328493D01*
Y328486D01*
X378780Y328442D01*
X378795Y328377D01*
X378802Y328297D01*
X378817Y328210D01*
X378831Y328131D01*
X378846Y328051D01*
X378853Y327993D01*
X377207Y328225D01*
Y328232D01*
X377200Y328261D01*
X377192Y328297D01*
X377178Y328348D01*
X377171Y328413D01*
X377156Y328493D01*
X377134Y328580D01*
X377120Y328674D01*
X377098Y328776D01*
X377077Y328885D01*
X377040Y329117D01*
X376997Y329356D01*
X376960Y329602D01*
Y329609D01*
X376953Y329631D01*
Y329667D01*
X376939Y329718D01*
X376932Y329776D01*
X376924Y329849D01*
X376910Y329936D01*
X376895Y330030D01*
X376873Y330132D01*
X376859Y330240D01*
X376837Y330363D01*
X376823Y330487D01*
X376779Y330762D01*
X376729Y331060D01*
X376736D01*
X376750Y331052D01*
D02*
G37*
G36*
X378606Y335366D02*
X378650Y335359D01*
X378700Y335351D01*
X378759Y335337D01*
X378824Y335322D01*
X378896Y335301D01*
X378976Y335272D01*
X379150Y335207D01*
X379252Y335156D01*
X379353Y335105D01*
X379469Y335040D01*
X379585Y334967D01*
X379701Y334888D01*
X379832Y334801D01*
X379962Y334699D01*
X380093Y334583D01*
X380230Y334460D01*
X380375Y334322D01*
X380520Y334170D01*
X380665Y334010D01*
X380818Y333829D01*
X380970Y333641D01*
X381129Y333430D01*
X381289Y333206D01*
X381441Y332966D01*
X381600Y332713D01*
X381767Y332437D01*
X381927Y332140D01*
Y332147D01*
Y332161D01*
Y332190D01*
Y332234D01*
Y332285D01*
Y332343D01*
X381920Y332415D01*
Y332495D01*
Y332575D01*
X381912Y332669D01*
X381905Y332879D01*
X381891Y333104D01*
X381876Y333350D01*
Y333358D01*
Y333380D01*
X381869Y333416D01*
Y333467D01*
X381861Y333524D01*
X381854Y333590D01*
Y333669D01*
X381847Y333749D01*
X381833Y333930D01*
X381818Y334126D01*
X381803Y334329D01*
X381789Y334518D01*
X383145Y334366D01*
Y334358D01*
Y334351D01*
Y334329D01*
X383152Y334300D01*
Y334264D01*
Y334221D01*
X383167Y334119D01*
X383174Y333988D01*
X383181Y333836D01*
X383195Y333662D01*
X383210Y333467D01*
Y333452D01*
Y333423D01*
X383217Y333372D01*
Y333300D01*
X383225Y333213D01*
X383232Y333119D01*
X383239Y333002D01*
X383246Y332887D01*
X383254Y332756D01*
X383261Y332618D01*
X383282Y332343D01*
X383297Y332067D01*
X383312Y331937D01*
X383319Y331806D01*
Y331799D01*
Y331777D01*
X383326Y331741D01*
Y331690D01*
X383333Y331632D01*
X383341Y331560D01*
Y331473D01*
X383348Y331379D01*
X383355Y331270D01*
X383362Y331161D01*
X383377Y331038D01*
X383384Y330907D01*
X383399Y330632D01*
X383420Y330327D01*
X382239Y330480D01*
X382231D01*
X382209Y330487D01*
X382166Y330501D01*
X382115Y330516D01*
X382043Y330545D01*
X381963Y330588D01*
X381861Y330646D01*
X381746Y330719D01*
X381622Y330813D01*
X381485Y330929D01*
X381325Y331060D01*
X381158Y331226D01*
X380984Y331407D01*
X380890Y331516D01*
X380788Y331625D01*
X380687Y331748D01*
X380586Y331872D01*
X380477Y332009D01*
X380368Y332154D01*
X380361Y332169D01*
X380332Y332198D01*
X380295Y332248D01*
X380245Y332314D01*
X380187Y332394D01*
X380114Y332481D01*
X380042Y332582D01*
X379955Y332683D01*
X379788Y332901D01*
X379614Y333111D01*
X379527Y333206D01*
X379454Y333293D01*
X379382Y333365D01*
X379324Y333430D01*
X379310Y333445D01*
X379273Y333474D01*
X379215Y333524D01*
X379143Y333575D01*
X379056Y333626D01*
X378969Y333677D01*
X378874Y333706D01*
X378787Y333720D01*
X378744D01*
X378700Y333713D01*
X378650Y333706D01*
X378585Y333691D01*
X378519Y333677D01*
X378454Y333648D01*
X378396Y333611D01*
X378389Y333604D01*
X378374Y333590D01*
X378345Y333568D01*
X378316Y333539D01*
X378294Y333495D01*
X378266Y333452D01*
X378251Y333394D01*
X378244Y333336D01*
Y333329D01*
Y333307D01*
Y333278D01*
X378251Y333242D01*
X378273Y333155D01*
X378316Y333061D01*
Y333053D01*
X378331Y333046D01*
X378360Y332995D01*
X378418Y332944D01*
X378490Y332887D01*
X378498Y332879D01*
X378526Y332865D01*
X378570Y332850D01*
X378628Y332828D01*
X378700Y332800D01*
X378787Y332785D01*
X378889Y332770D01*
X378998Y332763D01*
X379114D01*
X379128Y332770D01*
X379135Y332778D01*
Y332763D01*
Y332749D01*
X379143Y332727D01*
Y332691D01*
X379150Y332640D01*
X379157Y332568D01*
X379165Y332488D01*
X379172Y332379D01*
X379186Y332248D01*
X379201Y332089D01*
X379208Y332002D01*
X379222Y331908D01*
X379230Y331799D01*
X379244Y331690D01*
X379252Y331574D01*
X379266Y331444D01*
X379280Y331306D01*
X379295Y331161D01*
X379266D01*
X379237Y331154D01*
X379201D01*
X379099Y331147D01*
X378991Y331139D01*
X378947D01*
X378889Y331147D01*
X378817Y331154D01*
X378730Y331161D01*
X378621Y331183D01*
X378512Y331205D01*
X378381Y331234D01*
X378251Y331277D01*
X378113Y331328D01*
X377968Y331393D01*
X377823Y331466D01*
X377678Y331553D01*
X377533Y331661D01*
X377396Y331777D01*
X377265Y331915D01*
X377258Y331922D01*
X377236Y331944D01*
X377207Y331988D01*
X377171Y332038D01*
X377120Y332111D01*
X377069Y332190D01*
X377018Y332277D01*
X376960Y332386D01*
X376903Y332502D01*
X376852Y332626D01*
X376794Y332763D01*
X376750Y332908D01*
X376714Y333061D01*
X376685Y333227D01*
X376663Y333394D01*
X376656Y333568D01*
Y333575D01*
Y333604D01*
Y333641D01*
X376663Y333699D01*
X376671Y333764D01*
X376678Y333836D01*
X376692Y333923D01*
X376714Y334010D01*
X376765Y334213D01*
X376801Y334315D01*
X376845Y334423D01*
X376895Y334525D01*
X376960Y334627D01*
X377026Y334728D01*
X377105Y334822D01*
X377113Y334829D01*
X377127Y334844D01*
X377156Y334873D01*
X377200Y334909D01*
X377251Y334953D01*
X377316Y334996D01*
X377388Y335047D01*
X377475Y335098D01*
X377577Y335149D01*
X377678Y335199D01*
X377794Y335243D01*
X377925Y335286D01*
X378063Y335322D01*
X378207Y335351D01*
X378367Y335366D01*
X378534Y335373D01*
X378577D01*
X378606Y335366D01*
D02*
G37*
G36*
X338198Y358969D02*
X338277D01*
X338372Y358951D01*
X338477Y358934D01*
X338599Y358908D01*
X338729Y358882D01*
X338877Y358838D01*
X339025Y358786D01*
X339181Y358716D01*
X339338Y358638D01*
X339495Y358551D01*
X339660Y358438D01*
X339817Y358316D01*
X339965Y358177D01*
X339973Y358168D01*
X339999Y358142D01*
X340043Y358099D01*
X340086Y358038D01*
X340147Y357960D01*
X340217Y357873D01*
X340286Y357768D01*
X340365Y357646D01*
X340443Y357516D01*
X340513Y357377D01*
X340582Y357220D01*
X340643Y357055D01*
X340695Y356881D01*
X340730Y356698D01*
X340756Y356507D01*
X340765Y356307D01*
Y356298D01*
Y356263D01*
X340756Y356202D01*
Y356124D01*
X340739Y356028D01*
X340721Y355924D01*
X340695Y355802D01*
X340669Y355671D01*
X340626Y355523D01*
X340574Y355376D01*
X340504Y355219D01*
X340426Y355062D01*
X340339Y354897D01*
X340226Y354741D01*
X340104Y354584D01*
X339965Y354427D01*
X339956Y354419D01*
X339930Y354393D01*
X339886Y354358D01*
X339825Y354306D01*
X339747Y354245D01*
X339660Y354175D01*
X339556Y354105D01*
X339434Y354036D01*
X339303Y353958D01*
X339164Y353888D01*
X339007Y353818D01*
X338842Y353757D01*
X338668Y353705D01*
X338486Y353670D01*
X338294Y353644D01*
X338094Y353636D01*
X338051D01*
X337990Y353644D01*
X337911D01*
X337816Y353662D01*
X337711Y353679D01*
X337589Y353705D01*
X337459Y353731D01*
X337311Y353775D01*
X337163Y353827D01*
X337006Y353897D01*
X336850Y353966D01*
X336693Y354062D01*
X336528Y354166D01*
X336371Y354288D01*
X336224Y354427D01*
X336215Y354436D01*
X336189Y354462D01*
X336154Y354506D01*
X336102Y354567D01*
X336041Y354645D01*
X335971Y354741D01*
X335902Y354845D01*
X335823Y354967D01*
X335745Y355097D01*
X335675Y355236D01*
X335606Y355393D01*
X335545Y355558D01*
X335501Y355732D01*
X335458Y355915D01*
X335432Y356106D01*
X335423Y356307D01*
Y356315D01*
Y356359D01*
X335432Y356411D01*
Y356489D01*
X335449Y356585D01*
X335467Y356689D01*
X335493Y356811D01*
X335527Y356942D01*
X335562Y357089D01*
X335614Y357237D01*
X335684Y357394D01*
X335762Y357551D01*
X335849Y357707D01*
X335963Y357873D01*
X336084Y358029D01*
X336224Y358177D01*
X336232Y358186D01*
X336258Y358212D01*
X336302Y358255D01*
X336363Y358299D01*
X336441Y358360D01*
X336528Y358429D01*
X336632Y358499D01*
X336754Y358577D01*
X336885Y358656D01*
X337033Y358725D01*
X337180Y358795D01*
X337346Y358856D01*
X337520Y358908D01*
X337702Y358943D01*
X337894Y358969D01*
X338094Y358977D01*
X338146D01*
X338198Y358969D01*
D02*
G37*
G36*
X356181D02*
X356260D01*
X356355Y358951D01*
X356460Y358934D01*
X356581Y358908D01*
X356712Y358882D01*
X356860Y358838D01*
X357008Y358786D01*
X357164Y358716D01*
X357321Y358638D01*
X357478Y358551D01*
X357643Y358438D01*
X357800Y358316D01*
X357947Y358177D01*
X357956Y358168D01*
X357982Y358142D01*
X358026Y358099D01*
X358069Y358038D01*
X358130Y357960D01*
X358200Y357873D01*
X358269Y357768D01*
X358348Y357646D01*
X358426Y357516D01*
X358495Y357377D01*
X358565Y357220D01*
X358626Y357055D01*
X358678Y356881D01*
X358713Y356698D01*
X358739Y356507D01*
X358748Y356307D01*
Y356298D01*
Y356263D01*
X358739Y356202D01*
Y356124D01*
X358722Y356028D01*
X358704Y355924D01*
X358678Y355802D01*
X358652Y355671D01*
X358609Y355523D01*
X358556Y355376D01*
X358487Y355219D01*
X358408Y355062D01*
X358321Y354897D01*
X358208Y354741D01*
X358087Y354584D01*
X357947Y354427D01*
X357939Y354419D01*
X357913Y354393D01*
X357869Y354358D01*
X357808Y354306D01*
X357730Y354245D01*
X357643Y354175D01*
X357539Y354105D01*
X357417Y354036D01*
X357286Y353958D01*
X357147Y353888D01*
X356990Y353818D01*
X356825Y353757D01*
X356651Y353705D01*
X356468Y353670D01*
X356277Y353644D01*
X356077Y353636D01*
X356033D01*
X355973Y353644D01*
X355894D01*
X355799Y353662D01*
X355694Y353679D01*
X355572Y353705D01*
X355442Y353731D01*
X355294Y353775D01*
X355146Y353827D01*
X354989Y353897D01*
X354833Y353966D01*
X354676Y354062D01*
X354511Y354166D01*
X354354Y354288D01*
X354206Y354427D01*
X354198Y354436D01*
X354172Y354462D01*
X354137Y354506D01*
X354085Y354567D01*
X354024Y354645D01*
X353954Y354741D01*
X353885Y354845D01*
X353806Y354967D01*
X353728Y355097D01*
X353658Y355236D01*
X353589Y355393D01*
X353528Y355558D01*
X353484Y355732D01*
X353441Y355915D01*
X353415Y356106D01*
X353406Y356307D01*
Y356315D01*
Y356359D01*
X353415Y356411D01*
Y356489D01*
X353432Y356585D01*
X353450Y356689D01*
X353476Y356811D01*
X353510Y356942D01*
X353545Y357089D01*
X353597Y357237D01*
X353667Y357394D01*
X353745Y357551D01*
X353832Y357707D01*
X353945Y357873D01*
X354067Y358029D01*
X354206Y358177D01*
X354215Y358186D01*
X354241Y358212D01*
X354285Y358255D01*
X354346Y358299D01*
X354424Y358360D01*
X354511Y358429D01*
X354615Y358499D01*
X354737Y358577D01*
X354868Y358656D01*
X355015Y358725D01*
X355163Y358795D01*
X355329Y358856D01*
X355503Y358908D01*
X355685Y358943D01*
X355877Y358969D01*
X356077Y358977D01*
X356129D01*
X356181Y358969D01*
D02*
G37*
G36*
X345004Y301519D02*
X345069Y301512D01*
X345156Y301490D01*
X345257Y301468D01*
X345388Y301439D01*
X345533Y301411D01*
X345700Y301374D01*
X345881Y301331D01*
X346077Y301294D01*
X346287Y301251D01*
X346504Y301200D01*
X346737Y301157D01*
X346983Y301106D01*
X347230Y301055D01*
X347491Y300997D01*
X348020Y300896D01*
X348564Y300787D01*
X349107Y300686D01*
X349644Y300584D01*
X349905Y300533D01*
X350159Y300490D01*
X350412Y300446D01*
X350652Y300410D01*
X350876Y300374D01*
X351094Y300338D01*
X351304Y300308D01*
X351493Y300287D01*
Y300279D01*
Y300258D01*
X351500Y300221D01*
X351507Y300185D01*
X351514Y300149D01*
X351521Y300106D01*
X351529Y300055D01*
X351543Y299990D01*
X351558Y299917D01*
X351579Y299837D01*
X351601Y299743D01*
X351623Y299641D01*
X351652Y299525D01*
Y299518D01*
X351659Y299497D01*
X351666Y299467D01*
X351674Y299424D01*
X351688Y299373D01*
X351703Y299315D01*
X351732Y299185D01*
X351768Y299054D01*
X351797Y298931D01*
X351812Y298873D01*
X351826Y298822D01*
X351840Y298786D01*
X351848Y298757D01*
X351833D01*
X351797Y298750D01*
X351732D01*
X351645Y298743D01*
X351543Y298728D01*
X351427Y298721D01*
X351297Y298706D01*
X351159Y298699D01*
X350869Y298670D01*
X350572Y298641D01*
X350427Y298626D01*
X350296Y298612D01*
X350166Y298598D01*
X350057Y298583D01*
X350035D01*
X350006Y298576D01*
X349963D01*
X349919Y298569D01*
X349861Y298561D01*
X349738Y298547D01*
X349600Y298532D01*
X349455Y298511D01*
X349325Y298496D01*
X349201Y298481D01*
X349180D01*
X349158Y298474D01*
X349129D01*
X349093Y298467D01*
X349049D01*
X348933Y298452D01*
X348796Y298431D01*
X348636Y298409D01*
X348455Y298387D01*
X348252Y298351D01*
X348259D01*
X348281Y298344D01*
X348317Y298337D01*
X348368Y298329D01*
X348433Y298322D01*
X348505Y298307D01*
X348585Y298293D01*
X348672Y298278D01*
X348679D01*
X348716Y298271D01*
X348759Y298264D01*
X348825Y298250D01*
X348904Y298235D01*
X348991Y298220D01*
X349093Y298206D01*
X349194Y298184D01*
X349201D01*
X349238Y298177D01*
X349289Y298170D01*
X349361Y298155D01*
X349448Y298141D01*
X349564Y298119D01*
X349694Y298097D01*
X349839Y298076D01*
X350013Y298046D01*
X350202Y298010D01*
X350412Y297974D01*
X350637Y297931D01*
X350884Y297887D01*
X351145Y297836D01*
X351427Y297785D01*
X351732Y297727D01*
X352044Y296350D01*
X352029D01*
X351986Y296364D01*
X351913Y296379D01*
X351819Y296393D01*
X351703Y296415D01*
X351565Y296444D01*
X351406Y296480D01*
X351224Y296510D01*
X351028Y296553D01*
X350811Y296597D01*
X350586Y296640D01*
X350347Y296684D01*
X350093Y296734D01*
X349832Y296785D01*
X349564Y296836D01*
X349289Y296886D01*
X348716Y296988D01*
X348143Y297097D01*
X347570Y297198D01*
X347012Y297292D01*
X346744Y297336D01*
X346490Y297379D01*
X346236Y297416D01*
X345997Y297452D01*
X345772Y297488D01*
X345562Y297517D01*
X345366Y297539D01*
X345192Y297561D01*
Y297575D01*
Y297611D01*
X345185Y297670D01*
Y297742D01*
X345178Y297829D01*
X345170Y297916D01*
X345156Y298112D01*
Y298126D01*
X345149Y298155D01*
Y298206D01*
X345142Y298271D01*
X345134Y298351D01*
Y298438D01*
X345120Y298626D01*
Y298641D01*
Y298670D01*
X345112Y298721D01*
Y298779D01*
X345105Y298851D01*
X345098Y298924D01*
X345083Y299076D01*
X345091D01*
X345112Y299083D01*
X345156Y299091D01*
X345207Y299098D01*
X345265Y299105D01*
X345337Y299119D01*
X345417Y299127D01*
X345504Y299141D01*
X345692Y299170D01*
X345896Y299206D01*
X346098Y299236D01*
X346287Y299265D01*
X346294D01*
X346309Y299272D01*
X346330D01*
X346367Y299279D01*
X346403Y299286D01*
X346454Y299293D01*
X346563Y299308D01*
X346686Y299330D01*
X346816Y299352D01*
X346939Y299373D01*
X347063Y299395D01*
X347077D01*
X347113Y299402D01*
X347171Y299417D01*
X347244Y299424D01*
X347338Y299439D01*
X347432Y299453D01*
X347643Y299489D01*
X347650D01*
X347664Y299497D01*
X347701D01*
X347737Y299504D01*
X347788Y299511D01*
X347846Y299525D01*
X347976Y299547D01*
X348136Y299576D01*
X348303Y299612D01*
X348469Y299649D01*
X348636Y299685D01*
X348629D01*
X348600Y299692D01*
X348564Y299699D01*
X348505Y299707D01*
X348440Y299721D01*
X348360Y299736D01*
X348281Y299750D01*
X348186Y299765D01*
X348172D01*
X348143Y299772D01*
X348092Y299779D01*
X348020Y299794D01*
X347940Y299808D01*
X347853Y299823D01*
X347751Y299837D01*
X347643Y299859D01*
X347628D01*
X347592Y299866D01*
X347534Y299881D01*
X347462Y299895D01*
X347375Y299917D01*
X347273Y299939D01*
X347164Y299960D01*
X347056Y299982D01*
X347041D01*
X347005Y299997D01*
X346939Y300011D01*
X346845Y300026D01*
X346737Y300047D01*
X346606Y300077D01*
X346454Y300106D01*
X346287Y300142D01*
X346280D01*
X346265Y300149D01*
X346236D01*
X346200Y300164D01*
X346157Y300171D01*
X346098Y300185D01*
X346033Y300192D01*
X345961Y300214D01*
X345874Y300229D01*
X345787Y300243D01*
X345685Y300265D01*
X345584Y300287D01*
X345344Y300338D01*
X345091Y300388D01*
X344953Y301534D01*
X344968D01*
X345004Y301519D01*
D02*
G37*
G36*
X346845Y295654D02*
X346838D01*
X346816Y295647D01*
X346780Y295639D01*
X346737Y295625D01*
X346686Y295603D01*
X346628Y295582D01*
X346497Y295524D01*
X346367Y295451D01*
X346309Y295408D01*
X346258Y295357D01*
X346215Y295306D01*
X346178Y295241D01*
X346157Y295183D01*
X346149Y295110D01*
Y295103D01*
X346157Y295067D01*
X346164Y295023D01*
X346193Y294958D01*
X346229Y294878D01*
X346287Y294791D01*
X346374Y294690D01*
X346425Y294639D01*
X346483Y294588D01*
X346490D01*
X346497Y294574D01*
X346519Y294559D01*
X346541Y294545D01*
X346613Y294487D01*
X346715Y294422D01*
X346838Y294342D01*
X346990Y294255D01*
X347157Y294161D01*
X347345Y294066D01*
X347360Y294059D01*
X347404Y294044D01*
X347469Y294016D01*
X347556Y293979D01*
X347664Y293936D01*
X347795Y293885D01*
X347940Y293834D01*
X348099Y293776D01*
X348273Y293725D01*
X348462Y293668D01*
X348665Y293617D01*
X348868Y293573D01*
X349078Y293537D01*
X349296Y293501D01*
X349520Y293479D01*
X349738Y293464D01*
X349832D01*
X349883Y293472D01*
X349934D01*
X350064Y293486D01*
X350202Y293508D01*
X350340Y293537D01*
X350463Y293581D01*
X350521Y293609D01*
X350572Y293638D01*
X350579Y293646D01*
X350608Y293668D01*
X350652Y293711D01*
X350695Y293755D01*
X350739Y293820D01*
X350782Y293885D01*
X350811Y293965D01*
X350818Y294044D01*
Y294052D01*
Y294081D01*
X350811Y294131D01*
X350804Y294182D01*
X350797Y294248D01*
X350775Y294320D01*
X350753Y294400D01*
X350724Y294472D01*
X350717Y294479D01*
X350710Y294509D01*
X350688Y294545D01*
X350659Y294596D01*
X350615Y294654D01*
X350572Y294711D01*
X350521Y294777D01*
X350463Y294835D01*
X350456Y294842D01*
X350448Y294849D01*
X350427Y294871D01*
X350398Y294893D01*
X350354Y294922D01*
X350311Y294951D01*
X350202Y295023D01*
X350072Y295089D01*
X349919Y295154D01*
X349745Y295197D01*
X349651Y295212D01*
X349557Y295219D01*
X349702Y294218D01*
X348774Y294392D01*
Y294400D01*
Y294407D01*
X348766Y294450D01*
X348759Y294516D01*
X348745Y294610D01*
X348730Y294726D01*
X348709Y294857D01*
X348694Y295009D01*
X348665Y295168D01*
X348643Y295342D01*
X348614Y295531D01*
X348585Y295719D01*
X348556Y295922D01*
X348491Y296321D01*
X348426Y296712D01*
X348469D01*
X348520Y296705D01*
X348585Y296698D01*
X348672Y296691D01*
X348766Y296676D01*
X348875Y296662D01*
X348991Y296647D01*
X349122Y296625D01*
X349252Y296597D01*
X349535Y296531D01*
X349818Y296451D01*
X350093Y296343D01*
X350100D01*
X350122Y296328D01*
X350159Y296314D01*
X350209Y296285D01*
X350274Y296256D01*
X350340Y296219D01*
X350419Y296176D01*
X350506Y296132D01*
X350695Y296024D01*
X350891Y295893D01*
X351094Y295748D01*
X351282Y295589D01*
X351290Y295582D01*
X351304Y295567D01*
X351326Y295545D01*
X351362Y295516D01*
X351398Y295473D01*
X351442Y295422D01*
X351551Y295306D01*
X351659Y295168D01*
X351782Y295009D01*
X351891Y294835D01*
X351993Y294646D01*
Y294639D01*
X352000Y294624D01*
X352014Y294596D01*
X352029Y294559D01*
X352044Y294516D01*
X352065Y294465D01*
X352109Y294349D01*
X352152Y294204D01*
X352188Y294059D01*
X352218Y293899D01*
X352225Y293747D01*
Y293740D01*
Y293733D01*
Y293711D01*
Y293682D01*
X352218Y293602D01*
X352203Y293508D01*
X352188Y293399D01*
X352160Y293276D01*
X352123Y293160D01*
X352073Y293037D01*
X352065Y293022D01*
X352044Y292986D01*
X352007Y292928D01*
X351964Y292856D01*
X351899Y292769D01*
X351819Y292674D01*
X351725Y292580D01*
X351616Y292493D01*
X351608Y292486D01*
X351587Y292471D01*
X351543Y292449D01*
X351493Y292413D01*
X351427Y292377D01*
X351340Y292341D01*
X351246Y292290D01*
X351137Y292247D01*
X351014Y292203D01*
X350869Y292160D01*
X350717Y292116D01*
X350557Y292080D01*
X350376Y292043D01*
X350180Y292022D01*
X349977Y292007D01*
X349760Y292000D01*
X349644D01*
X349557Y292007D01*
X349455D01*
X349332Y292022D01*
X349194Y292029D01*
X349049Y292043D01*
X348890Y292065D01*
X348723Y292087D01*
X348368Y292145D01*
X348012Y292232D01*
X347838Y292290D01*
X347664Y292348D01*
X347657Y292355D01*
X347621Y292362D01*
X347578Y292384D01*
X347512Y292413D01*
X347440Y292442D01*
X347345Y292486D01*
X347251Y292536D01*
X347143Y292587D01*
X346903Y292718D01*
X346650Y292863D01*
X346403Y293037D01*
X346164Y293225D01*
X346157Y293232D01*
X346135Y293247D01*
X346106Y293276D01*
X346062Y293320D01*
X346011Y293370D01*
X345961Y293428D01*
X345896Y293494D01*
X345823Y293566D01*
X345678Y293733D01*
X345533Y293929D01*
X345395Y294139D01*
X345330Y294248D01*
X345272Y294363D01*
Y294371D01*
X345257Y294392D01*
X345243Y294422D01*
X345229Y294465D01*
X345199Y294516D01*
X345178Y294581D01*
X345149Y294646D01*
X345120Y294726D01*
X345069Y294893D01*
X345018Y295067D01*
X344989Y295248D01*
X344975Y295422D01*
Y295429D01*
Y295444D01*
Y295465D01*
Y295495D01*
X344982Y295582D01*
X344989Y295683D01*
X345011Y295799D01*
X345033Y295915D01*
X345069Y296038D01*
X345112Y296147D01*
X345120Y296162D01*
X345134Y296191D01*
X345163Y296241D01*
X345207Y296306D01*
X345257Y296379D01*
X345316Y296451D01*
X345381Y296524D01*
X345461Y296597D01*
X345468Y296604D01*
X345482Y296611D01*
X345504Y296625D01*
X345540Y296655D01*
X345577Y296676D01*
X345635Y296705D01*
X345692Y296742D01*
X345758Y296771D01*
X345837Y296807D01*
X345924Y296836D01*
X346019Y296865D01*
X346120Y296894D01*
X346229Y296916D01*
X346345Y296930D01*
X346468Y296937D01*
X346599Y296944D01*
X346845Y295654D01*
D02*
G37*
G36*
X309699Y370305D02*
X309687Y370282D01*
X309676Y370247D01*
X309664Y370200D01*
X309652Y370131D01*
X309629Y370050D01*
X309606Y369957D01*
X309583Y369841D01*
X309560Y369724D01*
X309525Y369585D01*
X309490Y369434D01*
X309455Y369272D01*
X309420Y369086D01*
X309385Y368900D01*
X309339Y368703D01*
X309304Y368482D01*
X310512D01*
Y368471D01*
Y368424D01*
X310500Y368343D01*
X310488Y368250D01*
X310477Y368134D01*
X310465Y367994D01*
X310454Y367844D01*
X310442Y367681D01*
X310407Y367333D01*
X310361Y366950D01*
X310314Y366590D01*
X310279Y366404D01*
X310256Y366241D01*
X309861D01*
X309699Y366230D01*
X309502D01*
X309293Y366207D01*
X309084Y366195D01*
X308875Y366172D01*
Y366160D01*
X308863Y366114D01*
Y366056D01*
X308851Y365986D01*
X308840Y365893D01*
X308828Y365789D01*
X308793Y365591D01*
Y365580D01*
X308782Y365545D01*
X308770Y365487D01*
X308758Y365417D01*
X308747Y365336D01*
X308724Y365243D01*
X308689Y365022D01*
Y365011D01*
X308677Y364976D01*
X308666Y364906D01*
X308654Y364837D01*
X308631Y364744D01*
X308619Y364651D01*
X308573Y364442D01*
X308515D01*
X308445Y364430D01*
X308352D01*
X308248Y364419D01*
X308120Y364407D01*
X307992Y364395D01*
X307841Y364384D01*
X307539Y364361D01*
X307238Y364337D01*
X307098Y364314D01*
X306971Y364303D01*
X306855Y364291D01*
X306750Y364279D01*
Y364291D01*
X306762Y364326D01*
X306773Y364384D01*
X306796Y364465D01*
X306820Y364558D01*
X306843Y364663D01*
X306901Y364906D01*
Y364918D01*
X306912Y364964D01*
X306924Y365022D01*
X306947Y365104D01*
X306971Y365208D01*
X306994Y365313D01*
X307052Y365545D01*
Y365556D01*
X307063Y365591D01*
X307075Y365661D01*
X307098Y365731D01*
X307121Y365824D01*
X307145Y365928D01*
X307191Y366160D01*
X307156D01*
X307110Y366149D01*
X307052D01*
X306912Y366137D01*
X306762Y366114D01*
X306750D01*
X306727Y366102D01*
X306680D01*
X306634Y366090D01*
X306506Y366079D01*
X306355Y366067D01*
X306320D01*
X306286Y366056D01*
X306239D01*
X306123Y366044D01*
X305995Y366021D01*
Y366033D01*
X306007Y366079D01*
X306018Y366149D01*
X306042Y366241D01*
X306065Y366357D01*
X306100Y366485D01*
X306123Y366636D01*
X306158Y366810D01*
X306193Y366996D01*
X306239Y367182D01*
X306320Y367600D01*
X306402Y368041D01*
X306483Y368494D01*
X307238Y368482D01*
X307377D01*
X307516Y368471D01*
X307679Y368459D01*
Y368471D01*
Y368494D01*
Y368540D01*
X307690Y368598D01*
Y368679D01*
X307702Y368772D01*
X307714Y368877D01*
X307725Y368981D01*
X307748Y369248D01*
X307795Y369550D01*
X307841Y369875D01*
X307911Y370212D01*
X309699Y370317D01*
Y370305D01*
D02*
G37*
G36*
X347382Y305326D02*
X347476Y305318D01*
X347585Y305304D01*
X347708Y305289D01*
X347853Y305268D01*
X348005Y305239D01*
X348172Y305202D01*
X348346Y305159D01*
X348527Y305108D01*
X348723Y305043D01*
X348919Y304970D01*
X349122Y304890D01*
X349332Y304796D01*
X349346Y304789D01*
X349383Y304767D01*
X349441Y304738D01*
X349528Y304695D01*
X349622Y304637D01*
X349738Y304572D01*
X349868Y304492D01*
X350006Y304405D01*
X350151Y304303D01*
X350311Y304194D01*
X350463Y304071D01*
X350623Y303941D01*
X350782Y303803D01*
X350941Y303658D01*
X351086Y303499D01*
X351232Y303332D01*
X351239Y303317D01*
X351268Y303288D01*
X351304Y303230D01*
X351355Y303151D01*
X351420Y303056D01*
X351485Y302940D01*
X351565Y302810D01*
X351638Y302665D01*
X351710Y302505D01*
X351790Y302331D01*
X351855Y302150D01*
X351913Y301961D01*
X351971Y301759D01*
X352007Y301548D01*
X352036Y301331D01*
X352044Y301113D01*
Y301106D01*
Y301077D01*
Y301033D01*
X352036Y300975D01*
Y300896D01*
X352022Y300809D01*
X352014Y300707D01*
X352000Y300591D01*
X351986D01*
X351942Y300606D01*
X351877Y300613D01*
X351782Y300635D01*
X351666Y300657D01*
X351521Y300686D01*
X351369Y300714D01*
X351188Y300751D01*
X350992Y300787D01*
X350782Y300831D01*
X350557Y300874D01*
X350325Y300918D01*
X350072Y300968D01*
X349818Y301019D01*
X349550Y301070D01*
X349281Y301120D01*
X348730Y301222D01*
X348165Y301331D01*
X347606Y301432D01*
X347338Y301483D01*
X347070Y301526D01*
X346816Y301570D01*
X346563Y301613D01*
X346330Y301657D01*
X346098Y301693D01*
X345888Y301729D01*
X345692Y301759D01*
X345511Y301787D01*
X345352Y301809D01*
Y301817D01*
Y301831D01*
X345344Y301853D01*
X345337Y301882D01*
X345323Y301961D01*
X345308Y302063D01*
X345286Y302186D01*
X345265Y302324D01*
X345236Y302469D01*
X345214Y302621D01*
Y302628D01*
Y302643D01*
X345207Y302665D01*
X345199Y302694D01*
Y302730D01*
X345192Y302773D01*
X345178Y302889D01*
X345163Y303020D01*
X345156Y303172D01*
X345142Y303332D01*
Y303506D01*
Y303513D01*
Y303527D01*
Y303549D01*
Y303586D01*
X345149Y303629D01*
Y303673D01*
X345163Y303788D01*
X345178Y303919D01*
X345207Y304057D01*
X345250Y304194D01*
X345301Y304332D01*
Y304340D01*
X345308Y304347D01*
X345330Y304390D01*
X345366Y304455D01*
X345417Y304535D01*
X345482Y304629D01*
X345555Y304724D01*
X345642Y304825D01*
X345743Y304912D01*
X345750Y304920D01*
X345765Y304934D01*
X345801Y304948D01*
X345845Y304977D01*
X345896Y305007D01*
X345961Y305043D01*
X346041Y305086D01*
X346128Y305122D01*
X346229Y305159D01*
X346338Y305202D01*
X346461Y305239D01*
X346591Y305268D01*
X346729Y305296D01*
X346882Y305318D01*
X347041Y305326D01*
X347208Y305333D01*
X347309D01*
X347382Y305326D01*
D02*
G37*
G36*
X255382Y373701D02*
X255476Y373694D01*
X255585Y373679D01*
X255708Y373665D01*
X255853Y373643D01*
X256005Y373614D01*
X256172Y373578D01*
X256346Y373534D01*
X256527Y373483D01*
X256723Y373418D01*
X256919Y373346D01*
X257122Y373266D01*
X257332Y373172D01*
X257347Y373165D01*
X257383Y373143D01*
X257441Y373114D01*
X257528Y373070D01*
X257622Y373012D01*
X257738Y372947D01*
X257869Y372867D01*
X258006Y372780D01*
X258151Y372679D01*
X258311Y372570D01*
X258463Y372447D01*
X258623Y372316D01*
X258782Y372179D01*
X258942Y372034D01*
X259086Y371874D01*
X259231Y371707D01*
X259239Y371693D01*
X259268Y371664D01*
X259304Y371606D01*
X259355Y371526D01*
X259420Y371432D01*
X259485Y371316D01*
X259565Y371185D01*
X259637Y371040D01*
X259710Y370881D01*
X259790Y370707D01*
X259855Y370526D01*
X259913Y370337D01*
X259971Y370134D01*
X260007Y369924D01*
X260036Y369706D01*
X260044Y369489D01*
Y369481D01*
Y369453D01*
Y369409D01*
X260036Y369351D01*
Y369271D01*
X260022Y369184D01*
X260015Y369083D01*
X260000Y368967D01*
X259985D01*
X259942Y368981D01*
X259877Y368988D01*
X259783Y369010D01*
X259666Y369032D01*
X259522Y369061D01*
X259369Y369090D01*
X259188Y369126D01*
X258992Y369163D01*
X258782Y369206D01*
X258557Y369250D01*
X258325Y369293D01*
X258071Y369344D01*
X257818Y369394D01*
X257550Y369445D01*
X257281Y369496D01*
X256730Y369598D01*
X256165Y369706D01*
X255607Y369808D01*
X255338Y369859D01*
X255070Y369902D01*
X254816Y369946D01*
X254562Y369989D01*
X254330Y370033D01*
X254099Y370069D01*
X253888Y370105D01*
X253693Y370134D01*
X253511Y370163D01*
X253352Y370185D01*
Y370192D01*
Y370206D01*
X253344Y370228D01*
X253337Y370257D01*
X253323Y370337D01*
X253308Y370439D01*
X253287Y370562D01*
X253265Y370700D01*
X253236Y370845D01*
X253214Y370997D01*
Y371004D01*
Y371019D01*
X253207Y371040D01*
X253200Y371069D01*
Y371106D01*
X253192Y371149D01*
X253178Y371265D01*
X253163Y371395D01*
X253156Y371548D01*
X253141Y371707D01*
Y371881D01*
Y371888D01*
Y371903D01*
Y371925D01*
Y371961D01*
X253149Y372005D01*
Y372048D01*
X253163Y372164D01*
X253178Y372294D01*
X253207Y372432D01*
X253250Y372570D01*
X253301Y372708D01*
Y372715D01*
X253308Y372722D01*
X253330Y372766D01*
X253366Y372831D01*
X253417Y372911D01*
X253482Y373005D01*
X253555Y373099D01*
X253642Y373201D01*
X253743Y373288D01*
X253750Y373295D01*
X253765Y373309D01*
X253801Y373324D01*
X253845Y373353D01*
X253895Y373382D01*
X253961Y373418D01*
X254041Y373462D01*
X254128Y373498D01*
X254229Y373534D01*
X254338Y373578D01*
X254461Y373614D01*
X254591Y373643D01*
X254729Y373672D01*
X254882Y373694D01*
X255041Y373701D01*
X255208Y373708D01*
X255309D01*
X255382Y373701D01*
D02*
G37*
G36*
X253113Y369989D02*
X253156Y369974D01*
X253207Y369960D01*
X253265Y369938D01*
X253337Y369924D01*
X253482Y369887D01*
X253489D01*
X253519Y369880D01*
X253555Y369873D01*
X253606Y369859D01*
X253663Y369844D01*
X253729Y369830D01*
X253874Y369793D01*
X253881D01*
X253903Y369786D01*
X253946Y369779D01*
X253990Y369772D01*
X254099Y369742D01*
X254215Y369721D01*
Y369706D01*
X254222Y369670D01*
Y369612D01*
X254229Y369525D01*
X254236Y369416D01*
Y369293D01*
X254243Y369141D01*
Y368974D01*
Y368336D01*
X255933Y368010D01*
Y368017D01*
Y368032D01*
Y368060D01*
X255925Y368097D01*
Y368133D01*
Y368184D01*
X255918Y368300D01*
X255911Y368438D01*
X255904Y368575D01*
X255896Y368720D01*
Y368851D01*
Y368858D01*
Y368865D01*
Y368909D01*
X255889Y368967D01*
Y369032D01*
X255882Y369112D01*
Y369184D01*
X255875Y369242D01*
Y369293D01*
X255889D01*
X255918Y369286D01*
X255976Y369279D01*
X256042Y369271D01*
X256121Y369257D01*
X256208Y369250D01*
X256397Y369220D01*
X256411D01*
X256440Y369213D01*
X256491Y369206D01*
X256556Y369199D01*
X256629Y369192D01*
X256716Y369177D01*
X256810Y369163D01*
X256911Y369148D01*
Y369141D01*
Y369126D01*
Y369105D01*
X256919Y369068D01*
Y369025D01*
Y368974D01*
X256926Y368909D01*
Y368829D01*
Y368822D01*
Y368793D01*
Y368749D01*
X256933Y368699D01*
Y368626D01*
Y368553D01*
X256941Y368387D01*
Y368379D01*
Y368351D01*
Y368300D01*
X256948Y368242D01*
Y368162D01*
Y368075D01*
X256955Y367981D01*
Y367879D01*
X258695Y367560D01*
X258470Y368923D01*
X259543Y368836D01*
X260007Y365798D01*
X253330Y367024D01*
X253076Y369996D01*
X253083D01*
X253113Y369989D01*
D02*
G37*
G36*
X253127Y365842D02*
X253170Y365827D01*
X253243Y365813D01*
X253323Y365791D01*
X253424Y365770D01*
X253533Y365740D01*
X253663Y365711D01*
X253801Y365683D01*
X253946Y365646D01*
X254106Y365610D01*
X254273Y365574D01*
X254621Y365494D01*
X254997Y365407D01*
X255375Y365320D01*
X255759Y365233D01*
X256129Y365153D01*
X256484Y365073D01*
X256650Y365037D01*
X256810Y365001D01*
X256962Y364972D01*
X257100Y364943D01*
X257223Y364914D01*
X257339Y364892D01*
X257441Y364871D01*
X257528Y364856D01*
X257535D01*
X257564Y364849D01*
X257608Y364842D01*
X257658Y364834D01*
X257731Y364820D01*
X257803Y364805D01*
X257890Y364791D01*
X257984Y364776D01*
X258173Y364747D01*
X258362Y364718D01*
X258456Y364704D01*
X258536Y364689D01*
X258615Y364675D01*
X258681Y364668D01*
Y364675D01*
Y364682D01*
Y364704D01*
X258673Y364733D01*
Y364769D01*
Y364812D01*
X258666Y364863D01*
Y364921D01*
Y364986D01*
X258659Y365059D01*
Y365226D01*
X258651Y365422D01*
Y365639D01*
X258666D01*
X258710Y365646D01*
X258775D01*
X258862Y365653D01*
X258956Y365661D01*
X259050Y365675D01*
X259152Y365683D01*
X259239Y365697D01*
X259246D01*
X259275Y365704D01*
X259318Y365711D01*
X259362Y365719D01*
X259471Y365733D01*
X259529Y365740D01*
X259572Y365748D01*
X259587D01*
X259630Y365755D01*
X259674Y365762D01*
X259710Y365770D01*
X259703Y365487D01*
Y365479D01*
Y365443D01*
Y365392D01*
Y365320D01*
X259710Y365233D01*
Y365131D01*
X259717Y365016D01*
X259724Y364885D01*
X259732Y364747D01*
X259746Y364595D01*
X259761Y364436D01*
X259775Y364269D01*
X259819Y363921D01*
X259877Y363565D01*
Y363551D01*
X259891Y363515D01*
X259898Y363457D01*
X259920Y363377D01*
X259942Y363290D01*
X259964Y363196D01*
X260015Y363000D01*
X259993D01*
X259971Y363007D01*
X259935D01*
X259898Y363015D01*
X259848Y363022D01*
X259790Y363029D01*
X259724Y363043D01*
X259645Y363051D01*
X259565Y363065D01*
X259384Y363087D01*
X259173Y363116D01*
X258934Y363152D01*
X258681Y363196D01*
X258405Y363239D01*
X258108Y363283D01*
X257803Y363334D01*
X257477Y363391D01*
X257143Y363450D01*
X256803Y363515D01*
X256455Y363580D01*
X256448D01*
X256433Y363587D01*
X256404D01*
X256375Y363595D01*
X256324Y363602D01*
X256274Y363616D01*
X256208Y363631D01*
X256143Y363638D01*
X256063Y363652D01*
X255983Y363674D01*
X255795Y363710D01*
X255585Y363747D01*
X255360Y363790D01*
X255121Y363841D01*
X254867Y363892D01*
X254606Y363943D01*
X254338Y363993D01*
X253808Y364095D01*
X253555Y364145D01*
X253308Y364196D01*
X253083Y365849D01*
X253091D01*
X253127Y365842D01*
D02*
G37*
G36*
X369600Y334115D02*
X369687Y334101D01*
X369803Y334072D01*
X369948Y334043D01*
X370108Y333999D01*
X370296Y333970D01*
X370514Y333927D01*
X370746Y333883D01*
X370978Y333825D01*
X371501Y333724D01*
X372052Y333622D01*
X372618Y333521D01*
X372604Y332577D01*
Y332563D01*
Y332534D01*
Y332476D01*
Y332403D01*
X372589Y332229D01*
X372574Y332026D01*
X372676D01*
X372749Y332011D01*
X372850D01*
X372966Y331997D01*
X373097Y331982D01*
X373227Y331968D01*
X373561Y331939D01*
X373938Y331881D01*
X374345Y331823D01*
X374765Y331736D01*
X374896Y329501D01*
X374882D01*
X374852Y329516D01*
X374809Y329530D01*
X374751Y329545D01*
X374664Y329559D01*
X374562Y329588D01*
X374446Y329617D01*
X374301Y329646D01*
X374156Y329675D01*
X373982Y329719D01*
X373793Y329762D01*
X373590Y329806D01*
X373358Y329849D01*
X373126Y329893D01*
X372879Y329951D01*
X372604Y329995D01*
Y328485D01*
X372531D01*
X372429Y328500D01*
X372313Y328515D01*
X372168Y328529D01*
X371994Y328543D01*
X371805Y328558D01*
X371602Y328573D01*
X371167Y328616D01*
X370688Y328674D01*
X370238Y328732D01*
X370006Y328776D01*
X369803Y328805D01*
Y328993D01*
Y329008D01*
Y329037D01*
Y329080D01*
Y329138D01*
Y329298D01*
X369789Y329501D01*
Y329748D01*
X369759Y330009D01*
X369745Y330270D01*
X369716Y330531D01*
X369702D01*
X369643Y330546D01*
X369571D01*
X369484Y330560D01*
X369368Y330575D01*
X369237Y330589D01*
X368990Y330633D01*
X368976D01*
X368932Y330647D01*
X368860Y330662D01*
X368773Y330677D01*
X368671Y330691D01*
X368555Y330720D01*
X368280Y330764D01*
X368265D01*
X368221Y330778D01*
X368134Y330793D01*
X368047Y330807D01*
X367931Y330836D01*
X367815Y330851D01*
X367554Y330909D01*
Y330923D01*
Y330981D01*
X367540Y331068D01*
Y331184D01*
X367525Y331315D01*
X367511Y331474D01*
X367496Y331634D01*
X367481Y331823D01*
X367452Y332200D01*
X367423Y332577D01*
X367394Y332751D01*
X367380Y332911D01*
X367365Y333056D01*
X367351Y333187D01*
X367365D01*
X367409Y333172D01*
X367481Y333158D01*
X367583Y333129D01*
X367699Y333100D01*
X367830Y333071D01*
X368134Y332998D01*
X368149D01*
X368207Y332984D01*
X368280Y332969D01*
X368381Y332940D01*
X368512Y332911D01*
X368642Y332882D01*
X368932Y332809D01*
X368947D01*
X368990Y332795D01*
X369077Y332781D01*
X369165Y332751D01*
X369281Y332722D01*
X369411Y332693D01*
X369702Y332635D01*
Y332650D01*
Y332679D01*
X369687Y332737D01*
Y332809D01*
X369672Y332984D01*
X369643Y333172D01*
Y333187D01*
X369629Y333216D01*
Y333274D01*
X369614Y333332D01*
X369600Y333491D01*
X369585Y333680D01*
Y333695D01*
Y333724D01*
X369571Y333767D01*
Y333825D01*
X369556Y333970D01*
X369527Y334130D01*
X369542D01*
X369600Y334115D01*
D02*
G37*
G36*
X253076Y238851D02*
X253170Y238844D01*
X253264Y238829D01*
X253366Y238815D01*
X253453Y238793D01*
X253460D01*
X253489Y238779D01*
X253533Y238764D01*
X253583Y238742D01*
X253648Y238721D01*
X253714Y238685D01*
X253844Y238605D01*
X253852D01*
X253859Y238590D01*
X253902Y238547D01*
X253960Y238481D01*
X254026Y238387D01*
X254091Y238264D01*
X254141Y238119D01*
X254185Y237945D01*
X254192Y237843D01*
X254200Y237742D01*
Y237735D01*
Y237720D01*
Y237691D01*
Y237655D01*
X254192Y237568D01*
X254178Y237474D01*
Y237467D01*
Y237452D01*
X254170Y237423D01*
X254163Y237387D01*
X254149Y237300D01*
X254134Y237191D01*
X252779Y236792D01*
Y236800D01*
X252786Y236828D01*
X252793Y236865D01*
X252800Y236908D01*
X252807Y236966D01*
X252815Y237032D01*
X252822Y237176D01*
Y237184D01*
Y237213D01*
X252815Y237249D01*
X252807Y237293D01*
X252779Y237401D01*
X252757Y237452D01*
X252720Y237503D01*
X252713Y237510D01*
X252706Y237525D01*
X252684Y237546D01*
X252655Y237568D01*
X252583Y237612D01*
X252547Y237626D01*
X252503Y237633D01*
X252460D01*
X252438Y237626D01*
X252365Y237612D01*
X252278Y237575D01*
X252271D01*
X252256Y237568D01*
X252235Y237554D01*
X252213Y237539D01*
X252140Y237488D01*
X252061Y237430D01*
X252053Y237423D01*
X252025Y237394D01*
X251981Y237351D01*
X251938Y237293D01*
X251887Y237227D01*
X251851Y237147D01*
X251821Y237068D01*
X251807Y236974D01*
Y236966D01*
Y236937D01*
X251814Y236887D01*
X251821Y236836D01*
X251836Y236771D01*
X251858Y236705D01*
X251887Y236640D01*
X251930Y236582D01*
X251938Y236575D01*
X251952Y236553D01*
X251981Y236524D01*
X252017Y236488D01*
X252068Y236444D01*
X252119Y236401D01*
X252249Y236299D01*
X252256Y236292D01*
X252286Y236278D01*
X252322Y236248D01*
X252373Y236220D01*
X252431Y236176D01*
X252503Y236133D01*
X252655Y236031D01*
X252662Y236024D01*
X252692Y236009D01*
X252735Y235973D01*
X252793Y235937D01*
X252858Y235886D01*
X252923Y235828D01*
X252996Y235755D01*
X253068Y235683D01*
X253076Y235676D01*
X253090Y235661D01*
X253112Y235632D01*
X253141Y235589D01*
X253170Y235538D01*
X253206Y235473D01*
X253250Y235400D01*
X253293Y235320D01*
X253329Y235226D01*
X253373Y235125D01*
X253409Y235009D01*
X253446Y234893D01*
X253467Y234762D01*
X253489Y234625D01*
X253503Y234472D01*
X253511Y234320D01*
Y234306D01*
Y234277D01*
X253503Y234219D01*
X253496Y234146D01*
X253489Y234059D01*
X253474Y233958D01*
X253446Y233849D01*
X253416Y233726D01*
X253380Y233588D01*
X253329Y233457D01*
X253264Y233312D01*
X253192Y233167D01*
X253105Y233030D01*
X253003Y232892D01*
X252887Y232754D01*
X252757Y232624D01*
X252749Y232616D01*
X252728Y232594D01*
X252684Y232565D01*
X252626Y232522D01*
X252561Y232478D01*
X252474Y232420D01*
X252380Y232363D01*
X252264Y232305D01*
X252140Y232246D01*
X252003Y232189D01*
X251858Y232131D01*
X251698Y232087D01*
X251524Y232044D01*
X251343Y232014D01*
X251154Y231993D01*
X250952Y231985D01*
X250915D01*
X250872Y231993D01*
X250814Y232000D01*
X250741Y232014D01*
X250661Y232029D01*
X250567Y232058D01*
X250466Y232087D01*
X250357Y232131D01*
X250234Y232189D01*
X250118Y232254D01*
X249987Y232341D01*
X249857Y232435D01*
X249726Y232544D01*
X249603Y232674D01*
X249472Y232819D01*
X250168Y234190D01*
X250176Y234175D01*
X250198Y234146D01*
X250226Y234095D01*
X250277Y234037D01*
X250350Y233965D01*
X250437Y233885D01*
X250538Y233798D01*
X250669Y233718D01*
X250676D01*
X250683Y233711D01*
X250727Y233682D01*
X250792Y233653D01*
X250872Y233610D01*
X250959Y233573D01*
X251053Y233537D01*
X251140Y233508D01*
X251213Y233501D01*
X251278D01*
X251321Y233508D01*
X251423Y233515D01*
X251524Y233537D01*
X251532D01*
X251546Y233544D01*
X251568Y233552D01*
X251597Y233566D01*
X251669Y233595D01*
X251749Y233646D01*
X251756Y233653D01*
X251785Y233675D01*
X251821Y233711D01*
X251865Y233762D01*
X251908Y233820D01*
X251945Y233885D01*
X251974Y233958D01*
X251981Y234045D01*
Y234059D01*
Y234088D01*
X251974Y234132D01*
X251959Y234190D01*
X251945Y234255D01*
X251916Y234327D01*
X251880Y234400D01*
X251829Y234472D01*
X251821Y234479D01*
X251800Y234508D01*
X251771Y234545D01*
X251727Y234595D01*
X251677Y234646D01*
X251619Y234712D01*
X251546Y234777D01*
X251466Y234842D01*
X251459Y234849D01*
X251430Y234871D01*
X251386Y234907D01*
X251328Y234951D01*
X251263Y235001D01*
X251184Y235059D01*
X251097Y235125D01*
X251002Y235190D01*
X250988Y235197D01*
X250959Y235219D01*
X250908Y235255D01*
X250850Y235306D01*
X250778Y235364D01*
X250698Y235429D01*
X250538Y235574D01*
X250531Y235581D01*
X250517Y235596D01*
X250487Y235618D01*
X250459Y235654D01*
X250422Y235698D01*
X250379Y235748D01*
X250285Y235864D01*
X250183Y236009D01*
X250103Y236176D01*
X250074Y236263D01*
X250045Y236350D01*
X250031Y236444D01*
X250024Y236539D01*
Y236546D01*
Y236560D01*
Y236589D01*
X250031Y236626D01*
Y236669D01*
X250038Y236720D01*
X250060Y236843D01*
X250096Y236988D01*
X250147Y237147D01*
X250219Y237307D01*
X250313Y237467D01*
Y237474D01*
X250328Y237488D01*
X250342Y237510D01*
X250364Y237539D01*
X250430Y237619D01*
X250517Y237713D01*
X250618Y237829D01*
X250741Y237952D01*
X250886Y238075D01*
X251039Y238192D01*
X251046Y238199D01*
X251060Y238206D01*
X251082Y238221D01*
X251118Y238242D01*
X251154Y238271D01*
X251205Y238300D01*
X251321Y238373D01*
X251459Y238445D01*
X251626Y238525D01*
X251800Y238605D01*
X251988Y238677D01*
X251995D01*
X252010Y238685D01*
X252039Y238692D01*
X252075Y238706D01*
X252119Y238721D01*
X252169Y238735D01*
X252293Y238772D01*
X252431Y238801D01*
X252575Y238829D01*
X252728Y238851D01*
X252866Y238859D01*
X252989D01*
X253076Y238851D01*
D02*
G37*
G36*
X347382Y255734D02*
X347476Y255727D01*
X347585Y255713D01*
X347708Y255698D01*
X347853Y255676D01*
X348005Y255647D01*
X348172Y255611D01*
X348346Y255568D01*
X348527Y255517D01*
X348723Y255451D01*
X348919Y255379D01*
X349122Y255299D01*
X349332Y255205D01*
X349346Y255198D01*
X349383Y255176D01*
X349441Y255147D01*
X349528Y255103D01*
X349622Y255046D01*
X349738Y254980D01*
X349868Y254901D01*
X350006Y254814D01*
X350151Y254712D01*
X350311Y254603D01*
X350463Y254480D01*
X350623Y254349D01*
X350782Y254212D01*
X350941Y254067D01*
X351086Y253907D01*
X351232Y253741D01*
X351239Y253726D01*
X351268Y253697D01*
X351304Y253639D01*
X351355Y253559D01*
X351420Y253465D01*
X351485Y253349D01*
X351565Y253219D01*
X351638Y253074D01*
X351710Y252914D01*
X351790Y252740D01*
X351855Y252559D01*
X351913Y252370D01*
X351971Y252167D01*
X352007Y251957D01*
X352036Y251740D01*
X352044Y251522D01*
Y251515D01*
Y251486D01*
Y251442D01*
X352036Y251384D01*
Y251305D01*
X352022Y251218D01*
X352014Y251116D01*
X352000Y251000D01*
X351986D01*
X351942Y251014D01*
X351877Y251022D01*
X351782Y251044D01*
X351666Y251065D01*
X351521Y251094D01*
X351369Y251123D01*
X351188Y251160D01*
X350992Y251196D01*
X350782Y251239D01*
X350557Y251283D01*
X350325Y251326D01*
X350072Y251377D01*
X349818Y251428D01*
X349550Y251479D01*
X349281Y251529D01*
X348730Y251631D01*
X348165Y251740D01*
X347606Y251841D01*
X347338Y251892D01*
X347070Y251935D01*
X346816Y251979D01*
X346563Y252022D01*
X346330Y252066D01*
X346098Y252102D01*
X345888Y252138D01*
X345692Y252167D01*
X345511Y252196D01*
X345352Y252218D01*
Y252225D01*
Y252240D01*
X345344Y252261D01*
X345337Y252291D01*
X345323Y252370D01*
X345308Y252472D01*
X345286Y252595D01*
X345265Y252733D01*
X345236Y252878D01*
X345214Y253030D01*
Y253037D01*
Y253052D01*
X345207Y253074D01*
X345199Y253102D01*
Y253139D01*
X345192Y253182D01*
X345178Y253298D01*
X345163Y253429D01*
X345156Y253581D01*
X345142Y253741D01*
Y253914D01*
Y253922D01*
Y253936D01*
Y253958D01*
Y253994D01*
X345149Y254038D01*
Y254081D01*
X345163Y254197D01*
X345178Y254328D01*
X345207Y254466D01*
X345250Y254603D01*
X345301Y254741D01*
Y254748D01*
X345308Y254755D01*
X345330Y254799D01*
X345366Y254864D01*
X345417Y254944D01*
X345482Y255038D01*
X345555Y255133D01*
X345642Y255234D01*
X345743Y255321D01*
X345750Y255328D01*
X345765Y255343D01*
X345801Y255357D01*
X345845Y255386D01*
X345896Y255415D01*
X345961Y255451D01*
X346041Y255495D01*
X346128Y255531D01*
X346229Y255568D01*
X346338Y255611D01*
X346461Y255647D01*
X346591Y255676D01*
X346729Y255705D01*
X346882Y255727D01*
X347041Y255734D01*
X347208Y255742D01*
X347309D01*
X347382Y255734D01*
D02*
G37*
G36*
X348303Y258388D02*
X348346Y258381D01*
X348404Y258366D01*
X348477Y258351D01*
X348556Y258330D01*
X348651Y258315D01*
X348759Y258294D01*
X348875Y258272D01*
X348991Y258243D01*
X349252Y258192D01*
X349528Y258141D01*
X349811Y258090D01*
X349803Y257619D01*
Y257612D01*
Y257597D01*
Y257569D01*
Y257532D01*
X349796Y257445D01*
X349789Y257344D01*
X349839D01*
X349876Y257336D01*
X349926D01*
X349985Y257329D01*
X350050Y257322D01*
X350115Y257315D01*
X350282Y257300D01*
X350470Y257271D01*
X350673Y257242D01*
X350884Y257199D01*
X350949Y256082D01*
X350941D01*
X350927Y256089D01*
X350905Y256097D01*
X350876Y256104D01*
X350833Y256111D01*
X350782Y256126D01*
X350724Y256140D01*
X350652Y256155D01*
X350579Y256169D01*
X350492Y256191D01*
X350398Y256213D01*
X350296Y256235D01*
X350180Y256256D01*
X350064Y256278D01*
X349941Y256307D01*
X349803Y256329D01*
Y255575D01*
X349767D01*
X349716Y255582D01*
X349658Y255589D01*
X349586Y255596D01*
X349499Y255604D01*
X349405Y255611D01*
X349303Y255618D01*
X349085Y255640D01*
X348846Y255669D01*
X348622Y255698D01*
X348505Y255720D01*
X348404Y255734D01*
Y255828D01*
Y255836D01*
Y255850D01*
Y255872D01*
Y255901D01*
Y255981D01*
X348397Y256082D01*
Y256206D01*
X348382Y256336D01*
X348375Y256467D01*
X348360Y256597D01*
X348353D01*
X348324Y256604D01*
X348288D01*
X348245Y256611D01*
X348186Y256619D01*
X348121Y256626D01*
X347998Y256648D01*
X347991D01*
X347969Y256655D01*
X347933Y256662D01*
X347889Y256669D01*
X347838Y256677D01*
X347780Y256691D01*
X347643Y256713D01*
X347636D01*
X347614Y256720D01*
X347570Y256728D01*
X347527Y256735D01*
X347469Y256749D01*
X347411Y256756D01*
X347280Y256785D01*
Y256793D01*
Y256822D01*
X347273Y256865D01*
Y256923D01*
X347266Y256989D01*
X347258Y257068D01*
X347251Y257148D01*
X347244Y257242D01*
X347230Y257431D01*
X347215Y257619D01*
X347200Y257706D01*
X347193Y257786D01*
X347186Y257858D01*
X347179Y257924D01*
X347186D01*
X347208Y257916D01*
X347244Y257909D01*
X347295Y257895D01*
X347353Y257880D01*
X347418Y257866D01*
X347570Y257829D01*
X347578D01*
X347606Y257822D01*
X347643Y257815D01*
X347693Y257801D01*
X347759Y257786D01*
X347824Y257771D01*
X347969Y257735D01*
X347976D01*
X347998Y257728D01*
X348042Y257721D01*
X348085Y257706D01*
X348143Y257692D01*
X348208Y257677D01*
X348353Y257648D01*
Y257656D01*
Y257670D01*
X348346Y257699D01*
Y257735D01*
X348339Y257822D01*
X348324Y257916D01*
Y257924D01*
X348317Y257938D01*
Y257967D01*
X348310Y257996D01*
X348303Y258076D01*
X348295Y258170D01*
Y258177D01*
Y258192D01*
X348288Y258214D01*
Y258243D01*
X348281Y258315D01*
X348266Y258395D01*
X348273D01*
X348303Y258388D01*
D02*
G37*
%LPC*%
G36*
X234625Y237793D02*
Y237778D01*
X234617Y237735D01*
X234603Y237662D01*
X234581Y237568D01*
X234566Y237452D01*
X234538Y237321D01*
X234508Y237169D01*
X234479Y237002D01*
X234451Y236821D01*
X234414Y236633D01*
X234378Y236437D01*
X234342Y236241D01*
X234262Y235835D01*
X234190Y235437D01*
X234197D01*
X234204Y235444D01*
X234247Y235458D01*
X234313Y235487D01*
X234392Y235538D01*
X234487Y235603D01*
X234588Y235698D01*
X234646Y235755D01*
X234697Y235821D01*
X234755Y235893D01*
X234806Y235973D01*
X234813Y235980D01*
X234820Y235995D01*
X234835Y236024D01*
X234857Y236060D01*
X234878Y236104D01*
X234907Y236161D01*
X234936Y236227D01*
X234965Y236299D01*
X234994Y236379D01*
X235016Y236466D01*
X235067Y236654D01*
X235103Y236865D01*
X235118Y236974D01*
Y237089D01*
Y237097D01*
Y237104D01*
Y237147D01*
X235110Y237206D01*
X235096Y237285D01*
X235081Y237372D01*
X235052Y237459D01*
X235009Y237539D01*
X234958Y237612D01*
X234951Y237619D01*
X234929Y237641D01*
X234900Y237669D01*
X234857Y237706D01*
X234813Y237735D01*
X234755Y237764D01*
X234690Y237786D01*
X234625Y237793D01*
D02*
G37*
G36*
X255150Y372294D02*
X255099D01*
X255048Y372287D01*
X254983Y372273D01*
X254910Y372244D01*
X254831Y372215D01*
X254751Y372164D01*
X254671Y372099D01*
X254664Y372092D01*
X254642Y372062D01*
X254606Y372019D01*
X254570Y371954D01*
X254534Y371867D01*
X254497Y371765D01*
X254475Y371642D01*
X254468Y371497D01*
X254475D01*
X254504Y371490D01*
X254548Y371482D01*
X254606Y371468D01*
X254679Y371453D01*
X254766Y371439D01*
X254867Y371417D01*
X254976Y371395D01*
X255099Y371367D01*
X255229Y371338D01*
X255367Y371308D01*
X255520Y371280D01*
X255831Y371214D01*
X256165Y371142D01*
X256172D01*
X256179Y371134D01*
X256201D01*
X256230Y371127D01*
X256274Y371120D01*
X256317Y371113D01*
X256426Y371084D01*
X256556Y371055D01*
X256716Y371026D01*
X256890Y370989D01*
X257078Y370946D01*
X257289Y370902D01*
X257506Y370859D01*
X257731Y370815D01*
X257956Y370772D01*
X258419Y370685D01*
X258644Y370641D01*
X258869Y370605D01*
X258862Y370613D01*
X258847Y370634D01*
X258825Y370671D01*
X258782Y370714D01*
X258731Y370772D01*
X258666Y370837D01*
X258594Y370910D01*
X258499Y370997D01*
X258390Y371084D01*
X258267Y371178D01*
X258130Y371272D01*
X257970Y371374D01*
X257796Y371482D01*
X257600Y371584D01*
X257383Y371686D01*
X257151Y371787D01*
X257143Y371794D01*
X257122Y371801D01*
X257078Y371816D01*
X257028Y371838D01*
X256969Y371860D01*
X256897Y371888D01*
X256817Y371918D01*
X256723Y371954D01*
X256535Y372019D01*
X256331Y372084D01*
X256129Y372149D01*
X255933Y372193D01*
X255925D01*
X255911Y372200D01*
X255882D01*
X255853Y372207D01*
X255809Y372215D01*
X255759Y372222D01*
X255650Y372244D01*
X255520Y372266D01*
X255389Y372280D01*
X255266Y372287D01*
X255150Y372294D01*
D02*
G37*
G36*
X248225Y237053D02*
X248175D01*
X248131Y237046D01*
X248080Y237039D01*
X248023Y237024D01*
X247892Y236988D01*
X247812Y236959D01*
X247732Y236915D01*
X247653Y236872D01*
X247566Y236821D01*
X247479Y236756D01*
X247392Y236684D01*
X247305Y236596D01*
X247218Y236502D01*
X247211Y236495D01*
X247203Y236480D01*
X247182Y236459D01*
X247160Y236422D01*
X247131Y236379D01*
X247094Y236321D01*
X247051Y236256D01*
X247007Y236183D01*
X246964Y236104D01*
X246913Y236017D01*
X246863Y235915D01*
X246812Y235806D01*
X246754Y235690D01*
X246703Y235567D01*
X246652Y235437D01*
X246602Y235299D01*
Y235292D01*
X246594Y235270D01*
X246580Y235241D01*
X246572Y235190D01*
X246558Y235139D01*
X246536Y235074D01*
X246522Y235001D01*
X246500Y234922D01*
X246464Y234740D01*
X246427Y234538D01*
X246406Y234334D01*
X246398Y234124D01*
Y234117D01*
Y234110D01*
X246406Y234066D01*
X246413Y234001D01*
X246435Y233921D01*
X246478Y233834D01*
X246529Y233740D01*
X246609Y233653D01*
X246652Y233610D01*
X246710Y233573D01*
X246718D01*
X246725Y233566D01*
X246746Y233552D01*
X246776Y233544D01*
X246841Y233515D01*
X246928Y233508D01*
X246971D01*
X247000Y233515D01*
X247080Y233523D01*
X247182Y233544D01*
X247298Y233580D01*
X247421Y233631D01*
X247551Y233704D01*
X247674Y233798D01*
X247682D01*
X247689Y233812D01*
X247732Y233849D01*
X247791Y233914D01*
X247863Y233994D01*
X247950Y234103D01*
X248044Y234219D01*
X248131Y234356D01*
X248218Y234508D01*
Y234516D01*
X248225Y234530D01*
X248240Y234552D01*
X248254Y234581D01*
X248269Y234625D01*
X248291Y234668D01*
X248341Y234784D01*
X248392Y234914D01*
X248450Y235074D01*
X248501Y235241D01*
X248552Y235415D01*
Y235422D01*
X248559Y235437D01*
X248566Y235458D01*
X248573Y235494D01*
X248581Y235538D01*
X248588Y235589D01*
X248610Y235705D01*
X248632Y235842D01*
X248653Y235987D01*
X248660Y236140D01*
X248668Y236292D01*
Y236299D01*
Y236328D01*
Y236365D01*
X248660Y236408D01*
X248653Y236466D01*
X248646Y236531D01*
X248610Y236676D01*
X248559Y236814D01*
X248523Y236879D01*
X248479Y236937D01*
X248429Y236981D01*
X248371Y237024D01*
X248305Y237046D01*
X248225Y237053D01*
D02*
G37*
G36*
X338094Y358647D02*
X338051D01*
X338007Y358638D01*
X337937D01*
X337859Y358629D01*
X337763Y358612D01*
X337650Y358586D01*
X337537Y358560D01*
X337415Y358525D01*
X337285Y358473D01*
X337146Y358421D01*
X337006Y358351D01*
X336867Y358273D01*
X336728Y358177D01*
X336589Y358064D01*
X336458Y357942D01*
X336450Y357933D01*
X336432Y357907D01*
X336398Y357873D01*
X336345Y357820D01*
X336293Y357751D01*
X336232Y357672D01*
X336171Y357577D01*
X336110Y357472D01*
X336041Y357359D01*
X335980Y357237D01*
X335919Y357098D01*
X335867Y356959D01*
X335823Y356802D01*
X335788Y356646D01*
X335762Y356481D01*
X335754Y356307D01*
X338094D01*
Y358647D01*
D02*
G37*
G36*
X356077D02*
X356033D01*
X355990Y358638D01*
X355920D01*
X355842Y358629D01*
X355746Y358612D01*
X355633Y358586D01*
X355520Y358560D01*
X355398Y358525D01*
X355268Y358473D01*
X355129Y358421D01*
X354989Y358351D01*
X354850Y358273D01*
X354711Y358177D01*
X354572Y358064D01*
X354441Y357942D01*
X354433Y357933D01*
X354415Y357907D01*
X354380Y357873D01*
X354328Y357820D01*
X354276Y357751D01*
X354215Y357672D01*
X354154Y357577D01*
X354093Y357472D01*
X354024Y357359D01*
X353963Y357237D01*
X353902Y357098D01*
X353850Y356959D01*
X353806Y356802D01*
X353771Y356646D01*
X353745Y356481D01*
X353737Y356307D01*
X356077D01*
Y358647D01*
D02*
G37*
G36*
X347150Y303919D02*
X347099D01*
X347048Y303912D01*
X346983Y303897D01*
X346911Y303868D01*
X346831Y303839D01*
X346751Y303788D01*
X346671Y303723D01*
X346664Y303716D01*
X346642Y303687D01*
X346606Y303643D01*
X346570Y303578D01*
X346533Y303491D01*
X346497Y303390D01*
X346476Y303267D01*
X346468Y303121D01*
X346476D01*
X346504Y303114D01*
X346548Y303107D01*
X346606Y303093D01*
X346678Y303078D01*
X346765Y303064D01*
X346867Y303042D01*
X346976Y303020D01*
X347099Y302991D01*
X347230Y302962D01*
X347367Y302933D01*
X347519Y302904D01*
X347831Y302839D01*
X348165Y302766D01*
X348172D01*
X348179Y302759D01*
X348201D01*
X348230Y302752D01*
X348273Y302745D01*
X348317Y302737D01*
X348426Y302708D01*
X348556Y302679D01*
X348716Y302650D01*
X348890Y302614D01*
X349078Y302571D01*
X349289Y302527D01*
X349506Y302484D01*
X349731Y302440D01*
X349956Y302396D01*
X350419Y302309D01*
X350644Y302266D01*
X350869Y302230D01*
X350862Y302237D01*
X350847Y302259D01*
X350826Y302295D01*
X350782Y302339D01*
X350731Y302396D01*
X350666Y302462D01*
X350593Y302534D01*
X350499Y302621D01*
X350391Y302708D01*
X350267Y302802D01*
X350130Y302897D01*
X349970Y302998D01*
X349796Y303107D01*
X349600Y303208D01*
X349383Y303310D01*
X349151Y303412D01*
X349144Y303419D01*
X349122Y303426D01*
X349078Y303440D01*
X349027Y303462D01*
X348970Y303484D01*
X348897Y303513D01*
X348817Y303542D01*
X348723Y303578D01*
X348534Y303643D01*
X348331Y303709D01*
X348129Y303774D01*
X347933Y303818D01*
X347925D01*
X347911Y303825D01*
X347882D01*
X347853Y303832D01*
X347810Y303839D01*
X347759Y303847D01*
X347650Y303868D01*
X347519Y303890D01*
X347389Y303905D01*
X347266Y303912D01*
X347150Y303919D01*
D02*
G37*
G36*
Y254328D02*
X347099D01*
X347048Y254321D01*
X346983Y254306D01*
X346911Y254277D01*
X346831Y254248D01*
X346751Y254197D01*
X346671Y254132D01*
X346664Y254125D01*
X346642Y254096D01*
X346606Y254052D01*
X346570Y253987D01*
X346533Y253900D01*
X346497Y253799D01*
X346476Y253675D01*
X346468Y253530D01*
X346476D01*
X346504Y253523D01*
X346548Y253516D01*
X346606Y253501D01*
X346678Y253487D01*
X346765Y253472D01*
X346867Y253450D01*
X346976Y253429D01*
X347099Y253400D01*
X347230Y253371D01*
X347367Y253342D01*
X347519Y253313D01*
X347831Y253247D01*
X348165Y253175D01*
X348172D01*
X348179Y253168D01*
X348201D01*
X348230Y253161D01*
X348273Y253153D01*
X348317Y253146D01*
X348426Y253117D01*
X348556Y253088D01*
X348716Y253059D01*
X348890Y253023D01*
X349078Y252979D01*
X349289Y252936D01*
X349506Y252892D01*
X349731Y252849D01*
X349956Y252805D01*
X350419Y252718D01*
X350644Y252675D01*
X350869Y252639D01*
X350862Y252646D01*
X350847Y252667D01*
X350826Y252704D01*
X350782Y252747D01*
X350731Y252805D01*
X350666Y252870D01*
X350593Y252943D01*
X350499Y253030D01*
X350391Y253117D01*
X350267Y253211D01*
X350130Y253306D01*
X349970Y253407D01*
X349796Y253516D01*
X349600Y253617D01*
X349383Y253719D01*
X349151Y253820D01*
X349144Y253828D01*
X349122Y253835D01*
X349078Y253849D01*
X349027Y253871D01*
X348970Y253893D01*
X348897Y253922D01*
X348817Y253951D01*
X348723Y253987D01*
X348534Y254052D01*
X348331Y254117D01*
X348129Y254183D01*
X347933Y254226D01*
X347925D01*
X347911Y254234D01*
X347882D01*
X347853Y254241D01*
X347810Y254248D01*
X347759Y254255D01*
X347650Y254277D01*
X347519Y254299D01*
X347389Y254313D01*
X347266Y254321D01*
X347150Y254328D01*
D02*
G37*
%LPD*%
D24*
X280808Y224500D02*
G03*
X280808Y224500I-10308J0D01*
G01*
X316308D02*
G03*
X316308Y224500I-10308J0D01*
G01*
X351808D02*
G03*
X351808Y224500I-10308J0D01*
G01*
X352752Y245130D02*
Y323870D01*
X384248Y245130D02*
Y323870D01*
X352752D02*
X384248D01*
X352752Y245130D02*
X384248D01*
X290450Y340750D02*
X296550D01*
X290450Y326250D02*
X296550D01*
X320500Y352500D02*
X324915Y360778D01*
X369000Y360500D02*
X373415Y352221D01*
X255500Y263000D02*
X256500Y262000D01*
X254752Y208752D02*
Y240248D01*
Y208752D02*
X286248D01*
Y240248D01*
X254752D02*
X286248D01*
X290252Y208752D02*
Y240248D01*
Y208752D02*
X321748D01*
Y240248D01*
X290252D02*
X321748D01*
X325752Y208752D02*
Y240248D01*
Y208752D02*
X357248D01*
Y240248D01*
X325752D02*
X357248D01*
X368000Y234999D02*
Y232000D01*
X369499D01*
X369999Y232500D01*
Y234499D01*
X369499Y234999D01*
X368000D01*
X372998Y234499D02*
X372498Y234999D01*
X371499D01*
X370999Y234499D01*
Y233999D01*
X371499Y233500D01*
X372498D01*
X372998Y233000D01*
Y232500D01*
X372498Y232000D01*
X371499D01*
X370999Y232500D01*
X375997Y232000D02*
X373998D01*
X375997Y233999D01*
Y234499D01*
X375498Y234999D01*
X374498D01*
X373998Y234499D01*
X342000Y285999D02*
Y283000D01*
X343499D01*
X343999Y283500D01*
Y285499D01*
X343499Y285999D01*
X342000D01*
X344999Y283000D02*
X345999D01*
X345499D01*
Y285999D01*
X344999Y285499D01*
X377002Y368999D02*
X376002Y367999D01*
Y366000D01*
X377002Y365000D01*
X381000D01*
X382000Y366000D01*
Y367999D01*
X381000Y368999D01*
X382000Y370998D02*
Y372997D01*
Y371998D01*
X376002D01*
X377002Y370998D01*
X361000Y325000D02*
Y328999D01*
X362999D01*
X363666Y328332D01*
Y326999D01*
X362999Y326333D01*
X361000D01*
X367665Y328999D02*
X364999D01*
Y326999D01*
X366332Y327666D01*
X366998D01*
X367665Y326999D01*
Y325666D01*
X366998Y325000D01*
X365665D01*
X364999Y325666D01*
X259499Y288999D02*
X258999Y289499D01*
X258000D01*
X257500Y288999D01*
Y287000D01*
X258000Y286500D01*
X258999D01*
X259499Y287000D01*
X262498Y289499D02*
X260499D01*
Y288000D01*
X261499Y288499D01*
X261999D01*
X262498Y288000D01*
Y287000D01*
X261999Y286500D01*
X260999D01*
X260499Y287000D01*
X307500Y344999D02*
Y344499D01*
X308500Y343499D01*
X309499Y344499D01*
Y344999D01*
X308500Y343499D02*
Y342000D01*
X310499D02*
X311499D01*
X310999D01*
Y344999D01*
X310499Y344499D01*
X262501Y308500D02*
X265000D01*
X265500Y309000D01*
Y309999D01*
X265000Y310499D01*
X262501D01*
X263001Y311499D02*
X262501Y311999D01*
Y312999D01*
X263001Y313498D01*
X263501D01*
X264001Y312999D01*
Y312499D01*
Y312999D01*
X264500Y313498D01*
X265000D01*
X265500Y312999D01*
Y311999D01*
X265000Y311499D01*
X258001Y320500D02*
X260500D01*
X261000Y321000D01*
Y322000D01*
X260500Y322499D01*
X258001D01*
X261000Y324998D02*
X258001D01*
X259501Y323499D01*
Y325498D01*
X325276Y327999D02*
Y325500D01*
X325775Y325000D01*
X326775D01*
X327275Y325500D01*
Y327999D01*
X328275Y325000D02*
X329274D01*
X328774D01*
Y327999D01*
X328275Y327499D01*
X276000Y247999D02*
Y245500D01*
X276500Y245000D01*
X277500D01*
X277999Y245500D01*
Y247999D01*
X280998Y245000D02*
X278999D01*
X280998Y246999D01*
Y247499D01*
X280499Y247999D01*
X279499D01*
X278999Y247499D01*
X238000Y275000D02*
X235001D01*
Y276500D01*
X235501Y276999D01*
X236501D01*
X237000Y276500D01*
Y275000D01*
Y276000D02*
X238000Y276999D01*
Y279998D02*
Y277999D01*
X236001Y279998D01*
X235501D01*
X235001Y279499D01*
Y278499D01*
X235501Y277999D01*
X265000Y278500D02*
Y281499D01*
X266499D01*
X266999Y280999D01*
Y279999D01*
X266499Y279500D01*
X265000D01*
X266000D02*
X266999Y278500D01*
X267999D02*
X268999D01*
X268499D01*
Y281499D01*
X267999Y280999D01*
X238000Y265000D02*
X235001D01*
Y266499D01*
X235501Y266999D01*
X236501D01*
X237000Y266499D01*
Y265000D01*
Y266000D02*
X238000Y266999D01*
X235001Y269998D02*
X235501Y268999D01*
X236501Y267999D01*
X237500D01*
X238000Y268499D01*
Y269498D01*
X237500Y269998D01*
X237000D01*
X236501Y269498D01*
Y267999D01*
X248000Y241000D02*
Y243999D01*
X249500D01*
X249999Y243499D01*
Y242499D01*
X249500Y242000D01*
X248000D01*
X249000D02*
X249999Y241000D01*
X252998Y243999D02*
X250999D01*
Y242499D01*
X251999Y242999D01*
X252499D01*
X252998Y242499D01*
Y241500D01*
X252499Y241000D01*
X251499D01*
X250999Y241500D01*
X241000Y291000D02*
Y293999D01*
X242499D01*
X242999Y293499D01*
Y292499D01*
X242499Y292000D01*
X241000D01*
X242000D02*
X242999Y291000D01*
X243999Y293499D02*
X244499Y293999D01*
X245498D01*
X245998Y293499D01*
Y292999D01*
X245498Y292499D01*
X244999D01*
X245498D01*
X245998Y292000D01*
Y291500D01*
X245498Y291000D01*
X244499D01*
X243999Y291500D01*
X327000Y290000D02*
X324001D01*
Y291499D01*
X324501Y291999D01*
X325500D01*
X326000Y291499D01*
Y290000D01*
Y291000D02*
X327000Y291999D01*
Y294498D02*
X324001D01*
X325500Y292999D01*
Y294998D01*
X326000Y259000D02*
Y261999D01*
X327500D01*
X327999Y261499D01*
Y260500D01*
X327500Y260000D01*
X326000D01*
X327000D02*
X327999Y259000D01*
X328999Y261499D02*
X329499Y261999D01*
X330499D01*
X330998Y261499D01*
Y260999D01*
X330499Y260500D01*
X330998Y260000D01*
Y259500D01*
X330499Y259000D01*
X329499D01*
X328999Y259500D01*
Y260000D01*
X329499Y260500D01*
X328999Y260999D01*
Y261499D01*
X329499Y260500D02*
X330499D01*
X337000Y249000D02*
X334001D01*
Y250500D01*
X334501Y250999D01*
X335501D01*
X336000Y250500D01*
Y249000D01*
Y250000D02*
X337000Y250999D01*
X334001Y251999D02*
Y253998D01*
X334501D01*
X336500Y251999D01*
X337000D01*
X310000Y286000D02*
X307001D01*
Y287499D01*
X307501Y287999D01*
X308501D01*
X309000Y287499D01*
Y286000D01*
Y287000D02*
X310000Y287999D01*
Y288999D02*
Y289999D01*
Y289499D01*
X307001D01*
X307501Y288999D01*
Y291498D02*
X307001Y291998D01*
Y292998D01*
X307501Y293498D01*
X309500D01*
X310000Y292998D01*
Y291998D01*
X309500Y291498D01*
X307501D01*
X324500Y286000D02*
Y288999D01*
X325999D01*
X326499Y288499D01*
Y287499D01*
X325999Y287000D01*
X324500D01*
X325500D02*
X326499Y286000D01*
X327499Y286500D02*
X327999Y286000D01*
X328998D01*
X329498Y286500D01*
Y288499D01*
X328998Y288999D01*
X327999D01*
X327499Y288499D01*
Y287999D01*
X327999Y287499D01*
X329498D01*
X273499Y358000D02*
Y359999D01*
X273000Y360499D01*
X272000D01*
X271500Y359999D01*
Y358000D01*
X272000Y357500D01*
X273000D01*
X272500Y358500D02*
X273499Y357500D01*
X273000D02*
X273499Y358000D01*
X274499Y357500D02*
X275499D01*
X274999D01*
Y360499D01*
X274499Y359999D01*
X288499Y358500D02*
Y360499D01*
X288000Y360999D01*
X287000D01*
X286500Y360499D01*
Y358500D01*
X287000Y358000D01*
X288000D01*
X287500Y359000D02*
X288499Y358000D01*
X288000D02*
X288499Y358500D01*
X291498Y358000D02*
X289499D01*
X291498Y359999D01*
Y360499D01*
X290999Y360999D01*
X289999D01*
X289499Y360499D01*
X303999Y358500D02*
Y360499D01*
X303500Y360999D01*
X302500D01*
X302000Y360499D01*
Y358500D01*
X302500Y358000D01*
X303500D01*
X303000Y359000D02*
X303999Y358000D01*
X303500D02*
X303999Y358500D01*
X304999Y360499D02*
X305499Y360999D01*
X306499D01*
X306998Y360499D01*
Y359999D01*
X306499Y359500D01*
X305999D01*
X306499D01*
X306998Y359000D01*
Y358500D01*
X306499Y358000D01*
X305499D01*
X304999Y358500D01*
X268000Y241000D02*
Y243999D01*
X269499D01*
X269999Y243499D01*
Y242499D01*
X269499Y242000D01*
X268000D01*
X272998Y241000D02*
X270999D01*
X272998Y242999D01*
Y243499D01*
X272498Y243999D01*
X271499D01*
X270999Y243499D01*
X252000Y364000D02*
X249001D01*
Y365499D01*
X249501Y365999D01*
X250500D01*
X251000Y365499D01*
Y364000D01*
X252000Y366999D02*
Y367999D01*
Y367499D01*
X249001D01*
X249501Y366999D01*
X291000Y241000D02*
X288001D01*
Y242499D01*
X288501Y242999D01*
X289500D01*
X290000Y242499D01*
Y241000D01*
X288501Y243999D02*
X288001Y244499D01*
Y245498D01*
X288501Y245998D01*
X289001D01*
X289500Y245498D01*
Y244999D01*
Y245498D01*
X290000Y245998D01*
X290500D01*
X291000Y245498D01*
Y244499D01*
X290500Y243999D01*
X334000Y241000D02*
Y243999D01*
X335500D01*
X335999Y243499D01*
Y242499D01*
X335500Y242000D01*
X334000D01*
X338498Y241000D02*
Y243999D01*
X336999Y242499D01*
X338998D01*
X234000Y310999D02*
Y308000D01*
X235500D01*
X235999Y308500D01*
Y310499D01*
X235500Y310999D01*
X234000D01*
X238998Y310499D02*
X238498Y310999D01*
X237499D01*
X236999Y310499D01*
Y309999D01*
X237499Y309500D01*
X238498D01*
X238998Y309000D01*
Y308500D01*
X238498Y308000D01*
X237499D01*
X236999Y308500D01*
X239998Y308000D02*
X240998D01*
X240498D01*
Y310999D01*
X239998Y310499D01*
X249999Y288999D02*
X249500Y289499D01*
X248500D01*
X248000Y288999D01*
Y287000D01*
X248500Y286500D01*
X249500D01*
X249999Y287000D01*
X250999Y286500D02*
X251999D01*
X251499D01*
Y289499D01*
X250999Y288999D01*
X253498Y289499D02*
X255498D01*
Y288999D01*
X253498Y287000D01*
Y286500D01*
X258499Y260499D02*
X257999Y260999D01*
X257000D01*
X256500Y260499D01*
Y258500D01*
X257000Y258000D01*
X257999D01*
X258499Y258500D01*
X259499Y260499D02*
X259999Y260999D01*
X260999D01*
X261498Y260499D01*
Y259999D01*
X260999Y259500D01*
X261498Y259000D01*
Y258500D01*
X260999Y258000D01*
X259999D01*
X259499Y258500D01*
Y259000D01*
X259999Y259500D01*
X259499Y259999D01*
Y260499D01*
X259999Y259500D02*
X260999D01*
X240001Y256499D02*
X239501Y255999D01*
Y255000D01*
X240001Y254500D01*
X242000D01*
X242500Y255000D01*
Y255999D01*
X242000Y256499D01*
X239501Y257499D02*
Y259498D01*
X240001D01*
X242000Y257499D01*
X242500D01*
X323999Y298999D02*
X323499Y299499D01*
X322500D01*
X322000Y298999D01*
Y297000D01*
X322500Y296500D01*
X323499D01*
X323999Y297000D01*
X324999Y298999D02*
X325499Y299499D01*
X326499D01*
X326998Y298999D01*
Y298499D01*
X326499Y298000D01*
X325999D01*
X326499D01*
X326998Y297500D01*
Y297000D01*
X326499Y296500D01*
X325499D01*
X324999Y297000D01*
X340999Y323999D02*
X340499Y324499D01*
X339500D01*
X339000Y323999D01*
Y322000D01*
X339500Y321500D01*
X340499D01*
X340999Y322000D01*
X343998Y321500D02*
X341999D01*
X343998Y323499D01*
Y323999D01*
X343498Y324499D01*
X342499D01*
X341999Y323999D01*
X251499Y359999D02*
X250999Y360499D01*
X250000D01*
X249500Y359999D01*
Y358000D01*
X250000Y357500D01*
X250999D01*
X251499Y358000D01*
X252499Y357500D02*
X253499D01*
X252999D01*
Y360499D01*
X252499Y359999D01*
X256498Y357500D02*
Y360499D01*
X254998Y358999D01*
X256998D01*
X258501Y330499D02*
X258001Y329999D01*
Y329000D01*
X258501Y328500D01*
X260500D01*
X261000Y329000D01*
Y329999D01*
X260500Y330499D01*
X261000Y331499D02*
Y332499D01*
Y331999D01*
X258001D01*
X258501Y331499D01*
X261000Y333998D02*
Y334998D01*
Y334498D01*
X258001D01*
X258501Y333998D01*
X258799Y280350D02*
X258299Y280849D01*
X257299D01*
X256799Y280350D01*
Y278350D01*
X257299Y277850D01*
X258299D01*
X258799Y278350D01*
X261298Y277850D02*
Y280849D01*
X259798Y279350D01*
X261798D01*
X318499Y334501D02*
X318999Y335000D01*
Y336000D01*
X318499Y336500D01*
X316500D01*
X316000Y336000D01*
Y335000D01*
X316500Y334501D01*
Y333501D02*
X316000Y333001D01*
Y332001D01*
X316500Y331502D01*
X318499D01*
X318999Y332001D01*
Y333001D01*
X318499Y333501D01*
X317999D01*
X317499Y333001D01*
Y331502D01*
X265499Y341499D02*
X265000Y341999D01*
X264000D01*
X263500Y341499D01*
Y339500D01*
X264000Y339000D01*
X265000D01*
X265499Y339500D01*
X266499Y339000D02*
X267499D01*
X266999D01*
Y341999D01*
X266499Y341499D01*
X268998D02*
X269498Y341999D01*
X270498D01*
X270998Y341499D01*
Y339500D01*
X270498Y339000D01*
X269498D01*
X268998Y339500D01*
Y341499D01*
X333999Y298999D02*
X333500Y299499D01*
X332500D01*
X332000Y298999D01*
Y297000D01*
X332500Y296500D01*
X333500D01*
X333999Y297000D01*
X336998Y299499D02*
X335999Y298999D01*
X334999Y298000D01*
Y297000D01*
X335499Y296500D01*
X336498D01*
X336998Y297000D01*
Y297500D01*
X336498Y298000D01*
X334999D01*
X305999Y269499D02*
X305500Y269999D01*
X304500D01*
X304000Y269499D01*
Y267500D01*
X304500Y267000D01*
X305500D01*
X305999Y267500D01*
X306999Y267000D02*
X307999D01*
X307499D01*
Y269999D01*
X306999Y269499D01*
X309498D02*
X309998Y269999D01*
X310998D01*
X311498Y269499D01*
Y268999D01*
X310998Y268499D01*
X310498D01*
X310998D01*
X311498Y268000D01*
Y267500D01*
X310998Y267000D01*
X309998D01*
X309498Y267500D01*
X318999Y244499D02*
X318499Y244999D01*
X317500D01*
X317000Y244499D01*
Y242500D01*
X317500Y242000D01*
X318499D01*
X318999Y242500D01*
X319999Y242000D02*
X320999D01*
X320499D01*
Y244999D01*
X319999Y244499D01*
X324498Y242000D02*
X322498D01*
X324498Y243999D01*
Y244499D01*
X323998Y244999D01*
X322998D01*
X322498Y244499D01*
X315501Y286999D02*
X315001Y286500D01*
Y285500D01*
X315501Y285000D01*
X317500D01*
X318000Y285500D01*
Y286500D01*
X317500Y286999D01*
X318000Y287999D02*
Y288999D01*
Y288499D01*
X315001D01*
X315501Y287999D01*
X315001Y292498D02*
X315501Y291498D01*
X316500Y290498D01*
X317500D01*
X318000Y290998D01*
Y291998D01*
X317500Y292498D01*
X317000D01*
X316500Y291998D01*
Y290498D01*
X326999Y268499D02*
X326500Y268999D01*
X325500D01*
X325000Y268499D01*
Y266500D01*
X325500Y266000D01*
X326500D01*
X326999Y266500D01*
X327999Y266000D02*
X328999D01*
X328499D01*
Y268999D01*
X327999Y268499D01*
X332498Y268999D02*
X330498D01*
Y267499D01*
X331498Y267999D01*
X331998D01*
X332498Y267499D01*
Y266500D01*
X331998Y266000D01*
X330998D01*
X330498Y266500D01*
X263998Y258500D02*
Y261499D01*
X265498D01*
X265998Y260999D01*
Y259999D01*
X265498Y259500D01*
X263998D01*
X264998D02*
X265998Y258500D01*
X266997D02*
X267997D01*
X267497D01*
Y261499D01*
X266997Y260999D01*
X269497Y258500D02*
X270496D01*
X269996D01*
Y261499D01*
X269497Y260999D01*
X304500Y243500D02*
Y246499D01*
X305999D01*
X306499Y245999D01*
Y245000D01*
X305999Y244500D01*
X304500D01*
X305500D02*
X306499Y243500D01*
X307499D02*
X308499D01*
X307999D01*
Y246499D01*
X307499Y245999D01*
X309998D02*
X310498Y246499D01*
X311498D01*
X311998Y245999D01*
Y245499D01*
X311498Y245000D01*
X310998D01*
X311498D01*
X311998Y244500D01*
Y244000D01*
X311498Y243500D01*
X310498D01*
X309998Y244000D01*
X294000Y291000D02*
Y293999D01*
X295499D01*
X295999Y293499D01*
Y292499D01*
X295499Y292000D01*
X294000D01*
X295000D02*
X295999Y291000D01*
X296999D02*
X297999D01*
X297499D01*
Y293999D01*
X296999Y293499D01*
X301498Y293999D02*
X299498D01*
Y292499D01*
X300498Y292999D01*
X300998D01*
X301498Y292499D01*
Y291500D01*
X300998Y291000D01*
X299998D01*
X299498Y291500D01*
X257000Y241000D02*
Y243999D01*
X258500D01*
X258999Y243499D01*
Y242499D01*
X258500Y242000D01*
X257000D01*
X258000D02*
X258999Y241000D01*
X259999D02*
X260999D01*
X260499D01*
Y243999D01*
X259999Y243499D01*
X264498Y241000D02*
X262498D01*
X264498Y242999D01*
Y243499D01*
X263998Y243999D01*
X262998D01*
X262498Y243499D01*
X304000Y262500D02*
Y265499D01*
X305500D01*
X305999Y264999D01*
Y264000D01*
X305500Y263500D01*
X304000D01*
X305000D02*
X305999Y262500D01*
X306999D02*
X307999D01*
X307499D01*
Y265499D01*
X306999Y264999D01*
X310998Y262500D02*
Y265499D01*
X309498Y264000D01*
X311498D01*
X266193Y294256D02*
Y297255D01*
X267692D01*
X268192Y296755D01*
Y295755D01*
X267692Y295256D01*
X266193D01*
X267193D02*
X268192Y294256D01*
X269192D02*
X270192D01*
X269692D01*
Y297255D01*
X269192Y296755D01*
X273691Y297255D02*
X272691Y296755D01*
X271691Y295755D01*
Y294756D01*
X272191Y294256D01*
X273191D01*
X273691Y294756D01*
Y295256D01*
X273191Y295755D01*
X271691D01*
X308100Y326400D02*
Y332398D01*
X311099D01*
X312099Y331398D01*
Y329399D01*
X311099Y328399D01*
X308100D01*
X318097Y332398D02*
X316097Y331398D01*
X314098Y329399D01*
Y327400D01*
X315098Y326400D01*
X317097D01*
X318097Y327400D01*
Y328399D01*
X317097Y329399D01*
X314098D01*
D41*
X363694Y236900D02*
G03*
X364544Y236050I850J0D01*
G01*
Y241950D02*
G03*
X363694Y241100I0J-850D01*
G01*
X375456Y236050D02*
G03*
X376306Y236900I0J850D01*
G01*
Y241100D02*
G03*
X375456Y241950I-850J0D01*
G01*
X239100Y294072D02*
G03*
X239950Y294922I0J850D01*
G01*
X234050D02*
G03*
X234900Y294072I850J0D01*
G01*
X239950Y305834D02*
G03*
X239100Y306684I-850J0D01*
G01*
X234900D02*
G03*
X234050Y305834I0J-850D01*
G01*
X364544Y236050D02*
X375456D01*
X364544Y241950D02*
X375456D01*
X363694Y236900D02*
Y241100D01*
X376306Y236900D02*
Y241100D01*
X234900Y294072D02*
X239100D01*
X234900Y306684D02*
X239100D01*
X239950Y294922D02*
Y305834D01*
X234050Y294922D02*
Y305834D01*
D42*
X344492Y258106D02*
G03*
X344492Y258106I-492J0D01*
G01*
X325768Y322185D02*
G03*
X325768Y322185I-492J0D01*
G01*
X271272Y324870D02*
G03*
X271272Y324870I-492J0D01*
G01*
X235646Y319551D02*
G03*
X235646Y319551I-492J0D01*
G01*
X277346Y286043D02*
G03*
X277346Y286043I-492J0D01*
G01*
D43*
X376500Y356500D02*
G03*
X376500Y356500I-30000J0D01*
G01*
X348626Y279858D02*
X349512D01*
X348626Y262142D02*
X349512D01*
X338488Y279858D02*
X339374D01*
X338488Y262142D02*
X339374D01*
X349512D02*
Y279858D01*
X338488Y262142D02*
Y279858D01*
X262500Y362500D02*
Y372500D01*
X302500D01*
X262500Y362500D02*
X302500D01*
Y372500D01*
X314736Y277303D02*
Y277697D01*
X319264Y277303D02*
Y277697D01*
X285846Y356921D02*
X287618D01*
X277382D02*
X279153D01*
X277382Y350524D02*
Y356921D01*
X287618Y350524D02*
Y356921D01*
X270847D02*
X272618D01*
X262382D02*
X264154D01*
X262382Y350524D02*
Y356921D01*
X272618Y350524D02*
Y356921D01*
X343614Y314803D02*
Y315197D01*
X339087Y314803D02*
Y315197D01*
X338803Y306264D02*
X339197D01*
X338803Y301736D02*
X339197D01*
X324303Y306264D02*
X324697D01*
X324303Y301736D02*
X324697D01*
X252236Y349803D02*
Y350197D01*
X256764Y349803D02*
Y350197D01*
X313264Y333803D02*
Y334197D01*
X308736Y333803D02*
Y334197D01*
X273736Y333803D02*
Y334197D01*
X278264Y333803D02*
Y334197D01*
X263736Y331303D02*
Y331697D01*
X268264Y331303D02*
Y331697D01*
X317803Y267264D02*
X318197D01*
X317803Y262736D02*
X318197D01*
X317803Y246736D02*
X318197D01*
X317803Y251264D02*
X318197D01*
X256736Y271303D02*
Y271697D01*
X261264Y271303D02*
Y271697D01*
X254264Y279803D02*
Y280197D01*
X249736Y279803D02*
Y280197D01*
X248803Y259264D02*
X249197D01*
X248803Y254736D02*
X249197D01*
X249736Y266803D02*
Y267197D01*
X254264Y266803D02*
Y267197D01*
X328803Y270736D02*
X329197D01*
X328803Y275264D02*
X329197D01*
X301346Y356921D02*
X303118D01*
X292882D02*
X294654D01*
X292882Y350524D02*
Y356921D01*
X303118Y350524D02*
Y356921D01*
X328622Y321102D02*
X331378D01*
X328622Y308898D02*
X331378D01*
X328622D02*
Y321102D01*
X331378Y308898D02*
Y321102D01*
X275701Y297508D02*
X288299D01*
X275701Y323492D02*
X288299D01*
Y297508D02*
Y323492D01*
X275701Y297508D02*
Y323492D01*
X269862Y270803D02*
Y271197D01*
X265138Y270803D02*
Y271197D01*
X240638Y279803D02*
Y280197D01*
X245362Y279803D02*
Y280197D01*
X247373Y301476D02*
Y301870D01*
X242648Y301476D02*
Y301870D01*
X334803Y289638D02*
X335197D01*
X334803Y294362D02*
X335197D01*
X248803Y246138D02*
X249197D01*
X248803Y250862D02*
X249197D01*
X245362Y266803D02*
Y267197D01*
X240638Y266803D02*
Y267197D01*
X331862Y251303D02*
Y251697D01*
X327138Y251303D02*
Y251697D01*
X317803Y255138D02*
X318197D01*
X317803Y259862D02*
X318197D01*
X327803Y283362D02*
X328197D01*
X327803Y278638D02*
X328197D01*
X310362Y277303D02*
Y277697D01*
X305638Y277303D02*
Y277697D01*
X269862Y250957D02*
Y251350D01*
X265138Y250957D02*
Y251350D01*
X257638Y251303D02*
Y251697D01*
X262362Y251303D02*
Y251697D01*
X297303Y242638D02*
X297697D01*
X297303Y247362D02*
X297697D01*
X305638Y254803D02*
Y255197D01*
X310362Y254803D02*
Y255197D01*
X286303Y292862D02*
X286697D01*
X286303Y288138D02*
X286697D01*
X272803Y292862D02*
X273197D01*
X272803Y288138D02*
X273197D01*
X307500Y293000D02*
X317500D01*
X307500D02*
Y323000D01*
X317500D01*
Y293000D02*
Y323000D01*
X259803Y295264D02*
X260197D01*
X259803Y290736D02*
X260197D01*
X236157Y325457D02*
X255842D01*
X236157Y332543D02*
X255842D01*
X236157Y325457D02*
Y332543D01*
X255842Y325457D02*
Y332543D01*
X283350Y250374D02*
X289650D01*
X283350Y284626D02*
X289650D01*
Y250374D02*
Y284626D01*
X283350Y250374D02*
Y284626D01*
D44*
X280819Y319555D02*
G03*
X280819Y319555I-1181J0D01*
G01*
D45*
X240094Y328606D02*
G03*
X240094Y328606I-787J0D01*
G01*
D46*
X355048Y369000D02*
Y372936D01*
X353080Y370968D02*
X357016D01*
D47*
X375736Y236015D02*
D03*
D48*
X376866Y239000D02*
D03*
D49*
X375866Y242025D02*
D03*
D50*
X381295Y284500D02*
D03*
D51*
X240025Y294512D02*
D03*
D52*
X237000Y293512D02*
D03*
D53*
X234015Y294641D02*
D03*
M02*
