%FSLAX25Y25*%
%MOIN*%
G70*
G01*
G75*
G04 Layer_Physical_Order=2*
G04 Layer_Color=16711680*
%ADD10C,0.05906*%
%ADD11R,0.03937X0.03937*%
%ADD12R,0.06102X0.09449*%
%ADD13R,0.05315X0.03740*%
%ADD14R,0.03543X0.03740*%
%ADD15R,0.03740X0.05315*%
%ADD16R,0.03937X0.03937*%
%ADD17R,0.03543X0.02559*%
%ADD18O,0.06693X0.01378*%
%ADD19R,0.06300X0.05500*%
%ADD20R,0.05512X0.04134*%
%ADD21R,0.04134X0.05512*%
%ADD22R,0.02000X0.02000*%
%ADD23O,0.02362X0.08661*%
%ADD24O,0.09843X0.02756*%
%ADD25C,0.03200*%
%ADD26C,0.01000*%
%ADD27C,0.01600*%
%ADD28C,0.02000*%
%ADD29C,0.01400*%
%ADD30C,0.02800*%
%ADD31C,0.10000*%
%ADD32R,0.05906X0.05906*%
%ADD33C,0.07874*%
%ADD34R,0.07874X0.07874*%
%ADD35O,0.09843X0.06693*%
%ADD36O,0.07480X0.10236*%
%ADD37R,0.07480X0.10236*%
%ADD38C,0.03150*%
%ADD39C,0.02400*%
%ADD40C,0.03000*%
%ADD41C,0.05000*%
%ADD42C,0.03400*%
%ADD43P,0.02828X4X270.0*%
G36*
X275951Y291350D02*
Y275000D01*
X276145Y274025D01*
X276698Y273198D01*
X278302Y271593D01*
X278111Y271131D01*
X276004D01*
X265635Y281500D01*
X267572Y283437D01*
X268070Y283388D01*
X268198Y283198D01*
X269024Y282645D01*
X269500Y282551D01*
Y285000D01*
X270000D01*
Y285500D01*
X272449D01*
X272355Y285976D01*
X271802Y286802D01*
X271398Y287072D01*
X271349Y287570D01*
X272700Y288921D01*
X272734Y288966D01*
X272940Y288993D01*
X273815Y289355D01*
X274568Y289932D01*
X275145Y290685D01*
X275461Y291447D01*
X275951Y291350D01*
D02*
G37*
G36*
X266897Y339208D02*
X267466Y338466D01*
X268208Y337897D01*
X268573Y337746D01*
Y332591D01*
X264775Y328793D01*
X264334Y329029D01*
X264427Y329500D01*
Y337746D01*
X264792Y337897D01*
X265534Y338466D01*
X266103Y339208D01*
X266250Y339562D01*
X266750D01*
X266897Y339208D01*
D02*
G37*
G36*
X324707Y333207D02*
X324707Y333207D01*
X325071Y332964D01*
X325500Y332878D01*
X350926D01*
X353777Y330028D01*
X353585Y329566D01*
X322500D01*
Y332385D01*
X316261Y339422D01*
X316466Y339879D01*
X318035D01*
X324707Y333207D01*
D02*
G37*
G36*
X291050Y290845D02*
X291004Y290500D01*
X291175Y289207D01*
X291674Y288002D01*
X292468Y286968D01*
X293502Y286174D01*
X294707Y285675D01*
X296000Y285505D01*
X296064Y285513D01*
X296285Y285065D01*
X293860Y282640D01*
X293379Y282013D01*
X293291Y281799D01*
X293077Y281283D01*
X292974Y280500D01*
Y273784D01*
X292512Y273593D01*
X292302Y273802D01*
X291476Y274355D01*
X290935Y274462D01*
X290700Y274903D01*
X290825Y275207D01*
X290996Y276500D01*
X290825Y277793D01*
X290326Y278998D01*
X289532Y280032D01*
X288498Y280826D01*
X287993Y281035D01*
X287848Y281514D01*
X287855Y281524D01*
X287949Y282000D01*
X285500D01*
Y283000D01*
X287949D01*
X287855Y283475D01*
X287302Y284302D01*
X286475Y284855D01*
X285500Y285049D01*
X285436Y285036D01*
X285049Y285353D01*
Y294000D01*
X287895D01*
X291050Y290845D01*
D02*
G37*
G36*
X345000Y293042D02*
X344731Y292931D01*
X343791Y292209D01*
X343069Y291269D01*
X342616Y290175D01*
X342461Y289000D01*
X342616Y287825D01*
X343069Y286731D01*
X343791Y285791D01*
X344731Y285069D01*
X345000Y284958D01*
Y252000D01*
X349563Y247437D01*
X349645Y247024D01*
X350198Y246198D01*
X356180Y240215D01*
X356367Y239763D01*
X356225Y239621D01*
X356058Y239510D01*
X355946Y239342D01*
X355804Y239200D01*
D01*
Y239200D01*
Y239200D01*
X355804Y239200D01*
Y239200D01*
X355498Y238981D01*
X354850Y239513D01*
X353807Y240070D01*
X352676Y240413D01*
X352000Y240480D01*
Y234500D01*
Y228520D01*
X352676Y228587D01*
X353807Y228930D01*
X354850Y229487D01*
X355009Y229618D01*
X355461Y229404D01*
Y219596D01*
X355009Y219382D01*
X354850Y219513D01*
X353807Y220070D01*
X352676Y220413D01*
X352000Y220480D01*
Y214500D01*
X351500D01*
Y214000D01*
X345520D01*
X345587Y213324D01*
X345930Y212193D01*
X346487Y211151D01*
X347237Y210237D01*
X348150Y209487D01*
X349193Y208930D01*
X350324Y208587D01*
X350714Y208548D01*
X350690Y208049D01*
X332310D01*
X332286Y208548D01*
X332676Y208587D01*
X333807Y208930D01*
X334850Y209487D01*
X335763Y210237D01*
X336513Y211151D01*
X337070Y212193D01*
X337413Y213324D01*
X337480Y214000D01*
X325520D01*
X325587Y213324D01*
X325930Y212193D01*
X326487Y211151D01*
X327237Y210237D01*
X328151Y209487D01*
X329193Y208930D01*
X330324Y208587D01*
X330714Y208548D01*
X330690Y208049D01*
X316810D01*
X316786Y208548D01*
X317176Y208587D01*
X318307Y208930D01*
X319350Y209487D01*
X320263Y210237D01*
X321013Y211151D01*
X321570Y212193D01*
X321913Y213324D01*
X321980Y214000D01*
X310020D01*
X310087Y213324D01*
X310430Y212193D01*
X310987Y211151D01*
X311737Y210237D01*
X312650Y209487D01*
X313693Y208930D01*
X314824Y208587D01*
X315214Y208548D01*
X315190Y208049D01*
X296810D01*
X296786Y208548D01*
X297176Y208587D01*
X298307Y208930D01*
X299349Y209487D01*
X300263Y210237D01*
X301013Y211151D01*
X301570Y212193D01*
X301913Y213324D01*
X301980Y214000D01*
X290020D01*
X290087Y213324D01*
X290430Y212193D01*
X290987Y211151D01*
X291737Y210237D01*
X292651Y209487D01*
X293693Y208930D01*
X294824Y208587D01*
X295214Y208548D01*
X295190Y208049D01*
X281310D01*
X281286Y208548D01*
X281676Y208587D01*
X282807Y208930D01*
X283850Y209487D01*
X284763Y210237D01*
X285513Y211151D01*
X286070Y212193D01*
X286413Y213324D01*
X286480Y214000D01*
X274520D01*
X274587Y213324D01*
X274930Y212193D01*
X275487Y211151D01*
X276237Y210237D01*
X277151Y209487D01*
X278193Y208930D01*
X279324Y208587D01*
X279714Y208548D01*
X279690Y208049D01*
X261310D01*
X261286Y208548D01*
X261676Y208587D01*
X262807Y208930D01*
X263849Y209487D01*
X264763Y210237D01*
X265513Y211151D01*
X266070Y212193D01*
X266413Y213324D01*
X266480Y214000D01*
X260500D01*
Y214500D01*
X260000D01*
Y220852D01*
Y228018D01*
Y228148D01*
Y234500D01*
Y240480D01*
X259324Y240413D01*
X258193Y240070D01*
X258062Y240000D01*
X232549D01*
Y283374D01*
X233048Y283407D01*
X233090Y283086D01*
X233443Y282235D01*
X234004Y281504D01*
X234283Y281289D01*
X234503Y281003D01*
X235088Y280554D01*
X235769Y280272D01*
X236000Y280242D01*
Y284000D01*
Y287464D01*
X235586Y287410D01*
X234735Y287057D01*
X234004Y286496D01*
X233443Y285765D01*
X233090Y284914D01*
X233048Y284593D01*
X232549Y284626D01*
Y294000D01*
X246280D01*
X246609Y293624D01*
X246461Y292500D01*
X246616Y291325D01*
X247069Y290231D01*
X247791Y289291D01*
X247821Y289267D01*
X247855Y289184D01*
X248432Y288433D01*
X256052Y280813D01*
X256116Y280325D01*
X256569Y279231D01*
X257291Y278291D01*
X258231Y277569D01*
X259325Y277116D01*
X259813Y277052D01*
X271933Y264932D01*
X272685Y264355D01*
X273560Y263993D01*
X274500Y263869D01*
X284596D01*
X285502Y263174D01*
X286194Y262887D01*
X286292Y262397D01*
X284698Y260802D01*
X284145Y259976D01*
X283951Y259000D01*
Y256423D01*
X283207Y256325D01*
X282002Y255826D01*
X280968Y255032D01*
X280174Y253998D01*
X279675Y252793D01*
X279504Y251500D01*
X279675Y250207D01*
X279992Y249442D01*
X279714Y249026D01*
X278253D01*
X264412Y262867D01*
X264495Y263500D01*
X264325Y264793D01*
X263826Y265998D01*
X263032Y267032D01*
X261998Y267826D01*
X260793Y268325D01*
X259500Y268495D01*
X258207Y268325D01*
X257002Y267826D01*
X255968Y267032D01*
X255174Y265998D01*
X254675Y264793D01*
X254504Y263500D01*
X254675Y262207D01*
X255174Y261002D01*
X255968Y259968D01*
X257002Y259174D01*
X258207Y258675D01*
X259500Y258505D01*
X260133Y258588D01*
X274860Y243860D01*
X275487Y243379D01*
X276217Y243077D01*
X277000Y242974D01*
X287000D01*
X287783Y243077D01*
X288299Y243291D01*
X288513Y243379D01*
X289140Y243860D01*
X292140Y246860D01*
X292620Y247487D01*
X292709Y247701D01*
X292923Y248217D01*
X293026Y249000D01*
Y256747D01*
X298140Y261860D01*
X298621Y262487D01*
X298709Y262701D01*
X298923Y263217D01*
X299026Y264000D01*
Y279247D01*
X309753Y289974D01*
X319500D01*
X320283Y290077D01*
X320799Y290291D01*
X321013Y290380D01*
X321640Y290860D01*
X330779Y299999D01*
X331259Y300626D01*
X331562Y301356D01*
X331665Y302139D01*
Y310000D01*
X345000D01*
Y293042D01*
D02*
G37*
G36*
X350879Y283535D02*
Y249659D01*
X350416Y249467D01*
X347039Y252845D01*
Y284958D01*
X346988Y285217D01*
X346932Y285496D01*
X347223Y285903D01*
X347809Y285980D01*
X348251Y286163D01*
X350879Y283535D01*
D02*
G37*
G36*
X385000Y206622D02*
X357500D01*
Y238068D01*
X357990Y238165D01*
X358292Y237437D01*
X358789Y236789D01*
X359437Y236292D01*
X360191Y235980D01*
X361000Y235873D01*
X361809Y235980D01*
X362563Y236292D01*
X363211Y236789D01*
X363708Y237437D01*
X364020Y238191D01*
X364127Y239000D01*
X364020Y239809D01*
X363708Y240563D01*
X363211Y241211D01*
X362563Y241708D01*
X361809Y242020D01*
X361000Y242127D01*
X360191Y242020D01*
X359749Y241837D01*
X357500Y244086D01*
Y263733D01*
X357962Y263924D01*
X364106Y257781D01*
X363478Y256963D01*
X363080Y256003D01*
X362945Y254972D01*
X363080Y253942D01*
X363478Y252982D01*
X364111Y252158D01*
X364935Y251525D01*
X365895Y251128D01*
X366925Y250992D01*
X370075D01*
X371105Y251128D01*
X372065Y251525D01*
X372889Y252158D01*
X373522Y252982D01*
X373920Y253942D01*
X374055Y254972D01*
X373920Y256003D01*
X373522Y256963D01*
X372889Y257787D01*
X372065Y258420D01*
X371105Y258817D01*
X370075Y258953D01*
X366925D01*
X366201Y258858D01*
X359121Y265937D01*
Y281797D01*
X359583Y281988D01*
X364106Y277466D01*
X363478Y276648D01*
X363080Y275688D01*
X362945Y274658D01*
X363080Y273627D01*
X363478Y272667D01*
X364111Y271843D01*
X364935Y271210D01*
X365895Y270813D01*
X366925Y270677D01*
X370075D01*
X371105Y270813D01*
X372065Y271210D01*
X372889Y271843D01*
X373522Y272667D01*
X373920Y273627D01*
X374055Y274658D01*
X373920Y275688D01*
X373522Y276648D01*
X372889Y277472D01*
X372065Y278105D01*
X371105Y278502D01*
X370075Y278638D01*
X366925D01*
X366201Y278543D01*
X361122Y283622D01*
Y328219D01*
X361122Y328219D01*
X361036Y328648D01*
X360793Y329012D01*
X360793Y329012D01*
X352992Y336813D01*
X352628Y337056D01*
X352199Y337141D01*
X352199Y337141D01*
X326945D01*
X320293Y343793D01*
X319929Y344036D01*
X319500Y344122D01*
X319500Y344122D01*
X277450D01*
X273278Y348293D01*
X272915Y348536D01*
X272485Y348622D01*
X272485Y348622D01*
X255500D01*
Y377500D01*
X385000D01*
Y206622D01*
D02*
G37*
G36*
X254886Y377584D02*
X254851Y377500D01*
Y348622D01*
X252621D01*
X251950Y349293D01*
X251586Y349536D01*
X251157Y349622D01*
X251157Y349622D01*
X245000D01*
X245000Y349622D01*
X244571Y349536D01*
X244207Y349293D01*
X244207Y349293D01*
X243633Y348719D01*
X243000Y348845D01*
X242103Y348667D01*
X241342Y348158D01*
X240833Y347397D01*
X240655Y346500D01*
X240833Y345603D01*
X241342Y344842D01*
X242103Y344333D01*
X243000Y344155D01*
X243897Y344333D01*
X244658Y344842D01*
X245167Y345603D01*
X245345Y346500D01*
X245247Y346992D01*
X245564Y347378D01*
X246459D01*
X246694Y346937D01*
X246333Y346397D01*
X246155Y345500D01*
X246333Y344603D01*
X246842Y343842D01*
X247603Y343333D01*
X248500Y343155D01*
X249397Y343333D01*
X250158Y343842D01*
X250517Y344378D01*
X260789D01*
X260950Y343905D01*
X260466Y343534D01*
X259897Y342792D01*
X259539Y341927D01*
X259417Y341000D01*
X259539Y340073D01*
X259897Y339208D01*
X260466Y338466D01*
X261208Y337897D01*
X261573Y337746D01*
Y330091D01*
X245659Y314178D01*
X245603Y314167D01*
X245499Y314097D01*
X245043Y314304D01*
X244961Y314927D01*
X244603Y315792D01*
X244034Y316534D01*
X243292Y317103D01*
X242427Y317461D01*
X241500Y317583D01*
X240573Y317461D01*
X239708Y317103D01*
X238966Y316534D01*
X238397Y315792D01*
X238039Y314927D01*
X237917Y314000D01*
X237991Y313432D01*
X237595Y313128D01*
X236914Y313410D01*
X236500Y313464D01*
Y310500D01*
X239464D01*
X239460Y310531D01*
X239857Y310835D01*
X240573Y310539D01*
X241500Y310417D01*
X242427Y310539D01*
X243292Y310897D01*
X243855Y311329D01*
X244323Y311153D01*
X244333Y311103D01*
X244842Y310342D01*
X245603Y309833D01*
X246500Y309655D01*
X247397Y309833D01*
X248158Y310342D01*
X248667Y311103D01*
X248845Y312000D01*
X248667Y312897D01*
X248566Y313048D01*
X249725Y314207D01*
X250166Y313971D01*
X250073Y313500D01*
X250073Y313500D01*
Y304451D01*
X249692Y303882D01*
X249514Y302984D01*
X249692Y302087D01*
X250201Y301326D01*
X250961Y300818D01*
X251859Y300639D01*
X252756Y300818D01*
X253517Y301326D01*
X254026Y302087D01*
X254204Y302984D01*
X254026Y303882D01*
X253517Y304643D01*
X252927Y305036D01*
Y312909D01*
X271009Y330991D01*
X271009Y330991D01*
X271319Y331454D01*
X271427Y332000D01*
X271427Y332000D01*
Y337746D01*
X271792Y337897D01*
X272534Y338466D01*
X273103Y339208D01*
X273461Y340073D01*
X273583Y341000D01*
X273535Y341366D01*
X273984Y341587D01*
X275364Y340207D01*
X275364Y340207D01*
X275728Y339964D01*
X276157Y339878D01*
X276157Y339879D01*
X293336D01*
X293434Y339388D01*
X292635Y339057D01*
X291904Y338496D01*
X291343Y337765D01*
X290990Y336914D01*
X290936Y336500D01*
X297864D01*
X297810Y336914D01*
X297457Y337765D01*
X296896Y338496D01*
X296165Y339057D01*
X295366Y339388D01*
X295464Y339879D01*
X305350D01*
X315373Y339578D01*
X315612Y339461D01*
X315658Y339331D01*
X315653Y339192D01*
X315736Y339105D01*
X315775Y338992D01*
X321851Y332139D01*
Y329566D01*
X322041Y329106D01*
X322500Y328916D01*
X353585D01*
X353705Y328966D01*
X353834D01*
X353925Y329057D01*
X354045Y329106D01*
X354064Y329153D01*
X354554Y329250D01*
X355500Y328304D01*
Y311617D01*
X355027Y311457D01*
X354996Y311496D01*
X354265Y312057D01*
X353414Y312410D01*
X353000Y312464D01*
Y309000D01*
Y305536D01*
X353414Y305590D01*
X354265Y305943D01*
X354996Y306504D01*
X355027Y306543D01*
X355500Y306382D01*
Y248500D01*
X353121D01*
Y284000D01*
X353122Y284000D01*
X353036Y284429D01*
X352793Y284793D01*
X352793Y284793D01*
X349837Y287749D01*
X350020Y288191D01*
X350127Y289000D01*
X350020Y289809D01*
X349708Y290563D01*
X349211Y291211D01*
X348563Y291708D01*
X347809Y292020D01*
X347223Y292097D01*
X346932Y292504D01*
X346988Y292783D01*
X347039Y293042D01*
Y310000D01*
X346884Y310780D01*
X346442Y311442D01*
X345780Y311884D01*
X345000Y312039D01*
X331665D01*
X330884Y311884D01*
X330711Y311768D01*
X330270Y312004D01*
Y321517D01*
X330273Y321532D01*
Y322757D01*
X332331D01*
X332937Y322292D01*
X333691Y321980D01*
X334500Y321873D01*
X335309Y321980D01*
X336063Y322292D01*
X336711Y322789D01*
X337208Y323437D01*
X337520Y324191D01*
X337627Y325000D01*
X337520Y325809D01*
X337208Y326563D01*
X336711Y327211D01*
X336063Y327708D01*
X335309Y328020D01*
X334500Y328127D01*
X333691Y328020D01*
X332937Y327708D01*
X332331Y327243D01*
X279169D01*
X278563Y327708D01*
X277809Y328020D01*
X277000Y328127D01*
X276191Y328020D01*
X275437Y327708D01*
X274789Y327211D01*
X274292Y326563D01*
X273980Y325809D01*
X273873Y325000D01*
X273980Y324191D01*
X274292Y323437D01*
X274789Y322789D01*
X275437Y322292D01*
X276191Y321980D01*
X277000Y321873D01*
X277809Y321980D01*
X278563Y322292D01*
X279169Y322757D01*
X327010D01*
Y321569D01*
X327008Y321555D01*
Y302815D01*
X319193Y295000D01*
X316453D01*
Y297500D01*
X308547D01*
Y295000D01*
X294000D01*
X290000Y299000D01*
X288845D01*
X288667Y299897D01*
X288158Y300658D01*
X287397Y301167D01*
X286500Y301345D01*
X285603Y301167D01*
X284842Y300658D01*
X284750Y300521D01*
X284250D01*
X284158Y300658D01*
X283397Y301167D01*
X282500Y301345D01*
X281603Y301167D01*
X280842Y300658D01*
X280750Y300521D01*
X280250D01*
X280158Y300658D01*
X279397Y301167D01*
X278500Y301345D01*
X277603Y301167D01*
X276842Y300658D01*
X276333Y299897D01*
X276155Y299000D01*
X275000D01*
Y293422D01*
X274877Y293371D01*
X274680Y293331D01*
X274513Y293220D01*
X274328Y293143D01*
X274186Y293001D01*
X274184Y293000D01*
X271450D01*
X270561Y293889D01*
X269672Y293000D01*
X254061D01*
X254020Y293309D01*
X253708Y294063D01*
X253211Y294711D01*
X252563Y295208D01*
X251809Y295520D01*
X251000Y295627D01*
X250191Y295520D01*
X249437Y295208D01*
X248789Y294711D01*
X248781Y294701D01*
X248284Y294750D01*
X248227Y294865D01*
X248176Y294910D01*
X248142Y294969D01*
X247813Y295344D01*
X247759Y295386D01*
X247721Y295442D01*
X247445Y295627D01*
X247181Y295829D01*
X247116Y295846D01*
X247060Y295884D01*
X246734Y295949D01*
X246413Y296035D01*
X246346Y296026D01*
X246280Y296039D01*
X232549D01*
X232386Y296007D01*
X232000Y296324D01*
Y309746D01*
X232031Y309748D01*
Y310252D01*
X232000Y310254D01*
Y367218D01*
X232499Y367242D01*
X232619Y366032D01*
X233047Y364620D01*
X233742Y363319D01*
X234678Y362178D01*
X235819Y361242D01*
X237120Y360547D01*
X238532Y360119D01*
X240000Y359974D01*
X241468Y360119D01*
X242880Y360547D01*
X244181Y361242D01*
X245322Y362178D01*
X246258Y363319D01*
X246953Y364620D01*
X247381Y366032D01*
X247526Y367500D01*
X247381Y368968D01*
X246953Y370380D01*
X246258Y371681D01*
X245322Y372822D01*
X244181Y373758D01*
X242880Y374453D01*
X241468Y374881D01*
X240000Y375026D01*
X238532Y374881D01*
X237120Y374453D01*
X235819Y373758D01*
X234678Y372822D01*
X233742Y371681D01*
X233047Y370380D01*
X232619Y368968D01*
X232499Y367758D01*
X232000Y367782D01*
Y378000D01*
X254608D01*
X254886Y377584D01*
D02*
G37*
%LPC*%
G36*
X337480Y234000D02*
X332000D01*
Y228520D01*
X332676Y228587D01*
X333807Y228930D01*
X334850Y229487D01*
X335763Y230237D01*
X336513Y231151D01*
X337070Y232193D01*
X337413Y233324D01*
X337480Y234000D01*
D02*
G37*
G36*
X331000D02*
X325520D01*
X325587Y233324D01*
X325930Y232193D01*
X326487Y231151D01*
X327237Y230237D01*
X328151Y229487D01*
X329193Y228930D01*
X330324Y228587D01*
X331000Y228520D01*
Y234000D01*
D02*
G37*
G36*
X351000D02*
X345520D01*
X345587Y233324D01*
X345930Y232193D01*
X346487Y231151D01*
X347237Y230237D01*
X348150Y229487D01*
X349193Y228930D01*
X350324Y228587D01*
X351000Y228520D01*
Y234000D01*
D02*
G37*
G36*
X261000Y240480D02*
Y235000D01*
X266480D01*
X266413Y235676D01*
X266070Y236807D01*
X265513Y237849D01*
X264763Y238763D01*
X263849Y239513D01*
X262807Y240070D01*
X261676Y240413D01*
X261000Y240480D01*
D02*
G37*
G36*
X301980Y234000D02*
X296500D01*
Y228520D01*
X297176Y228587D01*
X298307Y228930D01*
X299349Y229487D01*
X300263Y230237D01*
X301013Y231151D01*
X301570Y232193D01*
X301913Y233324D01*
X301980Y234000D01*
D02*
G37*
G36*
X295500D02*
X290020D01*
X290087Y233324D01*
X290430Y232193D01*
X290987Y231151D01*
X291737Y230237D01*
X292651Y229487D01*
X293693Y228930D01*
X294824Y228587D01*
X295500Y228520D01*
Y234000D01*
D02*
G37*
G36*
X321980D02*
X316500D01*
Y228520D01*
X317176Y228587D01*
X318307Y228930D01*
X319350Y229487D01*
X320263Y230237D01*
X321013Y231151D01*
X321570Y232193D01*
X321913Y233324D01*
X321980Y234000D01*
D02*
G37*
G36*
X315500D02*
X310020D01*
X310087Y233324D01*
X310430Y232193D01*
X310987Y231151D01*
X311737Y230237D01*
X312650Y229487D01*
X313693Y228930D01*
X314824Y228587D01*
X315500Y228520D01*
Y234000D01*
D02*
G37*
G36*
X280000Y240480D02*
X279324Y240413D01*
X278193Y240070D01*
X277151Y239513D01*
X276237Y238763D01*
X275487Y237849D01*
X274930Y236807D01*
X274587Y235676D01*
X274520Y235000D01*
X280000D01*
Y240480D01*
D02*
G37*
G36*
X331000D02*
X330324Y240413D01*
X329193Y240070D01*
X328151Y239513D01*
X327237Y238763D01*
X326487Y237849D01*
X325930Y236807D01*
X325587Y235676D01*
X325520Y235000D01*
X331000D01*
Y240480D01*
D02*
G37*
G36*
X316500D02*
Y235000D01*
X321980D01*
X321913Y235676D01*
X321570Y236807D01*
X321013Y237849D01*
X320263Y238763D01*
X319350Y239513D01*
X318307Y240070D01*
X317176Y240413D01*
X316500Y240480D01*
D02*
G37*
G36*
X351000D02*
X350324Y240413D01*
X349193Y240070D01*
X348150Y239513D01*
X347237Y238763D01*
X346487Y237849D01*
X345930Y236807D01*
X345587Y235676D01*
X345520Y235000D01*
X351000D01*
Y240480D01*
D02*
G37*
G36*
X332000D02*
Y235000D01*
X337480D01*
X337413Y235676D01*
X337070Y236807D01*
X336513Y237849D01*
X335763Y238763D01*
X334850Y239513D01*
X333807Y240070D01*
X332676Y240413D01*
X332000Y240480D01*
D02*
G37*
G36*
X295500D02*
X294824Y240413D01*
X293693Y240070D01*
X292651Y239513D01*
X291737Y238763D01*
X290987Y237849D01*
X290430Y236807D01*
X290087Y235676D01*
X290020Y235000D01*
X295500D01*
Y240480D01*
D02*
G37*
G36*
X281000D02*
Y235000D01*
X286480D01*
X286413Y235676D01*
X286070Y236807D01*
X285513Y237849D01*
X284763Y238763D01*
X283850Y239513D01*
X282807Y240070D01*
X281676Y240413D01*
X281000Y240480D01*
D02*
G37*
G36*
X315500D02*
X314824Y240413D01*
X313693Y240070D01*
X312650Y239513D01*
X311737Y238763D01*
X310987Y237849D01*
X310430Y236807D01*
X310087Y235676D01*
X310020Y235000D01*
X315500D01*
Y240480D01*
D02*
G37*
G36*
X296500D02*
Y235000D01*
X301980D01*
X301913Y235676D01*
X301570Y236807D01*
X301013Y237849D01*
X300263Y238763D01*
X299349Y239513D01*
X298307Y240070D01*
X297176Y240413D01*
X296500Y240480D01*
D02*
G37*
G36*
Y220480D02*
Y215000D01*
X301980D01*
X301913Y215676D01*
X301570Y216807D01*
X301013Y217849D01*
X300263Y218763D01*
X299349Y219513D01*
X298307Y220070D01*
X297176Y220413D01*
X296500Y220480D01*
D02*
G37*
G36*
X295500D02*
X294824Y220413D01*
X293693Y220070D01*
X292651Y219513D01*
X291737Y218763D01*
X290987Y217849D01*
X290430Y216807D01*
X290087Y215676D01*
X290020Y215000D01*
X295500D01*
Y220480D01*
D02*
G37*
G36*
X316500D02*
Y215000D01*
X321980D01*
X321913Y215676D01*
X321570Y216807D01*
X321013Y217849D01*
X320263Y218763D01*
X319350Y219513D01*
X318307Y220070D01*
X317176Y220413D01*
X316500Y220480D01*
D02*
G37*
G36*
X315500D02*
X314824Y220413D01*
X313693Y220070D01*
X312650Y219513D01*
X311737Y218763D01*
X310987Y217849D01*
X310430Y216807D01*
X310087Y215676D01*
X310020Y215000D01*
X315500D01*
Y220480D01*
D02*
G37*
G36*
X261000D02*
Y215000D01*
X266480D01*
X266413Y215676D01*
X266070Y216807D01*
X265513Y217849D01*
X264763Y218763D01*
X263849Y219513D01*
X262807Y220070D01*
X261676Y220413D01*
X261000Y220480D01*
D02*
G37*
G36*
X373000Y228026D02*
X371532Y227881D01*
X370120Y227453D01*
X368819Y226758D01*
X367678Y225822D01*
X366742Y224681D01*
X366047Y223380D01*
X365619Y221968D01*
X365474Y220500D01*
X365619Y219032D01*
X366047Y217620D01*
X366742Y216319D01*
X367678Y215178D01*
X368819Y214242D01*
X370120Y213547D01*
X371532Y213119D01*
X373000Y212974D01*
X374468Y213119D01*
X375880Y213547D01*
X377181Y214242D01*
X378322Y215178D01*
X379258Y216319D01*
X379953Y217620D01*
X380381Y219032D01*
X380526Y220500D01*
X380381Y221968D01*
X379953Y223380D01*
X379258Y224681D01*
X378322Y225822D01*
X377181Y226758D01*
X375880Y227453D01*
X374468Y227881D01*
X373000Y228026D01*
D02*
G37*
G36*
X281000Y220480D02*
Y215000D01*
X286480D01*
X286413Y215676D01*
X286070Y216807D01*
X285513Y217849D01*
X284763Y218763D01*
X283850Y219513D01*
X282807Y220070D01*
X281676Y220413D01*
X281000Y220480D01*
D02*
G37*
G36*
X280000D02*
X279324Y220413D01*
X278193Y220070D01*
X277151Y219513D01*
X276237Y218763D01*
X275487Y217849D01*
X274930Y216807D01*
X274587Y215676D01*
X274520Y215000D01*
X280000D01*
Y220480D01*
D02*
G37*
G36*
X331000D02*
X330324Y220413D01*
X329193Y220070D01*
X328151Y219513D01*
X327237Y218763D01*
X326487Y217849D01*
X325930Y216807D01*
X325587Y215676D01*
X325520Y215000D01*
X331000D01*
Y220480D01*
D02*
G37*
G36*
X266480Y234000D02*
X261000D01*
Y228520D01*
X261676Y228587D01*
X262807Y228930D01*
X263849Y229487D01*
X264763Y230237D01*
X265513Y231151D01*
X266070Y232193D01*
X266413Y233324D01*
X266480Y234000D01*
D02*
G37*
G36*
X341500Y231534D02*
X340128Y231399D01*
X338808Y230998D01*
X337592Y230348D01*
X336526Y229474D01*
X335651Y228408D01*
X335001Y227192D01*
X334601Y225872D01*
X334466Y224500D01*
X334601Y223128D01*
X335001Y221808D01*
X335651Y220592D01*
X336526Y219526D01*
X337592Y218652D01*
X338808Y218002D01*
X340128Y217601D01*
X341500Y217466D01*
X342872Y217601D01*
X344192Y218002D01*
X345408Y218652D01*
X346474Y219526D01*
X347348Y220592D01*
X347998Y221808D01*
X348399Y223128D01*
X348534Y224500D01*
X348399Y225872D01*
X347998Y227192D01*
X347348Y228408D01*
X346474Y229474D01*
X345408Y230348D01*
X344192Y230998D01*
X342872Y231399D01*
X341500Y231534D01*
D02*
G37*
G36*
X286480Y234000D02*
X281000D01*
Y228520D01*
X281676Y228587D01*
X282807Y228930D01*
X283850Y229487D01*
X284763Y230237D01*
X285513Y231151D01*
X286070Y232193D01*
X286413Y233324D01*
X286480Y234000D01*
D02*
G37*
G36*
X280000D02*
X274520D01*
X274587Y233324D01*
X274930Y232193D01*
X275487Y231151D01*
X276237Y230237D01*
X277151Y229487D01*
X278193Y228930D01*
X279324Y228587D01*
X280000Y228520D01*
Y234000D01*
D02*
G37*
G36*
X351000Y220480D02*
X350324Y220413D01*
X349193Y220070D01*
X348150Y219513D01*
X347237Y218763D01*
X346487Y217849D01*
X345930Y216807D01*
X345587Y215676D01*
X345520Y215000D01*
X351000D01*
Y220480D01*
D02*
G37*
G36*
X332000D02*
Y215000D01*
X337480D01*
X337413Y215676D01*
X337070Y216807D01*
X336513Y217849D01*
X335763Y218763D01*
X334850Y219513D01*
X333807Y220070D01*
X332676Y220413D01*
X332000Y220480D01*
D02*
G37*
G36*
X306000Y231534D02*
X304628Y231399D01*
X303308Y230998D01*
X302092Y230348D01*
X301026Y229474D01*
X300151Y228408D01*
X299501Y227192D01*
X299101Y225872D01*
X298966Y224500D01*
X299101Y223128D01*
X299501Y221808D01*
X300151Y220592D01*
X301026Y219526D01*
X302092Y218652D01*
X303308Y218002D01*
X304628Y217601D01*
X306000Y217466D01*
X307372Y217601D01*
X308692Y218002D01*
X309908Y218652D01*
X310974Y219526D01*
X311848Y220592D01*
X312498Y221808D01*
X312899Y223128D01*
X313034Y224500D01*
X312899Y225872D01*
X312498Y227192D01*
X311848Y228408D01*
X310974Y229474D01*
X309908Y230348D01*
X308692Y230998D01*
X307372Y231399D01*
X306000Y231534D01*
D02*
G37*
G36*
X270500D02*
X269128Y231399D01*
X267808Y230998D01*
X266592Y230348D01*
X265526Y229474D01*
X264651Y228408D01*
X264001Y227192D01*
X263601Y225872D01*
X263466Y224500D01*
X263601Y223128D01*
X264001Y221808D01*
X264651Y220592D01*
X265526Y219526D01*
X266592Y218652D01*
X267808Y218002D01*
X269128Y217601D01*
X270500Y217466D01*
X271872Y217601D01*
X273192Y218002D01*
X274408Y218652D01*
X275474Y219526D01*
X276348Y220592D01*
X276998Y221808D01*
X277399Y223128D01*
X277534Y224500D01*
X277399Y225872D01*
X276998Y227192D01*
X276348Y228408D01*
X275474Y229474D01*
X274408Y230348D01*
X273192Y230998D01*
X271872Y231399D01*
X270500Y231534D01*
D02*
G37*
G36*
X370075Y318008D02*
X366925D01*
X365895Y317872D01*
X364935Y317475D01*
X364111Y316842D01*
X363478Y316018D01*
X363080Y315058D01*
X362945Y314028D01*
X363080Y312997D01*
X363478Y312037D01*
X364111Y311213D01*
X364935Y310580D01*
X365895Y310183D01*
X366925Y310047D01*
X370075D01*
X371105Y310183D01*
X372065Y310580D01*
X372889Y311213D01*
X373522Y312037D01*
X373920Y312997D01*
X374055Y314028D01*
X373920Y315058D01*
X373522Y316018D01*
X372889Y316842D01*
X372065Y317475D01*
X371105Y317872D01*
X370075Y318008D01*
D02*
G37*
G36*
X352000Y312464D02*
X351586Y312410D01*
X350735Y312057D01*
X350004Y311496D01*
X349443Y310765D01*
X349090Y309914D01*
X349036Y309500D01*
X352000D01*
Y312464D01*
D02*
G37*
G36*
X235500Y313464D02*
X235086Y313410D01*
X234235Y313057D01*
X233504Y312496D01*
X232943Y311765D01*
X232590Y310914D01*
X232536Y310500D01*
X235500D01*
Y313464D01*
D02*
G37*
G36*
X261000Y317583D02*
X260073Y317461D01*
X259208Y317103D01*
X258466Y316534D01*
X257897Y315792D01*
X257539Y314927D01*
X257417Y314000D01*
X257539Y313073D01*
X257897Y312208D01*
X258466Y311466D01*
X259208Y310897D01*
X260073Y310539D01*
X261000Y310417D01*
X261927Y310539D01*
X262792Y310897D01*
X263534Y311466D01*
X264103Y312208D01*
X264461Y313073D01*
X264583Y314000D01*
X264461Y314927D01*
X264103Y315792D01*
X263534Y316534D01*
X262792Y317103D01*
X261927Y317461D01*
X261000Y317583D01*
D02*
G37*
G36*
X239464Y309500D02*
X236500D01*
Y306536D01*
X236914Y306590D01*
X237765Y306943D01*
X238496Y307504D01*
X239057Y308235D01*
X239410Y309086D01*
X239464Y309500D01*
D02*
G37*
G36*
X235500D02*
X232536D01*
X232590Y309086D01*
X232943Y308235D01*
X233504Y307504D01*
X234235Y306943D01*
X235086Y306590D01*
X235500Y306536D01*
Y309500D01*
D02*
G37*
G36*
X279949Y311000D02*
X278000D01*
Y309050D01*
X278475Y309145D01*
X279302Y309698D01*
X279855Y310525D01*
X279949Y311000D01*
D02*
G37*
G36*
X277000D02*
X275050D01*
X275145Y310525D01*
X275698Y309698D01*
X276524Y309145D01*
X277000Y309050D01*
Y311000D01*
D02*
G37*
G36*
Y313949D02*
X276524Y313855D01*
X275698Y313302D01*
X275145Y312475D01*
X275050Y312000D01*
X277000D01*
Y313949D01*
D02*
G37*
G36*
X282500Y321950D02*
Y320000D01*
X284450D01*
X284355Y320476D01*
X283802Y321302D01*
X282976Y321855D01*
X282500Y321950D01*
D02*
G37*
G36*
X281500D02*
X281025Y321855D01*
X280198Y321302D01*
X279645Y320476D01*
X279551Y320000D01*
X281500D01*
Y321950D01*
D02*
G37*
G36*
X293900Y335500D02*
X290936D01*
X290990Y335086D01*
X291343Y334235D01*
X291904Y333504D01*
X292635Y332943D01*
X293486Y332590D01*
X293900Y332536D01*
Y335500D01*
D02*
G37*
G36*
X297864D02*
X294900D01*
Y332536D01*
X295314Y332590D01*
X296165Y332943D01*
X296896Y333504D01*
X297457Y334235D01*
X297810Y335086D01*
X297864Y335500D01*
D02*
G37*
G36*
X312500Y321583D02*
X311573Y321461D01*
X310708Y321103D01*
X309966Y320534D01*
X309397Y319792D01*
X309039Y318927D01*
X308917Y318000D01*
X309039Y317073D01*
X309397Y316208D01*
X309966Y315466D01*
X310708Y314897D01*
X311573Y314539D01*
X312500Y314417D01*
X313427Y314539D01*
X314292Y314897D01*
X315034Y315466D01*
X315603Y316208D01*
X315961Y317073D01*
X316083Y318000D01*
X315961Y318927D01*
X315603Y319792D01*
X315034Y320534D01*
X314292Y321103D01*
X313427Y321461D01*
X312500Y321583D01*
D02*
G37*
G36*
X278000Y313949D02*
Y312000D01*
X279949D01*
X279855Y312475D01*
X279302Y313302D01*
X278475Y313855D01*
X278000Y313949D01*
D02*
G37*
G36*
X284450Y319000D02*
X282500D01*
Y317051D01*
X282976Y317145D01*
X283802Y317698D01*
X284355Y318525D01*
X284450Y319000D01*
D02*
G37*
G36*
X281500D02*
X279551D01*
X279645Y318525D01*
X280198Y317698D01*
X281025Y317145D01*
X281500Y317051D01*
Y319000D01*
D02*
G37*
G36*
X337500Y283500D02*
X334079D01*
X334149Y282968D01*
X334547Y282007D01*
X335181Y281181D01*
X336007Y280547D01*
X336968Y280149D01*
X337500Y280079D01*
Y283500D01*
D02*
G37*
G36*
X287500Y375756D02*
X286367Y375606D01*
X285311Y375169D01*
X284405Y374473D01*
X283709Y373567D01*
X283272Y372511D01*
X283122Y371378D01*
Y368622D01*
X283272Y367489D01*
X283709Y366433D01*
X284405Y365527D01*
X285311Y364831D01*
X286367Y364394D01*
X287500Y364244D01*
X288633Y364394D01*
X289689Y364831D01*
X290595Y365527D01*
X291291Y366433D01*
X291728Y367489D01*
X291878Y368622D01*
Y371378D01*
X291728Y372511D01*
X291291Y373567D01*
X290595Y374473D01*
X289689Y375169D01*
X288633Y375606D01*
X287500Y375756D01*
D02*
G37*
G36*
X239964Y283500D02*
X237000D01*
Y280242D01*
X237231Y280272D01*
X237912Y280554D01*
X238497Y281003D01*
X238717Y281289D01*
X238996Y281504D01*
X239557Y282235D01*
X239910Y283086D01*
X239964Y283500D01*
D02*
G37*
G36*
X341921D02*
X338500D01*
Y280079D01*
X339032Y280149D01*
X339993Y280547D01*
X340819Y281181D01*
X341453Y282007D01*
X341851Y282968D01*
X341921Y283500D01*
D02*
G37*
G36*
X271840Y375718D02*
X263160D01*
Y364282D01*
X271840D01*
Y375718D01*
D02*
G37*
G36*
X351037Y376037D02*
X341963D01*
Y366963D01*
X351037D01*
Y376037D01*
D02*
G37*
G36*
X297500Y375756D02*
X296367Y375606D01*
X295311Y375169D01*
X294405Y374473D01*
X293709Y373567D01*
X293272Y372511D01*
X293122Y371378D01*
Y368622D01*
X293272Y367489D01*
X293709Y366433D01*
X294405Y365527D01*
X295311Y364831D01*
X296367Y364394D01*
X297500Y364244D01*
X298633Y364394D01*
X299689Y364831D01*
X300595Y365527D01*
X301291Y366433D01*
X301728Y367489D01*
X301878Y368622D01*
Y371378D01*
X301728Y372511D01*
X301291Y373567D01*
X300595Y374473D01*
X299689Y375169D01*
X298633Y375606D01*
X297500Y375756D01*
D02*
G37*
G36*
X332150Y270882D02*
X331184Y270754D01*
X330284Y270382D01*
X329511Y269789D01*
X328918Y269016D01*
X328545Y268115D01*
X328418Y267150D01*
X328545Y266184D01*
X328918Y265284D01*
X329511Y264511D01*
X330284Y263918D01*
X331184Y263545D01*
X332150Y263418D01*
X333116Y263545D01*
X334016Y263918D01*
X334788Y264511D01*
X335382Y265284D01*
X335754Y266184D01*
X335881Y267150D01*
X335754Y268115D01*
X335382Y269016D01*
X334788Y269789D01*
X334016Y270382D01*
X333116Y270754D01*
X332150Y270882D01*
D02*
G37*
G36*
X277500Y375756D02*
X276367Y375606D01*
X275311Y375169D01*
X274405Y374473D01*
X273709Y373567D01*
X273272Y372511D01*
X273122Y371378D01*
Y368622D01*
X273272Y367489D01*
X273709Y366433D01*
X274405Y365527D01*
X275311Y364831D01*
X276367Y364394D01*
X277500Y364244D01*
X278633Y364394D01*
X279689Y364831D01*
X280595Y365527D01*
X281291Y366433D01*
X281728Y367489D01*
X281878Y368622D01*
Y371378D01*
X281728Y372511D01*
X281291Y373567D01*
X280595Y374473D01*
X279689Y375169D01*
X278633Y375606D01*
X277500Y375756D01*
D02*
G37*
G36*
X316453Y301953D02*
X313000D01*
Y298500D01*
X316453D01*
Y301953D01*
D02*
G37*
G36*
X312000D02*
X308547D01*
Y298500D01*
X312000D01*
Y301953D01*
D02*
G37*
G36*
X352000Y308500D02*
X349036D01*
X349090Y308086D01*
X349443Y307235D01*
X350004Y306504D01*
X350735Y305943D01*
X351586Y305590D01*
X352000Y305536D01*
Y308500D01*
D02*
G37*
G36*
X312500Y311583D02*
X311573Y311461D01*
X310708Y311103D01*
X309966Y310534D01*
X309397Y309792D01*
X309039Y308927D01*
X308917Y308000D01*
X309039Y307073D01*
X309397Y306208D01*
X309966Y305466D01*
X310708Y304897D01*
X311573Y304539D01*
X312500Y304417D01*
X313427Y304539D01*
X314292Y304897D01*
X315034Y305466D01*
X315603Y306208D01*
X315961Y307073D01*
X316083Y308000D01*
X315961Y308927D01*
X315603Y309792D01*
X315034Y310534D01*
X314292Y311103D01*
X313427Y311461D01*
X312500Y311583D01*
D02*
G37*
G36*
X237000Y287464D02*
Y284500D01*
X239964D01*
X239910Y284914D01*
X239557Y285765D01*
X238996Y286496D01*
X238265Y287057D01*
X237414Y287410D01*
X237000Y287464D01*
D02*
G37*
G36*
X272449Y284500D02*
X270500D01*
Y282551D01*
X270975Y282645D01*
X271802Y283198D01*
X272355Y284025D01*
X272449Y284500D01*
D02*
G37*
G36*
X338500Y287921D02*
Y284500D01*
X341921D01*
X341851Y285032D01*
X341453Y285993D01*
X340819Y286819D01*
X339993Y287453D01*
X339032Y287851D01*
X338500Y287921D01*
D02*
G37*
G36*
X337500D02*
X336968Y287851D01*
X336007Y287453D01*
X335181Y286819D01*
X334547Y285993D01*
X334149Y285032D01*
X334079Y284500D01*
X337500D01*
Y287921D01*
D02*
G37*
%LPD*%
D10*
X312500Y318000D02*
D03*
Y308000D02*
D03*
X270000Y341000D02*
D03*
X296000Y290500D02*
D03*
X286000Y276500D02*
D03*
X338000Y284000D02*
D03*
X261000Y314000D02*
D03*
X241500D02*
D03*
X288000Y267500D02*
D03*
X284500Y251500D02*
D03*
X263000Y341000D02*
D03*
X259500Y263500D02*
D03*
D22*
X328642Y321532D02*
D03*
Y324532D02*
D03*
D25*
X288115Y302900D02*
X293015Y298000D01*
X276885Y302900D02*
X288115D01*
X260500Y281500D02*
X267500Y288500D01*
X272000Y292500D02*
Y298000D01*
X274600Y300600D01*
Y300615D01*
X276885Y302900D01*
X293015Y298000D02*
X312500D01*
X334000Y325000D02*
X334500Y324500D01*
Y325000D01*
X277000D02*
X334000D01*
X274500Y267500D02*
X286500D01*
X260500Y281500D02*
X274500Y267500D01*
X251000Y291000D02*
X260500Y281500D01*
D26*
X248500Y345500D02*
X271657D01*
X276157Y341000D01*
X286500Y299000D02*
X295500Y290000D01*
X286500Y251500D02*
Y259000D01*
X282500Y280000D02*
X285932Y276568D01*
X282500Y280000D02*
Y299000D01*
X278500Y275000D02*
Y299000D01*
Y275000D02*
X281500Y272000D01*
X352000Y248000D02*
X361000Y239000D01*
X352000Y248000D02*
Y284000D01*
X347000Y289000D02*
X352000Y284000D01*
X290500Y272000D02*
X293000Y269500D01*
X281500Y272000D02*
X290500D01*
X293000Y265500D02*
Y269500D01*
X286500Y259000D02*
X293000Y265500D01*
X352199Y336020D02*
X360000Y328219D01*
X326480Y336020D02*
X352199D01*
X319500Y343000D02*
X326480Y336020D01*
X351390Y334000D02*
X358000Y327390D01*
X325500Y334000D02*
X351390D01*
X318500Y341000D02*
X325500Y334000D01*
X252157Y347500D02*
X272485D01*
X276985Y343000D01*
X319500D01*
X276157Y341000D02*
X318500D01*
X284500Y251500D02*
X286500D01*
X251500Y303343D02*
X251859Y302984D01*
X294400Y336000D02*
X294500D01*
X259500Y263500D02*
X260000Y263000D01*
X251000Y291000D02*
Y292000D01*
Y292500D02*
X251500Y293000D01*
X251157Y348500D02*
X252157Y347500D01*
X245000Y348500D02*
X251157D01*
X243000Y346500D02*
X245000Y348500D01*
X360000Y283157D02*
Y328219D01*
Y283157D02*
X368500Y274658D01*
X358000Y265472D02*
Y327390D01*
Y265472D02*
X368500Y254972D01*
D27*
X270000Y341000D02*
Y341500D01*
X251500Y303343D02*
Y313500D01*
X270000Y332000D01*
Y341500D01*
X236500Y283000D02*
Y284000D01*
X246500Y312000D02*
Y313000D01*
X263000Y329500D01*
Y341000D01*
D28*
X296000Y264000D02*
Y280500D01*
X287000Y246000D02*
X290000Y249000D01*
Y258000D02*
X296000Y264000D01*
X290000Y249000D02*
Y258000D01*
X277000Y246000D02*
X287000D01*
X260000Y263000D02*
X277000Y246000D01*
X308500Y293000D02*
X319500D01*
X296000Y280500D02*
X308500Y293000D01*
X319500D02*
X328639Y302139D01*
X268439Y288939D02*
X270561Y291061D01*
X328642Y321532D02*
Y324532D01*
X328639Y302139D02*
Y321555D01*
D31*
X341500Y224500D02*
D03*
X331500Y234500D02*
D03*
X351500D02*
D03*
X331500Y214500D02*
D03*
X351500D02*
D03*
X316000D02*
D03*
X296000D02*
D03*
X316000Y234500D02*
D03*
X296000D02*
D03*
X306000Y224500D02*
D03*
X270500D02*
D03*
X260500Y234500D02*
D03*
X280500D02*
D03*
X260500Y214500D02*
D03*
X280500D02*
D03*
D32*
X312500Y298000D02*
D03*
D33*
X346500Y341500D02*
D03*
D34*
Y371500D02*
D03*
D35*
X368500Y314028D02*
D03*
Y294342D02*
D03*
Y274658D02*
D03*
Y254972D02*
D03*
D36*
X297500Y370000D02*
D03*
X287500D02*
D03*
X277500D02*
D03*
D37*
X267500D02*
D03*
D39*
X317000Y358000D02*
D03*
Y361500D02*
D03*
X313500D02*
D03*
X310000D02*
D03*
X306500D02*
D03*
X262000Y362500D02*
D03*
X258500D02*
D03*
Y359500D02*
D03*
X294500Y352000D02*
D03*
X298000D02*
D03*
X301500D02*
D03*
X279000D02*
D03*
X282500D02*
D03*
X286000D02*
D03*
X275000Y355500D02*
D03*
Y352000D02*
D03*
X264000D02*
D03*
X267500D02*
D03*
X271000D02*
D03*
X290500D02*
D03*
X288000Y355500D02*
D03*
X275000Y359000D02*
D03*
X271500D02*
D03*
Y355500D02*
D03*
X306500Y347500D02*
D03*
X310000D02*
D03*
X313500D02*
D03*
X306500Y351000D02*
D03*
X310000D02*
D03*
X313500D02*
D03*
Y354500D02*
D03*
X310000D02*
D03*
X306500D02*
D03*
X303000Y355500D02*
D03*
X283000Y362500D02*
D03*
X273000D02*
D03*
X260500Y352000D02*
D03*
X262000Y359500D02*
D03*
Y355500D02*
D03*
X306500Y358000D02*
D03*
X310000D02*
D03*
X313500D02*
D03*
X303000Y359000D02*
D03*
X317000Y347500D02*
D03*
Y351000D02*
D03*
Y354500D02*
D03*
D40*
X277500Y311500D02*
D03*
X282000Y319500D02*
D03*
X270000Y285000D02*
D03*
X285500Y282500D02*
D03*
D41*
X236000Y310000D02*
D03*
X334500Y325000D02*
D03*
X277000D02*
D03*
X361000Y239000D02*
D03*
X347000Y289000D02*
D03*
X251000Y292500D02*
D03*
X260500Y281500D02*
D03*
X294400Y336000D02*
D03*
X236500Y284000D02*
D03*
X352500Y309000D02*
D03*
D42*
X286500Y299000D02*
D03*
X282500D02*
D03*
X278500D02*
D03*
X248500Y345500D02*
D03*
X246500Y312000D02*
D03*
X251859Y302984D02*
D03*
X332150Y267150D02*
D03*
X243000Y346500D02*
D03*
D43*
X270561Y291061D02*
D03*
X268439Y288939D02*
D03*
M02*
