%FSLAX25Y25*%
%MOIN*%
G70*
G01*
G75*
G04 Layer_Physical_Order=1*
G04 Layer_Color=255*
%ADD10C,0.05906*%
%ADD11R,0.03937X0.03937*%
%ADD12R,0.06102X0.09449*%
%ADD13R,0.05315X0.03740*%
%ADD14R,0.03543X0.03740*%
%ADD15R,0.03740X0.05315*%
%ADD16R,0.03937X0.03937*%
%ADD17R,0.03543X0.02559*%
%ADD18O,0.06693X0.01378*%
%ADD19R,0.06300X0.05500*%
%ADD20R,0.05512X0.04134*%
%ADD21R,0.04134X0.05512*%
%ADD22R,0.02000X0.02000*%
%ADD23O,0.02362X0.08661*%
%ADD24O,0.09843X0.02756*%
%ADD25C,0.03200*%
%ADD26C,0.01000*%
%ADD27C,0.01600*%
%ADD28C,0.02000*%
%ADD29C,0.01400*%
%ADD30C,0.02800*%
%ADD31C,0.10000*%
%ADD32R,0.05906X0.05906*%
%ADD33C,0.07874*%
%ADD34R,0.07874X0.07874*%
%ADD35O,0.09843X0.06693*%
%ADD36O,0.07480X0.10236*%
%ADD37R,0.07480X0.10236*%
%ADD38C,0.03150*%
%ADD39C,0.02400*%
%ADD40C,0.03000*%
%ADD41C,0.05000*%
%ADD42C,0.03400*%
G36*
X316378Y316798D02*
Y309202D01*
X315888Y309104D01*
X315603Y309792D01*
X315034Y310534D01*
X314292Y311103D01*
X313427Y311461D01*
X312500Y311583D01*
X311573Y311461D01*
X310902Y311184D01*
X309513Y312573D01*
X309159Y312810D01*
X309256Y313300D01*
X309268Y313302D01*
X309632Y313545D01*
X310902Y314816D01*
X311573Y314539D01*
X312500Y314417D01*
X313427Y314539D01*
X314292Y314897D01*
X315034Y315466D01*
X315603Y316208D01*
X315888Y316896D01*
X316378Y316798D01*
D02*
G37*
G36*
X342080Y340316D02*
X342537Y339212D01*
X343264Y338264D01*
X344212Y337537D01*
X345316Y337080D01*
X346500Y336924D01*
X347684Y337080D01*
X348788Y337537D01*
X348809Y337553D01*
X349257Y337331D01*
Y323564D01*
X345847Y320153D01*
X345493Y319624D01*
X345369Y319000D01*
Y314176D01*
X345175Y313982D01*
X344608D01*
Y314320D01*
X339987D01*
X339089Y315218D01*
X339281Y315680D01*
X344608D01*
Y320620D01*
X338093D01*
Y320281D01*
X337096D01*
Y320620D01*
X336356D01*
Y322516D01*
X336711Y322789D01*
X337208Y323437D01*
X337520Y324191D01*
X337627Y325000D01*
X337520Y325809D01*
X337208Y326563D01*
X336711Y327211D01*
X336063Y327708D01*
X335309Y328020D01*
X334500Y328127D01*
X333691Y328020D01*
X332937Y327708D01*
X332289Y327211D01*
X331792Y326563D01*
X331480Y325809D01*
X331373Y325000D01*
X331480Y324191D01*
X331792Y323437D01*
X332289Y322789D01*
X332937Y322292D01*
X333093Y322227D01*
Y320620D01*
X332353D01*
Y316861D01*
D01*
Y316861D01*
X332123Y316631D01*
X327647D01*
Y316861D01*
Y320620D01*
X327315D01*
Y330643D01*
X337672Y341000D01*
X341990D01*
X342080Y340316D01*
D02*
G37*
G36*
X384997Y377145D02*
X383876Y250020D01*
X357354Y249989D01*
X357000Y250342D01*
Y263875D01*
X358012D01*
X364106Y257781D01*
X363478Y256963D01*
X363080Y256003D01*
X362945Y254972D01*
X363080Y253942D01*
X363478Y252982D01*
X364111Y252158D01*
X364935Y251525D01*
X365895Y251128D01*
X366925Y250992D01*
X370075D01*
X371105Y251128D01*
X372065Y251525D01*
X372889Y252158D01*
X373522Y252982D01*
X373920Y253942D01*
X374055Y254972D01*
X373920Y256003D01*
X373522Y256963D01*
X372889Y257787D01*
X372065Y258420D01*
X371105Y258817D01*
X370075Y258953D01*
X366925D01*
X366201Y258858D01*
X359269Y265789D01*
X358906Y266032D01*
X358476Y266118D01*
X358476Y266118D01*
X357000D01*
Y275882D01*
X362727D01*
X363056Y275506D01*
X362945Y274658D01*
X363080Y273627D01*
X363478Y272667D01*
X364111Y271843D01*
X364935Y271210D01*
X365895Y270813D01*
X366925Y270677D01*
X370075D01*
X371105Y270813D01*
X372065Y271210D01*
X372889Y271843D01*
X373522Y272667D01*
X373920Y273627D01*
X374055Y274658D01*
X373920Y275688D01*
X373522Y276648D01*
X372889Y277472D01*
X372065Y278105D01*
X371105Y278502D01*
X370075Y278638D01*
X366925D01*
X365895Y278502D01*
X364985Y278126D01*
X357000D01*
Y307000D01*
X355554Y308446D01*
X355627Y309000D01*
X355520Y309809D01*
X355208Y310563D01*
X354711Y311211D01*
X354063Y311708D01*
X353309Y312020D01*
X352500Y312127D01*
X351691Y312020D01*
X350937Y311708D01*
X350289Y311211D01*
X349792Y310563D01*
X349736Y310427D01*
X348631D01*
Y312000D01*
X348507Y312624D01*
X348153Y313154D01*
X347624Y313507D01*
X347000Y313631D01*
Y319000D01*
X350000Y322000D01*
Y341000D01*
X342645D01*
X342634Y341085D01*
X342529Y341266D01*
X342449Y341459D01*
X342407Y341476D01*
X342385Y341515D01*
X342183Y341569D01*
X341990Y341649D01*
X338975D01*
X338784Y342111D01*
X348586Y351914D01*
X349072Y352642D01*
X349243Y353500D01*
Y365431D01*
X349705Y365623D01*
X366257Y349071D01*
Y317920D01*
X365895Y317872D01*
X364935Y317475D01*
X364111Y316842D01*
X363478Y316018D01*
X363080Y315058D01*
X362945Y314028D01*
X363080Y312997D01*
X363478Y312037D01*
X364111Y311213D01*
X364935Y310580D01*
X365895Y310183D01*
X366925Y310047D01*
X370075D01*
X371105Y310183D01*
X372065Y310580D01*
X372889Y311213D01*
X373522Y312037D01*
X373920Y312997D01*
X374055Y314028D01*
X373920Y315058D01*
X373522Y316018D01*
X372889Y316842D01*
X372065Y317475D01*
X371105Y317872D01*
X370743Y317920D01*
Y350000D01*
X370572Y350858D01*
X370086Y351586D01*
X351037Y370635D01*
Y376037D01*
X341963D01*
Y373743D01*
X301156D01*
X300595Y374473D01*
X299689Y375169D01*
X298633Y375606D01*
X297500Y375756D01*
X296367Y375606D01*
X295311Y375169D01*
X294405Y374473D01*
X293709Y373567D01*
X293272Y372511D01*
X293122Y371378D01*
Y368622D01*
X293272Y367489D01*
X293709Y366433D01*
X294405Y365527D01*
X295311Y364831D01*
X296367Y364394D01*
X297500Y364244D01*
X298633Y364394D01*
X299689Y364831D01*
X300595Y365527D01*
X301291Y366433D01*
X301728Y367489D01*
X301878Y368622D01*
Y369257D01*
X341963D01*
Y366963D01*
X344757D01*
Y354429D01*
X331643Y341316D01*
X331153Y341413D01*
X331134Y341459D01*
X331014Y341509D01*
X330923Y341600D01*
X330794D01*
X330675Y341649D01*
X324269D01*
X319217Y346706D01*
X319185Y346720D01*
X319169Y346749D01*
X318960Y346813D01*
X318758Y346897D01*
X318726Y346884D01*
X318694Y346894D01*
X318234Y346849D01*
X318093Y346773D01*
X317937Y346742D01*
X317449Y346416D01*
X317000Y346327D01*
X316551Y346416D01*
X316171Y346671D01*
X316040Y346866D01*
X315985Y346903D01*
X315959Y346964D01*
X315784Y347037D01*
X315627Y347142D01*
X315562Y347129D01*
X315500Y347154D01*
X315000D01*
X314938Y347129D01*
X314873Y347142D01*
X314716Y347037D01*
X314541Y346964D01*
X314515Y346903D01*
X314460Y346866D01*
X314330Y346671D01*
X313949Y346416D01*
X313500Y346327D01*
X313051Y346416D01*
X312670Y346671D01*
X312540Y346866D01*
X312485Y346903D01*
X312459Y346964D01*
X312284Y347037D01*
X312127Y347142D01*
X312062Y347129D01*
X312000Y347154D01*
X311500D01*
X311438Y347129D01*
X311373Y347142D01*
X311216Y347037D01*
X311041Y346964D01*
X311015Y346903D01*
X310960Y346866D01*
X310829Y346671D01*
X310449Y346416D01*
X310000Y346327D01*
X309551Y346416D01*
X309171Y346671D01*
X309040Y346866D01*
X308985Y346903D01*
X308959Y346964D01*
X308784Y347037D01*
X308627Y347142D01*
X308561Y347129D01*
X308500Y347154D01*
X308000D01*
X307939Y347129D01*
X307873Y347142D01*
X307716Y347037D01*
X307541Y346964D01*
X307515Y346903D01*
X307460Y346866D01*
X307330Y346671D01*
X306949Y346416D01*
X306500Y346327D01*
X306051Y346416D01*
X305670Y346671D01*
X305416Y347051D01*
X305327Y347500D01*
X305416Y347949D01*
X305670Y348329D01*
X305866Y348460D01*
X305903Y348515D01*
X305964Y348541D01*
X306037Y348716D01*
X306142Y348873D01*
X306129Y348938D01*
X306154Y349000D01*
Y349500D01*
X306129Y349562D01*
X306142Y349627D01*
X306037Y349784D01*
X305964Y349959D01*
X305903Y349985D01*
X305866Y350040D01*
X305670Y350170D01*
X305539Y350368D01*
X305483Y350405D01*
X305458Y350466D01*
X305283Y350539D01*
X305125Y350644D01*
X305060Y350631D01*
X304999Y350656D01*
X304112Y350656D01*
X303875Y350558D01*
X303653Y350466D01*
X303653Y350466D01*
X303653Y350466D01*
X303560Y350243D01*
X303462Y350007D01*
Y349549D01*
X303462Y349549D01*
Y345258D01*
X300018D01*
Y349549D01*
X300018Y349549D01*
X300018Y349549D01*
X300018Y349653D01*
Y349653D01*
Y349653D01*
X299860Y350033D01*
X299828Y350112D01*
D01*
X299828Y350112D01*
X299474Y350465D01*
X299015Y350656D01*
D01*
X299015D01*
X296631Y350655D01*
X296395Y350557D01*
X296172Y350465D01*
X296172Y350465D01*
X296172Y350465D01*
X296080Y350242D01*
X295982Y350006D01*
Y349549D01*
X295982Y349549D01*
X292786D01*
X292538Y349652D01*
X292419Y349937D01*
X292347Y350111D01*
X292347D01*
X292347Y350111D01*
X291994Y350464D01*
X291534Y350654D01*
X288612Y350654D01*
X288375Y350556D01*
X288153Y350464D01*
X288153Y350464D01*
X288153Y350464D01*
X288060Y350241D01*
X287962Y350005D01*
Y349549D01*
X287962Y349549D01*
Y345258D01*
X284518D01*
Y349549D01*
X284518Y349549D01*
X284518Y349549D01*
X284518Y349651D01*
X284518Y349651D01*
X284518Y349651D01*
X284351Y350054D01*
X284328Y350110D01*
D01*
X284328Y350110D01*
X283974Y350463D01*
X283515Y350653D01*
X281131Y350653D01*
X280895Y350555D01*
X280672Y350463D01*
X280672Y350463D01*
X280672Y350463D01*
X280580Y350240D01*
X280482Y350004D01*
Y349549D01*
X280482Y349549D01*
X276388D01*
Y347014D01*
X274374Y345000D01*
X271336D01*
X271308Y345068D01*
X271277Y345081D01*
X271261Y345111D01*
X271051Y345174D01*
X270849Y345258D01*
X269518D01*
Y349549D01*
X269518Y349549D01*
X269518Y349549D01*
X269518Y349648D01*
Y349648D01*
Y349648D01*
X269360Y350029D01*
X269328Y350108D01*
D01*
X269328Y350108D01*
X268974Y350461D01*
X268515Y350651D01*
X266131Y350651D01*
X265895Y350553D01*
X265672Y350461D01*
X265672Y350461D01*
X265672Y350461D01*
X265580Y350238D01*
X265482Y350002D01*
Y349549D01*
X265482Y349549D01*
X262276D01*
X262038Y349647D01*
X261880Y350028D01*
X261847Y350107D01*
D01*
X261847Y350107D01*
X261494Y350460D01*
X261034Y350650D01*
X258157Y350650D01*
X257757Y351615D01*
Y355620D01*
X255649D01*
Y377500D01*
X384645D01*
X384997Y377145D01*
D02*
G37*
G36*
X316169Y327238D02*
X316378Y326925D01*
Y319202D01*
X315888Y319104D01*
X315603Y319792D01*
X315034Y320534D01*
X314292Y321103D01*
X313427Y321461D01*
X312500Y321583D01*
X311573Y321461D01*
X310708Y321103D01*
X309966Y320534D01*
X309397Y319792D01*
X309039Y318927D01*
X308917Y318000D01*
X309039Y317073D01*
X309316Y316402D01*
X308374Y315460D01*
X296908D01*
X296763Y315939D01*
X296807Y315968D01*
X297092Y316395D01*
X297192Y316898D01*
X297092Y317401D01*
X296807Y317827D01*
X296763Y317857D01*
X296908Y318335D01*
X306255D01*
X306255Y318335D01*
X306684Y318421D01*
X307048Y318664D01*
X315672Y327287D01*
X316169Y327238D01*
D02*
G37*
G36*
X262742Y325880D02*
X266163D01*
X267976Y324067D01*
X268363Y323808D01*
X268218Y323330D01*
X268122D01*
X267619Y323230D01*
X267193Y322945D01*
X266908Y322519D01*
X266808Y322016D01*
X266908Y321513D01*
X267193Y321087D01*
X267343Y320986D01*
Y320486D01*
X267193Y320386D01*
X266908Y319960D01*
X266808Y319457D01*
X266908Y318954D01*
X267193Y318527D01*
X267237Y318498D01*
X267092Y318019D01*
X263567D01*
X255329Y326257D01*
X255427Y326493D01*
X255578Y326719D01*
X262742D01*
Y325880D01*
D02*
G37*
G36*
X258116Y313546D02*
X258116Y313545D01*
X258480Y313302D01*
X258909Y313217D01*
X258909Y313217D01*
X258910Y313217D01*
X258938D01*
X258938D01*
X258938Y313217D01*
X258951Y313151D01*
X259432Y312432D01*
X260151Y311951D01*
X261000Y311783D01*
X261849Y311951D01*
X262568Y312432D01*
X263049Y313151D01*
X263062Y313217D01*
X267092D01*
X267237Y312739D01*
X267193Y312709D01*
X266908Y312282D01*
X266808Y311779D01*
X266908Y311277D01*
X267193Y310850D01*
X267343Y310750D01*
Y310250D01*
X267193Y310150D01*
X266908Y309723D01*
X266808Y309221D01*
X266908Y308717D01*
X267193Y308291D01*
X267237Y308261D01*
X267092Y307783D01*
X259303D01*
X252861Y314225D01*
X253097Y314666D01*
X253500Y314586D01*
X254195Y314724D01*
X254784Y315118D01*
X255178Y315707D01*
X255203Y315835D01*
X255682Y315980D01*
X258116Y313546D01*
D02*
G37*
G36*
X309316Y309598D02*
X309039Y308927D01*
X308917Y308000D01*
X309039Y307073D01*
X309397Y306208D01*
X309966Y305466D01*
X310708Y304897D01*
X311396Y304612D01*
X311298Y304121D01*
X307000D01*
X307000Y304122D01*
X306571Y304036D01*
X306207Y303793D01*
X305432Y303018D01*
X304983Y303239D01*
X305083Y304000D01*
X304961Y304927D01*
X304603Y305792D01*
X304034Y306534D01*
X303292Y307103D01*
X302427Y307461D01*
X301500Y307583D01*
X300573Y307461D01*
X299708Y307103D01*
X298966Y306534D01*
X298397Y305792D01*
X298039Y304927D01*
X297917Y304000D01*
X298039Y303073D01*
X297766Y302665D01*
X296908D01*
X296763Y303143D01*
X296807Y303173D01*
X297092Y303599D01*
X297192Y304102D01*
X297092Y304605D01*
X296807Y305032D01*
X296657Y305132D01*
Y305632D01*
X296807Y305732D01*
X297092Y306158D01*
X297192Y306661D01*
X297092Y307164D01*
X296807Y307591D01*
X296657Y307691D01*
Y308191D01*
X296807Y308291D01*
X297092Y308717D01*
X297192Y309221D01*
X297092Y309723D01*
X296807Y310150D01*
X296763Y310179D01*
X296908Y310658D01*
X308256D01*
X309316Y309598D01*
D02*
G37*
G36*
X355000Y301420D02*
Y278126D01*
X347651D01*
Y282328D01*
X345000D01*
Y286077D01*
X345437Y286292D01*
X346191Y285980D01*
X347000Y285873D01*
X347809Y285980D01*
X348563Y286292D01*
X349211Y286789D01*
X349708Y287437D01*
X350020Y288191D01*
X350127Y289000D01*
X350020Y289809D01*
X349708Y290563D01*
X349211Y291211D01*
X348563Y291708D01*
X347809Y292020D01*
X347000Y292127D01*
X346191Y292020D01*
X345749Y291837D01*
X345000Y292586D01*
Y295025D01*
X341761Y295019D01*
X341473Y295306D01*
X341588Y295584D01*
X341761Y295757D01*
X348000D01*
X348858Y295928D01*
X349586Y296414D01*
X354086Y300914D01*
X354521Y301566D01*
X355000Y301420D01*
D02*
G37*
G36*
Y266118D02*
X347651D01*
Y270321D01*
X345000D01*
Y271679D01*
X347651D01*
Y275882D01*
X355000D01*
Y266118D01*
D02*
G37*
G36*
Y250000D02*
X348427D01*
X348319Y250546D01*
X348009Y251009D01*
X348009Y251009D01*
X345000Y254019D01*
Y259672D01*
X347651D01*
Y263875D01*
X355000D01*
Y250000D01*
D02*
G37*
G36*
X308547Y298500D02*
X312500D01*
Y297500D01*
X308547D01*
Y295000D01*
X306086D01*
X301309Y299777D01*
X301060Y299943D01*
X301205Y300422D01*
X301461D01*
X301500Y300417D01*
X301539Y300422D01*
X305543D01*
X305543Y300422D01*
X305973Y300507D01*
X306336Y300750D01*
X307465Y301878D01*
X308547D01*
Y298500D01*
D02*
G37*
G36*
X350004Y306504D02*
X350257Y306310D01*
Y303429D01*
X347071Y300243D01*
X344620D01*
Y300743D01*
X344620D01*
Y307000D01*
X345000D01*
Y307000D01*
X349000D01*
Y307034D01*
X349474Y307195D01*
X350004Y306504D01*
D02*
G37*
G36*
X277379Y305535D02*
Y301017D01*
X276842Y300658D01*
X276333Y299897D01*
X276155Y299000D01*
X276333Y298103D01*
X276824Y297368D01*
X276588Y296927D01*
X273500D01*
X272954Y296819D01*
X272768Y296695D01*
X272491Y296509D01*
X272491Y296509D01*
X270981Y295000D01*
X265620D01*
Y296257D01*
X260680D01*
Y295000D01*
X259320D01*
Y296257D01*
X254380D01*
Y295000D01*
X252834D01*
X252563Y295208D01*
X251809Y295520D01*
X251000Y295627D01*
X250191Y295520D01*
X249437Y295208D01*
X249166Y295000D01*
X248366D01*
Y295266D01*
X248366D01*
Y297863D01*
X267480D01*
X267619Y297770D01*
X268122Y297670D01*
X273437D01*
X273940Y297770D01*
X274366Y298055D01*
X274651Y298481D01*
X274751Y298984D01*
X274651Y299487D01*
X274366Y299914D01*
X274216Y300014D01*
Y300514D01*
X274366Y300614D01*
X274651Y301040D01*
X274751Y301543D01*
X274651Y302046D01*
X274366Y302473D01*
X274216Y302573D01*
Y303073D01*
X274366Y303173D01*
X274651Y303599D01*
X274751Y304102D01*
X274651Y304605D01*
X274366Y305032D01*
X274216Y305132D01*
Y305632D01*
X274366Y305732D01*
X274651Y306158D01*
X274751Y306661D01*
X274651Y307164D01*
X274366Y307591D01*
X274322Y307620D01*
X274407Y307901D01*
X274892Y308022D01*
X277379Y305535D01*
D02*
G37*
G36*
X281600Y325400D02*
X285417D01*
Y319155D01*
X285417Y319155D01*
X285526Y318609D01*
X285835Y318146D01*
X288093Y315888D01*
X288093Y315888D01*
X288371Y315703D01*
X288556Y315579D01*
X289102Y315470D01*
X289239D01*
X289474Y315029D01*
X289349Y314842D01*
X289249Y314339D01*
X289349Y313836D01*
X289634Y313409D01*
X289784Y313309D01*
Y312809D01*
X289634Y312709D01*
X289349Y312282D01*
X289249Y311779D01*
X289349Y311277D01*
X289634Y310850D01*
X289784Y310750D01*
Y310250D01*
X289634Y310150D01*
X289349Y309723D01*
X289249Y309221D01*
X289349Y308717D01*
X289634Y308291D01*
X289678Y308261D01*
X289533Y307783D01*
X289161D01*
X289161Y307783D01*
X288732Y307698D01*
X288368Y307454D01*
X288368Y307454D01*
X285707Y304793D01*
X285464Y304429D01*
X285378Y304000D01*
X285379Y304000D01*
Y301017D01*
X284842Y300658D01*
X284750Y300521D01*
X284250D01*
X284158Y300658D01*
X283622Y301017D01*
Y312000D01*
X283536Y312429D01*
X283293Y312793D01*
X283293Y312793D01*
X275836Y320250D01*
X275472Y320493D01*
X275043Y320578D01*
X275043Y320578D01*
X274467D01*
X274322Y321057D01*
X274366Y321087D01*
X274651Y321513D01*
X274751Y322016D01*
X274701Y322267D01*
X275126Y322531D01*
X275437Y322292D01*
X276191Y321980D01*
X277000Y321873D01*
X277809Y321980D01*
X278563Y322292D01*
X279211Y322789D01*
X279708Y323437D01*
X280020Y324191D01*
X280127Y325000D01*
X280020Y325809D01*
X279708Y326563D01*
X279211Y327211D01*
X278563Y327708D01*
X278124Y327890D01*
X278221Y328380D01*
X279257D01*
Y329219D01*
X281600D01*
Y325400D01*
D02*
G37*
G36*
X251242Y350679D02*
X255000D01*
Y350220D01*
Y347350D01*
X258157D01*
Y349721D01*
X258157D01*
Y350000D01*
X261035Y350001D01*
X261388Y349647D01*
X261388Y349549D01*
X261388D01*
Y346417D01*
X261369Y346319D01*
Y342473D01*
X260951Y341849D01*
X260783Y341000D01*
X260951Y340151D01*
X261432Y339432D01*
X262151Y338951D01*
X263000Y338783D01*
X263849Y338951D01*
X264568Y339432D01*
X265049Y340151D01*
X265217Y341000D01*
X265049Y341849D01*
X264631Y342473D01*
Y344609D01*
X266131D01*
Y349549D01*
X266131D01*
Y350002D01*
X268515Y350002D01*
X268868Y349648D01*
X268868Y349549D01*
X268868D01*
Y344609D01*
X270849D01*
X270898Y344111D01*
X270376Y344007D01*
X269847Y343653D01*
X269493Y343124D01*
X269491Y343116D01*
X269151Y343049D01*
X268432Y342568D01*
X267951Y341849D01*
X267783Y341000D01*
X267951Y340151D01*
X268432Y339432D01*
X269151Y338951D01*
X270000Y338783D01*
X270849Y338951D01*
X271568Y339432D01*
X271864Y339875D01*
X272342Y339730D01*
Y337252D01*
X269657D01*
Y337520D01*
X266500D01*
Y334650D01*
Y331780D01*
X269657D01*
Y333989D01*
X274471D01*
X275095Y334113D01*
X275344Y334279D01*
X275500D01*
Y337150D01*
Y340020D01*
X272416D01*
X272099Y340406D01*
X272191Y340869D01*
X274181D01*
X274805Y340993D01*
X275335Y341347D01*
X278597Y344609D01*
X281132D01*
Y349549D01*
X281132D01*
Y350004D01*
X283515Y350004D01*
X283869Y349650D01*
X283869Y349549D01*
X283869D01*
Y344609D01*
X288612D01*
Y349549D01*
X288612D01*
Y350005D01*
X291535Y350005D01*
X291888Y349652D01*
X291888Y349549D01*
X291888D01*
Y344609D01*
X295144D01*
X297900Y341852D01*
X297900Y341600D01*
X297900D01*
Y337966D01*
X297427Y337805D01*
X296896Y338496D01*
X296165Y339057D01*
X295314Y339410D01*
X294900Y339464D01*
Y336000D01*
Y332536D01*
X295314Y332590D01*
X296165Y332943D01*
X296896Y333504D01*
X297457Y334235D01*
X297733Y334900D01*
X297900D01*
Y334900D01*
X305400D01*
Y337128D01*
X307743D01*
Y334680D01*
X312234D01*
X312731Y334182D01*
X312539Y333720D01*
X311500D01*
Y330850D01*
Y327980D01*
X312539D01*
X312731Y327518D01*
X305791Y320578D01*
X297479D01*
X297243Y321019D01*
X297469Y321357D01*
X297501Y321516D01*
X293220D01*
Y322516D01*
X297501D01*
X297469Y322675D01*
X297096Y323233D01*
X296537Y323607D01*
X295878Y323738D01*
X294648D01*
Y325756D01*
X294728Y325876D01*
X294852Y326500D01*
Y327119D01*
X297500D01*
Y325000D01*
X301150D01*
Y328750D01*
Y332500D01*
X297500D01*
Y330381D01*
X294851D01*
X294728Y331004D01*
X294374Y331533D01*
X293841Y332066D01*
X293900Y332185D01*
Y335500D01*
X290585D01*
X290466Y335441D01*
X289500Y336407D01*
Y337750D01*
X285850D01*
Y334500D01*
X286793D01*
X288731Y332562D01*
X288540Y332100D01*
X284259D01*
X283874Y332358D01*
X283250Y332482D01*
X279257D01*
Y333320D01*
X272743D01*
Y328380D01*
X275779D01*
X275876Y327890D01*
X275437Y327708D01*
X274789Y327211D01*
X274514Y326852D01*
X269806D01*
X269257Y327400D01*
Y330820D01*
X262742D01*
Y329982D01*
X242825D01*
X240131Y332676D01*
Y334535D01*
X240178Y334604D01*
X240316Y335299D01*
Y341598D01*
X240178Y342293D01*
X240131Y342363D01*
Y347220D01*
X240560Y347478D01*
X240822Y347338D01*
X240655Y346500D01*
X240833Y345603D01*
X241342Y344842D01*
X241369Y344824D01*
Y338949D01*
X241493Y338324D01*
X241684Y338038D01*
Y335299D01*
X241822Y334604D01*
X242216Y334015D01*
X242805Y333622D01*
X243500Y333483D01*
X244195Y333622D01*
X244784Y334015D01*
X245178Y334604D01*
X245316Y335299D01*
Y341598D01*
X245178Y342293D01*
X244784Y342882D01*
X244631Y342985D01*
Y344824D01*
X244658Y344842D01*
X245167Y345603D01*
X245345Y346500D01*
X245167Y347397D01*
X244658Y348158D01*
X243897Y348667D01*
X243000Y348845D01*
X242162Y348678D01*
X241926Y349119D01*
X244325Y351518D01*
X251242D01*
Y350679D01*
D02*
G37*
G36*
X305202Y349702D02*
X305505Y349500D01*
Y349000D01*
X305202Y348798D01*
X304804Y348202D01*
X304665Y347500D01*
X304804Y346798D01*
X305202Y346202D01*
X305798Y345804D01*
X306500Y345665D01*
X307202Y345804D01*
X307798Y346202D01*
X308000Y346505D01*
X308500D01*
X308702Y346202D01*
X309298Y345804D01*
X310000Y345665D01*
X310702Y345804D01*
X311298Y346202D01*
X311500Y346505D01*
X312000D01*
X312202Y346202D01*
X312798Y345804D01*
X313500Y345665D01*
X314202Y345804D01*
X314798Y346202D01*
X315000Y346505D01*
X315500D01*
X315702Y346202D01*
X316298Y345804D01*
X317000Y345665D01*
X317702Y345804D01*
X318298Y346202D01*
X318757Y346247D01*
X324000Y341000D01*
X330675D01*
X330866Y340538D01*
X323690Y333362D01*
X323203Y332634D01*
X323032Y331776D01*
X323203Y330917D01*
X323236Y330868D01*
Y320620D01*
X322904D01*
Y319911D01*
X322280D01*
X321655Y319787D01*
X321126Y319433D01*
X319847Y318154D01*
X319493Y317624D01*
X319369Y317000D01*
Y312000D01*
X319493Y311376D01*
X319824Y310880D01*
X319719Y310350D01*
Y307258D01*
X318880D01*
D01*
X318880D01*
X318621Y307516D01*
Y337298D01*
X318622Y337298D01*
X318536Y337728D01*
X318293Y338091D01*
X313091Y343293D01*
X312728Y343536D01*
X312298Y343622D01*
X312298Y343621D01*
X299303D01*
X296632Y346293D01*
Y349549D01*
X296632D01*
Y350006D01*
X299015Y350006D01*
X299369Y349653D01*
X299369Y349549D01*
X299369D01*
Y344609D01*
X304112D01*
Y349549D01*
X304112D01*
Y350007D01*
X304999Y350007D01*
X305202Y349702D01*
D02*
G37*
G36*
X255000Y355620D02*
X251242D01*
Y354781D01*
X243650D01*
X243025Y354657D01*
X242496Y354303D01*
X237347Y349153D01*
X236993Y348624D01*
X236869Y348000D01*
Y342363D01*
X236822Y342293D01*
X236684Y341598D01*
Y335299D01*
X236822Y334604D01*
X236869Y334535D01*
Y332000D01*
X236993Y331376D01*
X237347Y330847D01*
X240996Y327197D01*
X241141Y327100D01*
X240996Y326622D01*
X240500D01*
X240500Y326622D01*
X240071Y326536D01*
X239707Y326293D01*
X239707Y326293D01*
X237767Y324353D01*
X237216Y323985D01*
X236822Y323396D01*
X236684Y322701D01*
Y316402D01*
X236822Y315707D01*
X237216Y315118D01*
X237805Y314724D01*
X238500Y314586D01*
X238995Y314684D01*
X239348Y314330D01*
X239283Y314000D01*
X239451Y313151D01*
X239932Y312432D01*
X240651Y311951D01*
X241500Y311783D01*
X242349Y311951D01*
X243068Y312432D01*
X243549Y313151D01*
X243717Y314000D01*
X243666Y314258D01*
X243944Y314674D01*
X244195Y314724D01*
X244784Y315118D01*
X245178Y315707D01*
X245316Y316402D01*
Y318626D01*
X246684D01*
Y316402D01*
X246822Y315707D01*
X247216Y315118D01*
X247805Y314724D01*
X248500Y314586D01*
X249191Y314723D01*
X258046Y305868D01*
X258294Y305702D01*
X258149Y305224D01*
X256862D01*
X249293Y312793D01*
X248929Y313036D01*
X248519Y313118D01*
X248158Y313658D01*
X247397Y314167D01*
X246500Y314345D01*
X245603Y314167D01*
X244842Y313658D01*
X244333Y312897D01*
X244155Y312000D01*
X244333Y311103D01*
X244842Y310342D01*
X245603Y309833D01*
X246500Y309655D01*
X247397Y309833D01*
X248158Y310342D01*
X248535Y310379D01*
X255605Y303309D01*
X255853Y303143D01*
X255708Y302665D01*
X254466D01*
X254204Y302984D01*
X254026Y303882D01*
X253517Y304643D01*
X252756Y305151D01*
X251859Y305329D01*
X250961Y305151D01*
X250201Y304643D01*
X249692Y303882D01*
X249514Y302984D01*
X249692Y302087D01*
X250201Y301326D01*
X250961Y300818D01*
X251859Y300639D01*
X252354Y300738D01*
X252689Y300367D01*
X252610Y300106D01*
X248366D01*
Y300600D01*
X241654D01*
Y295266D01*
D01*
Y295266D01*
X241388Y295000D01*
X239968D01*
Y296532D01*
X234032D01*
Y295000D01*
X232000D01*
Y309746D01*
X232031Y309748D01*
Y310252D01*
X232000Y310254D01*
Y367218D01*
X232499Y367242D01*
X232619Y366032D01*
X233047Y364620D01*
X233742Y363319D01*
X234678Y362178D01*
X235819Y361242D01*
X237120Y360547D01*
X238532Y360119D01*
X240000Y359974D01*
X241468Y360119D01*
X242880Y360547D01*
X244181Y361242D01*
X245322Y362178D01*
X246258Y363319D01*
X246953Y364620D01*
X247381Y366032D01*
X247526Y367500D01*
X247381Y368968D01*
X246953Y370380D01*
X246258Y371681D01*
X245322Y372822D01*
X244181Y373758D01*
X242880Y374453D01*
X241468Y374881D01*
X240000Y375026D01*
X238532Y374881D01*
X237120Y374453D01*
X235819Y373758D01*
X234678Y372822D01*
X233742Y371681D01*
X233047Y370380D01*
X232619Y368968D01*
X232499Y367758D01*
X232000Y367782D01*
Y378000D01*
X255000D01*
Y355620D01*
D02*
G37*
%LPC*%
G36*
X254000Y349721D02*
X250842D01*
Y346995D01*
X250364Y346850D01*
X250158Y347158D01*
X249397Y347667D01*
X248500Y347845D01*
X247603Y347667D01*
X246842Y347158D01*
X246333Y346397D01*
X246155Y345500D01*
X246333Y344603D01*
X246842Y343842D01*
X247373Y343487D01*
Y342987D01*
X247216Y342882D01*
X246822Y342293D01*
X246684Y341598D01*
Y335299D01*
X246822Y334604D01*
X247216Y334015D01*
X247805Y333622D01*
X248500Y333483D01*
X249195Y333622D01*
X249784Y334015D01*
X250178Y334604D01*
X250316Y335299D01*
Y341598D01*
X250178Y342293D01*
X249784Y342882D01*
X249627Y342987D01*
Y343487D01*
X250158Y343842D01*
X250364Y344150D01*
X250842Y344005D01*
Y343980D01*
X251869D01*
Y343083D01*
X251445Y342449D01*
X251276Y341598D01*
Y338949D01*
X255724D01*
Y341598D01*
X255555Y342449D01*
X255131Y343083D01*
Y343980D01*
X258157D01*
Y346350D01*
X254500D01*
Y346850D01*
X254000D01*
Y349721D01*
D02*
G37*
G36*
X284850Y342000D02*
X281200D01*
Y338781D01*
X279658D01*
Y340020D01*
X276500D01*
Y337150D01*
Y334279D01*
X279658D01*
Y335518D01*
X281200D01*
Y334500D01*
X284850D01*
Y338250D01*
Y342000D01*
D02*
G37*
G36*
X239464Y309500D02*
X232536D01*
X232590Y309086D01*
X232943Y308235D01*
X233504Y307504D01*
X234235Y306943D01*
X234620Y306783D01*
X234522Y306293D01*
X234432D01*
Y301156D01*
X239568D01*
Y303782D01*
X241654D01*
Y302747D01*
X248366D01*
Y308080D01*
X241654D01*
Y307045D01*
X238689D01*
X238689Y307045D01*
X238689Y307045D01*
X238030Y306972D01*
X238496Y307504D01*
X238496Y307504D01*
X239057Y308235D01*
X239410Y309086D01*
X239464Y309500D01*
D02*
G37*
G36*
X277500Y375756D02*
X276367Y375606D01*
X275311Y375169D01*
X274405Y374473D01*
X273709Y373567D01*
X273272Y372511D01*
X273122Y371378D01*
Y368622D01*
X273272Y367489D01*
X273709Y366433D01*
X274405Y365527D01*
X275257Y364873D01*
Y361921D01*
X275428Y361063D01*
X275914Y360335D01*
X280128Y356121D01*
Y354451D01*
X284872D01*
Y359391D01*
X283202D01*
X279743Y362850D01*
Y364873D01*
X280595Y365527D01*
X281291Y366433D01*
X281728Y367489D01*
X281878Y368622D01*
Y371378D01*
X281728Y372511D01*
X281291Y373567D01*
X280595Y374473D01*
X279689Y375169D01*
X278633Y375606D01*
X277500Y375756D01*
D02*
G37*
G36*
X287500D02*
X286367Y375606D01*
X285311Y375169D01*
X284405Y374473D01*
X283709Y373567D01*
X283272Y372511D01*
X283122Y371378D01*
Y368622D01*
X283272Y367489D01*
X283709Y366433D01*
X284405Y365527D01*
X285257Y364873D01*
Y362500D01*
X285428Y361642D01*
X285914Y360914D01*
X291493Y355335D01*
X292220Y354849D01*
X293079Y354678D01*
X295628D01*
Y354451D01*
X300372D01*
Y359391D01*
X295628D01*
Y359164D01*
X294008D01*
X289743Y363429D01*
Y364873D01*
X290595Y365527D01*
X291291Y366433D01*
X291728Y367489D01*
X291878Y368622D01*
Y371378D01*
X291728Y372511D01*
X291291Y373567D01*
X290595Y374473D01*
X289689Y375169D01*
X288633Y375606D01*
X287500Y375756D01*
D02*
G37*
G36*
X236500Y300000D02*
X234032D01*
Y297532D01*
X236500D01*
Y300000D01*
D02*
G37*
G36*
X271840Y375718D02*
X263160D01*
Y364282D01*
X265257D01*
Y359391D01*
X265128D01*
Y354451D01*
X269872D01*
Y359391D01*
X269743D01*
Y364282D01*
X271840D01*
Y375718D01*
D02*
G37*
G36*
X239968Y300000D02*
X237500D01*
Y297532D01*
X239968D01*
Y300000D01*
D02*
G37*
G36*
X289500Y342000D02*
X285850D01*
Y338750D01*
X289500D01*
Y342000D01*
D02*
G37*
G36*
X310500Y333720D02*
X307343D01*
Y332482D01*
X305800D01*
Y332500D01*
X302150D01*
Y328750D01*
Y325000D01*
X305800D01*
Y329219D01*
X307343D01*
Y327980D01*
X310500D01*
Y330850D01*
Y333720D01*
D02*
G37*
G36*
X284450Y319000D02*
X282500D01*
Y317051D01*
X282976Y317145D01*
X283802Y317698D01*
X284355Y318525D01*
X284450Y319000D01*
D02*
G37*
G36*
X256110Y337949D02*
X254000D01*
Y333175D01*
X254351Y333245D01*
X255072Y333727D01*
X255112Y333786D01*
X255610Y333835D01*
X255949Y333496D01*
X256478Y333142D01*
X257102Y333018D01*
X262343D01*
Y331780D01*
X265500D01*
Y334650D01*
Y337520D01*
X262343D01*
Y336281D01*
X257778D01*
X256110Y337949D01*
D02*
G37*
G36*
X282500Y321950D02*
Y320000D01*
X284450D01*
X284355Y320476D01*
X283802Y321302D01*
X282976Y321855D01*
X282500Y321950D01*
D02*
G37*
G36*
X281500D02*
X281025Y321855D01*
X280198Y321302D01*
X279645Y320476D01*
X279551Y320000D01*
X281500D01*
Y321950D01*
D02*
G37*
G36*
X236500Y313464D02*
Y310500D01*
X239464D01*
X239410Y310914D01*
X239057Y311765D01*
X238496Y312496D01*
X237765Y313057D01*
X236914Y313410D01*
X236500Y313464D01*
D02*
G37*
G36*
X235500D02*
X235086Y313410D01*
X234235Y313057D01*
X233504Y312496D01*
X232943Y311765D01*
X232590Y310914D01*
X232536Y310500D01*
X235500D01*
Y313464D01*
D02*
G37*
G36*
X293900Y339464D02*
X293486Y339410D01*
X292635Y339057D01*
X291904Y338496D01*
X291343Y337765D01*
X290990Y336914D01*
X290936Y336500D01*
X293900D01*
Y339464D01*
D02*
G37*
G36*
X281500Y319000D02*
X279551D01*
X279645Y318525D01*
X280198Y317698D01*
X281025Y317145D01*
X281500Y317051D01*
Y319000D01*
D02*
G37*
G36*
X253000Y337949D02*
X251276D01*
Y335299D01*
X251445Y334448D01*
X251927Y333727D01*
X252649Y333245D01*
X253000Y333175D01*
Y337949D01*
D02*
G37*
%LPD*%
D10*
X301500Y304000D02*
D03*
X312500Y318000D02*
D03*
Y308000D02*
D03*
X296000Y290500D02*
D03*
X286000Y276500D02*
D03*
X288000Y267500D02*
D03*
X284500Y251500D02*
D03*
D11*
X373346Y239000D02*
D03*
X366653D02*
D03*
D12*
X344000Y277004D02*
D03*
Y264996D02*
D03*
D13*
X317000Y274350D02*
D03*
Y280650D02*
D03*
X341350Y318150D02*
D03*
Y311850D02*
D03*
X254500Y346850D02*
D03*
Y353150D02*
D03*
X311000Y337150D02*
D03*
Y330850D02*
D03*
X276000Y330850D02*
D03*
Y337150D02*
D03*
X266000Y328350D02*
D03*
Y334650D02*
D03*
X259000Y268350D02*
D03*
Y274650D02*
D03*
X252000Y283150D02*
D03*
Y276850D02*
D03*
Y263850D02*
D03*
Y270150D02*
D03*
D14*
X286240Y347079D02*
D03*
X282500Y356921D02*
D03*
X278760Y347079D02*
D03*
X271240D02*
D03*
X267500Y356921D02*
D03*
X263760Y347079D02*
D03*
X301740D02*
D03*
X298000Y356921D02*
D03*
X294260Y347079D02*
D03*
D15*
X335850Y304000D02*
D03*
X342150D02*
D03*
X321350D02*
D03*
X327650D02*
D03*
X314850Y265000D02*
D03*
X321150D02*
D03*
X321150Y249000D02*
D03*
X314850D02*
D03*
X245850Y257000D02*
D03*
X252150D02*
D03*
X332150Y273000D02*
D03*
X325850D02*
D03*
X256850Y293000D02*
D03*
X263150D02*
D03*
D16*
X237000Y303725D02*
D03*
Y297031D02*
D03*
D17*
X325276Y318740D02*
D03*
Y315000D02*
D03*
Y311260D02*
D03*
X334724D02*
D03*
Y318740D02*
D03*
D18*
X293220Y298984D02*
D03*
Y301543D02*
D03*
Y304102D02*
D03*
Y306661D02*
D03*
Y309221D02*
D03*
Y311779D02*
D03*
Y314339D02*
D03*
Y316898D02*
D03*
Y319457D02*
D03*
Y322016D02*
D03*
X270779Y298984D02*
D03*
Y301543D02*
D03*
Y304102D02*
D03*
Y306661D02*
D03*
Y309221D02*
D03*
Y311779D02*
D03*
Y314339D02*
D03*
Y316898D02*
D03*
Y319457D02*
D03*
Y322016D02*
D03*
D19*
X301650Y338250D02*
D03*
X285350D02*
D03*
Y328750D02*
D03*
X301650D02*
D03*
D20*
X267500Y274740D02*
D03*
Y267260D02*
D03*
X243000Y276260D02*
D03*
Y283740D02*
D03*
X245010Y305413D02*
D03*
Y297933D02*
D03*
X243000Y270740D02*
D03*
Y263260D02*
D03*
X329500Y255240D02*
D03*
Y247760D02*
D03*
X308000Y281240D02*
D03*
Y273760D02*
D03*
X267500Y254894D02*
D03*
Y247413D02*
D03*
X260000Y247760D02*
D03*
Y255240D02*
D03*
X308000Y251260D02*
D03*
Y258740D02*
D03*
D21*
X338740Y292000D02*
D03*
X331260D02*
D03*
X252740Y248500D02*
D03*
X245260D02*
D03*
X321740Y257500D02*
D03*
X314260D02*
D03*
X324260Y281000D02*
D03*
X331740D02*
D03*
X301240Y245000D02*
D03*
X293760D02*
D03*
X282760Y290500D02*
D03*
X290240D02*
D03*
X269260D02*
D03*
X276740D02*
D03*
D22*
X347000Y309000D02*
D03*
Y312000D02*
D03*
D23*
X238500Y319551D02*
D03*
X243500D02*
D03*
X248500D02*
D03*
X253500D02*
D03*
X238500Y338449D02*
D03*
X243500D02*
D03*
X248500D02*
D03*
X253500D02*
D03*
D24*
X296146Y252500D02*
D03*
Y257500D02*
D03*
Y262500D02*
D03*
Y267500D02*
D03*
Y272500D02*
D03*
Y277500D02*
D03*
Y282500D02*
D03*
X276854Y252500D02*
D03*
Y257500D02*
D03*
Y262500D02*
D03*
Y267500D02*
D03*
Y272500D02*
D03*
Y277500D02*
D03*
Y282500D02*
D03*
D25*
X298500Y371500D02*
X347000D01*
Y353500D02*
Y371500D01*
X325276Y331776D02*
X347000Y353500D01*
X348000Y298000D02*
X352500Y302500D01*
X312500Y298000D02*
X348000D01*
X293079Y356921D02*
X298000D01*
X287500Y362500D02*
X293079Y356921D01*
X287500Y362500D02*
Y367500D01*
X277500Y361921D02*
Y367500D01*
Y361921D02*
X282500Y356921D01*
X267500D02*
Y367500D01*
X351500Y323500D02*
Y341500D01*
X368500Y314000D02*
Y350000D01*
X347000Y371500D02*
X368500Y350000D01*
X352500Y302500D02*
Y309000D01*
D26*
X270000Y341000D02*
Y341500D01*
X296146Y282500D02*
Y288354D01*
X290240Y290500D02*
X294000D01*
X292500Y277500D02*
X295752D01*
X288500Y281500D02*
X292500Y277500D01*
X288500Y281500D02*
Y283500D01*
X259000Y280000D02*
X260949D01*
X270779Y319457D02*
X275043D01*
X282500Y312000D01*
Y299000D02*
Y312000D01*
X289161Y306661D02*
X293220D01*
X286500Y304000D02*
X289161Y306661D01*
X286500Y299000D02*
Y304000D01*
X283500Y274000D02*
X286000Y276500D01*
X283500Y265500D02*
Y274000D01*
X278500Y299000D02*
Y306000D01*
X275279Y309221D02*
X278500Y306000D01*
X270779Y309221D02*
X275279D01*
X366154Y277004D02*
X368500Y274658D01*
X344000Y277004D02*
X366154D01*
X358476Y264996D02*
X368500Y254972D01*
X344000Y264996D02*
X358476D01*
X361000Y239000D02*
X366653D01*
X344000Y292000D02*
X347000Y289000D01*
X338740Y292000D02*
X344000D01*
X373346Y250346D02*
X375000Y252000D01*
X373346Y239000D02*
Y250346D01*
X243500Y316000D02*
Y319748D01*
X241500Y314000D02*
X243500Y316000D01*
X286000Y259500D02*
Y263000D01*
X283500Y265500D02*
X286000Y263000D01*
Y256500D02*
X289000Y253500D01*
X283000Y256500D02*
X286000D01*
X293000Y252500D02*
X294153D01*
X286000Y259500D02*
X293000Y252500D01*
X289000Y235000D02*
Y253500D01*
X277248Y282500D02*
X286000D01*
X284000Y256500D02*
Y262000D01*
X245010Y297933D02*
X246061Y298984D01*
X303000Y247153D02*
Y257500D01*
X300847Y245000D02*
X303000Y247153D01*
X314000Y255654D02*
Y258000D01*
Y264150D02*
X314850Y265000D01*
X293220Y319457D02*
X306255D01*
X243000Y338949D02*
X243500Y338449D01*
X248500D02*
Y345500D01*
X243000Y263653D02*
X243197Y263850D01*
X246061Y298984D02*
X270779D01*
X342150Y303650D02*
Y304000D01*
X334724Y305126D02*
X335850Y304000D01*
X334724Y318740D02*
X334815Y318650D01*
X263102Y316898D02*
X270779D01*
X254500Y325500D02*
X263102Y316898D01*
X240500Y325500D02*
X254500D01*
X238500Y323500D02*
X240500Y325500D01*
X238500Y319748D02*
Y323500D01*
X243500Y319748D02*
X248500D01*
X258910Y314339D02*
X270779D01*
X253500Y319748D02*
X258910Y314339D01*
X306255Y319457D02*
X315158Y328359D01*
Y333342D01*
X311350Y337150D02*
X315158Y333342D01*
X311000Y337150D02*
X311350D01*
X301650Y338250D02*
X309900D01*
X311000Y337150D01*
X301650Y328750D02*
X303750Y330850D01*
X283250Y330850D02*
X285350Y328750D01*
X306760Y257500D02*
X308000Y258740D01*
X326654Y248500D02*
X327500Y247654D01*
X306347Y272500D02*
X308197Y274350D01*
X314500Y248500D02*
X316150Y250150D01*
X314000Y255654D02*
X314500Y255153D01*
X271240Y347079D02*
Y349240D01*
X256398Y304102D02*
X270779D01*
X248500Y312000D02*
X256398Y304102D01*
X246500Y312000D02*
X248500D01*
X263000Y346319D02*
X263760Y347079D01*
X251859Y302984D02*
X253300Y301543D01*
X270779D01*
X270000Y341500D02*
X271000Y342500D01*
X298839D02*
X312298D01*
X294260Y347079D02*
X298839Y342500D01*
X256350Y259500D02*
X261816D01*
X252000Y283150D02*
X254350Y285500D01*
X264500D01*
X268500Y281500D01*
Y274346D02*
Y281500D01*
X251150Y277850D02*
X252346Y276654D01*
X264816Y262500D02*
X277248D01*
X261816Y259500D02*
X264816Y262500D01*
X276854Y282500D02*
X277248D01*
X288000Y260500D02*
Y267500D01*
X286500D02*
X288000D01*
X295752D01*
X259000Y264000D02*
Y268350D01*
Y264000D02*
X259500Y263500D01*
X331740Y281000D02*
X332150Y280591D01*
X324500Y274350D02*
X325850Y273000D01*
X321000Y265150D02*
X321150Y265000D01*
X321000Y265150D02*
Y268000D01*
X319000Y270000D02*
X321000Y268000D01*
X267500Y254894D02*
X267500Y254894D01*
X276854Y257500D02*
X277248D01*
X303000Y267000D02*
X309000D01*
X312000Y270000D01*
X319000D01*
X251000Y292000D02*
X252000Y293000D01*
X251650Y263500D02*
X252000Y263850D01*
X256350Y259500D01*
X295752Y262500D02*
X312875D01*
X314000Y261375D01*
X281500Y290500D02*
X288500Y283500D01*
X285350Y328750D02*
X286845Y327255D01*
X248500Y317000D02*
Y319748D01*
Y317000D02*
X258839Y306661D01*
X270779D01*
X293220Y298984D02*
X300516D01*
X306500Y293000D01*
X293220Y301543D02*
X305543D01*
X307000Y303000D01*
X315000D01*
X317500Y305500D01*
Y337298D01*
X312298Y342500D02*
X317500Y337298D01*
X293220Y314339D02*
X308839D01*
X312500Y318000D01*
X293220Y311779D02*
X308720D01*
X312500Y308000D01*
X288500Y234500D02*
X289000Y235000D01*
X306500Y293000D02*
X330260D01*
X330260Y293000D01*
X308000Y244000D02*
Y251260D01*
X298500Y234500D02*
X308000Y244000D01*
X296000Y234500D02*
X298500D01*
D27*
X308000Y280847D02*
Y285000D01*
X297500Y295500D02*
X308000Y285000D01*
X273500Y295500D02*
X297500D01*
X337000Y283000D02*
X338000Y284000D01*
X337000Y260000D02*
Y283000D01*
Y260000D02*
X347000Y250000D01*
Y239000D02*
Y250000D01*
X332150Y260850D02*
X339000Y254000D01*
Y227000D02*
Y254000D01*
Y227000D02*
X341500Y224500D01*
X332150Y260850D02*
Y267150D01*
X236500Y238500D02*
X260500Y214500D01*
X236500Y238500D02*
Y270500D01*
X238504Y288004D02*
X266996D01*
X236500Y286000D02*
X238504Y288004D01*
X236500Y284000D02*
Y286000D01*
Y270597D02*
Y284000D01*
X293220Y322016D02*
Y326500D01*
X263150Y291850D02*
X266996Y288004D01*
X267496D02*
X269746Y290254D01*
X267493Y288000D02*
X267496Y288004D01*
X267500Y287500D02*
X267652Y287652D01*
X267500Y287500D02*
X272500Y282500D01*
X266996Y288004D02*
X267496D01*
X263150Y291850D02*
Y293000D01*
X269746Y290254D02*
Y291746D01*
X273500Y295500D01*
X242347Y271000D02*
X243000Y270346D01*
X251803D01*
X306846Y251153D02*
X307000Y251000D01*
X236500Y270597D02*
X240404D01*
X321000Y264850D02*
X321150Y265000D01*
X321000Y261500D02*
Y264850D01*
Y257500D02*
Y261500D01*
X277248Y277500D02*
Y282500D01*
X272500D02*
X276854D01*
X335000Y287000D02*
X338000Y284000D01*
X326000Y287000D02*
X335000D01*
X324260Y285260D02*
X326000Y287000D01*
X324260Y281000D02*
Y285260D01*
X323909Y280650D02*
X324260Y281000D01*
X308000Y281240D02*
X308591Y280650D01*
X317000D01*
X323909D01*
X252740Y248500D02*
X259260D01*
X347000Y309000D02*
X352500D01*
X286845Y319155D02*
Y327255D01*
Y319155D02*
X289102Y316898D01*
X293220D01*
X238043Y297532D02*
X238544Y297031D01*
X237000D02*
X238544D01*
X280500Y234500D02*
X288500D01*
X296000D01*
X260500D02*
X280500D01*
X260500Y214500D02*
X280500D01*
Y234500D01*
X296000Y214500D02*
Y234500D01*
Y214500D02*
X316000D01*
Y234500D01*
X331500D01*
Y214500D02*
Y234500D01*
Y214500D02*
X351500D01*
Y234500D01*
X347000Y239000D02*
X351500Y234500D01*
X260000Y235000D02*
Y247760D01*
Y235000D02*
X260500Y234500D01*
X259260Y248500D02*
X260000Y247760D01*
X261000Y246760D01*
X325500Y261500D02*
X329500Y257500D01*
X321000Y261500D02*
X325500D01*
X329500Y255240D02*
X332760D01*
X336500Y251500D01*
Y239500D02*
Y251500D01*
X331500Y234500D02*
X336500Y239500D01*
X329500Y254847D02*
Y257500D01*
D28*
X330000Y315000D02*
X337000D01*
X325276D02*
X330000D01*
Y306350D02*
Y315000D01*
X327650Y304000D02*
X330000Y306350D01*
X334724Y318740D02*
Y324776D01*
X334500Y325000D02*
X334724Y324776D01*
X271000Y325220D02*
X276780D01*
X269130D02*
X271000D01*
X276780D02*
X277000Y325000D01*
X266000Y328350D02*
X269130Y325220D01*
X252000Y293000D02*
X256850D01*
X258000Y224500D02*
X270500D01*
X245350Y237150D02*
X258000Y224500D01*
X245350Y237150D02*
Y256500D01*
X322280Y318280D02*
X324815D01*
X321000Y317000D02*
X322280Y318280D01*
X321000Y312000D02*
Y317000D01*
X322260Y311260D02*
X325276D01*
X321350Y310350D02*
X322260Y311260D01*
X321350Y304000D02*
Y310350D01*
X322000Y311000D02*
X325016D01*
X321000Y312000D02*
X322000Y311000D01*
X237000Y303725D02*
X238689Y305413D01*
X245010D01*
X303000Y257500D02*
X306760D01*
X314000Y258000D02*
Y261375D01*
Y258000D02*
Y264150D01*
X293220Y328750D02*
Y330380D01*
Y326500D02*
Y328750D01*
X291000Y332600D02*
X293220Y330380D01*
X274471Y335620D02*
X276000Y337150D01*
X266971Y335620D02*
X274471D01*
X266000Y334650D02*
X266971Y335620D01*
X337000Y315000D02*
X339650Y312350D01*
X243000Y338949D02*
Y346500D01*
Y283347D02*
X252153D01*
X268500Y274346D02*
X270346Y272500D01*
X277248D01*
X243197Y263850D02*
X252000D01*
X253500Y338252D02*
X257102Y334650D01*
X266000D01*
X242150Y328350D02*
X266000D01*
X334724Y305126D02*
Y311260D01*
X342150Y304000D02*
Y310500D01*
X334815Y318650D02*
X341350D01*
X303750Y330850D02*
X311000D01*
X293220Y328750D02*
X301650D01*
X276000Y330850D02*
X283250D01*
X276000Y337150D02*
X284250D01*
X308197Y274350D02*
X317000D01*
X295752Y272500D02*
X306347D01*
X314500Y250150D02*
Y255153D01*
X321500Y248500D02*
X326654D01*
X295752Y257500D02*
X303000D01*
X263000Y341000D02*
Y346319D01*
X271000Y342500D02*
X274181D01*
X278760Y347079D01*
X291000Y332600D02*
X294400Y336000D01*
X285350Y338250D02*
X291000Y332600D01*
X261000Y268350D02*
X264650D01*
X267500Y267500D02*
X276854D01*
X256825Y277825D02*
X260500Y274150D01*
X256825Y277825D02*
X259000Y280000D01*
X251150Y277850D02*
X256799D01*
X243000Y276654D02*
X252346D01*
X324815Y318280D02*
X325276Y318740D01*
X325016Y311000D02*
X325276Y311260D01*
X294153Y245000D02*
Y252500D01*
X332150Y273000D02*
Y280591D01*
Y267150D02*
Y273000D01*
X317000Y274350D02*
X324500D01*
X267500Y247413D02*
X271768D01*
X276854Y252500D01*
X260000Y254847D02*
X267453D01*
X270106Y257500D01*
X276854D01*
X347000Y309000D02*
Y312000D01*
Y319000D02*
X351500Y323500D01*
X339650Y312350D02*
X345850D01*
X347000Y313500D01*
Y319000D01*
X251650Y256500D02*
Y263500D01*
X276346Y290500D02*
X281500D01*
X276854Y252500D02*
X283500D01*
X284500Y251500D01*
X238500Y332000D02*
X242150Y328350D01*
X238500Y332000D02*
Y348000D01*
X243650Y353150D01*
X254500D01*
X253500Y338252D02*
Y345850D01*
X254500Y346850D01*
X321150Y245150D02*
Y249000D01*
X319000Y243000D02*
X321150Y245150D01*
X306000Y224500D02*
Y237000D01*
X312000Y243000D01*
X319000D01*
D29*
X270779Y325000D02*
X271000Y325220D01*
X270779Y322016D02*
Y325000D01*
D30*
X325276Y318740D02*
Y331776D01*
D31*
X341500Y224500D02*
D03*
X331500Y234500D02*
D03*
X351500D02*
D03*
X331500Y214500D02*
D03*
X351500D02*
D03*
X316000D02*
D03*
X296000D02*
D03*
X316000Y234500D02*
D03*
X296000D02*
D03*
X306000Y224500D02*
D03*
X270500D02*
D03*
X260500Y234500D02*
D03*
X280500D02*
D03*
X260500Y214500D02*
D03*
X280500D02*
D03*
D32*
X312500Y298000D02*
D03*
D33*
X346500Y341500D02*
D03*
D34*
Y371500D02*
D03*
D35*
X368500Y314028D02*
D03*
Y294342D02*
D03*
Y274658D02*
D03*
Y254972D02*
D03*
D36*
X297500Y370000D02*
D03*
X287500D02*
D03*
X277500D02*
D03*
D37*
X267500D02*
D03*
D38*
X270000Y341000D02*
D03*
X261000Y314000D02*
D03*
X241500D02*
D03*
X263000Y341000D02*
D03*
D39*
X317000Y358000D02*
D03*
Y361500D02*
D03*
X313500D02*
D03*
X310000D02*
D03*
X306500D02*
D03*
X262000Y362500D02*
D03*
X258500D02*
D03*
Y359500D02*
D03*
X294500Y352000D02*
D03*
X298000D02*
D03*
X301500D02*
D03*
X279000D02*
D03*
X282500D02*
D03*
X286000D02*
D03*
X275000Y355500D02*
D03*
Y352000D02*
D03*
X264000D02*
D03*
X267500D02*
D03*
X271000D02*
D03*
X290500D02*
D03*
X288000Y355500D02*
D03*
X275000Y359000D02*
D03*
X271500D02*
D03*
Y355500D02*
D03*
X306500Y347500D02*
D03*
X310000D02*
D03*
X313500D02*
D03*
X306500Y351000D02*
D03*
X310000D02*
D03*
X313500D02*
D03*
Y354500D02*
D03*
X310000D02*
D03*
X306500D02*
D03*
X303000Y355500D02*
D03*
X283000Y362500D02*
D03*
X273000D02*
D03*
X260500Y352000D02*
D03*
X262000Y359500D02*
D03*
Y355500D02*
D03*
X306500Y358000D02*
D03*
X310000D02*
D03*
X313500D02*
D03*
X303000Y359000D02*
D03*
X317000Y347500D02*
D03*
Y351000D02*
D03*
Y354500D02*
D03*
D40*
X277500Y311500D02*
D03*
X282000Y319500D02*
D03*
X270000Y285000D02*
D03*
X285500Y282500D02*
D03*
D41*
X236000Y310000D02*
D03*
X334500Y325000D02*
D03*
X277000D02*
D03*
X361000Y239000D02*
D03*
X347000Y289000D02*
D03*
X338000Y284000D02*
D03*
X251000Y292500D02*
D03*
X260500Y281500D02*
D03*
X294400Y336000D02*
D03*
X236500Y284000D02*
D03*
X259500Y263500D02*
D03*
X352500Y309000D02*
D03*
D42*
X286500Y299000D02*
D03*
X282500D02*
D03*
X278500D02*
D03*
X248500Y345500D02*
D03*
X246500Y312000D02*
D03*
X251859Y302984D02*
D03*
X332150Y267150D02*
D03*
X243000Y346500D02*
D03*
M02*
