%FSLAX25Y25*%
%MOIN*%
G70*
G01*
G75*
G04 Layer_Physical_Order=1*
G04 Layer_Color=255*
%ADD10O,0.09843X0.02756*%
%ADD11O,0.02362X0.08661*%
%ADD12R,0.03740X0.05315*%
%ADD13R,0.02000X0.02000*%
%ADD14R,0.04134X0.05512*%
%ADD15R,0.05512X0.04134*%
%ADD16R,0.06300X0.05500*%
%ADD17O,0.06693X0.01378*%
%ADD18R,0.03543X0.02559*%
%ADD19R,0.03543X0.03740*%
%ADD20R,0.03937X0.03937*%
%ADD21R,0.05315X0.03740*%
%ADD22R,0.06102X0.09449*%
%ADD23R,0.03937X0.03937*%
%ADD24C,0.05906*%
%ADD25C,0.01000*%
%ADD26C,0.02000*%
%ADD27C,0.01600*%
%ADD28C,0.03200*%
%ADD29C,0.02800*%
%ADD30C,0.01400*%
%ADD31C,0.10827*%
%ADD32C,0.10000*%
%ADD33R,0.07480X0.10236*%
%ADD34O,0.07480X0.10236*%
%ADD35O,0.09843X0.06693*%
%ADD36R,0.07874X0.07874*%
%ADD37C,0.07874*%
%ADD38R,0.05906X0.05906*%
%ADD39C,0.03400*%
%ADD40C,0.02400*%
%ADD41C,0.05000*%
%ADD42C,0.03150*%
%ADD43C,0.03000*%
G36*
X257828Y313257D02*
X258324Y312926D01*
X258688Y312853D01*
X258751Y312702D01*
X259164Y312164D01*
X259701Y311751D01*
X260328Y311491D01*
X261000Y311403D01*
X261672Y311491D01*
X262298Y311751D01*
X262836Y312164D01*
X263249Y312702D01*
X263294Y312809D01*
X266211D01*
X266528Y312423D01*
X266400Y311779D01*
X266531Y311121D01*
X266904Y310562D01*
Y310438D01*
X266531Y309879D01*
X266400Y309221D01*
X266528Y308577D01*
X266211Y308191D01*
X259472D01*
X253863Y313800D01*
X254008Y314279D01*
X254351Y314347D01*
X255072Y314829D01*
X255328Y315211D01*
X255825Y315260D01*
X257828Y313257D01*
D02*
G37*
G36*
X349878Y306668D02*
Y303586D01*
X346914Y300622D01*
X345020D01*
Y307000D01*
X346803D01*
X347000Y306961D01*
X347197Y307000D01*
X349000D01*
Y307165D01*
X349497D01*
X349878Y306668D01*
D02*
G37*
G36*
X262343Y325480D02*
X265986D01*
X267365Y324102D01*
X267407Y323889D01*
X267373Y323547D01*
X266904Y323233D01*
X266531Y322675D01*
X266400Y322016D01*
X266531Y321357D01*
X266904Y320798D01*
Y320674D01*
X266531Y320116D01*
X266400Y319457D01*
X266528Y318813D01*
X266211Y318427D01*
X263736D01*
X256314Y325849D01*
X256505Y326311D01*
X262343D01*
Y325480D01*
D02*
G37*
G36*
X384997Y377145D02*
X383876Y250020D01*
X357354Y249989D01*
X357000Y250342D01*
Y263467D01*
X357843D01*
X363570Y257740D01*
X363129Y257164D01*
X362691Y256107D01*
X362541Y254972D01*
X362691Y253838D01*
X363129Y252781D01*
X363825Y251872D01*
X364733Y251176D01*
X365791Y250738D01*
X366925Y250588D01*
X370075D01*
X371210Y250738D01*
X372267Y251176D01*
X373175Y251872D01*
X373871Y252781D01*
X374309Y253838D01*
X374459Y254972D01*
X374309Y256107D01*
X373871Y257164D01*
X373175Y258072D01*
X372267Y258769D01*
X371210Y259207D01*
X370075Y259356D01*
X366925D01*
X366354Y259281D01*
X359558Y266077D01*
X359062Y266409D01*
X358476Y266526D01*
X357000D01*
Y275475D01*
X362270D01*
X362599Y275099D01*
X362541Y274658D01*
X362691Y273523D01*
X363129Y272465D01*
X363825Y271557D01*
X364733Y270861D01*
X365791Y270423D01*
X366925Y270273D01*
X370075D01*
X371210Y270423D01*
X372267Y270861D01*
X373175Y271557D01*
X373871Y272465D01*
X374309Y273523D01*
X374459Y274658D01*
X374309Y275792D01*
X373871Y276850D01*
X373175Y277757D01*
X372267Y278454D01*
X371210Y278892D01*
X370075Y279041D01*
X366925D01*
X365791Y278892D01*
X364925Y278533D01*
X357000D01*
Y307000D01*
X355910Y308090D01*
X356030Y309000D01*
X355910Y309914D01*
X355557Y310765D01*
X354996Y311496D01*
X354265Y312057D01*
X353414Y312410D01*
X352500Y312530D01*
X351586Y312410D01*
X350735Y312057D01*
X350004Y311496D01*
X349513Y310856D01*
X349039Y311017D01*
Y312000D01*
X348884Y312780D01*
X348442Y313442D01*
X347780Y313884D01*
X347000Y314039D01*
Y319000D01*
X350000Y322000D01*
Y341000D01*
X342615D01*
X342597Y341133D01*
X342554Y341259D01*
X342528Y341390D01*
X342491Y341446D01*
X342469Y341510D01*
X342381Y341610D01*
X342307Y341721D01*
X342251Y341758D01*
X342207Y341809D01*
X342087Y341868D01*
X341976Y341942D01*
X341910Y341955D01*
X341850Y341985D01*
X341717Y341994D01*
X341586Y342020D01*
X339882D01*
X339690Y342481D01*
X348854Y351646D01*
X348854Y351646D01*
X349271Y352189D01*
X349380Y352451D01*
X349533Y352821D01*
X349622Y353500D01*
X349622Y353500D01*
Y364516D01*
X350084Y364707D01*
X365878Y348914D01*
Y318274D01*
X365791Y318262D01*
X364733Y317824D01*
X363825Y317127D01*
X363129Y316219D01*
X362691Y315162D01*
X362541Y314028D01*
X362691Y312893D01*
X363129Y311836D01*
X363825Y310928D01*
X364733Y310231D01*
X365791Y309793D01*
X366925Y309644D01*
X370075D01*
X371210Y309793D01*
X372267Y310231D01*
X373175Y310928D01*
X373871Y311836D01*
X374309Y312893D01*
X374459Y314028D01*
X374309Y315162D01*
X373871Y316219D01*
X373175Y317127D01*
X372267Y317824D01*
X371210Y318262D01*
X371122Y318274D01*
Y350000D01*
X371122Y350000D01*
X371033Y350679D01*
X370771Y351311D01*
X370354Y351854D01*
X370354Y351854D01*
X351437Y370772D01*
Y376437D01*
X341563D01*
Y374122D01*
X301369D01*
X300881Y374759D01*
X299890Y375518D01*
X298737Y375996D01*
X297500Y376159D01*
X296263Y375996D01*
X295110Y375518D01*
X294119Y374759D01*
X293359Y373768D01*
X292882Y372615D01*
X292750Y371614D01*
X292250D01*
X292118Y372615D01*
X291640Y373768D01*
X290881Y374759D01*
X289891Y375518D01*
X288737Y375996D01*
X287500Y376159D01*
X286263Y375996D01*
X285109Y375518D01*
X284119Y374759D01*
X283360Y373768D01*
X282882Y372615D01*
X282750Y371614D01*
X282250D01*
X282118Y372615D01*
X281641Y373768D01*
X280881Y374759D01*
X279890Y375518D01*
X278737Y375996D01*
X277500Y376159D01*
X276263Y375996D01*
X275110Y375518D01*
X274119Y374759D01*
X273359Y373768D01*
X272882Y372615D01*
X272739Y371531D01*
X272240Y371564D01*
Y376118D01*
X262760D01*
Y363882D01*
X264878D01*
Y359791D01*
X264728D01*
Y354051D01*
X270272D01*
Y359791D01*
X270122D01*
Y363882D01*
X272240D01*
Y368436D01*
X272739Y368469D01*
X272882Y367385D01*
X273359Y366231D01*
X274119Y365241D01*
X274878Y364660D01*
Y361921D01*
X274878Y361921D01*
X274967Y361243D01*
X275229Y360610D01*
X275646Y360067D01*
X279728Y355984D01*
Y354051D01*
X285272D01*
Y359791D01*
X283339D01*
X280122Y363007D01*
Y364660D01*
X280881Y365241D01*
X281641Y366231D01*
X282118Y367385D01*
X282250Y368386D01*
X282750D01*
X282882Y367385D01*
X283360Y366231D01*
X284119Y365241D01*
X284878Y364660D01*
Y362500D01*
X284878Y362500D01*
X284967Y361821D01*
X285229Y361189D01*
X285646Y360646D01*
X291224Y355067D01*
X291224Y355067D01*
X291768Y354650D01*
X292400Y354388D01*
X293079Y354299D01*
X293079Y354299D01*
X295228D01*
Y354051D01*
X300772D01*
Y359791D01*
X295228D01*
Y359544D01*
X294165D01*
X290122Y363586D01*
Y364660D01*
X290881Y365241D01*
X291640Y366231D01*
X292118Y367385D01*
X292250Y368386D01*
X292750D01*
X292882Y367385D01*
X293359Y366231D01*
X294119Y365241D01*
X295110Y364481D01*
X296263Y364004D01*
X297500Y363841D01*
X298737Y364004D01*
X299890Y364481D01*
X300881Y365241D01*
X301641Y366231D01*
X302118Y367385D01*
X302281Y368622D01*
Y368878D01*
X341563D01*
Y366563D01*
X344378D01*
Y354586D01*
X331399Y341608D01*
X330902Y341657D01*
X330859Y341721D01*
X330528Y341942D01*
X330138Y342020D01*
X324423D01*
X319767Y346680D01*
X319725Y346708D01*
X319692Y346747D01*
X319561Y346818D01*
X319436Y346901D01*
X319386Y346911D01*
X319342Y346935D01*
X319193Y346949D01*
X319046Y346979D01*
X318996Y346969D01*
X318946Y346974D01*
X318486Y346929D01*
X318438Y346914D01*
X318387D01*
X318249Y346857D01*
X318106Y346813D01*
X318067Y346781D01*
X318020Y346762D01*
X317461Y346388D01*
X317000Y346297D01*
X316539Y346388D01*
X315980Y346762D01*
X315888Y346800D01*
X315804Y346856D01*
X315706Y346876D01*
X315613Y346914D01*
X315512D01*
X315414Y346934D01*
X315086D01*
X314988Y346914D01*
X314887D01*
X314794Y346876D01*
X314696Y346856D01*
X314612Y346800D01*
X314520Y346762D01*
X313961Y346388D01*
X313500Y346297D01*
X313039Y346388D01*
X312480Y346762D01*
X312388Y346800D01*
X312304Y346856D01*
X312206Y346876D01*
X312113Y346914D01*
X312012D01*
X311914Y346934D01*
X311586D01*
X311488Y346914D01*
X311387D01*
X311294Y346876D01*
X311196Y346856D01*
X311112Y346800D01*
X311020Y346762D01*
X310461Y346388D01*
X310000Y346297D01*
X309539Y346388D01*
X308980Y346762D01*
X308888Y346800D01*
X308804Y346856D01*
X308706Y346876D01*
X308613Y346914D01*
X308512D01*
X308414Y346934D01*
X308086D01*
X307988Y346914D01*
X307887D01*
X307794Y346876D01*
X307696Y346856D01*
X307612Y346800D01*
X307520Y346762D01*
X306961Y346388D01*
X306500Y346297D01*
X306039Y346388D01*
X305519Y346736D01*
X305381Y346793D01*
X305249Y346864D01*
X305198Y346869D01*
X305152Y346888D01*
X305002D01*
X304853Y346903D01*
X304804Y346888D01*
X304754D01*
X304615Y346831D01*
X304472Y346787D01*
X304031Y346551D01*
X303915Y346456D01*
X303791Y346373D01*
X303763Y346331D01*
X303724Y346299D01*
X303653Y346167D01*
X303570Y346042D01*
X303560Y345993D01*
X303536Y345948D01*
X303521Y345799D01*
X303492Y345652D01*
Y345000D01*
X298501D01*
X297031Y346470D01*
Y349949D01*
X292430D01*
X292430Y349950D01*
X292402Y349992D01*
X292387Y350040D01*
X292292Y350156D01*
X292209Y350280D01*
X292167Y350308D01*
X292135Y350347D01*
X291748Y350665D01*
X291704Y350689D01*
X291668Y350724D01*
X291530Y350782D01*
X291398Y350852D01*
X291347Y350857D01*
X291301Y350877D01*
X291151D01*
X291002Y350891D01*
X290953Y350877D01*
X290903D01*
X290500Y350797D01*
X289989Y350898D01*
X289916Y350947D01*
X289818Y350966D01*
X289725Y351005D01*
X289625D01*
X289526Y351024D01*
X289012Y351024D01*
X288803Y350983D01*
X288622Y350947D01*
X288622Y350947D01*
X288621Y350947D01*
X288447Y350830D01*
X288291Y350726D01*
X288291Y350726D01*
X288291Y350726D01*
X288186Y350569D01*
X288070Y350395D01*
X288070Y350395D01*
X288070Y350395D01*
X288034Y350214D01*
X287992Y350005D01*
Y349949D01*
X287992Y349949D01*
Y345228D01*
X284488D01*
Y349555D01*
X284478Y349605D01*
X284483Y349655D01*
X284440Y349799D01*
X284411Y349946D01*
X284382Y349988D01*
X284368Y350036D01*
X284273Y350152D01*
X284190Y350276D01*
X284147Y350305D01*
X284115Y350344D01*
X283729Y350661D01*
X283684Y350685D01*
X283648Y350720D01*
X283510Y350778D01*
X283378Y350848D01*
X283328Y350853D01*
X283281Y350873D01*
X283131D01*
X282982Y350887D01*
X282934Y350873D01*
X282883D01*
X282500Y350797D01*
X282117Y350873D01*
X282066D01*
X282018Y350887D01*
X281869Y350873D01*
X281719D01*
X281672Y350853D01*
X281622Y350848D01*
X281490Y350778D01*
X281351Y350720D01*
X281316Y350685D01*
X281271Y350661D01*
X280885Y350344D01*
X280853Y350305D01*
X280810Y350276D01*
X280727Y350152D01*
X280632Y350036D01*
X280618Y349988D01*
X280592Y349949D01*
X275988D01*
Y347191D01*
X273797Y345000D01*
X269847D01*
X269721Y345067D01*
X269596Y345151D01*
X269547Y345161D01*
X269502Y345184D01*
X269488Y345186D01*
Y349555D01*
X269478Y349605D01*
X269483Y349655D01*
X269440Y349799D01*
X269410Y349946D01*
X269382Y349988D01*
X269368Y350036D01*
X269273Y350152D01*
X269190Y350276D01*
X269147Y350305D01*
X269115Y350344D01*
X268729Y350661D01*
X268684Y350685D01*
X268649Y350720D01*
X268510Y350778D01*
X268378Y350848D01*
X268328Y350853D01*
X268281Y350873D01*
X268131D01*
X267982Y350887D01*
X267934Y350873D01*
X267883D01*
X267500Y350797D01*
X267117Y350873D01*
X267066D01*
X267018Y350887D01*
X266869Y350873D01*
X266719D01*
X266672Y350853D01*
X266622Y350848D01*
X266490Y350778D01*
X266352Y350720D01*
X266316Y350685D01*
X266271Y350661D01*
X265885Y350344D01*
X265853Y350305D01*
X265810Y350276D01*
X265727Y350152D01*
X265632Y350036D01*
X265618Y349988D01*
X265592Y349949D01*
X261881D01*
X261792Y350056D01*
X261709Y350181D01*
X261667Y350209D01*
X261635Y350248D01*
X261248Y350565D01*
X261204Y350589D01*
X261168Y350625D01*
X261030Y350682D01*
X260898Y350753D01*
X260847Y350758D01*
X260801Y350777D01*
X260651Y350777D01*
X260545Y350788D01*
X259989Y350898D01*
X259922Y350943D01*
X259824Y350962D01*
X259731Y351001D01*
X259631D01*
X259532Y351020D01*
X258511Y351020D01*
X258157Y351374D01*
Y356020D01*
X256020D01*
Y377500D01*
X384645D01*
X384997Y377145D01*
D02*
G37*
G36*
X308841Y309496D02*
X308649Y309032D01*
X308513Y308000D01*
X308649Y306968D01*
X309047Y306007D01*
X309681Y305181D01*
X309913Y305003D01*
X309752Y304529D01*
X307000D01*
X306415Y304413D01*
X305919Y304081D01*
X305409Y304591D01*
X305351Y305032D01*
X304953Y305993D01*
X304319Y306819D01*
X303493Y307453D01*
X302532Y307851D01*
X301500Y307987D01*
X300468Y307851D01*
X299507Y307453D01*
X298681Y306819D01*
X298047Y305993D01*
X297714Y305188D01*
X297451Y305163D01*
X297194Y305592D01*
X297469Y306002D01*
X297600Y306661D01*
X297469Y307320D01*
X297096Y307879D01*
Y308003D01*
X297469Y308561D01*
X297600Y309221D01*
X297472Y309864D01*
X297789Y310250D01*
X308087D01*
X308841Y309496D01*
D02*
G37*
G36*
X355000Y266526D02*
X348051D01*
Y270721D01*
X345000D01*
Y271280D01*
X348051D01*
Y275475D01*
X355000D01*
Y266526D01*
D02*
G37*
G36*
Y250000D02*
X348835D01*
X348696Y250702D01*
X348298Y251298D01*
X345000Y254595D01*
Y259272D01*
X348051D01*
Y263467D01*
X355000D01*
Y250000D01*
D02*
G37*
G36*
Y300709D02*
Y278533D01*
X348051D01*
Y282728D01*
X345000D01*
Y285590D01*
X345416Y285868D01*
X346086Y285590D01*
X347000Y285470D01*
X347914Y285590D01*
X348765Y285943D01*
X349496Y286504D01*
X350057Y287235D01*
X350410Y288086D01*
X350530Y289000D01*
X350410Y289914D01*
X350057Y290765D01*
X349496Y291496D01*
X348765Y292057D01*
X347914Y292410D01*
X347000Y292530D01*
X346086Y292410D01*
X345851Y292312D01*
X345081Y293081D01*
X345000Y293136D01*
Y295025D01*
D01*
Y295025D01*
X345353Y295378D01*
X348000D01*
X348000Y295378D01*
X348679Y295467D01*
X349311Y295729D01*
X349854Y296146D01*
X354354Y300646D01*
X354354Y300646D01*
X354526Y300870D01*
X355000Y300709D01*
D02*
G37*
G36*
X267463Y297393D02*
X268122Y297262D01*
X271892D01*
X272202Y296798D01*
X270405Y295000D01*
X266020D01*
Y296657D01*
X260279D01*
Y295000D01*
X259720D01*
Y296657D01*
X253980D01*
Y295039D01*
X253440D01*
X252765Y295557D01*
X251914Y295910D01*
X251000Y296030D01*
X250086Y295910D01*
X249235Y295557D01*
X249215Y295542D01*
X248766Y295763D01*
Y297455D01*
X267371D01*
X267463Y297393D01*
D02*
G37*
G36*
X318993Y345949D02*
X319042Y345949D01*
X319080Y345918D01*
X319093Y345911D01*
X322461Y342541D01*
X323701Y341299D01*
X323701D01*
X323702Y341299D01*
Y341299D01*
X323702D01*
X324000Y341000D01*
X329711D01*
X329890Y340622D01*
X329470Y339994D01*
X328030Y338239D01*
X323421Y333630D01*
X323005Y333087D01*
X322743Y332454D01*
X322653Y331776D01*
X322743Y331097D01*
X322829Y330889D01*
Y321020D01*
X322504D01*
Y320319D01*
X322280D01*
X321499Y320163D01*
X320838Y319722D01*
X319558Y318442D01*
X319508Y318367D01*
X319029Y318512D01*
Y337298D01*
X318913Y337884D01*
X318581Y338380D01*
X313380Y343581D01*
X312884Y343913D01*
X312298Y344029D01*
X304512D01*
Y344209D01*
X304512D01*
Y345552D01*
X304521Y345600D01*
Y345634D01*
X304962Y345870D01*
X304991Y345851D01*
X305036Y345832D01*
X305642Y345428D01*
X306500Y345257D01*
X307060Y345368D01*
X307159Y345388D01*
X307159D01*
X307159Y345388D01*
X307358Y345428D01*
X307527Y345540D01*
X307527Y345540D01*
X307527Y345540D01*
X307634Y345612D01*
X308003Y345858D01*
X308003Y345858D01*
X308041Y345884D01*
X308086Y345914D01*
X308086D01*
X308414D01*
D01*
X308414Y345914D01*
X308494Y345860D01*
X308497Y345858D01*
D01*
X308973Y345540D01*
X308973Y345540D01*
X309142Y345428D01*
X309341Y345388D01*
X309341D01*
X309341D01*
X310000Y345257D01*
X310560Y345368D01*
X310660Y345388D01*
X310660D01*
X310660Y345388D01*
X310858Y345428D01*
X311027Y345540D01*
X311027Y345540D01*
X311027Y345540D01*
X311134Y345612D01*
X311503Y345858D01*
X311503Y345858D01*
X311541Y345884D01*
X311586Y345914D01*
X311586D01*
X311914D01*
D01*
X311914Y345914D01*
X311994Y345860D01*
X311997Y345858D01*
D01*
X312473Y345540D01*
X312473Y345540D01*
X312642Y345428D01*
X312841Y345388D01*
X312841D01*
X312841D01*
X313500Y345257D01*
X314060Y345368D01*
X314159Y345388D01*
X314159D01*
X314159Y345388D01*
X314358Y345428D01*
X314527Y345540D01*
X314527Y345540D01*
X314527Y345540D01*
X314634Y345612D01*
X315003Y345858D01*
X315003Y345858D01*
X315041Y345884D01*
X315086Y345914D01*
X315086D01*
X315414D01*
D01*
X315414Y345914D01*
X315494Y345860D01*
X315497Y345858D01*
D01*
X315973Y345540D01*
X315973Y345540D01*
X316142Y345428D01*
X316340Y345388D01*
X316340D01*
X316340D01*
X317000Y345257D01*
X317560Y345368D01*
X317659Y345388D01*
X317659D01*
X317659Y345388D01*
X317858Y345428D01*
X318027Y345540D01*
X318027Y345540D01*
X318027Y345540D01*
X318530Y345876D01*
X318545Y345881D01*
X318589Y345905D01*
X318639Y345915D01*
X318653Y345920D01*
X318978Y345952D01*
X318993Y345949D01*
D02*
G37*
G36*
X307343Y334279D02*
X311744D01*
X312022Y333864D01*
X311963Y333720D01*
X307343D01*
Y332890D01*
X303750D01*
X302970Y332734D01*
X302619Y332500D01*
X302450D01*
Y328750D01*
Y325000D01*
X305800D01*
Y328811D01*
X307343D01*
Y327980D01*
X310200D01*
Y330850D01*
X311800D01*
Y327980D01*
X311963D01*
X312154Y327518D01*
X305622Y320986D01*
X297789D01*
X297601Y321216D01*
X293220D01*
Y322816D01*
X297375D01*
X297096Y323233D01*
X296537Y323607D01*
X295878Y323738D01*
X295056D01*
Y325647D01*
X295104Y325720D01*
X295260Y326500D01*
Y326711D01*
X297500D01*
Y325000D01*
X300850D01*
Y328750D01*
Y332500D01*
X297500D01*
Y330789D01*
X295178D01*
X295104Y331160D01*
X294662Y331821D01*
X294459Y332025D01*
X294619Y332499D01*
X295314Y332590D01*
X296165Y332943D01*
X296896Y333504D01*
X297457Y334235D01*
X297567Y334500D01*
X305800D01*
Y336721D01*
X307343D01*
Y334279D01*
D02*
G37*
G36*
X281200Y325000D02*
X285009D01*
Y319736D01*
X285009Y319736D01*
Y319264D01*
X285009Y319264D01*
Y319155D01*
X285126Y318570D01*
X285149Y318453D01*
X285547Y317858D01*
X287805Y315600D01*
X288400Y315202D01*
X288517Y315179D01*
X288931Y315096D01*
X288972Y314998D01*
X288841Y314339D01*
X288972Y313680D01*
X289345Y313121D01*
Y312997D01*
X288972Y312439D01*
X288841Y311779D01*
X288972Y311121D01*
X289345Y310562D01*
Y310438D01*
X288972Y309879D01*
X288841Y309221D01*
X288972Y308561D01*
X288972Y308561D01*
X288972Y308561D01*
X288973Y308560D01*
X288755Y308110D01*
X288576Y308074D01*
X288080Y307743D01*
X285419Y305081D01*
X285087Y304585D01*
X284971Y304000D01*
Y301230D01*
X284574Y300926D01*
X284500Y300829D01*
X284000D01*
X283926Y300926D01*
X283529Y301230D01*
Y312500D01*
X283413Y313085D01*
X283081Y313581D01*
X276125Y320538D01*
X275629Y320870D01*
X275043Y320986D01*
X275043Y320986D01*
D01*
X275028Y321357D01*
X275028Y321357D01*
X275028Y321357D01*
X275075Y321591D01*
X275516Y321827D01*
X276086Y321590D01*
X277000Y321470D01*
X277914Y321590D01*
X278765Y321943D01*
X279496Y322504D01*
X280057Y323235D01*
X280410Y324086D01*
X280530Y325000D01*
X280410Y325914D01*
X280057Y326765D01*
X279496Y327496D01*
X279482Y327507D01*
X279643Y327980D01*
X279658D01*
Y328811D01*
X281200D01*
Y325000D01*
D02*
G37*
G36*
X255000Y377500D02*
Y356020D01*
X250842D01*
Y355189D01*
X243650D01*
X242869Y355034D01*
X242208Y354591D01*
X237058Y349442D01*
X236616Y348780D01*
X236461Y348000D01*
Y342472D01*
X236445Y342449D01*
X236276Y341598D01*
Y335299D01*
X236445Y334448D01*
X236461Y334425D01*
Y332000D01*
X236616Y331220D01*
X237058Y330558D01*
X240197Y327419D01*
X240052Y326940D01*
X239915Y326913D01*
X239419Y326581D01*
X237479Y324641D01*
X236928Y324273D01*
X236445Y323552D01*
X236276Y322701D01*
Y316402D01*
X236445Y315551D01*
X236928Y314829D01*
X237649Y314347D01*
X238500Y314178D01*
X238511Y314180D01*
X238918Y313889D01*
X238991Y313328D01*
X239251Y312702D01*
X239664Y312164D01*
X240201Y311751D01*
X240828Y311491D01*
X241500Y311403D01*
X242172Y311491D01*
X242798Y311751D01*
X243336Y312164D01*
X243749Y312702D01*
X244008Y313328D01*
X244097Y314000D01*
X244059Y314289D01*
X244351Y314347D01*
X245073Y314829D01*
X245555Y315551D01*
X245724Y316402D01*
Y318219D01*
X246276D01*
Y316402D01*
X246445Y315551D01*
X246927Y314829D01*
X247230Y314627D01*
X247256Y314429D01*
X247224Y314101D01*
X246638Y313858D01*
X246074Y313426D01*
X245642Y312862D01*
X245370Y312205D01*
X245277Y311500D01*
X245370Y310795D01*
X245642Y310138D01*
X246074Y309574D01*
X246638Y309142D01*
X247051Y308971D01*
X246953Y308480D01*
X241254D01*
Y304571D01*
X239930Y303247D01*
X239469Y303438D01*
Y303547D01*
X236500D01*
Y305147D01*
X239469D01*
Y307315D01*
X238917D01*
X238696Y307764D01*
X239057Y308235D01*
X239410Y309086D01*
X239425Y309200D01*
X236000D01*
Y310000D01*
X235200D01*
Y313425D01*
X235086Y313410D01*
X234235Y313057D01*
X233504Y312496D01*
X232943Y311765D01*
X232590Y310914D01*
X232499Y310221D01*
X232000Y310254D01*
Y364989D01*
X232495Y365063D01*
X232676Y364466D01*
X233408Y363095D01*
X234394Y361894D01*
X235595Y360908D01*
X236966Y360175D01*
X238453Y359724D01*
X240000Y359572D01*
X241547Y359724D01*
X243034Y360175D01*
X244405Y360908D01*
X245606Y361894D01*
X246592Y363095D01*
X247324Y364466D01*
X247776Y365953D01*
X247928Y367500D01*
X247776Y369047D01*
X247324Y370534D01*
X246592Y371904D01*
X245606Y373106D01*
X244405Y374092D01*
X243034Y374825D01*
X241547Y375276D01*
X240000Y375428D01*
X238453Y375276D01*
X236966Y374825D01*
X235595Y374092D01*
X234394Y373106D01*
X233408Y371904D01*
X232676Y370534D01*
X232495Y369937D01*
X232000Y370011D01*
Y378000D01*
X255000D01*
Y377500D01*
D02*
G37*
G36*
X289526Y350005D02*
X289642Y349928D01*
X289790Y349898D01*
X289790Y349898D01*
X289790D01*
X290500Y349757D01*
X290699Y349797D01*
D01*
D01*
X290949Y349846D01*
X291036Y349863D01*
X291051Y349862D01*
X291099Y349867D01*
X291140Y349840D01*
X291154Y349834D01*
X291436Y349602D01*
X291445Y349589D01*
X291480Y349554D01*
X291488Y349539D01*
Y344209D01*
X294967D01*
X297500Y341676D01*
Y338487D01*
X297026Y338326D01*
X296896Y338496D01*
X296165Y339057D01*
X295314Y339410D01*
X295200Y339425D01*
Y336000D01*
X293600D01*
Y339425D01*
X293486Y339410D01*
X292635Y339057D01*
X291904Y338496D01*
X291343Y337765D01*
X290990Y336914D01*
X290899Y336219D01*
X290425Y336059D01*
X289500Y336984D01*
Y337450D01*
X285350D01*
Y338250D01*
X284550D01*
Y342000D01*
X281200D01*
Y339189D01*
X279658D01*
Y340020D01*
X276800D01*
Y337150D01*
X275200D01*
Y340020D01*
X274514D01*
X274465Y340517D01*
X274961Y340616D01*
X275623Y341058D01*
X278774Y344209D01*
X281532D01*
Y349535D01*
X281539Y349550D01*
X281575Y349585D01*
X281584Y349598D01*
X281866Y349830D01*
X281880Y349836D01*
X281921Y349863D01*
X281969Y349858D01*
X281984Y349859D01*
X282500Y349757D01*
X283016Y349859D01*
X283031Y349858D01*
X283080Y349863D01*
X283120Y349836D01*
X283134Y349830D01*
X283416Y349598D01*
X283425Y349585D01*
X283459Y349551D01*
X283464Y349503D01*
X283469Y349488D01*
Y345228D01*
Y344209D01*
X289012D01*
Y349904D01*
X289029Y349988D01*
X289112Y350005D01*
X289426Y350005D01*
X289426D01*
X289526Y350005D01*
X289526Y350005D01*
D02*
G37*
G36*
X259532Y350001D02*
X259642Y349928D01*
X259790Y349898D01*
D01*
X260062Y349844D01*
X260500Y349757D01*
X260536Y349764D01*
X260551Y349762D01*
X260599Y349767D01*
X260640Y349740D01*
X260654Y349734D01*
X260936Y349503D01*
X260945Y349490D01*
X260980Y349454D01*
X260988Y349440D01*
Y346457D01*
X260961Y346319D01*
Y342572D01*
X260751Y342299D01*
X260491Y341672D01*
X260403Y341000D01*
X260491Y340328D01*
X260751Y339702D01*
X261164Y339164D01*
X261701Y338751D01*
X262328Y338492D01*
X263000Y338403D01*
X263672Y338492D01*
X264299Y338751D01*
X264836Y339164D01*
X265249Y339702D01*
X265509Y340328D01*
X265597Y341000D01*
X265509Y341672D01*
X265249Y342299D01*
X265039Y342572D01*
Y344209D01*
X266531D01*
Y349535D01*
X266539Y349550D01*
X266575Y349585D01*
X266584Y349598D01*
X266866Y349830D01*
X266880Y349836D01*
X266920Y349863D01*
X266969Y349858D01*
X266984Y349859D01*
X267500Y349757D01*
X268016Y349859D01*
X268031Y349858D01*
X268079Y349863D01*
X268120Y349836D01*
X268134Y349830D01*
X268416Y349598D01*
X268425Y349585D01*
X268459Y349551D01*
X268464Y349503D01*
X268468Y349488D01*
Y345186D01*
Y344209D01*
X269181D01*
X269201Y344200D01*
X269240Y344168D01*
X269257Y344159D01*
X269379Y343674D01*
X269246Y343475D01*
X268702Y343249D01*
X268164Y342836D01*
X267751Y342299D01*
X267492Y341672D01*
X267403Y341000D01*
X267492Y340328D01*
X267751Y339702D01*
X268164Y339164D01*
X268702Y338751D01*
X269328Y338492D01*
X270000Y338403D01*
X270672Y338492D01*
X271299Y338751D01*
X271836Y339164D01*
X271869Y339206D01*
X272342Y339046D01*
Y337659D01*
X266971D01*
X266800Y337626D01*
Y334650D01*
Y331780D01*
X269657D01*
Y333581D01*
X272342D01*
Y327980D01*
X274357D01*
X274464Y327666D01*
X274172Y327260D01*
X269975D01*
X269657Y327577D01*
Y331221D01*
X262343D01*
Y330390D01*
X242994D01*
X240539Y332845D01*
Y334425D01*
X240555Y334448D01*
X240724Y335299D01*
Y337894D01*
X240875Y337940D01*
X241276Y337642D01*
Y335299D01*
X241445Y334448D01*
X241928Y333727D01*
X242649Y333245D01*
X243500Y333075D01*
X244351Y333245D01*
X245073Y333727D01*
X245555Y334448D01*
X245724Y335299D01*
Y341598D01*
X245555Y342449D01*
X245073Y343171D01*
X245039Y343193D01*
Y344722D01*
X245358Y345138D01*
X245358D01*
D01*
X245358D01*
X245851Y344934D01*
X245869Y344795D01*
X246142Y344138D01*
X246574Y343574D01*
X246746Y343443D01*
X246927Y343171D01*
X246445Y342449D01*
X246276Y341598D01*
Y335299D01*
X246445Y334448D01*
X246927Y333727D01*
X247649Y333245D01*
X248500Y333075D01*
X249351Y333245D01*
X250073Y333727D01*
X250555Y334448D01*
X250724Y335299D01*
Y341598D01*
X250555Y342449D01*
X250073Y343171D01*
X250254Y343443D01*
X250426Y343574D01*
X250759Y344009D01*
X250842Y343980D01*
Y343980D01*
X250842Y343980D01*
X251461D01*
Y342472D01*
X251445Y342449D01*
X251276Y341598D01*
Y339249D01*
X253500D01*
Y338449D01*
X254300D01*
Y333235D01*
X254351Y333245D01*
X255072Y333727D01*
X255135Y333733D01*
X255660Y333208D01*
X256322Y332766D01*
X257102Y332610D01*
X257102Y332610D01*
X262343D01*
Y331780D01*
X265200D01*
Y334650D01*
Y337520D01*
X262343D01*
Y336689D01*
X257947D01*
X255724Y338912D01*
Y341598D01*
X255555Y342449D01*
X255539Y342472D01*
Y343980D01*
X258157D01*
Y346050D01*
X254500D01*
Y347650D01*
X258157D01*
Y349721D01*
X258157D01*
Y350000D01*
X259432Y350001D01*
X259432Y350001D01*
X259532Y350001D01*
X259532Y350001D01*
D02*
G37*
G36*
X341518Y340994D02*
X341581D01*
X341589Y340932D01*
X341599Y340900D01*
X341690Y340211D01*
X342188Y339010D01*
X342979Y337979D01*
X344010Y337188D01*
X345211Y336690D01*
X346500Y336520D01*
X347789Y336690D01*
X348462Y336969D01*
X348878Y336691D01*
Y323761D01*
X345558Y320442D01*
X345486Y320335D01*
X345008Y320480D01*
Y321020D01*
X337693D01*
Y321020D01*
X337550Y321020D01*
X337496Y321020D01*
Y321020D01*
X337496D01*
X337496D01*
X336764D01*
Y322325D01*
X336996Y322504D01*
X337557Y323235D01*
X337910Y324086D01*
X338030Y325000D01*
X337910Y325914D01*
X337557Y326765D01*
X336996Y327496D01*
X336265Y328057D01*
X335414Y328410D01*
X334500Y328530D01*
X333586Y328410D01*
X332735Y328057D01*
X332004Y327496D01*
X331443Y326765D01*
X331090Y325914D01*
X330970Y325000D01*
X331090Y324086D01*
X331443Y323235D01*
X332004Y322504D01*
X332685Y321981D01*
Y321020D01*
X331953D01*
Y317039D01*
X328047D01*
Y317280D01*
Y321020D01*
X327723D01*
Y330514D01*
X338209Y341000D01*
X341486D01*
X341518Y340994D01*
D02*
G37*
%LPC*%
G36*
X284390Y318700D02*
X282800D01*
Y317110D01*
X282976Y317145D01*
X283802Y317698D01*
X284355Y318525D01*
X284390Y318700D01*
D02*
G37*
G36*
X282800Y321890D02*
Y320300D01*
X284390D01*
X284355Y320476D01*
X283802Y321302D01*
X282976Y321855D01*
X282800Y321890D01*
D02*
G37*
G36*
X281200D02*
X281025Y321855D01*
X280198Y321302D01*
X279645Y320476D01*
X279610Y320300D01*
X281200D01*
Y321890D01*
D02*
G37*
G36*
Y318700D02*
X279610D01*
X279645Y318525D01*
X280198Y317698D01*
X281025Y317145D01*
X281200Y317110D01*
Y318700D01*
D02*
G37*
G36*
X236800Y313425D02*
Y310800D01*
X239425D01*
X239410Y310914D01*
X239057Y311765D01*
X238496Y312496D01*
X237765Y313057D01*
X236914Y313410D01*
X236800Y313425D01*
D02*
G37*
G36*
X289500Y342000D02*
X286150D01*
Y339050D01*
X289500D01*
Y342000D01*
D02*
G37*
G36*
X252700Y337649D02*
X251276D01*
Y335299D01*
X251445Y334448D01*
X251927Y333727D01*
X252649Y333245D01*
X252700Y333235D01*
Y337649D01*
D02*
G37*
%LPD*%
D10*
X276854Y282500D02*
D03*
Y277500D02*
D03*
Y272500D02*
D03*
Y267500D02*
D03*
Y262500D02*
D03*
Y257500D02*
D03*
Y252500D02*
D03*
X296146Y282500D02*
D03*
Y277500D02*
D03*
Y272500D02*
D03*
Y267500D02*
D03*
Y262500D02*
D03*
Y257500D02*
D03*
Y252500D02*
D03*
D11*
X253500Y338449D02*
D03*
X248500D02*
D03*
X243500D02*
D03*
X238500D02*
D03*
X253500Y319551D02*
D03*
X248500D02*
D03*
X243500D02*
D03*
X238500D02*
D03*
D12*
X263150Y293000D02*
D03*
X256850D02*
D03*
X325850Y273000D02*
D03*
X332150D02*
D03*
X252150Y257000D02*
D03*
X245850D02*
D03*
X314850Y249000D02*
D03*
X321150D02*
D03*
X321150Y265000D02*
D03*
X314850D02*
D03*
X327650Y304000D02*
D03*
X321350D02*
D03*
X342150D02*
D03*
X335850D02*
D03*
D13*
X347000Y312000D02*
D03*
Y309000D02*
D03*
D14*
X276740Y290500D02*
D03*
X269260D02*
D03*
X290240D02*
D03*
X282760D02*
D03*
X293760Y245000D02*
D03*
X301240D02*
D03*
X331740Y281000D02*
D03*
X324260D02*
D03*
X314260Y257500D02*
D03*
X321740D02*
D03*
X245260Y248500D02*
D03*
X252740D02*
D03*
X331260Y292000D02*
D03*
X338740D02*
D03*
D15*
X308000Y258740D02*
D03*
Y251260D02*
D03*
X260000Y255240D02*
D03*
Y247760D02*
D03*
X267500Y247413D02*
D03*
Y254894D02*
D03*
X308000Y273760D02*
D03*
Y281240D02*
D03*
X329500Y247760D02*
D03*
Y255240D02*
D03*
X243000Y263260D02*
D03*
Y270740D02*
D03*
X245010Y297933D02*
D03*
Y305413D02*
D03*
X243000Y283740D02*
D03*
Y276260D02*
D03*
X267500Y267260D02*
D03*
Y274740D02*
D03*
D16*
X301650Y328750D02*
D03*
X285350D02*
D03*
Y338250D02*
D03*
X301650D02*
D03*
D17*
X270779Y322016D02*
D03*
Y319457D02*
D03*
Y316898D02*
D03*
Y314339D02*
D03*
Y311779D02*
D03*
Y309221D02*
D03*
Y306661D02*
D03*
Y304102D02*
D03*
Y301543D02*
D03*
Y298984D02*
D03*
X293220Y322016D02*
D03*
Y319457D02*
D03*
Y316898D02*
D03*
Y314339D02*
D03*
Y311779D02*
D03*
Y309221D02*
D03*
Y306661D02*
D03*
Y304102D02*
D03*
Y301543D02*
D03*
Y298984D02*
D03*
D18*
X334724Y318740D02*
D03*
Y311260D02*
D03*
X325276D02*
D03*
Y315000D02*
D03*
Y318740D02*
D03*
D19*
X294260Y347079D02*
D03*
X298000Y356921D02*
D03*
X301740Y347079D02*
D03*
X263760D02*
D03*
X267500Y356921D02*
D03*
X271240Y347079D02*
D03*
X278760D02*
D03*
X282500Y356921D02*
D03*
X286240Y347079D02*
D03*
D20*
X236500Y304346D02*
D03*
Y297654D02*
D03*
D21*
X252000Y270150D02*
D03*
Y263850D02*
D03*
Y276850D02*
D03*
Y283150D02*
D03*
X259000Y274650D02*
D03*
Y268350D02*
D03*
X266000Y334650D02*
D03*
Y328350D02*
D03*
X276000Y337150D02*
D03*
Y330850D02*
D03*
X311000Y330850D02*
D03*
Y337150D02*
D03*
X254500Y353150D02*
D03*
Y346850D02*
D03*
X341350Y311850D02*
D03*
Y318150D02*
D03*
X317000Y280650D02*
D03*
Y274350D02*
D03*
D22*
X344000Y264996D02*
D03*
Y277004D02*
D03*
D23*
X366653Y239000D02*
D03*
X373346D02*
D03*
D24*
X301500Y304000D02*
D03*
X312500Y308000D02*
D03*
Y318000D02*
D03*
X284500Y251500D02*
D03*
X288000Y267500D02*
D03*
X286000Y276500D02*
D03*
X296000Y290500D02*
D03*
D25*
X244260Y305413D02*
X245010D01*
X236500Y297654D02*
X244260Y305413D01*
X275279Y309221D02*
X277500Y307000D01*
Y299000D02*
Y307000D01*
X275043Y319457D02*
X282000Y312500D01*
Y299000D02*
Y312500D01*
X284000Y256500D02*
X286000D01*
X289000Y253500D01*
X288500Y281500D02*
Y285000D01*
X283000Y290500D02*
X288500Y285000D01*
X249000Y311500D02*
X256398Y304102D01*
X247000Y311500D02*
X249000D01*
X296000Y234500D02*
X298500D01*
X308000Y244000D01*
Y251260D01*
X330260Y293000D02*
X330260Y293000D01*
X306500Y293000D02*
X330260D01*
X288500Y234500D02*
X289000Y235000D01*
X308720Y311779D02*
X312500Y308000D01*
X293220Y311779D02*
X308720D01*
X308839Y314339D02*
X312500Y318000D01*
X293220Y314339D02*
X308839D01*
X312298Y342500D02*
X317500Y337298D01*
Y305500D02*
Y337298D01*
X315000Y303000D02*
X317500Y305500D01*
X307000Y303000D02*
X315000D01*
X305543Y301543D02*
X307000Y303000D01*
X293220Y301543D02*
X305543D01*
X300516Y298984D02*
X306500Y293000D01*
X293220Y298984D02*
X300516D01*
X258839Y306661D02*
X270779D01*
X248500Y317000D02*
X258839Y306661D01*
X248500Y317000D02*
Y319748D01*
X285350Y328750D02*
X286845Y327255D01*
X312875Y262500D02*
X314000Y261375D01*
X295752Y262500D02*
X312875D01*
X252000Y263850D02*
X256350Y259500D01*
X251650Y263500D02*
X252000Y263850D01*
X251000Y292000D02*
X252000Y293000D01*
X312000Y270000D02*
X319000D01*
X309000Y267000D02*
X312000Y270000D01*
X303000Y267000D02*
X309000D01*
X276854Y257500D02*
X277248D01*
X267500Y254894D02*
X267500Y254894D01*
X319000Y270000D02*
X321000Y268000D01*
Y265150D02*
Y268000D01*
Y265150D02*
X321150Y265000D01*
X324500Y274350D02*
X325850Y273000D01*
X331740Y281000D02*
X332150Y280591D01*
X259000Y264000D02*
X259500Y263500D01*
X259000Y264000D02*
Y268350D01*
X288000Y267500D02*
X295752D01*
X286500D02*
X288000D01*
Y260500D02*
Y267500D01*
X276854Y282500D02*
X277248D01*
X261816Y259500D02*
X264816Y262500D01*
X277248D01*
X251150Y277850D02*
X252346Y276654D01*
X268500Y274346D02*
Y281500D01*
X264500Y285500D02*
X268500Y281500D01*
X254350Y285500D02*
X264500D01*
X252000Y283150D02*
X254350Y285500D01*
X256350Y259500D02*
X261816D01*
X294260Y347079D02*
X298839Y342500D01*
X312298D01*
X270000Y341500D02*
X271000Y342500D01*
X253300Y301543D02*
X270779D01*
X251859Y302984D02*
X253300Y301543D01*
X263000Y346319D02*
X263760Y347079D01*
X256398Y304102D02*
X270779D01*
X271240Y347079D02*
Y349240D01*
X314000Y255654D02*
X314500Y255153D01*
Y248500D02*
X316150Y250150D01*
X306347Y272500D02*
X308197Y274350D01*
X306760Y257500D02*
X308000Y258740D01*
X283250Y330850D02*
X285350Y328750D01*
X301650D02*
X303750Y330850D01*
X309900Y338250D02*
X311000Y337150D01*
X301650Y338250D02*
X309900D01*
X311000Y337150D02*
X311350D01*
X315158Y333342D01*
Y328359D02*
Y333342D01*
X306255Y319457D02*
X315158Y328359D01*
X253500Y319748D02*
X258910Y314339D01*
X270779D01*
X243500Y319748D02*
X248500D01*
X238500D02*
Y323500D01*
X240500Y325500D01*
X254500D01*
X263102Y316898D01*
X270779D01*
X334724Y318740D02*
X334815Y318650D01*
X334724Y305126D02*
X335850Y304000D01*
X342150Y303650D02*
Y304000D01*
X246061Y298984D02*
X270779D01*
X243000Y263653D02*
X243197Y263850D01*
X248500Y338449D02*
Y345500D01*
X243000Y338949D02*
X243500Y338449D01*
X293220Y319457D02*
X306255D01*
X314000Y264150D02*
X314850Y265000D01*
X314000Y255654D02*
Y258000D01*
X300847Y245000D02*
X303000Y247153D01*
Y257500D01*
X245010Y297933D02*
X246061Y298984D01*
X284000Y256500D02*
Y262000D01*
X277248Y282500D02*
X286000D01*
X289000Y235000D02*
Y253500D01*
X286000Y259500D02*
X293000Y252500D01*
X294153D01*
X283500Y265500D02*
X286000Y263000D01*
Y259500D02*
Y263000D01*
X241500Y314000D02*
X243500Y316000D01*
Y319748D01*
X373346Y239000D02*
Y250346D01*
X375000Y252000D01*
X338740Y292000D02*
X344000D01*
X347000Y289000D01*
X361000Y239000D02*
X366653D01*
X344000Y264996D02*
X358476D01*
X368500Y254972D01*
X344000Y277004D02*
X366154D01*
X368500Y274658D01*
X270779Y309221D02*
X275279D01*
X283500Y265500D02*
Y274000D01*
X286000Y276500D01*
X286500Y299000D02*
Y304000D01*
X289161Y306661D01*
X293220D01*
X270779Y319457D02*
X275043D01*
X259000Y280000D02*
X260949D01*
X288500Y281500D02*
X292500Y277500D01*
X295752D01*
X290240Y290500D02*
X294000D01*
X296146Y282500D02*
Y288354D01*
X270000Y341000D02*
Y341500D01*
D26*
X276346Y290500D02*
X283000D01*
X253500Y345850D02*
X254500Y346850D01*
X253500Y338252D02*
Y345850D01*
X243650Y353150D02*
X254500D01*
X238500Y348000D02*
X243650Y353150D01*
X238500Y332000D02*
Y348000D01*
Y332000D02*
X242150Y328350D01*
X283500Y252500D02*
X284500Y251500D01*
X276854Y252500D02*
X283500D01*
X251650Y256500D02*
Y263500D01*
X347000Y313500D02*
Y319000D01*
X345850Y312350D02*
X347000Y313500D01*
X339650Y312350D02*
X345850D01*
X347000Y319000D02*
X351500Y323500D01*
X347000Y309000D02*
Y312000D01*
X270106Y257500D02*
X276854D01*
X267453Y254847D02*
X270106Y257500D01*
X260000Y254847D02*
X267453D01*
X271768Y247413D02*
X276854Y252500D01*
X267500Y247413D02*
X271768D01*
X317000Y274350D02*
X324500D01*
X332150Y267150D02*
Y273000D01*
Y280591D01*
X294153Y245000D02*
Y252500D01*
X325016Y311000D02*
X325276Y311260D01*
X324815Y318280D02*
X325276Y318740D01*
X243000Y276654D02*
X252346D01*
X251150Y277850D02*
X256799D01*
X256825Y277825D02*
X259000Y280000D01*
X256825Y277825D02*
X260500Y274150D01*
X267500Y267500D02*
X276854D01*
X261000Y268350D02*
X264650D01*
X285350Y338250D02*
X291000Y332600D01*
X294400Y336000D01*
X274181Y342500D02*
X278760Y347079D01*
X271000Y342500D02*
X274181D01*
X263000Y341000D02*
Y346319D01*
X295752Y257500D02*
X303000D01*
X314500Y250150D02*
Y255153D01*
X295752Y272500D02*
X306347D01*
X308197Y274350D02*
X317000D01*
X276000Y337150D02*
X284250D01*
X276000Y330850D02*
X283250D01*
X293220Y328750D02*
X301650D01*
X303750Y330850D02*
X311000D01*
X334815Y318650D02*
X341350D01*
X342150Y304000D02*
Y310500D01*
X334724Y305126D02*
Y311260D01*
X242150Y328350D02*
X266000D01*
X257102Y334650D02*
X266000D01*
X253500Y338252D02*
X257102Y334650D01*
X243197Y263850D02*
X252000D01*
X270346Y272500D02*
X277248D01*
X268500Y274346D02*
X270346Y272500D01*
X243000Y283347D02*
X252153D01*
X243000Y338949D02*
Y346500D01*
X337000Y315000D02*
X339650Y312350D01*
X266000Y334650D02*
X266971Y335620D01*
X274471D01*
X276000Y337150D01*
X291000Y332600D02*
X293220Y330380D01*
Y326500D02*
Y328750D01*
Y330380D01*
X314000Y258000D02*
Y264150D01*
Y258000D02*
Y261375D01*
X303000Y257500D02*
X306760D01*
X321000Y312000D02*
X322000Y311000D01*
X325016D01*
X321350Y304000D02*
Y310350D01*
X322260Y311260D01*
X325276D01*
X321000Y312000D02*
Y317000D01*
X322280Y318280D01*
X324815D01*
X252000Y293000D02*
X256850D01*
X266000Y328350D02*
X269130Y325220D01*
X276780D02*
X277000Y325000D01*
X269130Y325220D02*
X271000D01*
X276780D01*
X334500Y325000D02*
X334724Y324776D01*
Y318740D02*
Y324776D01*
X327650Y304000D02*
X330000Y306350D01*
Y315000D01*
X325276D02*
X330000D01*
X337000D01*
D27*
X308000Y280847D02*
Y286500D01*
X299000Y295500D02*
X308000Y286500D01*
X273500Y295500D02*
X299000D01*
X256500Y224500D02*
X270500D01*
X245350Y235650D02*
X256500Y224500D01*
X245350Y235650D02*
Y256500D01*
X332150Y260850D02*
X341500Y251500D01*
Y224500D02*
Y251500D01*
X312000Y243000D02*
X319000D01*
X306000Y237000D02*
X312000Y243000D01*
X306000Y224500D02*
Y237000D01*
X329500Y254847D02*
Y257500D01*
X331500Y234500D02*
X336500Y239500D01*
Y251500D01*
X332760Y255240D02*
X336500Y251500D01*
X329500Y255240D02*
X332760D01*
X321000Y261500D02*
X325500D01*
X329500Y257500D01*
X260000Y247760D02*
X261000Y246760D01*
X259260Y248500D02*
X260000Y247760D01*
Y235000D02*
X260500Y234500D01*
X260000Y235000D02*
Y247760D01*
X347000Y239000D02*
X351500Y234500D01*
Y214500D02*
Y234500D01*
X331500Y214500D02*
X351500D01*
X331500D02*
Y234500D01*
X316000D02*
X331500D01*
X316000Y214500D02*
Y234500D01*
X296000Y214500D02*
X316000D01*
X296000D02*
Y234500D01*
X280500Y214500D02*
Y234500D01*
X260500Y214500D02*
X280500D01*
X260500Y234500D02*
X280500D01*
X288500D02*
X296000D01*
X280500D02*
X288500D01*
X319000Y243000D02*
X321150Y245150D01*
Y249000D01*
X289102Y316898D02*
X293220D01*
X286845Y319155D02*
X289102Y316898D01*
X286845Y319155D02*
Y327255D01*
X347000Y309000D02*
X352500D01*
X252740Y248500D02*
X259260D01*
X317000Y280650D02*
X323909D01*
X308591D02*
X317000D01*
X308000Y281240D02*
X308591Y280650D01*
X323909D02*
X324260Y281000D01*
Y285260D01*
X326000Y287000D01*
X335000D01*
X338000Y284000D01*
X272500Y282500D02*
X276854D01*
X277248Y277500D02*
Y282500D01*
X321000Y257500D02*
Y261500D01*
Y264850D01*
X321150Y265000D01*
X236500Y270597D02*
X240404D01*
X306846Y251153D02*
X307000Y251000D01*
X321500Y248500D02*
X326654D01*
X327500Y247654D01*
X243000Y270346D02*
X251803D01*
X242347Y271000D02*
X243000Y270346D01*
X269746Y291746D02*
X273500Y295500D01*
X269746Y290254D02*
Y291746D01*
X263150Y291850D02*
Y293000D01*
X266996Y288004D02*
X267496D01*
X267500Y287500D02*
X272500Y282500D01*
X267500Y287500D02*
X267652Y287652D01*
X267493Y288000D02*
X267496Y288004D01*
X269746Y290254D01*
X263150Y291850D02*
X266996Y288004D01*
X293220Y322016D02*
Y326500D01*
X236500Y270597D02*
Y284000D01*
Y286000D01*
X238504Y288004D01*
X266996D01*
X236500Y238500D02*
Y270500D01*
Y238500D02*
X260500Y214500D01*
X332150Y260850D02*
Y267150D01*
X347000Y239000D02*
Y250000D01*
X337000Y260000D02*
X347000Y250000D01*
X337000Y260000D02*
Y283000D01*
X338000Y284000D01*
D28*
X352500Y302500D02*
Y309000D01*
X347000Y371500D02*
X368500Y350000D01*
Y314000D02*
Y350000D01*
X351500Y323500D02*
Y341500D01*
X267500Y356921D02*
Y367500D01*
X277500Y361921D02*
X282500Y356921D01*
X277500Y361921D02*
Y367500D01*
X287500Y362500D02*
Y367500D01*
Y362500D02*
X293079Y356921D01*
X298000D01*
X312500Y298000D02*
X348000D01*
X352500Y302500D01*
X325276Y331776D02*
X347000Y353500D01*
Y371500D01*
X298500D02*
X347000D01*
D29*
X325276Y318740D02*
Y331776D01*
D30*
X270779Y322016D02*
Y325000D01*
X271000Y325220D01*
D31*
X280500Y214500D02*
D03*
X260500D02*
D03*
X280500Y234500D02*
D03*
X260500D02*
D03*
X296000D02*
D03*
X316000D02*
D03*
X296000Y214500D02*
D03*
X316000D02*
D03*
X351500D02*
D03*
X331500D02*
D03*
X351500Y234500D02*
D03*
X331500D02*
D03*
D32*
X270500Y224500D02*
D03*
X306000D02*
D03*
X341500D02*
D03*
D33*
X267500Y370000D02*
D03*
D34*
X277500D02*
D03*
X287500D02*
D03*
X297500D02*
D03*
D35*
X368500Y254972D02*
D03*
Y274658D02*
D03*
Y294342D02*
D03*
Y314028D02*
D03*
D36*
X346500Y371500D02*
D03*
D37*
Y341500D02*
D03*
D38*
X312500Y298000D02*
D03*
D39*
X282000Y299000D02*
D03*
X277500D02*
D03*
X248000Y311500D02*
D03*
X243000Y346500D02*
D03*
X332150Y267150D02*
D03*
X251859Y302984D02*
D03*
X248500Y345500D02*
D03*
X286500Y299000D02*
D03*
D40*
X317000Y354500D02*
D03*
Y351000D02*
D03*
Y347500D02*
D03*
X303000Y359000D02*
D03*
X313500Y358000D02*
D03*
X310000D02*
D03*
X306500D02*
D03*
X262000Y355500D02*
D03*
Y359500D02*
D03*
X260500Y352000D02*
D03*
X273000Y362500D02*
D03*
X283000D02*
D03*
X303000Y355500D02*
D03*
X306500Y354500D02*
D03*
X310000D02*
D03*
X313500D02*
D03*
Y351000D02*
D03*
X310000D02*
D03*
X306500D02*
D03*
X313500Y347500D02*
D03*
X310000D02*
D03*
X306500D02*
D03*
X271500Y355500D02*
D03*
Y359000D02*
D03*
X275000D02*
D03*
X288000Y355500D02*
D03*
X290500Y352000D02*
D03*
X271000D02*
D03*
X267500D02*
D03*
X264000D02*
D03*
X275000D02*
D03*
Y355500D02*
D03*
X286000Y352000D02*
D03*
X282500D02*
D03*
X279000D02*
D03*
X301500D02*
D03*
X298000D02*
D03*
X294500D02*
D03*
X258500Y359500D02*
D03*
Y362500D02*
D03*
X262000D02*
D03*
X306500Y361500D02*
D03*
X310000D02*
D03*
X313500D02*
D03*
X317000D02*
D03*
Y358000D02*
D03*
D41*
X352500Y309000D02*
D03*
X259500Y263500D02*
D03*
X236500Y284000D02*
D03*
X294400Y336000D02*
D03*
X260500Y281500D02*
D03*
X251000Y292500D02*
D03*
X338000Y284000D02*
D03*
X347000Y289000D02*
D03*
X361000Y239000D02*
D03*
X277000Y325000D02*
D03*
X334500D02*
D03*
X236000Y310000D02*
D03*
D42*
X263000Y341000D02*
D03*
X241500Y314000D02*
D03*
X261000D02*
D03*
X270000Y341000D02*
D03*
D43*
X285500Y282500D02*
D03*
X270000Y285000D02*
D03*
X282000Y319500D02*
D03*
X277500Y311500D02*
D03*
M02*
