%FSLAX25Y25*%
%MOIN*%
G70*
G01*
G75*
G04 Layer_Color=8388736*
%ADD10R,0.03937X0.03937*%
%ADD11R,0.06102X0.09449*%
%ADD12R,0.05315X0.03740*%
%ADD13R,0.03543X0.03740*%
%ADD14R,0.03740X0.05315*%
%ADD15R,0.03937X0.03937*%
%ADD16R,0.03543X0.02559*%
%ADD17O,0.06693X0.01378*%
%ADD18R,0.06300X0.05500*%
%ADD19R,0.05512X0.04134*%
%ADD20R,0.04134X0.05512*%
%ADD21R,0.02000X0.02000*%
%ADD22O,0.02362X0.08661*%
%ADD23O,0.09843X0.02756*%
%ADD24C,0.01000*%
%ADD25C,0.01600*%
%ADD26C,0.02000*%
%ADD27C,0.03200*%
%ADD28C,0.02800*%
%ADD29C,0.04724*%
%ADD30R,0.04724X0.04724*%
%ADD31O,0.09843X0.06693*%
%ADD32C,0.05906*%
%ADD33R,0.05906X0.05906*%
%ADD34R,0.05906X0.05906*%
%ADD35C,0.10000*%
%ADD36C,0.05000*%
%ADD37C,0.03150*%
%ADD38C,0.02400*%
%ADD39C,0.03400*%
%ADD40R,0.02000X0.02000*%
%ADD41C,0.00800*%
%ADD42C,0.00984*%
%ADD43C,0.00787*%
%ADD44C,0.02362*%
%ADD45C,0.01575*%
%ADD46C,0.00591*%
%ADD47R,0.02560X0.00730*%
%ADD48R,0.01800X0.06700*%
%ADD49R,0.02300X0.00650*%
%ADD50R,0.05906X0.78740*%
%ADD51R,0.00650X0.02300*%
%ADD52R,0.06700X0.01800*%
%ADD53R,0.00730X0.02560*%
%ADD54R,0.07126X0.10472*%
%ADD55R,0.06339X0.04764*%
%ADD56R,0.04567X0.04764*%
%ADD57R,0.04764X0.06339*%
%ADD58R,0.04567X0.03583*%
%ADD59O,0.07717X0.02402*%
%ADD60R,0.07324X0.06524*%
%ADD61R,0.06535X0.05158*%
%ADD62R,0.05158X0.06535*%
%ADD63R,0.03024X0.03024*%
%ADD64O,0.03386X0.09685*%
%ADD65O,0.10866X0.03780*%
%ADD66C,0.05748*%
%ADD67R,0.05748X0.05748*%
%ADD68C,0.01024*%
%ADD69O,0.10866X0.07717*%
%ADD70C,0.06929*%
%ADD71R,0.06929X0.06929*%
%ADD72R,0.06929X0.06929*%
%ADD73C,0.11024*%
D10*
X373346Y239000D02*
D03*
X366653D02*
D03*
D15*
X237000Y303725D02*
D03*
Y297031D02*
D03*
D54*
X344000Y277004D02*
D03*
Y264996D02*
D03*
D55*
X317000Y274350D02*
D03*
Y280650D02*
D03*
X341350Y318150D02*
D03*
Y311850D02*
D03*
X254500Y346850D02*
D03*
Y353150D02*
D03*
X311000Y337150D02*
D03*
Y330850D02*
D03*
X276000Y330850D02*
D03*
Y337150D02*
D03*
X266000Y328350D02*
D03*
Y334650D02*
D03*
X259000Y268350D02*
D03*
Y274650D02*
D03*
X252000Y283150D02*
D03*
Y276850D02*
D03*
Y263850D02*
D03*
Y270150D02*
D03*
D56*
X286240Y347079D02*
D03*
X282500Y356921D02*
D03*
X278760Y347079D02*
D03*
X271240D02*
D03*
X267500Y356921D02*
D03*
X263760Y347079D02*
D03*
X301740D02*
D03*
X298000Y356921D02*
D03*
X294260Y347079D02*
D03*
D57*
X335850Y304000D02*
D03*
X342150D02*
D03*
X321350D02*
D03*
X327650D02*
D03*
X314850Y265000D02*
D03*
X321150D02*
D03*
X321150Y249000D02*
D03*
X314850D02*
D03*
X245850Y257000D02*
D03*
X252150D02*
D03*
X332150Y273000D02*
D03*
X325850D02*
D03*
X256850Y293000D02*
D03*
X263150D02*
D03*
D58*
X325276Y318740D02*
D03*
Y315000D02*
D03*
Y311260D02*
D03*
X334724D02*
D03*
Y318740D02*
D03*
D59*
X293220Y298984D02*
D03*
Y301543D02*
D03*
Y304102D02*
D03*
Y306661D02*
D03*
Y309221D02*
D03*
Y311779D02*
D03*
Y314339D02*
D03*
Y316898D02*
D03*
Y319457D02*
D03*
Y322016D02*
D03*
X270779Y298984D02*
D03*
Y301543D02*
D03*
Y304102D02*
D03*
Y306661D02*
D03*
Y309221D02*
D03*
Y311779D02*
D03*
Y314339D02*
D03*
Y316898D02*
D03*
Y319457D02*
D03*
Y322016D02*
D03*
D60*
X301650Y338250D02*
D03*
X285350D02*
D03*
Y328750D02*
D03*
X301650D02*
D03*
D61*
X267500Y274740D02*
D03*
Y267260D02*
D03*
X243000Y276260D02*
D03*
Y283740D02*
D03*
X245010Y305413D02*
D03*
Y297933D02*
D03*
X243000Y270740D02*
D03*
Y263260D02*
D03*
X329500Y255240D02*
D03*
Y247760D02*
D03*
X308000Y281240D02*
D03*
Y273760D02*
D03*
X267500Y254894D02*
D03*
Y247413D02*
D03*
X260000Y247760D02*
D03*
Y255240D02*
D03*
X308000Y251260D02*
D03*
Y258740D02*
D03*
D62*
X338740Y292000D02*
D03*
X331260D02*
D03*
X252740Y248500D02*
D03*
X245260D02*
D03*
X321740Y257500D02*
D03*
X314260D02*
D03*
X324260Y281000D02*
D03*
X331740D02*
D03*
X301240Y245000D02*
D03*
X293760D02*
D03*
X282760Y290500D02*
D03*
X290240D02*
D03*
X269260D02*
D03*
X276740D02*
D03*
D63*
X347000Y309000D02*
D03*
Y312000D02*
D03*
D64*
X238500Y319551D02*
D03*
X243500D02*
D03*
X248500D02*
D03*
X253500D02*
D03*
X238500Y338449D02*
D03*
X243500D02*
D03*
X248500D02*
D03*
X253500D02*
D03*
D65*
X296146Y252500D02*
D03*
Y257500D02*
D03*
Y262500D02*
D03*
Y267500D02*
D03*
Y272500D02*
D03*
Y277500D02*
D03*
Y282500D02*
D03*
X276854Y252500D02*
D03*
Y257500D02*
D03*
Y262500D02*
D03*
Y267500D02*
D03*
Y272500D02*
D03*
Y277500D02*
D03*
Y282500D02*
D03*
D66*
X346500Y341500D02*
D03*
D67*
Y371500D02*
D03*
D68*
X240000Y220000D02*
D03*
Y367500D02*
D03*
X373000Y220500D02*
D03*
D69*
X368500Y314028D02*
D03*
Y294342D02*
D03*
Y274658D02*
D03*
Y254972D02*
D03*
D70*
X297500Y367500D02*
D03*
X287500D02*
D03*
X277500D02*
D03*
X312500Y318000D02*
D03*
Y308000D02*
D03*
D71*
X267500Y367500D02*
D03*
D72*
X312500Y298000D02*
D03*
D73*
X280500Y214500D02*
D03*
X260500D02*
D03*
X280500Y234500D02*
D03*
X260500D02*
D03*
X270500Y224500D02*
D03*
X316000Y214500D02*
D03*
X296000D02*
D03*
X316000Y234500D02*
D03*
X296000D02*
D03*
X306000Y224500D02*
D03*
X351500Y214500D02*
D03*
X331500D02*
D03*
X351500Y234500D02*
D03*
X331500D02*
D03*
X341500Y224500D02*
D03*
M02*
