%FSLAX25Y25*%
%MOIN*%
G70*
G01*
G75*
G04 Layer_Physical_Order=2*
G04 Layer_Color=16711680*
%ADD10O,0.09843X0.02756*%
%ADD11O,0.02362X0.08661*%
%ADD12R,0.03740X0.05315*%
%ADD13R,0.02000X0.02000*%
%ADD14R,0.04134X0.05512*%
%ADD15R,0.05512X0.04134*%
%ADD16R,0.06300X0.05500*%
%ADD17O,0.06693X0.01378*%
%ADD18R,0.03543X0.02559*%
%ADD19R,0.03543X0.03740*%
%ADD20R,0.03937X0.03937*%
%ADD21R,0.05315X0.03740*%
%ADD22R,0.06102X0.09449*%
%ADD23R,0.03937X0.03937*%
%ADD24C,0.05906*%
%ADD25C,0.01000*%
%ADD26C,0.02000*%
%ADD27C,0.01600*%
%ADD28C,0.03200*%
%ADD29C,0.02800*%
%ADD30C,0.01400*%
%ADD31C,0.10827*%
%ADD32C,0.10000*%
%ADD33R,0.07480X0.10236*%
%ADD34O,0.07480X0.10236*%
%ADD35O,0.09843X0.06693*%
%ADD36R,0.07874X0.07874*%
%ADD37C,0.07874*%
%ADD38R,0.05906X0.05906*%
%ADD39C,0.03400*%
%ADD40C,0.02400*%
%ADD41C,0.05000*%
%ADD42C,0.03150*%
%ADD43C,0.03000*%
%ADD44P,0.02828X4X270.0*%
G36*
X291050Y290845D02*
X291004Y290500D01*
X291175Y289207D01*
X291674Y288002D01*
X292468Y286968D01*
X293502Y286174D01*
X294707Y285675D01*
X296000Y285505D01*
X296064Y285513D01*
X296285Y285065D01*
X293860Y282640D01*
X293379Y282013D01*
X293291Y281799D01*
X293077Y281283D01*
X292974Y280500D01*
Y273784D01*
X292512Y273593D01*
X292302Y273802D01*
X291476Y274355D01*
X290935Y274462D01*
X290700Y274903D01*
X290825Y275207D01*
X290996Y276500D01*
X290825Y277793D01*
X290326Y278998D01*
X289532Y280032D01*
X288498Y280826D01*
X287993Y281035D01*
X287848Y281514D01*
X287855Y281524D01*
X287890Y281700D01*
X285500D01*
Y282500D01*
X284700D01*
Y285130D01*
X284549Y285254D01*
Y294000D01*
X287895D01*
X291050Y290845D01*
D02*
G37*
G36*
X274951Y289662D02*
Y276000D01*
X275145Y275025D01*
X275698Y274198D01*
X278302Y271593D01*
X278111Y271131D01*
X276004D01*
X265635Y281500D01*
X267572Y283437D01*
X268070Y283388D01*
X268198Y283198D01*
X269024Y282645D01*
X269200Y282610D01*
Y285000D01*
X270000D01*
Y285800D01*
X272390D01*
X272355Y285976D01*
X271802Y286802D01*
X271398Y287072D01*
X271349Y287570D01*
X272700Y288921D01*
X272734Y288966D01*
X272940Y288993D01*
X273815Y289355D01*
X274503Y289883D01*
X274951Y289662D01*
D02*
G37*
G36*
X355500Y327727D02*
Y311617D01*
X355027Y311457D01*
X354996Y311496D01*
X354265Y312057D01*
X353414Y312410D01*
X353300Y312425D01*
Y309000D01*
Y305575D01*
X353414Y305590D01*
X354265Y305943D01*
X354996Y306504D01*
X355027Y306543D01*
X355500Y306382D01*
Y248500D01*
X353663D01*
X353529Y248634D01*
Y284000D01*
X353413Y284585D01*
X353081Y285081D01*
X350312Y287851D01*
X350410Y288086D01*
X350530Y289000D01*
X350410Y289914D01*
X350057Y290765D01*
X349496Y291496D01*
X348765Y292057D01*
X347914Y292410D01*
X347302Y292491D01*
X347010Y292897D01*
X347039Y293042D01*
Y310000D01*
X346884Y310780D01*
X346442Y311442D01*
X345780Y311884D01*
X345000Y312039D01*
X331665D01*
X331065Y311920D01*
X330678Y312237D01*
Y320500D01*
X330642Y320683D01*
Y321335D01*
X330681Y321532D01*
Y322378D01*
X332168D01*
X332735Y321943D01*
X333586Y321590D01*
X334500Y321470D01*
X335414Y321590D01*
X336265Y321943D01*
X336996Y322504D01*
X337557Y323235D01*
X337910Y324086D01*
X338030Y325000D01*
X337910Y325914D01*
X337557Y326765D01*
X336996Y327496D01*
X336265Y328057D01*
X336468Y328546D01*
X353009D01*
X353399Y328624D01*
X353620Y328771D01*
X353730Y328845D01*
Y328845D01*
X353730D01*
X353772Y328909D01*
X354270Y328958D01*
X355500Y327727D01*
D02*
G37*
G36*
X345000Y293042D02*
X344731Y292931D01*
X343791Y292209D01*
X343069Y291269D01*
X342616Y290175D01*
X342461Y289000D01*
X342616Y287825D01*
X343069Y286731D01*
X343791Y285791D01*
X344731Y285069D01*
X345000Y284958D01*
Y252000D01*
X349563Y247437D01*
X349645Y247024D01*
X350198Y246198D01*
X356498Y239898D01*
X356473Y239398D01*
X356132Y239118D01*
X356031Y239078D01*
X355080Y239858D01*
X353966Y240454D01*
X352757Y240821D01*
X352300Y240866D01*
Y234500D01*
Y228134D01*
X352757Y228179D01*
X353966Y228546D01*
X355032Y229116D01*
X355461Y228859D01*
Y220141D01*
X355032Y219884D01*
X353966Y220454D01*
X352757Y220821D01*
X352300Y220866D01*
Y214500D01*
X351500D01*
Y213700D01*
X345134D01*
X345179Y213243D01*
X345546Y212034D01*
X346142Y210920D01*
X346943Y209943D01*
X347920Y209142D01*
X349034Y208546D01*
X349042Y208544D01*
X348969Y208049D01*
X334031D01*
X333958Y208544D01*
X333966Y208546D01*
X335080Y209142D01*
X336057Y209943D01*
X336858Y210920D01*
X337454Y212034D01*
X337821Y213243D01*
X337866Y213700D01*
X325134D01*
X325179Y213243D01*
X325546Y212034D01*
X326142Y210920D01*
X326943Y209943D01*
X327920Y209142D01*
X329034Y208546D01*
X329042Y208544D01*
X328969Y208049D01*
X318531D01*
X318458Y208544D01*
X318466Y208546D01*
X319580Y209142D01*
X320557Y209943D01*
X321358Y210920D01*
X321954Y212034D01*
X322321Y213243D01*
X322366Y213700D01*
X309634D01*
X309679Y213243D01*
X310046Y212034D01*
X310642Y210920D01*
X311443Y209943D01*
X312420Y209142D01*
X313534Y208546D01*
X313542Y208544D01*
X313469Y208049D01*
X298531D01*
X298458Y208544D01*
X298466Y208546D01*
X299580Y209142D01*
X300557Y209943D01*
X301358Y210920D01*
X301954Y212034D01*
X302321Y213243D01*
X302366Y213700D01*
X289634D01*
X289679Y213243D01*
X290046Y212034D01*
X290642Y210920D01*
X291443Y209943D01*
X292420Y209142D01*
X293534Y208546D01*
X293542Y208544D01*
X293469Y208049D01*
X283031D01*
X282958Y208544D01*
X282966Y208546D01*
X284080Y209142D01*
X285057Y209943D01*
X285858Y210920D01*
X286454Y212034D01*
X286821Y213243D01*
X286866Y213700D01*
X274134D01*
X274179Y213243D01*
X274546Y212034D01*
X275142Y210920D01*
X275943Y209943D01*
X276920Y209142D01*
X278034Y208546D01*
X278042Y208544D01*
X277969Y208049D01*
X263031D01*
X262958Y208544D01*
X262966Y208546D01*
X264080Y209142D01*
X265057Y209943D01*
X265858Y210920D01*
X266454Y212034D01*
X266821Y213243D01*
X266866Y213700D01*
X260500D01*
Y214500D01*
X259700D01*
Y220866D01*
X259243Y220821D01*
X258034Y220454D01*
X257929Y220398D01*
X257500Y220655D01*
Y228345D01*
X257929Y228602D01*
X258034Y228546D01*
X259243Y228179D01*
X259700Y228134D01*
Y234500D01*
Y240866D01*
X259243Y240821D01*
X258034Y240454D01*
X257185Y240000D01*
X232549D01*
Y283374D01*
X232549Y283374D01*
Y284626D01*
X232549Y284626D01*
Y294000D01*
X246280D01*
X246609Y293624D01*
X246461Y292500D01*
X246616Y291325D01*
X247069Y290231D01*
X247791Y289291D01*
X247821Y289267D01*
X247855Y289184D01*
X248432Y288433D01*
X256052Y280813D01*
X256116Y280325D01*
X256569Y279231D01*
X257291Y278291D01*
X258231Y277569D01*
X259325Y277116D01*
X259813Y277052D01*
X271933Y264932D01*
X272685Y264355D01*
X273560Y263993D01*
X274500Y263869D01*
X284596D01*
X285502Y263174D01*
X286194Y262887D01*
X286292Y262397D01*
X284698Y260802D01*
X284145Y259976D01*
X283951Y259000D01*
Y256423D01*
X283207Y256325D01*
X282002Y255826D01*
X280968Y255032D01*
X280174Y253998D01*
X279675Y252793D01*
X279504Y251500D01*
X279675Y250207D01*
X279992Y249442D01*
X279714Y249026D01*
X278253D01*
X264412Y262867D01*
X264495Y263500D01*
X264325Y264793D01*
X263826Y265998D01*
X263032Y267032D01*
X261998Y267826D01*
X260793Y268325D01*
X259500Y268495D01*
X258207Y268325D01*
X257002Y267826D01*
X255968Y267032D01*
X255174Y265998D01*
X254675Y264793D01*
X254504Y263500D01*
X254675Y262207D01*
X255174Y261002D01*
X255968Y259968D01*
X257002Y259174D01*
X258207Y258675D01*
X259500Y258505D01*
X260133Y258588D01*
X274860Y243860D01*
X275487Y243379D01*
X276217Y243077D01*
X277000Y242974D01*
X287000D01*
X287783Y243077D01*
X288299Y243291D01*
X288513Y243379D01*
X289140Y243860D01*
X292140Y246860D01*
X292620Y247487D01*
X292709Y247701D01*
X292923Y248217D01*
X293026Y249000D01*
Y256747D01*
X298140Y261860D01*
X298621Y262487D01*
X298709Y262701D01*
X298923Y263217D01*
X299026Y264000D01*
Y279247D01*
X309753Y289974D01*
X319500D01*
X320283Y290077D01*
X320799Y290291D01*
X321013Y290380D01*
X321640Y290860D01*
X330779Y299999D01*
X331259Y300626D01*
X331562Y301356D01*
X331665Y302139D01*
Y310000D01*
X345000D01*
Y293042D01*
D02*
G37*
G36*
X350471Y283366D02*
Y250066D01*
X350009Y249875D01*
X347039Y252845D01*
Y284958D01*
X347010Y285103D01*
X347302Y285509D01*
X347914Y285590D01*
X348149Y285688D01*
X350471Y283366D01*
D02*
G37*
G36*
X385000Y207029D02*
X357500D01*
Y212186D01*
X357821Y213243D01*
X357944Y214500D01*
X357821Y215757D01*
X357500Y216814D01*
Y232186D01*
X357821Y233243D01*
X357944Y234500D01*
X357821Y235757D01*
X357500Y236814D01*
Y237034D01*
X357974Y237195D01*
X358504Y236504D01*
X359235Y235943D01*
X360086Y235590D01*
X361000Y235470D01*
X361914Y235590D01*
X362765Y235943D01*
X363496Y236504D01*
X364057Y237235D01*
X364410Y238086D01*
X364530Y239000D01*
X364410Y239914D01*
X364057Y240765D01*
X363496Y241496D01*
X362765Y242057D01*
X361914Y242410D01*
X361000Y242530D01*
X360086Y242410D01*
X359851Y242312D01*
X357500Y244663D01*
Y263156D01*
X357962Y263348D01*
X363570Y257740D01*
X363129Y257164D01*
X362691Y256107D01*
X362541Y254972D01*
X362691Y253838D01*
X363129Y252781D01*
X363825Y251872D01*
X364733Y251176D01*
X365791Y250738D01*
X366925Y250588D01*
X370075D01*
X371210Y250738D01*
X372267Y251176D01*
X373175Y251872D01*
X373871Y252781D01*
X374309Y253838D01*
X374459Y254972D01*
X374309Y256107D01*
X373871Y257164D01*
X373175Y258072D01*
X372267Y258769D01*
X371210Y259207D01*
X370075Y259356D01*
X366925D01*
X366354Y259281D01*
X359529Y266106D01*
Y280812D01*
X359991Y281003D01*
X363570Y277425D01*
X363129Y276850D01*
X362691Y275792D01*
X362541Y274658D01*
X362691Y273523D01*
X363129Y272465D01*
X363825Y271557D01*
X364733Y270861D01*
X365791Y270423D01*
X366925Y270273D01*
X370075D01*
X371210Y270423D01*
X372267Y270861D01*
X373175Y271557D01*
X373871Y272465D01*
X374309Y273523D01*
X374459Y274658D01*
X374309Y275792D01*
X373871Y276850D01*
X373175Y277757D01*
X372267Y278454D01*
X371210Y278892D01*
X370075Y279041D01*
X366925D01*
X366354Y278966D01*
X361529Y283791D01*
Y328219D01*
X361413Y328804D01*
X361081Y329300D01*
X353281Y337101D01*
X352784Y337433D01*
X352199Y337549D01*
X327114D01*
X320581Y344081D01*
X320085Y344413D01*
X319500Y344529D01*
X278633D01*
X274581Y348581D01*
X274085Y348913D01*
X273500Y349029D01*
X255500D01*
Y377500D01*
X385000D01*
Y207029D01*
D02*
G37*
G36*
X254503Y377613D02*
X254480Y377500D01*
Y349029D01*
X252790D01*
X251738Y350081D01*
X251242Y350413D01*
X250657Y350529D01*
X245500D01*
X245012Y350432D01*
X244915Y350413D01*
X244419Y350081D01*
X243495Y349158D01*
X243000Y349223D01*
X242295Y349131D01*
X241638Y348858D01*
X241074Y348426D01*
X240642Y347862D01*
X240370Y347205D01*
X240277Y346500D01*
X240370Y345795D01*
X240642Y345138D01*
X241074Y344574D01*
X241638Y344142D01*
X242295Y343869D01*
X243000Y343777D01*
X243705Y343869D01*
X244362Y344142D01*
X244926Y344574D01*
X245358Y345138D01*
X245851Y344934D01*
X245869Y344795D01*
X246142Y344138D01*
X246574Y343574D01*
X247138Y343142D01*
X247795Y342869D01*
X248500Y342777D01*
X249205Y342869D01*
X249862Y343142D01*
X250426Y343574D01*
X250730Y343971D01*
X259732D01*
X259953Y343522D01*
X259547Y342993D01*
X259149Y342032D01*
X259013Y341000D01*
X259149Y339968D01*
X259547Y339007D01*
X260181Y338181D01*
X261007Y337547D01*
X261165Y337482D01*
Y330260D01*
X246702Y315798D01*
X246304Y315202D01*
X246281Y315086D01*
X246165Y314500D01*
Y313495D01*
X246074Y313426D01*
X245862Y313149D01*
X245400Y313340D01*
X245487Y314000D01*
X245351Y315032D01*
X244953Y315993D01*
X244319Y316819D01*
X243493Y317453D01*
X242532Y317851D01*
X241500Y317987D01*
X240468Y317851D01*
X239507Y317453D01*
X238681Y316819D01*
X238047Y315993D01*
X237649Y315032D01*
X237513Y314000D01*
X237565Y313609D01*
X237168Y313305D01*
X236914Y313410D01*
X236800Y313425D01*
Y310000D01*
Y306575D01*
X236914Y306590D01*
X237765Y306943D01*
X238496Y307504D01*
X239057Y308235D01*
X239410Y309086D01*
X239530Y310000D01*
X239521Y310073D01*
X239917Y310377D01*
X240468Y310149D01*
X241500Y310013D01*
X242532Y310149D01*
X243493Y310547D01*
X244319Y311181D01*
X244644Y311604D01*
X245165Y311500D01*
X245304Y310798D01*
X245473Y310546D01*
X245642Y310138D01*
X246074Y309574D01*
X246638Y309142D01*
X247295Y308870D01*
X248000Y308777D01*
X248705Y308870D01*
X249249Y309095D01*
X249665Y308817D01*
Y304560D01*
X249500Y304346D01*
X249228Y303689D01*
X249136Y302984D01*
X249228Y302279D01*
X249500Y301623D01*
X249933Y301059D01*
X250497Y300626D01*
X251154Y300354D01*
X251859Y300261D01*
X252564Y300354D01*
X253221Y300626D01*
X253785Y301059D01*
X254217Y301623D01*
X254489Y302279D01*
X254582Y302984D01*
X254489Y303689D01*
X254217Y304346D01*
X253785Y304910D01*
X253335Y305255D01*
Y312740D01*
X271298Y330702D01*
X271696Y331298D01*
X271719Y331414D01*
X271835Y332000D01*
Y337482D01*
X271993Y337547D01*
X272819Y338181D01*
X273453Y339007D01*
X273851Y339968D01*
X273987Y341000D01*
X273959Y341208D01*
X274408Y341429D01*
X275919Y339919D01*
X276415Y339587D01*
X277000Y339471D01*
X292396D01*
X292557Y338997D01*
X291904Y338496D01*
X291343Y337765D01*
X290990Y336914D01*
X290975Y336800D01*
X297825D01*
X297810Y336914D01*
X297457Y337765D01*
X296896Y338496D01*
X296243Y338997D01*
X296404Y339471D01*
X314098D01*
X315604Y339076D01*
X315607Y339060D01*
X315603Y339045D01*
X315634Y338864D01*
X315658Y338682D01*
X315666Y338668D01*
X315669Y338653D01*
X315767Y338497D01*
X315859Y338338D01*
X321480Y331998D01*
Y329566D01*
X321558Y329175D01*
X321779Y328845D01*
X322110Y328624D01*
X322500Y328546D01*
X332533D01*
X332735Y328057D01*
X332168Y327622D01*
X279332D01*
X278765Y328057D01*
X277914Y328410D01*
X277000Y328530D01*
X276086Y328410D01*
X275235Y328057D01*
X274504Y327496D01*
X273943Y326765D01*
X273590Y325914D01*
X273470Y325000D01*
X273590Y324086D01*
X273943Y323235D01*
X274504Y322504D01*
X275235Y321943D01*
X276086Y321590D01*
X277000Y321470D01*
X277914Y321590D01*
X278765Y321943D01*
X279332Y322378D01*
X281101D01*
X281150Y321880D01*
X281025Y321855D01*
X280198Y321302D01*
X279645Y320476D01*
X279610Y320300D01*
X284390D01*
X284355Y320476D01*
X283802Y321302D01*
X282976Y321855D01*
X282850Y321880D01*
X282899Y322378D01*
X311645D01*
X311678Y321879D01*
X311468Y321851D01*
X310507Y321453D01*
X309681Y320819D01*
X309047Y319993D01*
X308649Y319032D01*
X308513Y318000D01*
X308649Y316968D01*
X309047Y316007D01*
X309681Y315181D01*
X310507Y314547D01*
X311468Y314149D01*
X312500Y314013D01*
X313532Y314149D01*
X314493Y314547D01*
X315319Y315181D01*
X315953Y316007D01*
X316351Y316968D01*
X316487Y318000D01*
X316351Y319032D01*
X315953Y319993D01*
X315319Y320819D01*
X314493Y321453D01*
X313532Y321851D01*
X313322Y321879D01*
X313355Y322378D01*
X326603D01*
Y321532D01*
X326642Y321335D01*
Y320711D01*
X326600Y320500D01*
Y302984D01*
X318655Y295039D01*
X316453D01*
Y297200D01*
X308547D01*
Y295039D01*
X308500D01*
X308303Y295000D01*
X294000D01*
X290000Y299000D01*
X289223D01*
X289130Y299705D01*
X288858Y300362D01*
X288426Y300926D01*
X287862Y301358D01*
X287205Y301630D01*
X286500Y301723D01*
X285795Y301630D01*
X285138Y301358D01*
X284574Y300926D01*
X284500Y300829D01*
X284000D01*
X283926Y300926D01*
X283362Y301358D01*
X282705Y301630D01*
X282000Y301723D01*
X281295Y301630D01*
X280638Y301358D01*
X280074Y300926D01*
X280000Y300829D01*
X279500D01*
X279426Y300926D01*
X278862Y301358D01*
X278205Y301630D01*
X277500Y301723D01*
X276795Y301630D01*
X276138Y301358D01*
X275574Y300926D01*
X275142Y300362D01*
X274869Y299705D01*
X274777Y299000D01*
X274869Y298295D01*
X275000Y297980D01*
Y293000D01*
X271450D01*
X270561Y293889D01*
X269672Y293000D01*
X254464D01*
X254410Y293414D01*
X254057Y294265D01*
X253496Y294996D01*
X252765Y295557D01*
X251914Y295910D01*
X251000Y296030D01*
X250086Y295910D01*
X249235Y295557D01*
X248504Y294996D01*
X248142Y294969D01*
X247813Y295344D01*
X247759Y295386D01*
X247721Y295442D01*
X247445Y295627D01*
X247181Y295829D01*
X247116Y295846D01*
X247060Y295884D01*
X246734Y295949D01*
X246413Y296035D01*
X246346Y296026D01*
X246280Y296039D01*
X232549D01*
X232386Y296007D01*
X232000Y296324D01*
Y309746D01*
X232499Y309779D01*
X232590Y309086D01*
X232943Y308235D01*
X233504Y307504D01*
X234235Y306943D01*
X235086Y306590D01*
X235200Y306575D01*
Y310000D01*
Y313425D01*
X235086Y313410D01*
X234235Y313057D01*
X233504Y312496D01*
X232943Y311765D01*
X232590Y310914D01*
X232499Y310221D01*
X232000Y310254D01*
Y364989D01*
X232495Y365063D01*
X232676Y364466D01*
X233408Y363095D01*
X234394Y361894D01*
X235595Y360908D01*
X236966Y360175D01*
X238453Y359724D01*
X240000Y359572D01*
X241547Y359724D01*
X243034Y360175D01*
X244405Y360908D01*
X245606Y361894D01*
X246592Y363095D01*
X247324Y364466D01*
X247776Y365953D01*
X247928Y367500D01*
X247776Y369047D01*
X247324Y370534D01*
X246592Y371904D01*
X245606Y373106D01*
X244405Y374092D01*
X243034Y374825D01*
X241547Y375276D01*
X240000Y375428D01*
X238453Y375276D01*
X236966Y374825D01*
X235595Y374092D01*
X234394Y373106D01*
X233408Y371904D01*
X232676Y370534D01*
X232495Y369937D01*
X232000Y370011D01*
Y378000D01*
X254186D01*
X254503Y377613D01*
D02*
G37*
G36*
X324419Y332919D02*
X324915Y332587D01*
X325012Y332568D01*
X325500Y332471D01*
X350757D01*
X353200Y330028D01*
X353009Y329566D01*
X322500D01*
Y332385D01*
X316622Y339015D01*
X316827Y339471D01*
X317866D01*
X324419Y332919D01*
D02*
G37*
%LPC*%
G36*
X322366Y233700D02*
X316800D01*
Y228134D01*
X317257Y228179D01*
X318466Y228546D01*
X319580Y229142D01*
X320557Y229943D01*
X321358Y230920D01*
X321954Y232034D01*
X322321Y233243D01*
X322366Y233700D01*
D02*
G37*
G36*
X330700D02*
X325134D01*
X325179Y233243D01*
X325546Y232034D01*
X326142Y230920D01*
X326943Y229943D01*
X327920Y229142D01*
X329034Y228546D01*
X330243Y228179D01*
X330700Y228134D01*
Y233700D01*
D02*
G37*
G36*
X337866D02*
X332300D01*
Y228134D01*
X332757Y228179D01*
X333966Y228546D01*
X335080Y229142D01*
X336057Y229943D01*
X336858Y230920D01*
X337454Y232034D01*
X337821Y233243D01*
X337866Y233700D01*
D02*
G37*
G36*
X295200D02*
X289634D01*
X289679Y233243D01*
X290046Y232034D01*
X290642Y230920D01*
X291443Y229943D01*
X292420Y229142D01*
X293534Y228546D01*
X294743Y228179D01*
X295200Y228134D01*
Y233700D01*
D02*
G37*
G36*
X286866D02*
X281300D01*
Y228134D01*
X281757Y228179D01*
X282966Y228546D01*
X284080Y229142D01*
X285057Y229943D01*
X285858Y230920D01*
X286454Y232034D01*
X286821Y233243D01*
X286866Y233700D01*
D02*
G37*
G36*
X315200D02*
X309634D01*
X309679Y233243D01*
X310046Y232034D01*
X310642Y230920D01*
X311443Y229943D01*
X312420Y229142D01*
X313534Y228546D01*
X314743Y228179D01*
X315200Y228134D01*
Y233700D01*
D02*
G37*
G36*
X302366D02*
X296800D01*
Y228134D01*
X297257Y228179D01*
X298466Y228546D01*
X299580Y229142D01*
X300557Y229943D01*
X301358Y230920D01*
X301954Y232034D01*
X302321Y233243D01*
X302366Y233700D01*
D02*
G37*
G36*
X350700D02*
X345134D01*
X345179Y233243D01*
X345546Y232034D01*
X346142Y230920D01*
X346943Y229943D01*
X347920Y229142D01*
X349034Y228546D01*
X350243Y228179D01*
X350700Y228134D01*
Y233700D01*
D02*
G37*
G36*
X296800Y240866D02*
Y235300D01*
X302366D01*
X302321Y235757D01*
X301954Y236966D01*
X301358Y238080D01*
X300557Y239057D01*
X299580Y239858D01*
X298466Y240454D01*
X297257Y240821D01*
X296800Y240866D01*
D02*
G37*
G36*
X315200D02*
X314743Y240821D01*
X313534Y240454D01*
X312420Y239858D01*
X311443Y239057D01*
X310642Y238080D01*
X310046Y236966D01*
X309679Y235757D01*
X309634Y235300D01*
X315200D01*
Y240866D01*
D02*
G37*
G36*
X316800D02*
Y235300D01*
X322366D01*
X322321Y235757D01*
X321954Y236966D01*
X321358Y238080D01*
X320557Y239057D01*
X319580Y239858D01*
X318466Y240454D01*
X317257Y240821D01*
X316800Y240866D01*
D02*
G37*
G36*
X295200D02*
X294743Y240821D01*
X293534Y240454D01*
X292420Y239858D01*
X291443Y239057D01*
X290642Y238080D01*
X290046Y236966D01*
X289679Y235757D01*
X289634Y235300D01*
X295200D01*
Y240866D01*
D02*
G37*
G36*
X261300D02*
Y235300D01*
X266866D01*
X266821Y235757D01*
X266454Y236966D01*
X265858Y238080D01*
X265057Y239057D01*
X264080Y239858D01*
X262966Y240454D01*
X261757Y240821D01*
X261300Y240866D01*
D02*
G37*
G36*
X279700D02*
X279243Y240821D01*
X278034Y240454D01*
X276920Y239858D01*
X275943Y239057D01*
X275142Y238080D01*
X274546Y236966D01*
X274179Y235757D01*
X274134Y235300D01*
X279700D01*
Y240866D01*
D02*
G37*
G36*
X281300D02*
Y235300D01*
X286866D01*
X286821Y235757D01*
X286454Y236966D01*
X285858Y238080D01*
X285057Y239057D01*
X284080Y239858D01*
X282966Y240454D01*
X281757Y240821D01*
X281300Y240866D01*
D02*
G37*
G36*
X296800Y220866D02*
Y215300D01*
X302366D01*
X302321Y215757D01*
X301954Y216966D01*
X301358Y218080D01*
X300557Y219057D01*
X299580Y219858D01*
X298466Y220454D01*
X297257Y220821D01*
X296800Y220866D01*
D02*
G37*
G36*
X295200D02*
X294743Y220821D01*
X293534Y220454D01*
X292420Y219858D01*
X291443Y219057D01*
X290642Y218080D01*
X290046Y216966D01*
X289679Y215757D01*
X289634Y215300D01*
X295200D01*
Y220866D01*
D02*
G37*
G36*
X316800D02*
Y215300D01*
X322366D01*
X322321Y215757D01*
X321954Y216966D01*
X321358Y218080D01*
X320557Y219057D01*
X319580Y219858D01*
X318466Y220454D01*
X317257Y220821D01*
X316800Y220866D01*
D02*
G37*
G36*
X315200D02*
X314743Y220821D01*
X313534Y220454D01*
X312420Y219858D01*
X311443Y219057D01*
X310642Y218080D01*
X310046Y216966D01*
X309679Y215757D01*
X309634Y215300D01*
X315200D01*
Y220866D01*
D02*
G37*
G36*
X261300D02*
Y215300D01*
X266866D01*
X266821Y215757D01*
X266454Y216966D01*
X265858Y218080D01*
X265057Y219057D01*
X264080Y219858D01*
X262966Y220454D01*
X261757Y220821D01*
X261300Y220866D01*
D02*
G37*
G36*
X373000Y228428D02*
X371453Y228276D01*
X369966Y227824D01*
X368596Y227092D01*
X367394Y226106D01*
X366408Y224904D01*
X365675Y223534D01*
X365224Y222047D01*
X365072Y220500D01*
X365224Y218953D01*
X365675Y217466D01*
X366408Y216095D01*
X367394Y214894D01*
X368596Y213908D01*
X369966Y213176D01*
X371453Y212724D01*
X373000Y212572D01*
X374547Y212724D01*
X376034Y213176D01*
X377404Y213908D01*
X378606Y214894D01*
X379592Y216095D01*
X380325Y217466D01*
X380776Y218953D01*
X380928Y220500D01*
X380776Y222047D01*
X380325Y223534D01*
X379592Y224904D01*
X378606Y226106D01*
X377404Y227092D01*
X376034Y227824D01*
X374547Y228276D01*
X373000Y228428D01*
D02*
G37*
G36*
X281300Y220866D02*
Y215300D01*
X286866D01*
X286821Y215757D01*
X286454Y216966D01*
X285858Y218080D01*
X285057Y219057D01*
X284080Y219858D01*
X282966Y220454D01*
X281757Y220821D01*
X281300Y220866D01*
D02*
G37*
G36*
X279700D02*
X279243Y220821D01*
X278034Y220454D01*
X276920Y219858D01*
X275943Y219057D01*
X275142Y218080D01*
X274546Y216966D01*
X274179Y215757D01*
X274134Y215300D01*
X279700D01*
Y220866D01*
D02*
G37*
G36*
X341500Y231534D02*
X340128Y231399D01*
X338808Y230998D01*
X337592Y230348D01*
X336526Y229474D01*
X335651Y228408D01*
X335001Y227192D01*
X334601Y225872D01*
X334466Y224500D01*
X334601Y223128D01*
X335001Y221808D01*
X335651Y220592D01*
X336526Y219526D01*
X337592Y218652D01*
X338808Y218002D01*
X340128Y217601D01*
X341500Y217466D01*
X342872Y217601D01*
X344192Y218002D01*
X345408Y218652D01*
X346474Y219526D01*
X347348Y220592D01*
X347998Y221808D01*
X348399Y223128D01*
X348534Y224500D01*
X348399Y225872D01*
X347998Y227192D01*
X347348Y228408D01*
X346474Y229474D01*
X345408Y230348D01*
X344192Y230998D01*
X342872Y231399D01*
X341500Y231534D01*
D02*
G37*
G36*
X306000D02*
X304628Y231399D01*
X303308Y230998D01*
X302092Y230348D01*
X301026Y229474D01*
X300151Y228408D01*
X299501Y227192D01*
X299101Y225872D01*
X298966Y224500D01*
X299101Y223128D01*
X299501Y221808D01*
X300151Y220592D01*
X301026Y219526D01*
X302092Y218652D01*
X303308Y218002D01*
X304628Y217601D01*
X306000Y217466D01*
X307372Y217601D01*
X308692Y218002D01*
X309908Y218652D01*
X310974Y219526D01*
X311848Y220592D01*
X312498Y221808D01*
X312899Y223128D01*
X313034Y224500D01*
X312899Y225872D01*
X312498Y227192D01*
X311848Y228408D01*
X310974Y229474D01*
X309908Y230348D01*
X308692Y230998D01*
X307372Y231399D01*
X306000Y231534D01*
D02*
G37*
G36*
X279700Y233700D02*
X274134D01*
X274179Y233243D01*
X274546Y232034D01*
X275142Y230920D01*
X275943Y229943D01*
X276920Y229142D01*
X278034Y228546D01*
X279243Y228179D01*
X279700Y228134D01*
Y233700D01*
D02*
G37*
G36*
X266866D02*
X261300D01*
Y228134D01*
X261757Y228179D01*
X262966Y228546D01*
X264080Y229142D01*
X265057Y229943D01*
X265858Y230920D01*
X266454Y232034D01*
X266821Y233243D01*
X266866Y233700D01*
D02*
G37*
G36*
X332300Y220866D02*
Y215300D01*
X337866D01*
X337821Y215757D01*
X337454Y216966D01*
X336858Y218080D01*
X336057Y219057D01*
X335080Y219858D01*
X333966Y220454D01*
X332757Y220821D01*
X332300Y220866D01*
D02*
G37*
G36*
X330700D02*
X330243Y220821D01*
X329034Y220454D01*
X327920Y219858D01*
X326943Y219057D01*
X326142Y218080D01*
X325546Y216966D01*
X325179Y215757D01*
X325134Y215300D01*
X330700D01*
Y220866D01*
D02*
G37*
G36*
X270500Y231534D02*
X269128Y231399D01*
X267808Y230998D01*
X266592Y230348D01*
X265526Y229474D01*
X264651Y228408D01*
X264001Y227192D01*
X263601Y225872D01*
X263466Y224500D01*
X263601Y223128D01*
X264001Y221808D01*
X264651Y220592D01*
X265526Y219526D01*
X266592Y218652D01*
X267808Y218002D01*
X269128Y217601D01*
X270500Y217466D01*
X271872Y217601D01*
X273192Y218002D01*
X274408Y218652D01*
X275474Y219526D01*
X276348Y220592D01*
X276998Y221808D01*
X277399Y223128D01*
X277534Y224500D01*
X277399Y225872D01*
X276998Y227192D01*
X276348Y228408D01*
X275474Y229474D01*
X274408Y230348D01*
X273192Y230998D01*
X271872Y231399D01*
X270500Y231534D01*
D02*
G37*
G36*
X350700Y220866D02*
X350243Y220821D01*
X349034Y220454D01*
X347920Y219858D01*
X346943Y219057D01*
X346142Y218080D01*
X345546Y216966D01*
X345179Y215757D01*
X345134Y215300D01*
X350700D01*
Y220866D01*
D02*
G37*
G36*
X312500Y311987D02*
X311468Y311851D01*
X310507Y311453D01*
X309681Y310819D01*
X309047Y309993D01*
X308649Y309032D01*
X308513Y308000D01*
X308649Y306968D01*
X309047Y306007D01*
X309681Y305181D01*
X310507Y304547D01*
X311468Y304149D01*
X312500Y304013D01*
X313532Y304149D01*
X314493Y304547D01*
X315319Y305181D01*
X315953Y306007D01*
X316351Y306968D01*
X316487Y308000D01*
X316351Y309032D01*
X315953Y309993D01*
X315319Y310819D01*
X314493Y311453D01*
X313532Y311851D01*
X312500Y311987D01*
D02*
G37*
G36*
X351700Y308200D02*
X349075D01*
X349090Y308086D01*
X349443Y307235D01*
X350004Y306504D01*
X350735Y305943D01*
X351586Y305590D01*
X351700Y305575D01*
Y308200D01*
D02*
G37*
G36*
X276700Y310700D02*
X275110D01*
X275145Y310525D01*
X275698Y309698D01*
X276524Y309145D01*
X276700Y309110D01*
Y310700D01*
D02*
G37*
G36*
X316453Y301953D02*
X313300D01*
Y298800D01*
X316453D01*
Y301953D01*
D02*
G37*
G36*
X337200Y287881D02*
X336968Y287851D01*
X336007Y287453D01*
X335181Y286819D01*
X334547Y285993D01*
X334149Y285032D01*
X334119Y284800D01*
X337200D01*
Y287881D01*
D02*
G37*
G36*
X338800D02*
Y284800D01*
X341881D01*
X341851Y285032D01*
X341453Y285993D01*
X340819Y286819D01*
X339993Y287453D01*
X339032Y287851D01*
X338800Y287881D01*
D02*
G37*
G36*
X311700Y301953D02*
X308547D01*
Y298800D01*
X311700D01*
Y301953D01*
D02*
G37*
G36*
X279890Y310700D02*
X278300D01*
Y309110D01*
X278475Y309145D01*
X279302Y309698D01*
X279855Y310525D01*
X279890Y310700D01*
D02*
G37*
G36*
X278300Y313890D02*
Y312300D01*
X279890D01*
X279855Y312475D01*
X279302Y313302D01*
X278475Y313855D01*
X278300Y313890D01*
D02*
G37*
G36*
X281200Y318700D02*
X279610D01*
X279645Y318525D01*
X280198Y317698D01*
X281025Y317145D01*
X281200Y317110D01*
Y318700D01*
D02*
G37*
G36*
X284390D02*
X282800D01*
Y317110D01*
X282976Y317145D01*
X283802Y317698D01*
X284355Y318525D01*
X284390Y318700D01*
D02*
G37*
G36*
X276700Y313890D02*
X276524Y313855D01*
X275698Y313302D01*
X275145Y312475D01*
X275110Y312300D01*
X276700D01*
Y313890D01*
D02*
G37*
G36*
X370075Y318411D02*
X366925D01*
X365791Y318262D01*
X364733Y317824D01*
X363825Y317127D01*
X363129Y316219D01*
X362691Y315162D01*
X362541Y314028D01*
X362691Y312893D01*
X363129Y311836D01*
X363825Y310928D01*
X364733Y310231D01*
X365791Y309793D01*
X366925Y309644D01*
X370075D01*
X371210Y309793D01*
X372267Y310231D01*
X373175Y310928D01*
X373871Y311836D01*
X374309Y312893D01*
X374459Y314028D01*
X374309Y315162D01*
X373871Y316219D01*
X373175Y317127D01*
X372267Y317824D01*
X371210Y318262D01*
X370075Y318411D01*
D02*
G37*
G36*
X351700Y312425D02*
X351586Y312410D01*
X350735Y312057D01*
X350004Y311496D01*
X349443Y310765D01*
X349090Y309914D01*
X349075Y309800D01*
X351700D01*
Y312425D01*
D02*
G37*
G36*
X261000Y317987D02*
X259968Y317851D01*
X259007Y317453D01*
X258181Y316819D01*
X257547Y315993D01*
X257149Y315032D01*
X257013Y314000D01*
X257149Y312968D01*
X257547Y312007D01*
X258181Y311181D01*
X259007Y310547D01*
X259968Y310149D01*
X261000Y310013D01*
X262032Y310149D01*
X262993Y310547D01*
X263819Y311181D01*
X264453Y312007D01*
X264851Y312968D01*
X264987Y314000D01*
X264851Y315032D01*
X264453Y315993D01*
X263819Y316819D01*
X262993Y317453D01*
X262032Y317851D01*
X261000Y317987D01*
D02*
G37*
G36*
X237300Y287425D02*
Y284800D01*
X239925D01*
X239910Y284914D01*
X239557Y285765D01*
X238996Y286496D01*
X238265Y287057D01*
X237414Y287410D01*
X237300Y287425D01*
D02*
G37*
G36*
X351437Y376437D02*
X341563D01*
Y366563D01*
X351437D01*
Y376437D01*
D02*
G37*
G36*
X332150Y270882D02*
X331184Y270754D01*
X330284Y270382D01*
X329511Y269789D01*
X328918Y269016D01*
X328545Y268115D01*
X328418Y267150D01*
X328545Y266184D01*
X328918Y265284D01*
X329511Y264511D01*
X330284Y263918D01*
X331184Y263545D01*
X332150Y263418D01*
X333116Y263545D01*
X334016Y263918D01*
X334788Y264511D01*
X335382Y265284D01*
X335754Y266184D01*
X335881Y267150D01*
X335754Y268115D01*
X335382Y269016D01*
X334788Y269789D01*
X334016Y270382D01*
X333116Y270754D01*
X332150Y270882D01*
D02*
G37*
G36*
X297825Y335200D02*
X295200D01*
Y332575D01*
X295314Y332590D01*
X296165Y332943D01*
X296896Y333504D01*
X297457Y334235D01*
X297810Y335086D01*
X297825Y335200D01*
D02*
G37*
G36*
X297500Y376159D02*
X296263Y375996D01*
X295110Y375518D01*
X294119Y374759D01*
X293359Y373768D01*
X292882Y372615D01*
X292750Y371614D01*
X292250D01*
X292118Y372615D01*
X291640Y373768D01*
X290881Y374759D01*
X289891Y375518D01*
X288737Y375996D01*
X287500Y376159D01*
X286263Y375996D01*
X285109Y375518D01*
X284119Y374759D01*
X283360Y373768D01*
X282882Y372615D01*
X282750Y371614D01*
X282250D01*
X282118Y372615D01*
X281641Y373768D01*
X280881Y374759D01*
X279890Y375518D01*
X278737Y375996D01*
X277500Y376159D01*
X276263Y375996D01*
X275110Y375518D01*
X274119Y374759D01*
X273359Y373768D01*
X272882Y372615D01*
X272739Y371531D01*
X272240Y371564D01*
Y376118D01*
X262760D01*
Y363882D01*
X272240D01*
Y368436D01*
X272739Y368469D01*
X272882Y367385D01*
X273359Y366231D01*
X274119Y365241D01*
X275110Y364481D01*
X276263Y364004D01*
X277500Y363841D01*
X278737Y364004D01*
X279890Y364481D01*
X280881Y365241D01*
X281641Y366231D01*
X282118Y367385D01*
X282250Y368386D01*
X282750D01*
X282882Y367385D01*
X283360Y366231D01*
X284119Y365241D01*
X285109Y364481D01*
X286263Y364004D01*
X287500Y363841D01*
X288737Y364004D01*
X289891Y364481D01*
X290881Y365241D01*
X291640Y366231D01*
X292118Y367385D01*
X292250Y368386D01*
X292750D01*
X292882Y367385D01*
X293359Y366231D01*
X294119Y365241D01*
X295110Y364481D01*
X296263Y364004D01*
X297500Y363841D01*
X298737Y364004D01*
X299890Y364481D01*
X300881Y365241D01*
X301641Y366231D01*
X302118Y367385D01*
X302281Y368622D01*
Y371378D01*
X302118Y372615D01*
X301641Y373768D01*
X300881Y374759D01*
X299890Y375518D01*
X298737Y375996D01*
X297500Y376159D01*
D02*
G37*
G36*
X330700Y240866D02*
X330243Y240821D01*
X329034Y240454D01*
X327920Y239858D01*
X326943Y239057D01*
X326142Y238080D01*
X325546Y236966D01*
X325179Y235757D01*
X325134Y235300D01*
X330700D01*
Y240866D01*
D02*
G37*
G36*
X332300D02*
Y235300D01*
X337866D01*
X337821Y235757D01*
X337454Y236966D01*
X336858Y238080D01*
X336057Y239057D01*
X335080Y239858D01*
X333966Y240454D01*
X332757Y240821D01*
X332300Y240866D01*
D02*
G37*
G36*
X350700D02*
X350243Y240821D01*
X349034Y240454D01*
X347920Y239858D01*
X346943Y239057D01*
X346142Y238080D01*
X345546Y236966D01*
X345179Y235757D01*
X345134Y235300D01*
X350700D01*
Y240866D01*
D02*
G37*
G36*
X337200Y283200D02*
X334119D01*
X334149Y282968D01*
X334547Y282007D01*
X335181Y281181D01*
X336007Y280547D01*
X336968Y280149D01*
X337200Y280118D01*
Y283200D01*
D02*
G37*
G36*
X272390Y284200D02*
X270800D01*
Y282610D01*
X270975Y282645D01*
X271802Y283198D01*
X272355Y284025D01*
X272390Y284200D01*
D02*
G37*
G36*
X286300Y284890D02*
Y283300D01*
X287890D01*
X287855Y283475D01*
X287302Y284302D01*
X286475Y284855D01*
X286300Y284890D01*
D02*
G37*
G36*
X235700Y287425D02*
X235586Y287410D01*
X234735Y287057D01*
X234004Y286496D01*
X233443Y285765D01*
X233090Y284914D01*
X233075Y284800D01*
X235700D01*
Y287425D01*
D02*
G37*
G36*
X293600Y335200D02*
X290975D01*
X290990Y335086D01*
X291343Y334235D01*
X291904Y333504D01*
X292635Y332943D01*
X293486Y332590D01*
X293600Y332575D01*
Y335200D01*
D02*
G37*
G36*
X341881Y283200D02*
X338800D01*
Y280118D01*
X339032Y280149D01*
X339993Y280547D01*
X340819Y281181D01*
X341453Y282007D01*
X341851Y282968D01*
X341881Y283200D01*
D02*
G37*
G36*
X235700D02*
X233075D01*
X233090Y283086D01*
X233443Y282235D01*
X234004Y281504D01*
X234283Y281289D01*
X234503Y281003D01*
X235088Y280554D01*
X235700Y280301D01*
Y283200D01*
D02*
G37*
G36*
X239925D02*
X237300D01*
Y280301D01*
X237912Y280554D01*
X238497Y281003D01*
X238717Y281289D01*
X238996Y281504D01*
X239557Y282235D01*
X239910Y283086D01*
X239925Y283200D01*
D02*
G37*
%LPD*%
D13*
X328642Y324532D02*
D03*
Y321532D02*
D03*
D24*
X312500Y308000D02*
D03*
Y318000D02*
D03*
X259500Y263500D02*
D03*
X263000Y341000D02*
D03*
X284500Y251500D02*
D03*
X288000Y267500D02*
D03*
X241500Y314000D02*
D03*
X261000D02*
D03*
X338000Y284000D02*
D03*
X286000Y276500D02*
D03*
X296000Y290500D02*
D03*
X270000Y341000D02*
D03*
D25*
X282000Y280500D02*
Y299000D01*
Y280500D02*
X285932Y276568D01*
X277500Y298000D02*
Y299000D01*
Y276000D02*
Y298000D01*
Y276000D02*
X281500Y272000D01*
X250657Y349000D02*
X252157Y347500D01*
X245500Y349000D02*
X250657D01*
X243000Y346500D02*
X245500Y349000D01*
X286500Y251500D02*
Y259000D01*
X277000Y341000D02*
X318500D01*
X272500Y345500D02*
X277000Y341000D01*
X248500Y345500D02*
X272500D01*
X278000Y343000D02*
X319500D01*
X273500Y347500D02*
X278000Y343000D01*
X252157Y347500D02*
X273500D01*
X358000Y265472D02*
X368500Y254972D01*
X358000Y265472D02*
Y327390D01*
X360000Y283157D02*
X368500Y274658D01*
X360000Y283157D02*
Y328219D01*
X251000Y292500D02*
X251500Y293000D01*
X251000Y291000D02*
Y292000D01*
X259500Y263500D02*
X260000Y263000D01*
X294400Y336000D02*
X294500D01*
X251500Y303343D02*
X251859Y302984D01*
X284500Y251500D02*
X286500D01*
X318500Y341000D02*
X325500Y334000D01*
X351390D01*
X358000Y327390D01*
X319500Y343000D02*
X326480Y336020D01*
X352199D01*
X360000Y328219D01*
X286500Y259000D02*
X293000Y265500D01*
Y269500D01*
X281500Y272000D02*
X290500D01*
X293000Y269500D01*
X347000Y289000D02*
X352000Y284000D01*
Y248000D02*
Y284000D01*
Y248000D02*
X361000Y239000D01*
X286500Y299000D02*
X295500Y290000D01*
D26*
X328639Y302139D02*
Y320500D01*
X328642Y321532D02*
Y324532D01*
X268439Y288939D02*
X270561Y291061D01*
X319500Y293000D02*
X328639Y302139D01*
X296000Y280500D02*
X308500Y293000D01*
X319500D01*
X260000Y263000D02*
X277000Y246000D01*
X287000D01*
X290000Y249000D02*
Y258000D01*
X296000Y264000D01*
X287000Y246000D02*
X290000Y249000D01*
X296000Y264000D02*
Y280500D01*
D27*
X248000Y314500D02*
X263000Y329500D01*
X248000Y312500D02*
Y314500D01*
X247000Y311500D02*
X248000Y312500D01*
X263000Y329500D02*
Y341000D01*
X236500Y283000D02*
Y284000D01*
X270000Y332000D02*
Y341500D01*
X251500Y313500D02*
X270000Y332000D01*
X251500Y303343D02*
Y313500D01*
X270000Y341000D02*
Y341500D01*
D28*
X251000Y291000D02*
X260500Y281500D01*
X274500Y267500D01*
X286500D01*
X277000Y325000D02*
X334000D01*
X334500Y324500D02*
Y325000D01*
X334000D02*
X334500Y324500D01*
X272000Y292500D02*
Y298000D01*
X260500Y281500D02*
X267500Y288500D01*
D31*
X280500Y214500D02*
D03*
X260500D02*
D03*
X280500Y234500D02*
D03*
X260500D02*
D03*
X296000D02*
D03*
X316000D02*
D03*
X296000Y214500D02*
D03*
X316000D02*
D03*
X351500D02*
D03*
X331500D02*
D03*
X351500Y234500D02*
D03*
X331500D02*
D03*
D32*
X270500Y224500D02*
D03*
X306000D02*
D03*
X341500D02*
D03*
D33*
X267500Y370000D02*
D03*
D34*
X277500D02*
D03*
X287500D02*
D03*
X297500D02*
D03*
D35*
X368500Y254972D02*
D03*
Y274658D02*
D03*
Y294342D02*
D03*
Y314028D02*
D03*
D36*
X346500Y371500D02*
D03*
D37*
Y341500D02*
D03*
D38*
X312500Y298000D02*
D03*
D39*
X282000Y299000D02*
D03*
X277500D02*
D03*
X248000Y311500D02*
D03*
X243000Y346500D02*
D03*
X332150Y267150D02*
D03*
X251859Y302984D02*
D03*
X248500Y345500D02*
D03*
X286500Y299000D02*
D03*
D40*
X317000Y354500D02*
D03*
Y351000D02*
D03*
Y347500D02*
D03*
X303000Y359000D02*
D03*
X313500Y358000D02*
D03*
X310000D02*
D03*
X306500D02*
D03*
X262000Y355500D02*
D03*
Y359500D02*
D03*
X260500Y352000D02*
D03*
X273000Y362500D02*
D03*
X283000D02*
D03*
X303000Y355500D02*
D03*
X306500Y354500D02*
D03*
X310000D02*
D03*
X313500D02*
D03*
Y351000D02*
D03*
X310000D02*
D03*
X306500D02*
D03*
X313500Y347500D02*
D03*
X310000D02*
D03*
X306500D02*
D03*
X271500Y355500D02*
D03*
Y359000D02*
D03*
X275000D02*
D03*
X288000Y355500D02*
D03*
X290500Y352000D02*
D03*
X271000D02*
D03*
X267500D02*
D03*
X264000D02*
D03*
X275000D02*
D03*
Y355500D02*
D03*
X286000Y352000D02*
D03*
X282500D02*
D03*
X279000D02*
D03*
X301500D02*
D03*
X298000D02*
D03*
X294500D02*
D03*
X258500Y359500D02*
D03*
Y362500D02*
D03*
X262000D02*
D03*
X306500Y361500D02*
D03*
X310000D02*
D03*
X313500D02*
D03*
X317000D02*
D03*
Y358000D02*
D03*
D41*
X352500Y309000D02*
D03*
X236500Y284000D02*
D03*
X294400Y336000D02*
D03*
X260500Y281500D02*
D03*
X251000Y292500D02*
D03*
X347000Y289000D02*
D03*
X361000Y239000D02*
D03*
X277000Y325000D02*
D03*
X334500D02*
D03*
X236000Y310000D02*
D03*
D43*
X285500Y282500D02*
D03*
X270000Y285000D02*
D03*
X282000Y319500D02*
D03*
X277500Y311500D02*
D03*
D44*
X268439Y288939D02*
D03*
X270561Y291061D02*
D03*
M02*
