%FSLAX25Y25*%
%MOIN*%
G70*
G01*
G75*
G04 Layer_Color=65535*
%ADD10C,0.05906*%
%ADD11R,0.03937X0.03937*%
%ADD12R,0.06102X0.09449*%
%ADD13R,0.05315X0.03740*%
%ADD14R,0.03543X0.03740*%
%ADD15R,0.03740X0.05315*%
%ADD16R,0.03937X0.03937*%
%ADD17R,0.03543X0.02559*%
%ADD18O,0.06693X0.01378*%
%ADD19R,0.06300X0.05500*%
%ADD20R,0.05512X0.04134*%
%ADD21R,0.04134X0.05512*%
%ADD22R,0.02000X0.02000*%
%ADD23O,0.02362X0.08661*%
%ADD24O,0.09843X0.02756*%
%ADD25C,0.03200*%
%ADD26C,0.01000*%
%ADD27C,0.02000*%
%ADD28C,0.01400*%
%ADD29C,0.01600*%
%ADD30C,0.02800*%
%ADD31R,0.05906X0.05906*%
%ADD32C,0.07874*%
%ADD33R,0.07874X0.07874*%
%ADD34O,0.09843X0.06693*%
%ADD35O,0.07480X0.10236*%
%ADD36R,0.07480X0.10236*%
%ADD37C,0.10000*%
%ADD38C,0.10827*%
%ADD39C,0.03150*%
%ADD40C,0.02400*%
%ADD41C,0.03000*%
%ADD42C,0.05000*%
%ADD43C,0.03400*%
%ADD44P,0.02828X4X270.0*%
%ADD45C,0.00800*%
%ADD46C,0.00984*%
%ADD47C,0.00787*%
%ADD48C,0.02362*%
%ADD49C,0.01575*%
%ADD50C,0.00591*%
%ADD51R,0.02560X0.00730*%
%ADD52R,0.01800X0.06700*%
%ADD53R,0.02300X0.00650*%
%ADD54R,0.05906X0.78740*%
%ADD55R,0.00650X0.02300*%
%ADD56R,0.06700X0.01800*%
%ADD57R,0.00730X0.02560*%
G36*
X245430Y237349D02*
X242863Y233688D01*
X242980D01*
X243039Y233698D01*
X243117D01*
X243214Y233708D01*
X243322D01*
X243458Y233718D01*
X243605Y233728D01*
X243790Y233737D01*
X243985Y233747D01*
X244210Y233767D01*
X244463Y233786D01*
X244747Y233806D01*
X244717Y232371D01*
X244405D01*
X244298Y232361D01*
X244034D01*
X243888Y232351D01*
X243731Y232342D01*
X243556D01*
X243380Y232332D01*
X243195Y232322D01*
X242785Y232293D01*
X242765D01*
X242717Y232283D01*
X242638D01*
X242541Y232273D01*
X242414Y232263D01*
X242267Y232244D01*
X242111Y232234D01*
X241955Y232215D01*
X241614Y232185D01*
X241272Y232146D01*
X241116Y232127D01*
X240979Y232107D01*
X240852Y232098D01*
X240745Y232078D01*
X240755Y233454D01*
X243429Y237085D01*
X243283D01*
X243214Y237075D01*
X243136D01*
X243048Y237065D01*
X242941Y237056D01*
X242824Y237046D01*
X242697Y237036D01*
X242560Y237017D01*
X242404Y236997D01*
X242248Y236978D01*
X242063Y236948D01*
X241877Y236919D01*
X241653Y236890D01*
X241828Y238364D01*
X245674Y238637D01*
X245430Y237349D01*
D02*
G37*
G36*
X241750Y238920D02*
X241740Y238891D01*
X241731Y238851D01*
X241711Y238793D01*
X241672Y238666D01*
X241633Y238510D01*
Y238500D01*
X241623Y238481D01*
Y238442D01*
X241604Y238393D01*
X241584Y238266D01*
X241545Y238120D01*
Y238110D01*
X241535Y238090D01*
X241526Y238051D01*
X241516Y238012D01*
X241496Y237905D01*
X241477Y237788D01*
X241428D01*
X241360Y237778D01*
X241272D01*
X241165Y237768D01*
X241038D01*
X240882Y237758D01*
X240091D01*
X239759Y236070D01*
X239779D01*
X239847Y236080D01*
X239935D01*
X240052Y236089D01*
X240179D01*
X240325Y236099D01*
X240462Y236109D01*
X240716D01*
X240784Y236119D01*
X240930D01*
X240989Y236128D01*
X241038D01*
Y236119D01*
Y236080D01*
X241028Y236031D01*
X241018Y235963D01*
X241008Y235884D01*
X240999Y235787D01*
X240969Y235601D01*
Y235592D01*
X240960Y235562D01*
Y235514D01*
X240950Y235445D01*
X240940Y235367D01*
X240921Y235279D01*
X240891Y235084D01*
X240813D01*
X240774Y235074D01*
X240306D01*
X240140Y235065D01*
X240052D01*
X239993Y235055D01*
X239827D01*
X239632Y235045D01*
X239310Y233308D01*
X240677Y233532D01*
X240579Y232459D01*
X237544Y232000D01*
X238773Y238666D01*
X241750Y238930D01*
Y238920D01*
D02*
G37*
G36*
X238354Y238783D02*
X238344Y238744D01*
X238324Y238666D01*
X238305Y238568D01*
X238285Y238451D01*
X238256Y238305D01*
X238227Y238139D01*
X238188Y237954D01*
X238149Y237749D01*
X238100Y237534D01*
X238061Y237300D01*
X238012Y237056D01*
X237954Y236792D01*
X237905Y236529D01*
X237797Y235982D01*
X237690Y235416D01*
X237583Y234850D01*
X237475Y234294D01*
X237417Y234020D01*
X237368Y233767D01*
X237319Y233513D01*
X237280Y233269D01*
X237231Y233044D01*
X237192Y232839D01*
X237163Y232644D01*
X237124Y232469D01*
X237095Y232312D01*
X237075Y232176D01*
X236958D01*
X236870Y232166D01*
X236743Y232156D01*
X236597Y232137D01*
X236411Y232117D01*
X236187Y232088D01*
X236158D01*
X236128Y232078D01*
X236089D01*
X235992Y232059D01*
X235875Y232049D01*
X235758Y232029D01*
X235650Y232019D01*
X235611Y232010D01*
X235572D01*
X235553Y232000D01*
X235543D01*
Y232010D01*
X235553Y232049D01*
X235572Y232107D01*
X235592Y232185D01*
X235621Y232283D01*
X235650Y232410D01*
X235680Y232537D01*
X235719Y232693D01*
X235758Y232859D01*
X235797Y233035D01*
X235836Y233230D01*
X235884Y233435D01*
X235982Y233864D01*
X236070Y234323D01*
Y234333D01*
X236080Y234352D01*
X236089Y234391D01*
X236099Y234450D01*
X236109Y234518D01*
X236128Y234596D01*
X236148Y234694D01*
X236168Y234791D01*
X236187Y234909D01*
X236207Y235035D01*
X236265Y235309D01*
X236324Y235611D01*
X236392Y235933D01*
X236451Y236275D01*
X236519Y236626D01*
X236655Y237329D01*
X236714Y237671D01*
X236782Y238002D01*
X236831Y238305D01*
X236880Y238578D01*
X238354Y238803D01*
Y238783D01*
D02*
G37*
G36*
X356261Y358967D02*
X356355Y358956D01*
X356472Y358932D01*
X356589Y358909D01*
X356729Y358886D01*
X357022Y358780D01*
X357174Y358721D01*
X357327Y358640D01*
X357491Y358558D01*
X357655Y358440D01*
X357807Y358323D01*
X357959Y358183D01*
X357971Y358171D01*
X357994Y358148D01*
X358029Y358101D01*
X358088Y358042D01*
X358146Y357960D01*
X358217Y357878D01*
X358287Y357773D01*
X358357Y357656D01*
X358427Y357515D01*
X358509Y357375D01*
X358627Y357059D01*
X358685Y356883D01*
X358720Y356696D01*
X358744Y356508D01*
X358755Y356309D01*
Y356298D01*
Y356262D01*
Y356204D01*
X358744Y356134D01*
X358732Y356040D01*
X358708Y355923D01*
X358685Y355806D01*
X358662Y355677D01*
X358556Y355384D01*
X358498Y355220D01*
X358416Y355068D01*
X358334Y354904D01*
X358217Y354740D01*
X358100Y354588D01*
X357959Y354436D01*
X357947Y354424D01*
X357924Y354401D01*
X357877Y354365D01*
X357819Y354307D01*
X357736Y354248D01*
X357655Y354190D01*
X357549Y354108D01*
X357432Y354037D01*
X357292Y353967D01*
X357151Y353897D01*
X356835Y353768D01*
X356659Y353710D01*
X356472Y353675D01*
X356284Y353651D01*
X356085Y353639D01*
X355980D01*
X355910Y353651D01*
X355816Y353663D01*
X355699Y353686D01*
X355582Y353710D01*
X355453Y353745D01*
X355160Y353838D01*
X354996Y353897D01*
X354844Y353979D01*
X354680Y354073D01*
X354516Y354178D01*
X354364Y354295D01*
X354212Y354436D01*
X354200Y354447D01*
X354177Y354471D01*
X354141Y354518D01*
X354083Y354576D01*
X354024Y354658D01*
X353966Y354740D01*
X353884Y354845D01*
X353814Y354974D01*
X353743Y355103D01*
X353673Y355244D01*
X353544Y355560D01*
X353486Y355735D01*
X353451Y355923D01*
X353427Y356110D01*
X353415Y356309D01*
Y356321D01*
Y356356D01*
Y356415D01*
X353427Y356485D01*
X353439Y356579D01*
X353462Y356696D01*
X353486Y356813D01*
X353521Y356953D01*
X353615Y357246D01*
X353673Y357398D01*
X353755Y357551D01*
X353849Y357715D01*
X353954Y357878D01*
X354071Y358031D01*
X354212Y358183D01*
X354223Y358195D01*
X354247Y358218D01*
X354294Y358253D01*
X354352Y358312D01*
X354434Y358370D01*
X354516Y358440D01*
X354622Y358511D01*
X354750Y358581D01*
X354879Y358651D01*
X355020Y358733D01*
X355336Y358850D01*
X355512Y358909D01*
X355699Y358944D01*
X355886Y358967D01*
X356085Y358979D01*
X356191D01*
X356261Y358967D01*
D02*
G37*
G36*
X369618Y334105D02*
X369696Y334086D01*
X369813Y334066D01*
X369950Y334027D01*
X370125Y334008D01*
X370321Y333968D01*
X370516Y333910D01*
X371004Y333832D01*
X371512Y333715D01*
X372059Y333617D01*
X372625Y333519D01*
X372606Y332582D01*
Y332562D01*
Y332543D01*
Y332406D01*
Y332230D01*
X372586Y332035D01*
X372684D01*
X372762Y332015D01*
X372977Y331996D01*
X373250Y331976D01*
X373582Y331937D01*
X373953Y331879D01*
X374344Y331820D01*
X374774Y331742D01*
X374891Y329496D01*
X374852Y329516D01*
X374734Y329535D01*
X374559Y329574D01*
X374305Y329633D01*
X373973Y329711D01*
X373582Y329808D01*
X373133Y329906D01*
X372606Y330004D01*
Y328481D01*
X372528D01*
X372430Y328500D01*
X372313D01*
X372176Y328520D01*
X372000Y328539D01*
X371610Y328578D01*
X371161Y328617D01*
X370692Y328676D01*
X370243Y328734D01*
X369813Y328793D01*
Y329008D01*
Y329027D01*
Y329047D01*
Y329145D01*
Y329301D01*
X369793Y329516D01*
Y329750D01*
X369774Y330004D01*
X369715Y330531D01*
X369696D01*
X369657Y330551D01*
X369579D01*
X369481Y330570D01*
X369247Y330609D01*
X368993Y330648D01*
X368973D01*
X368934Y330668D01*
X368876D01*
X368778Y330687D01*
X368563Y330726D01*
X368290Y330766D01*
X368270D01*
X368231Y330785D01*
X368153Y330804D01*
X368055Y330824D01*
X367801Y330863D01*
X367547Y330922D01*
Y330941D01*
Y331000D01*
X367528Y331078D01*
Y331195D01*
Y331332D01*
X367508Y331488D01*
X367489Y331820D01*
X367450Y332211D01*
X367430Y332582D01*
X367391Y332914D01*
X367372Y333070D01*
X367352Y333187D01*
X367372D01*
X367411Y333168D01*
X367489D01*
X367586Y333129D01*
X367840Y333090D01*
X368133Y333011D01*
X368153D01*
X368212Y332992D01*
X368290Y332972D01*
X368387Y332953D01*
X368641Y332894D01*
X368934Y332816D01*
X368954D01*
X368993Y332797D01*
X369071D01*
X369168Y332757D01*
X369403Y332718D01*
X369696Y332640D01*
Y332660D01*
Y332679D01*
X369676Y332816D01*
X369657Y332972D01*
X369637Y333168D01*
Y333187D01*
Y333207D01*
X369618Y333324D01*
X369598Y333480D01*
Y333676D01*
Y333695D01*
Y333715D01*
X369579Y333832D01*
X369559Y333968D01*
X369539Y334125D01*
X369559D01*
X369618Y334105D01*
D02*
G37*
G36*
X253082Y238851D02*
X253179Y238842D01*
X253277Y238832D01*
X253374Y238812D01*
X253462Y238793D01*
X253472D01*
X253501Y238783D01*
X253540Y238764D01*
X253599Y238744D01*
X253726Y238686D01*
X253853Y238608D01*
X253872Y238598D01*
X253911Y238549D01*
X253970Y238481D01*
X254038Y238393D01*
X254097Y238266D01*
X254155Y238120D01*
X254194Y237944D01*
X254214Y237739D01*
Y237729D01*
Y237719D01*
Y237651D01*
X254204Y237573D01*
X254185Y237475D01*
Y237466D01*
Y237456D01*
X254175Y237397D01*
X254165Y237300D01*
X254145Y237192D01*
X252789Y236792D01*
Y236802D01*
X252799Y236821D01*
X252808Y236860D01*
X252818Y236909D01*
X252828Y237036D01*
X252838Y237183D01*
Y237192D01*
Y237222D01*
X252828Y237251D01*
Y237300D01*
X252789Y237407D01*
X252769Y237456D01*
X252730Y237505D01*
Y237514D01*
X252711Y237524D01*
X252672Y237573D01*
X252603Y237612D01*
X252555Y237622D01*
X252516Y237632D01*
X252496D01*
X252447Y237622D01*
X252379Y237612D01*
X252291Y237573D01*
X252272Y237563D01*
X252223Y237534D01*
X252154Y237495D01*
X252076Y237427D01*
X252067Y237417D01*
X252037Y237387D01*
X251998Y237349D01*
X251949Y237290D01*
X251901Y237231D01*
X251862Y237153D01*
X251832Y237065D01*
X251823Y236978D01*
Y236968D01*
Y236939D01*
X251832Y236890D01*
X251842Y236841D01*
X251881Y236704D01*
X251910Y236636D01*
X251949Y236577D01*
X251959Y236568D01*
X251969Y236548D01*
X251998Y236529D01*
X252037Y236490D01*
X252135Y236392D01*
X252262Y236294D01*
X252272Y236285D01*
X252291Y236275D01*
X252330Y236246D01*
X252379Y236216D01*
X252447Y236177D01*
X252516Y236128D01*
X252672Y236031D01*
X252681Y236021D01*
X252711Y236011D01*
X252750Y235972D01*
X252808Y235933D01*
X252935Y235826D01*
X253082Y235689D01*
X253091Y235680D01*
X253101Y235670D01*
X253121Y235641D01*
X253150Y235592D01*
X253179Y235543D01*
X253218Y235484D01*
X253257Y235406D01*
X253306Y235328D01*
X253345Y235231D01*
X253384Y235123D01*
X253452Y234889D01*
X253501Y234616D01*
X253521Y234469D01*
Y234313D01*
Y234303D01*
Y234264D01*
Y234215D01*
X253511Y234147D01*
X253501Y234059D01*
X253482Y233952D01*
X253462Y233845D01*
X253423Y233718D01*
X253384Y233581D01*
X253335Y233444D01*
X253277Y233308D01*
X253208Y233161D01*
X253121Y233025D01*
X253013Y232878D01*
X252906Y232742D01*
X252769Y232615D01*
X252760Y232605D01*
X252740Y232586D01*
X252701Y232556D01*
X252642Y232517D01*
X252574Y232469D01*
X252486Y232420D01*
X252389Y232361D01*
X252281Y232303D01*
X252154Y232244D01*
X252018Y232185D01*
X251871Y232137D01*
X251705Y232088D01*
X251539Y232049D01*
X251354Y232019D01*
X251169Y232000D01*
X250964Y231990D01*
X250925D01*
X250886Y232000D01*
X250827D01*
X250759Y232019D01*
X250671Y232039D01*
X250583Y232059D01*
X250476Y232098D01*
X250368Y232137D01*
X250251Y232195D01*
X250124Y232263D01*
X249997Y232342D01*
X249871Y232439D01*
X249744Y232547D01*
X249617Y232673D01*
X249490Y232820D01*
X250183Y234186D01*
X250193Y234176D01*
X250212Y234147D01*
X250241Y234098D01*
X250290Y234030D01*
X250359Y233962D01*
X250446Y233884D01*
X250554Y233796D01*
X250681Y233718D01*
X250700Y233708D01*
X250739Y233688D01*
X250807Y233649D01*
X250886Y233610D01*
X250973Y233571D01*
X251071Y233532D01*
X251149Y233513D01*
X251227Y233503D01*
X251335D01*
X251442Y233513D01*
X251539Y233532D01*
X251549D01*
X251559Y233542D01*
X251618Y233562D01*
X251686Y233601D01*
X251764Y233649D01*
X251774Y233659D01*
X251803Y233679D01*
X251832Y233718D01*
X251881Y233767D01*
X251920Y233825D01*
X251949Y233893D01*
X251979Y233962D01*
X251989Y234050D01*
Y234059D01*
Y234089D01*
X251979Y234137D01*
X251969Y234186D01*
X251949Y234255D01*
X251930Y234323D01*
X251891Y234401D01*
X251842Y234469D01*
X251832Y234479D01*
X251813Y234499D01*
X251783Y234538D01*
X251745Y234586D01*
X251686Y234645D01*
X251627Y234713D01*
X251481Y234840D01*
X251471Y234850D01*
X251442Y234869D01*
X251403Y234909D01*
X251344Y234947D01*
X251276Y235006D01*
X251198Y235065D01*
X251012Y235191D01*
X251003Y235201D01*
X250973Y235221D01*
X250925Y235260D01*
X250856Y235309D01*
X250710Y235436D01*
X250554Y235572D01*
X250544Y235582D01*
X250534Y235592D01*
X250476Y235650D01*
X250388Y235748D01*
X250300Y235865D01*
X250202Y236011D01*
X250115Y236177D01*
X250056Y236353D01*
X250046Y236441D01*
X250037Y236538D01*
Y236548D01*
Y236558D01*
Y236587D01*
Y236626D01*
X250056Y236724D01*
X250076Y236841D01*
X250105Y236987D01*
X250154Y237143D01*
X250222Y237309D01*
X250320Y237466D01*
Y237475D01*
X250329Y237485D01*
X250368Y237534D01*
X250437Y237612D01*
X250524Y237710D01*
X250632Y237827D01*
X250749Y237944D01*
X250895Y238071D01*
X251051Y238188D01*
X251061D01*
X251071Y238198D01*
X251130Y238237D01*
X251217Y238295D01*
X251335Y238364D01*
X251481Y238442D01*
X251637Y238529D01*
X251823Y238608D01*
X252008Y238676D01*
X252018D01*
X252028Y238686D01*
X252057Y238695D01*
X252096Y238705D01*
X252193Y238734D01*
X252311Y238773D01*
X252447Y238803D01*
X252594Y238832D01*
X252740Y238851D01*
X252877Y238861D01*
X253004D01*
X253082Y238851D01*
D02*
G37*
G36*
X338275Y358967D02*
X338368Y358956D01*
X338485Y358932D01*
X338602Y358909D01*
X338743Y358886D01*
X339036Y358780D01*
X339188Y358721D01*
X339340Y358640D01*
X339504Y358558D01*
X339668Y358440D01*
X339820Y358323D01*
X339972Y358183D01*
X339984Y358171D01*
X340008Y358148D01*
X340043Y358101D01*
X340101Y358042D01*
X340160Y357960D01*
X340230Y357878D01*
X340300Y357773D01*
X340371Y357656D01*
X340441Y357515D01*
X340523Y357375D01*
X340640Y357059D01*
X340699Y356883D01*
X340734Y356696D01*
X340757Y356508D01*
X340769Y356309D01*
Y356298D01*
Y356262D01*
Y356204D01*
X340757Y356134D01*
X340745Y356040D01*
X340722Y355923D01*
X340699Y355806D01*
X340675Y355677D01*
X340570Y355384D01*
X340511Y355220D01*
X340429Y355068D01*
X340347Y354904D01*
X340230Y354740D01*
X340113Y354588D01*
X339972Y354436D01*
X339961Y354424D01*
X339937Y354401D01*
X339891Y354365D01*
X339832Y354307D01*
X339750Y354248D01*
X339668Y354190D01*
X339563Y354108D01*
X339445Y354037D01*
X339305Y353967D01*
X339164Y353897D01*
X338848Y353768D01*
X338673Y353710D01*
X338485Y353675D01*
X338298Y353651D01*
X338099Y353639D01*
X337993D01*
X337923Y353651D01*
X337829Y353663D01*
X337712Y353686D01*
X337595Y353710D01*
X337467Y353745D01*
X337174Y353838D01*
X337010Y353897D01*
X336858Y353979D01*
X336694Y354073D01*
X336530Y354178D01*
X336378Y354295D01*
X336225Y354436D01*
X336213Y354447D01*
X336190Y354471D01*
X336155Y354518D01*
X336096Y354576D01*
X336038Y354658D01*
X335979Y354740D01*
X335897Y354845D01*
X335827Y354974D01*
X335757Y355103D01*
X335687Y355244D01*
X335558Y355560D01*
X335499Y355735D01*
X335464Y355923D01*
X335441Y356110D01*
X335429Y356309D01*
Y356321D01*
Y356356D01*
Y356415D01*
X335441Y356485D01*
X335452Y356579D01*
X335476Y356696D01*
X335499Y356813D01*
X335534Y356953D01*
X335628Y357246D01*
X335687Y357398D01*
X335769Y357551D01*
X335862Y357715D01*
X335968Y357878D01*
X336085Y358031D01*
X336225Y358183D01*
X336237Y358195D01*
X336260Y358218D01*
X336307Y358253D01*
X336366Y358312D01*
X336448Y358370D01*
X336530Y358440D01*
X336635Y358511D01*
X336764Y358581D01*
X336893Y358651D01*
X337033Y358733D01*
X337349Y358850D01*
X337525Y358909D01*
X337712Y358944D01*
X337900Y358967D01*
X338099Y358979D01*
X338204D01*
X338275Y358967D01*
D02*
G37*
G36*
X376678Y339361D02*
X376746Y339341D01*
X376834Y339312D01*
X376951Y339283D01*
X377088Y339244D01*
X377234Y339195D01*
X377400Y339146D01*
X377585Y339097D01*
X377781Y339039D01*
X378191Y338931D01*
X378620Y338814D01*
X379059Y338697D01*
X379069D01*
X379108Y338687D01*
X379176Y338668D01*
X379254Y338648D01*
X379352Y338619D01*
X379469Y338590D01*
X379606Y338560D01*
X379752Y338521D01*
X379899Y338482D01*
X380065Y338443D01*
X380406Y338355D01*
X380748Y338277D01*
X381089Y338189D01*
X381099D01*
X381128Y338180D01*
X381177Y338170D01*
X381245Y338150D01*
X381324Y338131D01*
X381431Y338102D01*
X381548Y338082D01*
X381675Y338043D01*
X381821Y338014D01*
X381987Y337975D01*
X382163Y337926D01*
X382348Y337887D01*
X382553Y337838D01*
X382758Y337789D01*
X382983Y337740D01*
X383217Y337682D01*
X383578Y335242D01*
X383568D01*
X383529Y335252D01*
X383471D01*
X383383Y335261D01*
X383285Y335271D01*
X383158Y335281D01*
X383022Y335291D01*
X382866Y335310D01*
X382690Y335320D01*
X382495Y335339D01*
X382290Y335359D01*
X382075Y335379D01*
X381851Y335398D01*
X381607Y335418D01*
X381353Y335437D01*
X381099Y335457D01*
X380562Y335505D01*
X379996Y335544D01*
X379420Y335583D01*
X378844Y335623D01*
X378278Y335652D01*
X377712Y335681D01*
X377185Y335701D01*
X376922Y335710D01*
X376678Y335720D01*
Y335730D01*
Y335749D01*
Y335788D01*
Y335837D01*
Y335896D01*
Y335964D01*
X376668Y336140D01*
Y336335D01*
X376648Y336560D01*
X376639Y336794D01*
X376619Y337028D01*
X376600Y337174D01*
X376648D01*
X376707Y337165D01*
X376785Y337155D01*
X376873Y337145D01*
X376980Y337135D01*
X377107Y337126D01*
X377234Y337116D01*
X377517Y337087D01*
X377820Y337057D01*
X378113Y337028D01*
X378396Y336999D01*
X378425D01*
X378464Y336989D01*
X378513D01*
X378571Y336979D01*
X378640D01*
X378805Y336960D01*
X378981Y336940D01*
X379176Y336921D01*
X379362Y336911D01*
X379537Y336891D01*
X379557D01*
X379606Y336882D01*
X379694D01*
X379801Y336872D01*
X379928Y336852D01*
X380074Y336843D01*
X380377Y336813D01*
X380406D01*
X380445Y336804D01*
X380494D01*
X380553Y336794D01*
X380631Y336784D01*
X380797Y336774D01*
X381001Y336755D01*
X381226Y336725D01*
X381470Y336706D01*
X381714Y336677D01*
Y336852D01*
X376727Y337897D01*
Y337906D01*
Y337936D01*
Y337994D01*
X376717Y338053D01*
Y338131D01*
X376707Y338219D01*
X376697Y338394D01*
Y338404D01*
Y338443D01*
X376688Y338492D01*
Y338551D01*
X376678Y338629D01*
Y338717D01*
X376668Y338902D01*
Y338912D01*
Y338941D01*
X376658Y338990D01*
Y339058D01*
X376648Y339126D01*
X376639Y339214D01*
X376619Y339380D01*
X376629D01*
X376678Y339361D01*
D02*
G37*
G36*
X378610Y335359D02*
X378698Y335349D01*
X378815Y335320D01*
X378971Y335271D01*
X379147Y335203D01*
X379352Y335096D01*
X379586Y334969D01*
X379703Y334881D01*
X379830Y334793D01*
X379957Y334695D01*
X380094Y334578D01*
X380230Y334451D01*
X380377Y334315D01*
X380523Y334168D01*
X380670Y334002D01*
X380816Y333827D01*
X380972Y333631D01*
X381128Y333427D01*
X381284Y333202D01*
X381441Y332968D01*
X381607Y332704D01*
X381763Y332431D01*
X381929Y332138D01*
Y332148D01*
Y332158D01*
Y332187D01*
Y332236D01*
Y332285D01*
Y332343D01*
X381919Y332490D01*
Y332665D01*
X381909Y332870D01*
X381899Y333095D01*
X381880Y333339D01*
Y333348D01*
Y333368D01*
X381870Y333407D01*
Y333456D01*
X381860Y333514D01*
Y333583D01*
X381851Y333739D01*
X381831Y333924D01*
X381821Y334120D01*
X381802Y334315D01*
X381792Y334510D01*
X383149Y334354D01*
Y334334D01*
Y334295D01*
X383158Y334217D01*
X383168Y334110D01*
X383178Y333983D01*
X383188Y333827D01*
X383197Y333651D01*
X383207Y333456D01*
Y333446D01*
Y333417D01*
X383217Y333358D01*
Y333290D01*
X383227Y333202D01*
Y333104D01*
X383237Y332997D01*
X383246Y332880D01*
X383256Y332616D01*
X383276Y332333D01*
X383295Y332060D01*
X383315Y331797D01*
Y331787D01*
Y331767D01*
Y331728D01*
X383324Y331680D01*
Y331621D01*
X383334Y331543D01*
X383344Y331465D01*
Y331367D01*
X383363Y331143D01*
X383383Y330899D01*
X383402Y330616D01*
X383422Y330313D01*
X382241Y330469D01*
X382231D01*
X382212Y330479D01*
X382173Y330489D01*
X382114Y330508D01*
X382046Y330538D01*
X381958Y330577D01*
X381860Y330635D01*
X381753Y330713D01*
X381626Y330801D01*
X381480Y330918D01*
X381333Y331055D01*
X381158Y331211D01*
X380982Y331406D01*
X380787Y331621D01*
X380582Y331865D01*
X380367Y332148D01*
X380357Y332158D01*
X380338Y332187D01*
X380299Y332246D01*
X380250Y332304D01*
X380182Y332382D01*
X380113Y332480D01*
X379957Y332675D01*
X379781Y332890D01*
X379615Y333095D01*
X379528Y333192D01*
X379450Y333280D01*
X379381Y333358D01*
X379323Y333417D01*
X379313Y333427D01*
X379274Y333466D01*
X379215Y333514D01*
X379137Y333563D01*
X379059Y333622D01*
X378971Y333661D01*
X378874Y333700D01*
X378786Y333710D01*
X378747D01*
X378708Y333700D01*
X378649D01*
X378522Y333661D01*
X378464Y333641D01*
X378405Y333602D01*
X378396D01*
X378376Y333583D01*
X378327Y333524D01*
X378269Y333446D01*
X378259Y333387D01*
X378249Y333329D01*
Y333319D01*
Y333300D01*
Y333270D01*
X378259Y333241D01*
X378278Y333143D01*
X378317Y333056D01*
X378327Y333036D01*
X378366Y332987D01*
X378425Y332929D01*
X378493Y332880D01*
X378503D01*
X378532Y332860D01*
X378571Y332841D01*
X378630Y332821D01*
X378708Y332802D01*
X378796Y332782D01*
X378893Y332773D01*
X379001Y332763D01*
X379118D01*
X379137Y332773D01*
Y332743D01*
Y332724D01*
X379147Y332685D01*
Y332636D01*
X379157Y332568D01*
X379167Y332480D01*
X379176Y332372D01*
X379186Y332246D01*
X379206Y332089D01*
X379225Y331904D01*
X379245Y331689D01*
X379264Y331435D01*
X379293Y331153D01*
X379264D01*
X379235Y331143D01*
X379196D01*
X379108Y331133D01*
X378942D01*
X378893Y331143D01*
X378815D01*
X378727Y331153D01*
X378620Y331172D01*
X378513Y331201D01*
X378386Y331231D01*
X378249Y331270D01*
X378113Y331318D01*
X377966Y331387D01*
X377820Y331455D01*
X377673Y331543D01*
X377537Y331650D01*
X377390Y331767D01*
X377263Y331904D01*
X377254Y331914D01*
X377234Y331933D01*
X377205Y331972D01*
X377166Y332031D01*
X377127Y332099D01*
X377068Y332177D01*
X377019Y332275D01*
X376961Y332382D01*
X376902Y332490D01*
X376853Y332616D01*
X376756Y332899D01*
X376717Y333056D01*
X376688Y333212D01*
X376668Y333378D01*
X376658Y333553D01*
Y333563D01*
Y333593D01*
Y333631D01*
X376668Y333680D01*
Y333749D01*
X376678Y333827D01*
X376717Y334002D01*
X376766Y334198D01*
X376844Y334412D01*
X376961Y334617D01*
X377029Y334715D01*
X377107Y334812D01*
X377117Y334822D01*
X377127Y334832D01*
X377156Y334861D01*
X377205Y334900D01*
X377254Y334939D01*
X377322Y334988D01*
X377390Y335037D01*
X377478Y335096D01*
X377576Y335144D01*
X377683Y335193D01*
X377800Y335242D01*
X377927Y335281D01*
X378064Y335320D01*
X378210Y335349D01*
X378366Y335359D01*
X378532Y335369D01*
X378552D01*
X378610Y335359D01*
D02*
G37*
G36*
X376756Y331045D02*
X376785D01*
X376824Y331035D01*
X376873Y331016D01*
X376941Y331006D01*
X377019Y330987D01*
X377097Y330967D01*
X377195Y330947D01*
X377302Y330918D01*
X377546Y330869D01*
X377820Y330811D01*
X378122Y330743D01*
X378464Y330664D01*
X378825Y330596D01*
X379215Y330508D01*
X379635Y330430D01*
X380065Y330342D01*
X380523Y330255D01*
X380992Y330176D01*
X381470Y330089D01*
X381480D01*
X381509Y330079D01*
X381548D01*
X381607Y330069D01*
X381685Y330059D01*
X381763Y330040D01*
X381860Y330030D01*
X381977Y330011D01*
X382221Y329972D01*
X382495Y329923D01*
X382787Y329874D01*
X383100Y329825D01*
Y329815D01*
X383110Y329796D01*
X383119Y329767D01*
X383129Y329718D01*
X383149Y329649D01*
X383168Y329581D01*
X383188Y329493D01*
X383217Y329386D01*
X383246Y329279D01*
X383276Y329152D01*
X383305Y329015D01*
X383334Y328869D01*
X383363Y328703D01*
X383402Y328537D01*
X383432Y328351D01*
X383471Y328156D01*
X383461D01*
X383432Y328166D01*
X383393Y328176D01*
X383324Y328185D01*
X383256Y328205D01*
X383168Y328224D01*
X383071Y328244D01*
X382973Y328273D01*
X382749Y328322D01*
X382505Y328371D01*
X382260Y328420D01*
X382026Y328468D01*
X382016D01*
X381997Y328478D01*
X381968D01*
X381929Y328488D01*
X381811Y328517D01*
X381675Y328547D01*
X381519Y328576D01*
X381343Y328605D01*
X381177Y328644D01*
X381021Y328673D01*
X381001D01*
X380953Y328693D01*
X380875Y328703D01*
X380767Y328732D01*
X380650Y328751D01*
X380513Y328781D01*
X380221Y328849D01*
X380191D01*
X380162Y328859D01*
X380123Y328869D01*
X380065Y328878D01*
X379996Y328888D01*
X379918Y328908D01*
X379830Y328917D01*
X379733Y328937D01*
X379615Y328966D01*
X379489Y328986D01*
X379352Y329005D01*
X379206Y329035D01*
X379040Y329064D01*
X378874Y329103D01*
X378688Y329132D01*
Y329122D01*
Y329083D01*
X378698Y329035D01*
X378708Y328957D01*
X378718Y328869D01*
X378737Y328761D01*
X378757Y328634D01*
X378776Y328498D01*
Y328478D01*
X378786Y328439D01*
X378796Y328371D01*
X378805Y328293D01*
X378835Y328127D01*
X378844Y328049D01*
X378854Y327990D01*
X377205Y328224D01*
Y328234D01*
X377195Y328254D01*
X377185Y328293D01*
X377175Y328351D01*
X377166Y328410D01*
X377146Y328488D01*
X377136Y328576D01*
X377117Y328673D01*
X377078Y328878D01*
X377039Y329113D01*
X377000Y329347D01*
X376961Y329591D01*
Y329601D01*
Y329620D01*
X376951Y329659D01*
X376941Y329708D01*
X376932Y329767D01*
X376922Y329835D01*
X376912Y329923D01*
X376892Y330020D01*
X376863Y330235D01*
X376824Y330479D01*
X376775Y330752D01*
X376727Y331055D01*
X376736D01*
X376756Y331045D01*
D02*
G37*
G36*
X364548Y229919D02*
X362674Y228924D01*
X362694D01*
X362733Y228914D01*
X362801Y228894D01*
X362889Y228875D01*
X362996Y228845D01*
X363113Y228806D01*
X363250Y228758D01*
X363387Y228709D01*
X363523Y228641D01*
X363670Y228572D01*
X363806Y228484D01*
X363943Y228397D01*
X364060Y228289D01*
X364167Y228172D01*
X364265Y228045D01*
X364333Y227899D01*
Y227889D01*
X364343Y227860D01*
X364363Y227801D01*
X364382Y227733D01*
X364392Y227645D01*
X364411Y227547D01*
X364421Y227440D01*
Y227313D01*
Y227294D01*
Y227255D01*
X364411Y227186D01*
X364392Y227089D01*
X364363Y226972D01*
X364314Y226835D01*
X364255Y226689D01*
X364177Y226523D01*
X364167Y226503D01*
X364138Y226445D01*
X364080Y226357D01*
X364011Y226249D01*
X363924Y226122D01*
X363806Y225986D01*
X363689Y225849D01*
X363543Y225703D01*
X363523Y225683D01*
X363475Y225644D01*
X363387Y225576D01*
X363279Y225498D01*
X363143Y225400D01*
X362987Y225303D01*
X362811Y225205D01*
X362625Y225117D01*
X362616D01*
X362606Y225107D01*
X362577Y225098D01*
X362538Y225078D01*
X362440Y225049D01*
X362313Y225010D01*
X362167Y224961D01*
X362001Y224932D01*
X361835Y224902D01*
X361669Y224893D01*
X361513D01*
X361415Y224902D01*
X361298Y224912D01*
X361181Y224922D01*
X361064Y224941D01*
X360947Y224961D01*
X360937D01*
X360898Y224971D01*
X360849Y224990D01*
X360781Y225020D01*
X360713Y225049D01*
X360625Y225088D01*
X360459Y225185D01*
X360439Y225205D01*
X360390Y225254D01*
X360312Y225322D01*
X360234Y225439D01*
X360146Y225576D01*
X360068Y225742D01*
X360019Y225927D01*
X360010Y226035D01*
X360000Y226152D01*
Y226161D01*
Y226191D01*
Y226230D01*
X360010Y226288D01*
X360019Y226366D01*
X360029Y226445D01*
X360078Y226630D01*
X361737Y226718D01*
Y226708D01*
Y226689D01*
X361747Y226659D01*
Y226620D01*
X361776Y226532D01*
X361825Y226454D01*
X361845Y226445D01*
X361884Y226415D01*
X361962Y226386D01*
X362050Y226376D01*
X362069D01*
X362137Y226386D01*
X362225Y226405D01*
X362323Y226435D01*
X362333D01*
X362352Y226445D01*
X362411Y226474D01*
X362499Y226523D01*
X362586Y226591D01*
X362596Y226601D01*
X362635Y226630D01*
X362684Y226679D01*
X362733Y226747D01*
X362791Y226815D01*
X362830Y226903D01*
X362869Y226991D01*
X362879Y227089D01*
Y227098D01*
Y227128D01*
X362869Y227176D01*
X362850Y227235D01*
X362821Y227303D01*
X362782Y227381D01*
X362733Y227460D01*
X362655Y227528D01*
X362645Y227538D01*
X362616Y227557D01*
X362567Y227586D01*
X362499Y227625D01*
X362401Y227664D01*
X362294Y227694D01*
X362167Y227713D01*
X362011Y227723D01*
X361854D01*
X361747Y227713D01*
X361630D01*
X361493Y227703D01*
X361220Y227664D01*
X361200D01*
X361161Y227655D01*
X361093Y227645D01*
X361015Y227635D01*
X360917Y227625D01*
X360820Y227616D01*
X360722D01*
X360625Y227606D01*
X360791Y228992D01*
X360800Y229002D01*
X360839Y229021D01*
X360888Y229050D01*
X360957Y229099D01*
X361044Y229158D01*
X361142Y229216D01*
X361249Y229294D01*
X361376Y229373D01*
X361640Y229558D01*
X361923Y229763D01*
X362206Y229968D01*
X362479Y230183D01*
X360966Y230153D01*
X361074Y231773D01*
X361152D01*
X361210Y231783D01*
X361366D01*
X361562Y231793D01*
X361786Y231803D01*
X362011D01*
X362235Y231813D01*
X362450Y231822D01*
X362499D01*
X362538Y231832D01*
X362635D01*
X362752Y231842D01*
X362889D01*
X363026Y231852D01*
X363162Y231861D01*
X363348D01*
X363406Y231871D01*
X363484D01*
X363582Y231881D01*
X363689Y231891D01*
X363904Y231900D01*
X363982D01*
X364070Y231910D01*
X364324D01*
X364470Y231920D01*
X364773D01*
X364548Y229919D01*
D02*
G37*
G36*
X235006Y238920D02*
X235123Y238910D01*
X235250Y238891D01*
X235377Y238871D01*
X235504Y238832D01*
X235621Y238783D01*
X235631Y238773D01*
X235670Y238754D01*
X235728Y238725D01*
X235787Y238686D01*
X235865Y238637D01*
X235943Y238568D01*
X236021Y238500D01*
X236099Y238412D01*
X236109Y238393D01*
X236128Y238364D01*
X236148Y238334D01*
X236177Y238285D01*
X236197Y238237D01*
X236265Y238100D01*
X236324Y237915D01*
X236372Y237700D01*
X236411Y237456D01*
X236421Y237163D01*
Y237153D01*
Y237143D01*
Y237114D01*
Y237075D01*
X236411Y236968D01*
X236402Y236841D01*
X236372Y236685D01*
X236343Y236509D01*
X236294Y236333D01*
X236226Y236148D01*
Y236138D01*
X236216Y236128D01*
X236187Y236070D01*
X236148Y235972D01*
X236089Y235855D01*
X236011Y235719D01*
X235924Y235572D01*
X235826Y235426D01*
X235709Y235279D01*
X235699Y235260D01*
X235650Y235221D01*
X235592Y235143D01*
X235504Y235065D01*
X235387Y234967D01*
X235260Y234860D01*
X235123Y234762D01*
X234967Y234674D01*
X234947Y234665D01*
X234899Y234635D01*
X234811Y234606D01*
X234703Y234567D01*
X234567Y234518D01*
X234420Y234489D01*
X234264Y234459D01*
X234098Y234450D01*
X234001D01*
Y234440D01*
X233991Y234411D01*
X233981Y234372D01*
X233972Y234303D01*
X233952Y234225D01*
X233932Y234137D01*
X233913Y234020D01*
X233884Y233893D01*
X233864Y233747D01*
X233835Y233591D01*
X233796Y233415D01*
X233767Y233220D01*
X233728Y233015D01*
X233698Y232791D01*
X233659Y232556D01*
X233620Y232303D01*
X232010Y232000D01*
Y232010D01*
X232019Y232049D01*
X232029Y232107D01*
X232049Y232185D01*
X232078Y232293D01*
X232098Y232410D01*
X232127Y232547D01*
X232166Y232703D01*
X232205Y232878D01*
X232244Y233064D01*
X232283Y233269D01*
X232332Y233474D01*
X232381Y233698D01*
X232429Y233932D01*
X232527Y234430D01*
X232634Y234957D01*
X232742Y235494D01*
X232957Y236597D01*
X233064Y237143D01*
X233161Y237671D01*
X233240Y238168D01*
X233279Y238403D01*
X233318Y238627D01*
X233327D01*
X233366Y238637D01*
X233415Y238656D01*
X233484Y238676D01*
X233571Y238695D01*
X233669Y238725D01*
X233776Y238754D01*
X233884Y238783D01*
X234137Y238832D01*
X234381Y238881D01*
X234625Y238920D01*
X234733Y238930D01*
X234918D01*
X235006Y238920D01*
D02*
G37*
G36*
X248699Y239017D02*
X248758Y239008D01*
X248836Y238998D01*
X249002Y238949D01*
X249187Y238871D01*
X249275Y238822D01*
X249373Y238764D01*
X249461Y238695D01*
X249549Y238608D01*
X249627Y238510D01*
X249695Y238403D01*
Y238393D01*
X249705Y238383D01*
X249724Y238354D01*
X249744Y238305D01*
X249763Y238256D01*
X249783Y238188D01*
X249812Y238110D01*
X249841Y238022D01*
X249861Y237915D01*
X249890Y237807D01*
X249910Y237680D01*
X249939Y237544D01*
X249949Y237397D01*
X249968Y237231D01*
X249978Y237056D01*
Y236870D01*
Y236860D01*
Y236841D01*
Y236812D01*
Y236773D01*
Y236724D01*
X249968Y236655D01*
X249958Y236509D01*
X249939Y236324D01*
X249910Y236109D01*
X249871Y235884D01*
X249812Y235631D01*
Y235621D01*
X249802Y235601D01*
X249793Y235562D01*
X249783Y235514D01*
X249763Y235455D01*
X249744Y235387D01*
X249705Y235221D01*
X249636Y235026D01*
X249568Y234821D01*
X249480Y234596D01*
X249383Y234381D01*
Y234372D01*
X249373Y234352D01*
X249353Y234323D01*
X249334Y234284D01*
X249275Y234176D01*
X249197Y234040D01*
X249109Y233884D01*
X249002Y233718D01*
X248875Y233542D01*
X248748Y233366D01*
X248729Y233347D01*
X248690Y233288D01*
X248611Y233210D01*
X248514Y233103D01*
X248407Y232986D01*
X248280Y232859D01*
X248133Y232732D01*
X247987Y232605D01*
X247977Y232595D01*
X247948Y232576D01*
X247909Y232547D01*
X247850Y232507D01*
X247772Y232459D01*
X247694Y232400D01*
X247597Y232351D01*
X247489Y232293D01*
X247245Y232176D01*
X246982Y232068D01*
X246845Y232029D01*
X246699Y232000D01*
X246562Y231980D01*
X246415Y231971D01*
X246357D01*
X246308Y231980D01*
X246201Y231990D01*
X246054Y232029D01*
X245898Y232078D01*
X245732Y232156D01*
X245566Y232273D01*
X245488Y232342D01*
X245420Y232420D01*
Y232429D01*
X245401Y232439D01*
X245381Y232469D01*
X245361Y232517D01*
X245332Y232566D01*
X245293Y232625D01*
X245254Y232703D01*
X245225Y232791D01*
X245186Y232888D01*
X245147Y232996D01*
X245117Y233113D01*
X245078Y233249D01*
X245059Y233386D01*
X245039Y233542D01*
X245020Y233708D01*
Y233884D01*
Y233893D01*
Y233932D01*
Y233991D01*
X245030Y234069D01*
X245039Y234167D01*
X245049Y234274D01*
X245059Y234411D01*
X245078Y234557D01*
X245108Y234723D01*
X245137Y234899D01*
X245176Y235084D01*
X245225Y235279D01*
X245274Y235484D01*
X245342Y235699D01*
X245410Y235924D01*
X245498Y236148D01*
X245508Y236158D01*
X245518Y236207D01*
X245547Y236265D01*
X245586Y236353D01*
X245635Y236451D01*
X245693Y236577D01*
X245762Y236704D01*
X245840Y236851D01*
X246025Y237173D01*
X246240Y237505D01*
X246494Y237846D01*
X246777Y238159D01*
X246786Y238168D01*
X246816Y238198D01*
X246865Y238237D01*
X246923Y238295D01*
X247001Y238364D01*
X247099Y238432D01*
X247206Y238510D01*
X247323Y238598D01*
X247450Y238676D01*
X247597Y238754D01*
X247743Y238822D01*
X247899Y238891D01*
X248055Y238949D01*
X248231Y238988D01*
X248397Y239017D01*
X248572Y239027D01*
X248651D01*
X248699Y239017D01*
D02*
G37*
G36*
X252055Y231764D02*
X252045Y231744D01*
Y231715D01*
X252035Y231676D01*
X252016Y231627D01*
X252006Y231559D01*
X251987Y231481D01*
X251967Y231403D01*
X251947Y231305D01*
X251918Y231198D01*
X251869Y230954D01*
X251811Y230680D01*
X251743Y230378D01*
X251664Y230036D01*
X251596Y229675D01*
X251508Y229285D01*
X251430Y228865D01*
X251342Y228435D01*
X251255Y227977D01*
X251177Y227508D01*
X251089Y227030D01*
Y227020D01*
X251079Y226991D01*
Y226952D01*
X251069Y226893D01*
X251059Y226815D01*
X251040Y226737D01*
X251030Y226640D01*
X251011Y226523D01*
X250972Y226279D01*
X250923Y226005D01*
X250874Y225712D01*
X250825Y225400D01*
X250815D01*
X250796Y225390D01*
X250767Y225381D01*
X250718Y225371D01*
X250649Y225351D01*
X250581Y225332D01*
X250493Y225312D01*
X250386Y225283D01*
X250279Y225254D01*
X250152Y225224D01*
X250015Y225195D01*
X249869Y225166D01*
X249703Y225137D01*
X249537Y225098D01*
X249351Y225068D01*
X249156Y225029D01*
Y225039D01*
X249166Y225068D01*
X249176Y225107D01*
X249185Y225176D01*
X249205Y225244D01*
X249224Y225332D01*
X249244Y225429D01*
X249273Y225527D01*
X249322Y225751D01*
X249371Y225995D01*
X249420Y226239D01*
X249468Y226474D01*
Y226483D01*
X249478Y226503D01*
Y226532D01*
X249488Y226571D01*
X249517Y226689D01*
X249547Y226825D01*
X249576Y226981D01*
X249605Y227157D01*
X249644Y227323D01*
X249673Y227479D01*
Y227499D01*
X249693Y227547D01*
X249703Y227625D01*
X249732Y227733D01*
X249751Y227850D01*
X249781Y227987D01*
X249849Y228279D01*
Y228289D01*
Y228309D01*
X249859Y228338D01*
X249869Y228377D01*
X249878Y228435D01*
X249888Y228504D01*
X249908Y228582D01*
X249917Y228670D01*
X249937Y228767D01*
X249966Y228885D01*
X249986Y229011D01*
X250005Y229148D01*
X250035Y229294D01*
X250064Y229460D01*
X250103Y229626D01*
X250132Y229812D01*
X250083D01*
X250035Y229802D01*
X249956Y229792D01*
X249869Y229782D01*
X249761Y229763D01*
X249634Y229743D01*
X249498Y229724D01*
X249478D01*
X249439Y229714D01*
X249371Y229704D01*
X249293Y229695D01*
X249127Y229665D01*
X249049Y229656D01*
X248990Y229646D01*
X249224Y231295D01*
X249234D01*
X249254Y231305D01*
X249293Y231315D01*
X249351Y231325D01*
X249410Y231334D01*
X249488Y231354D01*
X249576Y231364D01*
X249673Y231383D01*
X249878Y231422D01*
X250113Y231461D01*
X250347Y231500D01*
X250591Y231539D01*
X250620D01*
X250659Y231549D01*
X250708Y231559D01*
X250767Y231569D01*
X250835Y231578D01*
X250923Y231588D01*
X251020Y231608D01*
X251235Y231637D01*
X251479Y231676D01*
X251752Y231725D01*
X252055Y231773D01*
Y231764D01*
D02*
G37*
G36*
X347383Y255724D02*
X347471Y255714D01*
X347588Y255704D01*
X347706Y255695D01*
X347852Y255665D01*
X348008Y255636D01*
X348164Y255607D01*
X348340Y255558D01*
X348525Y255509D01*
X348721Y255451D01*
X348926Y255382D01*
X349131Y255304D01*
X349336Y255207D01*
X349345Y255197D01*
X349384Y255177D01*
X349443Y255148D01*
X349531Y255109D01*
X349628Y255050D01*
X349745Y254982D01*
X349872Y254904D01*
X350009Y254816D01*
X350155Y254709D01*
X350311Y254601D01*
X350468Y254484D01*
X350624Y254348D01*
X350936Y254065D01*
X351083Y253899D01*
X351229Y253733D01*
X351239Y253723D01*
X351268Y253684D01*
X351307Y253625D01*
X351356Y253557D01*
X351414Y253460D01*
X351483Y253342D01*
X351561Y253216D01*
X351629Y253069D01*
X351707Y252913D01*
X351785Y252737D01*
X351854Y252552D01*
X351912Y252366D01*
X351961Y252161D01*
X352000Y251957D01*
X352029Y251742D01*
X352039Y251517D01*
Y251507D01*
Y251478D01*
Y251439D01*
X352029Y251371D01*
Y251303D01*
X352020Y251205D01*
X352010Y251107D01*
X352000Y250990D01*
X351980D01*
X351941Y251000D01*
X351873Y251020D01*
X351776Y251039D01*
X351658Y251059D01*
X351522Y251088D01*
X351366Y251117D01*
X351190Y251146D01*
X350995Y251185D01*
X350780Y251234D01*
X350555Y251273D01*
X350321Y251322D01*
X350077Y251371D01*
X349814Y251420D01*
X349277Y251517D01*
X348721Y251625D01*
X348164Y251732D01*
X347608Y251830D01*
X347071Y251927D01*
X346817Y251976D01*
X346564Y252015D01*
X346329Y252054D01*
X346105Y252093D01*
X345890Y252132D01*
X345695Y252161D01*
X345510Y252191D01*
X345353Y252210D01*
Y252230D01*
X345344Y252279D01*
X345324Y252366D01*
X345305Y252464D01*
X345285Y252591D01*
X345256Y252728D01*
X345207Y253030D01*
Y253050D01*
X345197Y253098D01*
X345187Y253186D01*
X345168Y253294D01*
X345158Y253420D01*
X345148Y253577D01*
X345139Y253733D01*
Y253908D01*
Y253918D01*
Y253928D01*
Y253987D01*
X345148Y254074D01*
X345158Y254191D01*
X345178Y254318D01*
X345207Y254465D01*
X345246Y254601D01*
X345305Y254738D01*
X345314Y254758D01*
X345334Y254797D01*
X345373Y254865D01*
X345422Y254943D01*
X345480Y255041D01*
X345558Y255138D01*
X345646Y255226D01*
X345744Y255314D01*
X345754Y255324D01*
X345773Y255333D01*
X345802Y255353D01*
X345841Y255382D01*
X345900Y255412D01*
X345968Y255451D01*
X346046Y255490D01*
X346134Y255529D01*
X346232Y255568D01*
X346339Y255597D01*
X346466Y255636D01*
X346593Y255665D01*
X346886Y255714D01*
X347042Y255734D01*
X347305D01*
X347383Y255724D01*
D02*
G37*
G36*
X255383Y373697D02*
X255471Y373687D01*
X255589Y373677D01*
X255706Y373668D01*
X255852Y373638D01*
X256008Y373609D01*
X256164Y373580D01*
X256340Y373531D01*
X256525Y373482D01*
X256721Y373424D01*
X256926Y373355D01*
X257131Y373277D01*
X257335Y373180D01*
X257345Y373170D01*
X257384Y373150D01*
X257443Y373121D01*
X257531Y373082D01*
X257628Y373024D01*
X257745Y372955D01*
X257872Y372877D01*
X258009Y372789D01*
X258155Y372682D01*
X258312Y372575D01*
X258468Y372457D01*
X258624Y372321D01*
X258936Y372038D01*
X259083Y371872D01*
X259229Y371706D01*
X259239Y371696D01*
X259268Y371657D01*
X259307Y371599D01*
X259356Y371530D01*
X259414Y371433D01*
X259483Y371316D01*
X259561Y371189D01*
X259629Y371042D01*
X259707Y370886D01*
X259785Y370710D01*
X259854Y370525D01*
X259912Y370339D01*
X259961Y370135D01*
X260000Y369930D01*
X260029Y369715D01*
X260039Y369490D01*
Y369481D01*
Y369451D01*
Y369412D01*
X260029Y369344D01*
Y369276D01*
X260019Y369178D01*
X260010Y369080D01*
X260000Y368963D01*
X259981D01*
X259941Y368973D01*
X259873Y368993D01*
X259775Y369012D01*
X259658Y369032D01*
X259522Y369061D01*
X259366Y369090D01*
X259190Y369120D01*
X258995Y369159D01*
X258780Y369207D01*
X258556Y369246D01*
X258321Y369295D01*
X258077Y369344D01*
X257814Y369393D01*
X257277Y369490D01*
X256721Y369598D01*
X256164Y369705D01*
X255608Y369803D01*
X255071Y369900D01*
X254817Y369949D01*
X254564Y369988D01*
X254329Y370027D01*
X254105Y370066D01*
X253890Y370105D01*
X253695Y370135D01*
X253510Y370164D01*
X253353Y370183D01*
Y370203D01*
X253344Y370252D01*
X253324Y370339D01*
X253305Y370437D01*
X253285Y370564D01*
X253256Y370701D01*
X253207Y371003D01*
Y371023D01*
X253197Y371072D01*
X253187Y371159D01*
X253168Y371267D01*
X253158Y371394D01*
X253149Y371550D01*
X253139Y371706D01*
Y371882D01*
Y371891D01*
Y371901D01*
Y371960D01*
X253149Y372047D01*
X253158Y372165D01*
X253178Y372291D01*
X253207Y372438D01*
X253246Y372575D01*
X253305Y372711D01*
X253314Y372731D01*
X253334Y372770D01*
X253373Y372838D01*
X253422Y372916D01*
X253480Y373014D01*
X253558Y373111D01*
X253646Y373199D01*
X253744Y373287D01*
X253754Y373297D01*
X253773Y373307D01*
X253802Y373326D01*
X253841Y373355D01*
X253900Y373385D01*
X253968Y373424D01*
X254046Y373463D01*
X254134Y373502D01*
X254232Y373541D01*
X254339Y373570D01*
X254466Y373609D01*
X254593Y373638D01*
X254886Y373687D01*
X255042Y373707D01*
X255305D01*
X255383Y373697D01*
D02*
G37*
G36*
X253109Y369998D02*
X253149Y369988D01*
X253207Y369969D01*
X253334Y369930D01*
X253490Y369891D01*
X253500D01*
X253519Y369881D01*
X253558D01*
X253607Y369861D01*
X253734Y369842D01*
X253881Y369803D01*
X253890D01*
X253910Y369793D01*
X253949Y369783D01*
X253988Y369773D01*
X254095Y369754D01*
X254212Y369734D01*
Y369725D01*
Y369686D01*
X254222Y369617D01*
Y369529D01*
X254232Y369422D01*
Y369295D01*
X254242Y369139D01*
Y368973D01*
Y368349D01*
X255930Y368017D01*
Y368026D01*
Y368036D01*
X255920Y368105D01*
Y368192D01*
X255911Y368309D01*
Y368436D01*
X255901Y368583D01*
X255891Y368719D01*
Y368856D01*
Y368876D01*
Y368915D01*
Y368973D01*
X255881Y369041D01*
Y369188D01*
X255872Y369246D01*
Y369295D01*
X255920D01*
X255969Y369285D01*
X256037Y369276D01*
X256116Y369266D01*
X256213Y369256D01*
X256399Y369227D01*
X256408D01*
X256438Y369217D01*
X256486D01*
X256555Y369207D01*
X256633Y369198D01*
X256721Y369178D01*
X256916Y369149D01*
Y369129D01*
Y369110D01*
Y369071D01*
X256926Y369032D01*
Y368973D01*
Y368915D01*
Y368836D01*
Y368827D01*
Y368797D01*
Y368758D01*
Y368710D01*
Y368641D01*
Y368563D01*
X256935Y368397D01*
Y368388D01*
Y368358D01*
Y368309D01*
X256945Y368251D01*
Y368173D01*
Y368085D01*
X256955Y367890D01*
X258692Y367568D01*
X258468Y368934D01*
X259541Y368836D01*
X260000Y365801D01*
X253334Y367031D01*
X253070Y370008D01*
X253080D01*
X253109Y369998D01*
D02*
G37*
G36*
X253119Y365840D02*
X253168Y365830D01*
X253236Y365811D01*
X253324Y365791D01*
X253422Y365772D01*
X253529Y365743D01*
X253656Y365713D01*
X253793Y365684D01*
X253949Y365645D01*
X254271Y365577D01*
X254622Y365489D01*
X254993Y365411D01*
X255754Y365235D01*
X256135Y365147D01*
X256486Y365069D01*
X256808Y365001D01*
X256965Y364971D01*
X257101Y364942D01*
X257228Y364913D01*
X257345Y364893D01*
X257443Y364874D01*
X257531Y364854D01*
X257540D01*
X257570Y364845D01*
X257609D01*
X257667Y364835D01*
X257726Y364825D01*
X257804Y364806D01*
X257980Y364776D01*
X258175Y364747D01*
X258360Y364718D01*
X258536Y364688D01*
X258614Y364679D01*
X258682Y364669D01*
Y364688D01*
X258673Y364737D01*
Y364815D01*
X258663Y364923D01*
Y365059D01*
X258653Y365225D01*
Y365421D01*
Y365645D01*
X258712D01*
X258780Y365655D01*
X258858D01*
X258956Y365665D01*
X259053Y365674D01*
X259151Y365684D01*
X259239Y365694D01*
X259248D01*
X259278Y365704D01*
X259317D01*
X259366Y365713D01*
X259473Y365733D01*
X259522Y365743D01*
X259590D01*
X259629Y365752D01*
X259678Y365762D01*
X259707Y365772D01*
X259697Y365489D01*
Y365479D01*
Y365450D01*
Y365391D01*
Y365323D01*
X259707Y365235D01*
Y365137D01*
Y365020D01*
X259717Y364884D01*
X259727Y364747D01*
X259736Y364591D01*
X259775Y364269D01*
X259815Y363927D01*
X259873Y363566D01*
Y363556D01*
X259883Y363517D01*
X259902Y363459D01*
X259912Y363381D01*
X259932Y363293D01*
X259961Y363195D01*
X260010Y363000D01*
X259990D01*
X259932Y363010D01*
X259844Y363019D01*
X259717Y363039D01*
X259561Y363059D01*
X259375Y363088D01*
X259170Y363117D01*
X258936Y363156D01*
X258673Y363195D01*
X258399Y363234D01*
X258107Y363283D01*
X257794Y363332D01*
X257472Y363390D01*
X257140Y363449D01*
X256457Y363576D01*
X256438D01*
X256408Y363586D01*
X256369Y363595D01*
X256272Y363615D01*
X256145Y363634D01*
X255979Y363673D01*
X255793Y363703D01*
X255589Y363752D01*
X255364Y363791D01*
X255120Y363839D01*
X254866Y363888D01*
X254339Y363996D01*
X253802Y364103D01*
X253549Y364152D01*
X253305Y364200D01*
X253080Y365850D01*
X253090D01*
X253119Y365840D01*
D02*
G37*
G36*
X365524Y361204D02*
X365582Y361181D01*
X365641Y361145D01*
X365676Y361099D01*
Y361064D01*
Y361028D01*
X365652Y360993D01*
X365617Y360946D01*
X365570Y360900D01*
X365500Y360853D01*
Y358932D01*
Y358921D01*
Y358886D01*
X365512Y358815D01*
X365524Y358733D01*
X365535Y358628D01*
X365559Y358511D01*
X365582Y358359D01*
X365617Y358195D01*
X365664Y358019D01*
X365711Y357832D01*
X365770Y357621D01*
X365840Y357410D01*
X366004Y356942D01*
X366109Y356696D01*
X366226Y356450D01*
X366343Y356181D01*
X366484Y355923D01*
X366636Y355654D01*
X366812Y355384D01*
X366999Y355127D01*
X367198Y354857D01*
X367421Y354588D01*
X367655Y354330D01*
X367913Y354073D01*
X368182Y353827D01*
X368475Y353581D01*
X368791Y353347D01*
X369130Y353112D01*
X369493Y352902D01*
X369868Y352703D01*
X370278Y352515D01*
X369716Y351344D01*
X369704D01*
X369681Y351356D01*
X369634Y351379D01*
X369575Y351414D01*
X369493Y351450D01*
X369411Y351497D01*
X369306Y351555D01*
X369189Y351625D01*
X368920Y351789D01*
X368627Y351988D01*
X368287Y352222D01*
X367936Y352515D01*
X367561Y352831D01*
X367175Y353206D01*
X366987Y353417D01*
X366788Y353628D01*
X366601Y353850D01*
X366414Y354096D01*
X366238Y354342D01*
X366051Y354600D01*
X365875Y354881D01*
X365711Y355173D01*
X365559Y355466D01*
X365407Y355782D01*
X365254Y356110D01*
X365125Y356450D01*
Y356438D01*
X365114Y356415D01*
X365102Y356368D01*
X365079Y356298D01*
X365044Y356216D01*
X365008Y356110D01*
X364973Y356005D01*
X364915Y355876D01*
X364856Y355735D01*
X364798Y355583D01*
X364634Y355255D01*
X364435Y354892D01*
X364200Y354494D01*
X363931Y354084D01*
X363603Y353663D01*
X363428Y353452D01*
X363240Y353230D01*
X363041Y353019D01*
X362830Y352820D01*
X362608Y352609D01*
X362374Y352410D01*
X362128Y352211D01*
X361858Y352023D01*
X361589Y351836D01*
X361296Y351660D01*
X360992Y351497D01*
X360676Y351344D01*
X359973Y352375D01*
X359985D01*
X360020Y352398D01*
X360079Y352422D01*
X360160Y352457D01*
X360266Y352503D01*
X360383Y352562D01*
X360524Y352632D01*
X360664Y352714D01*
X360828Y352808D01*
X361004Y352925D01*
X361191Y353042D01*
X361378Y353171D01*
X361577Y353311D01*
X361788Y353475D01*
X361987Y353639D01*
X362198Y353827D01*
X362409Y354026D01*
X362608Y354237D01*
X362819Y354459D01*
X363018Y354705D01*
X363205Y354963D01*
X363392Y355232D01*
X363568Y355513D01*
X363732Y355818D01*
X363873Y356134D01*
X364013Y356462D01*
X364130Y356813D01*
X364236Y357176D01*
X364317Y357551D01*
X364376Y357949D01*
X364411Y358359D01*
X364423Y358792D01*
Y361227D01*
X365477D01*
X365524Y361204D01*
D02*
G37*
G36*
X345765Y292035D02*
Y292025D01*
Y291976D01*
Y291908D01*
X345755Y291820D01*
Y291722D01*
Y291605D01*
X345745Y291478D01*
Y291342D01*
X345736Y291059D01*
Y290932D01*
Y290795D01*
X345726Y290678D01*
Y290581D01*
Y290493D01*
Y290424D01*
Y290415D01*
Y290405D01*
Y290375D01*
Y290336D01*
Y290239D01*
Y290122D01*
Y289985D01*
X345736Y289839D01*
Y289702D01*
X345745Y289565D01*
Y289556D01*
Y289507D01*
Y289448D01*
Y289370D01*
X345755Y289282D01*
Y289185D01*
Y288990D01*
X344096Y289439D01*
Y289448D01*
Y289487D01*
Y289536D01*
X344106Y289604D01*
Y289683D01*
Y289780D01*
X344115Y289985D01*
X344125Y290200D01*
Y290415D01*
X344135Y290512D01*
Y290600D01*
Y290668D01*
Y290727D01*
Y290737D01*
Y290766D01*
Y290815D01*
Y290883D01*
Y290961D01*
Y291049D01*
Y291156D01*
X344125Y291264D01*
Y291517D01*
X344115Y291791D01*
X344106Y292074D01*
X344086Y292357D01*
X345765Y292035D01*
D02*
G37*
G36*
X329551Y361204D02*
X329609Y361181D01*
X329668Y361145D01*
X329703Y361099D01*
Y361064D01*
Y361028D01*
X329679Y360993D01*
X329644Y360946D01*
X329597Y360900D01*
X329527Y360853D01*
Y358932D01*
Y358921D01*
Y358886D01*
X329539Y358815D01*
X329551Y358733D01*
X329562Y358628D01*
X329586Y358511D01*
X329609Y358359D01*
X329644Y358195D01*
X329691Y358019D01*
X329738Y357832D01*
X329797Y357621D01*
X329867Y357410D01*
X330031Y356942D01*
X330136Y356696D01*
X330253Y356450D01*
X330370Y356181D01*
X330511Y355923D01*
X330663Y355654D01*
X330839Y355384D01*
X331026Y355127D01*
X331225Y354857D01*
X331448Y354588D01*
X331682Y354330D01*
X331939Y354073D01*
X332209Y353827D01*
X332502Y353581D01*
X332818Y353347D01*
X333157Y353112D01*
X333520Y352902D01*
X333895Y352703D01*
X334305Y352515D01*
X333743Y351344D01*
X333731D01*
X333708Y351356D01*
X333661Y351379D01*
X333602Y351414D01*
X333520Y351450D01*
X333438Y351497D01*
X333333Y351555D01*
X333216Y351625D01*
X332946Y351789D01*
X332654Y351988D01*
X332314Y352222D01*
X331963Y352515D01*
X331588Y352831D01*
X331202Y353206D01*
X331014Y353417D01*
X330815Y353628D01*
X330628Y353850D01*
X330440Y354096D01*
X330265Y354342D01*
X330078Y354600D01*
X329902Y354881D01*
X329738Y355173D01*
X329586Y355466D01*
X329433Y355782D01*
X329281Y356110D01*
X329152Y356450D01*
Y356438D01*
X329141Y356415D01*
X329129Y356368D01*
X329106Y356298D01*
X329070Y356216D01*
X329035Y356110D01*
X329000Y356005D01*
X328942Y355876D01*
X328883Y355735D01*
X328824Y355583D01*
X328661Y355255D01*
X328462Y354892D01*
X328227Y354494D01*
X327958Y354084D01*
X327630Y353663D01*
X327454Y353452D01*
X327267Y353230D01*
X327068Y353019D01*
X326857Y352820D01*
X326635Y352609D01*
X326401Y352410D01*
X326155Y352211D01*
X325885Y352023D01*
X325616Y351836D01*
X325323Y351660D01*
X325019Y351497D01*
X324703Y351344D01*
X324000Y352375D01*
X324012D01*
X324047Y352398D01*
X324105Y352422D01*
X324187Y352457D01*
X324293Y352503D01*
X324410Y352562D01*
X324550Y352632D01*
X324691Y352714D01*
X324855Y352808D01*
X325030Y352925D01*
X325218Y353042D01*
X325405Y353171D01*
X325604Y353311D01*
X325815Y353475D01*
X326014Y353639D01*
X326225Y353827D01*
X326436Y354026D01*
X326635Y354237D01*
X326846Y354459D01*
X327045Y354705D01*
X327232Y354963D01*
X327419Y355232D01*
X327595Y355513D01*
X327759Y355818D01*
X327899Y356134D01*
X328040Y356462D01*
X328157Y356813D01*
X328262Y357176D01*
X328344Y357551D01*
X328403Y357949D01*
X328438Y358359D01*
X328450Y358792D01*
Y361227D01*
X329504D01*
X329551Y361204D01*
D02*
G37*
G36*
X343384Y289224D02*
X343471Y289214D01*
X343588Y289204D01*
X343706Y289195D01*
X343852Y289165D01*
X344008Y289136D01*
X344164Y289107D01*
X344340Y289058D01*
X344525Y289009D01*
X344721Y288951D01*
X344926Y288882D01*
X345131Y288804D01*
X345336Y288707D01*
X345345Y288697D01*
X345384Y288677D01*
X345443Y288648D01*
X345531Y288609D01*
X345628Y288550D01*
X345745Y288482D01*
X345872Y288404D01*
X346009Y288316D01*
X346155Y288209D01*
X346311Y288101D01*
X346468Y287984D01*
X346624Y287848D01*
X346936Y287565D01*
X347083Y287399D01*
X347229Y287233D01*
X347239Y287223D01*
X347268Y287184D01*
X347307Y287125D01*
X347356Y287057D01*
X347414Y286960D01*
X347483Y286842D01*
X347561Y286716D01*
X347629Y286569D01*
X347707Y286413D01*
X347785Y286237D01*
X347854Y286052D01*
X347912Y285866D01*
X347961Y285661D01*
X348000Y285456D01*
X348029Y285242D01*
X348039Y285017D01*
Y285008D01*
Y284978D01*
Y284939D01*
X348029Y284871D01*
Y284803D01*
X348020Y284705D01*
X348010Y284607D01*
X348000Y284490D01*
X347980D01*
X347941Y284500D01*
X347873Y284520D01*
X347776Y284539D01*
X347658Y284559D01*
X347522Y284588D01*
X347366Y284617D01*
X347190Y284646D01*
X346995Y284685D01*
X346780Y284734D01*
X346555Y284773D01*
X346321Y284822D01*
X346077Y284871D01*
X345814Y284920D01*
X345277Y285017D01*
X344721Y285125D01*
X344164Y285232D01*
X343608Y285330D01*
X343071Y285427D01*
X342817Y285476D01*
X342564Y285515D01*
X342329Y285554D01*
X342105Y285593D01*
X341890Y285632D01*
X341695Y285661D01*
X341510Y285691D01*
X341353Y285710D01*
Y285730D01*
X341344Y285779D01*
X341324Y285866D01*
X341305Y285964D01*
X341285Y286091D01*
X341256Y286227D01*
X341207Y286530D01*
Y286550D01*
X341197Y286598D01*
X341188Y286686D01*
X341168Y286794D01*
X341158Y286920D01*
X341148Y287077D01*
X341139Y287233D01*
Y287408D01*
Y287418D01*
Y287428D01*
Y287487D01*
X341148Y287574D01*
X341158Y287691D01*
X341178Y287818D01*
X341207Y287965D01*
X341246Y288101D01*
X341305Y288238D01*
X341314Y288258D01*
X341334Y288297D01*
X341373Y288365D01*
X341422Y288443D01*
X341480Y288541D01*
X341558Y288638D01*
X341646Y288726D01*
X341744Y288814D01*
X341754Y288824D01*
X341773Y288833D01*
X341802Y288853D01*
X341841Y288882D01*
X341900Y288912D01*
X341968Y288951D01*
X342046Y288990D01*
X342134Y289029D01*
X342232Y289068D01*
X342339Y289097D01*
X342466Y289136D01*
X342593Y289165D01*
X342886Y289214D01*
X343042Y289234D01*
X343305D01*
X343384Y289224D01*
D02*
G37*
G36*
X309688Y370282D02*
X309672Y370188D01*
X309641Y370047D01*
X309594Y369844D01*
X309532Y369579D01*
X309454Y369267D01*
X309375Y368907D01*
X309297Y368485D01*
X310516D01*
Y368470D01*
Y368423D01*
X310500Y368345D01*
Y368251D01*
X310484Y368142D01*
X310469Y368001D01*
X310437Y367689D01*
X310406Y367330D01*
X310359Y366955D01*
X310313Y366596D01*
X310266Y366252D01*
X309860D01*
X309688Y366236D01*
X309500D01*
X309297Y366221D01*
X308875Y366174D01*
Y366158D01*
X308860Y366127D01*
Y366064D01*
X308844Y365986D01*
X308813Y365799D01*
X308782Y365596D01*
Y365580D01*
X308766Y365549D01*
Y365502D01*
X308751Y365424D01*
X308719Y365252D01*
X308688Y365034D01*
Y365018D01*
X308672Y364987D01*
X308657Y364924D01*
X308641Y364846D01*
X308610Y364643D01*
X308563Y364440D01*
X308501D01*
X308438Y364424D01*
X308235D01*
X308110Y364409D01*
X307845Y364393D01*
X307532Y364362D01*
X307235Y364346D01*
X306970Y364315D01*
X306845Y364299D01*
X306751Y364284D01*
Y364299D01*
X306767Y364331D01*
Y364393D01*
X306798Y364471D01*
X306829Y364674D01*
X306892Y364909D01*
Y364924D01*
X306907Y364971D01*
X306923Y365034D01*
X306939Y365112D01*
X306985Y365315D01*
X307048Y365549D01*
Y365565D01*
X307064Y365596D01*
Y365658D01*
X307095Y365736D01*
X307126Y365924D01*
X307189Y366158D01*
X307157D01*
X307048Y366143D01*
X306923Y366127D01*
X306767Y366111D01*
X306736D01*
X306642Y366096D01*
X306517Y366080D01*
X306329D01*
X306236Y366064D01*
X306126Y366049D01*
X306001Y366033D01*
Y366049D01*
X306017Y366096D01*
X306033Y366158D01*
X306048Y366252D01*
X306080Y366361D01*
X306095Y366502D01*
X306126Y366658D01*
X306173Y366814D01*
X306236Y367205D01*
X306329Y367611D01*
X306408Y368048D01*
X306486Y368501D01*
X307235Y368485D01*
X307517D01*
X307673Y368470D01*
Y368485D01*
Y368501D01*
Y368548D01*
X307688Y368611D01*
X307704Y368782D01*
X307720Y369001D01*
X307751Y369267D01*
X307798Y369563D01*
X307845Y369876D01*
X307907Y370219D01*
X309703Y370313D01*
X309688Y370282D01*
D02*
G37*
G36*
X348311Y258379D02*
X348350Y258369D01*
X348408Y258359D01*
X348477Y258340D01*
X348565Y258330D01*
X348662Y258310D01*
X348760Y258281D01*
X349004Y258242D01*
X349257Y258183D01*
X349531Y258135D01*
X349814Y258086D01*
X349804Y257617D01*
Y257608D01*
Y257598D01*
Y257529D01*
Y257442D01*
X349794Y257344D01*
X349843D01*
X349882Y257334D01*
X349989Y257325D01*
X350126Y257315D01*
X350292Y257295D01*
X350477Y257266D01*
X350673Y257237D01*
X350887Y257198D01*
X350946Y256075D01*
X350926Y256085D01*
X350868Y256095D01*
X350780Y256114D01*
X350653Y256143D01*
X350487Y256183D01*
X350292Y256231D01*
X350067Y256280D01*
X349804Y256329D01*
Y255568D01*
X349765D01*
X349716Y255577D01*
X349658D01*
X349589Y255587D01*
X349501Y255597D01*
X349306Y255616D01*
X349082Y255636D01*
X348848Y255665D01*
X348623Y255695D01*
X348408Y255724D01*
Y255831D01*
Y255841D01*
Y255851D01*
Y255900D01*
Y255978D01*
X348399Y256085D01*
Y256202D01*
X348389Y256329D01*
X348359Y256592D01*
X348350D01*
X348330Y256602D01*
X348291D01*
X348242Y256612D01*
X348125Y256631D01*
X347998Y256651D01*
X347989D01*
X347969Y256661D01*
X347940D01*
X347891Y256671D01*
X347784Y256690D01*
X347647Y256710D01*
X347637D01*
X347618Y256719D01*
X347579Y256729D01*
X347530Y256739D01*
X347403Y256758D01*
X347276Y256788D01*
Y256797D01*
Y256827D01*
X347266Y256866D01*
Y256924D01*
Y256993D01*
X347257Y257071D01*
X347247Y257237D01*
X347227Y257432D01*
X347218Y257617D01*
X347198Y257783D01*
X347188Y257861D01*
X347179Y257920D01*
X347188D01*
X347208Y257910D01*
X347247D01*
X347296Y257891D01*
X347423Y257871D01*
X347569Y257832D01*
X347579D01*
X347608Y257822D01*
X347647Y257812D01*
X347696Y257803D01*
X347823Y257773D01*
X347969Y257734D01*
X347979D01*
X347998Y257725D01*
X348037D01*
X348086Y257705D01*
X348203Y257686D01*
X348350Y257647D01*
Y257656D01*
Y257666D01*
X348340Y257734D01*
X348330Y257812D01*
X348321Y257910D01*
Y257920D01*
Y257930D01*
X348311Y257988D01*
X348301Y258066D01*
Y258164D01*
Y258174D01*
Y258183D01*
X348291Y258242D01*
X348281Y258310D01*
X348272Y258388D01*
X348281D01*
X348311Y258379D01*
D02*
G37*
G36*
X352900Y352094D02*
X352889Y352082D01*
X352853Y352035D01*
X352783Y351965D01*
X352701Y351883D01*
X352584Y351778D01*
X352455Y351660D01*
X352303Y351543D01*
X352127Y351414D01*
X351928Y351286D01*
X351718Y351169D01*
X351495Y351051D01*
X351238Y350946D01*
X350980Y350864D01*
X350699Y350794D01*
X350394Y350747D01*
X350090Y350735D01*
X350020D01*
X349926Y350747D01*
X349821Y350759D01*
X349680Y350782D01*
X349504Y350806D01*
X349329Y350852D01*
X349130Y350911D01*
X348907Y350981D01*
X348685Y351063D01*
X348450Y351180D01*
X348216Y351309D01*
X347970Y351461D01*
X347736Y351649D01*
X347502Y351859D01*
X347280Y352094D01*
X347795Y352609D01*
X347806Y352597D01*
X347842Y352562D01*
X347900Y352503D01*
X347970Y352422D01*
X348064Y352340D01*
X348181Y352234D01*
X348310Y352129D01*
X348450Y352023D01*
X348614Y351918D01*
X348790Y351813D01*
X348977Y351707D01*
X349177Y351625D01*
X349387Y351543D01*
X349610Y351485D01*
X349844Y351450D01*
X350090Y351438D01*
X350148D01*
X350219Y351450D01*
X350312Y351461D01*
X350430Y351473D01*
X350570Y351497D01*
X350722Y351532D01*
X350886Y351590D01*
X351062Y351649D01*
X351249Y351719D01*
X351436Y351824D01*
X351636Y351930D01*
X351823Y352070D01*
X352022Y352222D01*
X352209Y352398D01*
X352385Y352609D01*
X352900Y352094D01*
D02*
G37*
G36*
X346847Y295650D02*
X346837D01*
X346817Y295640D01*
X346778Y295631D01*
X346739Y295621D01*
X346622Y295582D01*
X346495Y295523D01*
X346369Y295455D01*
X346251Y295357D01*
X346212Y295309D01*
X346173Y295250D01*
X346154Y295182D01*
X346144Y295113D01*
Y295104D01*
X346154Y295074D01*
X346164Y295026D01*
X346183Y294957D01*
X346232Y294879D01*
X346290Y294791D01*
X346369Y294694D01*
X346486Y294586D01*
X346505Y294577D01*
X346544Y294538D01*
X346622Y294489D01*
X346720Y294421D01*
X346837Y294342D01*
X346983Y294255D01*
X347159Y294157D01*
X347344Y294069D01*
X347354Y294059D01*
X347403Y294050D01*
X347462Y294020D01*
X347549Y293981D01*
X347667Y293933D01*
X347793Y293884D01*
X347940Y293835D01*
X348096Y293786D01*
X348272Y293727D01*
X348467Y293669D01*
X348662Y293620D01*
X348867Y293571D01*
X349296Y293503D01*
X349511Y293474D01*
X349736Y293464D01*
X349833D01*
X349931Y293474D01*
X350058Y293483D01*
X350194Y293503D01*
X350341Y293542D01*
X350468Y293581D01*
X350575Y293640D01*
X350585Y293649D01*
X350614Y293669D01*
X350653Y293708D01*
X350692Y293757D01*
X350741Y293815D01*
X350780Y293884D01*
X350809Y293962D01*
X350819Y294040D01*
Y294050D01*
Y294079D01*
X350809Y294128D01*
Y294186D01*
X350780Y294323D01*
X350721Y294479D01*
Y294489D01*
X350702Y294518D01*
X350682Y294557D01*
X350653Y294606D01*
X350565Y294723D01*
X350458Y294840D01*
X350438Y294860D01*
X350390Y294899D01*
X350311Y294957D01*
X350204Y295026D01*
X350067Y295094D01*
X349911Y295152D01*
X349736Y295201D01*
X349550Y295221D01*
X349697Y294225D01*
X348769Y294391D01*
Y294411D01*
X348760Y294450D01*
X348750Y294518D01*
X348740Y294606D01*
X348730Y294723D01*
X348711Y294860D01*
X348691Y295006D01*
X348672Y295172D01*
X348643Y295348D01*
X348613Y295533D01*
X348555Y295923D01*
X348496Y296324D01*
X348428Y296714D01*
X348467D01*
X348516Y296704D01*
X348584D01*
X348672Y296695D01*
X348769Y296675D01*
X348877Y296665D01*
X348994Y296646D01*
X349257Y296597D01*
X349531Y296529D01*
X349823Y296451D01*
X350097Y296343D01*
X350107D01*
X350126Y296333D01*
X350165Y296314D01*
X350214Y296285D01*
X350272Y296255D01*
X350341Y296226D01*
X350507Y296129D01*
X350692Y296021D01*
X350887Y295894D01*
X351092Y295748D01*
X351278Y295592D01*
X351288D01*
X351297Y295572D01*
X351356Y295514D01*
X351444Y295426D01*
X351541Y295309D01*
X351658Y295172D01*
X351776Y295006D01*
X351893Y294830D01*
X351990Y294645D01*
Y294635D01*
X352000Y294625D01*
X352010Y294596D01*
X352029Y294557D01*
X352068Y294469D01*
X352107Y294342D01*
X352146Y294206D01*
X352185Y294059D01*
X352215Y293903D01*
X352224Y293747D01*
Y293727D01*
Y293679D01*
X352215Y293601D01*
X352205Y293513D01*
X352185Y293396D01*
X352166Y293279D01*
X352127Y293152D01*
X352078Y293035D01*
X352068Y293025D01*
X352049Y292986D01*
X352020Y292927D01*
X351961Y292849D01*
X351902Y292771D01*
X351824Y292673D01*
X351727Y292586D01*
X351619Y292498D01*
X351610Y292488D01*
X351590Y292478D01*
X351551Y292449D01*
X351493Y292420D01*
X351424Y292381D01*
X351346Y292342D01*
X351249Y292293D01*
X351141Y292254D01*
X351014Y292205D01*
X350878Y292156D01*
X350721Y292117D01*
X350555Y292078D01*
X350380Y292049D01*
X350185Y292020D01*
X349980Y292010D01*
X349765Y292000D01*
X349648D01*
X349560Y292010D01*
X349462D01*
X349336Y292020D01*
X349199Y292029D01*
X349053Y292039D01*
X348896Y292059D01*
X348721Y292088D01*
X348369Y292146D01*
X348018Y292225D01*
X347667Y292342D01*
X347657D01*
X347627Y292361D01*
X347579Y292381D01*
X347520Y292410D01*
X347442Y292439D01*
X347354Y292478D01*
X347247Y292527D01*
X347140Y292586D01*
X346905Y292712D01*
X346652Y292859D01*
X346398Y293035D01*
X346164Y293220D01*
X346154Y293230D01*
X346134Y293249D01*
X346105Y293279D01*
X346066Y293318D01*
X346017Y293366D01*
X345959Y293425D01*
X345822Y293562D01*
X345675Y293737D01*
X345529Y293933D01*
X345392Y294137D01*
X345266Y294362D01*
Y294372D01*
X345256Y294391D01*
X345236Y294421D01*
X345217Y294469D01*
X345197Y294518D01*
X345168Y294577D01*
X345119Y294723D01*
X345061Y294889D01*
X345022Y295074D01*
X344983Y295250D01*
X344973Y295426D01*
Y295436D01*
Y295445D01*
Y295504D01*
X344983Y295582D01*
X344992Y295689D01*
X345002Y295797D01*
X345031Y295923D01*
X345061Y296041D01*
X345109Y296148D01*
X345119Y296158D01*
X345129Y296197D01*
X345158Y296246D01*
X345197Y296304D01*
X345246Y296382D01*
X345314Y296451D01*
X345383Y296529D01*
X345461Y296597D01*
X345480Y296617D01*
X345539Y296656D01*
X345627Y296704D01*
X345763Y296773D01*
X345919Y296841D01*
X346115Y296890D01*
X346349Y296929D01*
X346603Y296948D01*
X346847Y295650D01*
D02*
G37*
G36*
X346905Y352094D02*
X346893Y352082D01*
X346858Y352035D01*
X346788Y351965D01*
X346706Y351883D01*
X346589Y351778D01*
X346460Y351660D01*
X346307Y351543D01*
X346132Y351414D01*
X345933Y351286D01*
X345722Y351169D01*
X345500Y351051D01*
X345242Y350946D01*
X344984Y350864D01*
X344703Y350794D01*
X344399Y350747D01*
X344094Y350735D01*
X344024D01*
X343930Y350747D01*
X343825Y350759D01*
X343685Y350782D01*
X343509Y350806D01*
X343333Y350852D01*
X343134Y350911D01*
X342912Y350981D01*
X342689Y351063D01*
X342455Y351180D01*
X342221Y351309D01*
X341975Y351461D01*
X341741Y351649D01*
X341506Y351859D01*
X341284Y352094D01*
X341799Y352609D01*
X341811Y352597D01*
X341846Y352562D01*
X341905Y352503D01*
X341975Y352422D01*
X342069Y352340D01*
X342186Y352234D01*
X342314Y352129D01*
X342455Y352023D01*
X342619Y351918D01*
X342794Y351813D01*
X342982Y351707D01*
X343181Y351625D01*
X343392Y351543D01*
X343614Y351485D01*
X343848Y351450D01*
X344094Y351438D01*
X344153D01*
X344223Y351450D01*
X344317Y351461D01*
X344434Y351473D01*
X344574Y351497D01*
X344727Y351532D01*
X344891Y351590D01*
X345066Y351649D01*
X345254Y351719D01*
X345441Y351824D01*
X345640Y351930D01*
X345827Y352070D01*
X346026Y352222D01*
X346214Y352398D01*
X346390Y352609D01*
X346905Y352094D01*
D02*
G37*
G36*
X347383Y305313D02*
X347471Y305303D01*
X347588Y305293D01*
X347706Y305283D01*
X347852Y305254D01*
X348008Y305225D01*
X348164Y305195D01*
X348340Y305147D01*
X348525Y305098D01*
X348721Y305039D01*
X348926Y304971D01*
X349131Y304893D01*
X349336Y304795D01*
X349345Y304786D01*
X349384Y304766D01*
X349443Y304737D01*
X349531Y304698D01*
X349628Y304639D01*
X349745Y304571D01*
X349872Y304493D01*
X350009Y304405D01*
X350155Y304298D01*
X350311Y304190D01*
X350468Y304073D01*
X350624Y303937D01*
X350936Y303653D01*
X351083Y303487D01*
X351229Y303322D01*
X351239Y303312D01*
X351268Y303273D01*
X351307Y303214D01*
X351356Y303146D01*
X351414Y303048D01*
X351483Y302931D01*
X351561Y302804D01*
X351629Y302658D01*
X351707Y302502D01*
X351785Y302326D01*
X351854Y302141D01*
X351912Y301955D01*
X351961Y301750D01*
X352000Y301545D01*
X352029Y301331D01*
X352039Y301106D01*
Y301096D01*
Y301067D01*
Y301028D01*
X352029Y300960D01*
Y300891D01*
X352020Y300794D01*
X352010Y300696D01*
X352000Y300579D01*
X351980D01*
X351941Y300589D01*
X351873Y300608D01*
X351776Y300628D01*
X351658Y300647D01*
X351522Y300677D01*
X351366Y300706D01*
X351190Y300735D01*
X350995Y300774D01*
X350780Y300823D01*
X350555Y300862D01*
X350321Y300911D01*
X350077Y300960D01*
X349814Y301009D01*
X349277Y301106D01*
X348721Y301213D01*
X348164Y301321D01*
X347608Y301418D01*
X347071Y301516D01*
X346817Y301565D01*
X346564Y301604D01*
X346329Y301643D01*
X346105Y301682D01*
X345890Y301721D01*
X345695Y301750D01*
X345510Y301780D01*
X345353Y301799D01*
Y301819D01*
X345344Y301867D01*
X345324Y301955D01*
X345305Y302053D01*
X345285Y302180D01*
X345256Y302316D01*
X345207Y302619D01*
Y302638D01*
X345197Y302687D01*
X345187Y302775D01*
X345168Y302882D01*
X345158Y303009D01*
X345148Y303165D01*
X345139Y303322D01*
Y303497D01*
Y303507D01*
Y303517D01*
Y303575D01*
X345148Y303663D01*
X345158Y303780D01*
X345178Y303907D01*
X345207Y304054D01*
X345246Y304190D01*
X345305Y304327D01*
X345314Y304346D01*
X345334Y304385D01*
X345373Y304454D01*
X345422Y304532D01*
X345480Y304629D01*
X345558Y304727D01*
X345646Y304815D01*
X345744Y304903D01*
X345754Y304912D01*
X345773Y304922D01*
X345802Y304942D01*
X345841Y304971D01*
X345900Y305000D01*
X345968Y305039D01*
X346046Y305078D01*
X346134Y305117D01*
X346232Y305156D01*
X346339Y305186D01*
X346466Y305225D01*
X346593Y305254D01*
X346886Y305303D01*
X347042Y305322D01*
X347305D01*
X347383Y305313D01*
D02*
G37*
G36*
X345002Y301516D02*
X345070Y301497D01*
X345158Y301487D01*
X345266Y301457D01*
X345392Y301428D01*
X345539Y301399D01*
X345705Y301370D01*
X345881Y301331D01*
X346076Y301282D01*
X346290Y301243D01*
X346505Y301194D01*
X346739Y301145D01*
X346983Y301096D01*
X347491Y300999D01*
X348018Y300891D01*
X348565Y300784D01*
X349111Y300677D01*
X349648Y300579D01*
X350165Y300491D01*
X350409Y300442D01*
X350653Y300403D01*
X350878Y300374D01*
X351092Y300335D01*
X351297Y300315D01*
X351493Y300286D01*
Y300276D01*
Y300257D01*
X351502Y300218D01*
X351512Y300150D01*
X351532Y300052D01*
X351541Y299984D01*
X351561Y299915D01*
X351580Y299837D01*
X351600Y299740D01*
X351619Y299642D01*
X351649Y299525D01*
Y299515D01*
X351658Y299496D01*
Y299466D01*
X351678Y299427D01*
X351697Y299310D01*
X351736Y299183D01*
X351766Y299057D01*
X351805Y298930D01*
X351834Y298822D01*
X351844Y298783D01*
X351854Y298754D01*
X351795D01*
X351736Y298744D01*
X351649Y298734D01*
X351551Y298725D01*
X351434Y298715D01*
X351307Y298705D01*
X351161Y298695D01*
X350868Y298666D01*
X350575Y298637D01*
X350429Y298617D01*
X350292Y298607D01*
X350165Y298588D01*
X350058Y298578D01*
X350028D01*
X349999Y298569D01*
X349960D01*
X349863Y298559D01*
X349736Y298539D01*
X349599Y298520D01*
X349462Y298500D01*
X349326Y298490D01*
X349209Y298471D01*
X349189D01*
X349140Y298461D01*
X349053D01*
X348935Y298442D01*
X348799Y298432D01*
X348633Y298403D01*
X348457Y298373D01*
X348252Y298344D01*
X348262D01*
X348281Y298334D01*
X348321D01*
X348369Y298324D01*
X348428Y298315D01*
X348506Y298295D01*
X348672Y298266D01*
X348682D01*
X348711Y298256D01*
X348760D01*
X348828Y298237D01*
X348906Y298227D01*
X348994Y298217D01*
X349199Y298178D01*
X349209D01*
X349238Y298168D01*
X349287Y298159D01*
X349365Y298149D01*
X349453Y298139D01*
X349560Y298119D01*
X349697Y298090D01*
X349843Y298071D01*
X350009Y298032D01*
X350204Y298002D01*
X350409Y297963D01*
X350634Y297924D01*
X350878Y297875D01*
X351141Y297827D01*
X351424Y297778D01*
X351727Y297719D01*
X352039Y296343D01*
X352020D01*
X351980Y296353D01*
X351912Y296373D01*
X351815Y296392D01*
X351697Y296411D01*
X351561Y296441D01*
X351395Y296470D01*
X351219Y296509D01*
X351024Y296548D01*
X350809Y296587D01*
X350585Y296626D01*
X350341Y296675D01*
X350087Y296724D01*
X349833Y296773D01*
X349287Y296880D01*
X348721Y296987D01*
X348145Y297085D01*
X347569Y297192D01*
X347013Y297290D01*
X346749Y297329D01*
X346486Y297378D01*
X346242Y297417D01*
X345998Y297446D01*
X345773Y297485D01*
X345568Y297514D01*
X345373Y297534D01*
X345197Y297553D01*
Y297563D01*
Y297602D01*
X345187Y297661D01*
Y297729D01*
X345178Y297817D01*
X345168Y297905D01*
X345158Y298100D01*
Y298110D01*
X345148Y298149D01*
Y298198D01*
X345139Y298266D01*
Y298344D01*
X345129Y298432D01*
X345119Y298617D01*
Y298627D01*
Y298666D01*
X345109Y298715D01*
Y298773D01*
X345090Y298920D01*
X345080Y299066D01*
X345090D01*
X345109Y299076D01*
X345148D01*
X345197Y299086D01*
X345266Y299096D01*
X345334Y299115D01*
X345510Y299135D01*
X345695Y299174D01*
X345900Y299203D01*
X346105Y299232D01*
X346290Y299261D01*
X346310D01*
X346369Y299271D01*
X346456Y299291D01*
X346564Y299310D01*
X346681Y299330D01*
X346817Y299349D01*
X346944Y299369D01*
X347061Y299388D01*
X347071D01*
X347110Y299398D01*
X347169Y299408D01*
X347247Y299418D01*
X347335Y299437D01*
X347432Y299447D01*
X347647Y299486D01*
X347676D01*
X347706Y299496D01*
X347745Y299505D01*
X347842Y299515D01*
X347979Y299545D01*
X348135Y299574D01*
X348301Y299603D01*
X348467Y299642D01*
X348633Y299681D01*
X348623D01*
X348604Y299691D01*
X348565D01*
X348506Y299701D01*
X348447Y299710D01*
X348369Y299730D01*
X348194Y299759D01*
X348184D01*
X348145Y299769D01*
X348096Y299779D01*
X348028Y299788D01*
X347940Y299808D01*
X347852Y299818D01*
X347647Y299857D01*
X347637D01*
X347598Y299867D01*
X347540Y299876D01*
X347462Y299896D01*
X347374Y299915D01*
X347276Y299935D01*
X347061Y299974D01*
X347052D01*
X347003Y299984D01*
X346944Y300003D01*
X346847Y300023D01*
X346739Y300042D01*
X346613Y300072D01*
X346456Y300101D01*
X346290Y300140D01*
X346271D01*
X346242Y300150D01*
X346203Y300159D01*
X346154Y300169D01*
X346105Y300179D01*
X345959Y300208D01*
X345783Y300247D01*
X345578Y300286D01*
X345344Y300335D01*
X345090Y300384D01*
X344953Y301526D01*
X344963D01*
X345002Y301516D01*
D02*
G37*
%LPC*%
G36*
X338099Y358651D02*
X338005D01*
X337947Y358640D01*
X337865Y358628D01*
X337771Y358616D01*
X337548Y358569D01*
X337291Y358476D01*
X337150Y358429D01*
X337010Y358359D01*
X336869Y358277D01*
X336729Y358183D01*
X336588Y358078D01*
X336459Y357949D01*
X336448Y357937D01*
X336424Y357913D01*
X336389Y357878D01*
X336354Y357820D01*
X336296Y357761D01*
X336237Y357679D01*
X336178Y357586D01*
X336108Y357480D01*
X335979Y357234D01*
X335862Y356965D01*
X335827Y356813D01*
X335792Y356649D01*
X335769Y356485D01*
X335757Y356309D01*
X338099D01*
Y358651D01*
D02*
G37*
G36*
X347266Y303917D02*
X347100D01*
X347052Y303907D01*
X346983Y303897D01*
X346905Y303868D01*
X346827Y303839D01*
X346749Y303790D01*
X346671Y303722D01*
X346661Y303712D01*
X346642Y303683D01*
X346603Y303634D01*
X346564Y303575D01*
X346534Y303487D01*
X346495Y303380D01*
X346476Y303263D01*
X346466Y303117D01*
X346476D01*
X346505Y303107D01*
X346544Y303097D01*
X346603Y303087D01*
X346681Y303078D01*
X346769Y303058D01*
X346866Y303039D01*
X346974Y303009D01*
X347100Y302990D01*
X347227Y302960D01*
X347520Y302902D01*
X347832Y302834D01*
X348164Y302755D01*
X348184D01*
X348233Y302736D01*
X348311Y302726D01*
X348428Y302697D01*
X348555Y302668D01*
X348711Y302638D01*
X348887Y302599D01*
X349082Y302560D01*
X349287Y302521D01*
X349501Y302472D01*
X349950Y302385D01*
X350419Y302307D01*
X350868Y302228D01*
X350858Y302238D01*
X350848Y302258D01*
X350819Y302287D01*
X350780Y302336D01*
X350731Y302394D01*
X350673Y302463D01*
X350595Y302531D01*
X350497Y302619D01*
X350390Y302707D01*
X350272Y302795D01*
X350126Y302892D01*
X349970Y302999D01*
X349794Y303097D01*
X349599Y303204D01*
X349384Y303302D01*
X349150Y303409D01*
X349140D01*
X349121Y303419D01*
X349082Y303439D01*
X349033Y303458D01*
X348965Y303487D01*
X348896Y303507D01*
X348730Y303575D01*
X348535Y303644D01*
X348330Y303702D01*
X348125Y303761D01*
X347930Y303810D01*
X347920D01*
X347911Y303819D01*
X347852Y303829D01*
X347754Y303849D01*
X347647Y303868D01*
X347520Y303888D01*
X347393Y303897D01*
X347266Y303917D01*
D02*
G37*
G36*
X255266Y372301D02*
X255100D01*
X255052Y372291D01*
X254983Y372282D01*
X254905Y372252D01*
X254827Y372223D01*
X254749Y372174D01*
X254671Y372106D01*
X254661Y372096D01*
X254642Y372067D01*
X254603Y372018D01*
X254564Y371960D01*
X254534Y371872D01*
X254495Y371764D01*
X254476Y371647D01*
X254466Y371501D01*
X254476D01*
X254505Y371491D01*
X254544Y371481D01*
X254603Y371472D01*
X254681Y371462D01*
X254769Y371442D01*
X254866Y371423D01*
X254974Y371394D01*
X255100Y371374D01*
X255227Y371345D01*
X255520Y371286D01*
X255833Y371218D01*
X256164Y371140D01*
X256184D01*
X256233Y371120D01*
X256311Y371111D01*
X256428Y371081D01*
X256555Y371052D01*
X256711Y371023D01*
X256887Y370984D01*
X257082Y370945D01*
X257287Y370906D01*
X257501Y370857D01*
X257950Y370769D01*
X258419Y370691D01*
X258868Y370613D01*
X258858Y370623D01*
X258848Y370642D01*
X258819Y370671D01*
X258780Y370720D01*
X258731Y370779D01*
X258673Y370847D01*
X258595Y370915D01*
X258497Y371003D01*
X258390Y371091D01*
X258273Y371179D01*
X258126Y371276D01*
X257970Y371384D01*
X257794Y371481D01*
X257599Y371589D01*
X257384Y371686D01*
X257150Y371794D01*
X257140D01*
X257121Y371803D01*
X257082Y371823D01*
X257033Y371843D01*
X256965Y371872D01*
X256896Y371891D01*
X256730Y371960D01*
X256535Y372028D01*
X256330Y372087D01*
X256125Y372145D01*
X255930Y372194D01*
X255920D01*
X255911Y372204D01*
X255852Y372213D01*
X255754Y372233D01*
X255647Y372252D01*
X255520Y372272D01*
X255393Y372282D01*
X255266Y372301D01*
D02*
G37*
G36*
X343266Y287828D02*
X343101D01*
X343052Y287818D01*
X342983Y287809D01*
X342905Y287779D01*
X342827Y287750D01*
X342749Y287701D01*
X342671Y287633D01*
X342661Y287623D01*
X342642Y287594D01*
X342603Y287545D01*
X342564Y287487D01*
X342534Y287399D01*
X342495Y287291D01*
X342476Y287174D01*
X342466Y287028D01*
X342476D01*
X342505Y287018D01*
X342544Y287008D01*
X342603Y286999D01*
X342681Y286989D01*
X342769Y286969D01*
X342866Y286950D01*
X342974Y286920D01*
X343101Y286901D01*
X343227Y286872D01*
X343520Y286813D01*
X343832Y286745D01*
X344164Y286667D01*
X344184D01*
X344233Y286647D01*
X344311Y286637D01*
X344428Y286608D01*
X344555Y286579D01*
X344711Y286550D01*
X344887Y286511D01*
X345082Y286472D01*
X345287Y286433D01*
X345501Y286384D01*
X345950Y286296D01*
X346419Y286218D01*
X346868Y286140D01*
X346858Y286149D01*
X346848Y286169D01*
X346819Y286198D01*
X346780Y286247D01*
X346731Y286306D01*
X346673Y286374D01*
X346595Y286442D01*
X346497Y286530D01*
X346390Y286618D01*
X346272Y286706D01*
X346126Y286803D01*
X345970Y286911D01*
X345794Y287008D01*
X345599Y287116D01*
X345384Y287213D01*
X345150Y287321D01*
X345140D01*
X345121Y287330D01*
X345082Y287350D01*
X345033Y287369D01*
X344965Y287399D01*
X344896Y287418D01*
X344730Y287487D01*
X344535Y287555D01*
X344330Y287613D01*
X344125Y287672D01*
X343930Y287721D01*
X343920D01*
X343911Y287731D01*
X343852Y287740D01*
X343754Y287760D01*
X343647Y287779D01*
X343520Y287799D01*
X343393Y287809D01*
X343266Y287828D01*
D02*
G37*
G36*
X347266Y254328D02*
X347100D01*
X347052Y254318D01*
X346983Y254309D01*
X346905Y254279D01*
X346827Y254250D01*
X346749Y254201D01*
X346671Y254133D01*
X346661Y254123D01*
X346642Y254094D01*
X346603Y254045D01*
X346564Y253987D01*
X346534Y253899D01*
X346495Y253791D01*
X346476Y253674D01*
X346466Y253528D01*
X346476D01*
X346505Y253518D01*
X346544Y253508D01*
X346603Y253499D01*
X346681Y253489D01*
X346769Y253469D01*
X346866Y253450D01*
X346974Y253420D01*
X347100Y253401D01*
X347227Y253372D01*
X347520Y253313D01*
X347832Y253245D01*
X348164Y253167D01*
X348184D01*
X348233Y253147D01*
X348311Y253137D01*
X348428Y253108D01*
X348555Y253079D01*
X348711Y253050D01*
X348887Y253011D01*
X349082Y252972D01*
X349287Y252933D01*
X349501Y252884D01*
X349950Y252796D01*
X350419Y252718D01*
X350868Y252640D01*
X350858Y252649D01*
X350848Y252669D01*
X350819Y252698D01*
X350780Y252747D01*
X350731Y252806D01*
X350673Y252874D01*
X350595Y252942D01*
X350497Y253030D01*
X350390Y253118D01*
X350272Y253206D01*
X350126Y253303D01*
X349970Y253411D01*
X349794Y253508D01*
X349599Y253616D01*
X349384Y253713D01*
X349150Y253821D01*
X349140D01*
X349121Y253830D01*
X349082Y253850D01*
X349033Y253869D01*
X348965Y253899D01*
X348896Y253918D01*
X348730Y253987D01*
X348535Y254055D01*
X348330Y254113D01*
X348125Y254172D01*
X347930Y254221D01*
X347920D01*
X347911Y254231D01*
X347852Y254240D01*
X347754Y254260D01*
X347647Y254279D01*
X347520Y254299D01*
X347393Y254309D01*
X347266Y254328D01*
D02*
G37*
G36*
X356085Y358651D02*
X355992D01*
X355933Y358640D01*
X355851Y358628D01*
X355757Y358616D01*
X355535Y358569D01*
X355277Y358476D01*
X355137Y358429D01*
X354996Y358359D01*
X354856Y358277D01*
X354715Y358183D01*
X354575Y358078D01*
X354446Y357949D01*
X354434Y357937D01*
X354411Y357913D01*
X354376Y357878D01*
X354341Y357820D01*
X354282Y357761D01*
X354223Y357679D01*
X354165Y357586D01*
X354095Y357480D01*
X353966Y357234D01*
X353849Y356965D01*
X353814Y356813D01*
X353779Y356649D01*
X353755Y356485D01*
X353743Y356309D01*
X356085D01*
Y358651D01*
D02*
G37*
G36*
X248241Y237056D02*
X248182D01*
X248143Y237046D01*
X248036Y237026D01*
X247899Y236987D01*
X247743Y236919D01*
X247665Y236880D01*
X247577Y236821D01*
X247489Y236753D01*
X247401Y236685D01*
X247313Y236597D01*
X247226Y236499D01*
X247206Y236480D01*
X247196Y236451D01*
X247167Y236421D01*
X247099Y236324D01*
X247021Y236187D01*
X246923Y236011D01*
X246816Y235806D01*
X246708Y235572D01*
X246611Y235299D01*
Y235289D01*
X246601Y235270D01*
X246591Y235240D01*
X246581Y235191D01*
X246562Y235133D01*
X246552Y235074D01*
X246513Y234918D01*
X246474Y234743D01*
X246445Y234538D01*
X246425Y234333D01*
X246415Y234128D01*
Y234108D01*
X246425Y234069D01*
X246435Y234001D01*
X246455Y233923D01*
X246494Y233825D01*
X246552Y233737D01*
X246620Y233649D01*
X246728Y233571D01*
X246747Y233562D01*
X246786Y233542D01*
X246855Y233523D01*
X246933Y233513D01*
X247001D01*
X247079Y233532D01*
X247187Y233552D01*
X247294Y233581D01*
X247421Y233630D01*
X247548Y233698D01*
X247675Y233796D01*
X247694Y233806D01*
X247733Y233845D01*
X247792Y233913D01*
X247870Y233991D01*
X247958Y234098D01*
X248045Y234215D01*
X248133Y234362D01*
X248221Y234508D01*
Y234518D01*
X248231Y234528D01*
X248260Y234586D01*
X248299Y234665D01*
X248348Y234782D01*
X248407Y234909D01*
X248465Y235065D01*
X248514Y235231D01*
X248563Y235406D01*
Y235416D01*
X248572Y235426D01*
X248582Y235484D01*
X248602Y235582D01*
X248621Y235699D01*
X248641Y235836D01*
X248660Y235992D01*
X248680Y236138D01*
Y236294D01*
Y236304D01*
Y236324D01*
Y236363D01*
X248670Y236411D01*
X248660Y236538D01*
X248621Y236675D01*
X248572Y236812D01*
X248494Y236939D01*
X248446Y236987D01*
X248387Y237026D01*
X248319Y237046D01*
X248241Y237056D01*
D02*
G37*
G36*
X234625Y237797D02*
Y237778D01*
X234616Y237739D01*
X234606Y237671D01*
X234586Y237573D01*
X234567Y237456D01*
X234538Y237319D01*
X234508Y237173D01*
X234479Y236997D01*
X234450Y236821D01*
X234411Y236636D01*
X234342Y236236D01*
X234264Y235836D01*
X234186Y235436D01*
X234206Y235445D01*
X234245Y235455D01*
X234303Y235484D01*
X234391Y235533D01*
X234479Y235601D01*
X234586Y235699D01*
X234694Y235816D01*
X234801Y235972D01*
Y235982D01*
X234811Y235992D01*
X234830Y236021D01*
X234850Y236060D01*
X234899Y236158D01*
X234957Y236294D01*
X235016Y236460D01*
X235065Y236646D01*
X235104Y236860D01*
X235113Y237085D01*
Y237105D01*
Y237143D01*
X235104Y237202D01*
X235094Y237280D01*
X235074Y237368D01*
X235045Y237456D01*
X235006Y237544D01*
X234957Y237612D01*
X234947Y237622D01*
X234928Y237641D01*
X234899Y237671D01*
X234860Y237710D01*
X234752Y237768D01*
X234694Y237788D01*
X234625Y237797D01*
D02*
G37*
%LPD*%
D26*
X351808Y224500D02*
G03*
X351808Y224500I-10308J0D01*
G01*
X316308D02*
G03*
X316308Y224500I-10308J0D01*
G01*
X280808D02*
G03*
X280808Y224500I-10308J0D01*
G01*
X348000Y283500D02*
X351500Y280000D01*
X352752Y245130D02*
Y323870D01*
X384248Y245130D02*
Y323870D01*
X352752D02*
X384248D01*
X352752Y245130D02*
X384248D01*
X290450Y340750D02*
X296550D01*
X290450Y326250D02*
X296550D01*
X320500Y352500D02*
X324915Y360778D01*
X369000Y360500D02*
X373415Y352221D01*
X255500Y263000D02*
X256500Y262000D01*
X325752Y240248D02*
X357248D01*
Y208752D02*
Y240248D01*
X325752Y208752D02*
X357248D01*
X325752D02*
Y240248D01*
X290252Y208752D02*
Y240248D01*
Y208752D02*
X321748D01*
Y240248D01*
X290252D02*
X321748D01*
X254752D02*
X286248D01*
Y208752D02*
Y240248D01*
X254752Y208752D02*
X286248D01*
X254752D02*
Y240248D01*
X368000Y234999D02*
Y232000D01*
X369499D01*
X369999Y232500D01*
Y234499D01*
X369499Y234999D01*
X368000D01*
X372998Y234499D02*
X372498Y234999D01*
X371499D01*
X370999Y234499D01*
Y233999D01*
X371499Y233500D01*
X372498D01*
X372998Y233000D01*
Y232500D01*
X372498Y232000D01*
X371499D01*
X370999Y232500D01*
X375997Y232000D02*
X373998D01*
X375997Y233999D01*
Y234499D01*
X375498Y234999D01*
X374498D01*
X373998Y234499D01*
X361000Y325000D02*
Y328999D01*
X362999D01*
X363666Y328332D01*
Y326999D01*
X362999Y326333D01*
X361000D01*
X367665Y328999D02*
X364999D01*
Y326999D01*
X366332Y327666D01*
X366998D01*
X367665Y326999D01*
Y325666D01*
X366998Y325000D01*
X365665D01*
X364999Y325666D01*
X259499Y288999D02*
X258999Y289499D01*
X258000D01*
X257500Y288999D01*
Y287000D01*
X258000Y286500D01*
X258999D01*
X259499Y287000D01*
X262498Y289499D02*
X260499D01*
Y288000D01*
X261499Y288499D01*
X261999D01*
X262498Y288000D01*
Y287000D01*
X261999Y286500D01*
X260999D01*
X260499Y287000D01*
X306500Y343999D02*
Y343499D01*
X307500Y342499D01*
X308499Y343499D01*
Y343999D01*
X307500Y342499D02*
Y341000D01*
X309499D02*
X310499D01*
X309999D01*
Y343999D01*
X309499Y343499D01*
X262501Y308500D02*
X265000D01*
X265500Y309000D01*
Y309999D01*
X265000Y310499D01*
X262501D01*
X263001Y311499D02*
X262501Y311999D01*
Y312999D01*
X263001Y313498D01*
X263501D01*
X264001Y312999D01*
Y312499D01*
Y312999D01*
X264500Y313498D01*
X265000D01*
X265500Y312999D01*
Y311999D01*
X265000Y311499D01*
X258001Y320500D02*
X260500D01*
X261000Y321000D01*
Y322000D01*
X260500Y322499D01*
X258001D01*
X261000Y324998D02*
X258001D01*
X259501Y323499D01*
Y325498D01*
X325276Y327999D02*
Y325500D01*
X325775Y325000D01*
X326775D01*
X327275Y325500D01*
Y327999D01*
X328275Y325000D02*
X329274D01*
X328774D01*
Y327999D01*
X328275Y327499D01*
X276000Y247999D02*
Y245500D01*
X276500Y245000D01*
X277500D01*
X277999Y245500D01*
Y247999D01*
X280998Y245000D02*
X278999D01*
X280998Y246999D01*
Y247499D01*
X280499Y247999D01*
X279499D01*
X278999Y247499D01*
X238000Y275000D02*
X235001D01*
Y276500D01*
X235501Y276999D01*
X236501D01*
X237000Y276500D01*
Y275000D01*
Y276000D02*
X238000Y276999D01*
Y279998D02*
Y277999D01*
X236001Y279998D01*
X235501D01*
X235001Y279499D01*
Y278499D01*
X235501Y277999D01*
X265000Y278500D02*
Y281499D01*
X266499D01*
X266999Y280999D01*
Y279999D01*
X266499Y279500D01*
X265000D01*
X266000D02*
X266999Y278500D01*
X267999D02*
X268999D01*
X268499D01*
Y281499D01*
X267999Y280999D01*
X238000Y265000D02*
X235001D01*
Y266499D01*
X235501Y266999D01*
X236501D01*
X237000Y266499D01*
Y265000D01*
Y266000D02*
X238000Y266999D01*
X235001Y269998D02*
X235501Y268999D01*
X236501Y267999D01*
X237500D01*
X238000Y268499D01*
Y269498D01*
X237500Y269998D01*
X237000D01*
X236501Y269498D01*
Y267999D01*
X248000Y241000D02*
Y243999D01*
X249500D01*
X249999Y243499D01*
Y242499D01*
X249500Y242000D01*
X248000D01*
X249000D02*
X249999Y241000D01*
X252998Y243999D02*
X250999D01*
Y242499D01*
X251999Y242999D01*
X252499D01*
X252998Y242499D01*
Y241500D01*
X252499Y241000D01*
X251499D01*
X250999Y241500D01*
X241000Y291000D02*
Y293999D01*
X242499D01*
X242999Y293499D01*
Y292499D01*
X242499Y292000D01*
X241000D01*
X242000D02*
X242999Y291000D01*
X243999Y293499D02*
X244499Y293999D01*
X245498D01*
X245998Y293499D01*
Y292999D01*
X245498Y292499D01*
X244999D01*
X245498D01*
X245998Y292000D01*
Y291500D01*
X245498Y291000D01*
X244499D01*
X243999Y291500D01*
X327000Y290000D02*
X324001D01*
Y291499D01*
X324501Y291999D01*
X325500D01*
X326000Y291499D01*
Y290000D01*
Y291000D02*
X327000Y291999D01*
Y294498D02*
X324001D01*
X325500Y292999D01*
Y294998D01*
X326000Y259000D02*
Y261999D01*
X327500D01*
X327999Y261499D01*
Y260500D01*
X327500Y260000D01*
X326000D01*
X327000D02*
X327999Y259000D01*
X328999Y261499D02*
X329499Y261999D01*
X330499D01*
X330998Y261499D01*
Y260999D01*
X330499Y260500D01*
X330998Y260000D01*
Y259500D01*
X330499Y259000D01*
X329499D01*
X328999Y259500D01*
Y260000D01*
X329499Y260500D01*
X328999Y260999D01*
Y261499D01*
X329499Y260500D02*
X330499D01*
X337000Y249000D02*
X334001D01*
Y250500D01*
X334501Y250999D01*
X335501D01*
X336000Y250500D01*
Y249000D01*
Y250000D02*
X337000Y250999D01*
X334001Y251999D02*
Y253998D01*
X334501D01*
X336500Y251999D01*
X337000D01*
X302500Y285500D02*
Y288499D01*
X303999D01*
X304499Y287999D01*
Y287000D01*
X303999Y286500D01*
X302500D01*
X303500D02*
X304499Y285500D01*
X305499D02*
X306499D01*
X305999D01*
Y288499D01*
X305499Y287999D01*
X307998D02*
X308498Y288499D01*
X309498D01*
X309998Y287999D01*
Y286000D01*
X309498Y285500D01*
X308498D01*
X307998Y286000D01*
Y287999D01*
X324500Y286000D02*
Y288999D01*
X325999D01*
X326499Y288499D01*
Y287499D01*
X325999Y287000D01*
X324500D01*
X325500D02*
X326499Y286000D01*
X327499Y286500D02*
X327999Y286000D01*
X328998D01*
X329498Y286500D01*
Y288499D01*
X328998Y288999D01*
X327999D01*
X327499Y288499D01*
Y287999D01*
X327999Y287499D01*
X329498D01*
X273499Y358000D02*
Y359999D01*
X273000Y360499D01*
X272000D01*
X271500Y359999D01*
Y358000D01*
X272000Y357500D01*
X273000D01*
X272500Y358500D02*
X273499Y357500D01*
X273000D02*
X273499Y358000D01*
X274499Y357500D02*
X275499D01*
X274999D01*
Y360499D01*
X274499Y359999D01*
X288499Y358500D02*
Y360499D01*
X288000Y360999D01*
X287000D01*
X286500Y360499D01*
Y358500D01*
X287000Y358000D01*
X288000D01*
X287500Y359000D02*
X288499Y358000D01*
X288000D02*
X288499Y358500D01*
X291498Y358000D02*
X289499D01*
X291498Y359999D01*
Y360499D01*
X290999Y360999D01*
X289999D01*
X289499Y360499D01*
X303999Y358500D02*
Y360499D01*
X303500Y360999D01*
X302500D01*
X302000Y360499D01*
Y358500D01*
X302500Y358000D01*
X303500D01*
X303000Y359000D02*
X303999Y358000D01*
X303500D02*
X303999Y358500D01*
X304999Y360499D02*
X305499Y360999D01*
X306499D01*
X306998Y360499D01*
Y359999D01*
X306499Y359500D01*
X305999D01*
X306499D01*
X306998Y359000D01*
Y358500D01*
X306499Y358000D01*
X305499D01*
X304999Y358500D01*
X268000Y241000D02*
Y243999D01*
X269499D01*
X269999Y243499D01*
Y242499D01*
X269499Y242000D01*
X268000D01*
X272998Y241000D02*
X270999D01*
X272998Y242999D01*
Y243499D01*
X272498Y243999D01*
X271499D01*
X270999Y243499D01*
X291000Y241000D02*
X288001D01*
Y242499D01*
X288501Y242999D01*
X289500D01*
X290000Y242499D01*
Y241000D01*
X288501Y243999D02*
X288001Y244499D01*
Y245498D01*
X288501Y245998D01*
X289001D01*
X289500Y245498D01*
Y244999D01*
Y245498D01*
X290000Y245998D01*
X290500D01*
X291000Y245498D01*
Y244499D01*
X290500Y243999D01*
X334000Y241000D02*
Y243999D01*
X335500D01*
X335999Y243499D01*
Y242499D01*
X335500Y242000D01*
X334000D01*
X338498Y241000D02*
Y243999D01*
X336999Y242499D01*
X338998D01*
X233000Y293499D02*
Y290500D01*
X234500D01*
X234999Y291000D01*
Y292999D01*
X234500Y293499D01*
X233000D01*
X237998Y292999D02*
X237498Y293499D01*
X236499D01*
X235999Y292999D01*
Y292499D01*
X236499Y292000D01*
X237498D01*
X237998Y291500D01*
Y291000D01*
X237498Y290500D01*
X236499D01*
X235999Y291000D01*
X238998Y290500D02*
X239998D01*
X239498D01*
Y293499D01*
X238998Y292999D01*
X249999Y288999D02*
X249500Y289499D01*
X248500D01*
X248000Y288999D01*
Y287000D01*
X248500Y286500D01*
X249500D01*
X249999Y287000D01*
X250999Y286500D02*
X251999D01*
X251499D01*
Y289499D01*
X250999Y288999D01*
X253498Y289499D02*
X255498D01*
Y288999D01*
X253498Y287000D01*
Y286500D01*
X258499Y260499D02*
X257999Y260999D01*
X257000D01*
X256500Y260499D01*
Y258500D01*
X257000Y258000D01*
X257999D01*
X258499Y258500D01*
X259499Y260499D02*
X259999Y260999D01*
X260999D01*
X261498Y260499D01*
Y259999D01*
X260999Y259500D01*
X261498Y259000D01*
Y258500D01*
X260999Y258000D01*
X259999D01*
X259499Y258500D01*
Y259000D01*
X259999Y259500D01*
X259499Y259999D01*
Y260499D01*
X259999Y259500D02*
X260999D01*
X240001Y256499D02*
X239501Y255999D01*
Y255000D01*
X240001Y254500D01*
X242000D01*
X242500Y255000D01*
Y255999D01*
X242000Y256499D01*
X239501Y257499D02*
Y259498D01*
X240001D01*
X242000Y257499D01*
X242500D01*
X323999Y298999D02*
X323499Y299499D01*
X322500D01*
X322000Y298999D01*
Y297000D01*
X322500Y296500D01*
X323499D01*
X323999Y297000D01*
X324999Y298999D02*
X325499Y299499D01*
X326499D01*
X326998Y298999D01*
Y298499D01*
X326499Y298000D01*
X325999D01*
X326499D01*
X326998Y297500D01*
Y297000D01*
X326499Y296500D01*
X325499D01*
X324999Y297000D01*
X340999Y323999D02*
X340499Y324499D01*
X339500D01*
X339000Y323999D01*
Y322000D01*
X339500Y321500D01*
X340499D01*
X340999Y322000D01*
X343998Y321500D02*
X341999D01*
X343998Y323499D01*
Y323999D01*
X343498Y324499D01*
X342499D01*
X341999Y323999D01*
X251499Y359999D02*
X250999Y360499D01*
X250000D01*
X249500Y359999D01*
Y358000D01*
X250000Y357500D01*
X250999D01*
X251499Y358000D01*
X252499Y357500D02*
X253499D01*
X252999D01*
Y360499D01*
X252499Y359999D01*
X256498Y357500D02*
Y360499D01*
X254998Y358999D01*
X256998D01*
X258501Y330499D02*
X258001Y329999D01*
Y329000D01*
X258501Y328500D01*
X260500D01*
X261000Y329000D01*
Y329999D01*
X260500Y330499D01*
X261000Y331499D02*
Y332499D01*
Y331999D01*
X258001D01*
X258501Y331499D01*
X261000Y333998D02*
Y334998D01*
Y334498D01*
X258001D01*
X258501Y333998D01*
X258799Y280350D02*
X258299Y280849D01*
X257299D01*
X256799Y280350D01*
Y278350D01*
X257299Y277850D01*
X258299D01*
X258799Y278350D01*
X261298Y277850D02*
Y280849D01*
X259798Y279350D01*
X261798D01*
X316001Y333499D02*
X315501Y332999D01*
Y332000D01*
X316001Y331500D01*
X318000D01*
X318500Y332000D01*
Y332999D01*
X318000Y333499D01*
Y334499D02*
X318500Y334999D01*
Y335999D01*
X318000Y336498D01*
X316001D01*
X315501Y335999D01*
Y334999D01*
X316001Y334499D01*
X316501D01*
X317001Y334999D01*
Y336498D01*
X265499Y341499D02*
X265000Y341999D01*
X264000D01*
X263500Y341499D01*
Y339500D01*
X264000Y339000D01*
X265000D01*
X265499Y339500D01*
X266499Y339000D02*
X267499D01*
X266999D01*
Y341999D01*
X266499Y341499D01*
X268998D02*
X269498Y341999D01*
X270498D01*
X270998Y341499D01*
Y339500D01*
X270498Y339000D01*
X269498D01*
X268998Y339500D01*
Y341499D01*
X333999Y298999D02*
X333500Y299499D01*
X332500D01*
X332000Y298999D01*
Y297000D01*
X332500Y296500D01*
X333500D01*
X333999Y297000D01*
X336998Y299499D02*
X335999Y298999D01*
X334999Y298000D01*
Y297000D01*
X335499Y296500D01*
X336498D01*
X336998Y297000D01*
Y297500D01*
X336498Y298000D01*
X334999D01*
X305999Y269499D02*
X305500Y269999D01*
X304500D01*
X304000Y269499D01*
Y267500D01*
X304500Y267000D01*
X305500D01*
X305999Y267500D01*
X306999Y267000D02*
X307999D01*
X307499D01*
Y269999D01*
X306999Y269499D01*
X309498D02*
X309998Y269999D01*
X310998D01*
X311498Y269499D01*
Y268999D01*
X310998Y268499D01*
X310498D01*
X310998D01*
X311498Y268000D01*
Y267500D01*
X310998Y267000D01*
X309998D01*
X309498Y267500D01*
X318999Y244499D02*
X318499Y244999D01*
X317500D01*
X317000Y244499D01*
Y242500D01*
X317500Y242000D01*
X318499D01*
X318999Y242500D01*
X319999Y242000D02*
X320999D01*
X320499D01*
Y244999D01*
X319999Y244499D01*
X324498Y242000D02*
X322498D01*
X324498Y243999D01*
Y244499D01*
X323998Y244999D01*
X322998D01*
X322498Y244499D01*
X314999Y287499D02*
X314499Y287999D01*
X313500D01*
X313000Y287499D01*
Y285500D01*
X313500Y285000D01*
X314499D01*
X314999Y285500D01*
X315999Y285000D02*
X316999D01*
X316499D01*
Y287999D01*
X315999Y287499D01*
X320498Y287999D02*
X319498Y287499D01*
X318498Y286500D01*
Y285500D01*
X318998Y285000D01*
X319998D01*
X320498Y285500D01*
Y286000D01*
X319998Y286500D01*
X318498D01*
X326999Y268499D02*
X326500Y268999D01*
X325500D01*
X325000Y268499D01*
Y266500D01*
X325500Y266000D01*
X326500D01*
X326999Y266500D01*
X327999Y266000D02*
X328999D01*
X328499D01*
Y268999D01*
X327999Y268499D01*
X332498Y268999D02*
X330498D01*
Y267499D01*
X331498Y267999D01*
X331998D01*
X332498Y267499D01*
Y266500D01*
X331998Y266000D01*
X330998D01*
X330498Y266500D01*
X263998Y258500D02*
Y261499D01*
X265498D01*
X265998Y260999D01*
Y259999D01*
X265498Y259500D01*
X263998D01*
X264998D02*
X265998Y258500D01*
X266997D02*
X267997D01*
X267497D01*
Y261499D01*
X266997Y260999D01*
X269497Y258500D02*
X270496D01*
X269996D01*
Y261499D01*
X269497Y260999D01*
X304500Y243500D02*
Y246499D01*
X305999D01*
X306499Y245999D01*
Y245000D01*
X305999Y244500D01*
X304500D01*
X305500D02*
X306499Y243500D01*
X307499D02*
X308499D01*
X307999D01*
Y246499D01*
X307499Y245999D01*
X309998D02*
X310498Y246499D01*
X311498D01*
X311998Y245999D01*
Y245499D01*
X311498Y245000D01*
X310998D01*
X311498D01*
X311998Y244500D01*
Y244000D01*
X311498Y243500D01*
X310498D01*
X309998Y244000D01*
X294000Y291000D02*
Y293999D01*
X295499D01*
X295999Y293499D01*
Y292499D01*
X295499Y292000D01*
X294000D01*
X295000D02*
X295999Y291000D01*
X296999D02*
X297999D01*
X297499D01*
Y293999D01*
X296999Y293499D01*
X301498Y293999D02*
X299498D01*
Y292499D01*
X300498Y292999D01*
X300998D01*
X301498Y292499D01*
Y291500D01*
X300998Y291000D01*
X299998D01*
X299498Y291500D01*
X257000Y241000D02*
Y243999D01*
X258500D01*
X258999Y243499D01*
Y242499D01*
X258500Y242000D01*
X257000D01*
X258000D02*
X258999Y241000D01*
X259999D02*
X260999D01*
X260499D01*
Y243999D01*
X259999Y243499D01*
X264498Y241000D02*
X262498D01*
X264498Y242999D01*
Y243499D01*
X263998Y243999D01*
X262998D01*
X262498Y243499D01*
X304000Y262500D02*
Y265499D01*
X305500D01*
X305999Y264999D01*
Y264000D01*
X305500Y263500D01*
X304000D01*
X305000D02*
X305999Y262500D01*
X306999D02*
X307999D01*
X307499D01*
Y265499D01*
X306999Y264999D01*
X310998Y262500D02*
Y265499D01*
X309498Y264000D01*
X311498D01*
X266193Y294256D02*
Y297255D01*
X267692D01*
X268192Y296755D01*
Y295755D01*
X267692Y295256D01*
X266193D01*
X267193D02*
X268192Y294256D01*
X269192D02*
X270192D01*
X269692D01*
Y297255D01*
X269192Y296755D01*
X273691Y297255D02*
X272691Y296755D01*
X271691Y295755D01*
Y294756D01*
X272191Y294256D01*
X273191D01*
X273691Y294756D01*
Y295256D01*
X273191Y295755D01*
X271691D01*
X310000Y325000D02*
Y327999D01*
X311500D01*
X311999Y327499D01*
Y326500D01*
X311500Y326000D01*
X310000D01*
X314998Y327999D02*
X313999Y327499D01*
X312999Y326500D01*
Y325500D01*
X313499Y325000D01*
X314498D01*
X314998Y325500D01*
Y326000D01*
X314498Y326500D01*
X312999D01*
X377002Y368999D02*
X376002Y367999D01*
Y366000D01*
X377002Y365000D01*
X381000D01*
X382000Y366000D01*
Y367999D01*
X381000Y368999D01*
X382000Y370998D02*
Y372997D01*
Y371998D01*
X376002D01*
X377002Y370998D01*
X336000Y260499D02*
Y257500D01*
X337499D01*
X337999Y258000D01*
Y259999D01*
X337499Y260499D01*
X336000D01*
X338999Y257500D02*
X339999D01*
X339499D01*
Y260499D01*
X338999Y259999D01*
X303376Y295099D02*
X302851Y294574D01*
Y293525D01*
X303376Y293000D01*
X305475D01*
X306000Y293525D01*
Y294574D01*
X305475Y295099D01*
X304426D01*
Y294050D01*
X306000Y296149D02*
X302851D01*
X306000Y298248D01*
X302851D01*
Y299297D02*
X306000D01*
Y300871D01*
X305475Y301396D01*
X303376D01*
X302851Y300871D01*
Y299297D01*
X319351Y314000D02*
Y315050D01*
Y314525D01*
X322500D01*
Y314000D01*
Y315050D01*
X319876Y318723D02*
X319351Y318198D01*
Y317149D01*
X319876Y316624D01*
X321975D01*
X322500Y317149D01*
Y318198D01*
X321975Y318723D01*
X322500Y319772D02*
X319351D01*
Y321347D01*
X319876Y321871D01*
X320926D01*
X321450Y321347D01*
Y319772D01*
X303000Y308000D02*
X299851D01*
Y309574D01*
X300376Y310099D01*
X301426D01*
X301951Y309574D01*
Y308000D01*
X299851Y311149D02*
X303000D01*
X301951Y312198D01*
X303000Y313248D01*
X299851D01*
X303000Y314297D02*
X299851D01*
X300901Y315347D01*
X299851Y316396D01*
X303000D01*
X303525Y317446D02*
Y319545D01*
X299851Y320594D02*
X303000D01*
Y322169D01*
X302475Y322693D01*
X301951D01*
X301426Y322169D01*
Y320594D01*
Y322169D01*
X300901Y322693D01*
X300376D01*
X299851Y322169D01*
Y320594D01*
D45*
X363694Y236900D02*
G03*
X364544Y236050I850J0D01*
G01*
Y241950D02*
G03*
X363694Y241100I0J-850D01*
G01*
X375456Y236050D02*
G03*
X376306Y236900I0J850D01*
G01*
Y241100D02*
G03*
X375456Y241950I-850J0D01*
G01*
X234400Y307306D02*
G03*
X233550Y306456I0J-850D01*
G01*
X239450D02*
G03*
X238600Y307306I-850J0D01*
G01*
X233550Y295544D02*
G03*
X234400Y294694I850J0D01*
G01*
X238600D02*
G03*
X239450Y295544I0J850D01*
G01*
X364544Y236050D02*
X375456D01*
X364544Y241950D02*
X375456D01*
X363694Y236900D02*
Y241100D01*
X376306Y236900D02*
Y241100D01*
X234400Y307306D02*
X238600D01*
X234400Y294694D02*
X238600D01*
X233550Y295544D02*
Y306456D01*
X239450Y295544D02*
Y306456D01*
D46*
X344492Y258106D02*
G03*
X344492Y258106I-492J0D01*
G01*
X325768Y322185D02*
G03*
X325768Y322185I-492J0D01*
G01*
X271272Y324870D02*
G03*
X271272Y324870I-492J0D01*
G01*
X235646Y319551D02*
G03*
X235646Y319551I-492J0D01*
G01*
X277346Y286043D02*
G03*
X277346Y286043I-492J0D01*
G01*
D47*
X376500Y356500D02*
G03*
X376500Y356500I-30000J0D01*
G01*
X307500Y293000D02*
X317500D01*
X307500D02*
Y323000D01*
X317500D01*
Y293000D02*
Y323000D01*
X348626Y279858D02*
X349512D01*
X348626Y262142D02*
X349512D01*
X338488Y279858D02*
X339374D01*
X338488Y262142D02*
X339374D01*
X349512D02*
Y279858D01*
X338488Y262142D02*
Y279858D01*
X262500Y365000D02*
Y375000D01*
X302500D01*
X262500Y365000D02*
X302500D01*
Y375000D01*
X314736Y277303D02*
Y277697D01*
X319264Y277303D02*
Y277697D01*
X285846Y356921D02*
X287618D01*
X277382D02*
X279153D01*
X277382Y350524D02*
Y356921D01*
X287618Y350524D02*
Y356921D01*
X270847D02*
X272618D01*
X262382D02*
X264154D01*
X262382Y350524D02*
Y356921D01*
X272618Y350524D02*
Y356921D01*
X343614Y314803D02*
Y315197D01*
X339087Y314803D02*
Y315197D01*
X338803Y306264D02*
X339197D01*
X338803Y301736D02*
X339197D01*
X324303Y306264D02*
X324697D01*
X324303Y301736D02*
X324697D01*
X252236Y349803D02*
Y350197D01*
X256764Y349803D02*
Y350197D01*
X313264Y333803D02*
Y334197D01*
X308736Y333803D02*
Y334197D01*
X273736Y333803D02*
Y334197D01*
X278264Y333803D02*
Y334197D01*
X263736Y331303D02*
Y331697D01*
X268264Y331303D02*
Y331697D01*
X317803Y267264D02*
X318197D01*
X317803Y262736D02*
X318197D01*
X317803Y246736D02*
X318197D01*
X317803Y251264D02*
X318197D01*
X256736Y271303D02*
Y271697D01*
X261264Y271303D02*
Y271697D01*
X254264Y279803D02*
Y280197D01*
X249736Y279803D02*
Y280197D01*
X248803Y259264D02*
X249197D01*
X248803Y254736D02*
X249197D01*
X249736Y266803D02*
Y267197D01*
X254264Y266803D02*
Y267197D01*
X328803Y270736D02*
X329197D01*
X328803Y275264D02*
X329197D01*
X301346Y356921D02*
X303118D01*
X292882D02*
X294654D01*
X292882Y350524D02*
Y356921D01*
X303118Y350524D02*
Y356921D01*
X328622Y321102D02*
X331378D01*
X328622Y308898D02*
X331378D01*
X328622D02*
Y321102D01*
X331378Y308898D02*
Y321102D01*
X275701Y297508D02*
X288299D01*
X275701Y323492D02*
X288299D01*
Y297508D02*
Y323492D01*
X275701Y297508D02*
Y323492D01*
X269862Y270803D02*
Y271197D01*
X265138Y270803D02*
Y271197D01*
X240638Y279803D02*
Y280197D01*
X245362Y279803D02*
Y280197D01*
X247373Y301476D02*
Y301870D01*
X242648Y301476D02*
Y301870D01*
X334803Y289638D02*
X335197D01*
X334803Y294362D02*
X335197D01*
X248803Y246138D02*
X249197D01*
X248803Y250862D02*
X249197D01*
X245362Y266803D02*
Y267197D01*
X240638Y266803D02*
Y267197D01*
X331862Y251303D02*
Y251697D01*
X327138Y251303D02*
Y251697D01*
X317803Y255138D02*
X318197D01*
X317803Y259862D02*
X318197D01*
X327803Y283362D02*
X328197D01*
X327803Y278638D02*
X328197D01*
X310362Y277303D02*
Y277697D01*
X305638Y277303D02*
Y277697D01*
X269862Y250957D02*
Y251350D01*
X265138Y250957D02*
Y251350D01*
X257638Y251303D02*
Y251697D01*
X262362Y251303D02*
Y251697D01*
X297303Y242638D02*
X297697D01*
X297303Y247362D02*
X297697D01*
X305638Y254803D02*
Y255197D01*
X310362Y254803D02*
Y255197D01*
X286303Y292862D02*
X286697D01*
X286303Y288138D02*
X286697D01*
X272803Y292862D02*
X273197D01*
X272803Y288138D02*
X273197D01*
X259803Y295264D02*
X260197D01*
X259803Y290736D02*
X260197D01*
X236157Y325457D02*
X255842D01*
X236157Y332543D02*
X255842D01*
X236157Y325457D02*
Y332543D01*
X255842Y325457D02*
Y332543D01*
X283350Y250374D02*
X289650D01*
X283350Y284626D02*
X289650D01*
Y250374D02*
Y284626D01*
X283350Y250374D02*
Y284626D01*
D48*
X280819Y319555D02*
G03*
X280819Y319555I-1181J0D01*
G01*
D49*
X240094Y328606D02*
G03*
X240094Y328606I-787J0D01*
G01*
D50*
X355048Y369000D02*
Y372936D01*
X353080Y370968D02*
X357016D01*
D51*
X375736Y236015D02*
D03*
D52*
X376866Y239000D02*
D03*
D53*
X375866Y242025D02*
D03*
D54*
X381295Y284500D02*
D03*
D55*
X233475Y306867D02*
D03*
D56*
X236500Y307867D02*
D03*
D57*
X239485Y306737D02*
D03*
M02*
