%FSLAX25Y25*%
%MOIN*%
G70*
G01*
G75*
G04 Layer_Color=16711935*
%ADD10O,0.09843X0.02756*%
%ADD11O,0.02362X0.08661*%
%ADD12R,0.03740X0.05315*%
%ADD13R,0.04134X0.05512*%
%ADD14R,0.05512X0.04134*%
%ADD15R,0.06300X0.05500*%
%ADD16O,0.06693X0.01378*%
%ADD17R,0.03543X0.02559*%
%ADD18R,0.03543X0.03740*%
%ADD19R,0.03937X0.03937*%
%ADD20R,0.05315X0.03740*%
%ADD21R,0.06102X0.09449*%
%ADD22R,0.03937X0.03937*%
%ADD23C,0.05906*%
%ADD24R,0.02000X0.02000*%
%ADD25C,0.01000*%
%ADD26C,0.02000*%
%ADD27C,0.01600*%
%ADD28C,0.03200*%
%ADD29C,0.02800*%
%ADD30C,0.01400*%
%ADD31C,0.10827*%
%ADD32C,0.10000*%
%ADD33R,0.07480X0.10236*%
%ADD34O,0.07480X0.10236*%
%ADD35O,0.09843X0.06693*%
%ADD36R,0.07874X0.07874*%
%ADD37C,0.07874*%
%ADD38R,0.05906X0.05906*%
%ADD39C,0.03400*%
%ADD40C,0.02400*%
%ADD41C,0.05000*%
%ADD42C,0.03150*%
%ADD43C,0.03000*%
G04:AMPARAMS|DCode=44|XSize=34mil|YSize=20mil|CornerRadius=0mil|HoleSize=0mil|Usage=FLASHONLY|Rotation=225.000|XOffset=0mil|YOffset=0mil|HoleType=Round|Shape=Rectangle|*
%AMROTATEDRECTD44*
4,1,4,0.00495,0.01909,0.01909,0.00495,-0.00495,-0.01909,-0.01909,-0.00495,0.00495,0.01909,0.0*
%
%ADD44ROTATEDRECTD44*%

%ADD45P,0.02828X4X270.0*%
%ADD46C,0.00984*%
%ADD47C,0.01575*%
%ADD48C,0.02362*%
%ADD49C,0.00800*%
%ADD50C,0.00787*%
%ADD51C,0.00591*%
%ADD52R,0.00730X0.02560*%
%ADD53R,0.06700X0.01800*%
%ADD54R,0.00650X0.02300*%
%ADD55R,0.05906X0.78740*%
%ADD56R,0.02300X0.00650*%
%ADD57R,0.01800X0.06700*%
%ADD58R,0.02560X0.00730*%
%ADD59O,0.10866X0.03780*%
%ADD60O,0.03386X0.09685*%
%ADD61R,0.04764X0.06339*%
%ADD62R,0.05158X0.06535*%
%ADD63R,0.06535X0.05158*%
%ADD64R,0.07324X0.06524*%
%ADD65O,0.07293X0.01978*%
%ADD66R,0.04567X0.03583*%
%ADD67R,0.04567X0.04764*%
%ADD68R,0.06339X0.04764*%
%ADD69R,0.07126X0.10472*%
%ADD70C,0.06929*%
%ADD71C,0.11850*%
%ADD72C,0.11024*%
%ADD73C,0.01024*%
%ADD74R,0.08504X0.11260*%
%ADD75O,0.08504X0.11260*%
%ADD76O,0.10866X0.07717*%
%ADD77R,0.08898X0.08898*%
%ADD78C,0.08898*%
%ADD79R,0.06929X0.06929*%
D70*
X312500Y308000D02*
D03*
Y318000D02*
D03*
X259500Y263500D02*
D03*
X263000Y341000D02*
D03*
X284500Y251500D02*
D03*
X288000Y267500D02*
D03*
X241500Y314000D02*
D03*
X261000D02*
D03*
X338000Y284000D02*
D03*
X286000Y276500D02*
D03*
X296000Y290500D02*
D03*
X270000Y341000D02*
D03*
D71*
X280500Y214500D02*
D03*
X260500D02*
D03*
X280500Y234500D02*
D03*
X260500D02*
D03*
X296000D02*
D03*
X316000D02*
D03*
X296000Y214500D02*
D03*
X316000D02*
D03*
X351500D02*
D03*
X331500D02*
D03*
X351500Y234500D02*
D03*
X331500D02*
D03*
D72*
X270500Y224500D02*
D03*
X306000D02*
D03*
X341500D02*
D03*
D73*
X373000Y220500D02*
D03*
X240000Y367500D02*
D03*
Y220000D02*
D03*
D74*
X297500Y370000D02*
D03*
D75*
X287500D02*
D03*
X277500D02*
D03*
X267500D02*
D03*
D76*
X368500Y254972D02*
D03*
Y274658D02*
D03*
Y294342D02*
D03*
Y314028D02*
D03*
D77*
X346500Y371500D02*
D03*
D78*
Y341500D02*
D03*
D79*
X312500Y298000D02*
D03*
M02*
